<?xml version="1.0" encoding="UTF-8"?>
<svg id="Layer_2" data-name="Layer 2" xmlns="http://www.w3.org/2000/svg" viewBox="0 0 238.37 141.64">
  <defs>
    <style>
      .cls-1 {
        fill: #231f20;
        font-family: MyriadPro-Regular, 'Myriad Pro';
        font-size: 11px;
      }
    </style>
  </defs>
  <g id="Layer_1-2" data-name="Layer 1">
    <rect x="71.15" width="1.19" height="1.19"/>
    <rect x="72.34" width="22.53" height="1.19"/>
    <rect x="94.87" width="1.19" height="1.19"/>
    <rect x="166.03" width="1.19" height="1.19"/>
    <rect x="167.21" width="22.53" height="1.19"/>
    <rect x="189.75" width="1.19" height="1.19"/>
    <rect x="71.15" y="1.18" width="1.19" height="22.53"/>
    <rect x="94.87" y="1.18" width="1.19" height="22.53"/>
    <rect x="166.03" y="1.18" width="1.19" height="22.53"/>
    <rect x="189.75" y="1.18" width="1.19" height="22.53"/>
    <rect x="71.15" y="23.72" width="1.19" height="1.19"/>
    <rect x="72.34" y="23.72" width="22.53" height="1.19"/>
    <rect x="23.65" y="23.72" width="23.67" height="1.19"/>
    <rect x="23.73" y="140.41" width="23.67" height="1.19"/>
    <rect x="94.87" y="23.72" width="1.19" height="1.19"/>
    <rect x="166.03" y="23.72" width="1.19" height="1.19"/>
    <rect x="167.21" y="23.72" width="22.53" height="1.19"/>
    <rect x="189.75" y="23.72" width="1.19" height="1.19"/>
    <rect x="71.15" y="24.9" width="1.19" height="21.35"/>
    <rect x="23.65" y="24.9" width="1.19" height="21.35"/>
    <rect x="23.7" y="119.09" width="1.18" height="22.55"/>
    <rect x="94.87" y="24.9" width="1.19" height="21.35"/>
    <rect x="166.03" y="24.9" width="1.19" height="21.35"/>
    <rect x="189.75" y="24.9" width="1.19" height="21.35"/>
    <rect x="47.4" y="23.72" width="1.19" height="45.01"/>
    <rect x="71.15" y="46.25" width="1.19" height="1.19"/>
    <rect x="72.34" y="46.25" width="22.53" height="1.19"/>
    <rect x="23.65" y="46.25" width="23.73" height="1.19"/>
    <rect x="23.7" y="117.91" width="23.73" height="1.19"/>
    <rect x="94.87" y="46.25" width="1.19" height="1.19"/>
    <rect x="166.03" y="46.25" width="1.19" height="1.19"/>
    <rect x="167.21" y="46.25" width="22.53" height="1.19"/>
    <rect x="189.75" y="46.25" width="1.19" height="1.19"/>
    <rect x="71.15" y="47.44" width="1.19" height="22.53"/>
    <rect x="23.65" y="47.44" width="1.19" height="22.53"/>
    <rect x="23.7" y="95.37" width="1.19" height="22.53"/>
    <rect x="94.87" y="47.44" width="1.19" height="22.53"/>
    <rect x="166.03" y="47.44" width="1.19" height="22.53"/>
    <rect x="189.75" y="47.44" width="1.19" height="22.53"/>
    <rect y="68.78" width="1.19" height="1.19"/>
    <rect x="1.19" y="68.78" width="22.53" height="1.19"/>
    <rect x="23.72" y="68.78" width="1.19" height="1.19"/>
    <rect x="24.9" y="68.78" width="22.53" height="1.19"/>
    <rect x="47.44" y="68.78" width="1.19" height="1.19"/>
    <rect x="48.62" y="68.78" width="22.53" height="1.19"/>
    <rect x="71.15" y="68.78" width="1.19" height="1.19"/>
    <rect x="72.34" y="68.78" width="22.53" height="1.19"/>
    <rect x="94.87" y="68.78" width="1.19" height="1.19"/>
    <rect x="96.06" y="68.78" width="22.53" height="1.19"/>
    <rect x="118.59" y="68.78" width="1.19" height="1.19"/>
    <rect x="119.78" y="68.78" width="22.53" height="1.19"/>
    <rect x="142.31" y="68.78" width="1.19" height="1.19"/>
    <rect x="143.5" y="68.78" width="22.53" height="1.19"/>
    <rect x="166.03" y="68.78" width="1.19" height="1.19"/>
    <rect x="167.21" y="68.78" width="22.53" height="1.19"/>
    <rect x="189.75" y="68.78" width="1.19" height="1.19"/>
    <rect x="190.93" y="68.78" width="22.53" height="1.19"/>
    <rect x="213.47" y="68.78" width="1.19" height="1.19"/>
    <rect x="214.65" y="68.78" width="22.53" height="1.19"/>
    <rect x="237.18" y="68.78" width="1.19" height="1.19"/>
    <rect y="69.97" width="1.19" height="26.09"/>
    <rect x="23.72" y="69.97" width="1.19" height="26.09"/>
    <rect x="47.44" y="69.97" width="1.19" height="26.09"/>
    <rect x="71.15" y="69.97" width="1.19" height="26.09"/>
    <rect x="94.87" y="69.97" width="1.19" height="26.09"/>
    <rect x="118.59" y="69.97" width="1.19" height="26.09"/>
    <rect x="142.31" y="69.97" width="1.19" height="26.09"/>
    <rect x="166.03" y="69.97" width="1.19" height="26.09"/>
    <rect x="189.75" y="69.97" width="1.19" height="26.09"/>
    <rect x="213.47" y="69.97" width="1.19" height="26.09"/>
    <rect x="237.18" y="69.97" width="1.19" height="26.09"/>
    <rect y="94.87" width="1.19" height="1.19"/>
    <rect x="1.19" y="94.87" width="22.53" height="1.19"/>
    <rect x="23.72" y="94.87" width="1.19" height="1.19"/>
    <rect x="24.9" y="94.87" width="22.53" height="1.19"/>
    <rect x="47.44" y="94.87" width="1.19" height="1.19"/>
    <rect x="48.62" y="94.87" width="22.53" height="1.19"/>
    <rect x="47.4" y="94.97" width="1.19" height="46.63"/>
    <rect x="72.34" y="94.87" width="22.53" height="1.19"/>
    <rect x="94.87" y="94.87" width="1.19" height="1.19"/>
    <rect x="96.06" y="94.87" width="22.53" height="1.19"/>
    <rect x="118.59" y="94.87" width="1.19" height="1.19"/>
    <rect x="119.78" y="94.87" width="22.53" height="1.19"/>
    <rect x="142.31" y="94.87" width="1.19" height="1.19"/>
    <rect x="143.5" y="94.87" width="22.53" height="1.19"/>
    <rect x="166.03" y="94.87" width="1.19" height="1.19"/>
    <rect x="167.21" y="94.87" width="22.53" height="1.19"/>
    <rect x="189.75" y="94.87" width="1.19" height="1.19"/>
    <rect x="190.93" y="94.87" width="22.53" height="1.19"/>
    <rect x="213.47" y="94.87" width="1.19" height="1.19"/>
    <rect x="214.65" y="94.87" width="22.53" height="1.19"/>
    <rect x="237.18" y="94.87" width="1.19" height="1.19"/>
    <text class="cls-1" transform="translate(2.5 80.39)"><tspan x="0" y="0">4</tspan></text>
    <text class="cls-1" transform="translate(168 11.13)"><tspan x="0" y="0">2</tspan></text>
    <text class="cls-1" transform="translate(26 35.14)"><tspan x="0" y="0">3</tspan></text>
  </g>
</svg>