<?xml version="1.0" encoding="UTF-8"?>
<svg id="Layer_2" data-name="Layer 2" xmlns="http://www.w3.org/2000/svg" xmlns:xlink="http://www.w3.org/1999/xlink" viewBox="0 0 537.93 71.35">
  <defs>
    <style>
      .cls-1 {
        fill: #f89631;
      }

      .cls-2 {
        fill: #fff;
      }

      .cls-3 {
        fill: none;
      }

      .cls-4 {
        clip-path: url(#clippath-1);
      }

      .cls-5 {
        clip-path: url(#clippath-3);
      }

      .cls-6 {
        clip-path: url(#clippath-2);
      }

      .cls-7 {
        clip-path: url(#clippath);
      }
    </style>
    <clipPath id="clippath">
      <rect class="cls-3" width="537.93" height="71.35"/>
    </clipPath>
    <clipPath id="clippath-1">
      <rect class="cls-3" width="537.93" height="71.35"/>
    </clipPath>
    <clipPath id="clippath-2">
      <rect class="cls-3" width="537.93" height="71.35"/>
    </clipPath>
    <clipPath id="clippath-3">
      <rect class="cls-3" width="537.93" height="71.35"/>
    </clipPath>
  </defs>
  <g id="Layer_1-2" data-name="Layer 1">
    <g class="cls-7">
      <rect class="cls-1" y="0" width="186.89" height="71.35" rx="3.6" ry="3.6"/>
    </g>
    <g>
      <path class="cls-2" d="M5.54,8.99h.82v2.44c.32-.52.94-.8,1.63-.8,1.1,0,1.97.7,1.97,2.12v2.91h-.81v-2.79c0-1.01-.55-1.52-1.38-1.52s-1.41.52-1.41,1.58v2.73h-.82v-6.66Z"/>
      <path class="cls-2" d="M13.43,15.74c-1.4,0-2.44-.99-2.44-2.56s1-2.54,2.44-2.54,2.37,1.01,2.37,2.36c0,.18,0,.32-.03.5h-3.94c.06,1,.77,1.55,1.6,1.55.74,0,1.21-.38,1.39-.91h.88c-.25.9-1.04,1.6-2.27,1.6ZM11.84,12.83h3.11c0-.96-.71-1.49-1.56-1.49-.8,0-1.47.53-1.56,1.49Z"/>
      <path class="cls-2" d="M16.47,11.42l.53-2.04h.91l-.86,2.04h-.58Z"/>
      <path class="cls-2" d="M18.85,8.99h.82v6.66h-.82v-6.66Z"/>
      <path class="cls-2" d="M21.06,8.99h.82v6.66h-.82v-6.66Z"/>
      <path class="cls-2" d="M23.27,12.01h6.6v.69h-6.6v-.69Z"/>
      <path class="cls-2" d="M31.24,8.99h.82v2.44c.32-.52.94-.8,1.63-.8,1.1,0,1.97.7,1.97,2.12v2.91h-.81v-2.79c0-1.01-.55-1.52-1.38-1.52s-1.41.52-1.41,1.58v2.73h-.82v-6.66Z"/>
      <path class="cls-2" d="M39.14,15.74c-1.4,0-2.44-.99-2.44-2.56s1-2.54,2.44-2.54,2.37,1.01,2.37,2.36c0,.18,0,.32-.03.5h-3.94c.06,1,.77,1.55,1.6,1.55.74,0,1.21-.38,1.39-.91h.88c-.25.9-1.04,1.6-2.27,1.6ZM37.54,12.83h3.11c0-.96-.71-1.49-1.56-1.49-.8,0-1.47.53-1.56,1.49Z"/>
      <path class="cls-2" d="M44.4,10.72h.84l1.13,4.14,1.22-4.14h.84l1.2,4.15,1.12-4.15h.81l-1.54,4.93h-.85l-1.19-3.92-1.19,3.92h-.85l-1.55-4.93Z"/>
      <path class="cls-2" d="M52.23,9.36c0-.32.24-.56.56-.56.3,0,.54.24.54.56s-.24.56-.54.56c-.31,0-.56-.24-.56-.56ZM52.37,10.72h.82v4.93h-.82v-4.93Z"/>
      <path class="cls-2" d="M54.58,8.99h.82v6.66h-.82v-6.66Z"/>
      <path class="cls-2" d="M56.79,8.99h.82v6.66h-.82v-6.66Z"/>
    </g>
    <g>
      <path class="cls-2" d="M93.29,15.74c-1.15,0-1.96-.63-2.02-1.53h.85c.04.48.47.84,1.16.84.65,0,1.01-.32,1.01-.73,0-1.1-2.92-.46-2.92-2.29,0-.76.71-1.38,1.81-1.38s1.81.58,1.86,1.55h-.82c-.04-.5-.41-.86-1.07-.86-.6,0-.96.29-.96.68,0,1.17,2.86.53,2.9,2.29,0,.81-.71,1.42-1.8,1.42Z"/>
      <path class="cls-2" d="M96.24,8.99h.82v2.44c.32-.52.94-.8,1.63-.8,1.1,0,1.97.7,1.97,2.12v2.91h-.81v-2.79c0-1.01-.55-1.52-1.38-1.52s-1.41.52-1.41,1.58v2.73h-.82v-6.66Z"/>
      <path class="cls-2" d="M104.14,15.74c-1.4,0-2.44-.99-2.44-2.56s1-2.54,2.44-2.54,2.37,1.01,2.37,2.36c0,.18,0,.32-.03.5h-3.94c.06,1,.77,1.55,1.6,1.55.74,0,1.21-.38,1.39-.91h.88c-.25.9-1.04,1.6-2.27,1.6ZM102.54,12.83h3.11c0-.96-.71-1.49-1.56-1.49-.8,0-1.47.53-1.56,1.49Z"/>
      <path class="cls-2" d="M107.18,11.42l.53-2.04h.91l-.86,2.04h-.58Z"/>
      <path class="cls-2" d="M109.55,8.99h.82v6.66h-.82v-6.66Z"/>
      <path class="cls-2" d="M111.77,8.99h.82v6.66h-.82v-6.66Z"/>
      <path class="cls-2" d="M113.97,12.01h6.6v.69h-6.6v-.69Z"/>
      <path class="cls-2" d="M123.69,15.74c-1.15,0-1.96-.63-2.02-1.53h.85c.04.48.47.84,1.16.84.65,0,1.01-.32,1.01-.73,0-1.1-2.92-.46-2.92-2.29,0-.76.71-1.38,1.81-1.38s1.81.58,1.86,1.55h-.82c-.04-.5-.41-.86-1.07-.86-.6,0-.96.29-.96.68,0,1.17,2.86.53,2.9,2.29,0,.81-.71,1.42-1.8,1.42Z"/>
      <path class="cls-2" d="M126.64,8.99h.82v2.44c.32-.52.94-.8,1.63-.8,1.1,0,1.97.7,1.97,2.12v2.91h-.81v-2.79c0-1.01-.55-1.52-1.38-1.52s-1.41.52-1.41,1.58v2.73h-.82v-6.66Z"/>
      <path class="cls-2" d="M134.54,15.74c-1.4,0-2.44-.99-2.44-2.56s1-2.54,2.44-2.54,2.37,1.01,2.37,2.36c0,.18,0,.32-.03.5h-3.94c.06,1,.77,1.55,1.6,1.55.74,0,1.21-.38,1.39-.91h.88c-.25.9-1.04,1.6-2.27,1.6ZM132.94,12.83h3.11c0-.96-.71-1.49-1.56-1.49-.8,0-1.47.53-1.56,1.49Z"/>
      <path class="cls-2" d="M139.8,10.72h.84l1.13,4.14,1.22-4.14h.84l1.2,4.15,1.12-4.15h.81l-1.54,4.93h-.85l-1.19-3.92-1.19,3.92h-.85l-1.55-4.93Z"/>
      <path class="cls-2" d="M147.63,9.36c0-.32.24-.56.56-.56.3,0,.54.24.54.56s-.24.56-.54.56c-.31,0-.56-.24-.56-.56ZM147.77,10.72h.82v4.93h-.82v-4.93Z"/>
      <path class="cls-2" d="M149.98,8.99h.82v6.66h-.82v-6.66Z"/>
      <path class="cls-2" d="M152.19,8.99h.82v6.66h-.82v-6.66Z"/>
    </g>
    <g>
      <path class="cls-2" d="M5.4,24.16c0-.32.24-.56.56-.56.3,0,.54.24.54.56s-.24.56-.54.56c-.31,0-.56-.24-.56-.56ZM5.54,25.52h.82v4.93h-.82v-4.93Z"/>
      <path class="cls-2" d="M7.93,26.19h-.64v-.68h.64v-1.24h.82v1.24h1.29v.68h-1.29v2.91c0,.49.18.66.68.66h.6v.69h-.74c-.87,0-1.37-.36-1.37-1.35v-2.91Z"/>
      <path class="cls-2" d="M10.62,26.22l.53-2.04h.91l-.86,2.04h-.58Z"/>
      <path class="cls-2" d="M13,23.79h.82v6.66h-.82v-6.66Z"/>
      <path class="cls-2" d="M15.21,23.79h.82v6.66h-.82v-6.66Z"/>
      <path class="cls-2" d="M17.42,26.8h6.6v.69h-6.6v-.69Z"/>
      <path class="cls-2" d="M25.26,24.16c0-.32.24-.56.56-.56.3,0,.54.24.54.56s-.24.56-.54.56c-.31,0-.56-.24-.56-.56ZM25.39,25.52h.82v4.93h-.82v-4.93Z"/>
      <path class="cls-2" d="M27.79,26.19h-.64v-.68h.64v-1.24h.82v1.24h1.29v.68h-1.29v2.91c0,.49.18.66.68.66h.6v.69h-.74c-.87,0-1.37-.36-1.37-1.35v-2.91Z"/>
      <path class="cls-2" d="M32.7,25.52h.84l1.13,4.14,1.22-4.14h.84l1.2,4.15,1.12-4.15h.81l-1.54,4.93h-.85l-1.19-3.92-1.19,3.92h-.85l-1.55-4.93Z"/>
      <path class="cls-2" d="M40.53,24.16c0-.32.24-.56.56-.56.3,0,.54.24.54.56s-.24.56-.54.56c-.31,0-.56-.24-.56-.56ZM40.67,25.52h.82v4.93h-.82v-4.93Z"/>
      <path class="cls-2" d="M42.88,23.79h.82v6.66h-.82v-6.66Z"/>
      <path class="cls-2" d="M45.09,23.79h.82v6.66h-.82v-6.66Z"/>
    </g>
    <g>
      <path class="cls-2" d="M92.41,24.57v5.42h.4v.42h-1.61v-.42h.4v-5.42h-.4v-.43h1.61v.43h-.4Z"/>
      <path class="cls-2" d="M93.35,26.22l.53-2.04h.91l-.86,2.04h-.58Z"/>
      <path class="cls-2" d="M95.73,23.79h.82v6.66h-.82v-6.66Z"/>
      <path class="cls-2" d="M97.94,23.79h.82v6.66h-.82v-6.66Z"/>
      <path class="cls-2" d="M100.15,26.8h6.6v.69h-6.6v-.69Z"/>
      <path class="cls-2" d="M108.99,24.57v5.42h.4v.42h-1.61v-.42h.4v-5.42h-.4v-.43h1.61v.43h-.4Z"/>
      <path class="cls-2" d="M112.15,25.52h.84l1.13,4.14,1.22-4.14h.84l1.2,4.15,1.12-4.15h.81l-1.54,4.93h-.85l-1.19-3.92-1.19,3.92h-.85l-1.55-4.93Z"/>
      <path class="cls-2" d="M119.98,24.16c0-.32.24-.56.56-.56.3,0,.54.24.54.56s-.24.56-.54.56c-.31,0-.56-.24-.56-.56ZM120.12,25.52h.82v4.93h-.82v-4.93Z"/>
      <path class="cls-2" d="M122.33,23.79h.82v6.66h-.82v-6.66Z"/>
      <path class="cls-2" d="M124.55,23.79h.82v6.66h-.82v-6.66Z"/>
    </g>
    <g>
      <path class="cls-2" d="M4.95,40.31h.84l1.13,4.14,1.22-4.14h.84l1.2,4.15,1.12-4.15h.81l-1.54,4.93h-.85l-1.19-3.92-1.19,3.92h-.85l-1.55-4.93Z"/>
      <path class="cls-2" d="M15.05,45.33c-1.4,0-2.44-.99-2.44-2.56s1-2.54,2.44-2.54,2.37,1.01,2.37,2.36c0,.18,0,.32-.03.5h-3.94c.06,1,.77,1.55,1.6,1.55.74,0,1.21-.38,1.39-.91h.88c-.25.9-1.04,1.6-2.27,1.6ZM13.46,42.42h3.11c0-.96-.71-1.49-1.56-1.49-.8,0-1.47.53-1.56,1.49Z"/>
      <path class="cls-2" d="M18.09,41.01l.53-2.04h.91l-.86,2.04h-.58Z"/>
      <path class="cls-2" d="M20.47,38.58h.82v6.66h-.82v-6.66Z"/>
      <path class="cls-2" d="M22.68,38.58h.82v6.66h-.82v-6.66Z"/>
      <path class="cls-2" d="M24.89,41.6h6.6v.69h-6.6v-.69Z"/>
      <path class="cls-2" d="M32.28,40.31h.84l1.13,4.14,1.22-4.14h.84l1.2,4.15,1.12-4.15h.81l-1.54,4.93h-.85l-1.19-3.92-1.19,3.92h-.85l-1.55-4.93Z"/>
      <path class="cls-2" d="M42.38,45.33c-1.4,0-2.44-.99-2.44-2.56s1-2.54,2.44-2.54,2.37,1.01,2.37,2.36c0,.18,0,.32-.03.5h-3.94c.06,1,.77,1.55,1.6,1.55.74,0,1.21-.38,1.39-.91h.88c-.25.9-1.04,1.6-2.27,1.6ZM40.78,42.42h3.11c0-.96-.71-1.49-1.56-1.49-.8,0-1.47.53-1.56,1.49Z"/>
      <path class="cls-2" d="M47.64,40.31h.84l1.13,4.14,1.22-4.14h.84l1.2,4.15,1.12-4.15h.81l-1.54,4.93h-.85l-1.19-3.92-1.19,3.92h-.85l-1.55-4.93Z"/>
      <path class="cls-2" d="M55.47,38.95c0-.32.24-.56.56-.56.3,0,.54.24.54.56s-.24.56-.54.56c-.31,0-.56-.24-.56-.56ZM55.61,40.31h.82v4.93h-.82v-4.93Z"/>
      <path class="cls-2" d="M57.82,38.58h.82v6.66h-.82v-6.66Z"/>
      <path class="cls-2" d="M60.03,38.58h.82v6.66h-.82v-6.66Z"/>
    </g>
    <g>
      <path class="cls-2" d="M91.72,40.99h-.64v-.68h.64v-1.24h.82v1.24h1.29v.68h-1.29v2.91c0,.49.18.66.68.66h.6v.69h-.74c-.87,0-1.37-.36-1.37-1.35v-2.91Z"/>
      <path class="cls-2" d="M94.82,38.58h.82v2.44c.32-.52.94-.8,1.63-.8,1.1,0,1.97.7,1.97,2.12v2.91h-.81v-2.79c0-1.01-.55-1.52-1.38-1.52s-1.41.52-1.41,1.58v2.73h-.82v-6.66Z"/>
      <path class="cls-2" d="M102.71,45.33c-1.4,0-2.44-.99-2.44-2.56s1-2.54,2.44-2.54,2.37,1.01,2.37,2.36c0,.18,0,.32-.03.5h-3.94c.06,1,.77,1.55,1.6,1.55.74,0,1.21-.38,1.39-.91h.88c-.25.9-1.04,1.6-2.27,1.6ZM101.12,42.42h3.11c0-.96-.71-1.49-1.56-1.49-.8,0-1.47.53-1.56,1.49Z"/>
      <path class="cls-2" d="M109.56,40.31h.85l-2.97,7.26h-.85l.97-2.38-1.99-4.88h.91l1.55,4,1.53-4Z"/>
      <path class="cls-2" d="M110.82,41.01l.53-2.04h.91l-.86,2.04h-.58Z"/>
      <path class="cls-2" d="M113.2,38.58h.82v6.66h-.82v-6.66Z"/>
      <path class="cls-2" d="M115.41,38.58h.82v6.66h-.82v-6.66Z"/>
      <path class="cls-2" d="M117.62,41.6h6.6v.69h-6.6v-.69Z"/>
      <path class="cls-2" d="M125.77,40.99h-.64v-.68h.64v-1.24h.82v1.24h1.29v.68h-1.29v2.91c0,.49.18.66.68.66h.6v.69h-.74c-.87,0-1.37-.36-1.37-1.35v-2.91Z"/>
      <path class="cls-2" d="M128.87,38.58h.82v2.44c.32-.52.94-.8,1.63-.8,1.1,0,1.97.7,1.97,2.12v2.91h-.81v-2.79c0-1.01-.55-1.52-1.38-1.52s-1.41.52-1.41,1.58v2.73h-.82v-6.66Z"/>
      <path class="cls-2" d="M136.76,45.33c-1.4,0-2.44-.99-2.44-2.56s1-2.54,2.44-2.54,2.37,1.01,2.37,2.36c0,.18,0,.32-.03.5h-3.94c.06,1,.77,1.55,1.6,1.55.74,0,1.21-.38,1.39-.91h.88c-.25.9-1.04,1.6-2.27,1.6ZM135.17,42.42h3.11c0-.96-.71-1.49-1.56-1.49-.8,0-1.47.53-1.56,1.49Z"/>
      <path class="cls-2" d="M143.61,40.31h.85l-2.97,7.26h-.85l.97-2.38-1.99-4.88h.91l1.55,4,1.53-4Z"/>
      <path class="cls-2" d="M147.09,40.31h.84l1.13,4.14,1.22-4.14h.84l1.2,4.15,1.12-4.15h.81l-1.54,4.93h-.85l-1.19-3.92-1.19,3.92h-.85l-1.55-4.93Z"/>
      <path class="cls-2" d="M154.92,38.95c0-.32.24-.56.56-.56.3,0,.54.24.54.56s-.24.56-.54.56c-.31,0-.56-.24-.56-.56ZM155.06,40.31h.82v4.93h-.82v-4.93Z"/>
      <path class="cls-2" d="M157.27,38.58h.82v6.66h-.82v-6.66Z"/>
      <path class="cls-2" d="M159.48,38.58h.82v6.66h-.82v-6.66Z"/>
    </g>
    <g class="cls-4">
      <rect class="cls-1" x="191.02" y="0" width="172.89" height="71.35" rx="3.6" ry="3.6"/>
    </g>
    <g>
      <path class="cls-2" d="M198.71,15.74c-1.4,0-2.46-.99-2.46-2.56s1.1-2.54,2.49-2.54,2.49.98,2.49,2.54-1.13,2.56-2.53,2.56ZM198.71,15.01c.86,0,1.69-.58,1.69-1.84s-.82-1.83-1.67-1.83-1.65.59-1.65,1.83.77,1.84,1.62,1.84Z"/>
      <path class="cls-2" d="M205.93,12.86c0-1.01-.55-1.52-1.38-1.52s-1.41.52-1.41,1.58v2.73h-.82v-4.93h.82v.7c.32-.51.92-.79,1.58-.79,1.14,0,2.02.7,2.02,2.12v2.91h-.81v-2.79Z"/>
      <path class="cls-2" d="M210.48,9.43h.88l2.3,5.15,2.3-5.15h.87v6.23h-.82v-4.65l-2.07,4.65h-.58l-2.08-4.65v4.65h-.82v-6.23Z"/>
      <path class="cls-2" d="M220.38,15.74c-1.4,0-2.46-.99-2.46-2.56s1.1-2.54,2.49-2.54,2.49.98,2.49,2.54-1.13,2.56-2.53,2.56ZM220.38,15.01c.86,0,1.69-.58,1.69-1.84s-.82-1.83-1.67-1.83-1.65.59-1.65,1.83.77,1.84,1.62,1.84Z"/>
      <path class="cls-2" d="M227.6,12.86c0-1.01-.55-1.52-1.38-1.52s-1.41.52-1.41,1.58v2.73h-.82v-4.93h.82v.7c.32-.51.92-.79,1.58-.79,1.14,0,2.02.7,2.02,2.12v2.91h-.81v-2.79Z"/>
      <path class="cls-2" d="M231.79,10.64c.77,0,1.49.4,1.83.96v-2.61h.83v6.66h-.83v-.93c-.3.55-.94,1.01-1.84,1.01-1.32,0-2.34-1.04-2.34-2.57s1.02-2.53,2.35-2.53ZM231.95,11.35c-.9,0-1.67.66-1.67,1.82s.77,1.84,1.67,1.84,1.67-.67,1.67-1.84-.77-1.83-1.67-1.83Z"/>
      <path class="cls-2" d="M237.87,10.64c.92,0,1.55.47,1.84.98v-.9h.83v4.93h-.83v-.92c-.3.53-.94,1-1.85,1-1.31,0-2.33-1.04-2.33-2.57s1.02-2.53,2.34-2.53ZM238.03,11.35c-.9,0-1.67.66-1.67,1.82s.77,1.84,1.67,1.84,1.67-.67,1.67-1.84-.77-1.83-1.67-1.83Z"/>
      <path class="cls-2" d="M245.32,10.72h.85l-2.97,7.26h-.85l.97-2.38-1.99-4.88h.91l1.55,4,1.53-4Z"/>
    </g>
    <g>
      <path class="cls-2" d="M309.3,15.74c-1.15,0-1.96-.63-2.02-1.53h.85c.04.48.47.84,1.16.84.65,0,1.01-.32,1.01-.73,0-1.1-2.92-.46-2.92-2.29,0-.76.71-1.38,1.81-1.38s1.81.58,1.86,1.55h-.82c-.04-.5-.41-.86-1.07-.86-.6,0-.96.29-.96.68,0,1.17,2.86.53,2.9,2.29,0,.81-.71,1.42-1.8,1.42Z"/>
      <path class="cls-2" d="M314.41,15.74c-1.4,0-2.46-.99-2.46-2.56s1.1-2.54,2.49-2.54,2.49.98,2.49,2.54-1.12,2.56-2.53,2.56ZM314.41,15.01c.86,0,1.69-.58,1.69-1.84s-.82-1.83-1.67-1.83-1.65.59-1.65,1.83.77,1.84,1.62,1.84Z"/>
      <path class="cls-2" d="M320.17,15.74c-1.4,0-2.46-.99-2.46-2.56s1.1-2.54,2.49-2.54,2.49.98,2.49,2.54-1.13,2.56-2.53,2.56ZM320.17,15.01c.86,0,1.69-.58,1.69-1.84s-.82-1.83-1.67-1.83-1.65.59-1.65,1.83.77,1.84,1.62,1.84Z"/>
      <path class="cls-2" d="M327.38,12.86c0-1.01-.55-1.52-1.38-1.52s-1.41.52-1.41,1.58v2.73h-.82v-4.93h.82v.7c.32-.51.92-.79,1.58-.79,1.14,0,2.02.7,2.02,2.12v2.91h-.81v-2.79Z"/>
    </g>
    <g>
      <path class="cls-2" d="M196.74,26.19h-.64v-.68h.64v-1.24h.82v1.24h1.29v.68h-1.29v2.91c0,.49.18.66.68.66h.6v.69h-.74c-.87,0-1.37-.36-1.37-1.35v-2.91Z"/>
      <path class="cls-2" d="M199.84,23.79h.82v2.44c.32-.52.94-.8,1.63-.8,1.1,0,1.97.7,1.97,2.12v2.91h-.81v-2.79c0-1.01-.55-1.52-1.38-1.52s-1.41.52-1.41,1.58v2.73h-.82v-6.66Z"/>
      <path class="cls-2" d="M205.46,24.16c0-.32.24-.56.56-.56.3,0,.54.24.54.56s-.24.56-.54.56c-.31,0-.56-.24-.56-.56ZM205.6,25.52h.82v4.93h-.82v-4.93Z"/>
      <path class="cls-2" d="M209.56,30.53c-1.15,0-1.96-.63-2.02-1.53h.85c.04.48.47.84,1.16.84.65,0,1.01-.32,1.01-.73,0-1.1-2.92-.46-2.92-2.29,0-.76.71-1.38,1.81-1.38s1.81.58,1.86,1.55h-.82c-.04-.5-.41-.86-1.07-.86-.6,0-.96.29-.96.68,0,1.17,2.86.53,2.9,2.29,0,.81-.71,1.42-1.8,1.42Z"/>
      <path class="cls-2" d="M217.04,30.53c-1.4,0-2.44-.99-2.44-2.56s1-2.54,2.44-2.54,2.37,1.01,2.37,2.36c0,.18,0,.32-.03.5h-3.94c.06,1,.77,1.55,1.6,1.55.74,0,1.21-.38,1.39-.91h.88c-.25.9-1.04,1.6-2.27,1.6ZM215.45,27.62h3.11c0-.96-.71-1.49-1.56-1.49-.8,0-1.47.53-1.56,1.49Z"/>
      <path class="cls-2" d="M220.79,25.52l1.54,4.18,1.53-4.18h.87l-1.94,4.93h-.95l-1.94-4.93h.88Z"/>
      <path class="cls-2" d="M227.67,30.53c-1.4,0-2.44-.99-2.44-2.56s1-2.54,2.44-2.54,2.37,1.01,2.37,2.36c0,.18,0,.32-.03.5h-3.94c.06,1,.77,1.55,1.6,1.55.74,0,1.21-.38,1.39-.91h.88c-.25.9-1.04,1.6-2.27,1.6ZM226.08,27.62h3.11c0-.96-.71-1.49-1.56-1.49-.8,0-1.47.53-1.56,1.49Z"/>
      <path class="cls-2" d="M234.73,27.66c0-1.01-.55-1.52-1.38-1.52s-1.41.52-1.41,1.58v2.73h-.82v-4.93h.82v.7c.32-.51.92-.79,1.58-.79,1.14,0,2.02.7,2.02,2.12v2.91h-.81v-2.79Z"/>
      <path class="cls-2" d="M236.74,24.16c0-.32.24-.56.56-.56.3,0,.54.24.54.56s-.24.56-.54.56c-.31,0-.56-.24-.56-.56ZM236.88,25.52h.82v4.93h-.82v-4.93Z"/>
      <path class="cls-2" d="M242.7,27.66c0-1.01-.55-1.52-1.38-1.52s-1.41.52-1.41,1.58v2.73h-.82v-4.93h.82v.7c.32-.51.92-.79,1.58-.79,1.14,0,2.02.7,2.02,2.12v2.91h-.81v-2.79Z"/>
      <path class="cls-2" d="M246.89,25.44c.9,0,1.55.45,1.84.98v-.9h.83v5.04c0,1.36-.91,2.32-2.36,2.32-1.3,0-2.22-.66-2.39-1.71h.81c.18.59.77,1,1.58,1,.87,0,1.53-.56,1.53-1.61v-1.04c-.3.53-.94,1.01-1.84,1.01-1.32,0-2.34-1.04-2.34-2.57s1.02-2.53,2.34-2.53ZM247.05,26.15c-.9,0-1.67.66-1.67,1.82s.77,1.84,1.67,1.84,1.67-.67,1.67-1.84-.77-1.83-1.67-1.83Z"/>
    </g>
    <g>
      <path class="cls-2" d="M307.56,23.79h.82v6.66h-.82v-6.66Z"/>
      <path class="cls-2" d="M311.81,25.44c.92,0,1.55.47,1.84.98v-.9h.83v4.93h-.83v-.92c-.3.53-.94,1-1.85,1-1.31,0-2.33-1.04-2.33-2.57s1.02-2.53,2.34-2.53ZM311.97,26.15c-.9,0-1.67.66-1.67,1.82s.77,1.84,1.67,1.84,1.67-.67,1.67-1.84-.77-1.83-1.67-1.83Z"/>
      <path class="cls-2" d="M316.03,26.19h-.64v-.68h.64v-1.24h.82v1.24h1.29v.68h-1.29v2.91c0,.49.18.66.68.66h.6v.69h-.74c-.87,0-1.37-.36-1.37-1.35v-2.91Z"/>
      <path class="cls-2" d="M321.26,30.53c-1.4,0-2.44-.99-2.44-2.56s1-2.54,2.44-2.54,2.37,1.01,2.37,2.36c0,.18,0,.32-.03.5h-3.94c.06,1,.77,1.55,1.6,1.55.74,0,1.21-.38,1.39-.91h.88c-.25.9-1.04,1.6-2.27,1.6ZM319.67,27.62h3.11c0-.96-.71-1.49-1.56-1.49-.8,0-1.47.53-1.56,1.49Z"/>
      <path class="cls-2" d="M325.53,30.45h-.82v-4.93h.82v.8c.28-.55.81-.89,1.59-.89v.85h-.22c-.78,0-1.38.35-1.38,1.5v2.68Z"/>
    </g>
    <g>
      <path class="cls-2" d="M196.42,38.95c0-.32.24-.56.56-.56.3,0,.54.24.54.56s-.24.56-.54.56c-.31,0-.56-.24-.56-.56ZM196.56,40.31h.82v4.93h-.82v-4.93Z"/>
      <path class="cls-2" d="M202.38,42.46c0-1.01-.55-1.52-1.38-1.52s-1.41.52-1.41,1.58v2.73h-.82v-4.93h.82v.7c.32-.51.92-.79,1.58-.79,1.14,0,2.02.7,2.02,2.12v2.91h-.81v-2.79Z"/>
      <path class="cls-2" d="M208.97,40.23c.92,0,1.55.47,1.84.98v-.9h.83v4.93h-.83v-.92c-.3.53-.94,1-1.85,1-1.31,0-2.33-1.04-2.33-2.57s1.02-2.53,2.34-2.53ZM209.13,40.94c-.9,0-1.67.66-1.67,1.82s.77,1.84,1.67,1.84,1.67-.67,1.67-1.84-.77-1.83-1.67-1.83Z"/>
      <path class="cls-2" d="M222.54,42.46c0-1.01-.54-1.52-1.35-1.52s-1.4.53-1.4,1.59v2.72h-.81v-2.79c0-1.01-.54-1.52-1.35-1.52s-1.4.53-1.4,1.59v2.72h-.82v-4.93h.82v.71c.32-.52.91-.8,1.56-.8.81,0,1.49.36,1.81,1.1.29-.71.99-1.1,1.75-1.1,1.13,0,2,.7,2,2.12v2.91h-.81v-2.79Z"/>
      <path class="cls-2" d="M226.84,45.33c-1.4,0-2.46-.99-2.46-2.56s1.1-2.54,2.49-2.54,2.49.98,2.49,2.54-1.13,2.56-2.53,2.56ZM226.84,44.61c.86,0,1.69-.58,1.69-1.84s-.82-1.83-1.67-1.83-1.65.59-1.65,1.83.77,1.84,1.62,1.84Z"/>
      <path class="cls-2" d="M234.06,42.46c0-1.01-.55-1.52-1.38-1.52s-1.41.52-1.41,1.58v2.73h-.82v-4.93h.82v.7c.32-.51.92-.79,1.58-.79,1.14,0,2.02.7,2.02,2.12v2.91h-.81v-2.79Z"/>
      <path class="cls-2" d="M236.39,40.99h-.64v-.68h.64v-1.24h.82v1.24h1.29v.68h-1.29v2.91c0,.49.18.66.68.66h.6v.69h-.74c-.87,0-1.37-.36-1.37-1.35v-2.91Z"/>
      <path class="cls-2" d="M239.49,38.58h.82v2.44c.32-.52.94-.8,1.63-.8,1.1,0,1.97.7,1.97,2.12v2.91h-.81v-2.79c0-1.01-.55-1.52-1.38-1.52s-1.41.52-1.41,1.58v2.73h-.82v-6.66Z"/>
      <path class="cls-2" d="M244.84,41.01l.53-2.04h.91l-.86,2.04h-.58Z"/>
      <path class="cls-2" d="M248.97,45.33c-1.15,0-1.96-.63-2.02-1.53h.85c.04.48.47.84,1.16.84.65,0,1.01-.32,1.01-.73,0-1.1-2.92-.46-2.92-2.29,0-.76.71-1.38,1.81-1.38s1.81.58,1.86,1.55h-.82c-.04-.5-.41-.86-1.07-.86-.6,0-.96.29-.96.68,0,1.17,2.86.53,2.9,2.29,0,.81-.71,1.42-1.8,1.42Z"/>
      <path class="cls-2" d="M254.5,40.99h-.64v-.68h.64v-1.24h.82v1.24h1.29v.68h-1.29v2.91c0,.49.18.66.68.66h.6v.69h-.74c-.87,0-1.37-.36-1.37-1.35v-2.91Z"/>
      <path class="cls-2" d="M257.46,38.95c0-.32.24-.56.56-.56.3,0,.54.24.54.56s-.24.56-.54.56c-.31,0-.56-.24-.56-.56ZM257.6,40.31h.82v4.93h-.82v-4.93Z"/>
      <path class="cls-2" d="M266.93,42.46c0-1.01-.54-1.52-1.35-1.52s-1.4.53-1.4,1.59v2.72h-.81v-2.79c0-1.01-.54-1.52-1.35-1.52s-1.4.53-1.4,1.59v2.72h-.82v-4.93h.82v.71c.32-.52.91-.8,1.56-.8.81,0,1.49.36,1.81,1.1.29-.71.99-1.1,1.75-1.1,1.13,0,2,.7,2,2.12v2.91h-.81v-2.79Z"/>
      <path class="cls-2" d="M271.21,45.33c-1.4,0-2.44-.99-2.44-2.56s1-2.54,2.44-2.54,2.37,1.01,2.37,2.36c0,.18,0,.32-.03.5h-3.94c.06,1,.77,1.55,1.6,1.55.74,0,1.21-.38,1.39-.91h.88c-.25.9-1.04,1.6-2.27,1.6ZM269.62,42.42h3.11c0-.96-.71-1.49-1.56-1.49-.8,0-1.47.53-1.56,1.49Z"/>
    </g>
    <g>
      <path class="cls-2" d="M307.74,40.99h-.64v-.68h.64v-1.24h.82v1.24h1.29v.68h-1.29v2.91c0,.49.18.66.68.66h.6v.69h-.74c-.87,0-1.37-.36-1.37-1.35v-2.91Z"/>
      <path class="cls-2" d="M310.83,38.58h.82v2.44c.32-.52.94-.8,1.63-.8,1.1,0,1.97.7,1.97,2.12v2.91h-.81v-2.79c0-1.01-.55-1.52-1.38-1.52s-1.41.52-1.41,1.58v2.73h-.82v-6.66Z"/>
      <path class="cls-2" d="M316.46,38.95c0-.32.24-.56.56-.56.3,0,.54.24.54.56s-.24.56-.54.56c-.31,0-.56-.24-.56-.56ZM316.59,40.31h.82v4.93h-.82v-4.93Z"/>
      <path class="cls-2" d="M320.55,45.33c-1.15,0-1.96-.63-2.02-1.53h.85c.04.48.47.84,1.16.84.65,0,1.01-.32,1.01-.73,0-1.1-2.92-.46-2.92-2.29,0-.76.71-1.38,1.81-1.38s1.81.58,1.86,1.55h-.82c-.04-.5-.41-.86-1.07-.86-.6,0-.96.29-.96.68,0,1.17,2.86.53,2.9,2.29,0,.81-.71,1.42-1.8,1.42Z"/>
      <path class="cls-2" d="M329.31,40.31h.85l-2.97,7.26h-.85l.97-2.38-1.99-4.88h.91l1.55,4,1.53-4Z"/>
      <path class="cls-2" d="M333.11,45.33c-1.4,0-2.44-.99-2.44-2.56s1-2.54,2.44-2.54,2.37,1.01,2.37,2.36c0,.18,0,.32-.03.5h-3.94c.06,1,.77,1.55,1.6,1.55.74,0,1.21-.38,1.39-.91h.88c-.25.9-1.04,1.6-2.27,1.6ZM331.51,42.42h3.11c0-.96-.71-1.49-1.56-1.49-.8,0-1.47.53-1.56,1.49Z"/>
      <path class="cls-2" d="M338.59,40.23c.92,0,1.55.47,1.84.98v-.9h.83v4.93h-.83v-.92c-.3.53-.94,1-1.85,1-1.31,0-2.33-1.04-2.33-2.57s1.02-2.53,2.34-2.53ZM338.75,40.94c-.9,0-1.67.66-1.67,1.82s.77,1.84,1.67,1.84,1.67-.67,1.67-1.84-.77-1.83-1.67-1.83Z"/>
      <path class="cls-2" d="M343.46,45.25h-.82v-4.93h.82v.8c.28-.55.81-.89,1.59-.89v.85h-.22c-.78,0-1.38.35-1.38,1.49v2.68Z"/>
    </g>
    <g class="cls-6">
      <g>
        <path class="cls-2" d="M196.42,53.76c0-.32.24-.56.56-.56.3,0,.54.24.54.56s-.24.56-.54.56c-.31,0-.56-.24-.56-.56ZM196.56,55.12h.82v4.93h-.82v-4.93Z"/>
        <path class="cls-2" d="M202.38,57.26c0-1.01-.55-1.52-1.38-1.52s-1.41.52-1.41,1.58v2.73h-.82v-4.93h.82v.7c.32-.51.92-.79,1.58-.79,1.14,0,2.02.7,2.02,2.12v2.91h-.81v-2.79Z"/>
        <path class="cls-2" d="M207.12,55.8h-.64v-.68h.64v-1.24h.82v1.24h1.29v.68h-1.29v2.91c0,.49.18.66.68.66h.6v.69h-.74c-.87,0-1.37-.36-1.37-1.35v-2.91Z"/>
        <path class="cls-2" d="M209.63,55.12h.84l1.13,4.14,1.22-4.14h.84l1.2,4.15,1.12-4.15h.81l-1.54,4.93h-.85l-1.19-3.92-1.19,3.92h-.85l-1.55-4.93Z"/>
        <path class="cls-2" d="M219.74,60.14c-1.4,0-2.46-.99-2.46-2.56s1.1-2.54,2.49-2.54,2.49.98,2.49,2.54-1.12,2.56-2.53,2.56ZM219.74,59.42c.86,0,1.69-.58,1.69-1.84s-.82-1.83-1.67-1.83-1.65.59-1.65,1.83.77,1.84,1.62,1.84Z"/>
        <path class="cls-2" d="M225.17,55.12h.84l1.13,4.14,1.22-4.14h.84l1.2,4.15,1.12-4.15h.81l-1.54,4.93h-.85l-1.19-3.92-1.19,3.92h-.85l-1.55-4.93Z"/>
        <path class="cls-2" d="M235.27,60.14c-1.4,0-2.44-.99-2.44-2.56s1-2.54,2.44-2.54,2.37,1.01,2.37,2.36c0,.18,0,.32-.03.5h-3.94c.06,1,.77,1.55,1.6,1.55.74,0,1.21-.38,1.39-.91h.88c-.25.9-1.04,1.6-2.27,1.6ZM233.68,57.23h3.11c0-.96-.71-1.49-1.56-1.49-.8,0-1.47.53-1.56,1.49Z"/>
        <path class="cls-2" d="M240.85,60.14c-1.4,0-2.44-.99-2.44-2.56s1-2.54,2.44-2.54,2.37,1.01,2.37,2.36c0,.18,0,.32-.03.5h-3.94c.06,1,.77,1.55,1.6,1.55.74,0,1.21-.38,1.39-.91h.88c-.25.9-1.04,1.6-2.27,1.6ZM239.26,57.23h3.11c0-.96-.71-1.49-1.56-1.49-.8,0-1.47.53-1.56,1.49Z"/>
        <path class="cls-2" d="M244.29,53.39h.82v3.92l1.9-2.19h1.14l-2.32,2.46,2.33,2.48h-1.12l-1.94-2.18v2.18h-.82v-6.66Z"/>
        <path class="cls-2" d="M250.68,60.14c-1.15,0-1.96-.63-2.02-1.53h.85c.04.48.47.84,1.16.84.65,0,1.01-.32,1.01-.73,0-1.1-2.92-.46-2.92-2.29,0-.76.71-1.38,1.81-1.38s1.81.58,1.86,1.55h-.82c-.04-.5-.41-.86-1.07-.86-.6,0-.96.29-.96.68,0,1.17,2.86.53,2.9,2.29,0,.81-.71,1.42-1.8,1.42Z"/>
        <path class="cls-2" d="M253.22,55.82l.53-2.04h.91l-.86,2.04h-.58Z"/>
        <path class="cls-2" d="M258.18,55.8h-.64v-.68h.64v-1.24h.82v1.24h1.29v.68h-1.29v2.91c0,.49.18.66.68.66h.6v.69h-.74c-.87,0-1.37-.36-1.37-1.35v-2.91Z"/>
        <path class="cls-2" d="M261.14,53.76c0-.32.24-.56.56-.56.3,0,.54.24.54.56s-.24.56-.54.56c-.31,0-.56-.24-.56-.56ZM261.28,55.12h.82v4.93h-.82v-4.93Z"/>
        <path class="cls-2" d="M270.61,57.26c0-1.01-.54-1.52-1.35-1.52s-1.4.53-1.4,1.59v2.72h-.81v-2.79c0-1.01-.54-1.52-1.35-1.52s-1.4.53-1.4,1.59v2.72h-.82v-4.93h.82v.71c.32-.52.91-.8,1.56-.8.81,0,1.49.36,1.81,1.1.29-.71.99-1.1,1.75-1.1,1.13,0,2,.7,2,2.12v2.91h-.81v-2.79Z"/>
        <path class="cls-2" d="M274.89,60.14c-1.4,0-2.44-.99-2.44-2.56s1-2.54,2.44-2.54,2.37,1.01,2.37,2.36c0,.18,0,.32-.03.5h-3.94c.06,1,.77,1.55,1.6,1.55.74,0,1.21-.38,1.39-.91h.88c-.25.9-1.04,1.6-2.27,1.6ZM273.3,57.23h3.11c0-.96-.71-1.49-1.56-1.49-.8,0-1.47.53-1.56,1.49Z"/>
      </g>
      <g>
        <path class="cls-2" d="M311.17,57.26c0-1.01-.55-1.52-1.38-1.52s-1.41.52-1.41,1.58v2.73h-.82v-4.93h.82v.7c.32-.51.92-.79,1.58-.79,1.14,0,2.02.7,2.02,2.12v2.91h-.81v-2.79Z"/>
        <path class="cls-2" d="M315.45,60.14c-1.4,0-2.44-.99-2.44-2.56s1-2.54,2.44-2.54,2.37,1.01,2.37,2.36c0,.18,0,.32-.03.5h-3.94c.06,1,.77,1.55,1.6,1.55.74,0,1.21-.38,1.39-.91h.88c-.25.9-1.04,1.6-2.27,1.6ZM313.86,57.23h3.12c0-.96-.71-1.49-1.56-1.49-.8,0-1.47.53-1.56,1.49Z"/>
        <path class="cls-2" d="M320.3,58.22l-1.12,1.84h-.86l1.59-2.45-1.59-2.49h.93l1.17,1.83,1.12-1.83h.86l-1.58,2.44,1.59,2.49h-.93l-1.17-1.84Z"/>
        <path class="cls-2" d="M323.39,55.8h-.64v-.68h.64v-1.24h.82v1.24h1.29v.68h-1.29v2.91c0,.49.18.66.68.66h.6v.69h-.74c-.87,0-1.37-.36-1.37-1.35v-2.91Z"/>
        <path class="cls-2" d="M328.3,55.12h.84l1.13,4.14,1.22-4.14h.84l1.2,4.15,1.12-4.15h.81l-1.54,4.93h-.85l-1.19-3.92-1.19,3.92h-.85l-1.55-4.93Z"/>
        <path class="cls-2" d="M338.4,60.14c-1.4,0-2.44-.99-2.44-2.56s1-2.54,2.44-2.54,2.37,1.01,2.37,2.36c0,.18,0,.32-.03.5h-3.94c.06,1,.77,1.55,1.6,1.55.74,0,1.21-.38,1.39-.91h.88c-.25.9-1.04,1.6-2.27,1.6ZM336.81,57.23h3.12c0-.96-.71-1.49-1.56-1.49-.8,0-1.47.53-1.56,1.49Z"/>
        <path class="cls-2" d="M343.98,60.14c-1.4,0-2.44-.99-2.44-2.56s1-2.54,2.44-2.54,2.37,1.01,2.37,2.36c0,.18,0,.32-.03.5h-3.94c.06,1,.77,1.55,1.6,1.55.74,0,1.21-.38,1.39-.91h.88c-.25.9-1.04,1.6-2.27,1.6ZM342.39,57.23h3.11c0-.96-.71-1.49-1.56-1.49-.8,0-1.47.53-1.56,1.49Z"/>
        <path class="cls-2" d="M347.43,53.39h.82v3.92l1.9-2.19h1.14l-2.32,2.46,2.33,2.48h-1.12l-1.94-2.18v2.18h-.82v-6.66Z"/>
      </g>
      <rect class="cls-1" x="368.04" y="0" width="169.89" height="71.35" rx="3.6" ry="3.6"/>
    </g>
    <g>
      <path class="cls-2" d="M373.19,9.38h4.25v.67h-1.71v5.61h-.82v-5.61h-1.72v-.67Z"/>
      <path class="cls-2" d="M378.45,8.99h.82v2.44c.32-.52.94-.8,1.63-.8,1.1,0,1.97.7,1.97,2.12v2.91h-.81v-2.79c0-1.01-.55-1.52-1.38-1.52s-1.41.52-1.41,1.58v2.73h-.82v-6.66Z"/>
      <path class="cls-2" d="M386.34,15.74c-1.4,0-2.44-.99-2.44-2.56s1-2.54,2.44-2.54,2.37,1.01,2.37,2.36c0,.18,0,.32-.03.5h-3.94c.06,1,.77,1.55,1.6,1.55.74,0,1.21-.38,1.39-.91h.88c-.25.9-1.04,1.6-2.27,1.6ZM384.75,12.83h3.12c0-.96-.71-1.49-1.56-1.49-.8,0-1.47.53-1.56,1.49Z"/>
      <path class="cls-2" d="M394.86,10.64c1.33,0,2.34.99,2.34,2.53s-1.02,2.57-2.34,2.57c-.9,0-1.54-.45-1.85-.99v.91h-.82v-6.66h.82v2.65c.32-.55.97-1,1.85-1ZM394.68,11.35c-.89,0-1.67.68-1.67,1.83s.78,1.84,1.67,1.84,1.67-.68,1.67-1.84-.77-1.82-1.67-1.82Z"/>
      <path class="cls-2" d="M400.31,10.64c.92,0,1.55.47,1.84.98v-.9h.83v4.93h-.83v-.92c-.3.53-.94,1-1.85,1-1.31,0-2.33-1.04-2.33-2.57s1.02-2.53,2.34-2.53ZM400.47,11.35c-.9,0-1.67.66-1.67,1.82s.77,1.84,1.67,1.84,1.67-.67,1.67-1.84-.77-1.83-1.67-1.83Z"/>
      <path class="cls-2" d="M406.11,15.74c-1.15,0-1.96-.63-2.02-1.53h.85c.04.48.47.84,1.16.84.65,0,1.01-.32,1.01-.73,0-1.1-2.92-.46-2.92-2.29,0-.76.71-1.38,1.81-1.38s1.81.58,1.86,1.55h-.82c-.04-.5-.41-.86-1.07-.86-.6,0-.96.29-.96.68,0,1.17,2.86.53,2.9,2.29,0,.81-.71,1.42-1.8,1.42Z"/>
      <path class="cls-2" d="M411.19,15.74c-1.4,0-2.44-.99-2.44-2.56s1-2.54,2.44-2.54,2.37,1.01,2.37,2.36c0,.18,0,.32-.03.5h-3.94c.06,1,.77,1.55,1.6,1.55.74,0,1.21-.38,1.39-.91h.88c-.25.9-1.04,1.6-2.27,1.6ZM409.6,12.83h3.12c0-.96-.71-1.49-1.56-1.49-.8,0-1.47.53-1.56,1.49Z"/>
      <path class="cls-2" d="M417.19,11.4h-.64v-.68h.64v-.35c0-1.1.54-1.59,1.8-1.59v.68c-.74,0-.98.27-.98.91v.35h1.04v.68h-1.04v4.26h-.82v-4.26Z"/>
      <path class="cls-2" d="M422.15,15.74c-1.4,0-2.46-.99-2.46-2.56s1.1-2.54,2.49-2.54,2.49.98,2.49,2.54-1.12,2.56-2.53,2.56ZM422.15,15.01c.86,0,1.69-.58,1.69-1.84s-.82-1.83-1.67-1.83-1.65.59-1.65,1.83.77,1.84,1.62,1.84Z"/>
      <path class="cls-2" d="M426.58,15.65h-.82v-4.93h.82v.8c.28-.55.81-.89,1.59-.89v.85h-.22c-.78,0-1.38.35-1.38,1.49v2.68Z"/>
      <path class="cls-2" d="M436.24,12.86c0-1.01-.54-1.52-1.35-1.52s-1.4.53-1.4,1.59v2.72h-.81v-2.79c0-1.01-.54-1.52-1.35-1.52s-1.4.53-1.4,1.59v2.72h-.82v-4.93h.82v.71c.32-.52.91-.8,1.56-.8.81,0,1.49.36,1.81,1.1.29-.71.99-1.1,1.75-1.1,1.12,0,2,.7,2,2.12v2.91h-.81v-2.79Z"/>
      <path class="cls-2" d="M442.94,15.74c-1.4,0-2.46-.99-2.46-2.56s1.1-2.54,2.49-2.54,2.49.98,2.49,2.54-1.12,2.56-2.53,2.56ZM442.94,15.01c.86,0,1.69-.58,1.69-1.84s-.82-1.83-1.67-1.83-1.65.59-1.65,1.83.77,1.84,1.62,1.84Z"/>
      <path class="cls-2" d="M446.7,11.4h-.64v-.68h.64v-.35c0-1.1.54-1.59,1.8-1.59v.68c-.74,0-.98.27-.98.91v.35h1.04v.68h-1.04v4.26h-.82v-4.26Z"/>
      <path class="cls-2" d="M452.09,11.4h-.64v-.68h.64v-1.24h.82v1.24h1.29v.68h-1.29v2.91c0,.49.18.66.68.66h.6v.69h-.74c-.87,0-1.37-.36-1.37-1.35v-2.91Z"/>
      <path class="cls-2" d="M455.19,8.99h.82v2.44c.32-.52.94-.8,1.63-.8,1.1,0,1.97.7,1.97,2.12v2.91h-.81v-2.79c0-1.01-.55-1.52-1.38-1.52s-1.41.52-1.41,1.58v2.73h-.82v-6.66Z"/>
      <path class="cls-2" d="M463.08,15.74c-1.4,0-2.44-.99-2.44-2.56s1-2.54,2.44-2.54,2.37,1.01,2.37,2.36c0,.18,0,.32-.03.5h-3.94c.06,1,.77,1.55,1.6,1.55.74,0,1.21-.38,1.39-.91h.88c-.25.9-1.04,1.6-2.27,1.6ZM461.49,12.83h3.12c0-.96-.71-1.49-1.56-1.49-.8,0-1.47.53-1.56,1.49Z"/>
      <path class="cls-2" d="M469.23,10.72l1.54,4.18,1.53-4.18h.87l-1.94,4.93h-.96l-1.94-4.93h.88Z"/>
      <path class="cls-2" d="M476.12,15.74c-1.4,0-2.44-.99-2.44-2.56s1-2.54,2.44-2.54,2.37,1.01,2.37,2.36c0,.18,0,.32-.03.5h-3.94c.06,1,.77,1.55,1.6,1.55.74,0,1.21-.38,1.39-.91h.88c-.25.9-1.04,1.6-2.27,1.6ZM474.52,12.83h3.12c0-.96-.71-1.49-1.56-1.49-.8,0-1.47.53-1.56,1.49Z"/>
      <path class="cls-2" d="M480.38,15.65h-.82v-4.93h.82v.8c.28-.55.81-.89,1.59-.89v.85h-.22c-.78,0-1.38.35-1.38,1.49v2.68Z"/>
      <path class="cls-2" d="M485.58,10.64c1.33,0,2.34.99,2.34,2.53s-1.02,2.57-2.34,2.57c-.9,0-1.54-.45-1.85-.99v.91h-.82v-6.66h.82v2.65c.32-.55.97-1,1.85-1ZM485.41,11.35c-.89,0-1.67.68-1.67,1.83s.78,1.84,1.67,1.84,1.67-.68,1.67-1.84-.76-1.82-1.67-1.82Z"/>
      <path class="cls-2" d="M493.5,10.64c1.22,0,2.03.63,2.28,1.67h-.88c-.17-.59-.67-.97-1.39-.97-.9,0-1.57.64-1.57,1.85s.67,1.86,1.57,1.86c.73,0,1.21-.35,1.39-.97h.88c-.25.98-1.05,1.67-2.28,1.67-1.41,0-2.4-.99-2.4-2.56s1-2.54,2.4-2.54Z"/>
      <path class="cls-2" d="M499.02,15.74c-1.4,0-2.46-.99-2.46-2.56s1.1-2.54,2.49-2.54,2.49.98,2.49,2.54-1.13,2.56-2.53,2.56ZM499.02,15.01c.86,0,1.69-.58,1.69-1.84s-.82-1.83-1.67-1.83-1.65.59-1.65,1.83.77,1.84,1.62,1.84Z"/>
      <path class="cls-2" d="M509.75,12.86c0-1.01-.54-1.52-1.35-1.52s-1.4.53-1.4,1.59v2.72h-.81v-2.79c0-1.01-.54-1.52-1.35-1.52s-1.4.53-1.4,1.59v2.72h-.82v-4.93h.82v.71c.32-.52.91-.8,1.56-.8.81,0,1.49.36,1.81,1.1.29-.71.99-1.1,1.75-1.1,1.13,0,2,.7,2,2.12v2.91h-.81v-2.79Z"/>
      <path class="cls-2" d="M514.03,15.74c-1.4,0-2.44-.99-2.44-2.56s1-2.54,2.44-2.54,2.37,1.01,2.37,2.36c0,.18,0,.32-.03.5h-3.94c.06,1,.77,1.55,1.6,1.55.74,0,1.21-.38,1.39-.91h.88c-.25.9-1.04,1.6-2.27,1.6ZM512.44,12.83h3.11c0-.96-.71-1.49-1.56-1.49-.8,0-1.47.53-1.56,1.49Z"/>
      <path class="cls-2" d="M519.23,15.74c-1.15,0-1.96-.63-2.02-1.53h.85c.04.48.47.84,1.16.84.65,0,1.01-.32,1.01-.73,0-1.1-2.92-.46-2.92-2.29,0-.76.71-1.38,1.81-1.38s1.81.58,1.86,1.55h-.82c-.04-.5-.41-.86-1.07-.86-.6,0-.96.29-.96.68,0,1.17,2.86.53,2.9,2.29,0,.81-.71,1.42-1.8,1.42Z"/>
    </g>
    <g>
      <path class="cls-2" d="M375.61,21.44c.92,0,1.55.47,1.84.98v-.9h.83v4.93h-.83v-.92c-.3.53-.94,1-1.85,1-1.31,0-2.33-1.04-2.33-2.57s1.02-2.53,2.34-2.53ZM375.78,22.15c-.9,0-1.67.66-1.67,1.82s.77,1.84,1.67,1.84,1.67-.67,1.67-1.84-.77-1.83-1.67-1.83Z"/>
      <path class="cls-2" d="M379.82,22.2h-.64v-.68h.64v-.35c0-1.1.54-1.59,1.8-1.59v.68c-.74,0-.98.27-.98.91v.35h1.04v.68h-1.04v4.26h-.82v-4.26Z"/>
      <path class="cls-2" d="M382.8,22.2h-.64v-.68h.64v-1.24h.82v1.24h1.29v.68h-1.29v2.91c0,.49.18.66.68.66h.6v.69h-.74c-.87,0-1.37-.36-1.37-1.35v-2.91Z"/>
      <path class="cls-2" d="M388.03,26.54c-1.4,0-2.44-.99-2.44-2.56s1-2.54,2.44-2.54,2.37,1.01,2.37,2.36c0,.18,0,.32-.03.5h-3.94c.06,1,.77,1.55,1.6,1.55.74,0,1.21-.38,1.39-.91h.88c-.25.9-1.04,1.6-2.27,1.6ZM386.44,23.63h3.11c0-.96-.71-1.49-1.56-1.49-.8,0-1.47.53-1.56,1.49Z"/>
      <path class="cls-2" d="M392.3,26.45h-.82v-4.93h.82v.8c.28-.55.81-.89,1.59-.89v.85h-.22c-.78,0-1.38.35-1.38,1.5v2.68Z"/>
      <path class="cls-2" d="M396.65,21.52h.84l1.13,4.14,1.22-4.14h.84l1.2,4.15,1.12-4.15h.81l-1.54,4.93h-.85l-1.19-3.92-1.19,3.92h-.85l-1.55-4.93Z"/>
      <path class="cls-2" d="M404.48,20.16c0-.32.24-.56.56-.56.3,0,.54.24.54.56s-.24.56-.54.56c-.32,0-.56-.24-.56-.56ZM404.62,21.52h.82v4.93h-.82v-4.93Z"/>
      <path class="cls-2" d="M406.83,19.79h.82v6.66h-.82v-6.66Z"/>
      <path class="cls-2" d="M409.05,19.79h.82v6.66h-.82v-6.66Z"/>
      <path class="cls-2" d="M413.5,17.97h.82l-2.47,10.01h-.81l2.46-10.01Z"/>
      <path class="cls-2" d="M414.96,21.52h.84l1.13,4.14,1.22-4.14h.84l1.2,4.15,1.12-4.15h.81l-1.54,4.93h-.85l-1.19-3.92-1.19,3.92h-.85l-1.55-4.93Z"/>
      <path class="cls-2" d="M425.08,26.54c-1.4,0-2.46-.99-2.46-2.56s1.1-2.54,2.49-2.54,2.49.98,2.49,2.54-1.12,2.56-2.53,2.56ZM425.08,25.81c.86,0,1.69-.58,1.69-1.84s-.82-1.83-1.67-1.83-1.65.59-1.65,1.83.77,1.84,1.62,1.84Z"/>
      <path class="cls-2" d="M432.29,23.66c0-1.01-.55-1.52-1.38-1.52s-1.41.52-1.41,1.58v2.73h-.82v-4.93h.82v.7c.32-.51.92-.79,1.58-.79,1.14,0,2.02.7,2.02,2.12v2.91h-.81v-2.79Z"/>
      <path class="cls-2" d="M434.04,22.22l.53-2.04h.91l-.86,2.04h-.58Z"/>
      <path class="cls-2" d="M436.6,22.2h-.64v-.68h.64v-1.24h.82v1.24h1.29v.68h-1.29v2.91c0,.49.18.66.68.66h.6v.69h-.74c-.87,0-1.37-.36-1.37-1.35v-2.91Z"/>
      <path class="cls-2" d="M439.95,26.51c-.31,0-.56-.24-.56-.56s.24-.56.56-.56c.3,0,.54.24.54.56s-.24.56-.54.56Z"/>
    </g>
    <g class="cls-5">
      <g>
        <path class="cls-2" d="M419.75,59.63h.84l1.13,4.14,1.22-4.14h.84l1.2,4.15,1.12-4.15h.81l-1.54,4.93h-.85l-1.19-3.92-1.19,3.92h-.85l-1.55-4.93Z"/>
        <path class="cls-2" d="M429.87,64.64c-1.4,0-2.46-.99-2.46-2.56s1.1-2.54,2.49-2.54,2.49.98,2.49,2.54-1.13,2.56-2.53,2.56ZM429.87,63.92c.86,0,1.69-.58,1.69-1.84s-.82-1.83-1.67-1.83-1.65.59-1.65,1.83.77,1.84,1.62,1.84Z"/>
        <path class="cls-2" d="M437.09,61.77c0-1.01-.55-1.52-1.38-1.52s-1.41.52-1.41,1.58v2.73h-.82v-4.93h.82v.7c.32-.51.92-.79,1.58-.79,1.14,0,2.02.7,2.02,2.12v2.91h-.81v-2.79Z"/>
        <path class="cls-2" d="M438.83,60.33l.53-2.04h.91l-.86,2.04h-.58Z"/>
        <path class="cls-2" d="M441.39,60.3h-.64v-.68h.64v-1.24h.82v1.24h1.29v.68h-1.29v2.91c0,.49.18.66.68.66h.6v.69h-.74c-.87,0-1.37-.36-1.37-1.35v-2.91Z"/>
        <path class="cls-2" d="M447.1,59.95h4.68v.69h-4.68v-.69ZM447.1,61.89h4.68v.69h-4.68v-.69Z"/>
        <path class="cls-2" d="M455.21,59.63h.84l1.13,4.14,1.22-4.14h.84l1.2,4.15,1.12-4.15h.81l-1.54,4.93h-.85l-1.19-3.92-1.19,3.92h-.85l-1.55-4.93Z"/>
        <path class="cls-2" d="M463.04,58.27c0-.32.24-.56.56-.56.3,0,.54.24.54.56s-.24.56-.54.56c-.31,0-.56-.24-.56-.56ZM463.18,59.63h.82v4.93h-.82v-4.93Z"/>
        <path class="cls-2" d="M465.39,57.9h.82v6.66h-.82v-6.66Z"/>
        <path class="cls-2" d="M467.6,57.9h.82v6.66h-.82v-6.66Z"/>
        <path class="cls-2" d="M475.83,61.77c0-1.01-.55-1.52-1.38-1.52s-1.41.52-1.41,1.58v2.73h-.82v-4.93h.82v.7c.32-.51.92-.79,1.58-.79,1.14,0,2.02.7,2.02,2.12v2.91h-.81v-2.79Z"/>
        <path class="cls-2" d="M480.13,64.64c-1.4,0-2.46-.99-2.46-2.56s1.1-2.54,2.49-2.54,2.49.98,2.49,2.54-1.13,2.56-2.53,2.56ZM480.13,63.92c.86,0,1.69-.58,1.69-1.84s-.82-1.83-1.67-1.83-1.65.59-1.65,1.83.77,1.84,1.62,1.84Z"/>
        <path class="cls-2" d="M483.92,60.3h-.64v-.68h.64v-1.24h.82v1.24h1.29v.68h-1.29v2.91c0,.49.18.66.68.66h.6v.69h-.74c-.87,0-1.37-.36-1.37-1.35v-2.91Z"/>
      </g>
    </g>
  </g>
</svg>