<?xml version="1.0" encoding="UTF-8"?>
<svg id="Layer_2" data-name="Layer 2" xmlns="http://www.w3.org/2000/svg" viewBox="0 0 24.8 24.8">
  <defs>
    <style>
      .cls-1 {
        fill: #fff45f;
      }

      .cls-2 {
        fill: #231f20;
      }

      .cls-3 {
        fill: none;
        stroke: #d2232a;
      }
    </style>
  </defs>
  <g id="Layer_1-2" data-name="Layer 1">
    <g>
      <path class="cls-1" d="M12.4,24.3c6.57,0,11.9-5.33,11.9-11.9S18.97.5,12.4.5.5,5.83.5,12.4s5.33,11.9,11.9,11.9"/>
      <circle class="cls-3" cx="12.4" cy="12.4" r="11.9"/>
    </g>
    <g>
      <path class="cls-2" d="M7.35,15.47v-.38c1.19-.08,1.27-.22,1.27-1.17v-4.98c0-.69-.05-.75-.61-.79l-.7-.03v-.32c.88-.14,1.71-.4,2.52-.69v6.79c0,.96.09,1.09,1.29,1.17v.38h-3.77Z"/>
      <path class="cls-2" d="M15.67,7.12c2.03,0,2.76,2.22,2.76,4.25,0,1.91-.73,4.25-2.78,4.25s-2.79-2.16-2.79-4.24c0-1.92.74-4.26,2.79-4.26h.02ZM15.65,7.58c-1.17,0-1.47,1.95-1.47,3.77s.35,3.81,1.5,3.81,1.45-1.97,1.45-3.81-.32-3.77-1.47-3.77h0Z"/>
    </g>
  </g>
</svg>