<?xml version="1.0" encoding="UTF-8"?>
<svg id="Layer_2" data-name="Layer 2" xmlns="http://www.w3.org/2000/svg" viewBox="0 0 24.8 24.8">
  <defs>
    <style>
      .cls-1 {
        fill: #fff45f;
      }

      .cls-2 {
        fill: #231f20;
      }

      .cls-3 {
        fill: none;
        stroke: #d2232a;
      }
    </style>
  </defs>
  <g id="Layer_1-2" data-name="Layer 1">
    <g>
      <path class="cls-1" d="M12.4,24.3c6.57,0,11.9-5.33,11.9-11.9S18.97.5,12.4.5.5,5.83.5,12.4s5.33,11.9,11.9,11.9"/>
      <circle class="cls-3" cx="12.4" cy="12.4" r="11.9"/>
    </g>
    <g>
      <path class="cls-2" d="M6.75,15.61v-.38c1.19-.08,1.27-.22,1.27-1.17v-4.98c0-.69-.05-.75-.61-.78l-.7-.03v-.32c.88-.14,1.71-.4,2.52-.69v6.79c0,.96.09,1.09,1.29,1.17v.38h-3.77Z"/>
      <path class="cls-2" d="M17.81,13.79c-.19.6-.33,1.23-.49,1.82h-5.09v-.32c.74-.72,1.52-1.46,2.16-2.22.83-.96,1.66-2.02,1.66-3.14s-.58-1.72-1.55-1.72c-.92,0-1.49.71-1.85,1.24l-.32-.29.8-1.12c.43-.44,1.06-.78,1.83-.78,1.23,0,2.3.86,2.3,2.25,0,1.13-.5,1.88-1.79,3.18l-1.85,1.86h2.44c.75,0,.9-.04,1.33-.89l.4.13Z"/>
    </g>
  </g>
</svg>