<?xml version="1.0" encoding="UTF-8"?>
<svg id="Layer_2" data-name="Layer 2" xmlns="http://www.w3.org/2000/svg" viewBox="0 0 24.8 24.8">
  <defs>
    <style>
      .cls-1 {
        fill: #fff45f;
      }

      .cls-2 {
        fill: #231f20;
      }

      .cls-3 {
        fill: none;
        stroke: #d2232a;
      }
    </style>
  </defs>
  <g id="Layer_1-2" data-name="Layer 1">
    <g>
      <path class="cls-1" d="M12.4,24.3c6.57,0,11.9-5.33,11.9-11.9S18.97.5,12.4.5.5,5.83.5,12.4s5.33,11.9,11.9,11.9"/>
      <circle class="cls-3" cx="12.4" cy="12.4" r="11.9"/>
    </g>
    <g>
      <path class="cls-2" d="M7.35,15.24v-.38c1.19-.08,1.27-.22,1.27-1.17v-4.98c0-.69-.05-.75-.61-.78l-.7-.03v-.32c.88-.14,1.71-.4,2.52-.69v6.79c0,.96.09,1.09,1.29,1.17v.38h-3.77Z"/>
      <path class="cls-2" d="M14.1,10.47c.55-.21,1.21-.42,1.56-.42,1.71,0,2.61,1.13,2.61,2.22,0,.8-.39,1.53-1.23,2.21-.73.56-1.64.91-2.36.91-.6,0-1.17-.26-1.39-.46-.2-.19-.27-.3-.24-.47,0-.14.14-.35.31-.49.13-.09.23-.09.37.02.3.26.87.72,1.7.72,1.09,0,1.61-.94,1.61-1.89,0-1.17-.73-1.98-2.16-1.98-.58,0-1.09.16-1.41.26l.54-4.04h3.92l.08.1-.37.95h-3.19l-.35,2.36Z"/>
    </g>
  </g>
</svg>