<?xml version="1.0" encoding="UTF-8"?>
<svg id="Layer_2" data-name="Layer 2" xmlns="http://www.w3.org/2000/svg" viewBox="0 0 24.8 24.8">
  <defs>
    <style>
      .cls-1 {
        fill: #fff45f;
      }

      .cls-2 {
        fill: #231f20;
      }

      .cls-3 {
        fill: none;
        stroke: #d2232a;
      }
    </style>
  </defs>
  <g id="Layer_1-2" data-name="Layer 1">
    <g>
      <g>
        <path class="cls-1" d="M12.4,24.3c6.57,0,11.9-5.33,11.9-11.9S18.97.5,12.4.5.5,5.83.5,12.4s5.33,11.9,11.9,11.9"/>
        <circle class="cls-3" cx="12.4" cy="12.4" r="11.9"/>
      </g>
      <path class="cls-2" d="M13.06,10.85c1.2.21,1.88,1.04,1.87,2.01,0,2.18-2.67,3.09-3.54,3.09-.63,0-1.2-.27-1.4-.46-.2-.16-.24-.32-.23-.5.02-.17.2-.37.33-.46.11-.09.23-.09.34,0,.32.29.92.72,1.7.72.9,0,1.55-.68,1.55-1.97,0-1.21-.94-1.69-1.69-1.69-.3,0-.63.07-.84.14l-.08-.4c1.2-.38,2.09-.87,2.09-1.82,0-.82-.57-1.23-1.26-1.23-.74,0-1.27.54-1.61,1.06l-.29-.28.6-.85c.38-.42.99-.77,1.73-.77h0c1.24,0,2.03.75,2.03,1.75,0,.37-.13.66-.4.92-.23.2-.54.44-.92.69v.03Z"/>
    </g>
  </g>
</svg>