<?xml version="1.0" encoding="UTF-8"?>
<svg id="Layer_2" data-name="Layer 2" xmlns="http://www.w3.org/2000/svg" viewBox="0 0 24.8 24.8">
  <defs>
    <style>
      .cls-1 {
        fill: #fff45f;
      }

      .cls-2 {
        fill: #231f20;
      }

      .cls-3 {
        fill: none;
        stroke: #d2232a;
      }
    </style>
  </defs>
  <g id="Layer_1-2" data-name="Layer 1">
    <g>
      <g>
        <path class="cls-1" d="M12.4,24.3c6.57,0,11.9-5.33,11.9-11.9S18.97.5,12.4.5.5,5.83.5,12.4s5.33,11.9,11.9,11.9"/>
        <circle class="cls-3" cx="12.4" cy="12.4" r="11.9"/>
      </g>
      <path class="cls-2" d="M14.43,13.27v.89c0,.88.07.97,1.15,1.06v.37h-3.56v-.37c1.2-.1,1.25-.21,1.25-1.07v-.88h-3.5v-.41c1.34-1.92,2.7-3.8,4.06-5.56h.6v5.32h1.29v.66h-1.29ZM13.27,8.81h-.03c-.83,1.09-1.7,2.34-2.61,3.8h2.63v-3.8Z"/>
    </g>
  </g>
</svg>