<?xml version="1.0" encoding="UTF-8"?>
<svg id="Layer_2" data-name="Layer 2" xmlns="http://www.w3.org/2000/svg" viewBox="0 0 24.8 24.8">
  <defs>
    <style>
      .cls-1 {
        fill: #fff45f;
      }

      .cls-2 {
        fill: #231f20;
      }

      .cls-3 {
        fill: none;
        stroke: #d2232a;
      }
    </style>
  </defs>
  <g id="Layer_1-2" data-name="Layer 1">
    <g>
      <g>
        <path class="cls-1" d="M12.4,24.3c6.57,0,11.9-5.33,11.9-11.9S18.97.5,12.4.5.5,5.83.5,12.4s5.33,11.9,11.9,11.9"/>
        <circle class="cls-3" cx="12.4" cy="12.4" r="11.9"/>
      </g>
      <path class="cls-2" d="M11.97,10.86c.31-.14.57-.23.83-.23,1.47,0,2.45,1.06,2.45,2.44,0,1.57-1.18,2.89-2.8,2.89s-2.83-1.27-2.83-3.29c0-2.88,2.07-4.36,3.51-4.86.54-.18,1.25-.34,1.78-.42l.09.43c-.43.08-.97.24-1.45.46-.8.37-2.06,1.2-2.46,3.01l.89-.43ZM12.23,11.41c-.49,0-.9.17-1.22.32-.06.24-.08.6-.08.91,0,1.59.68,2.85,1.73,2.85s1.34-1.09,1.34-1.95c0-1.1-.6-2.14-1.76-2.14h-.02Z"/>
    </g>
  </g>
</svg>