<?xml version="1.0" encoding="UTF-8"?>
<svg id="Layer_2" data-name="Layer 2" xmlns="http://www.w3.org/2000/svg" viewBox="0 0 24.8 24.8">
  <defs>
    <style>
      .cls-1 {
        fill: #fff45f;
      }

      .cls-2 {
        fill: #231f20;
      }

      .cls-3 {
        fill: none;
        stroke: #d2232a;
      }
    </style>
  </defs>
  <g id="Layer_1-2" data-name="Layer 1">
    <g>
      <g>
        <path class="cls-1" d="M12.4,24.3c6.57,0,11.9-5.33,11.9-11.9S18.97.5,12.4.5.5,5.83.5,12.4s5.33,11.9,11.9,11.9"/>
        <circle class="cls-3" cx="12.4" cy="12.4" r="11.9"/>
      </g>
      <path class="cls-2" d="M12.53,7.55c1.29,0,2.22.88,2.22,1.96,0,.38-.14.77-.4,1.06-.12.13-.46.42-1.04.79.95.53,1.78,1.15,1.78,2.3,0,1.55-1.55,2.39-2.73,2.39-1.5,0-2.62-.82-2.62-2.22,0-.6.32-.97.6-1.24.22-.21.73-.55,1.18-.81-.86-.47-1.46-1.12-1.46-2.05,0-1.13.98-2.18,2.45-2.18h.02ZM12.52,15.6c.78,0,1.41-.6,1.41-1.58s-.9-1.5-1.99-2.04c-.6.39-1.04,1.03-1.04,1.75,0,1.23.8,1.87,1.61,1.87h0ZM12.36,8c-.75,0-1.2.65-1.2,1.31,0,.96.78,1.38,1.75,1.86.42-.33.78-.8.78-1.58,0-1.13-.71-1.59-1.32-1.59h0Z"/>
    </g>
  </g>
</svg>