<?xml version="1.0" encoding="UTF-8"?>
<svg id="Layer_2" data-name="Layer 2" xmlns="http://www.w3.org/2000/svg" viewBox="0 0 24.8 24.8">
  <defs>
    <style>
      .cls-1 {
        fill: #fff45f;
      }

      .cls-2 {
        fill: #231f20;
      }

      .cls-3 {
        fill: none;
        stroke: #d2232a;
      }
    </style>
  </defs>
  <g id="Layer_1-2" data-name="Layer 1">
    <g>
      <path class="cls-1" d="M12.4,24.3c6.57,0,11.9-5.33,11.9-11.9S18.97.5,12.4.5.5,5.83.5,12.4s5.33,11.9,11.9,11.9"/>
      <circle class="cls-3" cx="12.4" cy="12.4" r="11.9"/>
    </g>
    <path class="cls-2" d="M12.44,7.42c1.71,0,2.71,1.52,2.71,3.3,0,2.43-1.4,4.11-3.21,4.83-.69.26-1.58.41-1.96.42l-.08-.41c1.95-.32,3.41-1.67,3.84-3.59l-.87.46c-.31.16-.56.22-.8.22-1.46,0-2.44-1.04-2.44-2.42,0-1.26,1.03-2.81,2.8-2.81h.02ZM12.23,7.88c-.96,0-1.35,1.09-1.35,1.88,0,1.14.68,2.12,1.79,2.12.45,0,.87-.16,1.14-.34.04-.31.04-.61.04-.88,0-1.19-.33-2.77-1.6-2.77h-.02Z"/>
  </g>
</svg>