<?xml version="1.0" encoding="UTF-8"?>
<svg id="Layer_2" data-name="Layer 2" xmlns="http://www.w3.org/2000/svg" xmlns:xlink="http://www.w3.org/1999/xlink" viewBox="0 0 117.84 237.05">
  <defs>
    <style>
      .cls-1 {
        fill: #f89631;
      }

      .cls-2 {
        fill: #fff;
      }

      .cls-3, .cls-4 {
        fill: none;
      }

      .cls-4 {
        stroke: #f89631;
        stroke-width: 1.62px;
      }

      .cls-5 {
        fill: #fffac2;
      }

      .cls-6 {
        clip-path: url(#clippath);
      }
    </style>
    <clipPath id="clippath">
      <path class="cls-3" d="M6.64.81S.81.81.81,6.64v223.77s0,5.83,5.83,5.83h104.56s5.83,0,5.83-5.83V6.64s0-5.83-5.83-5.83H6.64Z"/>
    </clipPath>
  </defs>
  <g id="Layer_1-2" data-name="Layer 1">
    <g>
      <g>
        <path class="cls-5" d="M6.64.81S.81.81.81,6.64v223.77s0,5.83,5.83,5.83h104.56s5.83,0,5.83-5.83V6.64s0-5.83-5.83-5.83H6.64Z"/>
        <g class="cls-6">
          <path class="cls-1" d="M128.84,22.14V-.46s0-.95-6.03-.95H5.03S-1-1.41-1-.46v22.6h129.84Z"/>
        </g>
        <path class="cls-4" d="M6.64.81S.81.81.81,6.64v223.77s0,5.83,5.83,5.83h104.56s5.83,0,5.83-5.83V6.64s0-5.83-5.83-5.83H6.64Z"/>
      </g>
      <g>
        <path class="cls-2" d="M25.83,7.23c-.84.1-1.02.23-1.51,1.4-.34.83-1.63,3.99-2.59,6.63h-.42c-.84-2.33-1.89-5.07-2.58-6.88-.37-.95-.58-1.08-1.32-1.14v-.39h3.15v.38c-.9.1-.91.21-.72.78.34.91,1.27,3.39,2.05,5.44h.02c.68-1.72,1.55-4.04,1.93-5.22.25-.75.18-.88-.83-1v-.38h2.82v.38Z"/>
        <path class="cls-2" d="M30.91,6.65c2.18,0,4.14,1.67,4.14,4.22,0,2.75-1.96,4.44-4.31,4.44s-4.18-1.8-4.18-4.25c0-2.3,1.65-4.41,4.33-4.41h0ZM30.63,7.13c-1.39,0-2.71,1.19-2.71,3.6s1.31,4.11,3.09,4.11c1.39,0,2.66-1.17,2.66-3.63,0-2.67-1.41-4.08-3.04-4.08h0Z"/>
        <path class="cls-2" d="M43.83,12.93c-.17.61-.5,1.61-.72,2.02-.36.09-1.46.37-2.37.37-3.19,0-4.61-2.22-4.61-4.23,0-2.68,2.06-4.44,4.93-4.44,1.06,0,1.95.3,2.3.37.1.72.19,1.27.26,1.99l-.37.09c-.34-1.41-1.17-1.97-2.51-1.97-2.11,0-3.23,1.79-3.23,3.69,0,2.4,1.4,4,3.34,4,1.28,0,1.98-.72,2.64-2.04l.36.15Z"/>
        <path class="cls-2" d="M49.43,15.11v-.37c.77-.11.88-.23.71-.74-.17-.5-.4-1.14-.66-1.87h-2.65c-.21.58-.37,1.08-.53,1.58-.26.77-.17.92.77,1.03v.37h-2.73v-.37c.8-.13.98-.22,1.41-1.35l2.6-6.64.43-.11c.79,2.25,1.59,4.51,2.41,6.75.4,1.12.57,1.26,1.37,1.35v.37h-3.13ZM48.22,8.4h-.02c-.4,1.05-.79,2.14-1.16,3.17h2.27l-1.08-3.17Z"/>
        <path class="cls-2" d="M57.48,10.67c1.27.17,2.23.73,2.23,2.01,0,.85-.45,1.51-1.17,1.93-.64.36-1.48.5-2.46.5h-2.84v-.37c1.06-.08,1.14-.17,1.14-1.24v-5.05c0-1.09-.06-1.17-1.03-1.23v-.38h3.27c.94,0,1.48.15,1.89.44.43.3.69.86.69,1.45,0,1.21-1,1.71-1.72,1.89v.04ZM56.06,10.5c1.34,0,1.9-.55,1.9-1.6,0-.91-.49-1.64-1.61-1.64-.3,0-.58.07-.69.16-.11.08-.14.23-.14.62v2.46h.54ZM55.52,13.48c0,.95.24,1.19,1.02,1.18.97-.02,1.84-.54,1.84-1.85s-.84-1.86-2.35-1.86h-.51v2.53Z"/>
        <path class="cls-2" d="M69.21,7.23c-.72.04-1.03.23-1.08.76-.03.36-.07.87-.07,2.02v1c0,1.5-.23,2.61-.95,3.39-.58.62-1.42.9-2.27.9-.76,0-1.48-.17-2.03-.62-.76-.59-1.12-1.56-1.12-3.09v-3.04c0-1.17-.11-1.24-1.08-1.32v-.38h3.32v.38c-.97.06-1.08.14-1.08,1.32v2.77c0,2.1.84,3.24,2.34,3.24,1.75,0,2.36-1.48,2.36-3.59v-.97c0-1.15-.03-1.65-.1-2.05-.07-.49-.35-.66-1.2-.72v-.38h2.99v.38Z"/>
        <path class="cls-2" d="M76.03,13.06c-.08.44-.34,1.66-.46,2.05h-5.71v-.37c1.06-.08,1.17-.17,1.17-1.28v-4.99c0-1.1-.08-1.18-1.11-1.25v-.38h3.35v.38c-.98.07-1.09.14-1.09,1.25v4.95c0,.7.06.94.29,1.07.24.14.66.17,1.15.17.65,0,1.09-.08,1.37-.41.23-.24.46-.66.67-1.27l.37.08Z"/>
        <path class="cls-2" d="M81.51,15.11v-.37c.77-.11.88-.23.71-.74-.17-.5-.4-1.14-.66-1.87h-2.65c-.21.58-.37,1.08-.53,1.58-.26.77-.17.92.77,1.03v.37h-2.73v-.37c.8-.13.98-.22,1.41-1.35l2.6-6.64.43-.11c.79,2.25,1.59,4.51,2.41,6.75.4,1.12.57,1.26,1.37,1.35v.37h-3.13ZM80.3,8.4h-.02c-.4,1.05-.79,2.14-1.16,3.17h2.27l-1.08-3.17Z"/>
        <path class="cls-2" d="M92.72,15.23c-.15,0-.29,0-.44-.03-1-.05-1.51-.33-2.08-1.17-.42-.62-.83-1.39-1.2-2-.22-.37-.44-.52-1.08-.52h-.35v1.98c0,1.07.12,1.17,1.11,1.25v.37h-3.35v-.37c1-.09,1.12-.18,1.12-1.25v-5.04c0-1.09-.11-1.16-1.07-1.23v-.38h3.17c.93,0,1.54.11,2.01.44.5.33.82.9.82,1.67,0,1.1-.68,1.77-1.56,2.16.21.42.72,1.25,1.09,1.84.45.67.71,1.03,1,1.34.31.37.59.51.87.58l-.06.36ZM88.13,11.09c.62,0,1.03-.1,1.35-.37.47-.38.66-.88.66-1.57,0-1.37-.85-1.87-1.77-1.87-.37,0-.57.05-.66.12-.08.07-.13.22-.13.55v3.13h.55Z"/>
        <path class="cls-2" d="M100.51,7.23c-.86.1-1.03.26-1.51,1.04-.55.87-.95,1.56-1.55,2.71-.18.34-.21.49-.21.83v1.67c0,1.09.09,1.19,1.25,1.27v.37h-3.6v-.37c1.09-.08,1.2-.17,1.2-1.27v-1.62c0-.27-.06-.38-.26-.77-.4-.72-.85-1.56-1.55-2.77-.49-.86-.65-1.02-1.38-1.09v-.38h3.07v.38c-.89.12-.84.29-.63.7.51.97,1.12,2.02,1.65,2.97.45-.82,1.13-2.1,1.47-2.86.26-.59.22-.72-.74-.82v-.38h2.8v.38Z"/>
      </g>
    </g>
  </g>
</svg>