<?xml version="1.0" encoding="UTF-8"?>
<svg id="Layer_2" data-name="Layer 2" xmlns="http://www.w3.org/2000/svg" xmlns:xlink="http://www.w3.org/1999/xlink" viewBox="0 0 117.84 237.05">
  <defs>
    <style>
      .cls-1 {
        fill: #f89631;
      }

      .cls-2, .cls-3 {
        fill: none;
      }

      .cls-3 {
        stroke: #f89631;
        stroke-width: 1.62px;
      }

      .cls-4 {
        fill: #fffac2;
      }

      .cls-5 {
        fill: #fff;
        font-family: TwCenMTBoldEdited-Bold, 'TwCenMTBoldEdited Bold';
        font-size: 17.82px;
        font-weight: 700;
      }

      .cls-6 {
        clip-path: url(#clippath);
      }
    </style>
    <clipPath id="clippath">
      <path class="cls-2" d="M6.64.81S.81.81.81,6.64v223.77s0,5.83,5.83,5.83h104.56s5.83,0,5.83-5.83V6.64s0-5.83-5.83-5.83H6.64Z"/>
    </clipPath>
  </defs>
  <g id="Layer_1-2" data-name="Layer 1">
    <g>
      <path class="cls-4" d="M6.64.81S.81.81.81,6.64v223.77s0,5.83,5.83,5.83h104.56s5.83,0,5.83-5.83V6.64s0-5.83-5.83-5.83H6.64Z"/>
      <g class="cls-6">
        <path class="cls-1" d="M128.84,22.14V-.46s0-.95-6.03-.95H5.03S-1-1.41-1-.46v22.6h129.84Z"/>
      </g>
      <path class="cls-3" d="M6.64.81S.81.81.81,6.64v223.77s0,5.83,5.83,5.83h104.56s5.83,0,5.83-5.83V6.64s0-5.83-5.83-5.83H6.64Z"/>
    </g>
    <text class="cls-5" transform="translate(19.55 14.86) scale(.95 1)"><tspan x="0" y="0">VOCABULARY</tspan></text>
  </g>
</svg>