<?xml version="1.0" encoding="UTF-8"?>
<svg id="Layer_2" data-name="Layer 2" xmlns="http://www.w3.org/2000/svg" viewBox="0 0 537 73.46">
  <defs>
    <style>
      .cls-1 {
        fill: #f89631;
      }

      .cls-2 {
        fill: #fff;
      }

      .cls-3 {
        fill: none;
        stroke: #fff;
        stroke-dasharray: 3.97 3.97;
        stroke-miterlimit: 10;
        stroke-width: .75px;
      }
    </style>
  </defs>
  <g id="Layer_1-2" data-name="Layer 1">
    <rect class="cls-1" width="537" height="73.46" rx="3.6" ry="3.6"/>
    <g>
      <path class="cls-2" d="M11.52,7.15h.82v3.97c0,1.15.62,1.65,1.55,1.65s1.54-.5,1.54-1.65v-3.97h.82v3.96c0,1.63-1.07,2.38-2.37,2.38s-2.36-.75-2.36-2.38v-3.96Z"/>
      <path class="cls-2" d="M19.36,13.5c-1.15,0-1.96-.63-2.02-1.53h.85c.04.48.47.84,1.16.84.65,0,1.01-.32,1.01-.73,0-1.1-2.92-.46-2.92-2.29,0-.76.71-1.38,1.81-1.38s1.81.58,1.86,1.55h-.82c-.04-.5-.41-.86-1.07-.86-.6,0-.96.29-.96.68,0,1.17,2.86.53,2.9,2.29,0,.81-.71,1.42-1.8,1.42Z"/>
      <path class="cls-2" d="M24.45,13.5c-1.4,0-2.44-.99-2.44-2.56s1-2.54,2.44-2.54,2.37,1.01,2.37,2.36c0,.18,0,.32-.03.5h-3.94c.06,1,.77,1.55,1.6,1.55.74,0,1.21-.38,1.39-.91h.88c-.25.9-1.04,1.6-2.27,1.6ZM22.85,10.6h3.11c0-.96-.71-1.49-1.56-1.49-.8,0-1.47.53-1.56,1.49Z"/>
      <path class="cls-2" d="M30.12,9.78h3.59v.69h-3.59v-.69Z"/>
      <path class="cls-2" d="M37.39,13.5c-1.4,0-2.44-.99-2.44-2.56s1-2.54,2.44-2.54,2.37,1.01,2.37,2.36c0,.18,0,.32-.03.5h-3.94c.06,1,.77,1.55,1.6,1.55.74,0,1.21-.38,1.39-.91h.88c-.25.9-1.04,1.6-2.27,1.6ZM35.79,10.6h3.11c0-.96-.71-1.49-1.56-1.49-.8,0-1.47.53-1.56,1.49Z"/>
      <path class="cls-2" d="M41.65,13.42h-.82v-4.93h.82v.8c.28-.55.81-.89,1.59-.89v.85h-.22c-.78,0-1.38.35-1.38,1.5v2.68Z"/>
      <path class="cls-2" d="M48.63,8.41c.92,0,1.55.47,1.84.98v-.9h.83v4.93h-.83v-.92c-.3.53-.94,1-1.85,1-1.31,0-2.33-1.04-2.33-2.57s1.02-2.53,2.34-2.53ZM48.79,9.12c-.9,0-1.67.66-1.67,1.82s.77,1.84,1.67,1.84,1.67-.67,1.67-1.84-.77-1.83-1.67-1.83Z"/>
      <path class="cls-2" d="M56.29,10.63c0-1.01-.55-1.52-1.38-1.52s-1.41.52-1.41,1.58v2.73h-.82v-4.93h.82v.7c.32-.51.92-.79,1.58-.79,1.14,0,2.02.7,2.02,2.12v2.91h-.81v-2.79Z"/>
      <path class="cls-2" d="M60.48,8.41c.77,0,1.49.4,1.83.96v-2.61h.83v6.66h-.83v-.93c-.3.55-.94,1.01-1.84,1.01-1.32,0-2.34-1.04-2.34-2.57s1.02-2.53,2.35-2.53ZM60.63,9.12c-.9,0-1.67.66-1.67,1.82s.77,1.84,1.67,1.84,1.67-.67,1.67-1.84-.77-1.83-1.67-1.83Z"/>
      <path class="cls-2" d="M66.75,9.78h3.59v.69h-3.59v-.69Z"/>
      <path class="cls-2" d="M74.02,13.5c-1.4,0-2.44-.99-2.44-2.56s1-2.54,2.44-2.54,2.37,1.01,2.37,2.36c0,.18,0,.32-.03.5h-3.94c.06,1,.77,1.55,1.6,1.55.74,0,1.21-.38,1.39-.91h.88c-.25.9-1.04,1.6-2.27,1.6ZM72.42,10.6h3.11c0-.96-.71-1.49-1.56-1.49-.8,0-1.47.53-1.56,1.49Z"/>
      <path class="cls-2" d="M79.21,13.5c-1.15,0-1.96-.63-2.02-1.53h.85c.04.48.47.84,1.16.84.65,0,1.01-.32,1.01-.73,0-1.1-2.92-.46-2.92-2.29,0-.76.71-1.38,1.81-1.38s1.81.58,1.86,1.55h-.82c-.04-.5-.41-.86-1.07-.86-.6,0-.96.29-.96.68,0,1.17,2.86.53,2.9,2.29,0,.81-.71,1.42-1.8,1.42Z"/>
      <path class="cls-2" d="M82.34,9.16h-.64v-.68h.64v-1.24h.82v1.24h1.29v.68h-1.29v2.91c0,.49.18.66.68.66h.6v.69h-.74c-.87,0-1.37-.36-1.37-1.35v-2.91Z"/>
      <path class="cls-2" d="M87.99,9.16h-.64v-.68h.64v-.35c0-1.1.54-1.59,1.8-1.59v.68c-.74,0-.98.27-.98.91v.35h1.04v.68h-1.04v4.26h-.82v-4.26Z"/>
      <path class="cls-2" d="M92.95,13.5c-1.4,0-2.46-.99-2.46-2.56s1.1-2.54,2.49-2.54,2.49.98,2.49,2.54-1.12,2.56-2.53,2.56ZM92.95,12.78c.86,0,1.69-.58,1.69-1.84s-.82-1.83-1.67-1.83-1.65.59-1.65,1.83.77,1.84,1.62,1.84Z"/>
      <path class="cls-2" d="M97.38,13.42h-.82v-4.93h.82v.8c.28-.55.81-.89,1.59-.89v.85h-.22c-.78,0-1.38.35-1.38,1.5v2.68Z"/>
      <path class="cls-2" d="M104.47,13.5c-1.4,0-2.46-.99-2.46-2.56s1.1-2.54,2.49-2.54,2.49.98,2.49,2.54-1.12,2.56-2.53,2.56ZM104.47,12.78c.86,0,1.69-.58,1.69-1.84s-.82-1.83-1.67-1.83-1.65.59-1.65,1.83.77,1.84,1.62,1.84Z"/>
      <path class="cls-2" d="M111.69,10.63c0-1.01-.55-1.52-1.38-1.52s-1.41.52-1.41,1.58v2.73h-.82v-4.93h.82v.7c.32-.51.92-.79,1.58-.79,1.14,0,2.02.7,2.02,2.12v2.91h-.81v-2.79Z"/>
      <path class="cls-2" d="M115.98,13.5c-1.4,0-2.44-.99-2.44-2.56s1-2.54,2.44-2.54,2.37,1.01,2.37,2.36c0,.18,0,.32-.03.5h-3.94c.06,1,.77,1.55,1.6,1.55.74,0,1.21-.38,1.39-.91h.88c-.25.9-1.04,1.6-2.27,1.6ZM114.38,10.6h3.11c0-.96-.71-1.49-1.56-1.49-.8,0-1.47.53-1.56,1.49Z"/>
      <path class="cls-2" d="M119.25,9.78h3.59v.69h-3.59v-.69Z"/>
      <path class="cls-2" d="M126.13,13.5c-1.15,0-1.96-.63-2.02-1.53h.85c.04.48.47.84,1.16.84.65,0,1.01-.32,1.01-.73,0-1.1-2.92-.46-2.92-2.29,0-.76.71-1.38,1.81-1.38s1.81.58,1.86,1.55h-.82c-.04-.5-.41-.86-1.07-.86-.6,0-.96.29-.96.68,0,1.17,2.86.53,2.9,2.29,0,.81-.71,1.42-1.8,1.42Z"/>
      <path class="cls-2" d="M132.48,8.49h.85l-2.97,7.26h-.85l.97-2.38-1.99-4.88h.91l1.55,4,1.53-4Z"/>
      <path class="cls-2" d="M134.15,6.76h.82v6.66h-.82v-6.66Z"/>
      <path class="cls-2" d="M136.36,6.76h.82v6.66h-.82v-6.66Z"/>
      <path class="cls-2" d="M140.61,8.41c.92,0,1.55.47,1.84.98v-.9h.83v4.93h-.83v-.92c-.3.53-.94,1-1.85,1-1.31,0-2.33-1.04-2.33-2.57s1.02-2.53,2.34-2.53ZM140.77,9.12c-.9,0-1.67.66-1.67,1.82s.77,1.84,1.67,1.84,1.67-.67,1.67-1.84-.77-1.83-1.67-1.83Z"/>
      <path class="cls-2" d="M147.32,8.41c1.33,0,2.34.99,2.34,2.53s-1.02,2.57-2.34,2.57c-.9,0-1.54-.45-1.85-.99v.91h-.82v-6.66h.82v2.65c.31-.55.97-1,1.85-1ZM147.15,9.12c-.89,0-1.67.68-1.67,1.83s.78,1.84,1.67,1.84,1.67-.68,1.67-1.84-.77-1.82-1.67-1.82Z"/>
      <path class="cls-2" d="M150.74,6.76h.82v6.66h-.82v-6.66Z"/>
      <path class="cls-2" d="M155.09,13.5c-1.4,0-2.44-.99-2.44-2.56s1-2.54,2.44-2.54,2.37,1.01,2.37,2.36c0,.18,0,.32-.03.5h-3.94c.06,1,.77,1.55,1.6,1.55.74,0,1.21-.38,1.39-.91h.88c-.25.9-1.04,1.6-2.27,1.6ZM153.5,10.6h3.11c0-.96-.71-1.49-1.56-1.49-.8,0-1.47.53-1.56,1.49Z"/>
      <path class="cls-2" d="M160.35,8.49h.84l1.13,4.14,1.22-4.14h.84l1.2,4.15,1.12-4.15h.81l-1.54,4.93h-.85l-1.19-3.92-1.19,3.92h-.85l-1.55-4.93Z"/>
      <path class="cls-2" d="M170.47,13.5c-1.4,0-2.46-.99-2.46-2.56s1.1-2.54,2.49-2.54,2.49.98,2.49,2.54-1.12,2.56-2.53,2.56ZM170.47,12.78c.86,0,1.69-.58,1.69-1.84s-.82-1.83-1.67-1.83-1.65.59-1.65,1.83.77,1.84,1.62,1.84Z"/>
      <path class="cls-2" d="M174.9,13.42h-.82v-4.93h.82v.8c.28-.55.81-.89,1.59-.89v.85h-.22c-.78,0-1.38.35-1.38,1.5v2.68Z"/>
      <path class="cls-2" d="M179.48,8.41c.77,0,1.49.4,1.83.96v-2.61h.83v6.66h-.83v-.93c-.3.55-.94,1.01-1.84,1.01-1.32,0-2.34-1.04-2.34-2.57s1.02-2.53,2.35-2.53ZM179.63,9.12c-.9,0-1.67.66-1.67,1.82s.77,1.84,1.67,1.84,1.67-.67,1.67-1.84-.77-1.83-1.67-1.83Z"/>
      <path class="cls-2" d="M185.27,13.5c-1.15,0-1.96-.63-2.02-1.53h.85c.04.48.47.84,1.16.84.65,0,1.01-.32,1.01-.73,0-1.1-2.92-.46-2.92-2.29,0-.76.71-1.38,1.81-1.38s1.81.58,1.86,1.55h-.82c-.04-.5-.41-.86-1.07-.86-.6,0-.96.29-.96.68,0,1.17,2.86.53,2.9,2.29,0,.81-.71,1.42-1.8,1.42Z"/>
      <path class="cls-2" d="M192.77,13.5c-1.4,0-2.46-.99-2.46-2.56s1.1-2.54,2.49-2.54,2.49.98,2.49,2.54-1.12,2.56-2.53,2.56ZM192.77,12.78c.86,0,1.69-.58,1.69-1.84s-.82-1.83-1.67-1.83-1.65.59-1.65,1.83.77,1.84,1.62,1.84Z"/>
      <path class="cls-2" d="M197.2,13.42h-.82v-4.93h.82v.8c.28-.55.81-.89,1.59-.89v.85h-.22c-.78,0-1.38.35-1.38,1.5v2.68Z"/>
      <path class="cls-2" d="M202.32,9.16h-.64v-.68h.64v-1.24h.82v1.24h1.29v.68h-1.29v2.91c0,.49.18.66.68.66h.6v.69h-.74c-.87,0-1.37-.36-1.37-1.35v-2.91Z"/>
      <path class="cls-2" d="M204.83,8.49h.84l1.13,4.14,1.22-4.14h.84l1.2,4.15,1.12-4.15h.81l-1.54,4.93h-.85l-1.19-3.92-1.19,3.92h-.85l-1.55-4.93Z"/>
      <path class="cls-2" d="M214.95,13.5c-1.4,0-2.46-.99-2.46-2.56s1.1-2.54,2.49-2.54,2.49.98,2.49,2.54-1.12,2.56-2.53,2.56ZM214.95,12.78c.86,0,1.69-.58,1.69-1.84s-.82-1.83-1.67-1.83-1.65.59-1.65,1.83.77,1.84,1.62,1.84Z"/>
      <path class="cls-2" d="M218.38,9.78h3.59v.69h-3.59v-.69Z"/>
      <path class="cls-2" d="M225.26,13.5c-1.15,0-1.96-.63-2.02-1.53h.85c.04.48.47.84,1.16.84.65,0,1.01-.32,1.01-.73,0-1.1-2.92-.46-2.92-2.29,0-.76.71-1.38,1.81-1.38s1.81.58,1.86,1.55h-.82c-.04-.5-.41-.86-1.07-.86-.6,0-.96.29-.96.68,0,1.17,2.86.53,2.9,2.29,0,.81-.71,1.42-1.8,1.42Z"/>
      <path class="cls-2" d="M231.62,8.49h.85l-2.97,7.26h-.85l.97-2.38-1.99-4.88h.91l1.55,4,1.53-4Z"/>
      <path class="cls-2" d="M233.28,6.76h.82v6.66h-.82v-6.66Z"/>
      <path class="cls-2" d="M235.49,6.76h.82v6.66h-.82v-6.66Z"/>
      <path class="cls-2" d="M239.74,8.41c.92,0,1.55.47,1.84.98v-.9h.83v4.93h-.83v-.92c-.3.53-.94,1-1.85,1-1.31,0-2.33-1.04-2.33-2.57s1.02-2.53,2.34-2.53ZM239.9,9.12c-.9,0-1.67.66-1.67,1.82s.77,1.84,1.67,1.84,1.67-.67,1.67-1.84-.77-1.83-1.67-1.83Z"/>
      <path class="cls-2" d="M246.46,8.41c1.33,0,2.34.99,2.34,2.53s-1.02,2.57-2.34,2.57c-.9,0-1.54-.45-1.85-.99v.91h-.82v-6.66h.82v2.65c.31-.55.97-1,1.85-1ZM246.28,9.12c-.89,0-1.67.68-1.67,1.83s.78,1.84,1.67,1.84,1.67-.68,1.67-1.84-.77-1.82-1.67-1.82Z"/>
      <path class="cls-2" d="M249.87,6.76h.82v6.66h-.82v-6.66Z"/>
      <path class="cls-2" d="M254.22,13.5c-1.4,0-2.44-.99-2.44-2.56s1-2.54,2.44-2.54,2.37,1.01,2.37,2.36c0,.18,0,.32-.03.5h-3.94c.06,1,.77,1.55,1.6,1.55.74,0,1.21-.38,1.39-.91h.88c-.25.9-1.04,1.6-2.27,1.6ZM252.63,10.6h3.11c0-.96-.71-1.49-1.56-1.49-.8,0-1.47.53-1.56,1.49Z"/>
      <path class="cls-2" d="M259.49,8.49h.84l1.13,4.14,1.22-4.14h.84l1.2,4.15,1.12-4.15h.81l-1.54,4.93h-.85l-1.19-3.92-1.19,3.92h-.85l-1.55-4.93Z"/>
      <path class="cls-2" d="M269.6,13.5c-1.4,0-2.46-.99-2.46-2.56s1.1-2.54,2.49-2.54,2.49.98,2.49,2.54-1.12,2.56-2.53,2.56ZM269.6,12.78c.86,0,1.69-.58,1.69-1.84s-.82-1.83-1.67-1.83-1.65.59-1.65,1.83.77,1.84,1.62,1.84Z"/>
      <path class="cls-2" d="M274.03,13.42h-.82v-4.93h.82v.8c.28-.55.81-.89,1.59-.89v.85h-.22c-.78,0-1.38.35-1.38,1.5v2.68Z"/>
      <path class="cls-2" d="M278.61,8.41c.77,0,1.49.4,1.83.96v-2.61h.83v6.66h-.83v-.93c-.3.55-.94,1.01-1.84,1.01-1.32,0-2.34-1.04-2.34-2.57s1.02-2.53,2.35-2.53ZM278.76,9.12c-.9,0-1.67.66-1.67,1.82s.77,1.84,1.67,1.84,1.67-.67,1.67-1.84-.77-1.83-1.67-1.83Z"/>
      <path class="cls-2" d="M284.4,13.5c-1.15,0-1.96-.63-2.02-1.53h.85c.04.48.47.84,1.16.84.65,0,1.01-.32,1.01-.73,0-1.1-2.92-.46-2.92-2.29,0-.76.71-1.38,1.81-1.38s1.81.58,1.86,1.55h-.82c-.04-.5-.41-.86-1.07-.86-.6,0-.96.29-.96.68,0,1.17,2.86.53,2.9,2.29,0,.81-.71,1.42-1.8,1.42Z"/>
      <path class="cls-2" d="M291.89,13.5c-1.4,0-2.44-.99-2.44-2.56s1-2.54,2.44-2.54,2.37,1.01,2.37,2.36c0,.18,0,.32-.03.5h-3.94c.06,1,.77,1.55,1.6,1.55.74,0,1.21-.38,1.39-.91h.88c-.25.9-1.04,1.6-2.27,1.6ZM290.29,10.6h3.11c0-.96-.71-1.49-1.56-1.49-.8,0-1.47.53-1.56,1.49Z"/>
      <path class="cls-2" d="M298.94,10.63c0-1.01-.55-1.52-1.38-1.52s-1.41.52-1.41,1.58v2.73h-.82v-4.93h.82v.7c.32-.51.92-.79,1.58-.79,1.14,0,2.02.7,2.02,2.12v2.91h-.81v-2.79Z"/>
      <path class="cls-2" d="M303.14,8.41c.77,0,1.49.4,1.83.96v-2.61h.83v6.66h-.83v-.93c-.3.55-.94,1.01-1.84,1.01-1.32,0-2.34-1.04-2.34-2.57s1.02-2.53,2.35-2.53ZM303.29,9.12c-.9,0-1.67.66-1.67,1.82s.77,1.84,1.67,1.84,1.67-.67,1.67-1.84-.77-1.83-1.67-1.83Z"/>
      <path class="cls-2" d="M307.04,7.13c0-.32.24-.56.56-.56.3,0,.54.24.54.56s-.24.56-.54.56c-.31,0-.56-.24-.56-.56ZM307.18,8.49h.82v4.93h-.82v-4.93Z"/>
      <path class="cls-2" d="M313,10.63c0-1.01-.55-1.52-1.38-1.52s-1.41.52-1.41,1.58v2.73h-.82v-4.93h.82v.7c.32-.51.92-.79,1.58-.79,1.14,0,2.02.7,2.02,2.12v2.91h-.81v-2.79Z"/>
      <path class="cls-2" d="M317.19,8.41c.9,0,1.55.45,1.84.98v-.9h.83v5.04c0,1.36-.91,2.32-2.36,2.32-1.3,0-2.22-.66-2.39-1.71h.81c.18.59.77,1,1.58,1,.87,0,1.53-.56,1.53-1.61v-1.04c-.3.53-.94,1.01-1.84,1.01-1.32,0-2.34-1.04-2.34-2.57s1.02-2.53,2.34-2.53ZM317.35,9.12c-.9,0-1.67.66-1.67,1.82s.77,1.84,1.67,1.84,1.67-.67,1.67-1.84-.77-1.83-1.67-1.83Z"/>
      <path class="cls-2" d="M323.5,7.13c0-.32.24-.56.56-.56.3,0,.54.24.54.56s-.24.56-.54.56c-.31,0-.56-.24-.56-.56ZM323.64,8.49h.82v4.93h-.82v-4.93Z"/>
      <path class="cls-2" d="M329.46,10.63c0-1.01-.55-1.52-1.38-1.52s-1.41.52-1.41,1.58v2.73h-.82v-4.93h.82v.7c.32-.51.92-.79,1.59-.79,1.14,0,2.02.7,2.02,2.12v2.91h-.81v-2.79Z"/>
      <path class="cls-2" d="M333.84,9.78h3.59v.69h-3.59v-.69Z"/>
      <path class="cls-2" d="M342.38,8.49h.85l-2.97,7.26h-.85l.97-2.38-1.99-4.88h.91l1.55,4,1.53-4Z"/>
      <path class="cls-2" d="M344.3,13.48c-.32,0-.56-.24-.56-.56s.24-.56.56-.56c.3,0,.54.24.54.56s-.24.56-.54.56Z"/>
    </g>
    <g>
      <path class="cls-2" d="M40.64,23.2c1.22,0,2.03.63,2.28,1.67h-.88c-.17-.59-.67-.97-1.4-.97-.9,0-1.57.64-1.57,1.85s.67,1.86,1.57,1.86c.73,0,1.22-.35,1.4-.97h.88c-.25.98-1.05,1.67-2.28,1.67-1.4,0-2.4-.99-2.4-2.56s1-2.54,2.4-2.54Z"/>
      <path class="cls-2" d="M44,21.56h.82v6.66h-.82v-6.66Z"/>
      <path class="cls-2" d="M48.35,28.3c-1.4,0-2.44-.99-2.44-2.56s1-2.54,2.44-2.54,2.37,1.01,2.37,2.36c0,.18,0,.32-.03.5h-3.94c.06,1,.77,1.55,1.6,1.55.74,0,1.21-.38,1.39-.91h.88c-.25.9-1.04,1.6-2.27,1.6ZM46.76,25.39h3.11c0-.96-.71-1.49-1.56-1.49-.8,0-1.47.53-1.56,1.49Z"/>
      <path class="cls-2" d="M53.83,23.2c.92,0,1.55.47,1.84.98v-.9h.83v4.93h-.83v-.92c-.3.53-.94,1-1.85,1-1.31,0-2.33-1.04-2.33-2.57s1.02-2.53,2.34-2.53ZM53.99,23.91c-.9,0-1.67.66-1.67,1.82s.77,1.84,1.67,1.84,1.67-.67,1.67-1.84-.77-1.83-1.67-1.83Z"/>
      <path class="cls-2" d="M58.7,28.22h-.82v-4.93h.82v.8c.28-.55.81-.89,1.59-.89v.85h-.22c-.78,0-1.38.35-1.38,1.49v2.68Z"/>
      <path class="cls-2" d="M63.37,28.3c-1.4,0-2.44-.99-2.44-2.56s1-2.54,2.44-2.54,2.37,1.01,2.37,2.36c0,.18,0,.32-.03.5h-3.94c.06,1,.77,1.55,1.6,1.55.74,0,1.21-.38,1.39-.91h.88c-.25.9-1.04,1.6-2.27,1.6ZM61.78,25.39h3.11c0-.96-.71-1.49-1.56-1.49-.8,0-1.47.53-1.56,1.49Z"/>
      <path class="cls-2" d="M67.64,28.22h-.82v-4.93h.82v.8c.28-.55.81-.89,1.59-.89v.85h-.22c-.78,0-1.38.35-1.38,1.49v2.68Z"/>
      <path class="cls-2" d="M72.42,19.74h.82l-2.47,10.01h-.81l2.46-10.01Z"/>
      <path class="cls-2" d="M76.56,23.2c1.22,0,2.03.63,2.28,1.67h-.88c-.17-.59-.67-.97-1.4-.97-.9,0-1.57.64-1.57,1.85s.67,1.86,1.57,1.86c.73,0,1.22-.35,1.4-.97h.88c-.25.98-1.05,1.67-2.28,1.67-1.4,0-2.4-.99-2.4-2.56s1-2.54,2.4-2.54Z"/>
      <path class="cls-2" d="M79.92,21.56h.82v6.66h-.82v-6.66Z"/>
      <path class="cls-2" d="M84.27,28.3c-1.4,0-2.44-.99-2.44-2.56s1-2.54,2.44-2.54,2.37,1.01,2.37,2.36c0,.18,0,.32-.03.5h-3.94c.06,1,.77,1.55,1.6,1.55.74,0,1.21-.38,1.39-.91h.88c-.25.9-1.04,1.6-2.27,1.6ZM82.68,25.39h3.11c0-.96-.71-1.49-1.56-1.49-.8,0-1.47.53-1.56,1.49Z"/>
      <path class="cls-2" d="M89.75,23.2c.92,0,1.55.47,1.84.98v-.9h.83v4.93h-.83v-.92c-.3.53-.94,1-1.85,1-1.31,0-2.33-1.04-2.33-2.57s1.02-2.53,2.34-2.53ZM89.91,23.91c-.9,0-1.67.66-1.67,1.82s.77,1.84,1.67,1.84,1.67-.67,1.67-1.84-.77-1.83-1.67-1.83Z"/>
      <path class="cls-2" d="M94.62,28.22h-.82v-4.93h.82v.8c.28-.55.81-.89,1.59-.89v.85h-.22c-.78,0-1.38.35-1.38,1.49v2.68Z"/>
      <path class="cls-2" d="M99.29,28.3c-1.4,0-2.44-.99-2.44-2.56s1-2.54,2.44-2.54,2.37,1.01,2.37,2.36c0,.18,0,.32-.03.5h-3.94c.06,1,.77,1.55,1.6,1.55.74,0,1.21-.38,1.39-.91h.88c-.25.9-1.04,1.6-2.27,1.6ZM97.7,25.39h3.11c0-.96-.71-1.49-1.56-1.49-.8,0-1.47.53-1.56,1.49Z"/>
      <path class="cls-2" d="M104.48,28.3c-1.15,0-1.96-.63-2.02-1.53h.85c.04.48.47.84,1.16.84.65,0,1.01-.32,1.01-.73,0-1.1-2.92-.46-2.92-2.29,0-.76.71-1.38,1.81-1.38s1.81.58,1.86,1.55h-.82c-.04-.5-.41-.86-1.07-.86-.6,0-.96.29-.96.68,0,1.17,2.86.53,2.9,2.29,0,.81-.71,1.42-1.8,1.42Z"/>
      <path class="cls-2" d="M107.61,23.96h-.64v-.68h.64v-1.24h.82v1.24h1.29v.68h-1.29v2.91c0,.49.18.66.68.66h.6v.69h-.74c-.87,0-1.37-.36-1.37-1.35v-2.91Z"/>
    </g>
    <g>
      <path class="cls-2" d="M225.21,23.2c1.33,0,2.34.99,2.34,2.53s-1.02,2.57-2.34,2.57c-.9,0-1.54-.45-1.85-.99v.91h-.82v-6.66h.82v2.65c.31-.55.97-1,1.85-1ZM225.04,23.91c-.89,0-1.67.68-1.67,1.83s.78,1.84,1.67,1.84,1.67-.68,1.67-1.84-.77-1.82-1.67-1.82Z"/>
      <path class="cls-2" d="M228.49,21.93c0-.32.24-.56.56-.56.3,0,.54.24.54.56s-.24.56-.54.56c-.31,0-.56-.24-.56-.56ZM228.63,23.28h.82v4.93h-.82v-4.93Z"/>
      <path class="cls-2" d="M232.88,23.2c.9,0,1.55.45,1.84.98v-.9h.83v5.04c0,1.36-.91,2.32-2.36,2.32-1.3,0-2.22-.66-2.39-1.71h.81c.18.59.77,1,1.58,1,.87,0,1.53-.56,1.53-1.61v-1.04c-.3.53-.94,1.01-1.84,1.01-1.32,0-2.34-1.04-2.34-2.57s1.02-2.53,2.34-2.53ZM233.04,23.91c-.9,0-1.67.66-1.67,1.82s.77,1.84,1.67,1.84,1.67-.67,1.67-1.84-.77-1.83-1.67-1.83Z"/>
      <path class="cls-2" d="M238.96,23.2c.9,0,1.55.45,1.84.98v-.9h.83v5.04c0,1.36-.91,2.32-2.36,2.32-1.3,0-2.22-.66-2.39-1.71h.81c.18.59.77,1,1.58,1,.87,0,1.53-.56,1.53-1.61v-1.04c-.3.53-.94,1.01-1.84,1.01-1.32,0-2.34-1.04-2.34-2.57s1.02-2.53,2.34-2.53ZM239.12,23.91c-.9,0-1.67.66-1.67,1.82s.77,1.84,1.67,1.84,1.67-.67,1.67-1.84-.77-1.83-1.67-1.83Z"/>
      <path class="cls-2" d="M245.14,28.3c-1.4,0-2.44-.99-2.44-2.56s1-2.54,2.44-2.54,2.37,1.01,2.37,2.36c0,.18,0,.32-.03.5h-3.94c.06,1,.77,1.55,1.6,1.55.74,0,1.21-.38,1.39-.91h.88c-.25.9-1.04,1.6-2.27,1.6ZM243.55,25.39h3.11c0-.96-.71-1.49-1.56-1.49-.8,0-1.47.53-1.56,1.49Z"/>
      <path class="cls-2" d="M249.41,28.22h-.82v-4.93h.82v.8c.28-.55.81-.89,1.59-.89v.85h-.22c-.78,0-1.38.35-1.38,1.49v2.68Z"/>
      <path class="cls-2" d="M254.19,19.74h.82l-2.47,10.01h-.81l2.46-10.01Z"/>
      <path class="cls-2" d="M258.9,23.2c1.33,0,2.34.99,2.34,2.53s-1.02,2.57-2.34,2.57c-.9,0-1.54-.45-1.85-.99v.91h-.82v-6.66h.82v2.65c.31-.55.97-1,1.85-1ZM258.73,23.91c-.89,0-1.67.68-1.67,1.83s.78,1.84,1.67,1.84,1.67-.68,1.67-1.84-.77-1.82-1.67-1.82Z"/>
      <path class="cls-2" d="M262.18,21.93c0-.32.24-.56.56-.56.3,0,.54.24.54.56s-.24.56-.54.56c-.31,0-.56-.24-.56-.56ZM262.32,23.28h.82v4.93h-.82v-4.93Z"/>
      <path class="cls-2" d="M266.56,23.2c.9,0,1.55.45,1.84.98v-.9h.83v5.04c0,1.36-.91,2.32-2.36,2.32-1.3,0-2.22-.66-2.39-1.71h.81c.18.59.77,1,1.58,1,.87,0,1.53-.56,1.53-1.61v-1.04c-.3.53-.94,1.01-1.84,1.01-1.32,0-2.34-1.04-2.34-2.57s1.02-2.53,2.34-2.53ZM266.73,23.91c-.9,0-1.67.66-1.67,1.82s.77,1.84,1.67,1.84,1.67-.67,1.67-1.84-.77-1.83-1.67-1.83Z"/>
      <path class="cls-2" d="M272.65,23.2c.9,0,1.55.45,1.84.98v-.9h.83v5.04c0,1.36-.91,2.32-2.36,2.32-1.3,0-2.22-.66-2.39-1.71h.81c.18.59.77,1,1.58,1,.87,0,1.53-.56,1.53-1.61v-1.04c-.3.53-.94,1.01-1.84,1.01-1.32,0-2.34-1.04-2.34-2.57s1.02-2.53,2.34-2.53ZM272.81,23.91c-.9,0-1.67.66-1.67,1.82s.77,1.84,1.67,1.84,1.67-.67,1.67-1.84-.77-1.83-1.67-1.83Z"/>
      <path class="cls-2" d="M278.83,28.3c-1.4,0-2.44-.99-2.44-2.56s1-2.54,2.44-2.54,2.37,1.01,2.37,2.36c0,.18,0,.32-.03.5h-3.94c.06,1,.77,1.55,1.6,1.55.74,0,1.21-.38,1.39-.91h.88c-.25.9-1.04,1.6-2.27,1.6ZM277.24,25.39h3.11c0-.96-.71-1.49-1.56-1.49-.8,0-1.47.53-1.56,1.49Z"/>
      <path class="cls-2" d="M284.02,28.3c-1.15,0-1.96-.63-2.02-1.53h.85c.04.48.47.84,1.16.84.65,0,1.01-.32,1.01-.73,0-1.1-2.92-.46-2.92-2.29,0-.76.71-1.38,1.81-1.38s1.81.58,1.86,1.55h-.82c-.04-.5-.41-.86-1.07-.86-.6,0-.96.29-.96.68,0,1.17,2.86.53,2.9,2.29,0,.81-.71,1.42-1.8,1.42Z"/>
      <path class="cls-2" d="M287.15,23.96h-.64v-.68h.64v-1.24h.82v1.24h1.29v.68h-1.29v2.91c0,.49.18.66.68.66h.6v.69h-.74c-.87,0-1.37-.36-1.37-1.35v-2.91Z"/>
    </g>
    <g>
      <path class="cls-2" d="M403.68,28.3c-1.4,0-2.44-.99-2.44-2.56s1-2.54,2.44-2.54,2.37,1.01,2.37,2.36c0,.18,0,.32-.03.5h-3.94c.06,1,.76,1.55,1.6,1.55.74,0,1.21-.38,1.39-.91h.88c-.25.9-1.04,1.6-2.27,1.6ZM402.09,25.39h3.11c0-.96-.71-1.49-1.56-1.49-.8,0-1.47.53-1.56,1.49Z"/>
      <path class="cls-2" d="M409.16,23.2c.92,0,1.55.47,1.84.98v-.9h.83v4.93h-.83v-.92c-.3.53-.94,1-1.85,1-1.31,0-2.33-1.04-2.33-2.57s1.02-2.53,2.34-2.53ZM409.32,23.91c-.9,0-1.67.66-1.67,1.82s.76,1.84,1.67,1.84,1.67-.67,1.67-1.84-.77-1.83-1.67-1.83Z"/>
      <path class="cls-2" d="M414.96,28.3c-1.15,0-1.96-.63-2.02-1.53h.85c.04.48.47.84,1.16.84.65,0,1.01-.32,1.01-.73,0-1.1-2.92-.46-2.92-2.29,0-.76.71-1.38,1.81-1.38s1.81.58,1.86,1.55h-.82c-.04-.5-.41-.86-1.07-.86-.6,0-.96.29-.96.68,0,1.17,2.86.53,2.9,2.29,0,.81-.71,1.42-1.8,1.42Z"/>
      <path class="cls-2" d="M417.77,21.93c0-.32.24-.56.56-.56.3,0,.54.24.54.56s-.24.56-.54.56c-.31,0-.56-.24-.56-.56ZM417.91,23.28h.82v4.93h-.82v-4.93Z"/>
      <path class="cls-2" d="M422.26,28.3c-1.4,0-2.44-.99-2.44-2.56s1-2.54,2.44-2.54,2.37,1.01,2.37,2.36c0,.18,0,.32-.03.5h-3.94c.06,1,.77,1.55,1.6,1.55.74,0,1.21-.38,1.39-.91h.88c-.25.9-1.04,1.6-2.27,1.6ZM420.66,25.39h3.12c0-.96-.71-1.49-1.56-1.49-.8,0-1.47.53-1.56,1.49Z"/>
      <path class="cls-2" d="M426.52,28.22h-.82v-4.93h.82v.8c.28-.55.81-.89,1.59-.89v.85h-.22c-.78,0-1.38.35-1.38,1.49v2.68Z"/>
      <path class="cls-2" d="M431.3,19.74h.82l-2.47,10.01h-.81l2.46-10.01Z"/>
      <path class="cls-2" d="M435.48,28.3c-1.4,0-2.44-.99-2.44-2.56s1-2.54,2.44-2.54,2.37,1.01,2.37,2.36c0,.18,0,.32-.03.5h-3.94c.06,1,.77,1.55,1.6,1.55.74,0,1.21-.38,1.39-.91h.88c-.25.9-1.04,1.6-2.27,1.6ZM433.88,25.39h3.12c0-.96-.71-1.49-1.56-1.49-.8,0-1.47.53-1.56,1.49Z"/>
      <path class="cls-2" d="M440.96,23.2c.92,0,1.55.47,1.84.98v-.9h.83v4.93h-.83v-.92c-.3.53-.94,1-1.85,1-1.31,0-2.33-1.04-2.33-2.57s1.02-2.53,2.34-2.53ZM441.12,23.91c-.9,0-1.67.66-1.67,1.82s.77,1.84,1.67,1.84,1.67-.67,1.67-1.84-.77-1.83-1.67-1.83Z"/>
      <path class="cls-2" d="M446.75,28.3c-1.15,0-1.96-.63-2.02-1.53h.85c.04.48.47.84,1.16.84.65,0,1.01-.32,1.01-.73,0-1.1-2.92-.46-2.92-2.29,0-.76.71-1.38,1.81-1.38s1.81.58,1.86,1.55h-.82c-.04-.5-.41-.86-1.07-.86-.6,0-.96.29-.96.68,0,1.17,2.86.53,2.9,2.29,0,.81-.71,1.42-1.8,1.42Z"/>
      <path class="cls-2" d="M449.57,21.93c0-.32.24-.56.56-.56.3,0,.54.24.54.56s-.24.56-.54.56c-.32,0-.56-.24-.56-.56ZM449.7,23.28h.82v4.93h-.82v-4.93Z"/>
      <path class="cls-2" d="M454.05,28.3c-1.4,0-2.44-.99-2.44-2.56s1-2.54,2.44-2.54,2.37,1.01,2.37,2.36c0,.18,0,.32-.03.5h-3.94c.06,1,.76,1.55,1.6,1.55.74,0,1.21-.38,1.39-.91h.88c-.25.9-1.04,1.6-2.27,1.6ZM452.46,25.39h3.11c0-.96-.71-1.49-1.56-1.49-.8,0-1.47.53-1.56,1.49Z"/>
      <path class="cls-2" d="M459.24,28.3c-1.15,0-1.96-.63-2.02-1.53h.85c.04.48.47.84,1.16.84.65,0,1.01-.32,1.01-.73,0-1.1-2.92-.46-2.92-2.29,0-.76.71-1.38,1.81-1.38s1.81.58,1.86,1.55h-.82c-.04-.5-.41-.86-1.07-.86-.6,0-.96.29-.96.68,0,1.17,2.86.53,2.9,2.29,0,.81-.71,1.42-1.8,1.42Z"/>
      <path class="cls-2" d="M462.38,23.96h-.64v-.68h.64v-1.24h.82v1.24h1.29v.68h-1.29v2.91c0,.49.18.66.68.66h.6v.69h-.74c-.87,0-1.37-.36-1.37-1.35v-2.91Z"/>
    </g>
    <g>
      <path class="cls-2" d="M11.53,46.92h.82v3.97c0,1.15.62,1.65,1.55,1.65s1.54-.5,1.54-1.65v-3.97h.82v3.96c0,1.63-1.07,2.38-2.37,2.38s-2.36-.75-2.36-2.38v-3.96Z"/>
      <path class="cls-2" d="M19.37,53.27c-1.15,0-1.96-.63-2.02-1.53h.85c.04.48.47.84,1.16.84.65,0,1.01-.32,1.01-.73,0-1.1-2.92-.46-2.92-2.29,0-.76.71-1.38,1.81-1.38s1.81.58,1.86,1.55h-.82c-.04-.5-.41-.86-1.07-.86-.6,0-.96.29-.96.68,0,1.17,2.86.53,2.9,2.29,0,.81-.71,1.42-1.8,1.42Z"/>
      <path class="cls-2" d="M24.46,53.27c-1.4,0-2.44-.99-2.44-2.56s1-2.54,2.44-2.54,2.37,1.01,2.37,2.36c0,.18,0,.32-.03.5h-3.94c.06,1,.77,1.55,1.6,1.55.74,0,1.21-.38,1.39-.91h.88c-.25.9-1.04,1.6-2.27,1.6ZM22.86,50.37h3.11c0-.96-.71-1.49-1.56-1.49-.8,0-1.47.53-1.56,1.49Z"/>
      <path class="cls-2" d="M31.29,46.91l-.53,2.04h-.91l.86-2.04h.58ZM32.76,46.91l-.53,2.04h-.91l.86-2.04h.58Z"/>
      <path class="cls-2" d="M40.9,50.4c0-1.01-.54-1.52-1.35-1.52s-1.4.53-1.4,1.59v2.72h-.81v-2.79c0-1.01-.54-1.52-1.35-1.52s-1.4.53-1.4,1.59v2.72h-.82v-4.93h.82v.71c.32-.52.91-.8,1.56-.8.81,0,1.49.36,1.81,1.1.29-.71.99-1.1,1.75-1.1,1.13,0,2,.7,2,2.12v2.91h-.81v-2.79Z"/>
      <path class="cls-2" d="M45.2,53.27c-1.4,0-2.46-.99-2.46-2.56s1.1-2.54,2.49-2.54,2.49.98,2.49,2.54-1.12,2.56-2.53,2.56ZM45.2,52.55c.86,0,1.69-.58,1.69-1.84s-.82-1.83-1.67-1.83-1.65.59-1.65,1.83.77,1.84,1.62,1.84Z"/>
      <path class="cls-2" d="M49.63,53.19h-.82v-4.93h.82v.8c.28-.55.81-.89,1.59-.89v.85h-.22c-.78,0-1.38.35-1.38,1.49v2.68Z"/>
      <path class="cls-2" d="M54.3,53.27c-1.4,0-2.44-.99-2.44-2.56s1-2.54,2.44-2.54,2.37,1.01,2.37,2.36c0,.18,0,.32-.03.5h-3.94c.06,1,.77,1.55,1.6,1.55.74,0,1.21-.38,1.39-.91h.88c-.25.9-1.04,1.6-2.27,1.6ZM52.71,50.37h3.11c0-.96-.71-1.49-1.56-1.49-.8,0-1.47.53-1.56,1.49Z"/>
      <path class="cls-2" d="M57.42,48.96l.53-2.04h.91l-.86,2.04h-.58ZM58.89,48.96l.53-2.04h.91l-.86,2.04h-.58Z"/>
      <path class="cls-2" d="M65.7,48.18c.92,0,1.55.47,1.84.98v-.9h.83v4.93h-.83v-.92c-.3.53-.94,1-1.85,1-1.31,0-2.33-1.04-2.33-2.57s1.02-2.53,2.34-2.53ZM65.86,48.89c-.9,0-1.67.66-1.67,1.82s.77,1.84,1.67,1.84,1.67-.67,1.67-1.84-.77-1.83-1.67-1.83Z"/>
      <path class="cls-2" d="M73.36,50.4c0-1.01-.55-1.52-1.38-1.52s-1.41.52-1.41,1.58v2.73h-.82v-4.93h.82v.7c.32-.51.92-.79,1.58-.79,1.14,0,2.02.7,2.02,2.12v2.91h-.81v-2.79Z"/>
      <path class="cls-2" d="M77.55,48.18c.77,0,1.49.4,1.83.96v-2.61h.83v6.66h-.83v-.93c-.3.55-.94,1.01-1.84,1.01-1.32,0-2.34-1.04-2.34-2.57s1.02-2.53,2.35-2.53ZM77.71,48.89c-.9,0-1.67.66-1.67,1.82s.77,1.84,1.67,1.84,1.67-.67,1.67-1.84-.77-1.83-1.67-1.83Z"/>
      <path class="cls-2" d="M84.99,46.91l-.53,2.04h-.91l.86-2.04h.58ZM86.46,46.91l-.53,2.04h-.91l.86-2.04h.58Z"/>
      <path class="cls-2" d="M94.59,50.4c0-1.01-.54-1.52-1.35-1.52s-1.4.53-1.4,1.59v2.72h-.81v-2.79c0-1.01-.54-1.52-1.35-1.52s-1.4.53-1.4,1.59v2.72h-.82v-4.93h.82v.71c.32-.52.91-.8,1.56-.8.81,0,1.49.36,1.81,1.1.29-.71.99-1.1,1.75-1.1,1.13,0,2,.7,2,2.12v2.91h-.81v-2.79Z"/>
      <path class="cls-2" d="M98.89,53.27c-1.4,0-2.46-.99-2.46-2.56s1.1-2.54,2.49-2.54,2.49.98,2.49,2.54-1.12,2.56-2.53,2.56ZM98.89,52.55c.86,0,1.69-.58,1.69-1.84s-.82-1.83-1.67-1.83-1.65.59-1.65,1.83.77,1.84,1.62,1.84Z"/>
      <path class="cls-2" d="M104.25,53.27c-1.15,0-1.96-.63-2.02-1.53h.85c.04.48.47.84,1.16.84.65,0,1.01-.32,1.01-.73,0-1.1-2.92-.46-2.92-2.29,0-.76.71-1.38,1.81-1.38s1.81.58,1.86,1.55h-.82c-.04-.5-.41-.86-1.07-.86-.6,0-.96.29-.96.68,0,1.17,2.86.53,2.9,2.29,0,.81-.71,1.42-1.8,1.42Z"/>
      <path class="cls-2" d="M107.38,48.94h-.64v-.68h.64v-1.24h.82v1.24h1.29v.68h-1.29v2.91c0,.49.18.66.68.66h.6v.69h-.74c-.87,0-1.37-.36-1.37-1.35v-2.91Z"/>
      <path class="cls-2" d="M110.15,48.96l.53-2.04h.91l-.86,2.04h-.58ZM111.62,48.96l.53-2.04h.91l-.86,2.04h-.58Z"/>
      <path class="cls-2" d="M116.55,48.94h-.64v-.68h.64v-.35c0-1.1.54-1.59,1.8-1.59v.68c-.74,0-.98.27-.98.91v.35h1.04v.68h-1.04v4.26h-.82v-4.26Z"/>
      <path class="cls-2" d="M121.51,53.27c-1.4,0-2.46-.99-2.46-2.56s1.1-2.54,2.49-2.54,2.49.98,2.49,2.54-1.13,2.56-2.53,2.56ZM121.51,52.55c.86,0,1.69-.58,1.69-1.84s-.82-1.83-1.67-1.83-1.65.59-1.65,1.83.77,1.84,1.62,1.84Z"/>
      <path class="cls-2" d="M125.94,53.19h-.82v-4.93h.82v.8c.28-.55.81-.89,1.59-.89v.85h-.22c-.78,0-1.38.35-1.38,1.49v2.68Z"/>
      <path class="cls-2" d="M138,50.4c0-1.01-.54-1.52-1.35-1.52s-1.4.53-1.4,1.59v2.72h-.81v-2.79c0-1.01-.54-1.52-1.35-1.52s-1.4.53-1.4,1.59v2.72h-.82v-4.93h.82v.71c.32-.52.91-.8,1.56-.8.81,0,1.49.36,1.81,1.1.29-.71.99-1.1,1.75-1.1,1.13,0,2,.7,2,2.12v2.91h-.81v-2.79Z"/>
      <path class="cls-2" d="M144.52,53.19h-.82v-.73c-.31.51-.92.8-1.58.8-1.13,0-2.03-.7-2.03-2.12v-2.89h.81v2.78c0,1,.55,1.51,1.38,1.51s1.41-.52,1.41-1.58v-2.71h.82v4.93Z"/>
      <path class="cls-2" d="M145.91,46.53h.82v6.66h-.82v-6.66Z"/>
      <path class="cls-2" d="M148.3,48.94h-.64v-.68h.64v-1.24h.82v1.24h1.29v.68h-1.29v2.91c0,.49.18.66.68.66h.6v.69h-.74c-.87,0-1.37-.36-1.37-1.35v-2.91Z"/>
      <path class="cls-2" d="M151.26,46.9c0-.32.24-.56.56-.56.3,0,.54.24.54.56s-.24.56-.54.56c-.31,0-.56-.24-.56-.56ZM151.4,48.26h.82v4.93h-.82v-4.93Z"/>
      <path class="cls-2" d="M153.44,49.55h3.59v.69h-3.59v-.69Z"/>
      <path class="cls-2" d="M160.32,53.27c-1.15,0-1.96-.63-2.02-1.53h.85c.04.48.47.84,1.16.84.65,0,1.01-.32,1.01-.73,0-1.1-2.92-.46-2.92-2.29,0-.76.71-1.38,1.81-1.38s1.81.58,1.86,1.55h-.82c-.04-.5-.41-.86-1.07-.86-.6,0-.96.29-.96.68,0,1.17,2.86.53,2.9,2.29,0,.81-.71,1.42-1.8,1.42Z"/>
      <path class="cls-2" d="M166.67,48.26h.85l-2.97,7.26h-.85l.97-2.38-1.99-4.88h.91l1.55,4,1.53-4Z"/>
      <path class="cls-2" d="M168.34,46.53h.82v6.66h-.82v-6.66Z"/>
      <path class="cls-2" d="M170.55,46.53h.82v6.66h-.82v-6.66Z"/>
      <path class="cls-2" d="M174.8,48.18c.92,0,1.55.47,1.84.98v-.9h.83v4.93h-.83v-.92c-.3.53-.94,1-1.85,1-1.31,0-2.33-1.04-2.33-2.57s1.02-2.53,2.34-2.53ZM174.96,48.89c-.9,0-1.67.66-1.67,1.82s.77,1.84,1.67,1.84,1.67-.67,1.67-1.84-.77-1.83-1.67-1.83Z"/>
      <path class="cls-2" d="M181.51,48.18c1.33,0,2.34.99,2.34,2.53s-1.02,2.57-2.34,2.57c-.9,0-1.54-.45-1.85-.99v.91h-.82v-6.66h.82v2.65c.31-.55.97-1,1.85-1ZM181.34,48.89c-.89,0-1.67.68-1.67,1.83s.78,1.84,1.67,1.84,1.67-.68,1.67-1.84-.77-1.82-1.67-1.82Z"/>
      <path class="cls-2" d="M184.93,46.53h.82v6.66h-.82v-6.66Z"/>
      <path class="cls-2" d="M189.28,53.27c-1.4,0-2.44-.99-2.44-2.56s1-2.54,2.44-2.54,2.37,1.01,2.37,2.36c0,.18,0,.32-.03.5h-3.94c.06,1,.77,1.55,1.6,1.55.74,0,1.21-.38,1.39-.91h.88c-.25.9-1.04,1.6-2.27,1.6ZM187.69,50.37h3.11c0-.96-.71-1.49-1.56-1.49-.8,0-1.47.53-1.56,1.49Z"/>
      <path class="cls-2" d="M194.54,48.26h.84l1.13,4.14,1.22-4.14h.84l1.2,4.15,1.12-4.15h.81l-1.54,4.93h-.85l-1.19-3.92-1.19,3.92h-.85l-1.55-4.93Z"/>
      <path class="cls-2" d="M204.66,53.27c-1.4,0-2.46-.99-2.46-2.56s1.1-2.54,2.49-2.54,2.49.98,2.49,2.54-1.12,2.56-2.53,2.56ZM204.66,52.55c.86,0,1.69-.58,1.69-1.84s-.82-1.83-1.67-1.83-1.65.59-1.65,1.83.77,1.84,1.62,1.84Z"/>
      <path class="cls-2" d="M209.09,53.19h-.82v-4.93h.82v.8c.28-.55.81-.89,1.59-.89v.85h-.22c-.78,0-1.38.35-1.38,1.49v2.68Z"/>
      <path class="cls-2" d="M213.67,48.18c.77,0,1.49.4,1.83.96v-2.61h.83v6.66h-.83v-.93c-.3.55-.94,1.01-1.84,1.01-1.32,0-2.34-1.04-2.34-2.57s1.02-2.53,2.35-2.53ZM213.82,48.89c-.9,0-1.67.66-1.67,1.82s.77,1.84,1.67,1.84,1.67-.67,1.67-1.84-.77-1.83-1.67-1.83Z"/>
      <path class="cls-2" d="M219.46,53.27c-1.15,0-1.96-.63-2.02-1.53h.85c.04.48.47.84,1.16.84.65,0,1.01-.32,1.01-.73,0-1.1-2.92-.46-2.92-2.29,0-.76.71-1.38,1.81-1.38s1.81.58,1.86,1.55h-.82c-.04-.5-.41-.86-1.07-.86-.6,0-.96.29-.96.68,0,1.17,2.86.53,2.9,2.29,0,.81-.71,1.42-1.8,1.42Z"/>
      <path class="cls-2" d="M222.67,49.39c-.31,0-.56-.24-.56-.56s.24-.56.56-.56c.3,0,.54.24.54.56s-.24.56-.54.56ZM222.67,53.25c-.31,0-.56-.24-.56-.56s.24-.56.56-.56c.3,0,.54.24.54.56s-.24.56-.54.56Z"/>
    </g>
    <g>
      <path class="cls-2" d="M45.67,65.2c0-1.01-.54-1.52-1.35-1.52s-1.4.53-1.4,1.59v2.72h-.81v-2.79c0-1.01-.54-1.52-1.35-1.52s-1.4.53-1.4,1.59v2.72h-.82v-4.93h.82v.71c.32-.52.91-.8,1.56-.8.81,0,1.49.36,1.81,1.1.29-.71.99-1.1,1.75-1.1,1.13,0,2,.7,2,2.12v2.91h-.81v-2.79Z"/>
      <path class="cls-2" d="M49.97,68.07c-1.4,0-2.46-.99-2.46-2.56s1.1-2.54,2.49-2.54,2.49.98,2.49,2.54-1.12,2.56-2.53,2.56ZM49.97,67.35c.86,0,1.69-.58,1.69-1.84s-.82-1.83-1.67-1.83-1.65.59-1.65,1.83.77,1.84,1.62,1.84Z"/>
      <path class="cls-2" d="M54.4,67.99h-.82v-4.93h.82v.8c.28-.55.81-.89,1.59-.89v.85h-.22c-.78,0-1.38.35-1.38,1.5v2.68Z"/>
      <path class="cls-2" d="M59.07,68.07c-1.4,0-2.44-.99-2.44-2.56s1-2.54,2.44-2.54,2.37,1.01,2.37,2.36c0,.18,0,.32-.03.5h-3.94c.06,1,.77,1.55,1.6,1.55.74,0,1.21-.38,1.39-.91h.88c-.25.9-1.04,1.6-2.27,1.6ZM57.48,65.16h3.11c0-.96-.71-1.49-1.56-1.49-.8,0-1.47.53-1.56,1.49Z"/>
      <path class="cls-2" d="M66.96,62.97c.77,0,1.49.4,1.83.96v-2.61h.83v6.66h-.83v-.93c-.3.55-.94,1.01-1.84,1.01-1.32,0-2.34-1.04-2.34-2.57s1.02-2.53,2.35-2.53ZM67.11,63.69c-.9,0-1.67.66-1.67,1.82s.77,1.84,1.67,1.84,1.67-.67,1.67-1.84-.77-1.83-1.67-1.83Z"/>
      <path class="cls-2" d="M70.87,61.7c0-.32.24-.56.56-.56.3,0,.54.24.54.56s-.24.56-.54.56c-.31,0-.56-.24-.56-.56ZM71,63.06h.82v4.93h-.82v-4.93Z"/>
      <path class="cls-2" d="M73.37,63.73h-.64v-.68h.64v-.35c0-1.1.54-1.59,1.8-1.59v.68c-.74,0-.98.27-.98.91v.35h1.04v.68h-1.04v4.26h-.82v-4.26Z"/>
      <path class="cls-2" d="M76.33,63.73h-.64v-.68h.64v-.35c0-1.1.54-1.59,1.8-1.59v.68c-.74,0-.98.27-.98.91v.35h1.04v.68h-1.04v4.26h-.82v-4.26Z"/>
      <path class="cls-2" d="M79,61.7c0-.32.24-.56.56-.56.3,0,.54.24.54.56s-.24.56-.54.56c-.31,0-.56-.24-.56-.56ZM79.14,63.06h.82v4.93h-.82v-4.93Z"/>
      <path class="cls-2" d="M83.45,62.97c1.22,0,2.03.63,2.28,1.67h-.88c-.17-.59-.67-.97-1.4-.97-.9,0-1.57.64-1.57,1.85s.67,1.86,1.57,1.86c.73,0,1.22-.35,1.4-.97h.88c-.25.98-1.05,1.67-2.28,1.67-1.4,0-2.4-.99-2.4-2.56s1-2.54,2.4-2.54Z"/>
      <path class="cls-2" d="M91.19,67.99h-.82v-.73c-.31.51-.92.8-1.58.8-1.13,0-2.03-.7-2.03-2.12v-2.89h.81v2.78c0,1,.55,1.51,1.38,1.51s1.41-.52,1.41-1.58v-2.71h.82v4.93Z"/>
      <path class="cls-2" d="M92.58,61.33h.82v6.66h-.82v-6.66Z"/>
      <path class="cls-2" d="M94.97,63.73h-.64v-.68h.64v-1.24h.82v1.24h1.29v.68h-1.29v2.91c0,.49.18.66.68.66h.6v.69h-.74c-.87,0-1.37-.36-1.37-1.35v-2.91Z"/>
      <path class="cls-2" d="M100.31,59.51h.82l-2.47,10.01h-.81l2.46-10.01Z"/>
      <path class="cls-2" d="M109.47,65.2c0-1.01-.54-1.52-1.35-1.52s-1.4.53-1.4,1.59v2.72h-.81v-2.79c0-1.01-.54-1.52-1.35-1.52s-1.4.53-1.4,1.59v2.72h-.82v-4.93h.82v.71c.32-.52.91-.8,1.56-.8.81,0,1.49.36,1.81,1.1.29-.71.99-1.1,1.75-1.1,1.13,0,2,.7,2,2.12v2.91h-.81v-2.79Z"/>
      <path class="cls-2" d="M113.77,68.07c-1.4,0-2.46-.99-2.46-2.56s1.1-2.54,2.49-2.54,2.49.98,2.49,2.54-1.13,2.56-2.53,2.56ZM113.77,67.35c.86,0,1.69-.58,1.69-1.84s-.82-1.83-1.67-1.83-1.65.59-1.65,1.83.77,1.84,1.62,1.84Z"/>
      <path class="cls-2" d="M119.13,68.07c-1.15,0-1.96-.63-2.02-1.53h.85c.04.48.47.84,1.16.84.65,0,1.01-.32,1.01-.73,0-1.1-2.92-.46-2.92-2.29,0-.76.71-1.38,1.81-1.38s1.81.58,1.86,1.55h-.82c-.04-.5-.41-.86-1.07-.86-.6,0-.96.29-.96.68,0,1.17,2.86.53,2.9,2.29,0,.81-.71,1.42-1.8,1.42Z"/>
      <path class="cls-2" d="M122.26,63.73h-.64v-.68h.64v-1.24h.82v1.24h1.29v.68h-1.29v2.91c0,.49.18.66.68.66h.6v.69h-.74c-.87,0-1.37-.36-1.37-1.35v-2.91Z"/>
      <path class="cls-2" d="M129.8,62.97c.77,0,1.49.4,1.83.96v-2.61h.83v6.66h-.83v-.93c-.3.55-.94,1.01-1.84,1.01-1.32,0-2.34-1.04-2.34-2.57s1.02-2.53,2.35-2.53ZM129.95,63.69c-.9,0-1.67.66-1.67,1.82s.77,1.84,1.67,1.84,1.67-.67,1.67-1.84-.77-1.83-1.67-1.83Z"/>
      <path class="cls-2" d="M133.7,61.7c0-.32.24-.56.56-.56.3,0,.54.24.54.56s-.24.56-.54.56c-.31,0-.56-.24-.56-.56ZM133.84,63.06h.82v4.93h-.82v-4.93Z"/>
      <path class="cls-2" d="M136.21,63.73h-.64v-.68h.64v-.35c0-1.1.54-1.59,1.8-1.59v.68c-.74,0-.98.27-.98.91v.35h1.04v.68h-1.04v4.26h-.82v-4.26Z"/>
      <path class="cls-2" d="M139.17,63.73h-.64v-.68h.64v-.35c0-1.1.54-1.59,1.8-1.59v.68c-.74,0-.98.27-.98.91v.35h1.04v.68h-1.04v4.26h-.82v-4.26Z"/>
      <path class="cls-2" d="M141.84,61.7c0-.32.24-.56.56-.56.3,0,.54.24.54.56s-.24.56-.54.56c-.31,0-.56-.24-.56-.56ZM141.98,63.06h.82v4.93h-.82v-4.93Z"/>
      <path class="cls-2" d="M146.29,62.97c1.22,0,2.03.63,2.28,1.67h-.88c-.17-.59-.67-.97-1.4-.97-.9,0-1.57.64-1.57,1.85s.67,1.86,1.57,1.86c.73,0,1.22-.35,1.4-.97h.88c-.25.98-1.05,1.67-2.28,1.67-1.4,0-2.4-.99-2.4-2.56s1-2.54,2.4-2.54Z"/>
      <path class="cls-2" d="M154.03,67.99h-.82v-.73c-.31.51-.92.8-1.58.8-1.13,0-2.03-.7-2.03-2.12v-2.89h.81v2.78c0,1,.55,1.51,1.38,1.51s1.41-.52,1.41-1.58v-2.71h.82v4.93Z"/>
      <path class="cls-2" d="M155.41,61.33h.82v6.66h-.82v-6.66Z"/>
      <path class="cls-2" d="M157.81,63.73h-.64v-.68h.64v-1.24h.82v1.24h1.29v.68h-1.29v2.91c0,.49.18.66.68.66h.6v.69h-.74c-.87,0-1.37-.36-1.37-1.35v-2.91Z"/>
    </g>
    <g>
      <path class="cls-2" d="M229.67,65.2c0-1.01-.54-1.52-1.35-1.52s-1.4.53-1.4,1.59v2.72h-.81v-2.79c0-1.01-.54-1.52-1.35-1.52s-1.4.53-1.4,1.59v2.72h-.82v-4.93h.82v.71c.32-.52.91-.8,1.56-.8.81,0,1.49.36,1.81,1.1.29-.71.99-1.1,1.75-1.1,1.13,0,2,.7,2,2.12v2.91h-.81v-2.79Z"/>
      <path class="cls-2" d="M233.97,68.07c-1.4,0-2.46-.99-2.46-2.56s1.1-2.54,2.49-2.54,2.49.98,2.49,2.54-1.12,2.56-2.53,2.56ZM233.97,67.35c.86,0,1.69-.58,1.69-1.84s-.82-1.83-1.67-1.83-1.65.59-1.65,1.83.77,1.84,1.62,1.84Z"/>
      <path class="cls-2" d="M238.39,67.99h-.82v-4.93h.82v.8c.28-.55.81-.89,1.59-.89v.85h-.22c-.78,0-1.38.35-1.38,1.5v2.68Z"/>
      <path class="cls-2" d="M243.06,68.07c-1.4,0-2.44-.99-2.44-2.56s1-2.54,2.44-2.54,2.37,1.01,2.37,2.36c0,.18,0,.32-.03.5h-3.94c.06,1,.77,1.55,1.6,1.55.74,0,1.21-.38,1.39-.91h.88c-.25.9-1.04,1.6-2.27,1.6ZM241.47,65.16h3.11c0-.96-.71-1.49-1.56-1.49-.8,0-1.47.53-1.56,1.49Z"/>
      <path class="cls-2" d="M249.07,63.73h-.64v-.68h.64v-.35c0-1.1.54-1.59,1.8-1.59v.68c-.74,0-.98.27-.98.91v.35h1.04v.68h-1.04v4.26h-.82v-4.26Z"/>
      <path class="cls-2" d="M253.91,62.97c.92,0,1.55.47,1.84.98v-.9h.83v4.93h-.83v-.92c-.3.53-.94,1-1.85,1-1.31,0-2.33-1.04-2.33-2.57s1.02-2.53,2.34-2.53ZM254.07,63.69c-.9,0-1.67.66-1.67,1.82s.77,1.84,1.67,1.84,1.67-.67,1.67-1.84-.77-1.83-1.67-1.83Z"/>
      <path class="cls-2" d="M265.08,65.2c0-1.01-.54-1.52-1.35-1.52s-1.4.53-1.4,1.59v2.72h-.81v-2.79c0-1.01-.54-1.52-1.35-1.52s-1.4.53-1.4,1.59v2.72h-.82v-4.93h.82v.71c.32-.52.91-.8,1.56-.8.81,0,1.49.36,1.81,1.1.29-.71.99-1.1,1.75-1.1,1.13,0,2,.7,2,2.12v2.91h-.81v-2.79Z"/>
      <path class="cls-2" d="M269.38,68.07c-1.4,0-2.46-.99-2.46-2.56s1.1-2.54,2.49-2.54,2.49.98,2.49,2.54-1.13,2.56-2.53,2.56ZM269.38,67.35c.86,0,1.69-.58,1.69-1.84s-.82-1.83-1.67-1.83-1.65.59-1.65,1.83.77,1.84,1.62,1.84Z"/>
      <path class="cls-2" d="M277.36,67.99h-.82v-.73c-.32.51-.92.8-1.58.8-1.13,0-2.03-.7-2.03-2.12v-2.89h.81v2.78c0,1,.55,1.51,1.38,1.51s1.41-.52,1.41-1.58v-2.71h.82v4.93Z"/>
      <path class="cls-2" d="M280.5,68.07c-1.15,0-1.96-.63-2.02-1.53h.85c.04.48.47.84,1.16.84.65,0,1.01-.32,1.01-.73,0-1.1-2.92-.46-2.92-2.29,0-.76.71-1.38,1.81-1.38s1.81.58,1.86,1.55h-.82c-.04-.5-.41-.86-1.07-.86-.6,0-.96.29-.96.68,0,1.17,2.86.53,2.9,2.29,0,.81-.71,1.42-1.8,1.42Z"/>
      <path class="cls-2" d="M285.69,59.51h.82l-2.47,10.01h-.81l2.46-10.01Z"/>
      <path class="cls-2" d="M294.85,65.2c0-1.01-.54-1.52-1.35-1.52s-1.4.53-1.4,1.59v2.72h-.81v-2.79c0-1.01-.54-1.52-1.35-1.52s-1.4.53-1.4,1.59v2.72h-.82v-4.93h.82v.71c.32-.52.91-.8,1.56-.8.81,0,1.49.36,1.81,1.1.29-.71.99-1.1,1.75-1.1,1.13,0,2,.7,2,2.12v2.91h-.81v-2.79Z"/>
      <path class="cls-2" d="M299.15,68.07c-1.4,0-2.46-.99-2.46-2.56s1.1-2.54,2.49-2.54,2.49.98,2.49,2.54-1.12,2.56-2.53,2.56ZM299.15,67.35c.86,0,1.69-.58,1.69-1.84s-.82-1.83-1.67-1.83-1.65.59-1.65,1.83.77,1.84,1.62,1.84Z"/>
      <path class="cls-2" d="M304.51,68.07c-1.15,0-1.96-.63-2.02-1.53h.85c.04.48.47.84,1.16.84.65,0,1.01-.32,1.01-.73,0-1.1-2.92-.46-2.92-2.29,0-.76.71-1.38,1.81-1.38s1.81.58,1.86,1.55h-.82c-.04-.5-.41-.86-1.07-.86-.6,0-.96.29-.96.68,0,1.17,2.86.53,2.9,2.29,0,.81-.71,1.42-1.8,1.42Z"/>
      <path class="cls-2" d="M307.64,63.73h-.64v-.68h.64v-1.24h.82v1.24h1.29v.68h-1.29v2.91c0,.49.18.66.68.66h.6v.69h-.74c-.87,0-1.37-.36-1.37-1.35v-2.91Z"/>
      <path class="cls-2" d="M313.29,63.73h-.64v-.68h.64v-.35c0-1.1.54-1.59,1.8-1.59v.68c-.74,0-.98.27-.98.91v.35h1.04v.68h-1.04v4.26h-.82v-4.26Z"/>
      <path class="cls-2" d="M318.13,62.97c.92,0,1.55.47,1.84.98v-.9h.83v4.93h-.83v-.92c-.3.53-.94,1-1.85,1-1.31,0-2.33-1.04-2.33-2.57s1.02-2.53,2.34-2.53ZM318.3,63.69c-.9,0-1.67.66-1.67,1.82s.77,1.84,1.67,1.84,1.67-.67,1.67-1.84-.77-1.83-1.67-1.83Z"/>
      <path class="cls-2" d="M329.3,65.2c0-1.01-.54-1.52-1.35-1.52s-1.4.53-1.4,1.59v2.72h-.81v-2.79c0-1.01-.54-1.52-1.35-1.52s-1.4.53-1.4,1.59v2.72h-.82v-4.93h.82v.71c.32-.52.91-.8,1.56-.8.81,0,1.49.36,1.81,1.1.29-.71.99-1.1,1.75-1.1,1.13,0,2,.7,2,2.12v2.91h-.81v-2.79Z"/>
      <path class="cls-2" d="M333.6,68.07c-1.4,0-2.46-.99-2.46-2.56s1.1-2.54,2.49-2.54,2.49.98,2.49,2.54-1.12,2.56-2.53,2.56ZM333.6,67.35c.86,0,1.69-.58,1.69-1.84s-.82-1.83-1.67-1.83-1.65.59-1.65,1.83.76,1.84,1.62,1.84Z"/>
      <path class="cls-2" d="M341.59,67.99h-.82v-.73c-.32.51-.92.8-1.58.8-1.13,0-2.03-.7-2.03-2.12v-2.89h.81v2.78c0,1,.55,1.51,1.38,1.51s1.41-.52,1.41-1.58v-2.71h.82v4.93Z"/>
      <path class="cls-2" d="M344.72,68.07c-1.15,0-1.96-.63-2.02-1.53h.85c.04.48.47.84,1.16.84.65,0,1.01-.32,1.01-.73,0-1.1-2.92-.46-2.92-2.29,0-.76.71-1.38,1.81-1.38s1.81.58,1.86,1.55h-.82c-.04-.5-.41-.86-1.07-.86-.6,0-.96.29-.96.68,0,1.17,2.86.53,2.9,2.29,0,.81-.71,1.42-1.8,1.42Z"/>
    </g>
    <line class="cls-3" x1="8.28" y1="38.26" x2="528.72" y2="38.26"/>
  </g>
</svg>