<?xml version="1.0" encoding="UTF-8"?>
<svg id="Layer_2" data-name="Layer 2" xmlns="http://www.w3.org/2000/svg" viewBox="0 0 538.37 126.38">
  <defs>
    <style>
      .cls-1 {
        fill: #72adbb;
      }

      .cls-2 {
        stroke-dasharray: 4.38 4.38;
      }

      .cls-2, .cls-3, .cls-4, .cls-5, .cls-6 {
        fill: none;
        stroke: #2a5caa;
        stroke-miterlimit: 10;
        stroke-width: .75px;
      }

      .cls-7 {
        fill: #accad4;
      }

      .cls-8 {
        fill: #231f20;
      }

      .cls-9 {
        fill: #fff;
      }

      .cls-3 {
        stroke-dasharray: 4.44 4.44;
      }

      .cls-10 {
        fill: #2096a6;
      }

      .cls-4 {
        stroke-dasharray: 4.39 4.39;
      }

      .cls-5 {
        stroke-dasharray: 4.43 4.43;
      }
    </style>
  </defs>
  <g id="Layer_1-2" data-name="Layer 1">
    <g>
      <path class="cls-10" d="M538.37,116.59c0,5.41-1.88,9.79-4.2,9.79H6.42c-2.32,0-4.2-4.38-4.2-9.79V10.01C2.22,4.61,4.1.22,6.42.22h527.76c2.32,0,4.2,4.38,4.2,9.79v106.58Z"/>
      <path class="cls-9" d="M535.5,74.7c0,3.17-1.91,5.73-4.27,5.73H4.44c-2.36,0-4.27-2.57-4.27-5.73V12.28c0-3.17,1.91-5.73,4.27-5.73h526.79c2.36,0,4.27,2.57,4.27,5.73v62.42Z"/>
    </g>
    <g>
      <path class="cls-8" d="M12.84,51.97h-3.04l-.89,1.55h-.96l3.99-6.93h1.05l1.04,6.93h-.96l-.23-1.55ZM12.22,47.72l-2.01,3.52h2.52l-.51-3.52Z"/>
      <path class="cls-8" d="M19.8,50.43c.24-1.12-.25-1.69-1.17-1.69s-1.69.58-1.94,1.76l-.64,3.03h-.91l1.17-5.48h.91l-.17.78c.48-.57,1.21-.88,1.95-.88,1.27,0,2.07.78,1.74,2.35l-.69,3.23h-.9l.66-3.1Z"/>
      <path class="cls-8" d="M24.97,47.95c1,0,1.61.5,1.81,1.09l.21-1h.92l-1.19,5.6c-.32,1.51-1.56,2.58-3.17,2.58-1.44,0-2.31-.73-2.25-1.9h.9c.06.66.61,1.11,1.51,1.11.97,0,1.83-.62,2.08-1.79l.24-1.15c-.46.59-1.28,1.12-2.28,1.12-1.47,0-2.35-1.15-1.99-2.85.36-1.71,1.73-2.81,3.2-2.81ZM24.98,48.74c-1,0-2,.73-2.28,2.02s.41,2.05,1.41,2.05,2.02-.75,2.29-2.04c.27-1.27-.43-2.03-1.43-2.03Z"/>
      <path class="cls-8" d="M30.64,53.61c-1.56,0-2.48-1.1-2.11-2.84.37-1.73,1.71-2.82,3.31-2.82s2.39,1.12,2.07,2.62c-.04.2-.09.36-.15.55h-4.38c-.17,1.11.48,1.72,1.41,1.72.82,0,1.43-.42,1.75-1.01h.98c-.49,1-1.54,1.78-2.9,1.78ZM29.56,50.39h3.46c.24-1.07-.44-1.66-1.38-1.66-.89,0-1.75.59-2.08,1.66Z"/>
      <path class="cls-8" d="M36.06,46.12h.91l-1.57,7.4h-.91l1.57-7.4Z"/>
      <path class="cls-8" d="M40.39,47.95c1.02,0,1.61.52,1.81,1.09l.21-1h.92l-1.17,5.48h-.92l.22-1.02c-.46.59-1.28,1.11-2.28,1.11-1.46,0-2.34-1.15-1.98-2.85.36-1.71,1.73-2.81,3.2-2.81ZM40.4,48.74c-1,0-2,.73-2.28,2.02s.41,2.05,1.41,2.05,2.02-.75,2.29-2.04c.27-1.27-.43-2.03-1.43-2.03Z"/>
    </g>
    <g>
      <path class="cls-8" d="M69.29,49.09h.91l-1.17,5.48h-.91l1.17-5.48ZM69.46,47.58c.07-.35.4-.62.75-.62.33,0,.54.27.47.62-.07.35-.4.62-.73.62-.35,0-.56-.27-.49-.62Z"/>
      <path class="cls-8" d="M72.51,54.66c-1.28,0-2.03-.7-1.88-1.7h.94c-.06.53.32.93,1.09.93.72,0,1.2-.36,1.29-.81.26-1.22-3.13-.51-2.7-2.55.18-.84,1.11-1.53,2.33-1.53s1.87.65,1.7,1.72h-.91c.08-.55-.26-.95-.99-.95-.67,0-1.14.32-1.23.76-.28,1.3,3.05.59,2.68,2.55-.19.9-1.12,1.58-2.33,1.58Z"/>
    </g>
    <g>
      <path class="cls-8" d="M284.88,46.6h.98l1.34,5.72,3.77-5.72h.97l-1.47,6.92h-.91l1.1-5.16-3.4,5.16h-.64l-1.21-5.17-1.1,5.17h-.91l1.47-6.92Z"/>
      <path class="cls-8" d="M294.39,53.61c-1.55,0-2.5-1.1-2.12-2.84.37-1.73,1.82-2.82,3.37-2.82s2.54,1.09,2.17,2.82c-.37,1.74-1.85,2.84-3.41,2.84ZM294.56,52.81c.95,0,2.02-.65,2.31-2.04.29-1.38-.48-2.03-1.42-2.03s-1.97.65-2.26,2.03c-.3,1.39.42,2.04,1.37,2.04Z"/>
      <path class="cls-8" d="M299.99,46.12h.91l-1.57,7.4h-.91l1.57-7.4Z"/>
      <path class="cls-8" d="M302.45,46.12h.91l-1.57,7.4h-.91l1.57-7.4Z"/>
      <path class="cls-8" d="M308.28,48.04h.94l-5.01,8.06h-.94l1.64-2.64-1.06-5.42h1.01l.78,4.44,2.64-4.44Z"/>
    </g>
    <g>
      <path class="cls-8" d="M347.94,49.09h.91l-1.17,5.48h-.91l1.17-5.48ZM348.11,47.58c.07-.35.4-.62.75-.62.33,0,.54.27.47.62-.07.35-.4.62-.73.62-.35,0-.56-.27-.49-.62Z"/>
      <path class="cls-8" d="M351.16,54.66c-1.28,0-2.03-.7-1.88-1.7h.94c-.06.53.32.93,1.09.93.72,0,1.2-.36,1.29-.81.26-1.22-3.13-.51-2.7-2.55.18-.84,1.11-1.53,2.33-1.53s1.87.65,1.7,1.72h-.91c.08-.55-.26-.95-.99-.95-.67,0-1.14.32-1.23.76-.28,1.3,3.05.59,2.68,2.55-.19.9-1.12,1.58-2.33,1.58Z"/>
    </g>
    <g>
      <path class="cls-8" d="M122,53.61c-1.28,0-2.03-.7-1.88-1.7h.94c-.06.53.32.93,1.09.93.72,0,1.2-.36,1.29-.81.26-1.22-3.13-.51-2.7-2.55.18-.84,1.11-1.53,2.33-1.53s1.87.65,1.7,1.72h-.91c.08-.55-.26-.95-.99-.95-.67,0-1.14.32-1.23.76-.28,1.3,3.05.59,2.68,2.55-.19.9-1.12,1.58-2.33,1.58Z"/>
      <path class="cls-8" d="M126.87,46.12h.91l-.58,2.71c.48-.58,1.23-.89,2-.89,1.22,0,2.02.78,1.69,2.35l-.69,3.23h-.9l.66-3.1c.24-1.12-.25-1.69-1.17-1.69s-1.69.58-1.94,1.76l-.64,3.03h-.91l1.57-7.4Z"/>
      <path class="cls-8" d="M134.07,53.61c-1.55,0-2.5-1.1-2.12-2.84.37-1.73,1.82-2.82,3.37-2.82s2.54,1.09,2.17,2.82c-.37,1.74-1.85,2.84-3.41,2.84ZM134.24,52.81c.95,0,2.02-.65,2.31-2.04.29-1.38-.48-2.03-1.42-2.03s-1.97.65-2.26,2.03c-.3,1.39.42,2.04,1.37,2.04Z"/>
      <path class="cls-8" d="M139.01,53.52h-.91l1.17-5.48h.91l-.19.89c.44-.61,1.11-.99,1.98-.99l-.2.94h-.24c-.87,0-1.61.39-1.88,1.66l-.63,2.98Z"/>
      <path class="cls-8" d="M143.03,48.79h-.71l.16-.75h.71l.29-1.38h.91l-.29,1.38h1.43l-.16.75h-1.43l-.69,3.23c-.12.54.04.73.6.73h.67l-.16.77h-.82c-.97,0-1.43-.4-1.2-1.5l.69-3.23Z"/>
      <path class="cls-8" d="M147.82,53.61c-1.56,0-2.48-1.1-2.11-2.84.37-1.73,1.71-2.82,3.31-2.82s2.39,1.12,2.07,2.62c-.04.2-.09.36-.15.55h-4.38c-.17,1.11.48,1.72,1.41,1.72.82,0,1.43-.42,1.75-1.01h.98c-.49,1-1.54,1.78-2.9,1.78ZM146.74,50.39h3.46c.24-1.07-.44-1.66-1.38-1.66-.89,0-1.75.59-2.08,1.66Z"/>
      <path class="cls-8" d="M152.58,53.52h-.91l1.17-5.48h.91l-.19.89c.44-.61,1.11-.99,1.98-.99l-.2.94h-.24c-.87,0-1.61.39-1.88,1.66l-.63,2.98Z"/>
    </g>
    <g>
      <path class="cls-8" d="M193.53,49.84h-.71l.16-.75h.71l.29-1.38h.91l-.29,1.38h1.43l-.16.75h-1.43l-.69,3.23c-.11.54.04.73.6.73h.67l-.16.77h-.82c-.97,0-1.43-.4-1.2-1.5l.69-3.23Z"/>
      <path class="cls-8" d="M197.54,47.17h.91l-.58,2.71c.48-.58,1.23-.89,2-.89,1.22,0,2.02.78,1.69,2.35l-.69,3.23h-.9l.66-3.1c.24-1.12-.25-1.69-1.17-1.69s-1.69.58-1.94,1.76l-.64,3.03h-.91l1.57-7.4Z"/>
      <path class="cls-8" d="M205.81,49c1.02,0,1.61.52,1.81,1.09l.21-1h.92l-1.17,5.48h-.92l.22-1.02c-.46.59-1.28,1.11-2.29,1.11-1.46,0-2.34-1.15-1.98-2.85.36-1.71,1.73-2.81,3.2-2.81ZM205.82,49.79c-1,0-2,.73-2.28,2.02-.27,1.29.41,2.05,1.41,2.05s2.02-.75,2.29-2.04c.27-1.27-.43-2.03-1.43-2.03Z"/>
      <path class="cls-8" d="M213.79,51.47c.24-1.12-.25-1.69-1.17-1.69s-1.69.58-1.94,1.76l-.64,3.03h-.91l1.17-5.48h.91l-.17.78c.48-.57,1.21-.88,1.95-.88,1.27,0,2.07.78,1.74,2.35l-.69,3.23h-.9l.66-3.1Z"/>
    </g>
    <g>
      <path class="cls-8" d="M235.77,46.55h4.72l-.16.74h-1.9l-1.32,6.23h-.91l1.32-6.23h-1.91l.16-.74Z"/>
      <path class="cls-8" d="M242.5,53.61c-1.55,0-2.5-1.1-2.12-2.84.37-1.73,1.82-2.82,3.37-2.82s2.54,1.09,2.17,2.82c-.37,1.74-1.85,2.84-3.41,2.84ZM242.67,52.81c.95,0,2.02-.65,2.31-2.04.29-1.38-.48-2.03-1.42-2.03s-1.97.65-2.26,2.03c-.3,1.39.42,2.04,1.37,2.04Z"/>
      <path class="cls-8" d="M251.2,50.43c.24-1.12-.25-1.69-1.17-1.69s-1.69.58-1.94,1.76l-.64,3.03h-.91l1.17-5.48h.91l-.17.78c.48-.57,1.21-.88,1.95-.88,1.27,0,2.07.78,1.74,2.35l-.69,3.23h-.9l.66-3.1Z"/>
      <path class="cls-8" d="M257.87,48.04h.94l-5.01,8.06h-.94l1.64-2.64-1.06-5.42h1.01l.78,4.44,2.64-4.44Z"/>
      <path class="cls-8" d="M258.84,53.59c-.35,0-.56-.27-.49-.62.07-.35.4-.62.75-.62.33,0,.54.27.47.62-.07.35-.4.62-.73.62Z"/>
    </g>
    <g>
      <path class="cls-7" d="M535.52,40.26c0,.56-1.88,1.02-4.19,1.02H4.21C1.89,41.28.01,40.82.01,40.26v-18.63c0-.56,1.88-1.02,4.19-1.02h527.12c2.32,0,4.19.46,4.19,1.02v18.63Z"/>
      <path class="cls-1" d="M535.37,21.5c0,.62-1.88,1.12-4.19,1.12H4.2C1.89,22.61.01,22.11.01,21.5V1.12C.01.5,1.89,0,4.2,0h526.98c2.32,0,4.19.5,4.19,1.12v20.38Z"/>
    </g>
    <g>
      <path class="cls-9" d="M18.87,6.15c2,0,3.27,1.13,3.37,2.95h-2.25c-.19-.72-.75-1.08-1.53-1.08-1.26,0-2.32.94-2.64,2.42s.35,2.42,1.61,2.42c.78,0,1.49-.36,1.99-1.08h2.25c-.87,1.82-2.62,2.94-4.62,2.94-2.48,0-3.86-1.76-3.32-4.28.54-2.52,2.66-4.3,5.15-4.3Z"/>
      <path class="cls-9" d="M25.23,14.77c-1.97,0-3.17-1.32-2.72-3.44s2.26-3.44,4.21-3.44,3.2,1.32,2.75,3.44-2.27,3.44-4.23,3.44ZM25.6,12.99c.73,0,1.53-.54,1.77-1.67.24-1.14-.32-1.67-1.04-1.67s-1.5.53-1.75,1.67c-.24,1.13.27,1.67,1.01,1.67Z"/>
      <path class="cls-9" d="M39.73,11.03c.19-.88-.22-1.36-1-1.36s-1.38.48-1.57,1.36l-.77,3.64h-2.04l.77-3.64c.19-.88-.22-1.36-1-1.36s-1.38.48-1.57,1.36l-.77,3.64h-2.05l1.42-6.7h2.05l-.18.84c.51-.54,1.27-.91,2.15-.91,1.01,0,1.73.44,2.01,1.25.59-.71,1.55-1.25,2.52-1.25,1.66,0,2.5,1.06,2.12,2.86l-.83,3.91h-2.04l.77-3.64Z"/>
      <path class="cls-9" d="M47.9,7.88c1.64,0,2.67,1.32,2.22,3.43-.45,2.11-2.04,3.46-3.68,3.46-.98,0-1.59-.47-1.84-1.03l-.88,4.13h-2.05l2.1-9.89h2.05l-.2.95c.5-.59,1.3-1.04,2.28-1.04ZM46.9,9.67c-.77,0-1.59.59-1.82,1.66-.23,1.07.34,1.66,1.11,1.66s1.6-.6,1.83-1.67c.23-1.07-.35-1.64-1.12-1.64Z"/>
      <path class="cls-9" d="M54.36,7.88c1,0,1.61.46,1.84,1.04l.2-.95h2.05l-1.42,6.7h-2.05l.2-.95c-.5.59-1.3,1.04-2.3,1.04-1.63,0-2.65-1.34-2.2-3.46.45-2.11,2.04-3.43,3.68-3.43ZM54.58,9.67c-.77,0-1.59.58-1.81,1.64-.23,1.07.34,1.67,1.11,1.67s1.59-.59,1.81-1.66c.23-1.07-.33-1.66-1.11-1.66Z"/>
      <path class="cls-9" d="M60.47,14.67h-2.05l1.42-6.7h2.05l-.24,1.12c.62-.71,1.45-1.19,2.35-1.19l-.46,2.17h-.56c-.97,0-1.61.34-1.85,1.49l-.66,3.11Z"/>
      <path class="cls-9" d="M67.42,7.88c1,0,1.61.46,1.84,1.04l.2-.95h2.05l-1.42,6.7h-2.05l.2-.95c-.5.59-1.3,1.04-2.3,1.04-1.63,0-2.65-1.34-2.2-3.46.45-2.11,2.04-3.43,3.68-3.43ZM67.64,9.67c-.77,0-1.59.58-1.81,1.64-.23,1.07.34,1.67,1.11,1.67s1.59-.59,1.81-1.66c.23-1.07-.33-1.66-1.11-1.66Z"/>
      <path class="cls-9" d="M72.86,9.68h-.82l.36-1.7h.82l.35-1.63h2.05l-.35,1.63h1.34l-.36,1.7h-1.34l-.57,2.69c-.08.4.05.56.5.56h.73l-.37,1.74h-1.04c-1.39,0-2.24-.59-1.87-2.33l.57-2.66Z"/>
      <path class="cls-9" d="M77.66,7.97h2.05l-1.42,6.7h-2.05l1.42-6.7ZM77.85,6.17c.13-.62.73-1.12,1.46-1.12s1.11.49.97,1.12c-.13.61-.73,1.1-1.45,1.1s-1.12-.49-.99-1.1Z"/>
      <path class="cls-9" d="M82.64,7.97l.44,4.78,2.47-4.78h2.18l-3.8,6.7h-2.53l-.95-6.7h2.19Z"/>
      <path class="cls-9" d="M90.01,14.77c-1.97,0-3.1-1.32-2.65-3.44s2.12-3.44,4.11-3.44,3.06,1.29,2.62,3.33c-.04.19-.1.4-.16.6h-4.64c-.11.88.34,1.28,1,1.28.58,0,.96-.29,1.21-.65h2.18c-.6,1.31-2,2.32-3.67,2.32ZM89.55,10.67h2.57c.16-.73-.33-1.15-1.01-1.15s-1.27.41-1.55,1.15Z"/>
      <path class="cls-9" d="M97.03,14.77c-1.79,0-2.78-1-2.59-2.29h2.03c-.05.47.3.78.87.78.53,0,.85-.24.92-.54.23-1.08-3.58-.3-3.06-2.76.24-1.14,1.41-2.08,3.16-2.08s2.48.96,2.33,2.28h-1.89c.04-.46-.25-.75-.82-.75-.48,0-.79.19-.85.52-.23,1.07,3.56.31,3.06,2.81-.25,1.16-1.46,2.04-3.14,2.04Z"/>
      <path class="cls-9" d="M107.33,7.88c1,0,1.61.46,1.84,1.04l.2-.95h2.05l-1.42,6.7h-2.05l.2-.95c-.5.59-1.3,1.04-2.3,1.04-1.63,0-2.65-1.34-2.2-3.46.45-2.11,2.04-3.43,3.68-3.43ZM107.55,9.67c-.77,0-1.59.58-1.81,1.64-.23,1.07.34,1.67,1.11,1.67s1.59-.59,1.81-1.66c.23-1.07-.33-1.66-1.11-1.66Z"/>
      <path class="cls-9" d="M116.78,11.03c.19-.91-.2-1.42-.98-1.42s-1.39.5-1.58,1.42l-.77,3.64h-2.05l1.42-6.7h2.05l-.19.89c.53-.56,1.33-.96,2.23-.96,1.55,0,2.35,1.06,1.97,2.86l-.83,3.91h-2.04l.77-3.64Z"/>
      <path class="cls-9" d="M123.34,7.88c.89,0,1.57.41,1.85,1.02l.66-3.11h2.05l-1.89,8.88h-2.05l.2-.96c-.5.61-1.3,1.06-2.29,1.06-1.64,0-2.67-1.34-2.22-3.46.45-2.11,2.04-3.43,3.68-3.43ZM123.56,9.67c-.77,0-1.59.58-1.81,1.64-.23,1.07.34,1.67,1.11,1.67s1.59-.59,1.81-1.66c.23-1.07-.33-1.66-1.11-1.66Z"/>
      <path class="cls-9" d="M132.86,14.75c-1.81,0-3.04-.9-2.73-2.6h2.18c-.08.65.26.96.84.96s1.05-.3,1.15-.79c.33-1.56-4.06-.72-3.4-3.71.34-1.6,1.83-2.48,3.6-2.48s2.88.91,2.62,2.52h-2.22c.08-.54-.24-.86-.79-.88-.49-.01-.92.24-1.03.77-.31,1.46,3.99.8,3.39,3.62-.3,1.42-1.66,2.59-3.62,2.59Z"/>
      <path class="cls-9" d="M143.71,14.67h-2.05l.19-.91c-.53.58-1.34.98-2.24.98-1.55,0-2.36-1.07-1.98-2.86l.83-3.91h2.04l-.77,3.64c-.19.91.21,1.42.98,1.42s1.4-.5,1.6-1.42l.77-3.64h2.05l-1.42,6.7Z"/>
      <path class="cls-9" d="M150.64,7.88c1.64,0,2.67,1.32,2.22,3.43-.45,2.11-2.04,3.46-3.68,3.46-.98,0-1.59-.47-1.84-1.03l-.88,4.13h-2.05l2.1-9.89h2.05l-.2.95c.5-.59,1.3-1.04,2.28-1.04ZM149.65,9.67c-.77,0-1.59.59-1.82,1.66-.23,1.07.34,1.66,1.11,1.66s1.6-.6,1.83-1.67c.23-1.07-.35-1.64-1.12-1.64Z"/>
      <path class="cls-9" d="M156.07,14.77c-1.97,0-3.1-1.32-2.65-3.44s2.12-3.44,4.11-3.44,3.06,1.29,2.62,3.33c-.04.19-.1.4-.16.6h-4.64c-.11.88.34,1.28,1,1.28.58,0,.96-.29,1.21-.65h2.18c-.6,1.31-2,2.32-3.67,2.32ZM155.61,10.67h2.57c.16-.73-.33-1.15-1.01-1.15s-1.27.41-1.55,1.15Z"/>
      <path class="cls-9" d="M162.44,14.67h-2.05l1.42-6.7h2.05l-.24,1.12c.62-.71,1.45-1.19,2.35-1.19l-.46,2.17h-.56c-.97,0-1.61.34-1.85,1.49l-.66,3.11Z"/>
      <path class="cls-9" d="M167.29,5.79h2.05l-1.89,8.88h-2.05l1.89-8.88Z"/>
      <path class="cls-9" d="M172.83,7.88c1,0,1.61.46,1.84,1.04l.2-.95h2.05l-1.42,6.7h-2.05l.2-.95c-.5.59-1.3,1.04-2.3,1.04-1.63,0-2.65-1.34-2.2-3.46.45-2.11,2.04-3.43,3.68-3.43ZM173.05,9.67c-.77,0-1.59.58-1.81,1.64-.23,1.07.34,1.67,1.11,1.67s1.59-.59,1.81-1.66c.23-1.07-.33-1.66-1.11-1.66Z"/>
      <path class="cls-9" d="M178.26,9.68h-.82l.36-1.7h.82l.35-1.63h2.05l-.35,1.63h1.34l-.36,1.7h-1.34l-.57,2.69c-.08.4.05.56.5.56h.73l-.37,1.74h-1.04c-1.39,0-2.24-.59-1.87-2.33l.57-2.66Z"/>
      <path class="cls-9" d="M183.07,7.97h2.05l-1.42,6.7h-2.05l1.42-6.7ZM183.26,6.17c.13-.62.73-1.12,1.46-1.12s1.11.49.97,1.12c-.13.61-.73,1.1-1.45,1.1s-1.12-.49-.99-1.1Z"/>
      <path class="cls-9" d="M188.05,7.97l.44,4.78,2.47-4.78h2.18l-3.8,6.7h-2.53l-.95-6.7h2.19Z"/>
      <path class="cls-9" d="M195.42,14.77c-1.97,0-3.1-1.32-2.65-3.44s2.12-3.44,4.11-3.44,3.06,1.29,2.62,3.33c-.04.19-.1.4-.16.6h-4.64c-.11.88.34,1.28,1,1.28.58,0,.96-.29,1.21-.65h2.18c-.6,1.31-2,2.32-3.67,2.32ZM194.96,10.67h2.57c.16-.73-.33-1.15-1.01-1.15s-1.27.41-1.55,1.15Z"/>
      <path class="cls-9" d="M202.45,14.77c-1.79,0-2.78-1-2.59-2.29h2.03c-.05.47.3.78.87.78.53,0,.85-.24.92-.54.23-1.08-3.58-.3-3.06-2.76.24-1.14,1.41-2.08,3.16-2.08s2.48.96,2.33,2.28h-1.89c.04-.46-.25-.75-.82-.75-.48,0-.79.19-.85.52-.23,1.07,3.56.31,3.06,2.81-.25,1.16-1.46,2.04-3.14,2.04Z"/>
      <path class="cls-9" d="M210.11,6.25h2.2l-.09,6.13,2.8-6.13h2.25l.14,6.13,2.53-6.13h2.21l-3.98,8.42h-2.48l-.17-5.54-2.57,5.54h-2.48l-.34-8.42Z"/>
      <path class="cls-9" d="M222.7,7.97h2.05l-1.42,6.7h-2.05l1.42-6.7ZM222.89,6.17c.13-.62.73-1.12,1.46-1.12s1.11.49.97,1.12c-.13.61-.73,1.1-1.45,1.1s-1.12-.49-.99-1.1Z"/>
      <path class="cls-9" d="M226.1,9.68h-.82l.36-1.7h.82l.35-1.63h2.05l-.35,1.63h1.34l-.36,1.7h-1.34l-.57,2.69c-.08.4.05.56.5.56h.73l-.37,1.74h-1.04c-1.39,0-2.24-.59-1.87-2.33l.57-2.66Z"/>
      <path class="cls-9" d="M231.36,5.79h2.05l-.66,3.08c.53-.58,1.35-.97,2.27-.97,1.52,0,2.32,1.06,1.94,2.86l-.83,3.91h-2.04l.77-3.64c.19-.91-.2-1.42-.98-1.42s-1.39.5-1.58,1.42l-.77,3.64h-2.05l1.89-8.88Z"/>
      <path class="cls-9" d="M243.84,14.75c-2.39,0-3.95-1.79-3.41-4.32.54-2.53,2.86-4.31,5.25-4.31s3.93,1.78,3.39,4.31c-.54,2.53-2.84,4.32-5.22,4.32ZM244.24,12.88c1.34,0,2.42-.97,2.74-2.45.32-1.5-.36-2.45-1.7-2.45s-2.43.95-2.75,2.45c-.31,1.48.34,2.45,1.71,2.45Z"/>
      <path class="cls-9" d="M254.59,11.03c.19-.91-.2-1.42-.98-1.42s-1.39.5-1.58,1.42l-.77,3.64h-2.05l1.42-6.7h2.05l-.19.89c.53-.56,1.33-.96,2.23-.96,1.55,0,2.35,1.06,1.97,2.86l-.83,3.91h-2.04l.77-3.64Z"/>
      <path class="cls-9" d="M260.12,14.77c-1.97,0-3.1-1.32-2.65-3.44s2.12-3.44,4.11-3.44,3.06,1.29,2.62,3.33c-.04.19-.1.4-.16.6h-4.64c-.11.88.34,1.28,1,1.28.58,0,.96-.29,1.21-.65h2.18c-.6,1.31-2,2.32-3.67,2.32ZM259.66,10.67h2.57c.16-.73-.33-1.15-1.01-1.15s-1.27.41-1.55,1.15Z"/>
      <path class="cls-9" d="M265.41,9.61h5.28l-.36,1.7h-5.28l.36-1.7Z"/>
      <path class="cls-9" d="M274.01,14.77c-1.79,0-2.78-1-2.59-2.29h2.03c-.05.47.3.78.87.78.53,0,.85-.24.92-.54.23-1.08-3.58-.3-3.06-2.76.24-1.14,1.41-2.08,3.16-2.08s2.48.96,2.33,2.28h-1.89c.04-.46-.25-.75-.82-.75-.48,0-.78.19-.85.52-.23,1.07,3.56.31,3.06,2.81-.25,1.16-1.46,2.04-3.14,2.04Z"/>
      <path class="cls-9" d="M283.94,7.97h2.22l-6.3,9.88h-2.21l2.26-3.41-1.35-6.47h2.29l.66,4.19,2.42-4.19Z"/>
      <path class="cls-9" d="M287.26,5.79h2.05l-1.89,8.88h-2.05l1.89-8.88Z"/>
      <path class="cls-9" d="M290.69,5.79h2.05l-1.89,8.88h-2.05l1.89-8.88Z"/>
      <path class="cls-9" d="M296.22,7.88c1,0,1.61.46,1.84,1.04l.2-.95h2.05l-1.42,6.7h-2.05l.2-.95c-.5.59-1.3,1.04-2.3,1.04-1.63,0-2.65-1.34-2.2-3.46.45-2.11,2.04-3.43,3.68-3.43ZM296.44,9.67c-.77,0-1.59.58-1.81,1.64-.23,1.07.34,1.67,1.11,1.67s1.59-.59,1.81-1.66c.23-1.07-.33-1.66-1.11-1.66Z"/>
      <path class="cls-9" d="M305.83,7.88c1.66,0,2.67,1.32,2.22,3.43-.45,2.11-2.04,3.46-3.68,3.46-.98,0-1.6-.44-1.84-1.03l-.2.94h-2.05l1.89-8.88h2.05l-.67,3.13c.5-.6,1.32-1.04,2.28-1.04ZM304.84,9.67c-.77,0-1.59.59-1.82,1.66-.23,1.07.34,1.66,1.11,1.66s1.6-.6,1.83-1.67c.23-1.07-.35-1.64-1.12-1.64Z"/>
      <path class="cls-9" d="M310.2,5.79h2.05l-1.89,8.88h-2.05l1.89-8.88Z"/>
      <path class="cls-9" d="M314.69,14.77c-1.97,0-3.1-1.32-2.65-3.44s2.12-3.44,4.11-3.44,3.06,1.29,2.62,3.33c-.04.19-.1.4-.16.6h-4.64c-.11.88.34,1.28,1,1.28.58,0,.96-.29,1.21-.65h2.18c-.6,1.31-2,2.32-3.67,2.32ZM314.23,10.67h2.57c.16-.73-.33-1.15-1.01-1.15s-1.27.41-1.55,1.15Z"/>
      <path class="cls-9" d="M325.44,7.88c1,0,1.61.46,1.84,1.04l.2-.95h2.05l-1.42,6.7h-2.05l.2-.95c-.5.59-1.3,1.04-2.3,1.04-1.63,0-2.65-1.34-2.2-3.46.45-2.11,2.04-3.43,3.68-3.43ZM325.66,9.67c-.77,0-1.59.58-1.81,1.64-.23,1.07.34,1.67,1.11,1.67s1.59-.59,1.81-1.66c.23-1.07-.33-1.66-1.11-1.66Z"/>
      <path class="cls-9" d="M334.88,11.03c.19-.91-.2-1.42-.98-1.42s-1.39.5-1.58,1.42l-.77,3.64h-2.05l1.42-6.7h2.05l-.19.89c.53-.56,1.33-.96,2.23-.96,1.55,0,2.35,1.06,1.97,2.86l-.83,3.91h-2.04l.77-3.64Z"/>
      <path class="cls-9" d="M341.46,7.88c.89,0,1.57.41,1.85,1.02l.66-3.11h2.05l-1.89,8.88h-2.05l.2-.96c-.5.61-1.3,1.06-2.29,1.06-1.64,0-2.67-1.34-2.22-3.46.45-2.11,2.04-3.43,3.68-3.43ZM341.68,9.67c-.77,0-1.59.58-1.81,1.64-.23,1.07.34,1.67,1.11,1.67s1.59-.59,1.81-1.66c.23-1.07-.33-1.66-1.11-1.66Z"/>
      <path class="cls-9" d="M350.98,14.75c-1.81,0-3.04-.9-2.73-2.6h2.18c-.08.65.26.96.84.96s1.05-.3,1.15-.79c.33-1.56-4.06-.72-3.4-3.71.34-1.6,1.83-2.48,3.6-2.48s2.88.91,2.62,2.52h-2.22c.08-.54-.24-.86-.79-.88-.49-.01-.92.24-1.03.77-.31,1.46,3.99.8,3.39,3.62-.3,1.42-1.66,2.59-3.62,2.59Z"/>
      <path class="cls-9" d="M358.25,14.77c-1.97,0-3.17-1.32-2.72-3.44s2.26-3.44,4.21-3.44,3.2,1.32,2.75,3.44-2.27,3.44-4.23,3.44ZM358.62,12.99c.73,0,1.53-.54,1.77-1.67.24-1.14-.32-1.67-1.04-1.67s-1.5.53-1.75,1.67c-.24,1.13.27,1.67,1.01,1.67Z"/>
      <path class="cls-9" d="M372.74,11.03c.19-.88-.22-1.36-1-1.36s-1.38.48-1.57,1.36l-.77,3.64h-2.04l.77-3.64c.19-.88-.22-1.36-1-1.36s-1.38.48-1.57,1.36l-.77,3.64h-2.05l1.42-6.7h2.05l-.18.84c.51-.54,1.27-.91,2.15-.91,1.01,0,1.73.44,2.01,1.25.59-.71,1.55-1.25,2.52-1.25,1.66,0,2.5,1.06,2.12,2.86l-.83,3.91h-2.04l.77-3.64Z"/>
      <path class="cls-9" d="M378.3,14.77c-1.97,0-3.1-1.32-2.65-3.44s2.12-3.44,4.11-3.44,3.06,1.29,2.62,3.33c-.04.19-.1.4-.16.6h-4.64c-.11.88.34,1.28,1,1.28.58,0,.96-.29,1.21-.65h2.18c-.6,1.31-2,2.32-3.67,2.32ZM377.84,10.67h2.57c.16-.73-.33-1.15-1.01-1.15s-1.27.41-1.55,1.15Z"/>
      <path class="cls-9" d="M386.4,6.25h6.51l-.35,1.64h-2.23l-1.44,6.78h-2.05l1.44-6.78h-2.23l.35-1.64Z"/>
      <path class="cls-9" d="M392.78,7.97h2.05l-.07,4.79,2.15-4.79h2.17l.13,4.76,1.95-4.76h1.93l-3.23,6.7h-2.27l-.13-4.34-2.01,4.34h-2.25l-.4-6.7Z"/>
      <path class="cls-9" d="M405.36,14.77c-1.97,0-3.17-1.32-2.72-3.44s2.26-3.44,4.21-3.44,3.2,1.32,2.75,3.44-2.27,3.44-4.23,3.44ZM405.74,12.99c.73,0,1.53-.54,1.77-1.67.24-1.14-.32-1.67-1.04-1.67s-1.5.53-1.75,1.67c-.24,1.13.27,1.67,1.01,1.67Z"/>
      <path class="cls-9" d="M410.82,9.61h5.28l-.36,1.7h-5.28l.36-1.7Z"/>
      <path class="cls-9" d="M419.42,14.77c-1.79,0-2.78-1-2.59-2.29h2.03c-.05.47.3.78.87.78.53,0,.85-.24.92-.54.23-1.08-3.58-.3-3.06-2.76.24-1.14,1.41-2.08,3.16-2.08s2.48.96,2.33,2.28h-1.89c.04-.46-.25-.75-.82-.75-.48,0-.79.19-.85.52-.23,1.07,3.56.31,3.06,2.81-.25,1.16-1.46,2.04-3.14,2.04Z"/>
      <path class="cls-9" d="M429.35,7.97h2.22l-6.3,9.88h-2.21l2.26-3.41-1.35-6.47h2.29l.66,4.19,2.42-4.19Z"/>
      <path class="cls-9" d="M432.67,5.79h2.05l-1.89,8.88h-2.05l1.89-8.88Z"/>
      <path class="cls-9" d="M436.1,5.79h2.05l-1.89,8.88h-2.05l1.89-8.88Z"/>
      <path class="cls-9" d="M441.63,7.88c1,0,1.61.46,1.84,1.04l.2-.95h2.05l-1.42,6.7h-2.05l.2-.95c-.5.59-1.3,1.04-2.3,1.04-1.63,0-2.65-1.34-2.2-3.46.45-2.11,2.04-3.43,3.68-3.43ZM441.85,9.67c-.77,0-1.59.58-1.81,1.64-.23,1.07.34,1.67,1.11,1.67s1.59-.59,1.81-1.66c.23-1.07-.33-1.66-1.11-1.66Z"/>
      <path class="cls-9" d="M451.24,7.88c1.66,0,2.67,1.32,2.22,3.43-.45,2.11-2.04,3.46-3.68,3.46-.98,0-1.6-.44-1.84-1.03l-.2.94h-2.05l1.89-8.88h2.05l-.67,3.13c.5-.6,1.32-1.04,2.28-1.04ZM450.25,9.67c-.77,0-1.59.59-1.82,1.66-.23,1.07.34,1.66,1.11,1.66s1.6-.6,1.83-1.67c.23-1.07-.35-1.64-1.12-1.64Z"/>
      <path class="cls-9" d="M455.61,5.79h2.05l-1.89,8.88h-2.05l1.89-8.88Z"/>
      <path class="cls-9" d="M460.11,14.77c-1.97,0-3.1-1.32-2.65-3.44s2.12-3.44,4.11-3.44,3.06,1.29,2.62,3.33c-.04.19-.1.4-.16.6h-4.64c-.11.88.34,1.28,1,1.28.58,0,.96-.29,1.21-.65h2.18c-.6,1.31-2,2.32-3.67,2.32ZM459.65,10.67h2.57c.16-.73-.33-1.15-1.01-1.15s-1.27.41-1.55,1.15Z"/>
      <path class="cls-9" d="M472.44,13.18h-3.14l-.82,1.49h-2.15l4.84-8.42h2.38l1.26,8.42h-2.17l-.19-1.49ZM471.86,8.51l-1.69,3.08h2.08l-.39-3.08Z"/>
      <path class="cls-9" d="M479.6,7.88c.89,0,1.57.41,1.85,1.02l.66-3.11h2.05l-1.89,8.88h-2.05l.2-.96c-.5.61-1.3,1.06-2.29,1.06-1.64,0-2.67-1.34-2.22-3.46.45-2.11,2.04-3.43,3.68-3.43ZM479.82,9.67c-.77,0-1.59.58-1.81,1.64-.23,1.07.34,1.67,1.11,1.67s1.59-.59,1.81-1.66c.23-1.07-.33-1.66-1.11-1.66Z"/>
      <path class="cls-9" d="M487.13,7.97l-1.61,7.56c-.37,1.74-1.47,2.33-2.86,2.33h-.8l.37-1.74h.49c.46,0,.66-.17.74-.56l1.61-7.58h2.05ZM485.26,6.17c.13-.62.73-1.12,1.46-1.12s1.11.49.97,1.12c-.13.61-.73,1.1-1.45,1.1s-1.12-.49-.99-1.1Z"/>
      <path class="cls-9" d="M490.03,14.77c-1.97,0-3.1-1.32-2.65-3.44s2.12-3.44,4.11-3.44,3.06,1.29,2.62,3.33c-.04.19-.1.4-.16.6h-4.64c-.11.88.34,1.28,1,1.28.58,0,.96-.29,1.21-.65h2.18c-.6,1.31-2,2.32-3.67,2.32ZM489.57,10.67h2.57c.16-.73-.33-1.15-1.01-1.15s-1.27.41-1.55,1.15Z"/>
      <path class="cls-9" d="M498.75,7.88c1.68,0,2.67.92,2.68,2.52h-2.18c-.07-.47-.34-.77-.9-.77-.73,0-1.36.58-1.6,1.69-.24,1.12.14,1.69.88,1.69.56,0,.95-.28,1.23-.77h2.18c-.68,1.55-2.07,2.52-3.75,2.52-1.97,0-3.08-1.32-2.63-3.44.45-2.11,2.12-3.44,4.09-3.44Z"/>
      <path class="cls-9" d="M502.9,9.68h-.82l.36-1.7h.82l.35-1.63h2.05l-.35,1.63h1.34l-.36,1.7h-1.34l-.57,2.69c-.08.4.05.56.5.56h.73l-.37,1.74h-1.04c-1.39,0-2.24-.59-1.87-2.33l.57-2.66Z"/>
      <path class="cls-9" d="M507.7,7.97h2.05l-1.42,6.7h-2.05l1.42-6.7ZM507.89,6.17c.13-.62.73-1.12,1.46-1.12s1.11.49.97,1.12c-.13.61-.73,1.1-1.45,1.1s-1.12-.49-.99-1.1Z"/>
      <path class="cls-9" d="M512.69,7.97l.44,4.78,2.47-4.78h2.18l-3.8,6.7h-2.53l-.95-6.7h2.19Z"/>
      <path class="cls-9" d="M520.06,14.77c-1.97,0-3.1-1.32-2.65-3.44s2.12-3.44,4.11-3.44,3.06,1.29,2.62,3.33c-.04.19-.1.4-.16.6h-4.64c-.11.88.34,1.28,1,1.28.58,0,.96-.29,1.21-.65h2.18c-.6,1.31-2,2.32-3.67,2.32ZM519.6,10.67h2.57c.16-.73-.33-1.15-1.01-1.15s-1.27.41-1.55,1.15Z"/>
      <path class="cls-9" d="M527.1,14.77c-1.79,0-2.78-1-2.59-2.29h2.03c-.05.47.3.78.87.78.53,0,.85-.24.92-.54.23-1.08-3.58-.3-3.06-2.76.24-1.14,1.41-2.08,3.16-2.08s2.48.96,2.33,2.28h-1.89c.04-.46-.25-.75-.82-.75-.48,0-.78.19-.85.52-.23,1.07,3.56.31,3.06,2.81-.25,1.16-1.46,2.04-3.14,2.04Z"/>
    </g>
    <g>
      <path class="cls-8" d="M19.6,26.88v6.98h-.91l-3.66-5.55v5.55h-.91v-6.98h.91l3.66,5.54v-5.54h.91Z"/>
      <path class="cls-8" d="M23.55,33.94c-1.55,0-2.73-1.1-2.73-2.84s1.22-2.82,2.77-2.82,2.77,1.09,2.77,2.82-1.25,2.84-2.81,2.84ZM23.55,33.14c.95,0,1.88-.65,1.88-2.04s-.91-2.03-1.85-2.03-1.83.65-1.83,2.03.85,2.04,1.8,2.04Z"/>
      <path class="cls-8" d="M32.41,33.85h-.91v-.81c-.35.57-1.02.89-1.75.89-1.26,0-2.25-.78-2.25-2.35v-3.21h.9v3.09c0,1.11.61,1.68,1.53,1.68s1.57-.58,1.57-1.76v-3.01h.91v5.48Z"/>
      <path class="cls-8" d="M37.96,30.76c0-1.12-.61-1.69-1.53-1.69s-1.57.58-1.57,1.76v3.03h-.91v-5.48h.91v.78c.36-.57,1.02-.88,1.76-.88,1.27,0,2.24.78,2.24,2.35v3.23h-.9v-3.1Z"/>
    </g>
    <g>
      <path class="cls-8" d="M287.63,26.88v6.98h-.91l-3.66-5.55v5.55h-.91v-6.98h.91l3.66,5.54v-5.54h.91Z"/>
      <path class="cls-8" d="M291.58,33.94c-1.55,0-2.73-1.1-2.73-2.84s1.22-2.82,2.77-2.82,2.77,1.09,2.77,2.82-1.25,2.84-2.81,2.84ZM291.58,33.14c.95,0,1.88-.65,1.88-2.04s-.91-2.03-1.85-2.03-1.83.65-1.83,2.03.85,2.04,1.8,2.04Z"/>
      <path class="cls-8" d="M300.44,33.85h-.91v-.81c-.35.57-1.02.89-1.75.89-1.26,0-2.25-.78-2.25-2.35v-3.21h.9v3.09c0,1.11.61,1.68,1.53,1.68s1.57-.58,1.57-1.76v-3.01h.91v5.48Z"/>
      <path class="cls-8" d="M305.99,30.76c0-1.12-.61-1.69-1.53-1.69s-1.57.58-1.57,1.76v3.03h-.91v-5.48h.91v.78c.36-.57,1.02-.88,1.76-.88,1.27,0,2.24.78,2.24,2.35v3.23h-.9v-3.1Z"/>
    </g>
    <g>
      <path class="cls-8" d="M106.14,27.76c1.02,0,1.72.52,2.04,1.09v-1h.92v5.48h-.92v-1.02c-.33.59-1.04,1.11-2.05,1.11-1.46,0-2.59-1.15-2.59-2.85s1.13-2.81,2.6-2.81ZM106.32,28.55c-1,0-1.85.73-1.85,2.02s.85,2.05,1.85,2.05,1.86-.75,1.86-2.04-.86-2.03-1.86-2.03Z"/>
      <path class="cls-8" d="M112.91,27.76c.86,0,1.65.44,2.03,1.07v-2.9h.92v7.4h-.92v-1.03c-.33.61-1.04,1.12-2.04,1.12-1.47,0-2.6-1.15-2.6-2.85s1.13-2.81,2.61-2.81ZM113.07,28.55c-1,0-1.85.73-1.85,2.02s.85,2.05,1.85,2.05,1.86-.75,1.86-2.04-.86-2.03-1.86-2.03Z"/>
      <path class="cls-8" d="M118.34,27.85v6.67c0,.99-.52,1.41-1.45,1.41h-.53v-.77h.38c.5,0,.69-.18.69-.66v-6.65h.91ZM117.28,26.34c0-.35.27-.62.61-.62s.61.27.61.62-.27.62-.61.62-.61-.27-.61-.62Z"/>
      <path class="cls-8" d="M122.24,33.41c-1.56,0-2.71-1.1-2.71-2.84s1.11-2.82,2.71-2.82,2.63,1.12,2.63,2.62c0,.2,0,.36-.03.55h-4.38c.07,1.11.85,1.72,1.78,1.72.82,0,1.34-.42,1.54-1.01h.98c-.28,1-1.16,1.78-2.52,1.78ZM120.48,30.19h3.46c0-1.07-.79-1.66-1.73-1.66-.89,0-1.63.59-1.73,1.66Z"/>
      <path class="cls-8" d="M128.4,27.76c1.36,0,2.25.7,2.53,1.85h-.98c-.19-.66-.74-1.08-1.55-1.08-1,0-1.74.71-1.74,2.05s.74,2.07,1.74,2.07c.81,0,1.35-.39,1.55-1.08h.98c-.28,1.09-1.17,1.85-2.53,1.85-1.56,0-2.67-1.1-2.67-2.84s1.11-2.82,2.67-2.82Z"/>
      <path class="cls-8" d="M132.35,28.6h-.71v-.75h.71v-1.38h.91v1.38h1.43v.75h-1.43v3.23c0,.54.2.73.76.73h.67v.77h-.82c-.97,0-1.52-.4-1.52-1.5v-3.23Z"/>
      <path class="cls-8" d="M135.64,26.34c0-.35.27-.62.62-.62.33,0,.6.27.6.62s-.27.62-.6.62c-.35,0-.62-.27-.62-.62ZM135.79,27.85h.91v5.48h-.91v-5.48Z"/>
      <path class="cls-8" d="M138.58,27.85l1.71,4.64,1.7-4.64h.97l-2.15,5.48h-1.06l-2.15-5.48h.98Z"/>
      <path class="cls-8" d="M146.23,33.41c-1.56,0-2.71-1.1-2.71-2.84s1.11-2.82,2.71-2.82,2.63,1.12,2.63,2.62c0,.2,0,.36-.03.55h-4.38c.07,1.11.85,1.72,1.78,1.72.82,0,1.34-.42,1.54-1.01h.98c-.28,1-1.16,1.78-2.52,1.78ZM144.46,30.19h3.46c.01-1.07-.79-1.66-1.73-1.66-.89,0-1.63.59-1.73,1.66Z"/>
      <path class="cls-8" d="M155.79,27.12v2.17h2.13v.77h-2.13v2.16h-.85v-2.16h-2.12v-.77h2.12v-2.17h.85Z"/>
      <path class="cls-8" d="M164.59,33.41c-1.56,0-2.71-1.1-2.71-2.84s1.11-2.82,2.71-2.82,2.63,1.12,2.63,2.62c0,.2,0,.36-.03.55h-4.38c.07,1.11.85,1.72,1.78,1.72.82,0,1.34-.42,1.54-1.01h.98c-.28,1-1.16,1.78-2.52,1.78ZM162.83,30.19h3.46c0-1.07-.79-1.66-1.73-1.66-.89,0-1.63.59-1.73,1.66Z"/>
      <path class="cls-8" d="M169.34,33.32h-.91v-5.48h.91v.89c.31-.61.9-.99,1.77-.99v.94h-.24c-.87,0-1.53.39-1.53,1.66v2.98Z"/>
    </g>
    <g>
      <path class="cls-8" d="M396.41,29.13h-.71v-.75h.71v-1.38h.91v1.38h1.43v.75h-1.43v3.23c0,.54.2.73.76.73h.67v.77h-.82c-.97,0-1.52-.4-1.52-1.5v-3.23Z"/>
      <path class="cls-8" d="M399.85,26.46h.91v2.71c.36-.58,1.04-.89,1.81-.89,1.22,0,2.19.78,2.19,2.35v3.23h-.9v-3.1c0-1.12-.61-1.69-1.53-1.69s-1.57.58-1.57,1.76v3.03h-.91v-7.4Z"/>
      <path class="cls-8" d="M408.62,33.94c-1.56,0-2.71-1.1-2.71-2.84s1.11-2.82,2.71-2.82,2.63,1.12,2.63,2.62c0,.2,0,.36-.03.55h-4.38c.07,1.11.85,1.72,1.78,1.72.82,0,1.34-.42,1.54-1.01h.98c-.28,1-1.16,1.78-2.52,1.78ZM406.85,30.72h3.46c.01-1.07-.79-1.66-1.73-1.66-.89,0-1.63.59-1.73,1.66Z"/>
    </g>
    <g>
      <path class="cls-8" d="M192.95,28.6h-.71v-.75h.71v-1.38h.91v1.38h1.43v.75h-1.43v3.23c0,.54.2.73.76.73h.67v.77h-.82c-.97,0-1.52-.4-1.52-1.5v-3.23Z"/>
      <path class="cls-8" d="M196.39,25.93h.91v2.71c.36-.58,1.04-.89,1.81-.89,1.22,0,2.19.78,2.19,2.35v3.23h-.9v-3.1c0-1.12-.61-1.69-1.53-1.69s-1.57.58-1.57,1.76v3.03h-.91v-7.4Z"/>
      <path class="cls-8" d="M205.05,27.76c1.02,0,1.72.52,2.04,1.09v-1h.92v5.48h-.92v-1.02c-.33.59-1.04,1.11-2.05,1.11-1.46,0-2.59-1.15-2.59-2.85s1.13-2.81,2.6-2.81ZM205.23,28.55c-1,0-1.85.73-1.85,2.02s.85,2.05,1.85,2.05,1.86-.75,1.86-2.04-.86-2.03-1.86-2.03Z"/>
      <path class="cls-8" d="M213.55,30.23c0-1.12-.61-1.69-1.53-1.69s-1.57.58-1.57,1.76v3.03h-.91v-5.48h.91v.78c.36-.57,1.02-.88,1.76-.88,1.27,0,2.24.78,2.24,2.35v3.23h-.9v-3.1Z"/>
    </g>
    <g>
      <path class="cls-8" d="M239.03,30.23c0-1.12-.61-1.69-1.53-1.69s-1.57.58-1.57,1.76v3.03h-.91v-5.48h.91v.78c.36-.57,1.02-.88,1.76-.88,1.27,0,2.24.78,2.24,2.35v3.23h-.9v-3.1Z"/>
      <path class="cls-8" d="M243.81,33.41c-1.55,0-2.73-1.1-2.73-2.84s1.22-2.82,2.77-2.82,2.77,1.09,2.77,2.82-1.25,2.84-2.81,2.84ZM243.81,32.61c.95,0,1.88-.65,1.88-2.04s-.91-2.03-1.85-2.03-1.83.65-1.83,2.03.85,2.04,1.8,2.04Z"/>
      <path class="cls-8" d="M252.67,33.32h-.91v-.81c-.35.57-1.02.89-1.75.89-1.26,0-2.25-.78-2.25-2.35v-3.21h.9v3.09c0,1.11.61,1.68,1.53,1.68s1.57-.58,1.57-1.76v-3.01h.91v5.48Z"/>
      <path class="cls-8" d="M258.23,30.23c0-1.12-.61-1.69-1.53-1.69s-1.57.58-1.57,1.76v3.03h-.91v-5.48h.91v.78c.36-.57,1.02-.88,1.76-.88,1.27,0,2.24.78,2.24,2.35v3.23h-.9v-3.1Z"/>
      <path class="cls-8" d="M260.91,33.38c-.35,0-.62-.27-.62-.62s.27-.62.62-.62c.33,0,.6.27.6.62s-.27.62-.6.62Z"/>
    </g>
    <g>
      <path class="cls-8" d="M447.79,27.76c1.02,0,1.72.52,2.04,1.09v-1h.92v5.48h-.92v-1.02c-.33.59-1.04,1.11-2.05,1.11-1.46,0-2.59-1.15-2.59-2.85s1.13-2.81,2.6-2.81ZM447.97,28.55c-1,0-1.85.73-1.85,2.02s.85,2.05,1.85,2.05,1.86-.75,1.86-2.04-.86-2.03-1.86-2.03Z"/>
      <path class="cls-8" d="M454.56,27.76c.86,0,1.65.44,2.03,1.07v-2.9h.92v7.4h-.92v-1.03c-.33.61-1.04,1.12-2.04,1.12-1.47,0-2.6-1.15-2.6-2.85s1.13-2.81,2.61-2.81ZM454.73,28.55c-1,0-1.85.73-1.85,2.02s.85,2.05,1.85,2.05,1.86-.75,1.86-2.04-.86-2.03-1.86-2.03Z"/>
      <path class="cls-8" d="M459.99,27.85v6.67c0,.99-.52,1.41-1.45,1.41h-.53v-.77h.38c.5,0,.69-.18.69-.66v-6.65h.91ZM458.93,26.34c0-.35.27-.62.61-.62s.61.27.61.62-.27.62-.61.62-.61-.27-.61-.62Z"/>
      <path class="cls-8" d="M463.9,33.41c-1.56,0-2.71-1.1-2.71-2.84s1.11-2.82,2.71-2.82,2.63,1.12,2.63,2.62c0,.2,0,.36-.03.55h-4.38c.07,1.11.85,1.72,1.78,1.72.82,0,1.34-.42,1.54-1.01h.98c-.28,1-1.16,1.78-2.52,1.78ZM462.13,30.19h3.46c0-1.07-.79-1.66-1.73-1.66-.89,0-1.63.59-1.73,1.66Z"/>
      <path class="cls-8" d="M470.06,27.76c1.36,0,2.25.7,2.53,1.85h-.98c-.19-.66-.74-1.08-1.55-1.08-1,0-1.74.71-1.74,2.05s.74,2.07,1.74,2.07c.81,0,1.35-.39,1.55-1.08h.98c-.28,1.09-1.17,1.85-2.53,1.85-1.56,0-2.67-1.1-2.67-2.84s1.11-2.82,2.67-2.82Z"/>
      <path class="cls-8" d="M474,28.6h-.71v-.75h.71v-1.38h.91v1.38h1.43v.75h-1.43v3.23c0,.54.2.73.76.73h.67v.77h-.82c-.97,0-1.52-.4-1.52-1.5v-3.23Z"/>
      <path class="cls-8" d="M477.29,26.34c0-.35.27-.62.62-.62.33,0,.6.27.6.62s-.27.62-.6.62c-.35,0-.62-.27-.62-.62ZM477.44,27.85h.91v5.48h-.91v-5.48Z"/>
      <path class="cls-8" d="M480.23,27.85l1.71,4.64,1.7-4.64h.97l-2.15,5.48h-1.06l-2.15-5.48h.98Z"/>
      <path class="cls-8" d="M487.87,33.41c-1.56,0-2.71-1.1-2.71-2.84s1.11-2.82,2.71-2.82,2.63,1.12,2.63,2.62c0,.2,0,.36-.03.55h-4.38c.07,1.11.85,1.72,1.78,1.72.82,0,1.34-.42,1.54-1.01h.98c-.28,1-1.16,1.78-2.52,1.78ZM486.11,30.19h3.46c0-1.07-.79-1.66-1.73-1.66-.89,0-1.63.59-1.73,1.66Z"/>
      <path class="cls-8" d="M497.44,27.12v2.17h2.13v.77h-2.13v2.16h-.85v-2.16h-2.12v-.77h2.12v-2.17h.85Z"/>
      <path class="cls-8" d="M506.24,33.41c-1.56,0-2.71-1.1-2.71-2.84s1.11-2.82,2.71-2.82,2.63,1.12,2.63,2.62c0,.2,0,.36-.03.55h-4.38c.07,1.11.85,1.72,1.78,1.72.82,0,1.34-.42,1.54-1.01h.98c-.28,1-1.16,1.78-2.52,1.78ZM504.48,30.19h3.46c.01-1.07-.79-1.66-1.73-1.66-.89,0-1.63.59-1.73,1.66Z"/>
      <path class="cls-8" d="M512.02,33.41c-1.28,0-2.18-.7-2.24-1.7h.94c.05.53.52.93,1.29.93.72,0,1.12-.36,1.12-.81,0-1.22-3.24-.51-3.24-2.55,0-.84.79-1.53,2.01-1.53s2.01.65,2.07,1.72h-.91c-.04-.55-.46-.95-1.19-.95-.67,0-1.07.32-1.07.76,0,1.3,3.18.59,3.22,2.55,0,.9-.79,1.58-2,1.58Z"/>
      <path class="cls-8" d="M515.5,28.6h-.71v-.75h.71v-1.38h.91v1.38h1.43v.75h-1.43v3.23c0,.54.2.73.76.73h.67v.77h-.82c-.97,0-1.52-.4-1.52-1.5v-3.23Z"/>
      <path class="cls-8" d="M519.23,33.38c-.35,0-.62-.27-.62-.62s.27-.62.62-.62c.33,0,.6.27.6.62s-.27.62-.6.62Z"/>
    </g>
    <line class="cls-5" x1="49.88" y1="22.43" x2="49.88" y2="62.28"/>
    <line class="cls-4" x1="92.68" y1="22.43" x2="92.68" y2="61.97"/>
    <line class="cls-4" x1="182.4" y1="22.43" x2="182.4" y2="61.97"/>
    <line class="cls-4" x1="223.88" y1="22.43" x2="223.88" y2="61.97"/>
    <line class="cls-3" x1="321.88" y1="22.02" x2="321.88" y2="61.97"/>
    <line class="cls-3" x1="377.88" y1="22.03" x2="377.88" y2="61.97"/>
    <line class="cls-2" x1="427.88" y1="22.54" x2="427.88" y2="61.97"/>
    <line class="cls-6" x1="269.68" y1="22.43" x2="269.68" y2="61.26"/>
    <g>
      <path class="cls-9" d="M4.42,68.99h526.79c2.36,0,4.27,1.91,4.27,4.27v46.48c0,2.36-1.91,4.27-4.27,4.27H4.42c-2.36,0-4.27-1.91-4.27-4.27v-46.49c0-2.36,1.91-4.27,4.27-4.27Z"/>
      <path class="cls-7" d="M535.37,103.91c0,.6-1.88,1.08-4.19,1.08H4.19C1.88,104.99,0,104.5,0,103.91v-19.77c0-.6,1.88-1.08,4.19-1.08h526.99c2.32,0,4.19.48,4.19,1.08v19.77Z"/>
      <path class="cls-1" d="M535.52,83.94c0,.62-1.88,1.12-4.19,1.12H4.19c-2.32,0-4.19-.5-4.19-1.12v-20.38c0-.62,1.88-1.11,4.19-1.11h527.13c2.32,0,4.19.5,4.19,1.11v20.38Z"/>
    </g>
    <g>
      <path class="cls-9" d="M92.67,68.55c2,0,3.27,1.13,3.37,2.95h-2.25c-.2-.72-.75-1.08-1.53-1.08-1.26,0-2.32.94-2.64,2.42s.35,2.42,1.61,2.42c.78,0,1.49-.36,1.99-1.08h2.25c-.87,1.82-2.62,2.94-4.62,2.94-2.48,0-3.86-1.76-3.32-4.28.54-2.52,2.66-4.29,5.15-4.29Z"/>
      <path class="cls-9" d="M99.03,77.16c-1.97,0-3.17-1.32-2.72-3.44.45-2.12,2.26-3.44,4.21-3.44s3.2,1.32,2.75,3.44c-.45,2.12-2.27,3.44-4.23,3.44ZM99.4,75.38c.73,0,1.53-.54,1.77-1.67.24-1.14-.32-1.67-1.04-1.67s-1.5.53-1.75,1.67c-.24,1.13.27,1.67,1.01,1.67Z"/>
      <path class="cls-9" d="M113.53,73.43c.19-.88-.22-1.36-1-1.36s-1.38.48-1.57,1.36l-.77,3.64h-2.04l.77-3.64c.19-.88-.22-1.36-1-1.36s-1.38.48-1.57,1.36l-.77,3.64h-2.05l1.42-6.7h2.05l-.18.84c.51-.54,1.27-.91,2.15-.91,1.01,0,1.73.44,2.01,1.25.59-.71,1.55-1.25,2.52-1.25,1.65,0,2.5,1.05,2.12,2.86l-.83,3.91h-2.04l.77-3.64Z"/>
      <path class="cls-9" d="M121.69,70.27c1.64,0,2.67,1.32,2.22,3.43-.45,2.11-2.04,3.46-3.68,3.46-.98,0-1.59-.47-1.84-1.03l-.88,4.13h-2.05l2.1-9.89h2.05l-.2.95c.5-.59,1.3-1.04,2.28-1.04ZM120.7,72.06c-.77,0-1.59.59-1.82,1.66-.23,1.07.34,1.66,1.11,1.66s1.6-.6,1.83-1.67-.35-1.64-1.12-1.64Z"/>
      <path class="cls-9" d="M128.16,70.27c1,0,1.61.46,1.84,1.04l.2-.95h2.05l-1.42,6.7h-2.05l.2-.95c-.5.59-1.3,1.04-2.3,1.04-1.63,0-2.65-1.34-2.2-3.46.45-2.11,2.04-3.43,3.68-3.43ZM128.38,72.06c-.77,0-1.58.58-1.81,1.64s.34,1.67,1.11,1.67,1.59-.59,1.81-1.66c.23-1.07-.33-1.66-1.11-1.66Z"/>
      <path class="cls-9" d="M134.27,77.06h-2.05l1.42-6.7h2.05l-.24,1.12c.62-.71,1.45-1.19,2.35-1.19l-.46,2.17h-.56c-.97,0-1.61.33-1.85,1.49l-.66,3.11Z"/>
      <path class="cls-9" d="M141.22,70.27c1,0,1.61.46,1.84,1.04l.2-.95h2.05l-1.42,6.7h-2.05l.2-.95c-.5.59-1.3,1.04-2.3,1.04-1.63,0-2.65-1.34-2.2-3.46.45-2.11,2.04-3.43,3.68-3.43ZM141.44,72.06c-.77,0-1.58.58-1.81,1.64s.34,1.67,1.11,1.67,1.59-.59,1.81-1.66c.23-1.07-.33-1.66-1.11-1.66Z"/>
      <path class="cls-9" d="M146.66,72.07h-.82l.36-1.7h.82l.35-1.63h2.05l-.35,1.63h1.34l-.36,1.7h-1.34l-.57,2.69c-.08.4.05.56.5.56h.73l-.37,1.74h-1.04c-1.39,0-2.24-.59-1.87-2.33l.57-2.66Z"/>
      <path class="cls-9" d="M151.46,70.37h2.05l-1.42,6.7h-2.05l1.42-6.7ZM151.65,68.57c.13-.62.73-1.12,1.46-1.12s1.11.49.97,1.12c-.13.61-.73,1.1-1.45,1.1s-1.12-.49-.99-1.1Z"/>
      <path class="cls-9" d="M156.45,70.37l.44,4.78,2.47-4.78h2.18l-3.8,6.7h-2.53l-.95-6.7h2.19Z"/>
      <path class="cls-9" d="M163.82,77.16c-1.97,0-3.1-1.32-2.65-3.44.45-2.12,2.12-3.44,4.11-3.44s3.06,1.29,2.62,3.34c-.04.19-.1.4-.16.6h-4.64c-.11.88.34,1.28,1,1.28.58,0,.96-.29,1.21-.65h2.18c-.6,1.31-2,2.32-3.67,2.32ZM163.36,73.07h2.57c.16-.73-.33-1.15-1.01-1.15s-1.27.41-1.55,1.15Z"/>
      <path class="cls-9" d="M170.85,77.16c-1.79,0-2.77-1-2.59-2.29h2.03c-.05.47.3.78.87.78.53,0,.85-.24.92-.54.23-1.08-3.58-.3-3.06-2.76.24-1.14,1.41-2.08,3.16-2.08s2.48.96,2.33,2.28h-1.89c.04-.46-.25-.76-.82-.76-.48,0-.78.19-.85.52-.23,1.07,3.56.31,3.06,2.81-.25,1.16-1.46,2.04-3.14,2.04Z"/>
      <path class="cls-9" d="M181.14,70.27c1,0,1.61.46,1.84,1.04l.2-.95h2.05l-1.42,6.7h-2.05l.2-.95c-.5.59-1.3,1.04-2.3,1.04-1.63,0-2.65-1.34-2.2-3.46.45-2.11,2.04-3.43,3.68-3.43ZM181.36,72.06c-.77,0-1.58.58-1.81,1.64s.34,1.67,1.11,1.67,1.59-.59,1.81-1.66c.23-1.07-.33-1.66-1.11-1.66Z"/>
      <path class="cls-9" d="M190.59,73.43c.19-.91-.2-1.42-.98-1.42s-1.39.5-1.58,1.42l-.77,3.64h-2.05l1.42-6.7h2.05l-.19.89c.53-.56,1.33-.96,2.23-.96,1.55,0,2.35,1.05,1.97,2.86l-.83,3.91h-2.04l.77-3.64Z"/>
      <path class="cls-9" d="M197.15,70.27c.89,0,1.57.41,1.85,1.02l.66-3.11h2.05l-1.89,8.88h-2.05l.2-.96c-.5.61-1.3,1.06-2.29,1.06-1.64,0-2.67-1.34-2.22-3.46.45-2.11,2.04-3.43,3.68-3.43ZM197.37,72.06c-.77,0-1.58.58-1.81,1.64s.34,1.67,1.11,1.67,1.59-.59,1.81-1.66c.23-1.07-.33-1.66-1.11-1.66Z"/>
      <path class="cls-9" d="M206.67,77.15c-1.81,0-3.04-.9-2.73-2.6h2.18c-.08.65.26.96.84.96s1.05-.3,1.15-.79c.33-1.56-4.06-.72-3.4-3.71.34-1.6,1.83-2.48,3.6-2.48s2.88.91,2.62,2.52h-2.22c.08-.54-.24-.87-.79-.88-.49-.01-.92.24-1.03.77-.31,1.46,3.99.8,3.39,3.62-.3,1.42-1.66,2.59-3.62,2.59Z"/>
      <path class="cls-9" d="M217.52,77.06h-2.05l.19-.91c-.53.58-1.34.98-2.24.98-1.55,0-2.36-1.07-1.98-2.86l.83-3.91h2.04l-.77,3.64c-.19.91.21,1.42.98,1.42s1.4-.5,1.6-1.42l.77-3.64h2.05l-1.42,6.7Z"/>
      <path class="cls-9" d="M224.44,70.27c1.64,0,2.67,1.32,2.22,3.43-.45,2.11-2.04,3.46-3.68,3.46-.98,0-1.59-.47-1.84-1.03l-.88,4.13h-2.05l2.1-9.89h2.05l-.2.95c.5-.59,1.3-1.04,2.28-1.04ZM223.45,72.06c-.77,0-1.59.59-1.82,1.66-.23,1.07.34,1.66,1.11,1.66s1.6-.6,1.83-1.67-.35-1.64-1.12-1.64Z"/>
      <path class="cls-9" d="M229.87,77.16c-1.97,0-3.1-1.32-2.65-3.44.45-2.12,2.12-3.44,4.11-3.44s3.06,1.29,2.62,3.34c-.04.19-.1.4-.16.6h-4.64c-.11.88.34,1.28,1,1.28.58,0,.96-.29,1.21-.65h2.18c-.6,1.31-2,2.32-3.67,2.32ZM229.41,73.07h2.57c.16-.73-.33-1.15-1.01-1.15s-1.27.41-1.55,1.15Z"/>
      <path class="cls-9" d="M236.24,77.06h-2.05l1.42-6.7h2.05l-.24,1.12c.62-.71,1.45-1.19,2.35-1.19l-.46,2.17h-.56c-.97,0-1.61.33-1.85,1.49l-.66,3.11Z"/>
      <path class="cls-9" d="M241.09,68.18h2.05l-1.89,8.88h-2.05l1.89-8.88Z"/>
      <path class="cls-9" d="M246.62,70.27c1,0,1.61.46,1.84,1.04l.2-.95h2.05l-1.42,6.7h-2.05l.2-.95c-.5.59-1.3,1.04-2.3,1.04-1.63,0-2.65-1.34-2.2-3.46.45-2.11,2.04-3.43,3.68-3.43ZM246.84,72.06c-.77,0-1.58.58-1.81,1.64s.34,1.67,1.11,1.67,1.59-.59,1.81-1.66c.23-1.07-.33-1.66-1.11-1.66Z"/>
      <path class="cls-9" d="M252.06,72.07h-.82l.36-1.7h.82l.35-1.63h2.05l-.35,1.63h1.34l-.36,1.7h-1.34l-.57,2.69c-.08.4.05.56.5.56h.73l-.37,1.74h-1.04c-1.39,0-2.24-.59-1.87-2.33l.57-2.66Z"/>
      <path class="cls-9" d="M256.86,70.37h2.05l-1.42,6.7h-2.05l1.42-6.7ZM257.06,68.57c.13-.62.73-1.12,1.46-1.12s1.11.49.97,1.12c-.13.61-.73,1.1-1.45,1.1s-1.12-.49-.99-1.1Z"/>
      <path class="cls-9" d="M261.84,70.37l.44,4.78,2.47-4.78h2.18l-3.8,6.7h-2.53l-.95-6.7h2.19Z"/>
      <path class="cls-9" d="M269.22,77.16c-1.97,0-3.1-1.32-2.65-3.44.45-2.12,2.12-3.44,4.11-3.44s3.06,1.29,2.62,3.34c-.04.19-.1.4-.16.6h-4.64c-.11.88.34,1.28,1,1.28.58,0,.96-.29,1.21-.65h2.18c-.6,1.31-2,2.32-3.67,2.32ZM268.76,73.07h2.57c.16-.73-.33-1.15-1.01-1.15s-1.27.41-1.55,1.15Z"/>
      <path class="cls-9" d="M276.25,77.16c-1.79,0-2.77-1-2.59-2.29h2.03c-.05.47.3.78.87.78.53,0,.85-.24.92-.54.23-1.08-3.58-.3-3.06-2.76.24-1.14,1.41-2.08,3.16-2.08s2.48.96,2.33,2.28h-1.89c.04-.46-.25-.76-.82-.76-.48,0-.78.19-.85.52-.23,1.07,3.56.31,3.06,2.81-.25,1.16-1.46,2.04-3.14,2.04Z"/>
      <path class="cls-9" d="M283.92,68.64h2.2l-.09,6.13,2.8-6.13h2.25l.14,6.13,2.53-6.13h2.21l-3.98,8.42h-2.48l-.17-5.54-2.57,5.54h-2.48l-.34-8.42Z"/>
      <path class="cls-9" d="M296.51,70.37h2.05l-1.42,6.7h-2.05l1.42-6.7ZM296.7,68.57c.13-.62.73-1.12,1.46-1.12s1.11.49.97,1.12c-.13.61-.73,1.1-1.45,1.1s-1.12-.49-.99-1.1Z"/>
      <path class="cls-9" d="M299.91,72.07h-.82l.36-1.7h.82l.35-1.63h2.05l-.35,1.63h1.34l-.36,1.7h-1.34l-.57,2.69c-.08.4.05.56.5.56h.73l-.37,1.74h-1.04c-1.39,0-2.24-.59-1.87-2.33l.57-2.66Z"/>
      <path class="cls-9" d="M305.17,68.18h2.05l-.66,3.08c.53-.58,1.35-.97,2.27-.97,1.52,0,2.32,1.05,1.94,2.86l-.83,3.91h-2.04l.77-3.64c.19-.91-.2-1.42-.98-1.42s-1.39.5-1.58,1.42l-.77,3.64h-2.05l1.89-8.88Z"/>
      <path class="cls-9" d="M315.48,68.64h2.42l1.12,5.83,3.58-5.83h2.41l-1.79,8.42h-2.05l1.07-5.05-2.96,5.05h-1.66l-.82-5.06-1.08,5.06h-2.05l1.79-8.42Z"/>
      <path class="cls-9" d="M331.21,77.06h-2.05l.19-.91c-.53.58-1.34.98-2.24.98-1.55,0-2.36-1.07-1.98-2.86l.83-3.91h2.04l-.77,3.64c-.19.91.21,1.42.98,1.42s1.4-.5,1.6-1.42l.77-3.64h2.05l-1.42,6.7Z"/>
      <path class="cls-9" d="M334.46,68.18h2.05l-1.89,8.88h-2.05l1.89-8.88Z"/>
      <path class="cls-9" d="M337.39,72.07h-.82l.36-1.7h.82l.35-1.63h2.05l-.35,1.63h1.34l-.36,1.7h-1.34l-.57,2.69c-.08.4.05.56.5.56h.73l-.37,1.74h-1.04c-1.39,0-2.24-.59-1.87-2.33l.57-2.66Z"/>
      <path class="cls-9" d="M342.2,70.37h2.05l-1.42,6.7h-2.05l1.42-6.7ZM342.39,68.57c.13-.62.73-1.12,1.46-1.12s1.11.49.97,1.12c-.13.61-.73,1.1-1.45,1.1s-1.12-.49-.99-1.1Z"/>
      <path class="cls-9" d="M345.16,72h5.28l-.36,1.7h-5.28l.36-1.7Z"/>
      <path class="cls-9" d="M353.76,77.16c-1.79,0-2.77-1-2.59-2.29h2.03c-.05.47.3.78.87.78.53,0,.85-.24.92-.54.23-1.08-3.58-.3-3.06-2.76.24-1.14,1.41-2.08,3.16-2.08s2.48.96,2.33,2.28h-1.89c.04-.46-.25-.76-.82-.76-.48,0-.78.19-.85.52-.23,1.07,3.56.31,3.06,2.81-.25,1.16-1.46,2.04-3.14,2.04Z"/>
      <path class="cls-9" d="M363.69,70.37h2.22l-6.3,9.88h-2.21l2.26-3.41-1.35-6.47h2.29l.66,4.19,2.42-4.19Z"/>
      <path class="cls-9" d="M367.01,68.18h2.05l-1.89,8.88h-2.05l1.89-8.88Z"/>
      <path class="cls-9" d="M370.44,68.18h2.05l-1.89,8.88h-2.05l1.89-8.88Z"/>
      <path class="cls-9" d="M375.97,70.27c1,0,1.61.46,1.84,1.04l.2-.95h2.05l-1.42,6.7h-2.05l.2-.95c-.5.59-1.3,1.04-2.3,1.04-1.63,0-2.65-1.34-2.2-3.46.45-2.11,2.04-3.43,3.68-3.43ZM376.19,72.06c-.77,0-1.58.58-1.81,1.64s.34,1.67,1.11,1.67,1.59-.59,1.81-1.66c.23-1.07-.33-1.66-1.11-1.66Z"/>
      <path class="cls-9" d="M385.58,70.27c1.66,0,2.67,1.32,2.22,3.43-.45,2.11-2.04,3.46-3.68,3.46-.98,0-1.6-.44-1.84-1.03l-.2.94h-2.05l1.89-8.88h2.05l-.67,3.13c.5-.6,1.32-1.04,2.28-1.04ZM384.59,72.06c-.77,0-1.59.59-1.82,1.66-.23,1.07.34,1.66,1.11,1.66s1.6-.6,1.83-1.67-.35-1.64-1.12-1.64Z"/>
      <path class="cls-9" d="M389.95,68.18h2.05l-1.89,8.88h-2.05l1.89-8.88Z"/>
      <path class="cls-9" d="M394.45,77.16c-1.97,0-3.1-1.32-2.65-3.44.45-2.12,2.12-3.44,4.11-3.44s3.06,1.29,2.62,3.34c-.04.19-.1.4-.16.6h-4.64c-.11.88.34,1.28,1,1.28.58,0,.96-.29,1.21-.65h2.18c-.6,1.31-2,2.32-3.67,2.32ZM393.99,73.07h2.57c.16-.73-.33-1.15-1.01-1.15s-1.27.41-1.55,1.15Z"/>
      <path class="cls-9" d="M406.76,75.58h-3.14l-.82,1.49h-2.15l4.84-8.42h2.38l1.26,8.42h-2.17l-.19-1.49ZM406.18,70.91l-1.69,3.08h2.08l-.39-3.08Z"/>
      <path class="cls-9" d="M413.93,70.27c.89,0,1.57.41,1.85,1.02l.66-3.11h2.05l-1.89,8.88h-2.05l.2-.96c-.5.61-1.3,1.06-2.29,1.06-1.64,0-2.67-1.34-2.22-3.46.45-2.11,2.04-3.43,3.68-3.43ZM414.15,72.06c-.77,0-1.58.58-1.81,1.64s.34,1.67,1.11,1.67,1.59-.59,1.81-1.66c.23-1.07-.33-1.66-1.11-1.66Z"/>
      <path class="cls-9" d="M421.45,70.37l-1.61,7.56c-.37,1.74-1.47,2.33-2.86,2.33h-.8l.37-1.74h.49c.46,0,.66-.17.74-.56l1.61-7.58h2.05ZM419.58,68.57c.13-.62.73-1.12,1.46-1.12s1.11.49.97,1.12c-.13.61-.73,1.1-1.45,1.1s-1.12-.49-.99-1.1Z"/>
      <path class="cls-9" d="M424.35,77.16c-1.97,0-3.1-1.32-2.65-3.44.45-2.12,2.12-3.44,4.11-3.44s3.06,1.29,2.62,3.34c-.04.19-.1.4-.16.6h-4.64c-.11.88.34,1.28,1,1.28.58,0,.96-.29,1.21-.65h2.18c-.6,1.31-2,2.32-3.67,2.32ZM423.89,73.07h2.57c.16-.73-.33-1.15-1.01-1.15s-1.27.41-1.55,1.15Z"/>
      <path class="cls-9" d="M433.08,70.27c1.68,0,2.67.92,2.68,2.52h-2.18c-.07-.47-.34-.77-.9-.77-.73,0-1.36.58-1.6,1.69-.24,1.12.14,1.69.88,1.69.56,0,.95-.28,1.23-.77h2.18c-.68,1.55-2.07,2.52-3.75,2.52-1.97,0-3.08-1.32-2.63-3.44.45-2.11,2.12-3.44,4.09-3.44Z"/>
      <path class="cls-9" d="M437.22,72.07h-.82l.36-1.7h.82l.35-1.63h2.05l-.35,1.63h1.34l-.36,1.7h-1.34l-.57,2.69c-.08.4.05.56.5.56h.73l-.37,1.74h-1.04c-1.39,0-2.24-.59-1.87-2.33l.57-2.66Z"/>
      <path class="cls-9" d="M442.02,70.37h2.05l-1.42,6.7h-2.05l1.42-6.7ZM442.21,68.57c.13-.62.73-1.12,1.46-1.12s1.11.49.97,1.12c-.13.61-.73,1.1-1.45,1.1s-1.12-.49-.99-1.1Z"/>
      <path class="cls-9" d="M447,70.37l.44,4.78,2.47-4.78h2.18l-3.8,6.7h-2.53l-.95-6.7h2.19Z"/>
      <path class="cls-9" d="M454.38,77.16c-1.97,0-3.1-1.32-2.65-3.44.45-2.12,2.12-3.44,4.11-3.44s3.06,1.29,2.62,3.34c-.04.19-.1.4-.16.6h-4.64c-.11.88.34,1.28,1,1.28.58,0,.96-.29,1.21-.65h2.18c-.6,1.31-2,2.32-3.67,2.32ZM453.92,73.07h2.57c.16-.73-.33-1.15-1.01-1.15s-1.27.41-1.55,1.15Z"/>
      <path class="cls-9" d="M461.41,77.16c-1.79,0-2.77-1-2.59-2.29h2.03c-.05.47.3.78.87.78.53,0,.85-.24.92-.54.23-1.08-3.58-.3-3.06-2.76.24-1.14,1.41-2.08,3.16-2.08s2.48.96,2.33,2.28h-1.89c.04-.46-.25-.76-.82-.76-.48,0-.78.19-.85.52-.23,1.07,3.56.31,3.06,2.81-.25,1.16-1.46,2.04-3.14,2.04Z"/>
    </g>
    <line class="cls-6" x1="269.68" y1="85.06" x2="269.68" y2="124.06"/>
    <g>
      <path class="cls-8" d="M396.99,49.84h-.71l.16-.75h.71l.29-1.38h.91l-.29,1.38h1.43l-.16.75h-1.43l-.69,3.23c-.11.54.04.73.6.73h.67l-.16.77h-.82c-.97,0-1.43-.4-1.2-1.5l.69-3.23Z"/>
      <path class="cls-8" d="M401,47.17h.91l-.58,2.71c.48-.58,1.23-.89,2-.89,1.22,0,2.02.78,1.69,2.35l-.69,3.23h-.9l.66-3.1c.24-1.12-.25-1.69-1.17-1.69s-1.69.58-1.94,1.76l-.64,3.03h-.91l1.57-7.4Z"/>
      <path class="cls-8" d="M408.18,54.66c-1.56,0-2.47-1.1-2.11-2.84.37-1.73,1.71-2.82,3.31-2.82s2.39,1.12,2.07,2.62c-.04.2-.09.36-.15.55h-4.38c-.17,1.11.48,1.72,1.41,1.72.82,0,1.43-.42,1.75-1.01h.98c-.49,1-1.54,1.78-2.9,1.78ZM407.09,51.43h3.46c.24-1.07-.44-1.66-1.38-1.66-.89,0-1.76.59-2.08,1.66Z"/>
    </g>
    <g>
      <path class="cls-8" d="M467.39,49.84h-.71l.16-.75h.71l.29-1.38h.91l-.29,1.38h1.43l-.16.75h-1.43l-.69,3.23c-.11.54.04.73.6.73h.67l-.16.77h-.82c-.97,0-1.43-.4-1.2-1.5l.69-3.23Z"/>
      <path class="cls-8" d="M473.27,49c1.02,0,1.61.52,1.81,1.09l.21-1h.92l-1.17,5.48h-.92l.22-1.02c-.46.59-1.28,1.11-2.29,1.11-1.46,0-2.34-1.15-1.98-2.85.36-1.71,1.73-2.81,3.2-2.81ZM473.28,49.79c-1,0-2,.73-2.28,2.02-.27,1.29.41,2.05,1.41,2.05s2.02-.75,2.29-2.04c.27-1.27-.43-2.03-1.43-2.03Z"/>
      <path class="cls-8" d="M478.16,47.17h.91l-1.57,7.4h-.91l1.57-7.4Z"/>
      <path class="cls-8" d="M480.62,47.17h.91l-1.57,7.4h-.91l1.57-7.4Z"/>
      <path class="cls-8" d="M483.86,54.66c-1.56,0-2.47-1.1-2.11-2.84.37-1.73,1.71-2.82,3.31-2.82s2.39,1.12,2.07,2.62c-.04.2-.09.36-.15.55h-4.38c-.17,1.11.48,1.72,1.41,1.72.82,0,1.43-.42,1.75-1.01h.98c-.49,1-1.54,1.78-2.9,1.78ZM482.77,51.43h3.46c.24-1.07-.44-1.66-1.38-1.66-.89,0-1.76.59-2.08,1.66Z"/>
      <path class="cls-8" d="M489.63,54.66c-1.28,0-2.03-.7-1.88-1.7h.94c-.06.53.32.93,1.09.93.72,0,1.2-.36,1.29-.81.26-1.22-3.13-.51-2.7-2.55.18-.84,1.11-1.53,2.33-1.53s1.87.65,1.7,1.72h-.91c.08-.55-.26-.95-.99-.95-.67,0-1.14.32-1.23.76-.28,1.3,3.05.59,2.68,2.55-.19.9-1.12,1.58-2.33,1.58Z"/>
      <path class="cls-8" d="M494.13,49.84h-.71l.16-.75h.71l.29-1.38h.91l-.29,1.38h1.43l-.16.75h-1.43l-.69,3.23c-.11.54.04.73.6.73h.67l-.16.77h-.82c-.97,0-1.43-.4-1.2-1.5l.69-3.23Z"/>
      <path class="cls-8" d="M496.84,54.64c-.35,0-.56-.27-.49-.62.07-.35.4-.62.75-.62.33,0,.54.27.47.62-.07.35-.4.62-.73.62Z"/>
    </g>
    <g>
      <path class="cls-8" d="M12.05,116.06h-3.04l-.89,1.55h-.96l3.99-6.93h1.05l1.04,6.93h-.96l-.23-1.55ZM11.43,111.81l-2.01,3.52h2.52l-.51-3.52Z"/>
      <path class="cls-8" d="M19,114.52c.24-1.12-.25-1.69-1.17-1.69s-1.69.58-1.94,1.76l-.64,3.03h-.91l1.16-5.48h.91l-.17.78c.48-.57,1.21-.88,1.95-.88,1.27,0,2.07.78,1.74,2.35l-.69,3.23h-.9l.66-3.1Z"/>
      <path class="cls-8" d="M24.18,112.04c1,0,1.61.5,1.81,1.09l.21-1h.92l-1.19,5.6c-.32,1.51-1.56,2.58-3.17,2.58-1.44,0-2.31-.73-2.25-1.9h.9c.06.66.61,1.11,1.51,1.11.97,0,1.83-.62,2.08-1.79l.25-1.15c-.46.59-1.28,1.12-2.28,1.12-1.47,0-2.35-1.15-1.99-2.85.36-1.71,1.73-2.81,3.2-2.81ZM24.19,112.83c-1,0-2,.73-2.28,2.02-.27,1.29.41,2.05,1.41,2.05s2.02-.75,2.29-2.04c.27-1.27-.43-2.03-1.43-2.03Z"/>
      <path class="cls-8" d="M29.85,117.7c-1.56,0-2.48-1.1-2.11-2.84.37-1.73,1.71-2.82,3.31-2.82s2.39,1.12,2.07,2.62c-.04.2-.09.36-.15.55h-4.38c-.17,1.11.48,1.72,1.41,1.72.82,0,1.43-.42,1.75-1.01h.98c-.49,1-1.54,1.78-2.9,1.78ZM28.77,114.47h3.46c.24-1.07-.44-1.66-1.38-1.66-.89,0-1.75.59-2.08,1.66Z"/>
      <path class="cls-8" d="M35.27,110.21h.91l-1.57,7.4h-.91l1.57-7.4Z"/>
      <path class="cls-8" d="M39.6,112.04c1.02,0,1.61.52,1.81,1.09l.21-1h.92l-1.16,5.48h-.92l.22-1.02c-.46.59-1.28,1.11-2.29,1.11-1.46,0-2.34-1.15-1.98-2.85.36-1.71,1.73-2.81,3.2-2.81ZM39.61,112.83c-1,0-2,.73-2.28,2.02-.27,1.29.41,2.05,1.41,2.05s2.02-.75,2.29-2.04c.27-1.27-.43-2.03-1.43-2.03Z"/>
    </g>
    <g>
      <path class="cls-8" d="M63.91,113.18h.91l-1.17,5.48h-.91l1.17-5.48ZM64.08,111.67c.07-.35.4-.62.75-.62.33,0,.54.27.47.62-.08.35-.4.62-.73.62-.35,0-.56-.27-.49-.62Z"/>
      <path class="cls-8" d="M67.12,118.75c-1.28,0-2.03-.7-1.88-1.7h.94c-.06.53.32.93,1.09.93.72,0,1.2-.36,1.29-.81.26-1.22-3.13-.51-2.7-2.55.18-.84,1.11-1.53,2.33-1.53s1.87.65,1.7,1.72h-.91c.08-.55-.26-.95-.99-.95-.67,0-1.14.32-1.23.76-.28,1.3,3.05.59,2.68,2.55-.19.9-1.12,1.58-2.33,1.58Z"/>
    </g>
    <g>
      <path class="cls-8" d="M114.19,114.52c.24-1.12-.24-1.69-1.14-1.69s-1.67.59-1.92,1.77l-.64,3.02h-.9l.66-3.1c.24-1.12-.24-1.69-1.14-1.69s-1.67.59-1.93,1.77l-.64,3.02h-.91l1.16-5.48h.91l-.17.79c.48-.58,1.2-.89,1.92-.89.9,0,1.56.4,1.75,1.22.49-.79,1.36-1.22,2.2-1.22,1.25,0,2.05.78,1.72,2.35l-.69,3.23h-.9l.66-3.1Z"/>
      <path class="cls-8" d="M118.3,117.7c-1.55,0-2.5-1.1-2.12-2.84.37-1.73,1.82-2.82,3.37-2.82s2.54,1.09,2.17,2.82c-.37,1.74-1.85,2.84-3.41,2.84ZM118.47,116.9c.95,0,2.02-.65,2.31-2.04.29-1.38-.48-2.03-1.42-2.03s-1.97.65-2.26,2.03c-.29,1.39.42,2.04,1.37,2.04Z"/>
      <path class="cls-8" d="M123.24,117.61h-.91l1.16-5.48h.91l-.19.89c.44-.61,1.11-.99,1.98-.99l-.2.94h-.24c-.87,0-1.61.39-1.88,1.66l-.63,2.98Z"/>
      <path class="cls-8" d="M128.41,117.7c-1.56,0-2.48-1.1-2.11-2.84.37-1.73,1.71-2.82,3.31-2.82s2.39,1.12,2.07,2.62c-.04.2-.09.36-.15.55h-4.38c-.17,1.11.48,1.72,1.41,1.72.82,0,1.43-.42,1.75-1.01h.98c-.49,1-1.54,1.78-2.9,1.78ZM127.32,114.47h3.46c.24-1.07-.44-1.66-1.38-1.66-.89,0-1.75.59-2.08,1.66Z"/>
      <path class="cls-8" d="M138.44,112.04c1.36,0,2.1.7,2.13,1.85h-.98c-.05-.66-.51-1.08-1.32-1.08-1,0-1.89.71-2.17,2.05-.29,1.36.3,2.07,1.3,2.07.81,0,1.43-.39,1.78-1.08h.98c-.51,1.09-1.56,1.85-2.92,1.85-1.56,0-2.44-1.1-2.07-2.84.37-1.72,1.71-2.82,3.27-2.82Z"/>
      <path class="cls-8" d="M144.44,112.04c1.02,0,1.61.52,1.81,1.09l.21-1h.92l-1.16,5.48h-.92l.22-1.02c-.46.59-1.28,1.11-2.29,1.11-1.46,0-2.34-1.15-1.98-2.85.36-1.71,1.73-2.81,3.2-2.81ZM144.45,112.83c-1,0-2,.73-2.28,2.02-.27,1.29.41,2.05,1.41,2.05s2.02-.75,2.29-2.04c.27-1.27-.43-2.03-1.43-2.03Z"/>
      <path class="cls-8" d="M148.67,117.61h-.91l1.16-5.48h.91l-.19.89c.44-.61,1.11-.99,1.98-.99l-.2.94h-.24c-.87,0-1.61.39-1.88,1.66l-.63,2.98Z"/>
      <path class="cls-8" d="M153.84,117.7c-1.56,0-2.48-1.1-2.11-2.84.37-1.73,1.71-2.82,3.31-2.82s2.39,1.12,2.07,2.62c-.04.2-.09.36-.15.55h-4.38c-.17,1.11.48,1.72,1.41,1.72.82,0,1.43-.42,1.75-1.01h.98c-.49,1-1.54,1.78-2.9,1.78ZM152.75,114.47h3.46c.24-1.07-.44-1.66-1.38-1.66-.89,0-1.75.59-2.08,1.66Z"/>
      <path class="cls-8" d="M158.86,112.88h-.71l.16-.75h.71l.08-.39c.26-1.22.98-1.77,2.38-1.77l-.16.76c-.82,0-1.15.3-1.3,1.01l-.08.39h1.15l-.16.75h-1.15l-1,4.73h-.91l1-4.73Z"/>
      <path class="cls-8" d="M165.84,117.61h-.91l.17-.81c-.47.57-1.21.89-1.94.89-1.26,0-2.08-.78-1.75-2.35l.68-3.21h.9l-.66,3.09c-.24,1.11.25,1.68,1.17,1.68s1.69-.58,1.94-1.76l.64-3.01h.91l-1.16,5.48Z"/>
      <path class="cls-8" d="M168.95,110.21h.91l-1.57,7.4h-.91l1.57-7.4Z"/>
    </g>
    <g>
      <path class="cls-8" d="M199.05,113.93h-.71l.16-.75h.71l.29-1.38h.91l-.29,1.38h1.43l-.16.75h-1.43l-.69,3.23c-.11.54.05.73.61.73h.67l-.16.77h-.82c-.97,0-1.43-.4-1.2-1.5l.69-3.23Z"/>
      <path class="cls-8" d="M203.06,111.26h.91l-.58,2.71c.48-.58,1.23-.89,2-.89,1.22,0,2.02.78,1.69,2.35l-.69,3.23h-.9l.66-3.1c.24-1.12-.25-1.69-1.17-1.69s-1.69.58-1.94,1.76l-.64,3.03h-.91l1.57-7.4Z"/>
      <path class="cls-8" d="M211.33,113.09c1.02,0,1.61.52,1.81,1.09l.21-1h.92l-1.17,5.48h-.92l.22-1.02c-.46.59-1.28,1.11-2.29,1.11-1.46,0-2.34-1.15-1.98-2.85.36-1.71,1.73-2.81,3.2-2.81ZM211.34,113.88c-1,0-2,.73-2.28,2.02-.27,1.29.41,2.05,1.41,2.05s2.02-.75,2.29-2.04c.27-1.27-.43-2.03-1.43-2.03Z"/>
      <path class="cls-8" d="M219.31,115.56c.24-1.12-.25-1.69-1.17-1.69s-1.69.58-1.94,1.76l-.64,3.03h-.91l1.17-5.48h.91l-.17.78c.48-.57,1.21-.88,1.95-.88,1.27,0,2.07.78,1.74,2.35l-.69,3.23h-.9l.66-3.1Z"/>
    </g>
    <g>
      <path class="cls-8" d="M236.65,110.64h4.72l-.16.74h-1.9l-1.32,6.23h-.91l1.32-6.23h-1.91l.16-.74Z"/>
      <path class="cls-8" d="M243.38,117.7c-1.55,0-2.5-1.1-2.12-2.84.37-1.73,1.82-2.82,3.37-2.82s2.54,1.09,2.17,2.82c-.37,1.74-1.85,2.84-3.41,2.84ZM243.55,116.9c.95,0,2.02-.65,2.31-2.04.29-1.38-.48-2.03-1.42-2.03s-1.97.65-2.26,2.03c-.29,1.39.42,2.04,1.37,2.04Z"/>
      <path class="cls-8" d="M252.07,114.52c.24-1.12-.25-1.69-1.17-1.69s-1.69.58-1.94,1.76l-.64,3.03h-.91l1.16-5.48h.91l-.17.78c.48-.57,1.21-.88,1.95-.88,1.27,0,2.07.78,1.74,2.35l-.69,3.23h-.9l.66-3.1Z"/>
      <path class="cls-8" d="M258.75,112.13h.94l-5.01,8.06h-.94l1.64-2.64-1.06-5.42h1.01l.78,4.44,2.64-4.44Z"/>
      <path class="cls-8" d="M259.71,117.67c-.35,0-.56-.27-.49-.62.08-.35.4-.62.75-.62.33,0,.54.27.47.62-.07.35-.4.62-.73.62Z"/>
    </g>
    <g>
      <path class="cls-8" d="M16.71,90.51v6.98h-.91l-3.66-5.55v5.55h-.91v-6.98h.91l3.66,5.54v-5.54h.91Z"/>
      <path class="cls-8" d="M20.65,97.58c-1.55,0-2.73-1.1-2.73-2.84s1.22-2.82,2.77-2.82,2.77,1.09,2.77,2.82-1.25,2.84-2.81,2.84ZM20.65,96.78c.95,0,1.88-.65,1.88-2.04s-.91-2.03-1.85-2.03-1.83.65-1.83,2.03.85,2.04,1.8,2.04Z"/>
      <path class="cls-8" d="M29.52,97.49h-.91v-.81c-.35.57-1.02.89-1.75.89-1.26,0-2.25-.78-2.25-2.35v-3.21h.9v3.09c0,1.11.61,1.68,1.53,1.68s1.57-.58,1.57-1.76v-3.01h.91v5.48Z"/>
      <path class="cls-8" d="M35.07,94.39c0-1.12-.61-1.69-1.53-1.69s-1.57.58-1.57,1.76v3.03h-.91v-5.48h.91v.78c.36-.57,1.02-.88,1.76-.88,1.27,0,2.24.78,2.24,2.35v3.23h-.9v-3.1Z"/>
    </g>
    <g>
      <path class="cls-8" d="M339.82,24.9l1.71,4.64,1.7-4.64h.97l-2.15,5.48h-1.06l-2.15-5.48h.98Z"/>
      <path class="cls-8" d="M347.47,30.47c-1.56,0-2.71-1.1-2.71-2.84s1.11-2.82,2.71-2.82,2.63,1.12,2.63,2.62c0,.2,0,.36-.03.55h-4.38c.07,1.11.85,1.72,1.78,1.72.82,0,1.34-.42,1.54-1.01h.98c-.28,1-1.16,1.78-2.52,1.78ZM345.7,27.24h3.46c.01-1.07-.79-1.66-1.73-1.66-.89,0-1.63.59-1.73,1.66Z"/>
      <path class="cls-8" d="M352.21,30.38h-.91v-5.48h.91v.89c.31-.61.9-.99,1.77-.99v.94h-.24c-.87,0-1.53.39-1.53,1.66v2.98Z"/>
      <path class="cls-8" d="M357.99,24.81c1.48,0,2.6,1.1,2.6,2.81s-1.13,2.85-2.6,2.85c-1,0-1.71-.5-2.05-1.1v1.01h-.91v-7.4h.91v2.94c.35-.61,1.08-1.11,2.05-1.11ZM357.8,25.6c-.99,0-1.86.76-1.86,2.03s.87,2.04,1.86,2.04,1.86-.76,1.86-2.05-.85-2.02-1.86-2.02Z"/>
    </g>
    <g>
      <path class="cls-8" d="M335.02,33.4l-.59,2.27h-1.01l.96-2.27h.64ZM336.65,33.4l-.59,2.27h-1.01l.96-2.27h.64Z"/>
      <path class="cls-8" d="M337.98,35.65h-.71v-.75h.71v-1.38h.91v1.38h1.43v.75h-1.43v3.23c0,.54.2.73.76.73h.67v.77h-.82c-.97,0-1.52-.4-1.52-1.5v-3.23Z"/>
      <path class="cls-8" d="M343.81,40.47c-1.55,0-2.73-1.1-2.73-2.84s1.22-2.82,2.77-2.82,2.77,1.09,2.77,2.82-1.25,2.84-2.81,2.84ZM343.81,39.67c.95,0,1.88-.65,1.88-2.04s-.91-2.03-1.85-2.03-1.83.65-1.83,2.03.85,2.04,1.8,2.04Z"/>
      <path class="cls-8" d="M353.45,34.81c1.48,0,2.6,1.1,2.6,2.81s-1.13,2.85-2.6,2.85c-1,0-1.71-.5-2.05-1.1v1.01h-.91v-7.4h.91v2.94c.35-.61,1.08-1.11,2.05-1.11ZM353.26,35.6c-.99,0-1.86.76-1.86,2.03s.87,2.04,1.86,2.04,1.86-.76,1.86-2.05-.85-2.02-1.86-2.02Z"/>
      <path class="cls-8" d="M359.62,40.47c-1.56,0-2.71-1.1-2.71-2.84s1.11-2.82,2.71-2.82,2.63,1.12,2.63,2.62c0,.2,0,.36-.03.55h-4.38c.07,1.11.85,1.72,1.78,1.72.82,0,1.34-.42,1.54-1.01h.98c-.28,1-1.16,1.78-2.52,1.78ZM357.85,37.24h3.46c0-1.07-.79-1.66-1.73-1.66-.89,0-1.63.59-1.73,1.66Z"/>
      <path class="cls-8" d="M363.09,35.68l.59-2.27h1.01l-.96,2.27h-.64ZM364.72,35.68l.59-2.27h1.01l-.96,2.27h-.64Z"/>
    </g>
    <g>
      <path class="cls-8" d="M339.82,88.07l1.71,4.64,1.7-4.64h.97l-2.15,5.48h-1.06l-2.15-5.48h.98Z"/>
      <path class="cls-8" d="M347.47,93.64c-1.56,0-2.71-1.1-2.71-2.84s1.11-2.82,2.71-2.82,2.63,1.12,2.63,2.62c0,.2,0,.36-.03.55h-4.38c.07,1.11.85,1.72,1.78,1.72.82,0,1.34-.42,1.54-1.01h.98c-.28,1-1.16,1.78-2.52,1.78ZM345.7,90.41h3.46c.01-1.07-.79-1.66-1.73-1.66-.89,0-1.63.59-1.73,1.66Z"/>
      <path class="cls-8" d="M352.21,93.55h-.91v-5.48h.91v.89c.31-.61.9-.99,1.77-.99v.94h-.24c-.87,0-1.53.39-1.53,1.66v2.98Z"/>
      <path class="cls-8" d="M357.99,87.98c1.48,0,2.6,1.1,2.6,2.81s-1.13,2.85-2.6,2.85c-1,0-1.71-.5-2.05-1.1v1.01h-.91v-7.4h.91v2.94c.35-.61,1.08-1.11,2.05-1.11ZM357.8,88.77c-.99,0-1.86.76-1.86,2.03s.87,2.04,1.86,2.04,1.86-.76,1.86-2.05-.85-2.02-1.86-2.02Z"/>
    </g>
    <g>
      <path class="cls-8" d="M335.02,96.57l-.59,2.27h-1.01l.96-2.27h.64ZM336.65,96.57l-.59,2.27h-1.01l.96-2.27h.64Z"/>
      <path class="cls-8" d="M337.98,98.82h-.71v-.75h.71v-1.38h.91v1.38h1.43v.75h-1.43v3.23c0,.54.2.73.76.73h.67v.77h-.82c-.97,0-1.52-.4-1.52-1.5v-3.23Z"/>
      <path class="cls-8" d="M343.81,103.64c-1.55,0-2.73-1.1-2.73-2.84s1.22-2.82,2.77-2.82,2.77,1.09,2.77,2.82-1.25,2.84-2.81,2.84ZM343.81,102.84c.95,0,1.88-.65,1.88-2.04s-.91-2.03-1.85-2.03-1.83.65-1.83,2.03.85,2.04,1.8,2.04Z"/>
      <path class="cls-8" d="M353.45,97.98c1.48,0,2.6,1.1,2.6,2.81s-1.13,2.85-2.6,2.85c-1,0-1.71-.5-2.05-1.1v1.01h-.91v-7.4h.91v2.94c.35-.61,1.08-1.11,2.05-1.11ZM353.26,98.77c-.99,0-1.86.76-1.86,2.03s.87,2.04,1.86,2.04,1.86-.76,1.86-2.05-.85-2.02-1.86-2.02Z"/>
      <path class="cls-8" d="M359.62,103.64c-1.56,0-2.71-1.1-2.71-2.84s1.11-2.82,2.71-2.82,2.63,1.12,2.63,2.62c0,.2,0,.36-.03.55h-4.38c.07,1.11.85,1.72,1.78,1.72.82,0,1.34-.42,1.54-1.01h.98c-.28,1-1.16,1.78-2.52,1.78ZM357.85,100.41h3.46c0-1.07-.79-1.66-1.73-1.66-.89,0-1.63.59-1.73,1.66Z"/>
      <path class="cls-8" d="M363.09,98.85l.59-2.27h1.01l-.96,2.27h-.64ZM364.72,98.85l.59-2.27h1.01l-.96,2.27h-.64Z"/>
    </g>
    <g>
      <path class="cls-8" d="M61.15,24.9l1.71,4.64,1.7-4.64h.97l-2.15,5.48h-1.06l-2.15-5.48h.98Z"/>
      <path class="cls-8" d="M68.8,30.47c-1.56,0-2.71-1.1-2.71-2.84s1.11-2.82,2.71-2.82,2.63,1.12,2.63,2.62c0,.2,0,.36-.03.55h-4.38c.07,1.11.85,1.72,1.78,1.72.82,0,1.34-.42,1.54-1.01h.98c-.28,1-1.16,1.78-2.52,1.78ZM67.03,27.24h3.46c.01-1.07-.79-1.66-1.73-1.66-.89,0-1.63.59-1.73,1.66Z"/>
      <path class="cls-8" d="M73.54,30.38h-.91v-5.48h.91v.89c.31-.61.9-.99,1.77-.99v.94h-.24c-.87,0-1.53.39-1.53,1.66v2.98Z"/>
      <path class="cls-8" d="M79.32,24.81c1.48,0,2.6,1.1,2.6,2.81s-1.13,2.85-2.6,2.85c-1,0-1.71-.5-2.05-1.1v1.01h-.91v-7.4h.91v2.94c.35-.61,1.08-1.11,2.05-1.11ZM79.13,25.6c-.99,0-1.86.76-1.86,2.03s.87,2.04,1.86,2.04,1.86-.76,1.86-2.05-.85-2.02-1.86-2.02Z"/>
    </g>
    <g>
      <path class="cls-8" d="M56.35,33.4l-.59,2.27h-1.01l.96-2.27h.64ZM57.98,33.4l-.59,2.27h-1.01l.96-2.27h.64Z"/>
      <path class="cls-8" d="M59.31,35.65h-.71v-.75h.71v-1.38h.91v1.38h1.43v.75h-1.43v3.23c0,.54.2.73.76.73h.67v.77h-.82c-.97,0-1.52-.4-1.52-1.5v-3.23Z"/>
      <path class="cls-8" d="M65.14,40.47c-1.55,0-2.73-1.1-2.73-2.84s1.22-2.82,2.77-2.82,2.77,1.09,2.77,2.82-1.25,2.84-2.81,2.84ZM65.14,39.67c.95,0,1.88-.65,1.88-2.04s-.91-2.03-1.85-2.03-1.83.65-1.83,2.03.85,2.04,1.8,2.04Z"/>
      <path class="cls-8" d="M74.78,34.81c1.48,0,2.6,1.1,2.6,2.81s-1.13,2.85-2.6,2.85c-1,0-1.71-.5-2.05-1.1v1.01h-.91v-7.4h.91v2.94c.35-.61,1.08-1.11,2.05-1.11ZM74.59,35.6c-.99,0-1.86.76-1.86,2.03s.87,2.04,1.86,2.04,1.86-.76,1.86-2.05-.85-2.02-1.86-2.02Z"/>
      <path class="cls-8" d="M80.95,40.47c-1.56,0-2.71-1.1-2.71-2.84s1.11-2.82,2.71-2.82,2.63,1.12,2.63,2.62c0,.2,0,.36-.03.55h-4.38c.07,1.11.85,1.72,1.78,1.72.82,0,1.34-.42,1.54-1.01h.98c-.28,1-1.16,1.78-2.52,1.78ZM79.18,37.24h3.46c0-1.07-.79-1.66-1.73-1.66-.89,0-1.63.59-1.73,1.66Z"/>
      <path class="cls-8" d="M84.42,35.68l.59-2.27h1.01l-.96,2.27h-.64ZM86.05,35.68l.59-2.27h1.01l-.96,2.27h-.64Z"/>
    </g>
    <g>
      <path class="cls-8" d="M56.46,88.07l1.71,4.64,1.7-4.64h.97l-2.15,5.48h-1.06l-2.15-5.48h.98Z"/>
      <path class="cls-8" d="M64.11,93.64c-1.56,0-2.71-1.1-2.71-2.84s1.11-2.82,2.71-2.82,2.63,1.12,2.63,2.62c0,.2,0,.36-.03.55h-4.38c.07,1.11.85,1.72,1.78,1.72.82,0,1.34-.42,1.54-1.01h.98c-.28,1-1.16,1.78-2.52,1.78ZM62.34,90.41h3.46c0-1.07-.79-1.66-1.73-1.66-.89,0-1.63.59-1.73,1.66Z"/>
      <path class="cls-8" d="M68.85,93.55h-.91v-5.48h.91v.89c.31-.61.9-.99,1.77-.99v.94h-.24c-.87,0-1.53.39-1.53,1.66v2.98Z"/>
      <path class="cls-8" d="M74.63,87.98c1.48,0,2.6,1.1,2.6,2.81s-1.13,2.85-2.6,2.85c-1,0-1.71-.5-2.05-1.1v1.01h-.91v-7.4h.91v2.94c.35-.61,1.08-1.11,2.05-1.11ZM74.44,88.77c-.99,0-1.86.76-1.86,2.03s.87,2.04,1.86,2.04,1.86-.76,1.86-2.05-.85-2.02-1.86-2.02Z"/>
    </g>
    <g>
      <path class="cls-8" d="M51.66,96.57l-.59,2.27h-1.01l.96-2.27h.64ZM53.29,96.57l-.59,2.27h-1.01l.96-2.27h.64Z"/>
      <path class="cls-8" d="M54.62,98.82h-.71v-.75h.71v-1.38h.91v1.38h1.43v.75h-1.43v3.23c0,.54.2.73.76.73h.67v.77h-.82c-.97,0-1.52-.4-1.52-1.5v-3.23Z"/>
      <path class="cls-8" d="M60.45,103.64c-1.55,0-2.73-1.1-2.73-2.84s1.22-2.82,2.77-2.82,2.77,1.09,2.77,2.82-1.25,2.84-2.81,2.84ZM60.45,102.84c.95,0,1.88-.65,1.88-2.04s-.91-2.03-1.85-2.03-1.83.65-1.83,2.03.85,2.04,1.8,2.04Z"/>
      <path class="cls-8" d="M70.09,97.98c1.48,0,2.6,1.1,2.6,2.81s-1.13,2.85-2.6,2.85c-1,0-1.71-.5-2.05-1.1v1.01h-.91v-7.4h.91v2.94c.35-.61,1.08-1.11,2.05-1.11ZM69.9,98.77c-.99,0-1.86.76-1.86,2.03s.87,2.04,1.86,2.04,1.86-.76,1.86-2.05-.85-2.02-1.86-2.02Z"/>
      <path class="cls-8" d="M76.26,103.64c-1.56,0-2.71-1.1-2.71-2.84s1.11-2.82,2.71-2.82,2.63,1.12,2.63,2.62c0,.2,0,.36-.03.55h-4.38c.07,1.11.85,1.72,1.78,1.72.82,0,1.34-.42,1.54-1.01h.98c-.28,1-1.16,1.78-2.52,1.78ZM74.49,100.41h3.46c0-1.07-.79-1.66-1.73-1.66-.89,0-1.63.59-1.73,1.66Z"/>
      <path class="cls-8" d="M79.73,98.85l.59-2.27h1.01l-.96,2.27h-.64ZM81.36,98.85l.59-2.27h1.01l-.96,2.27h-.64Z"/>
    </g>
    <g>
      <path class="cls-8" d="M103.44,93.87c0-1.12-.6-1.69-1.5-1.69s-1.55.59-1.55,1.77v3.02h-.9v-3.1c0-1.12-.6-1.69-1.5-1.69s-1.55.59-1.55,1.77v3.02h-.91v-5.48h.91v.79c.36-.58,1.01-.89,1.73-.89.9,0,1.65.4,2.01,1.22.32-.79,1.1-1.22,1.94-1.22,1.25,0,2.22.78,2.22,2.35v3.23h-.9v-3.1Z"/>
      <path class="cls-8" d="M108.22,97.06c-1.55,0-2.73-1.1-2.73-2.84s1.22-2.82,2.77-2.82,2.77,1.09,2.77,2.82-1.25,2.84-2.81,2.84ZM108.22,96.26c.95,0,1.88-.65,1.88-2.04s-.91-2.03-1.85-2.03-1.83.65-1.83,2.03.85,2.04,1.8,2.04Z"/>
      <path class="cls-8" d="M113.14,96.97h-.91v-5.48h.91v.89c.31-.61.9-.99,1.77-.99v.94h-.24c-.87,0-1.53.39-1.53,1.66v2.98Z"/>
      <path class="cls-8" d="M118.33,97.06c-1.56,0-2.71-1.1-2.71-2.84s1.11-2.82,2.71-2.82,2.63,1.12,2.63,2.62c0,.2,0,.36-.03.55h-4.38c.07,1.11.85,1.72,1.78,1.72.82,0,1.34-.42,1.54-1.01h.98c-.28,1-1.16,1.78-2.52,1.78ZM116.56,93.83h3.46c0-1.07-.79-1.66-1.73-1.66-.89,0-1.63.59-1.73,1.66Z"/>
      <path class="cls-8" d="M127.9,90.76v2.17h2.13v.77h-2.13v2.16h-.85v-2.16h-2.12v-.77h2.12v-2.17h.85Z"/>
      <path class="cls-8" d="M136.59,91.4c1.02,0,1.72.52,2.04,1.09v-1h.92v5.48h-.92v-1.02c-.33.59-1.04,1.11-2.05,1.11-1.46,0-2.59-1.15-2.59-2.85s1.13-2.81,2.6-2.81ZM136.77,92.19c-1,0-1.85.73-1.85,2.02s.85,2.05,1.85,2.05,1.86-.75,1.86-2.04-.86-2.03-1.86-2.03Z"/>
      <path class="cls-8" d="M143.36,91.4c.86,0,1.65.44,2.03,1.07v-2.9h.92v7.4h-.92v-1.03c-.33.61-1.04,1.12-2.04,1.12-1.47,0-2.6-1.15-2.6-2.85s1.13-2.81,2.61-2.81ZM143.53,92.19c-1,0-1.85.73-1.85,2.02s.85,2.05,1.85,2.05,1.86-.75,1.86-2.04-.86-2.03-1.86-2.03Z"/>
      <path class="cls-8" d="M148.79,91.49v6.67c0,.99-.52,1.41-1.45,1.41h-.53v-.77h.38c.5,0,.69-.18.69-.66v-6.65h.91ZM147.73,89.98c0-.35.27-.62.61-.62s.61.27.61.62-.27.62-.61.62-.61-.27-.61-.62Z"/>
      <path class="cls-8" d="M152.7,97.06c-1.56,0-2.71-1.1-2.71-2.84s1.11-2.82,2.71-2.82,2.63,1.12,2.63,2.62c0,.2,0,.36-.03.55h-4.38c.07,1.11.85,1.72,1.78,1.72.82,0,1.34-.42,1.54-1.01h.98c-.28,1-1.16,1.78-2.52,1.78ZM150.93,93.83h3.46c.01-1.07-.79-1.66-1.73-1.66-.89,0-1.63.59-1.73,1.66Z"/>
      <path class="cls-8" d="M158.86,91.4c1.36,0,2.25.7,2.53,1.85h-.98c-.19-.66-.74-1.08-1.55-1.08-1,0-1.74.71-1.74,2.05s.74,2.07,1.74,2.07c.81,0,1.35-.39,1.55-1.08h.98c-.28,1.09-1.17,1.85-2.53,1.85-1.56,0-2.67-1.1-2.67-2.84s1.11-2.82,2.67-2.82Z"/>
      <path class="cls-8" d="M162.8,92.24h-.71v-.75h.71v-1.38h.91v1.38h1.43v.75h-1.43v3.23c0,.54.2.73.76.73h.67v.77h-.82c-.97,0-1.52-.4-1.52-1.5v-3.23Z"/>
      <path class="cls-8" d="M166.09,89.98c0-.35.27-.62.62-.62.33,0,.6.27.6.62s-.27.62-.6.62c-.35,0-.62-.27-.62-.62ZM166.24,91.49h.91v5.48h-.91v-5.48Z"/>
      <path class="cls-8" d="M169.03,91.49l1.71,4.64,1.7-4.64h.97l-2.15,5.48h-1.06l-2.15-5.48h.98Z"/>
      <path class="cls-8" d="M176.68,97.06c-1.56,0-2.71-1.1-2.71-2.84s1.11-2.82,2.71-2.82,2.63,1.12,2.63,2.62c0,.2,0,.36-.03.55h-4.38c.07,1.11.85,1.72,1.78,1.72.82,0,1.34-.42,1.54-1.01h.98c-.28,1-1.16,1.78-2.52,1.78ZM174.91,93.83h3.46c0-1.07-.79-1.66-1.73-1.66-.89,0-1.63.59-1.73,1.66Z"/>
    </g>
    <g>
      <path class="cls-8" d="M199.04,92.24h-.71v-.75h.71v-1.38h.91v1.38h1.43v.75h-1.43v3.23c0,.54.2.73.76.73h.67v.77h-.82c-.97,0-1.52-.4-1.52-1.5v-3.23Z"/>
      <path class="cls-8" d="M202.48,89.57h.91v2.71c.36-.58,1.04-.89,1.81-.89,1.22,0,2.19.78,2.19,2.35v3.23h-.9v-3.1c0-1.12-.61-1.69-1.53-1.69s-1.57.58-1.57,1.76v3.03h-.91v-7.4Z"/>
      <path class="cls-8" d="M211.14,91.4c1.02,0,1.72.52,2.04,1.09v-1h.92v5.48h-.92v-1.02c-.33.59-1.04,1.11-2.05,1.11-1.46,0-2.59-1.15-2.59-2.85s1.13-2.81,2.6-2.81ZM211.32,92.19c-1,0-1.85.73-1.85,2.02s.85,2.05,1.85,2.05,1.86-.75,1.86-2.04-.86-2.03-1.86-2.03Z"/>
      <path class="cls-8" d="M219.65,93.87c0-1.12-.61-1.69-1.53-1.69s-1.57.58-1.57,1.76v3.03h-.91v-5.48h.91v.78c.36-.57,1.02-.88,1.76-.88,1.27,0,2.24.78,2.24,2.35v3.23h-.9v-3.1Z"/>
    </g>
    <g>
      <path class="cls-8" d="M239.58,93.87c0-1.12-.61-1.69-1.53-1.69s-1.57.58-1.57,1.76v3.03h-.91v-5.48h.91v.78c.36-.57,1.02-.88,1.76-.88,1.27,0,2.24.78,2.24,2.35v3.23h-.9v-3.1Z"/>
      <path class="cls-8" d="M244.36,97.06c-1.55,0-2.73-1.1-2.73-2.84s1.22-2.82,2.77-2.82,2.77,1.09,2.77,2.82-1.25,2.84-2.81,2.84ZM244.36,96.26c.95,0,1.88-.65,1.88-2.04s-.91-2.03-1.85-2.03-1.83.65-1.83,2.03.85,2.04,1.8,2.04Z"/>
      <path class="cls-8" d="M253.23,96.97h-.91v-.81c-.35.57-1.02.89-1.75.89-1.26,0-2.25-.78-2.25-2.35v-3.21h.9v3.09c0,1.11.61,1.68,1.53,1.68s1.57-.58,1.57-1.76v-3.01h.91v5.48Z"/>
      <path class="cls-8" d="M258.78,93.87c0-1.12-.61-1.69-1.53-1.69s-1.57.58-1.57,1.76v3.03h-.91v-5.48h.91v.78c.36-.57,1.02-.88,1.76-.88,1.27,0,2.24.78,2.24,2.35v3.23h-.9v-3.1Z"/>
      <path class="cls-8" d="M261.46,97.03c-.35,0-.62-.27-.62-.62s.27-.62.62-.62c.33,0,.6.27.6.62s-.27.62-.6.62Z"/>
    </g>
    <line class="cls-5" x1="47.88" y1="85.06" x2="47.88" y2="124.91"/>
    <line class="cls-4" x1="85.88" y1="85.06" x2="85.88" y2="124.61"/>
    <line class="cls-4" x1="190.88" y1="85.06" x2="190.88" y2="124.61"/>
    <line class="cls-4" x1="227.68" y1="85.06" x2="227.68" y2="124.61"/>
    <g>
      <path class="cls-8" d="M284.88,110.7h.98l1.34,5.72,3.77-5.72h.97l-1.47,6.92h-.91l1.1-5.16-3.39,5.16h-.64l-1.21-5.17-1.1,5.17h-.91l1.47-6.92Z"/>
      <path class="cls-8" d="M294.39,117.71c-1.55,0-2.5-1.1-2.12-2.84.37-1.73,1.82-2.82,3.37-2.82s2.54,1.09,2.17,2.82c-.37,1.74-1.85,2.84-3.41,2.84ZM294.56,116.91c.95,0,2.02-.65,2.31-2.04.29-1.38-.48-2.03-1.42-2.03s-1.97.65-2.26,2.03c-.29,1.39.42,2.04,1.37,2.04Z"/>
      <path class="cls-8" d="M299.99,110.22h.91l-1.57,7.4h-.91l1.57-7.4Z"/>
      <path class="cls-8" d="M302.45,110.22h.91l-1.57,7.4h-.91l1.57-7.4Z"/>
      <path class="cls-8" d="M308.28,112.14h.94l-5.01,8.06h-.94l1.64-2.64-1.06-5.42h1.01l.78,4.44,2.64-4.44Z"/>
    </g>
    <g>
      <path class="cls-8" d="M347.37,113.19h.91l-1.17,5.48h-.91l1.17-5.48ZM347.54,111.68c.07-.35.4-.62.75-.62.33,0,.54.27.47.62-.08.35-.4.62-.73.62-.35,0-.56-.27-.49-.62Z"/>
      <path class="cls-8" d="M350.59,118.76c-1.28,0-2.03-.7-1.88-1.7h.94c-.06.53.32.93,1.09.93.72,0,1.2-.36,1.29-.81.26-1.22-3.13-.51-2.7-2.55.18-.84,1.12-1.53,2.33-1.53s1.87.65,1.7,1.72h-.91c.08-.55-.26-.95-.99-.95-.67,0-1.14.32-1.23.76-.28,1.3,3.05.59,2.68,2.55-.19.9-1.12,1.58-2.33,1.58Z"/>
    </g>
    <g>
      <path class="cls-8" d="M287.63,90.51v6.98h-.91l-3.66-5.55v5.55h-.91v-6.98h.91l3.66,5.54v-5.54h.91Z"/>
      <path class="cls-8" d="M291.57,97.58c-1.55,0-2.73-1.1-2.73-2.84s1.22-2.82,2.77-2.82,2.77,1.09,2.77,2.82-1.25,2.84-2.81,2.84ZM291.57,96.78c.95,0,1.88-.65,1.88-2.04s-.91-2.03-1.85-2.03-1.83.65-1.83,2.03.85,2.04,1.8,2.04Z"/>
      <path class="cls-8" d="M300.44,97.49h-.91v-.81c-.35.57-1.02.89-1.75.89-1.26,0-2.25-.78-2.25-2.35v-3.21h.9v3.09c0,1.11.61,1.68,1.53,1.68s1.57-.58,1.57-1.76v-3.01h.91v5.48Z"/>
      <path class="cls-8" d="M305.99,94.39c0-1.12-.61-1.69-1.53-1.69s-1.57.58-1.57,1.76v3.03h-.91v-5.48h.91v.78c.36-.57,1.02-.88,1.76-.88,1.27,0,2.24.78,2.24,2.35v3.23h-.9v-3.1Z"/>
    </g>
    <g>
      <path class="cls-8" d="M396.28,92.76h-.71v-.75h.71v-1.38h.91v1.38h1.43v.75h-1.43v3.23c0,.54.2.73.76.73h.67v.77h-.82c-.97,0-1.52-.4-1.52-1.5v-3.23Z"/>
      <path class="cls-8" d="M399.72,90.09h.91v2.71c.36-.58,1.04-.89,1.81-.89,1.22,0,2.19.78,2.19,2.35v3.23h-.9v-3.1c0-1.12-.61-1.69-1.53-1.69s-1.57.58-1.57,1.76v3.03h-.91v-7.4Z"/>
      <path class="cls-8" d="M408.48,97.58c-1.56,0-2.71-1.1-2.71-2.84s1.11-2.82,2.71-2.82,2.63,1.12,2.63,2.62c0,.2,0,.36-.03.55h-4.38c.07,1.11.85,1.72,1.78,1.72.82,0,1.34-.42,1.54-1.01h.98c-.28,1-1.16,1.78-2.52,1.78ZM406.71,94.35h3.46c.01-1.07-.79-1.66-1.73-1.66-.89,0-1.63.59-1.73,1.66Z"/>
    </g>
    <g>
      <path class="cls-8" d="M447.06,93.86c0-1.12-.6-1.69-1.5-1.69s-1.55.59-1.55,1.77v3.02h-.9v-3.1c0-1.12-.6-1.69-1.5-1.69s-1.55.59-1.55,1.77v3.02h-.91v-5.48h.91v.79c.36-.58,1.01-.89,1.73-.89.9,0,1.65.4,2.01,1.22.32-.79,1.1-1.22,1.94-1.22,1.25,0,2.22.78,2.22,2.35v3.23h-.9v-3.1Z"/>
      <path class="cls-8" d="M451.84,97.05c-1.55,0-2.73-1.1-2.73-2.84s1.22-2.82,2.77-2.82,2.77,1.09,2.77,2.82-1.25,2.84-2.81,2.84ZM451.84,96.25c.95,0,1.88-.65,1.88-2.04s-.91-2.03-1.85-2.03-1.83.65-1.83,2.03.85,2.04,1.8,2.04Z"/>
      <path class="cls-8" d="M457.79,97.05c-1.28,0-2.18-.7-2.24-1.7h.94c.05.53.52.93,1.29.93.72,0,1.12-.36,1.12-.81,0-1.22-3.24-.51-3.24-2.55,0-.84.79-1.53,2.01-1.53s2.01.65,2.07,1.72h-.91c-.04-.55-.46-.95-1.19-.95-.67,0-1.07.32-1.07.76,0,1.3,3.18.59,3.22,2.55,0,.9-.79,1.58-2,1.58Z"/>
      <path class="cls-8" d="M461.27,92.23h-.71v-.75h.71v-1.38h.91v1.38h1.43v.75h-1.43v3.23c0,.54.2.73.76.73h.67v.77h-.82c-.97,0-1.52-.4-1.52-1.5v-3.23Z"/>
      <path class="cls-8" d="M470.45,90.75v2.17h2.13v.77h-2.13v2.16h-.85v-2.16h-2.12v-.77h2.12v-2.17h.85Z"/>
      <path class="cls-8" d="M479.14,91.39c1.02,0,1.72.52,2.04,1.09v-1h.92v5.48h-.92v-1.02c-.33.59-1.04,1.11-2.05,1.11-1.46,0-2.59-1.15-2.59-2.85s1.13-2.81,2.6-2.81ZM479.32,92.18c-1,0-1.85.73-1.85,2.02s.85,2.05,1.85,2.05,1.86-.75,1.86-2.04-.86-2.03-1.86-2.03Z"/>
      <path class="cls-8" d="M485.91,91.39c.86,0,1.65.44,2.03,1.07v-2.9h.92v7.4h-.92v-1.03c-.33.61-1.04,1.12-2.04,1.12-1.47,0-2.6-1.15-2.6-2.85s1.13-2.81,2.61-2.81ZM486.08,92.18c-1,0-1.85.73-1.85,2.02s.85,2.05,1.85,2.05,1.86-.75,1.86-2.04-.86-2.03-1.86-2.03Z"/>
      <path class="cls-8" d="M491.34,91.48v6.67c0,.99-.52,1.41-1.45,1.41h-.53v-.77h.38c.5,0,.69-.18.69-.66v-6.65h.91ZM490.28,89.97c0-.35.27-.62.61-.62s.61.27.61.62-.27.62-.61.62-.61-.27-.61-.62Z"/>
      <path class="cls-8" d="M495.25,97.05c-1.56,0-2.71-1.1-2.71-2.84s1.11-2.82,2.71-2.82,2.63,1.12,2.63,2.62c0,.2,0,.36-.03.55h-4.38c.07,1.11.85,1.72,1.78,1.72.82,0,1.34-.42,1.54-1.01h.98c-.28,1-1.16,1.78-2.52,1.78ZM493.48,93.82h3.46c0-1.07-.79-1.66-1.73-1.66-.89,0-1.63.59-1.73,1.66Z"/>
      <path class="cls-8" d="M501.41,91.39c1.36,0,2.25.7,2.53,1.85h-.98c-.19-.66-.74-1.08-1.55-1.08-1,0-1.74.71-1.74,2.05s.74,2.07,1.74,2.07c.81,0,1.35-.39,1.55-1.08h.98c-.28,1.09-1.17,1.85-2.53,1.85-1.56,0-2.67-1.1-2.67-2.84s1.11-2.82,2.67-2.82Z"/>
      <path class="cls-8" d="M505.35,92.23h-.71v-.75h.71v-1.38h.91v1.38h1.43v.75h-1.43v3.23c0,.54.2.73.76.73h.67v.77h-.82c-.97,0-1.52-.4-1.52-1.5v-3.23Z"/>
      <path class="cls-8" d="M508.64,89.97c0-.35.27-.62.62-.62.33,0,.6.27.6.62s-.27.62-.6.62c-.35,0-.62-.27-.62-.62ZM508.79,91.48h.91v5.48h-.91v-5.48Z"/>
      <path class="cls-8" d="M511.58,91.48l1.71,4.64,1.7-4.64h.97l-2.15,5.48h-1.06l-2.15-5.48h.98Z"/>
      <path class="cls-8" d="M519.23,97.05c-1.56,0-2.71-1.1-2.71-2.84s1.11-2.82,2.71-2.82,2.63,1.12,2.63,2.62c0,.2,0,.36-.03.55h-4.38c.07,1.11.85,1.72,1.78,1.72.82,0,1.34-.42,1.54-1.01h.98c-.28,1-1.16,1.78-2.52,1.78ZM517.46,93.82h3.46c0-1.07-.79-1.66-1.73-1.66-.89,0-1.63.59-1.73,1.66Z"/>
      <path class="cls-8" d="M523.35,97.02c-.35,0-.62-.27-.62-.62s.27-.62.62-.62c.33,0,.6.27.6.62s-.27.62-.6.62Z"/>
    </g>
    <line class="cls-3" x1="321.88" y1="84.58" x2="321.88" y2="124.52"/>
    <line class="cls-3" x1="377.88" y1="84.58" x2="377.88" y2="124.52"/>
    <line class="cls-2" x1="427.88" y1="85.09" x2="427.88" y2="124.52"/>
    <g>
      <path class="cls-8" d="M397.99,113.94h-.71l.16-.75h.71l.29-1.38h.91l-.29,1.38h1.43l-.16.75h-1.43l-.69,3.23c-.12.54.04.73.6.73h.67l-.16.77h-.82c-.97,0-1.43-.4-1.2-1.5l.69-3.23Z"/>
      <path class="cls-8" d="M401.99,111.27h.91l-.58,2.71c.48-.58,1.23-.89,2-.89,1.22,0,2.02.78,1.69,2.35l-.69,3.23h-.9l.66-3.1c.24-1.12-.25-1.69-1.17-1.69s-1.69.58-1.94,1.76l-.64,3.03h-.91l1.57-7.4Z"/>
      <path class="cls-8" d="M409.17,118.76c-1.56,0-2.48-1.1-2.11-2.84.37-1.73,1.71-2.82,3.31-2.82s2.39,1.12,2.07,2.62c-.04.2-.09.36-.15.55h-4.38c-.17,1.11.48,1.72,1.41,1.72.82,0,1.43-.42,1.75-1.01h.98c-.49,1-1.54,1.78-2.9,1.78ZM408.09,115.53h3.46c.24-1.07-.44-1.66-1.38-1.66-.89,0-1.76.59-2.08,1.66Z"/>
    </g>
    <g>
      <path class="cls-8" d="M459.5,115.57c.24-1.12-.24-1.69-1.14-1.69s-1.67.59-1.92,1.77l-.64,3.02h-.9l.66-3.1c.24-1.12-.24-1.69-1.14-1.69s-1.68.59-1.93,1.77l-.64,3.02h-.91l1.17-5.48h.91l-.17.79c.48-.58,1.2-.89,1.92-.89.9,0,1.56.4,1.75,1.22.49-.79,1.36-1.22,2.2-1.22,1.25,0,2.05.78,1.72,2.35l-.69,3.23h-.9l.66-3.1Z"/>
      <path class="cls-8" d="M463.61,118.76c-1.55,0-2.5-1.1-2.12-2.84.37-1.73,1.82-2.82,3.37-2.82s2.54,1.09,2.17,2.82c-.37,1.74-1.85,2.84-3.41,2.84ZM463.78,117.96c.95,0,2.02-.65,2.31-2.04.29-1.38-.48-2.03-1.42-2.03s-1.97.65-2.26,2.03c-.3,1.39.42,2.04,1.37,2.04Z"/>
      <path class="cls-8" d="M469.56,118.76c-1.28,0-2.03-.7-1.88-1.7h.94c-.06.53.32.93,1.09.93.72,0,1.2-.36,1.29-.81.26-1.22-3.13-.51-2.7-2.55.18-.84,1.12-1.53,2.33-1.53s1.87.65,1.7,1.72h-.91c.08-.55-.26-.95-.99-.95-.67,0-1.14.32-1.23.76-.28,1.3,3.05.59,2.68,2.55-.19.9-1.12,1.58-2.33,1.58Z"/>
      <path class="cls-8" d="M474.07,113.94h-.71l.16-.75h.71l.29-1.38h.91l-.29,1.38h1.43l-.16.75h-1.43l-.69,3.23c-.12.54.04.73.6.73h.67l-.16.77h-.82c-.97,0-1.43-.4-1.2-1.5l.69-3.23Z"/>
      <path class="cls-8" d="M482.68,113.1c1.36,0,2.1.7,2.13,1.85h-.98c-.05-.66-.51-1.08-1.32-1.08-1,0-1.89.71-2.17,2.05-.29,1.36.3,2.07,1.3,2.07.81,0,1.43-.39,1.78-1.08h.98c-.51,1.09-1.56,1.85-2.92,1.85-1.56,0-2.44-1.1-2.07-2.84.37-1.72,1.71-2.82,3.27-2.82Z"/>
      <path class="cls-8" d="M488.68,113.1c1.02,0,1.61.52,1.81,1.09l.21-1h.92l-1.17,5.48h-.92l.22-1.02c-.46.59-1.28,1.11-2.28,1.11-1.46,0-2.34-1.15-1.98-2.85.36-1.71,1.73-2.81,3.2-2.81ZM488.7,113.89c-1,0-2,.73-2.28,2.02-.27,1.29.41,2.05,1.41,2.05s2.02-.75,2.29-2.04c.27-1.27-.43-2.03-1.43-2.03Z"/>
      <path class="cls-8" d="M492.91,118.67h-.91l1.17-5.48h.91l-.19.89c.44-.61,1.11-.99,1.98-.99l-.2.94h-.24c-.87,0-1.61.39-1.88,1.66l-.63,2.98Z"/>
      <path class="cls-8" d="M498.08,118.76c-1.56,0-2.48-1.1-2.11-2.84.37-1.73,1.71-2.82,3.31-2.82s2.39,1.12,2.07,2.62c-.04.2-.09.36-.15.55h-4.38c-.17,1.11.48,1.72,1.41,1.72.82,0,1.43-.42,1.75-1.01h.98c-.49,1-1.54,1.78-2.9,1.78ZM497,115.53h3.46c.24-1.07-.44-1.66-1.38-1.66-.89,0-1.76.59-2.08,1.66Z"/>
      <path class="cls-8" d="M503.11,113.94h-.71l.16-.75h.71l.08-.39c.26-1.22.98-1.77,2.38-1.77l-.16.76c-.82,0-1.15.3-1.3,1.01l-.08.39h1.15l-.16.75h-1.15l-1.01,4.73h-.91l1.01-4.73Z"/>
      <path class="cls-8" d="M510.08,118.67h-.91l.17-.81c-.47.57-1.21.89-1.94.89-1.26,0-2.08-.78-1.75-2.35l.68-3.21h.9l-.66,3.09c-.24,1.11.25,1.68,1.17,1.68s1.69-.58,1.94-1.76l.64-3.01h.91l-1.17,5.48Z"/>
      <path class="cls-8" d="M513.19,111.27h.91l-1.57,7.4h-.91l1.57-7.4Z"/>
      <path class="cls-8" d="M514.36,118.73c-.35,0-.56-.27-.49-.62.07-.35.4-.62.75-.62.33,0,.54.27.47.62-.07.35-.4.62-.73.62Z"/>
    </g>
  </g>
</svg>