<?xml version="1.0" encoding="UTF-8"?>
<svg id="Layer_2" data-name="Layer 2" xmlns="http://www.w3.org/2000/svg" viewBox="0 0 538.37 146.39">
  <defs>
    <style>
      .cls-1 {
        fill: #72adbb;
      }

      .cls-2 {
        fill: #accad4;
      }

      .cls-3 {
        fill: #231f20;
      }

      .cls-4 {
        stroke-dasharray: 4.42 4.42;
      }

      .cls-4, .cls-5, .cls-6, .cls-7, .cls-8, .cls-9, .cls-10, .cls-11, .cls-12, .cls-13, .cls-14, .cls-15, .cls-16, .cls-17 {
        fill: none;
        stroke: #2a5caa;
        stroke-miterlimit: 10;
        stroke-width: .75px;
      }

      .cls-18 {
        fill: #fff;
      }

      .cls-5 {
        stroke-dasharray: 3.66 3.66;
      }

      .cls-6 {
        stroke-dasharray: 3.64 3.64;
      }

      .cls-7 {
        stroke-dasharray: 3.95 3.95;
      }

      .cls-8 {
        stroke-dasharray: 3.91 3.91;
      }

      .cls-9 {
        stroke-dasharray: 4.43 4.43;
      }

      .cls-10 {
        stroke-dasharray: 4.07 4.07;
      }

      .cls-11 {
        stroke-dasharray: 3.95 3.95;
      }

      .cls-12 {
        stroke-dasharray: 4.37 4.37;
      }

      .cls-13 {
        stroke-dasharray: 3.89 3.89;
      }

      .cls-14 {
        stroke-dasharray: 3.99 3.99;
      }

      .cls-19 {
        fill: #2096a6;
      }

      .cls-15 {
        stroke-dasharray: 3.84 3.84;
      }

      .cls-16 {
        stroke-dasharray: 3.92 3.92;
      }
    </style>
  </defs>
  <g id="Layer_1-2" data-name="Layer 1">
    <g>
      <path class="cls-19" d="M538.37,133.65c0,7.04-1.88,12.75-4.2,12.75H6.42c-2.32,0-4.2-5.71-4.2-12.75V12.84C2.22,5.8,4.1.09,6.42.09h527.76c2.32,0,4.2,5.71,4.2,12.75v120.81Z"/>
      <path class="cls-18" d="M535.82,91.94c0,3.91-1.91,7.08-4.27,7.08L4.76,97.79c-2.36,0-4.27-1.93-4.27-5.84V13.63c0-3.91,1.91-7.08,4.27-7.08h526.79c2.36,0,4.27,3.17,4.27,7.08v78.32Z"/>
    </g>
    <g>
      <path class="cls-3" d="M19.65,57.81h1.01l.97,3.53,2.47-3.53h1.01l-3.19,4.34-.56,2.63h-.91l.56-2.63-1.36-4.34Z"/>
      <path class="cls-3" d="M26.96,64.87c-1.55,0-2.49-1.1-2.12-2.84.37-1.73,1.82-2.82,3.37-2.82s2.54,1.09,2.17,2.82c-.37,1.74-1.85,2.84-3.41,2.84ZM27.13,64.07c.95,0,2.02-.65,2.31-2.04.29-1.38-.48-2.03-1.42-2.03s-1.97.65-2.26,2.03c-.3,1.39.42,2.04,1.36,2.04Z"/>
      <path class="cls-3" d="M35.85,64.78h-.91l.17-.81c-.47.57-1.21.89-1.94.89-1.26,0-2.08-.78-1.75-2.35l.68-3.21h.9l-.66,3.09c-.24,1.11.25,1.68,1.17,1.68s1.69-.58,1.94-1.76l.64-3.01h.91l-1.16,5.48Z"/>
    </g>
    <g>
      <path class="cls-3" d="M60.42,64.87c-1.28,0-2.03-.7-1.88-1.7h.94c-.06.53.32.93,1.09.93.72,0,1.2-.36,1.29-.81.26-1.22-3.13-.51-2.7-2.55.18-.84,1.11-1.53,2.33-1.53s1.87.65,1.7,1.72h-.91c.08-.55-.26-.95-.99-.95-.67,0-1.14.32-1.23.76-.28,1.3,3.05.59,2.68,2.55-.19.9-1.12,1.58-2.33,1.58Z"/>
      <path class="cls-3" d="M65.29,57.38h.91l-.58,2.71c.48-.58,1.23-.89,2-.89,1.22,0,2.02.78,1.69,2.35l-.69,3.23h-.9l.66-3.1c.24-1.12-.25-1.69-1.17-1.69s-1.69.58-1.94,1.76l-.64,3.03h-.91l1.57-7.4Z"/>
      <path class="cls-3" d="M72.49,64.87c-1.55,0-2.49-1.1-2.12-2.84.37-1.73,1.82-2.82,3.37-2.82s2.54,1.09,2.17,2.82c-.37,1.74-1.85,2.84-3.41,2.84ZM72.66,64.07c.95,0,2.02-.65,2.31-2.04.29-1.38-.48-2.03-1.42-2.03s-1.97.65-2.26,2.03c-.3,1.39.42,2.04,1.36,2.04Z"/>
      <path class="cls-3" d="M81.38,64.78h-.91l.17-.81c-.47.57-1.21.89-1.94.89-1.26,0-2.08-.78-1.75-2.35l.68-3.21h.9l-.66,3.09c-.24,1.11.25,1.68,1.17,1.68s1.69-.58,1.94-1.76l.64-3.01h.91l-1.16,5.48Z"/>
      <path class="cls-3" d="M84.49,57.38h.91l-1.57,7.4h-.91l1.57-7.4Z"/>
      <path class="cls-3" d="M88.83,59.21c.86,0,1.56.44,1.8,1.07l.62-2.9h.92l-1.57,7.4h-.92l.22-1.03c-.46.61-1.28,1.12-2.28,1.12-1.47,0-2.35-1.15-1.99-2.85.36-1.71,1.73-2.81,3.21-2.81ZM88.84,60c-1,0-2,.73-2.28,2.02-.27,1.29.41,2.05,1.41,2.05s2.02-.75,2.29-2.04c.27-1.27-.43-2.03-1.43-2.03Z"/>
    </g>
    <g>
      <path class="cls-3" d="M233.94,57.81h1.01l.97,3.53,2.47-3.53h1.01l-3.19,4.34-.56,2.63h-.91l.56-2.63-1.36-4.34Z"/>
      <path class="cls-3" d="M241.25,64.87c-1.55,0-2.49-1.1-2.12-2.84.37-1.73,1.82-2.82,3.37-2.82s2.54,1.09,2.17,2.82c-.37,1.74-1.85,2.84-3.41,2.84ZM241.42,64.07c.95,0,2.02-.65,2.31-2.04.29-1.38-.48-2.03-1.42-2.03s-1.97.65-2.26,2.03c-.3,1.39.42,2.04,1.36,2.04Z"/>
      <path class="cls-3" d="M250.14,64.78h-.91l.17-.81c-.47.57-1.21.89-1.94.89-1.26,0-2.08-.78-1.75-2.35l.68-3.21h.9l-.66,3.09c-.24,1.11.25,1.68,1.17,1.68s1.69-.58,1.94-1.76l.64-3.01h.91l-1.16,5.48Z"/>
    </g>
    <g>
      <path class="cls-3" d="M278.46,64.87c-1.28,0-2.03-.7-1.88-1.7h.94c-.06.53.32.93,1.09.93.72,0,1.2-.36,1.29-.81.26-1.22-3.13-.51-2.7-2.55.18-.84,1.11-1.53,2.33-1.53s1.87.65,1.7,1.72h-.91c.08-.55-.26-.95-.99-.95-.67,0-1.14.32-1.23.76-.28,1.3,3.05.59,2.68,2.55-.19.9-1.12,1.58-2.33,1.58Z"/>
      <path class="cls-3" d="M283.33,57.38h.91l-.58,2.71c.48-.58,1.23-.89,2-.89,1.22,0,2.02.78,1.69,2.35l-.69,3.23h-.9l.66-3.1c.24-1.12-.25-1.69-1.17-1.69s-1.69.58-1.94,1.76l-.64,3.03h-.91l1.57-7.4Z"/>
      <path class="cls-3" d="M290.53,64.87c-1.55,0-2.49-1.1-2.12-2.84.37-1.73,1.82-2.82,3.37-2.82s2.54,1.09,2.17,2.82c-.37,1.74-1.85,2.84-3.41,2.84ZM290.7,64.07c.95,0,2.02-.65,2.31-2.04.29-1.38-.48-2.03-1.42-2.03s-1.97.65-2.26,2.03c-.3,1.39.42,2.04,1.36,2.04Z"/>
      <path class="cls-3" d="M299.42,64.78h-.91l.17-.81c-.47.57-1.21.89-1.94.89-1.26,0-2.08-.78-1.75-2.35l.68-3.21h.9l-.66,3.09c-.24,1.11.25,1.68,1.17,1.68s1.69-.58,1.94-1.76l.64-3.01h.91l-1.16,5.48Z"/>
      <path class="cls-3" d="M302.53,57.38h.91l-1.57,7.4h-.91l1.57-7.4Z"/>
      <path class="cls-3" d="M306.87,59.21c.86,0,1.56.44,1.8,1.07l.62-2.9h.92l-1.57,7.4h-.92l.22-1.03c-.46.61-1.28,1.12-2.28,1.12-1.47,0-2.35-1.15-1.99-2.85.36-1.71,1.73-2.81,3.21-2.81ZM306.88,60c-1,0-2,.73-2.28,2.02-.27,1.29.41,2.05,1.41,2.05s2.02-.75,2.29-2.04c.27-1.27-.43-2.03-1.43-2.03Z"/>
      <path class="cls-3" d="M314.85,61.68c.24-1.12-.25-1.69-1.17-1.69s-1.69.58-1.94,1.76l-.64,3.03h-.91l1.16-5.48h.91l-.17.78c.48-.57,1.21-.88,1.95-.88,1.27,0,2.07.78,1.74,2.35l-.69,3.23h-.9l.66-3.1Z"/>
      <path class="cls-3" d="M317.13,60.08l1.07-2.27h1.01l-1.44,2.27h-.64Z"/>
      <path class="cls-3" d="M319.98,60.05h-.71l.16-.75h.71l.29-1.38h.91l-.29,1.38h1.43l-.16.75h-1.43l-.69,3.23c-.11.54.05.73.6.73h.67l-.16.77h-.82c-.97,0-1.43-.4-1.2-1.5l.69-3.23Z"/>
    </g>
    <g>
      <path class="cls-3" d="M104.58,59.21c1.36,0,2.1.7,2.14,1.85h-.98c-.05-.66-.51-1.08-1.32-1.08-1,0-1.89.71-2.17,2.05-.29,1.36.3,2.07,1.3,2.07.81,0,1.43-.39,1.78-1.08h.98c-.51,1.09-1.56,1.85-2.92,1.85-1.56,0-2.44-1.1-2.06-2.84.37-1.72,1.71-2.82,3.27-2.82Z"/>
      <path class="cls-3" d="M108.72,57.38h.91l-1.57,7.4h-.91l1.57-7.4Z"/>
      <path class="cls-3" d="M111.97,64.87c-1.55,0-2.49-1.1-2.12-2.84.37-1.73,1.82-2.82,3.37-2.82s2.54,1.09,2.17,2.82c-.37,1.74-1.85,2.84-3.41,2.84ZM112.14,64.07c.95,0,2.02-.65,2.31-2.04.29-1.38-.48-2.03-1.42-2.03s-1.97.65-2.26,2.03c-.3,1.39.42,2.04,1.36,2.04Z"/>
      <path class="cls-3" d="M117.92,64.87c-1.28,0-2.03-.7-1.88-1.7h.94c-.06.53.32.93,1.09.93.72,0,1.2-.36,1.29-.81.26-1.22-3.13-.51-2.7-2.55.18-.84,1.11-1.53,2.33-1.53s1.87.65,1.7,1.72h-.91c.08-.55-.26-.95-.99-.95-.67,0-1.14.32-1.23.76-.28,1.3,3.05.59,2.68,2.55-.19.9-1.12,1.58-2.33,1.58Z"/>
      <path class="cls-3" d="M123.57,64.87c-1.56,0-2.48-1.1-2.1-2.84.37-1.73,1.71-2.82,3.31-2.82s2.39,1.12,2.07,2.62c-.04.2-.09.36-.15.55h-4.38c-.17,1.11.48,1.72,1.41,1.72.82,0,1.43-.42,1.75-1.01h.98c-.49,1-1.54,1.78-2.9,1.78ZM122.49,61.64h3.46c.24-1.07-.44-1.66-1.38-1.66-.89,0-1.76.59-2.08,1.66Z"/>
    </g>
    <g>
      <path class="cls-3" d="M153.1,60.05h-.71l.16-.75h.71l.29-1.38h.91l-.29,1.38h1.43l-.16.75h-1.43l-.69,3.23c-.11.54.05.73.6.73h.67l-.16.77h-.82c-.97,0-1.43-.4-1.2-1.5l.69-3.23Z"/>
      <path class="cls-3" d="M157.1,57.38h.91l-.58,2.71c.48-.58,1.23-.89,2-.89,1.22,0,2.02.78,1.69,2.35l-.69,3.23h-.9l.66-3.1c.24-1.12-.25-1.69-1.17-1.69s-1.69.58-1.94,1.76l-.64,3.03h-.91l1.57-7.4Z"/>
      <path class="cls-3" d="M164.28,64.87c-1.56,0-2.48-1.1-2.1-2.84.37-1.73,1.71-2.82,3.31-2.82s2.39,1.12,2.07,2.62c-.04.2-.09.36-.15.55h-4.38c-.17,1.11.48,1.72,1.41,1.72.82,0,1.43-.42,1.75-1.01h.98c-.49,1-1.54,1.78-2.9,1.78ZM163.2,61.64h3.46c.24-1.07-.44-1.66-1.38-1.66-.89,0-1.76.59-2.08,1.66Z"/>
      <path class="cls-3" d="M174.25,59.21c.86,0,1.56.44,1.8,1.07l.62-2.9h.92l-1.57,7.4h-.92l.22-1.03c-.46.61-1.28,1.12-2.28,1.12-1.47,0-2.35-1.15-1.99-2.85.36-1.71,1.73-2.81,3.21-2.81ZM174.26,60c-1,0-2,.73-2.28,2.02-.27,1.29.41,2.05,1.41,2.05s2.02-.75,2.29-2.04c.27-1.27-.43-2.03-1.43-2.03Z"/>
      <path class="cls-3" d="M179.93,64.87c-1.55,0-2.49-1.1-2.12-2.84.37-1.73,1.82-2.82,3.37-2.82s2.54,1.09,2.17,2.82c-.37,1.74-1.85,2.84-3.41,2.84ZM180.1,64.07c.95,0,2.02-.65,2.31-2.04.29-1.38-.48-2.03-1.42-2.03s-1.97.65-2.26,2.03c-.3,1.39.42,2.04,1.36,2.04Z"/>
      <path class="cls-3" d="M186.33,64.87c-1.55,0-2.49-1.1-2.12-2.84.37-1.73,1.82-2.82,3.37-2.82s2.54,1.09,2.17,2.82c-.37,1.74-1.85,2.84-3.41,2.84ZM186.5,64.07c.95,0,2.02-.65,2.31-2.04.29-1.38-.48-2.03-1.42-2.03s-1.97.65-2.26,2.03c-.3,1.39.42,2.04,1.36,2.04Z"/>
      <path class="cls-3" d="M191.27,64.78h-.91l1.16-5.48h.91l-.19.89c.44-.61,1.11-.99,1.98-.99l-.2.94h-.24c-.87,0-1.61.39-1.88,1.66l-.63,2.98Z"/>
      <path class="cls-3" d="M194.37,64.84c-.35,0-.56-.27-.49-.62.07-.35.4-.62.75-.62.33,0,.54.27.47.62-.07.35-.4.62-.73.62Z"/>
    </g>
    <g>
      <path class="cls-2" d="M535.98,40.26c0,.56-1.88,1.02-4.2,1.02H4.53c-2.32,0-4.19-.46-4.19-1.02v-18.63c0-.56,1.88-1.02,4.19-1.02h527.26c2.32,0,4.2.46,4.2,1.02v18.63Z"/>
      <path class="cls-1" d="M535.84,21.5c0,.62-1.88,1.12-4.19,1.12H4.53c-2.32,0-4.19-.5-4.19-1.12V1.11C.33.5,2.21,0,4.53,0h527.12c2.32,0,4.19.5,4.19,1.11v20.38Z"/>
    </g>
    <g>
      <path class="cls-18" d="M180.91,6.53l-1.31,3.22h-2.1l2.03-3.22h1.38ZM183.65,6.53l-1.31,3.22h-2.1l2.03-3.22h1.38Z"/>
      <path class="cls-18" d="M186.13,15.04c-1.81,0-3.04-.9-2.73-2.6h2.18c-.08.65.26.96.84.96s1.05-.3,1.15-.79c.33-1.56-4.06-.72-3.4-3.71.34-1.6,1.84-2.48,3.6-2.48s2.88.91,2.62,2.52h-2.22c.08-.54-.24-.87-.78-.88-.49-.01-.92.24-1.03.77-.31,1.46,3.99.8,3.39,3.62-.3,1.42-1.65,2.59-3.62,2.59Z"/>
      <path class="cls-18" d="M192.26,6.07h2.05l-.66,3.08c.53-.58,1.34-.97,2.27-.97,1.52,0,2.32,1.05,1.94,2.86l-.83,3.91h-2.04l.77-3.64c.19-.91-.2-1.42-.98-1.42s-1.39.5-1.58,1.42l-.77,3.64h-2.05l1.89-8.88Z"/>
      <path class="cls-18" d="M201.37,15.05c-1.97,0-3.17-1.32-2.72-3.45.45-2.12,2.26-3.44,4.21-3.44s3.2,1.32,2.75,3.44c-.45,2.12-2.27,3.45-4.23,3.45ZM201.75,13.27c.73,0,1.53-.54,1.77-1.67.24-1.14-.32-1.67-1.04-1.67s-1.5.53-1.75,1.67c-.24,1.13.27,1.67,1.01,1.67Z"/>
      <path class="cls-18" d="M212.49,14.95h-2.05l.19-.91c-.53.58-1.34.98-2.24.98-1.55,0-2.36-1.07-1.98-2.86l.83-3.91h2.04l-.77,3.64c-.19.91.21,1.42.98,1.42s1.4-.5,1.6-1.42l.77-3.64h2.05l-1.42,6.7Z"/>
      <path class="cls-18" d="M215.74,6.07h2.05l-1.89,8.88h-2.05l1.89-8.88Z"/>
      <path class="cls-18" d="M221.27,8.16c.89,0,1.57.41,1.85,1.02l.66-3.11h2.05l-1.89,8.88h-2.05l.2-.96c-.5.61-1.3,1.06-2.29,1.06-1.64,0-2.66-1.35-2.22-3.46.45-2.11,2.04-3.43,3.68-3.43ZM221.49,9.95c-.77,0-1.59.58-1.81,1.65-.23,1.07.34,1.67,1.11,1.67s1.59-.59,1.81-1.66c.23-1.07-.33-1.66-1.11-1.66Z"/>
      <path class="cls-18" d="M226.34,9.75l1.31-3.22h2.1l-2.03,3.22h-1.38ZM229.07,9.75l1.31-3.22h2.1l-2.03,3.22h-1.38Z"/>
      <path class="cls-18" d="M238.2,8.16c1,0,1.61.46,1.84,1.04l.2-.95h2.05l-1.42,6.7h-2.05l.2-.95c-.5.59-1.3,1.04-2.3,1.04-1.63,0-2.65-1.35-2.2-3.46.45-2.11,2.04-3.43,3.68-3.43ZM238.42,9.95c-.77,0-1.59.58-1.81,1.65-.23,1.07.34,1.67,1.11,1.67s1.59-.59,1.81-1.66c.23-1.07-.33-1.66-1.11-1.66Z"/>
      <path class="cls-18" d="M247.65,11.32c.19-.91-.2-1.42-.98-1.42s-1.39.5-1.58,1.42l-.77,3.64h-2.05l1.42-6.7h2.05l-.19.89c.53-.57,1.33-.96,2.23-.96,1.55,0,2.35,1.05,1.97,2.86l-.83,3.91h-2.04l.77-3.64Z"/>
      <path class="cls-18" d="M254.22,8.16c.89,0,1.57.41,1.85,1.02l.66-3.11h2.05l-1.89,8.88h-2.05l.2-.96c-.5.61-1.3,1.06-2.29,1.06-1.64,0-2.66-1.35-2.22-3.46.45-2.11,2.04-3.43,3.68-3.43ZM254.44,9.95c-.77,0-1.59.58-1.81,1.65-.23,1.07.34,1.67,1.11,1.67s1.59-.59,1.81-1.66c.23-1.07-.33-1.66-1.11-1.66Z"/>
      <path class="cls-18" d="M264.94,6.53l-1.31,3.22h-2.1l2.03-3.22h1.38ZM267.67,6.53l-1.31,3.22h-2.1l2.03-3.22h1.38Z"/>
      <path class="cls-18" d="M270.15,15.04c-1.81,0-3.04-.9-2.73-2.6h2.18c-.08.65.26.96.84.96s1.05-.3,1.15-.79c.33-1.56-4.06-.72-3.4-3.71.34-1.6,1.84-2.48,3.6-2.48s2.88.91,2.62,2.52h-2.22c.08-.54-.24-.87-.78-.88-.49-.01-.92.24-1.03.77-.31,1.46,3.99.8,3.39,3.62-.3,1.42-1.65,2.59-3.62,2.59Z"/>
      <path class="cls-18" d="M276.28,6.07h2.05l-.66,3.08c.53-.58,1.34-.97,2.27-.97,1.52,0,2.32,1.05,1.94,2.86l-.83,3.91h-2.04l.77-3.64c.19-.91-.2-1.42-.98-1.42s-1.39.5-1.58,1.42l-.77,3.64h-2.05l1.89-8.88Z"/>
      <path class="cls-18" d="M285.4,15.05c-1.97,0-3.17-1.32-2.72-3.45.45-2.12,2.26-3.44,4.21-3.44s3.2,1.32,2.75,3.44c-.45,2.12-2.27,3.45-4.23,3.45ZM285.78,13.27c.73,0,1.53-.54,1.77-1.67.24-1.14-.32-1.67-1.04-1.67s-1.5.53-1.75,1.67c-.24,1.13.27,1.67,1.01,1.67Z"/>
      <path class="cls-18" d="M296.52,14.95h-2.05l.19-.91c-.53.58-1.34.98-2.24.98-1.55,0-2.36-1.07-1.98-2.86l.83-3.91h2.04l-.77,3.64c-.19.91.21,1.42.98,1.42s1.4-.5,1.6-1.42l.77-3.64h2.05l-1.42,6.7Z"/>
      <path class="cls-18" d="M299.76,6.07h2.05l-1.89,8.88h-2.05l1.89-8.88Z"/>
      <path class="cls-18" d="M305.29,8.16c.89,0,1.57.41,1.85,1.02l.66-3.11h2.05l-1.89,8.88h-2.05l.2-.96c-.5.61-1.3,1.06-2.29,1.06-1.64,0-2.66-1.35-2.22-3.46.45-2.11,2.04-3.43,3.68-3.43ZM305.51,9.95c-.77,0-1.59.58-1.81,1.65-.23,1.07.34,1.67,1.11,1.67s1.59-.59,1.81-1.66c.23-1.07-.33-1.66-1.11-1.66Z"/>
      <path class="cls-18" d="M314.74,11.32c.19-.91-.2-1.42-.98-1.42s-1.39.5-1.58,1.42l-.77,3.64h-2.05l1.42-6.7h2.05l-.19.89c.53-.57,1.33-.96,2.23-.96,1.55,0,2.35,1.05,1.97,2.86l-.83,3.91h-2.04l.77-3.64Z"/>
      <path class="cls-18" d="M318.27,9.75l1.31-3.22h2.1l-2.03,3.22h-1.38Z"/>
      <path class="cls-18" d="M322.36,9.96h-.82l.36-1.7h.82l.35-1.63h2.05l-.35,1.63h1.34l-.36,1.7h-1.34l-.57,2.69c-.08.4.05.56.5.56h.73l-.37,1.74h-1.04c-1.39,0-2.24-.59-1.87-2.33l.57-2.66Z"/>
      <path class="cls-18" d="M326.75,9.75l1.31-3.22h2.1l-2.03,3.22h-1.38ZM329.48,9.75l1.31-3.22h2.1l-2.03,3.22h-1.38Z"/>
    </g>
    <g>
      <path class="cls-3" d="M9.57,32.13h-1.34v2.91h-.91v-6.97h2.25c1.64,0,2.41.9,2.41,2.04,0,1.06-.68,2.02-2.41,2.02ZM9.57,31.38c1.04,0,1.48-.49,1.48-1.27s-.44-1.29-1.48-1.29h-1.34v2.56h1.34Z"/>
      <path class="cls-3" d="M14.02,35.04h-.91v-5.48h.91v.89c.31-.61.9-.99,1.77-.99v.94h-.24c-.87,0-1.53.39-1.53,1.66v2.98Z"/>
      <path class="cls-3" d="M19.23,35.13c-1.55,0-2.73-1.1-2.73-2.84s1.22-2.82,2.77-2.82,2.77,1.09,2.77,2.82-1.25,2.84-2.81,2.84ZM19.23,34.33c.95,0,1.88-.65,1.88-2.04s-.91-2.03-1.85-2.03-1.83.65-1.83,2.03.85,2.04,1.8,2.04Z"/>
      <path class="cls-3" d="M27.25,31.94c0-1.12-.61-1.69-1.53-1.69s-1.57.58-1.57,1.76v3.03h-.91v-5.48h.91v.78c.36-.57,1.02-.88,1.76-.88,1.27,0,2.24.78,2.24,2.35v3.23h-.9v-3.1Z"/>
      <path class="cls-3" d="M32.03,35.13c-1.55,0-2.73-1.1-2.73-2.84s1.22-2.82,2.77-2.82,2.77,1.09,2.77,2.82-1.25,2.84-2.81,2.84ZM32.03,34.33c.95,0,1.88-.65,1.88-2.04s-.91-2.03-1.85-2.03-1.83.65-1.83,2.03.85,2.04,1.8,2.04Z"/>
      <path class="cls-3" d="M40.9,35.04h-.91v-.81c-.35.57-1.02.89-1.75.89-1.26,0-2.25-.78-2.25-2.35v-3.21h.9v3.09c0,1.11.61,1.68,1.53,1.68s1.57-.58,1.57-1.76v-3.01h.91v5.48Z"/>
      <path class="cls-3" d="M46.45,31.94c0-1.12-.61-1.69-1.53-1.69s-1.57.58-1.57,1.76v3.03h-.91v-5.48h.91v.78c.36-.57,1.02-.88,1.76-.88,1.27,0,2.24.78,2.24,2.35v3.23h-.9v-3.1Z"/>
    </g>
    <g>
      <path class="cls-3" d="M61.9,35.66c-1.28,0-2.18-.7-2.24-1.7h.94c.05.53.52.93,1.29.93.72,0,1.12-.36,1.12-.81,0-1.22-3.24-.51-3.24-2.55,0-.84.79-1.53,2.01-1.53s2.01.65,2.07,1.72h-.91c-.04-.55-.46-.95-1.19-.95-.67,0-1.07.32-1.07.76,0,1.3,3.18.59,3.22,2.55,0,.9-.79,1.58-2,1.58Z"/>
      <path class="cls-3" d="M65.18,28.17h.91v2.71c.36-.58,1.04-.89,1.81-.89,1.22,0,2.19.78,2.19,2.35v3.23h-.9v-3.1c0-1.12-.61-1.69-1.53-1.69s-1.57.58-1.57,1.76v3.03h-.91v-7.4Z"/>
      <path class="cls-3" d="M73.97,35.66c-1.55,0-2.73-1.1-2.73-2.84s1.22-2.82,2.77-2.82,2.77,1.09,2.77,2.82-1.25,2.84-2.81,2.84ZM73.97,34.86c.95,0,1.88-.65,1.88-2.04s-.91-2.03-1.85-2.03-1.83.65-1.83,2.03.85,2.04,1.8,2.04Z"/>
      <path class="cls-3" d="M82.84,35.57h-.91v-.81c-.35.57-1.02.89-1.75.89-1.26,0-2.25-.78-2.25-2.35v-3.21h.9v3.09c0,1.11.61,1.68,1.53,1.68s1.57-.58,1.57-1.76v-3.01h.91v5.48Z"/>
      <path class="cls-3" d="M84.38,28.17h.91v7.4h-.91v-7.4Z"/>
      <path class="cls-3" d="M89.11,30c.86,0,1.65.44,2.03,1.07v-2.9h.92v7.4h-.92v-1.03c-.33.61-1.04,1.12-2.04,1.12-1.47,0-2.6-1.15-2.6-2.85s1.13-2.81,2.61-2.81ZM89.28,30.79c-1,0-1.85.73-1.85,2.02s.85,2.05,1.85,2.05,1.86-.75,1.86-2.04-.86-2.03-1.86-2.03Z"/>
    </g>
    <g>
      <path class="cls-3" d="M278.12,35.66c-1.28,0-2.18-.7-2.24-1.7h.94c.05.53.52.93,1.29.93.72,0,1.12-.36,1.12-.81,0-1.22-3.24-.51-3.24-2.55,0-.84.79-1.53,2.01-1.53s2.01.65,2.07,1.72h-.91c-.04-.55-.46-.95-1.19-.95-.67,0-1.07.32-1.07.76,0,1.3,3.18.59,3.22,2.55,0,.9-.79,1.58-2,1.58Z"/>
      <path class="cls-3" d="M281.4,28.17h.91v2.71c.36-.58,1.04-.89,1.81-.89,1.22,0,2.19.78,2.19,2.35v3.23h-.9v-3.1c0-1.12-.61-1.69-1.53-1.69s-1.57.58-1.57,1.76v3.03h-.91v-7.4Z"/>
      <path class="cls-3" d="M290.19,35.66c-1.55,0-2.73-1.1-2.73-2.84s1.22-2.82,2.77-2.82,2.77,1.09,2.77,2.82-1.25,2.84-2.81,2.84ZM290.19,34.86c.95,0,1.88-.65,1.88-2.04s-.91-2.03-1.85-2.03-1.83.65-1.83,2.03.85,2.04,1.8,2.04Z"/>
      <path class="cls-3" d="M299.06,35.57h-.91v-.81c-.35.57-1.02.89-1.75.89-1.26,0-2.25-.78-2.25-2.35v-3.21h.9v3.09c0,1.11.61,1.68,1.53,1.68s1.57-.58,1.57-1.76v-3.01h.91v5.48Z"/>
      <path class="cls-3" d="M300.6,28.17h.91v7.4h-.91v-7.4Z"/>
      <path class="cls-3" d="M305.33,30c.86,0,1.65.44,2.03,1.07v-2.9h.92v7.4h-.92v-1.03c-.33.61-1.04,1.12-2.04,1.12-1.47,0-2.6-1.15-2.6-2.85s1.13-2.81,2.61-2.81ZM305.5,30.79c-1,0-1.85.73-1.85,2.02s.85,2.05,1.85,2.05,1.86-.75,1.86-2.04-.86-2.03-1.86-2.03Z"/>
      <path class="cls-3" d="M313.83,32.47c0-1.12-.61-1.69-1.53-1.69s-1.57.58-1.57,1.76v3.03h-.91v-5.48h.91v.78c.36-.57,1.02-.88,1.76-.88,1.27,0,2.24.78,2.24,2.35v3.23h-.9v-3.1Z"/>
      <path class="cls-3" d="M315.77,30.87l.59-2.27h1.01l-.96,2.27h-.64Z"/>
      <path class="cls-3" d="M318.61,30.84h-.71v-.75h.71v-1.38h.91v1.38h1.43v.75h-1.43v3.23c0,.54.2.73.76.73h.67v.77h-.82c-.97,0-1.52-.4-1.52-1.5v-3.23Z"/>
    </g>
    <g>
      <path class="cls-3" d="M104.15,30.09l1.71,4.64,1.7-4.64h.97l-2.15,5.48h-1.06l-2.15-5.48h.98Z"/>
      <path class="cls-3" d="M111.8,35.66c-1.56,0-2.71-1.1-2.71-2.84s1.11-2.82,2.71-2.82,2.63,1.12,2.63,2.62c0,.2,0,.36-.03.55h-4.38c.07,1.11.85,1.72,1.78,1.72.82,0,1.34-.42,1.54-1.01h.98c-.28,1-1.16,1.78-2.52,1.78ZM110.03,32.43h3.46c.01-1.07-.79-1.66-1.73-1.66-.89,0-1.63.59-1.73,1.66Z"/>
      <path class="cls-3" d="M116.54,35.57h-.91v-5.48h.91v.89c.31-.61.9-.99,1.77-.99v.94h-.24c-.87,0-1.53.39-1.53,1.66v2.98Z"/>
      <path class="cls-3" d="M122.32,30c1.48,0,2.6,1.1,2.6,2.81s-1.13,2.85-2.6,2.85c-1,0-1.71-.5-2.05-1.1v1.01h-.91v-7.4h.91v2.94c.35-.61,1.08-1.11,2.05-1.11ZM122.13,30.79c-.99,0-1.86.76-1.86,2.03s.87,2.04,1.86,2.04,1.86-.76,1.86-2.05-.85-2.02-1.86-2.02Z"/>
    </g>
    <g>
      <path class="cls-3" d="M334.48,30.09l1.71,4.64,1.7-4.64h.97l-2.15,5.48h-1.06l-2.15-5.48h.98Z"/>
      <path class="cls-3" d="M342.13,35.66c-1.56,0-2.71-1.1-2.71-2.84s1.11-2.82,2.71-2.82,2.63,1.12,2.63,2.62c0,.2,0,.36-.03.55h-4.38c.07,1.11.85,1.72,1.78,1.72.82,0,1.34-.42,1.54-1.01h.98c-.28,1-1.16,1.78-2.52,1.78ZM340.36,32.43h3.46c.01-1.07-.79-1.66-1.73-1.66-.89,0-1.63.59-1.73,1.66Z"/>
      <path class="cls-3" d="M346.87,35.57h-.91v-5.48h.91v.89c.31-.61.9-.99,1.77-.99v.94h-.24c-.87,0-1.53.39-1.53,1.66v2.98Z"/>
      <path class="cls-3" d="M352.65,30c1.48,0,2.6,1.1,2.6,2.81s-1.13,2.85-2.6,2.85c-1,0-1.71-.5-2.05-1.1v1.01h-.91v-7.4h.91v2.94c.35-.61,1.08-1.11,2.05-1.11ZM352.46,30.79c-.99,0-1.86.76-1.86,2.03s.87,2.04,1.86,2.04,1.86-.76,1.86-2.05-.85-2.02-1.86-2.02Z"/>
    </g>
    <g>
      <path class="cls-3" d="M142.6,30c1.36,0,2.25.7,2.53,1.85h-.98c-.19-.66-.74-1.08-1.55-1.08-1,0-1.74.71-1.74,2.05s.74,2.07,1.74,2.07c.81,0,1.35-.39,1.55-1.08h.98c-.28,1.09-1.17,1.85-2.53,1.85-1.56,0-2.67-1.1-2.67-2.84s1.11-2.82,2.67-2.82Z"/>
      <path class="cls-3" d="M148.73,35.66c-1.55,0-2.73-1.1-2.73-2.84s1.22-2.82,2.77-2.82,2.77,1.09,2.77,2.82-1.25,2.84-2.81,2.84ZM148.73,34.86c.95,0,1.88-.65,1.88-2.04s-.91-2.03-1.85-2.03-1.83.65-1.83,2.03.85,2.04,1.8,2.04Z"/>
      <path class="cls-3" d="M160.65,32.47c0-1.12-.6-1.69-1.5-1.69s-1.55.59-1.55,1.77v3.02h-.9v-3.1c0-1.12-.6-1.69-1.5-1.69s-1.55.59-1.55,1.77v3.02h-.91v-5.48h.91v.79c.36-.58,1.01-.89,1.73-.89.9,0,1.65.4,2.01,1.22.32-.79,1.1-1.22,1.94-1.22,1.25,0,2.22.78,2.22,2.35v3.23h-.9v-3.1Z"/>
      <path class="cls-3" d="M166,30c1.47,0,2.6,1.1,2.6,2.81s-1.13,2.85-2.6,2.85c-1,0-1.71-.54-2.05-1.1v3.61h-.91v-8.08h.91v1.01c.33-.58,1.05-1.1,2.05-1.1ZM165.81,30.79c-.99,0-1.86.76-1.86,2.03s.87,2.04,1.86,2.04,1.86-.76,1.86-2.05-.85-2.02-1.86-2.02Z"/>
      <path class="cls-3" d="M169.8,28.17h.91v7.4h-.91v-7.4Z"/>
      <path class="cls-3" d="M174.63,35.66c-1.56,0-2.71-1.1-2.71-2.84s1.11-2.82,2.71-2.82,2.63,1.12,2.63,2.62c0,.2,0,.36-.03.55h-4.38c.07,1.11.85,1.72,1.78,1.72.82,0,1.34-.42,1.54-1.01h.98c-.28,1-1.16,1.78-2.52,1.78ZM172.86,32.43h3.46c.01-1.07-.79-1.66-1.73-1.66-.89,0-1.63.59-1.73,1.66Z"/>
      <path class="cls-3" d="M186.37,32.47c0-1.12-.6-1.69-1.5-1.69s-1.55.59-1.55,1.77v3.02h-.9v-3.1c0-1.12-.6-1.69-1.5-1.69s-1.55.59-1.55,1.77v3.02h-.91v-5.48h.91v.79c.36-.58,1.01-.89,1.73-.89.9,0,1.65.4,2.01,1.22.32-.79,1.1-1.22,1.94-1.22,1.25,0,2.22.78,2.22,2.35v3.23h-.9v-3.1Z"/>
      <path class="cls-3" d="M191.13,35.66c-1.56,0-2.71-1.1-2.71-2.84s1.11-2.82,2.71-2.82,2.63,1.12,2.63,2.62c0,.2,0,.36-.03.55h-4.38c.07,1.11.85,1.72,1.78,1.72.82,0,1.34-.42,1.54-1.01h.98c-.28,1-1.16,1.78-2.52,1.78ZM189.36,32.43h3.46c.01-1.07-.79-1.66-1.73-1.66-.89,0-1.63.59-1.73,1.66Z"/>
      <path class="cls-3" d="M198.97,32.47c0-1.12-.61-1.69-1.53-1.69s-1.57.58-1.57,1.76v3.03h-.91v-5.48h.91v.78c.36-.57,1.02-.88,1.76-.88,1.27,0,2.24.78,2.24,2.35v3.23h-.9v-3.1Z"/>
      <path class="cls-3" d="M201.56,30.84h-.71v-.75h.71v-1.38h.91v1.38h1.43v.75h-1.43v3.23c0,.54.2.73.76.73h.67v.77h-.82c-.97,0-1.52-.4-1.52-1.5v-3.23Z"/>
      <path class="cls-3" d="M205.29,35.63c-.35,0-.62-.27-.62-.62s.27-.62.62-.62c.33,0,.6.27.6.62s-.27.62-.6.62Z"/>
    </g>
    <g>
      <path class="cls-3" d="M465.65,30c1.36,0,2.25.7,2.53,1.85h-.98c-.19-.66-.74-1.08-1.55-1.08-1,0-1.74.71-1.74,2.05s.74,2.07,1.74,2.07c.81,0,1.35-.39,1.55-1.08h.98c-.28,1.09-1.17,1.85-2.53,1.85-1.56,0-2.67-1.1-2.67-2.84s1.11-2.82,2.67-2.82Z"/>
      <path class="cls-3" d="M471.78,35.66c-1.55,0-2.73-1.1-2.73-2.84s1.22-2.82,2.77-2.82,2.77,1.09,2.77,2.82-1.25,2.84-2.81,2.84ZM471.78,34.86c.95,0,1.88-.65,1.88-2.04s-.91-2.03-1.85-2.03-1.83.65-1.83,2.03.85,2.04,1.8,2.04Z"/>
      <path class="cls-3" d="M483.69,32.47c0-1.12-.6-1.69-1.5-1.69s-1.55.59-1.55,1.77v3.02h-.9v-3.1c0-1.12-.6-1.69-1.5-1.69s-1.55.59-1.55,1.77v3.02h-.91v-5.48h.91v.79c.36-.58,1.01-.89,1.73-.89.9,0,1.65.4,2.01,1.22.32-.79,1.1-1.22,1.94-1.22,1.25,0,2.22.78,2.22,2.35v3.23h-.9v-3.1Z"/>
      <path class="cls-3" d="M489.05,30c1.47,0,2.6,1.1,2.6,2.81s-1.13,2.85-2.6,2.85c-1,0-1.71-.54-2.05-1.1v3.61h-.91v-8.08h.91v1.01c.33-.58,1.05-1.1,2.05-1.1ZM488.86,30.79c-.99,0-1.86.76-1.86,2.03s.87,2.04,1.86,2.04,1.86-.76,1.86-2.05-.85-2.02-1.86-2.02Z"/>
      <path class="cls-3" d="M492.85,28.17h.91v7.4h-.91v-7.4Z"/>
      <path class="cls-3" d="M497.68,35.66c-1.56,0-2.71-1.1-2.71-2.84s1.11-2.82,2.71-2.82,2.63,1.12,2.63,2.62c0,.2,0,.36-.03.55h-4.38c.07,1.11.85,1.72,1.78,1.72.82,0,1.34-.42,1.54-1.01h.98c-.28,1-1.16,1.78-2.52,1.78ZM495.91,32.43h3.46c.01-1.07-.79-1.66-1.73-1.66-.89,0-1.63.59-1.73,1.66Z"/>
      <path class="cls-3" d="M509.42,32.47c0-1.12-.6-1.69-1.5-1.69s-1.55.59-1.55,1.77v3.02h-.9v-3.1c0-1.12-.6-1.69-1.5-1.69s-1.55.59-1.55,1.77v3.02h-.91v-5.48h.91v.79c.36-.58,1.01-.89,1.73-.89.9,0,1.65.4,2.01,1.22.32-.79,1.1-1.22,1.94-1.22,1.25,0,2.22.78,2.22,2.35v3.23h-.9v-3.1Z"/>
      <path class="cls-3" d="M514.18,35.66c-1.56,0-2.71-1.1-2.71-2.84s1.11-2.82,2.71-2.82,2.63,1.12,2.63,2.62c0,.2,0,.36-.03.55h-4.38c.07,1.11.85,1.72,1.78,1.72.82,0,1.34-.42,1.54-1.01h.98c-.28,1-1.16,1.78-2.52,1.78ZM512.41,32.43h3.46c.01-1.07-.79-1.66-1.73-1.66-.89,0-1.63.59-1.73,1.66Z"/>
      <path class="cls-3" d="M522.02,32.47c0-1.12-.61-1.69-1.53-1.69s-1.57.58-1.57,1.76v3.03h-.91v-5.48h.91v.78c.36-.57,1.02-.88,1.76-.88,1.27,0,2.24.78,2.24,2.35v3.23h-.9v-3.1Z"/>
      <path class="cls-3" d="M524.61,30.84h-.71v-.75h.71v-1.38h.91v1.38h1.43v.75h-1.43v3.23c0,.54.2.73.76.73h.67v.77h-.82c-.97,0-1.52-.4-1.52-1.5v-3.23Z"/>
      <path class="cls-3" d="M528.34,35.63c-.35,0-.62-.27-.62-.62s.27-.62.62-.62c.33,0,.6.27.6.62s-.27.62-.6.62Z"/>
    </g>
    <line class="cls-11" x1="455.95" y1="22.78" x2="455.95" y2="82.02"/>
    <line class="cls-10" x1="360.62" y1="62.9" x2="535.67" y2="62.9"/>
    <line class="cls-7" x1="360.7" y1="22.28" x2="360.7" y2="81.48"/>
    <line class="cls-14" x1="328.2" y1="22.28" x2="328.2" y2="82.08"/>
    <line class="cls-13" x1="268.75" y1="22.28" x2="268.75" y2="80.68"/>
    <line class="cls-16" x1="97.9" y1="22.28" x2="97.9" y2="81.08"/>
    <line class="cls-7" x1="54.1" y1="22.28" x2="54.1" y2="81.48"/>
    <line class="cls-8" x1="131.1" y1="22.28" x2="131.1" y2="80.88"/>
    <line class="cls-17" x1="214.75" y1="22.61" x2="214.75" y2="81.08"/>
    <g>
      <path class="cls-3" d="M403.31,51.73c.24-1.12-.24-1.69-1.14-1.69s-1.67.59-1.92,1.77l-.64,3.02h-.9l.66-3.1c.24-1.12-.24-1.69-1.14-1.69s-1.67.59-1.93,1.77l-.64,3.02h-.91l1.16-5.48h.91l-.17.79c.48-.58,1.2-.89,1.92-.89.9,0,1.56.4,1.75,1.22.49-.79,1.36-1.22,2.2-1.22,1.25,0,2.05.78,1.72,2.35l-.69,3.23h-.9l.66-3.1Z"/>
      <path class="cls-3" d="M409.9,54.83h-.91l.17-.81c-.47.57-1.21.89-1.94.89-1.26,0-2.08-.78-1.75-2.35l.68-3.21h.9l-.66,3.09c-.24,1.11.25,1.68,1.17,1.68s1.69-.58,1.94-1.76l.64-3.01h.91l-1.16,5.48Z"/>
      <path class="cls-3" d="M414.96,49.26c1.36,0,2.1.7,2.13,1.85h-.98c-.05-.66-.51-1.08-1.32-1.08-1,0-1.89.71-2.17,2.05-.29,1.36.3,2.07,1.3,2.07.81,0,1.43-.39,1.78-1.08h.98c-.51,1.09-1.56,1.85-2.92,1.85-1.56,0-2.44-1.1-2.07-2.84.37-1.72,1.71-2.82,3.27-2.82Z"/>
      <path class="cls-3" d="M419.09,47.43h.91l-.58,2.71c.48-.58,1.23-.89,2-.89,1.22,0,2.02.78,1.69,2.35l-.69,3.23h-.9l.66-3.1c.24-1.12-.25-1.69-1.17-1.69s-1.69.58-1.94,1.76l-.64,3.03h-.91l1.57-7.4Z"/>
    </g>
    <g>
      <path class="cls-3" d="M403.63,72.23c.24-1.12-.24-1.69-1.14-1.69s-1.67.59-1.92,1.77l-.64,3.02h-.9l.66-3.1c.24-1.12-.24-1.69-1.14-1.69s-1.67.59-1.93,1.77l-.64,3.02h-.91l1.16-5.48h.91l-.17.79c.48-.58,1.2-.89,1.92-.89.9,0,1.56.4,1.75,1.22.49-.79,1.36-1.22,2.2-1.22,1.25,0,2.05.78,1.72,2.35l-.69,3.23h-.9l.66-3.1Z"/>
      <path class="cls-3" d="M408.81,69.76c1.02,0,1.61.52,1.81,1.09l.21-1h.92l-1.16,5.48h-.92l.22-1.02c-.46.59-1.28,1.11-2.29,1.11-1.46,0-2.34-1.15-1.98-2.85.36-1.71,1.73-2.81,3.2-2.81ZM408.82,70.55c-1,0-2,.73-2.28,2.02-.27,1.29.41,2.05,1.41,2.05s2.02-.75,2.29-2.04c.27-1.27-.43-2.03-1.43-2.03Z"/>
      <path class="cls-3" d="M416.8,72.23c.24-1.12-.25-1.69-1.17-1.69s-1.69.58-1.94,1.76l-.64,3.03h-.91l1.16-5.48h.91l-.17.78c.48-.57,1.21-.88,1.95-.88,1.27,0,2.07.78,1.74,2.35l-.69,3.23h-.9l.66-3.1Z"/>
      <path class="cls-3" d="M423.47,69.85h.94l-5.01,8.06h-.94l1.64-2.64-1.06-5.42h1.01l.78,4.44,2.64-4.44Z"/>
    </g>
    <g>
      <path class="cls-3" d="M483.36,54.92c-1.28,0-2.03-.7-1.88-1.7h.94c-.06.53.32.93,1.09.93.72,0,1.2-.36,1.29-.81.26-1.22-3.13-.51-2.7-2.55.18-.84,1.11-1.53,2.33-1.53s1.87.65,1.7,1.72h-.91c.08-.55-.26-.95-.99-.95-.67,0-1.14.32-1.23.76-.28,1.3,3.05.59,2.68,2.55-.19.9-1.12,1.58-2.33,1.58Z"/>
      <path class="cls-3" d="M491.51,54.83h-.91l.17-.81c-.47.57-1.21.89-1.94.89-1.26,0-2.08-.78-1.75-2.35l.68-3.21h.9l-.66,3.09c-.24,1.11.25,1.68,1.17,1.68s1.69-.58,1.94-1.76l.64-3.01h.91l-1.16,5.48Z"/>
      <path class="cls-3" d="M496.5,49.26c1,0,1.61.5,1.81,1.09l.21-1h.92l-1.19,5.6c-.32,1.51-1.56,2.58-3.17,2.58-1.44,0-2.31-.73-2.24-1.9h.9c.06.66.61,1.11,1.51,1.11.97,0,1.83-.62,2.08-1.79l.25-1.15c-.46.59-1.28,1.12-2.28,1.12-1.47,0-2.35-1.15-1.99-2.85.36-1.71,1.73-2.81,3.2-2.81ZM496.51,50.05c-1,0-2,.73-2.28,2.02-.27,1.29.41,2.05,1.41,2.05s2.02-.75,2.29-2.04c.27-1.27-.43-2.03-1.43-2.03Z"/>
      <path class="cls-3" d="M503.26,49.26c1.02,0,1.61.52,1.81,1.09l.21-1h.92l-1.16,5.48h-.92l.22-1.02c-.46.59-1.28,1.11-2.29,1.11-1.46,0-2.34-1.15-1.98-2.85.36-1.71,1.73-2.81,3.2-2.81ZM503.27,50.05c-1,0-2,.73-2.28,2.02-.27,1.29.41,2.05,1.41,2.05s2.02-.75,2.29-2.04c.27-1.27-.43-2.03-1.43-2.03Z"/>
      <path class="cls-3" d="M507.49,54.83h-.91l1.16-5.48h.91l-.19.89c.44-.61,1.11-.99,1.98-.99l-.2.94h-.24c-.87,0-1.61.39-1.88,1.66l-.63,2.98Z"/>
      <path class="cls-3" d="M510.58,54.89c-.35,0-.56-.27-.49-.62.08-.35.4-.62.75-.62.33,0,.54.27.47.62-.07.35-.4.62-.73.62Z"/>
    </g>
    <g>
      <path class="cls-3" d="M480.59,75.42c-1.28,0-2.03-.7-1.88-1.7h.94c-.06.53.32.93,1.09.93.72,0,1.2-.36,1.29-.81.26-1.22-3.13-.51-2.7-2.55.18-.84,1.11-1.53,2.33-1.53s1.87.65,1.7,1.72h-.91c.08-.55-.26-.95-.99-.95-.67,0-1.14.32-1.23.76-.28,1.3,3.05.59,2.68,2.55-.19.9-1.12,1.58-2.33,1.58Z"/>
      <path class="cls-3" d="M484.4,69.85h.93l.28,4.6,2.34-4.6h.93l.35,4.61,2.22-4.61h.9l-2.87,5.48h-.94l-.4-4.35-2.24,4.35h-.94l-.55-5.48Z"/>
      <path class="cls-3" d="M494.44,75.42c-1.56,0-2.48-1.1-2.11-2.84.37-1.73,1.71-2.82,3.31-2.82s2.39,1.12,2.07,2.62c-.04.2-.09.36-.15.55h-4.38c-.17,1.11.48,1.72,1.41,1.72.82,0,1.43-.42,1.75-1.01h.98c-.49,1-1.54,1.78-2.9,1.78ZM493.36,72.19h3.46c.24-1.07-.44-1.66-1.38-1.66-.89,0-1.75.59-2.08,1.66Z"/>
      <path class="cls-3" d="M500.64,75.42c-1.56,0-2.48-1.1-2.11-2.84.37-1.73,1.71-2.82,3.31-2.82s2.39,1.12,2.07,2.62c-.04.2-.09.36-.15.55h-4.38c-.17,1.11.48,1.72,1.41,1.72.82,0,1.43-.42,1.75-1.01h.98c-.49,1-1.54,1.78-2.9,1.78ZM499.56,72.19h3.46c.24-1.07-.44-1.66-1.38-1.66-.89,0-1.75.59-2.08,1.66Z"/>
      <path class="cls-3" d="M505.69,70.6h-.71l.16-.75h.71l.29-1.38h.91l-.29,1.38h1.43l-.16.75h-1.43l-.69,3.23c-.11.54.04.73.6.73h.67l-.16.77h-.82c-.97,0-1.43-.4-1.2-1.5l.69-3.23Z"/>
      <path class="cls-3" d="M510.05,75.42c-1.28,0-2.03-.7-1.88-1.7h.94c-.06.53.32.93,1.09.93.72,0,1.2-.36,1.29-.81.26-1.22-3.13-.51-2.7-2.55.18-.84,1.11-1.53,2.33-1.53s1.87.65,1.7,1.72h-.91c.08-.55-.26-.95-.99-.95-.67,0-1.14.32-1.23.76-.28,1.3,3.05.59,2.68,2.55-.19.9-1.12,1.58-2.33,1.58Z"/>
      <path class="cls-3" d="M513.63,75.39c-.35,0-.56-.27-.49-.62.08-.35.4-.62.75-.62.33,0,.54.27.47.62-.07.35-.4.62-.73.62Z"/>
    </g>
    <g>
      <path class="cls-3" d="M339.74,64.87c-1.56,0-2.48-1.1-2.1-2.84.37-1.73,1.71-2.82,3.31-2.82s2.39,1.12,2.07,2.62c-.04.2-.09.36-.15.55h-4.38c-.17,1.11.48,1.72,1.41,1.72.82,0,1.43-.42,1.75-1.01h.98c-.49,1-1.54,1.78-2.9,1.78ZM338.66,61.64h3.46c.24-1.07-.44-1.66-1.38-1.66-.89,0-1.76.59-2.08,1.66Z"/>
      <path class="cls-3" d="M347.03,59.21c1.02,0,1.61.52,1.81,1.09l.21-1h.92l-1.16,5.48h-.92l.22-1.02c-.46.59-1.28,1.11-2.29,1.11-1.46,0-2.34-1.15-1.98-2.85.36-1.71,1.73-2.81,3.2-2.81ZM347.05,60c-1,0-2,.73-2.28,2.02-.27,1.29.41,2.05,1.41,2.05s2.02-.75,2.29-2.04c.27-1.27-.43-2.03-1.43-2.03Z"/>
      <path class="cls-3" d="M351.56,60.05h-.71l.16-.75h.71l.29-1.38h.91l-.29,1.38h1.43l-.16.75h-1.43l-.69,3.23c-.11.54.05.73.6.73h.67l-.16.77h-.82c-.97,0-1.43-.4-1.2-1.5l.69-3.23Z"/>
    </g>
    <g>
      <path class="cls-3" d="M224.74,32.13h-1.34v2.91h-.91v-6.97h2.25c1.64,0,2.41.9,2.41,2.04,0,1.06-.68,2.02-2.41,2.02ZM224.74,31.38c1.04,0,1.48-.49,1.48-1.27s-.44-1.29-1.48-1.29h-1.34v2.56h1.34Z"/>
      <path class="cls-3" d="M229.19,35.04h-.91v-5.48h.91v.89c.31-.61.9-.99,1.77-.99v.94h-.24c-.87,0-1.53.39-1.53,1.66v2.98Z"/>
      <path class="cls-3" d="M234.39,35.13c-1.55,0-2.73-1.1-2.73-2.84s1.22-2.82,2.77-2.82,2.77,1.09,2.77,2.82-1.25,2.84-2.81,2.84ZM234.39,34.33c.95,0,1.88-.65,1.88-2.04s-.91-2.03-1.85-2.03-1.83.65-1.83,2.03.85,2.04,1.8,2.04Z"/>
      <path class="cls-3" d="M242.41,31.94c0-1.12-.61-1.69-1.53-1.69s-1.57.58-1.57,1.76v3.03h-.91v-5.48h.91v.78c.36-.57,1.02-.88,1.76-.88,1.27,0,2.24.78,2.24,2.35v3.23h-.9v-3.1Z"/>
      <path class="cls-3" d="M247.19,35.13c-1.55,0-2.73-1.1-2.73-2.84s1.22-2.82,2.77-2.82,2.77,1.09,2.77,2.82-1.25,2.84-2.81,2.84ZM247.19,34.33c.95,0,1.88-.65,1.88-2.04s-.91-2.03-1.85-2.03-1.83.65-1.83,2.03.85,2.04,1.8,2.04Z"/>
      <path class="cls-3" d="M256.06,35.04h-.91v-.81c-.35.57-1.02.89-1.75.89-1.26,0-2.25-.78-2.25-2.35v-3.21h.9v3.09c0,1.11.61,1.68,1.53,1.68s1.57-.58,1.57-1.76v-3.01h.91v5.48Z"/>
      <path class="cls-3" d="M261.61,31.94c0-1.12-.61-1.69-1.53-1.69s-1.57.58-1.57,1.76v3.03h-.91v-5.48h.91v.78c.36-.57,1.02-.88,1.76-.88,1.27,0,2.24.78,2.24,2.35v3.23h-.9v-3.1Z"/>
    </g>
    <g>
      <path class="cls-3" d="M371.44,37.34c-1.27-1.25-2.03-3.27-2.03-5.52s.76-4.37,2.18-5.68h.95v.09c-1.54,1.45-2.25,3.55-2.25,5.59s.71,4,2.1,5.43v.09h-.95Z"/>
      <path class="cls-3" d="M381.54,32.38c0-1.12-.6-1.69-1.5-1.69s-1.55.59-1.55,1.77v3.02h-.9v-3.1c0-1.12-.6-1.69-1.5-1.69s-1.55.59-1.55,1.77v3.02h-.91v-5.48h.91v.79c.36-.58,1.01-.89,1.73-.89.9,0,1.65.4,2.01,1.22.32-.79,1.1-1.22,1.94-1.22,1.25,0,2.22.78,2.22,2.35v3.23h-.9v-3.1Z"/>
      <path class="cls-3" d="M388.79,35.48h-.91v-.81c-.35.57-1.02.89-1.75.89-1.26,0-2.25-.78-2.25-2.35v-3.21h.9v3.09c0,1.11.61,1.68,1.53,1.68s1.57-.58,1.57-1.76v-3.01h.91v5.48Z"/>
      <path class="cls-3" d="M392.66,29.91c1.36,0,2.25.7,2.53,1.85h-.98c-.19-.66-.74-1.08-1.55-1.08-1,0-1.74.71-1.74,2.05s.74,2.07,1.74,2.07c.81,0,1.35-.39,1.55-1.08h.98c-.28,1.09-1.17,1.85-2.53,1.85-1.56,0-2.67-1.1-2.67-2.84s1.11-2.82,2.67-2.82Z"/>
      <path class="cls-3" d="M396.41,28.08h.91v2.71c.36-.58,1.04-.89,1.81-.89,1.22,0,2.19.78,2.19,2.35v3.23h-.9v-3.1c0-1.12-.61-1.69-1.53-1.69s-1.57.58-1.57,1.76v3.03h-.91v-7.4Z"/>
      <path class="cls-3" d="M402.52,37.34v-.09c1.39-1.43,2.1-3.4,2.1-5.43s-.71-4.14-2.25-5.59v-.09h.95c1.42,1.31,2.18,3.42,2.18,5.68s-.76,4.27-2.03,5.52h-.95Z"/>
      <path class="cls-3" d="M409.84,26.06h.91l-2.74,11.11h-.9l2.73-11.11Z"/>
      <path class="cls-3" d="M414.44,37.34c-1.27-1.25-2.03-3.27-2.03-5.52s.76-4.37,2.18-5.68h.95v.09c-1.54,1.45-2.25,3.55-2.25,5.59s.71,4,2.1,5.43v.09h-.95Z"/>
      <path class="cls-3" d="M424.55,32.38c0-1.12-.6-1.69-1.5-1.69s-1.55.59-1.55,1.77v3.02h-.9v-3.1c0-1.12-.6-1.69-1.5-1.69s-1.55.59-1.55,1.77v3.02h-.91v-5.48h.91v.79c.36-.58,1.01-.89,1.73-.89.9,0,1.65.4,2.01,1.22.32-.79,1.1-1.22,1.94-1.22,1.25,0,2.22.78,2.22,2.35v3.23h-.9v-3.1Z"/>
      <path class="cls-3" d="M429.2,29.91c1.02,0,1.72.52,2.04,1.09v-1h.92v5.48h-.92v-1.02c-.33.59-1.04,1.11-2.05,1.11-1.46,0-2.59-1.15-2.59-2.85s1.13-2.81,2.6-2.81ZM429.38,30.7c-1,0-1.85.73-1.85,2.02s.85,2.05,1.85,2.05,1.86-.75,1.86-2.04-.86-2.03-1.86-2.03Z"/>
      <path class="cls-3" d="M437.71,32.38c0-1.12-.61-1.69-1.53-1.69s-1.57.58-1.57,1.76v3.03h-.91v-5.48h.91v.78c.36-.57,1.02-.88,1.76-.88,1.27,0,2.24.78,2.24,2.35v3.23h-.9v-3.1Z"/>
      <path class="cls-3" d="M443.88,30h.94l-3.3,8.05h-.94l1.08-2.64-2.21-5.42h1.01l1.72,4.44,1.7-4.44Z"/>
      <path class="cls-3" d="M445.45,37.34v-.09c1.39-1.43,2.1-3.4,2.1-5.43s-.71-4.14-2.25-5.59v-.09h.95c1.42,1.31,2.18,3.42,2.18,5.68s-.76,4.27-2.03,5.52h-.95Z"/>
    </g>
    <path class="cls-18" d="M535.49,137.48c0,3.17-1.91,5.73-4.27,5.73H4.43c-2.36,0-4.27-2.56-4.27-5.73v-44.42c0-3.17,1.91-5.73,4.27-5.73h526.79c2.36,0,4.27,2.57,4.27,5.73v44.42Z"/>
    <g>
      <path class="cls-3" d="M21.91,135.7c-1.4,0-2.22-.78-2-1.93h.97c-.06.58.22,1.16,1.19,1.16.88,0,1.51-.5,1.65-1.16.4-1.88-3.62-.68-3.07-3.27.24-1.15,1.34-1.93,2.72-1.93s2.04.73,1.93,1.79h-1c.04-.47-.29-1-1.13-1.01-.75-.02-1.42.37-1.58,1.12-.38,1.8,3.61.68,3.06,3.26-.21.99-1.23,1.97-2.74,1.97Z"/>
      <path class="cls-3" d="M27.16,128.23h.91l-.58,2.71c.48-.58,1.23-.89,2-.89,1.22,0,2.02.78,1.69,2.35l-.69,3.23h-.9l.66-3.1c.24-1.12-.25-1.69-1.17-1.69s-1.69.58-1.94,1.76l-.64,3.03h-.91l1.57-7.4Z"/>
      <path class="cls-3" d="M34.35,135.72c-1.55,0-2.5-1.1-2.12-2.84.37-1.73,1.82-2.82,3.37-2.82s2.54,1.09,2.17,2.82c-.37,1.74-1.85,2.84-3.41,2.84ZM34.52,134.92c.95,0,2.02-.65,2.31-2.04.29-1.38-.48-2.03-1.42-2.03s-1.97.65-2.26,2.03c-.3,1.39.42,2.04,1.37,2.04Z"/>
      <path class="cls-3" d="M43.24,135.63h-.91l.17-.81c-.47.57-1.21.89-1.94.89-1.26,0-2.08-.78-1.75-2.35l.68-3.21h.9l-.66,3.09c-.24,1.11.25,1.68,1.17,1.68s1.69-.58,1.94-1.76l.64-3.01h.91l-1.16,5.48Z"/>
      <path class="cls-3" d="M46.36,128.23h.91l-1.57,7.4h-.91l1.57-7.4Z"/>
      <path class="cls-3" d="M50.7,130.06c.86,0,1.56.44,1.8,1.07l.62-2.9h.92l-1.57,7.4h-.92l.22-1.03c-.46.61-1.28,1.12-2.28,1.12-1.47,0-2.35-1.15-1.99-2.85.36-1.71,1.73-2.81,3.21-2.81ZM50.7,130.85c-1,0-2,.73-2.28,2.02-.27,1.29.41,2.05,1.41,2.05s2.02-.75,2.29-2.04c.27-1.27-.43-2.03-1.43-2.03Z"/>
    </g>
    <g>
      <path class="cls-3" d="M100.62,130.15h.94l-5.01,8.06h-.94l1.64-2.64-1.06-5.42h1.01l.78,4.44,2.64-4.44Z"/>
      <path class="cls-3" d="M103.67,135.72c-1.55,0-2.5-1.1-2.12-2.84.37-1.73,1.82-2.82,3.37-2.82s2.54,1.09,2.17,2.82c-.37,1.74-1.85,2.84-3.41,2.84ZM103.84,134.92c.95,0,2.02-.65,2.31-2.04.29-1.38-.48-2.03-1.42-2.03s-1.97.65-2.26,2.03c-.3,1.39.42,2.04,1.37,2.04Z"/>
      <path class="cls-3" d="M112.56,135.63h-.91l.17-.81c-.47.57-1.21.89-1.94.89-1.26,0-2.08-.78-1.75-2.35l.68-3.21h.9l-.66,3.09c-.24,1.11.25,1.68,1.17,1.68s1.69-.58,1.94-1.76l.64-3.01h.91l-1.16,5.48Z"/>
    </g>
    <g>
      <path class="cls-3" d="M287.35,135.7c-1.4,0-2.22-.78-2-1.93h.97c-.06.58.22,1.16,1.19,1.16.88,0,1.51-.5,1.65-1.16.4-1.88-3.62-.68-3.07-3.27.24-1.15,1.34-1.93,2.72-1.93s2.04.73,1.93,1.79h-1c.04-.47-.29-1-1.13-1.01-.75-.02-1.42.37-1.58,1.12-.38,1.8,3.61.68,3.06,3.26-.21.99-1.23,1.97-2.74,1.97Z"/>
      <path class="cls-3" d="M292.6,128.23h.91l-.58,2.71c.48-.58,1.23-.89,2-.89,1.22,0,2.02.78,1.69,2.35l-.69,3.23h-.9l.66-3.1c.24-1.12-.25-1.69-1.17-1.69s-1.69.58-1.94,1.76l-.64,3.03h-.91l1.57-7.4Z"/>
      <path class="cls-3" d="M299.79,135.72c-1.55,0-2.5-1.1-2.12-2.84.37-1.73,1.82-2.82,3.37-2.82s2.54,1.09,2.17,2.82c-.37,1.74-1.85,2.84-3.41,2.84ZM299.96,134.92c.95,0,2.02-.65,2.31-2.04.29-1.38-.48-2.03-1.42-2.03s-1.97.65-2.26,2.03c-.3,1.39.42,2.04,1.37,2.04Z"/>
      <path class="cls-3" d="M308.68,135.63h-.91l.17-.81c-.47.57-1.21.89-1.94.89-1.26,0-2.08-.78-1.75-2.35l.68-3.21h.9l-.66,3.09c-.24,1.11.25,1.68,1.17,1.68s1.69-.58,1.94-1.76l.64-3.01h.91l-1.16,5.48Z"/>
      <path class="cls-3" d="M311.8,128.23h.91l-1.57,7.4h-.91l1.57-7.4Z"/>
      <path class="cls-3" d="M316.14,130.06c.86,0,1.56.44,1.8,1.07l.62-2.9h.92l-1.57,7.4h-.92l.22-1.03c-.46.61-1.28,1.12-2.28,1.12-1.47,0-2.35-1.15-1.99-2.85.36-1.71,1.73-2.81,3.21-2.81ZM316.14,130.85c-1,0-2,.73-2.28,2.02-.27,1.29.41,2.05,1.41,2.05s2.02-.75,2.29-2.04c.27-1.27-.43-2.03-1.43-2.03Z"/>
      <path class="cls-3" d="M324.11,132.53c.24-1.12-.25-1.69-1.17-1.69s-1.69.58-1.94,1.76l-.64,3.03h-.91l1.16-5.48h.91l-.17.78c.48-.57,1.21-.88,1.95-.88,1.27,0,2.07.78,1.74,2.35l-.69,3.23h-.9l.66-3.1Z"/>
      <path class="cls-3" d="M326.39,130.93l1.07-2.27h1.01l-1.44,2.27h-.64Z"/>
      <path class="cls-3" d="M329.24,130.9h-.71l.16-.75h.71l.29-1.38h.91l-.29,1.38h1.43l-.16.75h-1.43l-.69,3.23c-.11.54.04.73.6.73h.67l-.16.77h-.82c-.97,0-1.43-.4-1.2-1.5l.69-3.23Z"/>
    </g>
    <g>
      <path class="cls-3" d="M159.03,135.72c-1.56,0-2.48-1.1-2.11-2.84.37-1.73,1.71-2.82,3.31-2.82s2.39,1.12,2.07,2.62c-.04.2-.09.36-.15.55h-4.38c-.17,1.11.48,1.72,1.41,1.72.82,0,1.43-.42,1.75-1.01h.98c-.49,1-1.54,1.78-2.9,1.78ZM157.95,132.49h3.46c.24-1.07-.44-1.66-1.38-1.66-.89,0-1.76.59-2.08,1.66Z"/>
      <path class="cls-3" d="M166.33,130.06c1.02,0,1.61.52,1.81,1.09l.21-1h.92l-1.16,5.48h-.92l.22-1.02c-.46.59-1.28,1.11-2.28,1.11-1.46,0-2.34-1.15-1.98-2.85.36-1.71,1.73-2.81,3.2-2.81ZM166.34,130.85c-1,0-2,.73-2.28,2.02-.27,1.29.41,2.05,1.41,2.05s2.02-.75,2.29-2.04c.27-1.27-.43-2.03-1.43-2.03Z"/>
      <path class="cls-3" d="M170.85,130.9h-.71l.16-.75h.71l.29-1.38h.91l-.29,1.38h1.43l-.16.75h-1.43l-.69,3.23c-.11.54.04.73.6.73h.67l-.16.77h-.82c-.97,0-1.43-.4-1.2-1.5l.69-3.23Z"/>
    </g>
    <g>
      <path class="cls-3" d="M216.48,130.06c1.02,0,1.61.52,1.81,1.09l.21-1h.92l-1.16,5.48h-.92l.22-1.02c-.46.59-1.28,1.11-2.28,1.11-1.46,0-2.34-1.15-1.98-2.85.36-1.71,1.73-2.81,3.2-2.81ZM216.49,130.85c-1,0-2,.73-2.28,2.02-.27,1.29.41,2.05,1.41,2.05s2.02-.75,2.29-2.04c.27-1.27-.43-2.03-1.43-2.03Z"/>
      <path class="cls-3" d="M223.94,130.06c1.47,0,2.36,1.1,2,2.81-.36,1.7-1.73,2.85-3.2,2.85-1,0-1.59-.54-1.82-1.1l-.77,3.61h-.91l1.72-8.08h.91l-.21,1.01c.45-.58,1.28-1.1,2.28-1.1ZM223.58,130.85c-.99,0-2.02.76-2.29,2.03-.27,1.29.44,2.04,1.43,2.04s2.02-.76,2.29-2.05c.27-1.29-.42-2.02-1.43-2.02Z"/>
      <path class="cls-3" d="M230.7,130.06c1.47,0,2.36,1.1,2,2.81-.36,1.7-1.73,2.85-3.2,2.85-1,0-1.59-.54-1.82-1.1l-.77,3.61h-.91l1.72-8.08h.91l-.21,1.01c.45-.58,1.28-1.1,2.28-1.1ZM230.34,130.85c-.99,0-2.02.76-2.29,2.03-.27,1.29.44,2.04,1.43,2.04s2.02-.76,2.29-2.05c.27-1.29-.42-2.02-1.43-2.02Z"/>
      <path class="cls-3" d="M234.89,128.23h.91l-1.57,7.4h-.91l1.57-7.4Z"/>
      <path class="cls-3" d="M238.12,135.72c-1.56,0-2.48-1.1-2.11-2.84.37-1.73,1.71-2.82,3.31-2.82s2.39,1.12,2.07,2.62c-.04.2-.09.36-.15.55h-4.38c-.17,1.11.48,1.72,1.41,1.72.82,0,1.43-.42,1.75-1.01h.98c-.49,1-1.54,1.78-2.9,1.78ZM237.04,132.49h3.46c.24-1.07-.44-1.66-1.38-1.66-.89,0-1.76.59-2.08,1.66Z"/>
      <path class="cls-3" d="M243.89,135.72c-1.28,0-2.03-.7-1.88-1.7h.94c-.06.53.32.93,1.09.93.72,0,1.2-.36,1.29-.81.26-1.22-3.13-.51-2.7-2.55.18-.84,1.11-1.53,2.33-1.53s1.87.65,1.7,1.72h-.91c.08-.55-.26-.95-.99-.95-.67,0-1.14.32-1.23.76-.28,1.3,3.05.59,2.68,2.55-.19.9-1.12,1.58-2.33,1.58Z"/>
      <path class="cls-3" d="M248.33,135.69c-.35,0-.56-.27-.49-.62.07-.35.4-.62.75-.62.33,0,.54.27.47.62-.07.35-.4.62-.73.62ZM250.47,128.57c1.31,0,2.04.79,1.77,2.06-.31,1.46-1.45,2.06-2.85,2.06l-.23.95h-.79l.3-1.58h.29c1.14,0,2.16-.22,2.41-1.43.17-.8-.24-1.3-1.05-1.3s-1.43.47-1.59,1.25h-.86c.25-1.21,1.3-2.01,2.61-2.01Z"/>
    </g>
    <g>
      <path class="cls-2" d="M535.55,121.04c0,.56-1.88,1.02-4.19,1.02H4.19C1.88,122.06,0,121.6,0,121.04v-18.63c0-.56,1.88-1.02,4.19-1.02h527.17c2.32,0,4.19.46,4.19,1.02v18.63Z"/>
      <path class="cls-1" d="M535.7,102.28c0,.62-1.88,1.12-4.2,1.12H4.2c-2.32,0-4.2-.5-4.2-1.12v-20.38c0-.62,1.88-1.11,4.2-1.11h527.31c2.32,0,4.2.5,4.2,1.11v20.38Z"/>
    </g>
    <g>
      <path class="cls-18" d="M166.72,87.82l-1.31,3.22h-2.1l2.03-3.22h1.38ZM169.45,87.82l-1.31,3.22h-2.1l2.03-3.22h1.38Z"/>
      <path class="cls-18" d="M171.93,96.33c-1.81,0-3.04-.9-2.73-2.6h2.18c-.08.65.26.96.84.96s1.05-.3,1.15-.79c.33-1.56-4.06-.72-3.4-3.71.34-1.6,1.84-2.48,3.6-2.48s2.88.91,2.62,2.52h-2.22c.08-.54-.24-.86-.78-.88-.49-.01-.92.24-1.03.77-.31,1.46,3.99.8,3.39,3.62-.3,1.42-1.65,2.59-3.62,2.59Z"/>
      <path class="cls-18" d="M178.06,87.36h2.05l-.66,3.08c.53-.58,1.35-.97,2.27-.97,1.52,0,2.32,1.06,1.94,2.86l-.83,3.91h-2.04l.77-3.64c.19-.91-.2-1.42-.98-1.42s-1.39.5-1.58,1.42l-.77,3.64h-2.05l1.89-8.88Z"/>
      <path class="cls-18" d="M187.18,96.34c-1.97,0-3.17-1.32-2.72-3.44.45-2.12,2.26-3.44,4.21-3.44s3.2,1.32,2.75,3.44c-.45,2.12-2.27,3.44-4.23,3.44ZM187.55,94.56c.73,0,1.53-.54,1.77-1.67.24-1.14-.32-1.67-1.04-1.67s-1.5.53-1.75,1.67c-.24,1.13.27,1.67,1.01,1.67Z"/>
      <path class="cls-18" d="M198.29,96.24h-2.05l.19-.91c-.53.58-1.34.98-2.24.98-1.55,0-2.36-1.07-1.98-2.85l.83-3.91h2.04l-.77,3.64c-.19.91.21,1.42.98,1.42s1.4-.5,1.6-1.42l.77-3.64h2.05l-1.42,6.7Z"/>
      <path class="cls-18" d="M201.55,87.36h2.05l-1.89,8.88h-2.05l1.89-8.88Z"/>
      <path class="cls-18" d="M207.07,89.45c.89,0,1.57.41,1.85,1.02l.66-3.11h2.05l-1.89,8.88h-2.05l.2-.96c-.5.61-1.3,1.06-2.29,1.06-1.64,0-2.67-1.34-2.22-3.46.45-2.11,2.04-3.43,3.68-3.43ZM207.29,91.24c-.77,0-1.59.58-1.81,1.64-.23,1.07.34,1.67,1.11,1.67s1.59-.59,1.81-1.66c.23-1.07-.33-1.66-1.11-1.66Z"/>
      <path class="cls-18" d="M212.14,91.04l1.31-3.22h2.1l-2.03,3.22h-1.38ZM214.87,91.04l1.31-3.22h2.1l-2.03,3.22h-1.38Z"/>
      <path class="cls-18" d="M223.99,89.45c1,0,1.61.46,1.84,1.04l.2-.95h2.05l-1.42,6.7h-2.05l.2-.95c-.5.59-1.3,1.04-2.3,1.04-1.63,0-2.65-1.34-2.2-3.46.45-2.11,2.04-3.43,3.68-3.43ZM224.21,91.24c-.77,0-1.59.58-1.81,1.64-.23,1.07.34,1.67,1.11,1.67s1.59-.59,1.81-1.66c.23-1.07-.33-1.66-1.11-1.66Z"/>
      <path class="cls-18" d="M233.44,92.61c.19-.91-.2-1.42-.98-1.42s-1.39.5-1.58,1.42l-.77,3.64h-2.05l1.42-6.7h2.05l-.19.89c.53-.56,1.33-.96,2.23-.96,1.55,0,2.35,1.06,1.97,2.86l-.83,3.91h-2.04l.77-3.64Z"/>
      <path class="cls-18" d="M240,89.45c.89,0,1.57.41,1.85,1.02l.66-3.11h2.05l-1.89,8.88h-2.05l.2-.96c-.5.61-1.3,1.06-2.29,1.06-1.64,0-2.67-1.34-2.22-3.46.45-2.11,2.04-3.43,3.68-3.43ZM240.22,91.24c-.77,0-1.59.58-1.81,1.64-.23,1.07.34,1.67,1.11,1.67s1.59-.59,1.81-1.66c.23-1.07-.33-1.66-1.11-1.66Z"/>
      <path class="cls-18" d="M250.72,87.82l-1.31,3.22h-2.1l2.03-3.22h1.38ZM253.45,87.82l-1.31,3.22h-2.1l2.03-3.22h1.38Z"/>
      <path class="cls-18" d="M255.93,96.33c-1.81,0-3.04-.9-2.73-2.6h2.18c-.08.65.26.96.84.96s1.05-.3,1.15-.79c.33-1.56-4.06-.72-3.4-3.71.34-1.6,1.84-2.48,3.6-2.48s2.88.91,2.62,2.52h-2.22c.08-.54-.24-.86-.78-.88-.49-.01-.92.24-1.03.77-.31,1.46,3.99.8,3.39,3.62-.3,1.42-1.65,2.59-3.62,2.59Z"/>
      <path class="cls-18" d="M262.06,87.36h2.05l-.66,3.08c.53-.58,1.35-.97,2.27-.97,1.52,0,2.32,1.06,1.94,2.86l-.83,3.91h-2.04l.77-3.64c.19-.91-.2-1.42-.98-1.42s-1.39.5-1.58,1.42l-.77,3.64h-2.05l1.89-8.88Z"/>
      <path class="cls-18" d="M271.18,96.34c-1.97,0-3.17-1.32-2.72-3.44.45-2.12,2.26-3.44,4.21-3.44s3.2,1.32,2.75,3.44c-.45,2.12-2.27,3.44-4.23,3.44ZM271.55,94.56c.73,0,1.53-.54,1.77-1.67.24-1.14-.32-1.67-1.04-1.67s-1.5.53-1.75,1.67c-.24,1.13.27,1.67,1.01,1.67Z"/>
      <path class="cls-18" d="M282.29,96.24h-2.05l.19-.91c-.53.58-1.34.98-2.24.98-1.55,0-2.36-1.07-1.98-2.85l.83-3.91h2.04l-.77,3.64c-.19.91.21,1.42.98,1.42s1.4-.5,1.6-1.42l.77-3.64h2.05l-1.42,6.7Z"/>
      <path class="cls-18" d="M285.55,87.36h2.05l-1.89,8.88h-2.05l1.89-8.88Z"/>
      <path class="cls-18" d="M291.08,89.45c.89,0,1.57.41,1.85,1.02l.66-3.11h2.05l-1.89,8.88h-2.05l.2-.96c-.5.61-1.3,1.06-2.29,1.06-1.64,0-2.67-1.34-2.22-3.46.45-2.11,2.04-3.43,3.68-3.43ZM291.3,91.24c-.77,0-1.59.58-1.81,1.64-.23,1.07.34,1.67,1.11,1.67s1.59-.59,1.81-1.66c.23-1.07-.33-1.66-1.11-1.66Z"/>
      <path class="cls-18" d="M300.53,92.61c.19-.91-.2-1.42-.98-1.42s-1.39.5-1.58,1.42l-.77,3.64h-2.05l1.42-6.7h2.05l-.19.89c.53-.56,1.33-.96,2.23-.96,1.55,0,2.35,1.06,1.97,2.86l-.83,3.91h-2.04l.77-3.64Z"/>
      <path class="cls-18" d="M304.06,91.04l1.31-3.22h2.1l-2.03,3.22h-1.38Z"/>
      <path class="cls-18" d="M308.14,91.25h-.82l.36-1.7h.82l.35-1.63h2.05l-.35,1.63h1.34l-.36,1.7h-1.34l-.57,2.69c-.08.4.05.56.5.56h.73l-.37,1.74h-1.04c-1.39,0-2.24-.59-1.87-2.33l.57-2.66Z"/>
      <path class="cls-18" d="M312.53,91.04l1.31-3.22h2.1l-2.03,3.22h-1.38ZM315.26,91.04l1.31-3.22h2.1l-2.03,3.22h-1.38Z"/>
      <path class="cls-18" d="M321.83,89.55h2.05l-1.42,6.7h-2.05l1.42-6.7ZM322.02,87.75c.13-.62.73-1.12,1.46-1.12s1.11.49.97,1.12c-.13.61-.73,1.1-1.45,1.1s-1.12-.49-.99-1.1Z"/>
      <path class="cls-18" d="M329.23,92.61c.19-.91-.2-1.42-.98-1.42s-1.39.5-1.58,1.42l-.77,3.64h-2.05l1.42-6.7h2.05l-.19.89c.53-.56,1.33-.96,2.23-.96,1.55,0,2.35,1.06,1.97,2.86l-.83,3.91h-2.04l.77-3.64Z"/>
      <path class="cls-18" d="M341.05,95.46l1.37,2.22h-2.48l-.77-1.45c-.31.06-.63.1-.96.1-2.39,0-3.95-1.79-3.41-4.32.54-2.53,2.86-4.31,5.25-4.31s3.93,1.78,3.39,4.31c-.31,1.48-1.22,2.69-2.39,3.46ZM338.62,94.46c1.34,0,2.42-.97,2.74-2.45.32-1.5-.36-2.45-1.7-2.45s-2.43.95-2.75,2.45c-.31,1.48.34,2.45,1.71,2.45Z"/>
      <path class="cls-18" d="M350.2,96.24h-2.05l.19-.91c-.53.58-1.34.98-2.24.98-1.55,0-2.36-1.07-1.98-2.85l.83-3.91h2.04l-.77,3.64c-.19.91.21,1.42.98,1.42s1.4-.5,1.6-1.42l.77-3.64h2.05l-1.42,6.7Z"/>
      <path class="cls-18" d="M354.51,96.34c-1.97,0-3.1-1.32-2.65-3.44.45-2.12,2.12-3.44,4.11-3.44s3.06,1.3,2.62,3.34c-.04.19-.1.4-.16.6h-4.64c-.11.88.34,1.28,1,1.28.58,0,.96-.29,1.2-.65h2.18c-.6,1.31-2,2.32-3.67,2.32ZM354.05,92.25h2.57c.16-.73-.33-1.15-1.01-1.15s-1.27.41-1.55,1.15Z"/>
      <path class="cls-18" d="M361.55,96.34c-1.79,0-2.77-1-2.6-2.29h2.03c-.05.47.3.78.87.78.53,0,.85-.24.92-.54.23-1.08-3.58-.3-3.06-2.76.24-1.14,1.41-2.08,3.16-2.08s2.48.96,2.33,2.28h-1.89c.04-.46-.25-.75-.82-.75-.48,0-.78.19-.85.52-.23,1.07,3.56.31,3.06,2.81-.25,1.16-1.46,2.04-3.14,2.04Z"/>
      <path class="cls-18" d="M366.82,91.25h-.82l.36-1.7h.82l.35-1.63h2.05l-.35,1.63h1.34l-.36,1.7h-1.34l-.57,2.69c-.08.4.05.56.5.56h.73l-.37,1.74h-1.04c-1.39,0-2.24-.59-1.87-2.33l.57-2.66Z"/>
      <path class="cls-18" d="M371.62,89.55h2.05l-1.42,6.7h-2.05l1.42-6.7ZM371.81,87.75c.13-.62.73-1.12,1.46-1.12s1.11.49.97,1.12c-.13.61-.73,1.1-1.45,1.1s-1.12-.49-.99-1.1Z"/>
      <path class="cls-18" d="M376.65,96.34c-1.97,0-3.17-1.32-2.72-3.44.45-2.12,2.26-3.44,4.21-3.44s3.2,1.32,2.75,3.44c-.45,2.12-2.27,3.44-4.23,3.44ZM377.03,94.56c.73,0,1.53-.54,1.77-1.67.24-1.14-.32-1.67-1.04-1.67s-1.5.53-1.75,1.67c-.24,1.13.27,1.67,1.01,1.67Z"/>
      <path class="cls-18" d="M386.56,92.61c.19-.91-.2-1.42-.98-1.42s-1.39.5-1.58,1.42l-.77,3.64h-2.05l1.42-6.7h2.05l-.19.89c.53-.56,1.33-.96,2.23-.96,1.55,0,2.35,1.06,1.97,2.86l-.83,3.91h-2.04l.77-3.64Z"/>
      <path class="cls-18" d="M391.85,96.34c-1.79,0-2.77-1-2.6-2.29h2.03c-.05.47.3.78.87.78.53,0,.85-.24.92-.54.23-1.08-3.58-.3-3.06-2.76.24-1.14,1.41-2.08,3.16-2.08s2.48.96,2.33,2.28h-1.89c.04-.46-.25-.75-.82-.75-.48,0-.78.19-.85.52-.23,1.07,3.56.31,3.06,2.81-.25,1.16-1.46,2.04-3.14,2.04Z"/>
    </g>
    <g>
      <path class="cls-3" d="M88.88,110.76c1.47,0,2.6,1.1,2.6,2.81s-1.13,2.85-2.6,2.85c-1,0-1.71-.54-2.05-1.1v3.61h-.91v-8.08h.91v1.01c.33-.58,1.05-1.1,2.05-1.1ZM88.69,111.55c-.99,0-1.86.76-1.86,2.03s.87,2.04,1.86,2.04,1.86-.76,1.86-2.05-.85-2.02-1.86-2.02Z"/>
      <path class="cls-3" d="M93.59,116.33h-.91v-5.48h.91v.89c.31-.61.9-.99,1.77-.99v.94h-.24c-.87,0-1.53.39-1.53,1.66v2.98Z"/>
      <path class="cls-3" d="M98.8,116.42c-1.55,0-2.73-1.1-2.73-2.84s1.22-2.82,2.77-2.82,2.77,1.09,2.77,2.82-1.25,2.84-2.81,2.84ZM98.8,115.62c.95,0,1.88-.65,1.88-2.04s-.91-2.03-1.85-2.03-1.83.65-1.83,2.03.85,2.04,1.8,2.04Z"/>
      <path class="cls-3" d="M106.82,113.23c0-1.12-.61-1.69-1.53-1.69s-1.57.58-1.57,1.76v3.03h-.91v-5.48h.91v.78c.36-.57,1.02-.88,1.76-.88,1.27,0,2.24.78,2.24,2.35v3.23h-.9v-3.1Z"/>
      <path class="cls-3" d="M111.6,116.42c-1.55,0-2.73-1.1-2.73-2.84s1.22-2.82,2.77-2.82,2.77,1.09,2.77,2.82-1.25,2.84-2.81,2.84ZM111.6,115.62c.95,0,1.88-.65,1.88-2.04s-.91-2.03-1.85-2.03-1.83.65-1.83,2.03.85,2.04,1.8,2.04Z"/>
      <path class="cls-3" d="M120.47,116.33h-.91v-.81c-.35.57-1.02.89-1.75.89-1.26,0-2.25-.78-2.25-2.35v-3.21h.9v3.09c0,1.11.61,1.68,1.53,1.68s1.57-.58,1.57-1.76v-3.01h.91v5.48Z"/>
      <path class="cls-3" d="M126.02,113.23c0-1.12-.61-1.69-1.53-1.69s-1.57.58-1.57,1.76v3.03h-.91v-5.48h.91v.78c.36-.57,1.02-.88,1.76-.88,1.27,0,2.24.78,2.24,2.35v3.23h-.9v-3.1Z"/>
    </g>
    <g>
      <path class="cls-3" d="M199.84,109.71c1.36,0,2.25.7,2.53,1.85h-.98c-.19-.66-.74-1.08-1.55-1.08-1,0-1.74.71-1.74,2.05s.74,2.07,1.74,2.07c.81,0,1.35-.39,1.55-1.08h.98c-.28,1.09-1.17,1.85-2.53,1.85-1.56,0-2.67-1.1-2.67-2.84s1.11-2.82,2.67-2.82Z"/>
      <path class="cls-3" d="M205.97,115.37c-1.55,0-2.73-1.1-2.73-2.84s1.22-2.82,2.77-2.82,2.77,1.09,2.77,2.82-1.25,2.84-2.81,2.84ZM205.97,114.57c.95,0,1.88-.65,1.88-2.04s-.91-2.03-1.85-2.03-1.83.65-1.83,2.03.85,2.04,1.8,2.04Z"/>
      <path class="cls-3" d="M217.89,112.18c0-1.12-.6-1.69-1.5-1.69s-1.55.59-1.55,1.77v3.02h-.9v-3.1c0-1.12-.6-1.69-1.5-1.69s-1.55.59-1.55,1.77v3.02h-.91v-5.48h.91v.79c.36-.58,1.01-.89,1.73-.89.9,0,1.65.4,2.01,1.22.32-.79,1.1-1.22,1.94-1.22,1.25,0,2.22.78,2.22,2.35v3.23h-.9v-3.1Z"/>
      <path class="cls-3" d="M223.24,109.71c1.47,0,2.6,1.1,2.6,2.81s-1.13,2.85-2.6,2.85c-1,0-1.71-.54-2.05-1.1v3.61h-.91v-8.08h.91v1.01c.33-.58,1.05-1.1,2.05-1.1ZM223.05,110.5c-.99,0-1.86.76-1.86,2.03s.87,2.04,1.86,2.04,1.86-.76,1.86-2.05-.85-2.02-1.86-2.02Z"/>
      <path class="cls-3" d="M227.05,107.88h.91v7.4h-.91v-7.4Z"/>
      <path class="cls-3" d="M231.87,115.37c-1.56,0-2.71-1.1-2.71-2.84s1.11-2.82,2.71-2.82,2.63,1.12,2.63,2.62c0,.2,0,.36-.03.55h-4.38c.07,1.11.85,1.72,1.78,1.72.82,0,1.34-.42,1.54-1.01h.98c-.28,1-1.16,1.78-2.52,1.78ZM230.1,112.14h3.46c.01-1.07-.79-1.66-1.73-1.66-.89,0-1.63.59-1.73,1.66Z"/>
      <path class="cls-3" d="M243.61,112.18c0-1.12-.6-1.69-1.5-1.69s-1.55.59-1.55,1.77v3.02h-.9v-3.1c0-1.12-.6-1.69-1.5-1.69s-1.55.59-1.55,1.77v3.02h-.91v-5.48h.91v.79c.36-.58,1.01-.89,1.73-.89.9,0,1.65.4,2.01,1.22.32-.79,1.1-1.22,1.94-1.22,1.25,0,2.22.78,2.22,2.35v3.23h-.9v-3.1Z"/>
      <path class="cls-3" d="M248.37,115.37c-1.56,0-2.71-1.1-2.71-2.84s1.11-2.82,2.71-2.82,2.63,1.12,2.63,2.62c0,.2,0,.36-.03.55h-4.38c.07,1.11.85,1.72,1.78,1.72.82,0,1.34-.42,1.54-1.01h.98c-.28,1-1.16,1.78-2.52,1.78ZM246.6,112.14h3.46c.01-1.07-.79-1.66-1.73-1.66-.89,0-1.63.59-1.73,1.66Z"/>
      <path class="cls-3" d="M256.21,112.18c0-1.12-.61-1.69-1.53-1.69s-1.57.58-1.57,1.76v3.03h-.91v-5.48h.91v.78c.36-.57,1.02-.88,1.76-.88,1.27,0,2.24.78,2.24,2.35v3.23h-.9v-3.1Z"/>
      <path class="cls-3" d="M258.8,110.55h-.71v-.75h.71v-1.38h.91v1.38h1.43v.75h-1.43v3.23c0,.54.2.73.76.73h.67v.77h-.82c-.97,0-1.52-.4-1.52-1.5v-3.23Z"/>
      <path class="cls-3" d="M264.02,108.22c1.31,0,2.21.79,2.21,2.06,0,1.46-1.01,2.06-2.41,2.06l-.03.95h-.79l-.04-1.58h.29c1.14,0,2.11-.22,2.11-1.43,0-.8-.52-1.3-1.33-1.3s-1.33.47-1.33,1.25h-.86c0-1.21.87-2.01,2.18-2.01ZM263.39,115.34c-.35,0-.62-.27-.62-.62s.27-.62.62-.62c.33,0,.6.27.6.62s-.27.62-.6.62Z"/>
    </g>
    <g>
      <path class="cls-3" d="M153.65,110.85l1.71,4.64,1.7-4.64h.97l-2.15,5.48h-1.06l-2.15-5.48h.98Z"/>
      <path class="cls-3" d="M161.3,116.42c-1.56,0-2.71-1.1-2.71-2.84s1.11-2.82,2.71-2.82,2.63,1.12,2.63,2.62c0,.2,0,.36-.03.55h-4.38c.07,1.11.85,1.72,1.78,1.72.82,0,1.34-.42,1.54-1.01h.98c-.28,1-1.16,1.78-2.52,1.78ZM159.53,113.19h3.46c.01-1.07-.79-1.66-1.73-1.66-.89,0-1.63.59-1.73,1.66Z"/>
      <path class="cls-3" d="M166.04,116.33h-.91v-5.48h.91v.89c.31-.61.9-.99,1.77-.99v.94h-.24c-.87,0-1.53.39-1.53,1.66v2.98Z"/>
      <path class="cls-3" d="M171.82,110.76c1.48,0,2.6,1.1,2.6,2.81s-1.13,2.85-2.6,2.85c-1,0-1.71-.5-2.05-1.1v1.01h-.91v-7.4h.91v2.94c.35-.61,1.08-1.11,2.05-1.11ZM171.63,111.55c-.99,0-1.86.76-1.86,2.03s.87,2.04,1.86,2.04,1.86-.76,1.86-2.05-.85-2.02-1.86-2.02Z"/>
    </g>
    <g>
      <path class="cls-3" d="M456.5,110.76c1.36,0,2.25.7,2.53,1.85h-.98c-.19-.66-.74-1.08-1.55-1.08-1,0-1.74.71-1.74,2.05s.74,2.07,1.74,2.07c.81,0,1.35-.39,1.55-1.08h.98c-.28,1.09-1.17,1.85-2.53,1.85-1.56,0-2.67-1.1-2.67-2.84s1.11-2.82,2.67-2.82Z"/>
      <path class="cls-3" d="M462.63,116.42c-1.55,0-2.73-1.1-2.73-2.84s1.22-2.82,2.77-2.82,2.77,1.09,2.77,2.82-1.25,2.84-2.81,2.84ZM462.63,115.62c.95,0,1.88-.65,1.88-2.04s-.91-2.03-1.85-2.03-1.83.65-1.83,2.03.85,2.04,1.8,2.04Z"/>
      <path class="cls-3" d="M474.55,113.23c0-1.12-.6-1.69-1.5-1.69s-1.55.59-1.55,1.77v3.02h-.9v-3.1c0-1.12-.6-1.69-1.5-1.69s-1.55.59-1.55,1.77v3.02h-.91v-5.48h.91v.79c.36-.58,1.01-.89,1.73-.89.9,0,1.65.4,2.01,1.22.32-.79,1.1-1.22,1.94-1.22,1.25,0,2.22.78,2.22,2.35v3.23h-.9v-3.1Z"/>
      <path class="cls-3" d="M479.9,110.76c1.47,0,2.6,1.1,2.6,2.81s-1.13,2.85-2.6,2.85c-1,0-1.71-.54-2.05-1.1v3.61h-.91v-8.08h.91v1.01c.33-.58,1.05-1.1,2.05-1.1ZM479.71,111.55c-.99,0-1.86.76-1.86,2.03s.87,2.04,1.86,2.04,1.86-.76,1.86-2.05-.85-2.02-1.86-2.02Z"/>
      <path class="cls-3" d="M483.7,108.93h.91v7.4h-.91v-7.4Z"/>
      <path class="cls-3" d="M488.53,116.42c-1.56,0-2.71-1.1-2.71-2.84s1.11-2.82,2.71-2.82,2.63,1.12,2.63,2.62c0,.2,0,.36-.03.55h-4.38c.07,1.11.85,1.72,1.78,1.72.82,0,1.34-.42,1.54-1.01h.98c-.28,1-1.16,1.78-2.52,1.78ZM486.76,113.19h3.46c.01-1.07-.79-1.66-1.73-1.66-.89,0-1.63.59-1.73,1.66Z"/>
      <path class="cls-3" d="M500.27,113.23c0-1.12-.6-1.69-1.5-1.69s-1.55.59-1.55,1.77v3.02h-.9v-3.1c0-1.12-.6-1.69-1.5-1.69s-1.55.59-1.55,1.77v3.02h-.91v-5.48h.91v.79c.36-.58,1.01-.89,1.73-.89.9,0,1.65.4,2.01,1.22.32-.79,1.1-1.22,1.94-1.22,1.25,0,2.22.78,2.22,2.35v3.23h-.9v-3.1Z"/>
      <path class="cls-3" d="M505.03,116.42c-1.56,0-2.71-1.1-2.71-2.84s1.11-2.82,2.71-2.82,2.63,1.12,2.63,2.62c0,.2,0,.36-.03.55h-4.38c.07,1.11.85,1.72,1.78,1.72.82,0,1.34-.42,1.54-1.01h.98c-.28,1-1.16,1.78-2.52,1.78ZM503.26,113.19h3.46c.01-1.07-.79-1.66-1.73-1.66-.89,0-1.63.59-1.73,1.66Z"/>
      <path class="cls-3" d="M512.87,113.23c0-1.12-.61-1.69-1.53-1.69s-1.57.58-1.57,1.76v3.03h-.91v-5.48h.91v.78c.36-.57,1.02-.88,1.76-.88,1.27,0,2.24.78,2.24,2.35v3.23h-.9v-3.1Z"/>
      <path class="cls-3" d="M515.46,111.6h-.71v-.75h.71v-1.38h.91v1.38h1.43v.75h-1.43v3.23c0,.54.2.73.76.73h.67v.77h-.82c-.97,0-1.52-.4-1.52-1.5v-3.23Z"/>
      <path class="cls-3" d="M520.68,109.27c1.31,0,2.21.79,2.21,2.06,0,1.46-1.01,2.06-2.41,2.06l-.03.95h-.79l-.04-1.58h.29c1.14,0,2.11-.22,2.11-1.43,0-.8-.52-1.3-1.33-1.3s-1.33.47-1.33,1.25h-.86c0-1.21.87-2.01,2.18-2.01ZM520.05,116.39c-.35,0-.62-.27-.62-.62s.27-.62.62-.62c.33,0,.6.27.6.62s-.27.62-.6.62Z"/>
    </g>
    <line class="cls-5" x1="69" y1="103.28" x2="69" y2="143.55"/>
    <line class="cls-4" x1="139.75" y1="103.03" x2="139.75" y2="142.85"/>
    <line class="cls-6" x1="440" y1="103.84" x2="440" y2="143.93"/>
    <line class="cls-12" x1="399.75" y1="103.84" x2="399.75" y2="143.18"/>
    <line class="cls-9" x1="188.2" y1="103.78" x2="188.2" y2="143.6"/>
    <g>
      <path class="cls-3" d="M19.63,116.4c-1.4,0-2.39-.78-2.41-1.93h.97c.06.58.47,1.16,1.44,1.16.88,0,1.4-.5,1.4-1.16,0-1.88-3.77-.68-3.77-3.27,0-1.15.93-1.93,2.31-1.93s2.2.73,2.31,1.79h-1c-.06-.47-.5-1-1.35-1.01-.75-.02-1.34.37-1.34,1.12,0,1.8,3.76.68,3.76,3.26,0,.99-.81,1.97-2.32,1.97Z"/>
      <path class="cls-3" d="M23.29,108.93h.91v2.71c.36-.58,1.04-.89,1.81-.89,1.22,0,2.19.78,2.19,2.35v3.23h-.9v-3.1c0-1.12-.61-1.69-1.53-1.69s-1.57.58-1.57,1.76v3.03h-.91v-7.4Z"/>
      <path class="cls-3" d="M32.08,116.42c-1.55,0-2.73-1.1-2.73-2.84s1.22-2.82,2.77-2.82,2.77,1.09,2.77,2.82-1.25,2.84-2.81,2.84ZM32.08,115.62c.95,0,1.88-.65,1.88-2.04s-.91-2.03-1.85-2.03-1.83.65-1.83,2.03.85,2.04,1.8,2.04Z"/>
      <path class="cls-3" d="M40.95,116.33h-.91v-.81c-.35.57-1.02.89-1.75.89-1.26,0-2.25-.78-2.25-2.35v-3.21h.9v3.09c0,1.11.61,1.68,1.53,1.68s1.57-.58,1.57-1.76v-3.01h.91v5.48Z"/>
      <path class="cls-3" d="M42.49,108.93h.91v7.4h-.91v-7.4Z"/>
      <path class="cls-3" d="M47.22,110.76c.86,0,1.65.44,2.03,1.07v-2.9h.92v7.4h-.92v-1.03c-.33.61-1.04,1.12-2.04,1.12-1.47,0-2.6-1.15-2.6-2.85s1.13-2.81,2.61-2.81ZM47.39,111.55c-1,0-1.85.73-1.85,2.02s.85,2.05,1.85,2.05,1.86-.75,1.86-2.04-.86-2.03-1.86-2.03Z"/>
    </g>
    <g>
      <path class="cls-3" d="M288.45,116.4c-1.4,0-2.39-.78-2.41-1.93h.97c.06.58.47,1.16,1.44,1.16.88,0,1.4-.5,1.4-1.16,0-1.88-3.77-.68-3.77-3.27,0-1.15.93-1.93,2.31-1.93s2.2.73,2.31,1.79h-1c-.06-.47-.5-1-1.35-1.01-.75-.02-1.34.37-1.34,1.12,0,1.8,3.76.68,3.76,3.26,0,.99-.81,1.97-2.32,1.97Z"/>
      <path class="cls-3" d="M292.11,108.93h.91v2.71c.36-.58,1.04-.89,1.81-.89,1.22,0,2.19.78,2.19,2.35v3.23h-.9v-3.1c0-1.12-.61-1.69-1.53-1.69s-1.57.58-1.57,1.76v3.03h-.91v-7.4Z"/>
      <path class="cls-3" d="M300.9,116.42c-1.55,0-2.73-1.1-2.73-2.84s1.22-2.82,2.77-2.82,2.77,1.09,2.77,2.82-1.25,2.84-2.81,2.84ZM300.9,115.62c.95,0,1.88-.65,1.88-2.04s-.91-2.03-1.85-2.03-1.83.65-1.83,2.03.85,2.04,1.8,2.04Z"/>
      <path class="cls-3" d="M309.77,116.33h-.91v-.81c-.35.57-1.02.89-1.75.89-1.26,0-2.25-.78-2.25-2.35v-3.21h.9v3.09c0,1.11.61,1.68,1.53,1.68s1.57-.58,1.57-1.76v-3.01h.91v5.48Z"/>
      <path class="cls-3" d="M311.31,108.93h.91v7.4h-.91v-7.4Z"/>
      <path class="cls-3" d="M316.04,110.76c.86,0,1.65.44,2.03,1.07v-2.9h.92v7.4h-.92v-1.03c-.33.61-1.04,1.12-2.04,1.12-1.47,0-2.6-1.15-2.6-2.85s1.13-2.81,2.61-2.81ZM316.21,111.55c-1,0-1.85.73-1.85,2.02s.85,2.05,1.85,2.05,1.86-.75,1.86-2.04-.86-2.03-1.86-2.03Z"/>
      <path class="cls-3" d="M324.54,113.23c0-1.12-.61-1.69-1.53-1.69s-1.57.58-1.57,1.76v3.03h-.91v-5.48h.91v.78c.36-.57,1.02-.88,1.76-.88,1.27,0,2.24.78,2.24,2.35v3.23h-.9v-3.1Z"/>
      <path class="cls-3" d="M326.48,111.63l.59-2.27h1.01l-.96,2.27h-.64Z"/>
      <path class="cls-3" d="M329.32,111.6h-.71v-.75h.71v-1.38h.91v1.38h1.43v.75h-1.43v3.23c0,.54.2.73.76.73h.67v.77h-.82c-.97,0-1.52-.4-1.52-1.5v-3.23Z"/>
    </g>
    <g>
      <path class="cls-3" d="M353.46,110.76c1.47,0,2.6,1.1,2.6,2.81s-1.13,2.85-2.6,2.85c-1,0-1.71-.54-2.05-1.1v3.61h-.91v-8.08h.91v1.01c.33-.58,1.05-1.1,2.05-1.1ZM353.27,111.55c-.99,0-1.86.76-1.86,2.03s.87,2.04,1.86,2.04,1.86-.76,1.86-2.05-.85-2.02-1.86-2.02Z"/>
      <path class="cls-3" d="M358.17,116.33h-.91v-5.48h.91v.89c.31-.61.9-.99,1.77-.99v.94h-.24c-.87,0-1.53.39-1.53,1.66v2.98Z"/>
      <path class="cls-3" d="M363.38,116.42c-1.55,0-2.73-1.1-2.73-2.84s1.22-2.82,2.77-2.82,2.77,1.09,2.77,2.82-1.25,2.84-2.81,2.84ZM363.38,115.62c.95,0,1.88-.65,1.88-2.04s-.91-2.03-1.85-2.03-1.83.65-1.83,2.03.85,2.04,1.8,2.04Z"/>
      <path class="cls-3" d="M371.4,113.23c0-1.12-.61-1.69-1.53-1.69s-1.57.58-1.57,1.76v3.03h-.91v-5.48h.91v.78c.36-.57,1.02-.88,1.76-.88,1.27,0,2.24.78,2.24,2.35v3.23h-.9v-3.1Z"/>
      <path class="cls-3" d="M376.18,116.42c-1.55,0-2.73-1.1-2.73-2.84s1.22-2.82,2.77-2.82,2.77,1.09,2.77,2.82-1.25,2.84-2.81,2.84ZM376.18,115.62c.95,0,1.88-.65,1.88-2.04s-.91-2.03-1.85-2.03-1.83.65-1.83,2.03.85,2.04,1.8,2.04Z"/>
      <path class="cls-3" d="M385.05,116.33h-.91v-.81c-.35.57-1.02.89-1.75.89-1.26,0-2.25-.78-2.25-2.35v-3.21h.9v3.09c0,1.11.61,1.68,1.53,1.68s1.57-.58,1.57-1.76v-3.01h.91v5.48Z"/>
      <path class="cls-3" d="M390.6,113.23c0-1.12-.61-1.69-1.53-1.69s-1.57.58-1.57,1.76v3.03h-.91v-5.48h.91v.78c.36-.57,1.02-.88,1.76-.88,1.27,0,2.24.78,2.24,2.35v3.23h-.9v-3.1Z"/>
    </g>
    <g>
      <path class="cls-3" d="M409.87,110.85l1.71,4.64,1.7-4.64h.97l-2.15,5.48h-1.06l-2.15-5.48h.98Z"/>
      <path class="cls-3" d="M417.52,116.42c-1.56,0-2.71-1.1-2.71-2.84s1.11-2.82,2.71-2.82,2.63,1.12,2.63,2.62c0,.2,0,.36-.03.55h-4.38c.07,1.11.85,1.72,1.78,1.72.82,0,1.34-.42,1.54-1.01h.98c-.28,1-1.16,1.78-2.52,1.78ZM415.75,113.19h3.46c.01-1.07-.79-1.66-1.73-1.66-.89,0-1.63.59-1.73,1.66Z"/>
      <path class="cls-3" d="M422.26,116.33h-.91v-5.48h.91v.89c.31-.61.9-.99,1.77-.99v.94h-.24c-.87,0-1.53.39-1.53,1.66v2.98Z"/>
      <path class="cls-3" d="M428.04,110.76c1.48,0,2.6,1.1,2.6,2.81s-1.13,2.85-2.6,2.85c-1,0-1.71-.5-2.05-1.1v1.01h-.91v-7.4h.91v2.94c.35-.61,1.08-1.11,2.05-1.11ZM427.85,111.55c-.99,0-1.86.76-1.86,2.03s.87,2.04,1.86,2.04,1.86-.76,1.86-2.05-.85-2.02-1.86-2.02Z"/>
    </g>
    <line class="cls-17" x1="275.7" y1="103.27" x2="275.7" y2="146.07"/>
    <line class="cls-15" x1="339.7" y1="103.84" x2="339.7" y2="146.07"/>
    <g>
      <path class="cls-3" d="M366.65,130.15h.94l-5.01,8.06h-.94l1.64-2.64-1.06-5.42h1.01l.78,4.44,2.64-4.44Z"/>
      <path class="cls-3" d="M369.71,135.72c-1.55,0-2.5-1.1-2.12-2.84.37-1.73,1.82-2.82,3.37-2.82s2.54,1.09,2.17,2.82c-.37,1.74-1.85,2.84-3.41,2.84ZM369.88,134.92c.95,0,2.02-.65,2.31-2.04.29-1.38-.48-2.03-1.42-2.03s-1.97.65-2.26,2.03c-.3,1.39.42,2.04,1.37,2.04Z"/>
      <path class="cls-3" d="M378.59,135.63h-.91l.17-.81c-.47.57-1.21.89-1.94.89-1.26,0-2.08-.78-1.75-2.35l.68-3.21h.9l-.66,3.09c-.24,1.11.25,1.68,1.17,1.68s1.69-.58,1.94-1.76l.64-3.01h.91l-1.16,5.48Z"/>
    </g>
    <g>
      <path class="cls-3" d="M466.14,130.15h.94l-5.01,8.06h-.94l1.64-2.64-1.06-5.42h1.01l.78,4.44,2.64-4.44Z"/>
      <path class="cls-3" d="M469.2,135.72c-1.55,0-2.5-1.1-2.12-2.84.37-1.73,1.82-2.82,3.37-2.82s2.54,1.09,2.17,2.82c-.37,1.74-1.85,2.84-3.41,2.84ZM469.37,134.92c.95,0,2.02-.65,2.31-2.04.29-1.38-.48-2.03-1.42-2.03s-1.97.65-2.26,2.03c-.29,1.39.42,2.04,1.37,2.04Z"/>
      <path class="cls-3" d="M478.09,135.63h-.91l.17-.81c-.47.57-1.21.89-1.94.89-1.26,0-2.08-.78-1.75-2.35l.68-3.21h.9l-.66,3.09c-.24,1.11.25,1.68,1.17,1.68s1.69-.58,1.94-1.76l.64-3.01h.91l-1.16,5.48Z"/>
      <path class="cls-3" d="M480.54,135.63h-.91l1.16-5.48h.91l-.19.89c.44-.61,1.11-.99,1.98-.99l-.2.94h-.24c-.87,0-1.61.39-1.88,1.66l-.63,2.98Z"/>
      <path class="cls-3" d="M487.23,130.9h-.71l.16-.75h.71l.29-1.38h.91l-.29,1.38h1.43l-.16.75h-1.43l-.69,3.23c-.11.54.04.73.6.73h.67l-.16.77h-.82c-.97,0-1.43-.4-1.2-1.5l.69-3.23Z"/>
      <path class="cls-3" d="M492.02,135.72c-1.56,0-2.48-1.1-2.11-2.84.37-1.73,1.71-2.82,3.31-2.82s2.39,1.12,2.07,2.62c-.04.2-.09.36-.15.55h-4.38c-.17,1.11.48,1.72,1.41,1.72.82,0,1.43-.42,1.75-1.01h.98c-.49,1-1.54,1.78-2.9,1.78ZM490.93,132.49h3.46c.24-1.07-.44-1.66-1.38-1.66-.89,0-1.75.59-2.08,1.66Z"/>
      <path class="cls-3" d="M498.22,135.72c-1.56,0-2.48-1.1-2.11-2.84.37-1.73,1.71-2.82,3.31-2.82s2.39,1.12,2.07,2.62c-.04.2-.09.36-.15.55h-4.38c-.17,1.11.48,1.72,1.41,1.72.82,0,1.43-.42,1.75-1.01h.98c-.49,1-1.54,1.78-2.9,1.78ZM497.13,132.49h3.46c.24-1.07-.44-1.66-1.38-1.66-.89,0-1.75.59-2.08,1.66Z"/>
      <path class="cls-3" d="M503.27,130.9h-.71l.16-.75h.71l.29-1.38h.91l-.29,1.38h1.43l-.16.75h-1.43l-.69,3.23c-.11.54.04.73.6.73h.67l-.16.77h-.82c-.97,0-1.43-.4-1.2-1.5l.69-3.23Z"/>
      <path class="cls-3" d="M507.28,128.23h.91l-.58,2.71c.48-.58,1.23-.89,2-.89,1.22,0,2.02.78,1.69,2.35l-.69,3.23h-.9l.66-3.1c.24-1.12-.25-1.69-1.17-1.69s-1.69.58-1.94,1.76l-.64,3.03h-.91l1.57-7.4Z"/>
      <path class="cls-3" d="M513.24,135.69c-.35,0-.56-.27-.49-.62.08-.35.4-.62.75-.62.33,0,.54.27.47.62-.07.35-.4.62-.73.62ZM515.39,128.57c1.31,0,2.04.79,1.77,2.06-.31,1.46-1.45,2.06-2.85,2.06l-.23.95h-.79l.3-1.58h.29c1.14,0,2.16-.22,2.41-1.43.17-.8-.24-1.3-1.05-1.3s-1.43.47-1.59,1.25h-.86c.25-1.21,1.3-2.01,2.61-2.01Z"/>
    </g>
    <g>
      <path class="cls-3" d="M411.41,130.06c1.48,0,2.37,1.1,2,2.81-.36,1.7-1.73,2.85-3.2,2.85-1,0-1.6-.5-1.82-1.1l-.21,1.01h-.91l1.57-7.4h.91l-.62,2.94c.48-.61,1.32-1.11,2.29-1.11ZM411.05,130.85c-.99,0-2.02.76-2.29,2.03-.27,1.29.44,2.04,1.43,2.04s2.02-.76,2.29-2.05c.27-1.29-.42-2.02-1.43-2.02Z"/>
      <path class="cls-3" d="M414.94,135.63h-.91l1.16-5.48h.91l-.19.89c.44-.61,1.11-.99,1.98-.99l-.2.94h-.24c-.87,0-1.61.39-1.88,1.66l-.63,2.98Z"/>
      <path class="cls-3" d="M422.62,135.63h-.91l.17-.81c-.47.57-1.21.89-1.94.89-1.26,0-2.08-.78-1.75-2.35l.68-3.21h.9l-.66,3.09c-.24,1.11.25,1.68,1.17,1.68s1.69-.58,1.94-1.76l.64-3.01h.91l-1.16,5.48Z"/>
      <path class="cls-3" d="M426.08,135.72c-1.28,0-2.03-.7-1.88-1.7h.94c-.06.53.32.93,1.09.93.72,0,1.2-.36,1.29-.81.26-1.22-3.13-.51-2.7-2.55.18-.84,1.11-1.53,2.33-1.53s1.87.65,1.7,1.72h-.91c.08-.55-.26-.95-.99-.95-.67,0-1.14.32-1.23.76-.28,1.3,3.05.59,2.68,2.55-.19.9-1.12,1.58-2.33,1.58Z"/>
      <path class="cls-3" d="M430.95,128.23h.91l-.58,2.71c.48-.58,1.23-.89,2-.89,1.22,0,2.02.78,1.69,2.35l-.69,3.23h-.9l.66-3.1c.24-1.12-.25-1.69-1.17-1.69s-1.69.58-1.94,1.76l-.64,3.03h-.91l1.57-7.4Z"/>
    </g>
  </g>
</svg>