<?xml version="1.0" encoding="UTF-8"?>
<svg id="Layer_2" data-name="Layer 2" xmlns="http://www.w3.org/2000/svg" viewBox="0 0 537 70.81">
  <defs>
    <style>
      .cls-1 {
        fill: #f89631;
      }

      .cls-2 {
        fill: #fff;
      }
    </style>
  </defs>
  <g id="Layer_1-2" data-name="Layer 1">
    <rect class="cls-1" width="134.89" height="70.11" rx="3.6" ry="3.6"/>
    <g>
      <path class="cls-2" d="M8.64,11.19c1.22,0,2.03.63,2.28,1.67h-.88c-.17-.59-.67-.97-1.4-.97-.9,0-1.57.64-1.57,1.85s.67,1.86,1.57,1.86c.73,0,1.22-.35,1.4-.97h.88c-.25.98-1.05,1.67-2.28,1.67-1.4,0-2.4-.99-2.4-2.56s1-2.54,2.4-2.54Z"/>
      <path class="cls-2" d="M14.15,16.29c-1.4,0-2.46-.99-2.46-2.56s1.1-2.54,2.49-2.54,2.49.98,2.49,2.54-1.13,2.56-2.53,2.56ZM14.15,15.57c.86,0,1.69-.58,1.69-1.84s-.82-1.83-1.67-1.83-1.65.59-1.65,1.83.77,1.84,1.62,1.84Z"/>
      <path class="cls-2" d="M22.14,16.21h-.82v-.73c-.32.51-.92.8-1.58.8-1.13,0-2.03-.7-2.03-2.12v-2.89h.81v2.78c0,1,.55,1.51,1.38,1.51s1.41-.52,1.41-1.58v-2.71h.82v4.93Z"/>
      <path class="cls-2" d="M23.52,9.54h.82v6.66h-.82v-6.66Z"/>
      <path class="cls-2" d="M27.78,11.19c.77,0,1.49.4,1.83.96v-2.61h.83v6.66h-.83v-.93c-.3.55-.94,1.01-1.84,1.01-1.32,0-2.34-1.04-2.34-2.57s1.02-2.53,2.35-2.53ZM27.93,11.9c-.9,0-1.67.66-1.67,1.82s.77,1.84,1.67,1.84,1.67-.67,1.67-1.84-.77-1.83-1.67-1.83Z"/>
      <path class="cls-2" d="M35.43,13.42c0-1.01-.55-1.52-1.38-1.52s-1.41.52-1.41,1.58v2.73h-.82v-4.93h.82v.7c.32-.51.92-.79,1.58-.79,1.14,0,2.02.7,2.02,2.12v2.91h-.81v-2.79Z"/>
      <path class="cls-2" d="M37.18,11.98l.53-2.04h.91l-.86,2.04h-.58Z"/>
      <path class="cls-2" d="M39.73,11.95h-.64v-.68h.64v-1.24h.82v1.24h1.29v.68h-1.29v2.91c0,.49.18.66.68.66h.6v.69h-.74c-.87,0-1.37-.36-1.37-1.35v-2.91Z"/>
      <path class="cls-2" d="M45.45,11.6h4.68v.69h-4.68v-.69ZM45.45,13.53h4.68v.69h-4.68v-.69Z"/>
      <path class="cls-2" d="M56.24,11.19c1.22,0,2.03.63,2.28,1.67h-.88c-.17-.59-.67-.97-1.4-.97-.9,0-1.57.64-1.57,1.85s.67,1.86,1.57,1.86c.73,0,1.22-.35,1.4-.97h.88c-.25.98-1.05,1.67-2.28,1.67-1.4,0-2.4-.99-2.4-2.56s1-2.54,2.4-2.54Z"/>
      <path class="cls-2" d="M61.75,16.29c-1.4,0-2.46-.99-2.46-2.56s1.1-2.54,2.49-2.54,2.49.98,2.49,2.54-1.13,2.56-2.53,2.56ZM61.75,15.57c.86,0,1.69-.58,1.69-1.84s-.82-1.83-1.67-1.83-1.65.59-1.65,1.83.77,1.84,1.62,1.84Z"/>
      <path class="cls-2" d="M69.74,16.21h-.82v-.73c-.32.51-.92.8-1.58.8-1.13,0-2.03-.7-2.03-2.12v-2.89h.81v2.78c0,1,.55,1.51,1.38,1.51s1.41-.52,1.41-1.58v-2.71h.82v4.93Z"/>
      <path class="cls-2" d="M71.12,9.54h.82v6.66h-.82v-6.66Z"/>
      <path class="cls-2" d="M75.38,11.19c.77,0,1.49.4,1.83.96v-2.61h.83v6.66h-.83v-.93c-.3.55-.94,1.01-1.84,1.01-1.32,0-2.34-1.04-2.34-2.57s1.02-2.53,2.35-2.53ZM75.53,11.9c-.9,0-1.67.66-1.67,1.82s.77,1.84,1.67,1.84,1.67-.67,1.67-1.84-.77-1.83-1.67-1.83Z"/>
      <path class="cls-2" d="M85.43,13.42c0-1.01-.55-1.52-1.38-1.52s-1.41.52-1.41,1.58v2.73h-.82v-4.93h.82v.7c.32-.51.92-.79,1.58-.79,1.14,0,2.02.7,2.02,2.12v2.91h-.81v-2.79Z"/>
      <path class="cls-2" d="M89.74,16.29c-1.4,0-2.46-.99-2.46-2.56s1.1-2.54,2.49-2.54,2.49.98,2.49,2.54-1.12,2.56-2.53,2.56ZM89.74,15.57c.86,0,1.69-.58,1.69-1.84s-.82-1.83-1.67-1.83-1.65.59-1.65,1.83.77,1.84,1.62,1.84Z"/>
      <path class="cls-2" d="M93.52,11.95h-.64v-.68h.64v-1.24h.82v1.24h1.29v.68h-1.29v2.91c0,.49.18.66.68.66h.6v.69h-.74c-.87,0-1.37-.36-1.37-1.35v-2.91Z"/>
    </g>
    <g>
      <path class="cls-2" d="M5.95,34.67h.84l1.13,4.14,1.22-4.14h.84l1.2,4.15,1.12-4.15h.81l-1.54,4.93h-.85l-1.19-3.92-1.19,3.92h-.85l-1.55-4.93Z"/>
      <path class="cls-2" d="M16.07,39.69c-1.4,0-2.46-.99-2.46-2.56s1.1-2.54,2.49-2.54,2.49.98,2.49,2.54-1.13,2.56-2.53,2.56ZM16.07,38.97c.86,0,1.69-.58,1.69-1.84s-.82-1.83-1.67-1.83-1.65.59-1.65,1.83.77,1.84,1.62,1.84Z"/>
      <path class="cls-2" d="M24.06,39.61h-.82v-.73c-.32.51-.92.8-1.58.8-1.13,0-2.03-.7-2.03-2.12v-2.89h.81v2.78c0,1,.55,1.51,1.38,1.51s1.41-.52,1.41-1.58v-2.71h.82v4.93Z"/>
      <path class="cls-2" d="M25.44,32.94h.82v6.66h-.82v-6.66Z"/>
      <path class="cls-2" d="M29.7,34.59c.77,0,1.49.4,1.83.96v-2.61h.83v6.66h-.83v-.93c-.3.55-.94,1.01-1.84,1.01-1.32,0-2.34-1.04-2.34-2.57s1.02-2.53,2.35-2.53ZM29.85,35.3c-.9,0-1.67.66-1.67,1.82s.77,1.84,1.67,1.84,1.67-.67,1.67-1.84-.77-1.83-1.67-1.83Z"/>
      <path class="cls-2" d="M37.35,36.82c0-1.01-.55-1.52-1.38-1.52s-1.41.52-1.41,1.58v2.73h-.82v-4.93h.82v.7c.32-.51.92-.79,1.58-.79,1.14,0,2.02.7,2.02,2.12v2.91h-.81v-2.79Z"/>
      <path class="cls-2" d="M39.09,35.37l.53-2.04h.91l-.86,2.04h-.58Z"/>
      <path class="cls-2" d="M41.65,35.35h-.64v-.68h.64v-1.24h.82v1.24h1.29v.68h-1.29v2.91c0,.49.18.66.68.66h.6v.69h-.74c-.87,0-1.37-.36-1.37-1.35v-2.91Z"/>
      <path class="cls-2" d="M47.36,35h4.68v.69h-4.68v-.69ZM47.36,36.93h4.68v.69h-4.68v-.69Z"/>
      <path class="cls-2" d="M55.47,34.67h.84l1.13,4.14,1.22-4.14h.84l1.2,4.15,1.12-4.15h.81l-1.54,4.93h-.85l-1.19-3.92-1.19,3.92h-.85l-1.55-4.93Z"/>
      <path class="cls-2" d="M65.59,39.69c-1.4,0-2.46-.99-2.46-2.56s1.1-2.54,2.49-2.54,2.49.98,2.49,2.54-1.13,2.56-2.53,2.56ZM65.59,38.97c.86,0,1.69-.58,1.69-1.84s-.82-1.83-1.67-1.83-1.65.59-1.65,1.83.77,1.84,1.62,1.84Z"/>
      <path class="cls-2" d="M73.57,39.61h-.82v-.73c-.32.51-.92.8-1.58.8-1.13,0-2.03-.7-2.03-2.12v-2.89h.81v2.78c0,1,.55,1.51,1.38,1.51s1.41-.52,1.41-1.58v-2.71h.82v4.93Z"/>
      <path class="cls-2" d="M74.96,32.94h.82v6.66h-.82v-6.66Z"/>
      <path class="cls-2" d="M79.21,34.59c.77,0,1.49.4,1.83.96v-2.61h.83v6.66h-.83v-.93c-.3.55-.94,1.01-1.84,1.01-1.32,0-2.34-1.04-2.34-2.57s1.02-2.53,2.35-2.53ZM79.37,35.3c-.9,0-1.67.66-1.67,1.82s.77,1.84,1.67,1.84,1.67-.67,1.67-1.84-.77-1.83-1.67-1.83Z"/>
      <path class="cls-2" d="M89.27,36.82c0-1.01-.55-1.52-1.38-1.52s-1.41.52-1.41,1.58v2.73h-.82v-4.93h.82v.7c.32-.51.92-.79,1.58-.79,1.14,0,2.02.7,2.02,2.12v2.91h-.81v-2.79Z"/>
      <path class="cls-2" d="M93.57,39.69c-1.4,0-2.46-.99-2.46-2.56s1.1-2.54,2.49-2.54,2.49.98,2.49,2.54-1.12,2.56-2.53,2.56ZM93.57,38.97c.86,0,1.69-.58,1.69-1.84s-.82-1.83-1.67-1.83-1.65.59-1.65,1.83.77,1.84,1.62,1.84Z"/>
      <path class="cls-2" d="M97.36,35.35h-.64v-.68h.64v-1.24h.82v1.24h1.29v.68h-1.29v2.91c0,.49.18.66.68.66h.6v.69h-.74c-.87,0-1.37-.36-1.37-1.35v-2.91Z"/>
    </g>
    <g>
      <path class="cls-2" d="M8.29,63.09c-1.15,0-1.96-.63-2.02-1.53h.85c.04.48.47.84,1.16.84.65,0,1.01-.32,1.01-.73,0-1.1-2.92-.46-2.92-2.29,0-.76.71-1.38,1.81-1.38s1.81.58,1.86,1.55h-.82c-.04-.5-.41-.86-1.07-.86-.6,0-.96.29-.96.68,0,1.17,2.86.53,2.9,2.29,0,.81-.71,1.42-1.8,1.42Z"/>
      <path class="cls-2" d="M11.24,56.34h.82v2.44c.32-.52.94-.8,1.63-.8,1.1,0,1.97.7,1.97,2.12v2.91h-.81v-2.79c0-1.01-.55-1.52-1.38-1.52s-1.41.52-1.41,1.58v2.73h-.82v-6.66Z"/>
      <path class="cls-2" d="M19.15,63.09c-1.4,0-2.46-.99-2.46-2.56s1.1-2.54,2.49-2.54,2.49.98,2.49,2.54-1.13,2.56-2.53,2.56ZM19.15,62.37c.86,0,1.69-.58,1.69-1.84s-.82-1.83-1.67-1.83-1.65.59-1.65,1.83.77,1.84,1.62,1.84Z"/>
      <path class="cls-2" d="M27.13,63.01h-.82v-.73c-.31.51-.92.8-1.58.8-1.13,0-2.03-.7-2.03-2.12v-2.89h.81v2.78c0,1,.55,1.51,1.38,1.51s1.41-.52,1.41-1.58v-2.71h.82v4.93Z"/>
      <path class="cls-2" d="M28.52,56.34h.82v6.66h-.82v-6.66Z"/>
      <path class="cls-2" d="M32.78,57.99c.77,0,1.49.4,1.83.96v-2.61h.83v6.66h-.83v-.93c-.3.55-.94,1.01-1.84,1.01-1.32,0-2.34-1.04-2.34-2.57s1.02-2.53,2.35-2.53ZM32.93,58.7c-.9,0-1.67.66-1.67,1.82s.77,1.84,1.67,1.84,1.67-.67,1.67-1.84-.77-1.83-1.67-1.83Z"/>
      <path class="cls-2" d="M40.43,60.22c0-1.01-.55-1.52-1.38-1.52s-1.41.52-1.41,1.58v2.73h-.82v-4.93h.82v.7c.32-.51.92-.79,1.58-.79,1.14,0,2.02.7,2.02,2.12v2.91h-.81v-2.79Z"/>
      <path class="cls-2" d="M42.17,58.78l.53-2.04h.91l-.86,2.04h-.58Z"/>
      <path class="cls-2" d="M44.73,58.75h-.64v-.68h.64v-1.24h.82v1.24h1.29v.68h-1.29v2.91c0,.49.18.66.68.66h.6v.69h-.74c-.87,0-1.37-.36-1.37-1.35v-2.91Z"/>
      <path class="cls-2" d="M50.44,58.4h4.68v.69h-4.68v-.69ZM50.44,60.33h4.68v.69h-4.68v-.69Z"/>
      <path class="cls-2" d="M60.88,63.09c-1.15,0-1.96-.63-2.02-1.53h.85c.04.48.47.84,1.16.84.65,0,1.01-.32,1.01-.73,0-1.1-2.92-.46-2.92-2.29,0-.76.71-1.38,1.81-1.38s1.81.58,1.86,1.55h-.82c-.04-.5-.41-.86-1.07-.86-.6,0-.96.29-.96.68,0,1.17,2.86.53,2.9,2.29,0,.81-.71,1.42-1.8,1.42Z"/>
      <path class="cls-2" d="M63.83,56.34h.82v2.44c.32-.52.94-.8,1.63-.8,1.1,0,1.97.7,1.97,2.12v2.91h-.81v-2.79c0-1.01-.55-1.52-1.38-1.52s-1.41.52-1.41,1.58v2.73h-.82v-6.66Z"/>
      <path class="cls-2" d="M71.74,63.09c-1.4,0-2.46-.99-2.46-2.56s1.1-2.54,2.49-2.54,2.49.98,2.49,2.54-1.12,2.56-2.53,2.56ZM71.74,62.37c.86,0,1.69-.58,1.69-1.84s-.82-1.83-1.67-1.83-1.65.59-1.65,1.83.77,1.84,1.62,1.84Z"/>
      <path class="cls-2" d="M79.73,63.01h-.82v-.73c-.31.51-.92.8-1.58.8-1.13,0-2.03-.7-2.03-2.12v-2.89h.81v2.78c0,1,.55,1.51,1.38,1.51s1.41-.52,1.41-1.58v-2.71h.82v4.93Z"/>
      <path class="cls-2" d="M81.11,56.34h.82v6.66h-.82v-6.66Z"/>
      <path class="cls-2" d="M85.37,57.99c.77,0,1.49.4,1.83.96v-2.61h.83v6.66h-.83v-.93c-.3.55-.94,1.01-1.84,1.01-1.32,0-2.34-1.04-2.34-2.57s1.02-2.53,2.35-2.53ZM85.52,58.7c-.9,0-1.67.66-1.67,1.82s.77,1.84,1.67,1.84,1.67-.67,1.67-1.84-.77-1.83-1.67-1.83Z"/>
      <path class="cls-2" d="M95.42,60.22c0-1.01-.55-1.52-1.38-1.52s-1.41.52-1.41,1.58v2.73h-.82v-4.93h.82v.7c.32-.51.92-.79,1.58-.79,1.14,0,2.02.7,2.02,2.12v2.91h-.81v-2.79Z"/>
      <path class="cls-2" d="M99.73,63.09c-1.4,0-2.46-.99-2.46-2.56s1.1-2.54,2.49-2.54,2.49.98,2.49,2.54-1.13,2.56-2.53,2.56ZM99.73,62.37c.86,0,1.69-.58,1.69-1.84s-.82-1.83-1.67-1.83-1.65.59-1.65,1.83.77,1.84,1.62,1.84Z"/>
      <path class="cls-2" d="M103.51,58.75h-.64v-.68h.64v-1.24h.82v1.24h1.29v.68h-1.29v2.91c0,.49.18.66.68.66h.6v.69h-.74c-.87,0-1.37-.36-1.37-1.35v-2.91Z"/>
    </g>
    <path class="cls-1" d="M146.75.7s-3.75,0-3.75,2.82v64.48s0,2.82,3.75,2.82h386.49s3.75,0,3.75-2.82V3.51s0-2.82-3.75-2.82H146.75Z"/>
    <g>
      <path class="cls-2" d="M155.12,13.65c0-1.01-.54-1.52-1.35-1.52s-1.4.53-1.4,1.59v2.72h-.81v-2.79c0-1.01-.54-1.52-1.35-1.52s-1.4.53-1.4,1.59v2.72h-.82v-4.93h.82v.71c.32-.52.91-.8,1.56-.8.81,0,1.49.36,1.81,1.1.29-.71.99-1.1,1.75-1.1,1.13,0,2,.7,2,2.12v2.91h-.81v-2.79Z"/>
      <path class="cls-2" d="M161.64,16.44h-.82v-.73c-.32.51-.92.8-1.58.8-1.13,0-2.03-.7-2.03-2.12v-2.89h.81v2.78c0,1,.55,1.51,1.38,1.51s1.41-.52,1.41-1.58v-2.71h.82v4.93Z"/>
      <path class="cls-2" d="M165.12,11.43c1.22,0,2.03.63,2.28,1.67h-.88c-.17-.59-.67-.97-1.4-.97-.9,0-1.57.64-1.57,1.85s.67,1.86,1.57,1.86c.73,0,1.22-.35,1.4-.97h.88c-.25.98-1.05,1.67-2.28,1.67-1.4,0-2.4-.99-2.4-2.56s1-2.54,2.4-2.54Z"/>
      <path class="cls-2" d="M168.49,9.78h.82v2.44c.32-.52.94-.8,1.63-.8,1.1,0,1.97.7,1.97,2.12v2.91h-.81v-2.79c0-1.01-.55-1.52-1.38-1.52s-1.41.52-1.41,1.58v2.73h-.82v-6.66Z"/>
      <path class="cls-2" d="M176.87,11.83h4.68v.69h-4.68v-.69ZM176.87,13.77h4.68v.69h-4.68v-.69Z"/>
      <path class="cls-2" d="M187.59,11.43c.92,0,1.55.47,1.84.98v-.9h.83v4.93h-.83v-.92c-.3.53-.94,1-1.85,1-1.31,0-2.33-1.04-2.33-2.57s1.02-2.53,2.34-2.53ZM187.76,12.14c-.9,0-1.67.66-1.67,1.82s.77,1.84,1.67,1.84,1.67-.67,1.67-1.84-.77-1.83-1.67-1.83Z"/>
      <path class="cls-2" d="M194.05,9.78h.82v6.66h-.82v-6.66Z"/>
      <path class="cls-2" d="M198.41,16.53c-1.4,0-2.46-.99-2.46-2.56s1.1-2.54,2.49-2.54,2.49.98,2.49,2.54-1.13,2.56-2.53,2.56ZM198.41,15.8c.86,0,1.69-.58,1.69-1.84s-.82-1.83-1.67-1.83-1.65.59-1.65,1.83.77,1.84,1.62,1.84Z"/>
      <path class="cls-2" d="M202.2,12.19h-.64v-.68h.64v-1.24h.82v1.24h1.29v.68h-1.29v2.91c0,.49.18.66.68.66h.6v.69h-.74c-.87,0-1.37-.36-1.37-1.35v-2.91Z"/>
      <path class="cls-2" d="M209.85,16.53c-1.4,0-2.46-.99-2.46-2.56s1.1-2.54,2.49-2.54,2.49.98,2.49,2.54-1.12,2.56-2.53,2.56ZM209.85,15.8c.86,0,1.69-.58,1.69-1.84s-.82-1.83-1.67-1.83-1.65.59-1.65,1.83.77,1.84,1.62,1.84Z"/>
      <path class="cls-2" d="M213.61,12.19h-.64v-.68h.64v-.35c0-1.1.54-1.59,1.8-1.59v.68c-.74,0-.98.27-.98.91v.35h1.04v.68h-1.04v4.26h-.82v-4.26Z"/>
    </g>
    <g>
      <path class="cls-2" d="M179.37,27.24h-.82v-.73c-.31.51-.92.8-1.58.8-1.13,0-2.03-.7-2.03-2.12v-2.89h.81v2.78c0,1,.55,1.51,1.38,1.51s1.41-.52,1.41-1.58v-2.71h.82v4.93Z"/>
      <path class="cls-2" d="M182.5,27.32c-1.15,0-1.96-.63-2.02-1.53h.85c.04.48.47.84,1.16.84.65,0,1.01-.32,1.01-.73,0-1.1-2.92-.46-2.92-2.29,0-.76.71-1.38,1.81-1.38s1.81.58,1.86,1.55h-.82c-.04-.5-.41-.86-1.07-.86-.6,0-.96.29-.96.68,0,1.17,2.86.53,2.9,2.29,0,.81-.71,1.42-1.8,1.42Z"/>
      <path class="cls-2" d="M187.59,27.32c-1.4,0-2.44-.99-2.44-2.56s1-2.54,2.44-2.54,2.37,1.01,2.37,2.36c0,.18,0,.32-.03.5h-3.94c.06,1,.77,1.55,1.6,1.55.74,0,1.21-.38,1.39-.91h.88c-.25.9-1.04,1.6-2.27,1.6ZM185.99,24.42h3.11c0-.96-.71-1.49-1.56-1.49-.8,0-1.47.53-1.56,1.49Z"/>
      <path class="cls-2" d="M192.85,22.31h.84l1.13,4.14,1.22-4.14h.84l1.2,4.15,1.12-4.15h.81l-1.54,4.93h-.85l-1.19-3.92-1.19,3.92h-.85l-1.55-4.93Z"/>
      <path class="cls-2" d="M200.68,20.95c0-.32.24-.56.56-.56.3,0,.54.24.54.56s-.24.56-.54.56c-.31,0-.56-.24-.56-.56ZM200.81,22.31h.82v4.93h-.82v-4.93Z"/>
      <path class="cls-2" d="M203.21,22.99h-.64v-.68h.64v-1.24h.82v1.24h1.29v.68h-1.29v2.91c0,.49.18.66.68.66h.6v.69h-.74c-.87,0-1.37-.36-1.37-1.35v-2.91Z"/>
      <path class="cls-2" d="M206.3,20.58h.82v2.44c.32-.52.94-.8,1.63-.8,1.1,0,1.97.7,1.97,2.12v2.91h-.81v-2.79c0-1.01-.55-1.52-1.38-1.52s-1.41.52-1.41,1.58v2.73h-.82v-6.66Z"/>
      <path class="cls-2" d="M214.65,22.99h-.64v-.68h.64v-1.24h.82v1.24h1.29v.68h-1.29v2.91c0,.49.18.66.68.66h.6v.69h-.74c-.87,0-1.37-.36-1.37-1.35v-2.91Z"/>
      <path class="cls-2" d="M217.74,20.58h.82v2.44c.32-.52.94-.8,1.63-.8,1.1,0,1.97.7,1.97,2.12v2.91h-.81v-2.79c0-1.01-.55-1.52-1.38-1.52s-1.41.52-1.41,1.58v2.73h-.82v-6.66Z"/>
      <path class="cls-2" d="M223.37,20.95c0-.32.24-.56.56-.56.3,0,.54.24.54.56s-.24.56-.54.56c-.31,0-.56-.24-.56-.56ZM223.5,22.31h.82v4.93h-.82v-4.93Z"/>
      <path class="cls-2" d="M229.33,24.45c0-1.01-.55-1.52-1.38-1.52s-1.41.52-1.41,1.58v2.73h-.82v-4.93h.82v.7c.32-.51.92-.79,1.58-.79,1.14,0,2.02.7,2.02,2.12v2.91h-.81v-2.79Z"/>
      <path class="cls-2" d="M233.51,22.23c.9,0,1.55.45,1.84.98v-.9h.83v5.04c0,1.36-.91,2.32-2.36,2.32-1.3,0-2.22-.66-2.39-1.71h.81c.18.59.77,1,1.58,1,.87,0,1.53-.56,1.53-1.61v-1.04c-.3.53-.94,1.01-1.84,1.01-1.32,0-2.34-1.04-2.34-2.57s1.02-2.53,2.34-2.53ZM233.67,22.94c-.9,0-1.67.66-1.67,1.82s.77,1.84,1.67,1.84,1.67-.67,1.67-1.84-.77-1.83-1.67-1.83Z"/>
      <path class="cls-2" d="M239.31,27.32c-1.15,0-1.96-.63-2.02-1.53h.85c.04.48.47.84,1.16.84.65,0,1.01-.32,1.01-.73,0-1.1-2.92-.46-2.92-2.29,0-.76.71-1.38,1.81-1.38s1.81.58,1.86,1.55h-.82c-.04-.5-.41-.86-1.07-.86-.6,0-.96.29-.96.68,0,1.17,2.86.53,2.9,2.29,0,.81-.71,1.42-1.8,1.42Z"/>
      <path class="cls-2" d="M248.07,22.31h.85l-2.97,7.26h-.85l.97-2.38-1.99-4.88h.91l1.55,4,1.53-4Z"/>
      <path class="cls-2" d="M251.88,27.32c-1.4,0-2.46-.99-2.46-2.56s1.1-2.54,2.49-2.54,2.49.98,2.49,2.54-1.13,2.56-2.53,2.56ZM251.88,26.6c.86,0,1.69-.58,1.69-1.84s-.82-1.83-1.67-1.83-1.65.59-1.65,1.83.77,1.84,1.62,1.84Z"/>
      <path class="cls-2" d="M259.86,27.24h-.82v-.73c-.31.51-.92.8-1.58.8-1.13,0-2.03-.7-2.03-2.12v-2.89h.81v2.78c0,1,.55,1.51,1.38,1.51s1.41-.52,1.41-1.58v-2.71h.82v4.93Z"/>
      <path class="cls-2" d="M265.75,22.23c1.22,0,2.03.63,2.28,1.67h-.88c-.17-.59-.67-.97-1.4-.97-.9,0-1.57.64-1.57,1.85s.67,1.86,1.57,1.86c.73,0,1.22-.35,1.4-.97h.88c-.25.98-1.05,1.67-2.28,1.67-1.4,0-2.4-.99-2.4-2.56s1-2.54,2.4-2.54Z"/>
      <path class="cls-2" d="M271.15,22.23c.92,0,1.55.47,1.84.98v-.9h.83v4.93h-.83v-.92c-.3.53-.94,1-1.85,1-1.31,0-2.33-1.04-2.33-2.57s1.02-2.53,2.34-2.53ZM271.31,22.94c-.9,0-1.67.66-1.67,1.82s.77,1.84,1.67,1.84,1.67-.67,1.67-1.84-.77-1.83-1.67-1.83Z"/>
      <path class="cls-2" d="M278.81,24.45c0-1.01-.55-1.52-1.38-1.52s-1.41.52-1.41,1.58v2.73h-.82v-4.93h.82v.7c.32-.51.92-.79,1.58-.79,1.14,0,2.02.7,2.02,2.12v2.91h-.81v-2.79Z"/>
      <path class="cls-2" d="M280.55,23.01l.53-2.04h.91l-.86,2.04h-.58Z"/>
      <path class="cls-2" d="M283.11,22.99h-.64v-.68h.64v-1.24h.82v1.24h1.29v.68h-1.29v2.91c0,.49.18.66.68.66h.6v.69h-.74c-.87,0-1.37-.36-1.37-1.35v-2.91Z"/>
      <path class="cls-2" d="M290.71,22.23c1.22,0,2.03.63,2.28,1.67h-.88c-.17-.59-.67-.97-1.4-.97-.9,0-1.57.64-1.57,1.85s.67,1.86,1.57,1.86c.73,0,1.22-.35,1.4-.97h.88c-.25.98-1.05,1.67-2.28,1.67-1.4,0-2.4-.99-2.4-2.56s1-2.54,2.4-2.54Z"/>
      <path class="cls-2" d="M296.22,27.32c-1.4,0-2.46-.99-2.46-2.56s1.1-2.54,2.49-2.54,2.49.98,2.49,2.54-1.13,2.56-2.53,2.56ZM296.22,26.6c.86,0,1.69-.58,1.69-1.84s-.82-1.83-1.67-1.83-1.65.59-1.65,1.83.77,1.84,1.62,1.84Z"/>
      <path class="cls-2" d="M304.21,27.24h-.82v-.73c-.31.51-.92.8-1.58.8-1.13,0-2.03-.7-2.03-2.12v-2.89h.81v2.78c0,1,.55,1.51,1.38,1.51s1.41-.52,1.41-1.58v-2.71h.82v4.93Z"/>
      <path class="cls-2" d="M309.2,24.45c0-1.01-.55-1.52-1.38-1.52s-1.41.52-1.41,1.58v2.73h-.82v-4.93h.82v.7c.32-.51.92-.79,1.58-.79,1.14,0,2.02.7,2.02,2.12v2.91h-.81v-2.79Z"/>
      <path class="cls-2" d="M311.53,22.99h-.64v-.68h.64v-1.24h.82v1.24h1.29v.68h-1.29v2.91c0,.49.18.66.68.66h.6v.69h-.74c-.87,0-1.37-.36-1.37-1.35v-2.91Z"/>
      <path class="cls-2" d="M314.89,23.45c-.31,0-.56-.24-.56-.56s.24-.56.56-.56c.3,0,.54.24.54.56s-.24.56-.54.56ZM314.89,27.3c-.31,0-.56-.24-.56-.56s.24-.56.56-.56c.3,0,.54.24.54.56s-.24.56-.54.56Z"/>
      <path class="cls-2" d="M326.07,24.45c0-1.01-.54-1.52-1.35-1.52s-1.4.53-1.4,1.59v2.72h-.81v-2.79c0-1.01-.54-1.52-1.35-1.52s-1.4.53-1.4,1.59v2.72h-.82v-4.93h.82v.71c.32-.52.91-.8,1.56-.8.81,0,1.49.36,1.81,1.1.29-.71.99-1.1,1.75-1.1,1.13,0,2,.7,2,2.12v2.91h-.81v-2.79Z"/>
      <path class="cls-2" d="M332.59,27.24h-.82v-.73c-.31.51-.92.8-1.58.8-1.13,0-2.03-.7-2.03-2.12v-2.89h.81v2.78c0,1,.55,1.51,1.38,1.51s1.41-.52,1.41-1.58v-2.71h.82v4.93Z"/>
      <path class="cls-2" d="M336.08,22.23c1.22,0,2.03.63,2.28,1.67h-.88c-.17-.59-.67-.97-1.4-.97-.9,0-1.57.64-1.57,1.85s.67,1.86,1.57,1.86c.73,0,1.22-.35,1.4-.97h.88c-.25.98-1.05,1.67-2.28,1.67-1.4,0-2.4-.99-2.4-2.56s1-2.54,2.4-2.54Z"/>
      <path class="cls-2" d="M339.44,20.58h.82v2.44c.32-.52.94-.8,1.63-.8,1.1,0,1.97.7,1.97,2.12v2.91h-.81v-2.79c0-1.01-.55-1.52-1.38-1.52s-1.41.52-1.41,1.58v2.73h-.82v-6.66Z"/>
      <path class="cls-2" d="M354.72,24.45c0-1.01-.54-1.52-1.35-1.52s-1.4.53-1.4,1.59v2.72h-.81v-2.79c0-1.01-.54-1.52-1.35-1.52s-1.4.53-1.4,1.59v2.72h-.82v-4.93h.82v.71c.32-.52.91-.8,1.56-.8.81,0,1.49.36,1.81,1.1.29-.71.99-1.1,1.75-1.1,1.13,0,2,.7,2,2.12v2.91h-.81v-2.79Z"/>
      <path class="cls-2" d="M356.74,20.95c0-.32.24-.56.56-.56.3,0,.54.24.54.56s-.24.56-.54.56c-.31,0-.56-.24-.56-.56ZM356.87,22.31h.82v4.93h-.82v-4.93Z"/>
      <path class="cls-2" d="M359.09,20.58h.82v6.66h-.82v-6.66Z"/>
      <path class="cls-2" d="M361.3,20.58h.82v3.92l1.9-2.19h1.14l-2.32,2.46,2.33,2.48h-1.12l-1.94-2.18v2.18h-.82v-6.66Z"/>
      <path class="cls-2" d="M365.88,26.11h.9l-1.01,2.42h-.55l.66-2.42Z"/>
      <path class="cls-2" d="M377.24,24.45c0-1.01-.54-1.52-1.35-1.52s-1.4.53-1.4,1.59v2.72h-.81v-2.79c0-1.01-.54-1.52-1.35-1.52s-1.4.53-1.4,1.59v2.72h-.82v-4.93h.82v.71c.32-.52.91-.8,1.56-.8.81,0,1.49.36,1.81,1.1.29-.71.99-1.1,1.75-1.1,1.13,0,2,.7,2,2.12v2.91h-.81v-2.79Z"/>
      <path class="cls-2" d="M383.77,27.24h-.82v-.73c-.31.51-.92.8-1.58.8-1.13,0-2.03-.7-2.03-2.12v-2.89h.81v2.78c0,1,.55,1.51,1.38,1.51s1.41-.52,1.41-1.58v-2.71h.82v4.93Z"/>
      <path class="cls-2" d="M387.25,22.23c1.22,0,2.03.63,2.28,1.67h-.88c-.17-.59-.67-.97-1.39-.97-.9,0-1.57.64-1.57,1.85s.67,1.86,1.57,1.86c.73,0,1.21-.35,1.39-.97h.88c-.25.98-1.05,1.67-2.28,1.67-1.41,0-2.4-.99-2.4-2.56s1-2.54,2.4-2.54Z"/>
      <path class="cls-2" d="M390.61,20.58h.82v2.44c.32-.52.94-.8,1.63-.8,1.1,0,1.97.7,1.97,2.12v2.91h-.81v-2.79c0-1.01-.55-1.52-1.38-1.52s-1.41.52-1.41,1.58v2.73h-.82v-6.66Z"/>
      <path class="cls-2" d="M398.19,22.31h.84l1.13,4.14,1.22-4.14h.84l1.2,4.15,1.12-4.15h.81l-1.54,4.93h-.85l-1.19-3.92-1.19,3.92h-.85l-1.55-4.93Z"/>
      <path class="cls-2" d="M408.31,27.32c-1.4,0-2.46-.99-2.46-2.56s1.1-2.54,2.49-2.54,2.49.98,2.49,2.54-1.12,2.56-2.53,2.56ZM408.31,26.6c.86,0,1.69-.58,1.69-1.84s-.82-1.83-1.67-1.83-1.65.59-1.65,1.83.76,1.84,1.62,1.84Z"/>
      <path class="cls-2" d="M412.74,27.24h-.82v-4.93h.82v.8c.28-.55.81-.89,1.59-.89v.85h-.22c-.78,0-1.38.35-1.38,1.5v2.68Z"/>
      <path class="cls-2" d="M415.27,20.58h.82v3.92l1.9-2.19h1.14l-2.32,2.46,2.33,2.48h-1.12l-1.94-2.18v2.18h-.82v-6.66Z"/>
      <path class="cls-2" d="M419.85,26.11h.9l-1.01,2.42h-.55l.66-2.42Z"/>
      <path class="cls-2" d="M431.22,24.45c0-1.01-.54-1.52-1.35-1.52s-1.4.53-1.4,1.59v2.72h-.81v-2.79c0-1.01-.54-1.52-1.35-1.52s-1.4.53-1.4,1.59v2.72h-.82v-4.93h.82v.71c.32-.52.91-.8,1.56-.8.81,0,1.49.36,1.81,1.1.29-.71.99-1.1,1.75-1.1,1.13,0,2,.7,2,2.12v2.91h-.81v-2.79Z"/>
      <path class="cls-2" d="M437.74,27.24h-.82v-.73c-.32.51-.92.8-1.58.8-1.13,0-2.03-.7-2.03-2.12v-2.89h.81v2.78c0,1,.55,1.51,1.38,1.51s1.41-.52,1.41-1.58v-2.71h.82v4.93Z"/>
      <path class="cls-2" d="M441.22,22.23c1.22,0,2.03.63,2.28,1.67h-.88c-.17-.59-.67-.97-1.39-.97-.9,0-1.57.64-1.57,1.85s.67,1.86,1.57,1.86c.73,0,1.21-.35,1.39-.97h.88c-.25.98-1.05,1.67-2.28,1.67-1.41,0-2.4-.99-2.4-2.56s1-2.54,2.4-2.54Z"/>
      <path class="cls-2" d="M444.59,20.58h.82v2.44c.32-.52.94-.8,1.63-.8,1.1,0,1.97.7,1.97,2.12v2.91h-.81v-2.79c0-1.01-.55-1.52-1.38-1.52s-1.41.52-1.41,1.58v2.73h-.82v-6.66Z"/>
      <path class="cls-2" d="M452.75,20.58h.82v2.44c.32-.52.94-.8,1.63-.8,1.1,0,1.97.7,1.97,2.12v2.91h-.81v-2.79c0-1.01-.55-1.52-1.38-1.52s-1.41.52-1.41,1.58v2.73h-.82v-6.66Z"/>
      <path class="cls-2" d="M460.55,22.23c.92,0,1.55.47,1.84.98v-.9h.83v4.93h-.83v-.92c-.3.53-.94,1-1.85,1-1.31,0-2.33-1.04-2.33-2.57s1.02-2.53,2.34-2.53ZM460.71,22.94c-.9,0-1.67.66-1.67,1.82s.77,1.84,1.67,1.84,1.67-.67,1.67-1.84-.77-1.83-1.67-1.83Z"/>
      <path class="cls-2" d="M467.26,22.23c1.32,0,2.34.99,2.34,2.53s-1.02,2.57-2.34,2.57c-.9,0-1.54-.49-1.85-.99v3.25h-.82v-7.27h.82v.91c.3-.52.95-.99,1.85-.99ZM467.09,22.94c-.89,0-1.67.68-1.67,1.83s.78,1.84,1.67,1.84,1.67-.68,1.67-1.84-.76-1.82-1.67-1.82Z"/>
      <path class="cls-2" d="M473.34,22.23c1.32,0,2.34.99,2.34,2.53s-1.02,2.57-2.34,2.57c-.9,0-1.54-.49-1.85-.99v3.25h-.82v-7.27h.82v.91c.3-.52.95-.99,1.85-.99ZM473.17,22.94c-.89,0-1.67.68-1.67,1.83s.78,1.84,1.67,1.84,1.67-.68,1.67-1.84-.76-1.82-1.67-1.82Z"/>
      <path class="cls-2" d="M476.63,20.95c0-.32.24-.56.56-.56.3,0,.54.24.54.56s-.24.56-.54.56c-.31,0-.56-.24-.56-.56ZM476.76,22.31h.82v4.93h-.82v-4.93Z"/>
      <path class="cls-2" d="M482.59,24.45c0-1.01-.55-1.52-1.38-1.52s-1.41.52-1.41,1.58v2.73h-.82v-4.93h.82v.7c.32-.51.92-.79,1.58-.79,1.14,0,2.02.7,2.02,2.12v2.91h-.81v-2.79Z"/>
      <path class="cls-2" d="M486.87,27.32c-1.4,0-2.44-.99-2.44-2.56s1-2.54,2.44-2.54,2.37,1.01,2.37,2.36c0,.18,0,.32-.03.5h-3.94c.06,1,.77,1.55,1.6,1.55.74,0,1.21-.38,1.39-.91h.88c-.25.9-1.04,1.6-2.27,1.6ZM485.28,24.42h3.12c0-.96-.71-1.49-1.56-1.49-.8,0-1.47.53-1.56,1.49Z"/>
      <path class="cls-2" d="M492.06,27.32c-1.15,0-1.96-.63-2.02-1.53h.85c.04.48.47.84,1.16.84.65,0,1.01-.32,1.01-.73,0-1.1-2.92-.46-2.92-2.29,0-.76.71-1.38,1.81-1.38s1.81.58,1.86,1.55h-.82c-.04-.5-.41-.86-1.07-.86-.6,0-.96.29-.96.68,0,1.17,2.86.53,2.9,2.29,0,.81-.71,1.42-1.8,1.42Z"/>
      <path class="cls-2" d="M496.76,27.32c-1.15,0-1.96-.63-2.02-1.53h.85c.04.48.47.84,1.16.84.65,0,1.01-.32,1.01-.73,0-1.1-2.92-.46-2.92-2.29,0-.76.71-1.38,1.81-1.38s1.81.58,1.86,1.55h-.82c-.04-.5-.41-.86-1.07-.86-.6,0-.96.29-.96.68,0,1.17,2.86.53,2.9,2.29,0,.81-.71,1.42-1.8,1.42Z"/>
    </g>
    <g>
      <path class="cls-2" d="M155.12,44.92c0-1.01-.54-1.52-1.35-1.52s-1.4.53-1.4,1.59v2.72h-.81v-2.79c0-1.01-.54-1.52-1.35-1.52s-1.4.53-1.4,1.59v2.72h-.82v-4.93h.82v.71c.32-.52.91-.8,1.56-.8.81,0,1.49.36,1.81,1.1.29-.71.99-1.1,1.75-1.1,1.13,0,2,.7,2,2.12v2.91h-.81v-2.79Z"/>
      <path class="cls-2" d="M159.3,42.7c.92,0,1.55.47,1.84.98v-.9h.83v4.93h-.83v-.92c-.3.53-.94,1-1.85,1-1.31,0-2.33-1.04-2.33-2.57s1.02-2.53,2.34-2.53ZM159.46,43.41c-.9,0-1.67.66-1.67,1.82s.77,1.84,1.67,1.84,1.67-.67,1.67-1.84-.77-1.83-1.67-1.83Z"/>
      <path class="cls-2" d="M166.96,44.92c0-1.01-.55-1.52-1.38-1.52s-1.41.52-1.41,1.58v2.73h-.82v-4.93h.82v.7c.32-.51.92-.79,1.58-.79,1.14,0,2.02.7,2.02,2.12v2.91h-.81v-2.79Z"/>
      <path class="cls-2" d="M172.51,42.78h.85l-2.97,7.26h-.85l.97-2.38-1.99-4.88h.91l1.55,4,1.53-4Z"/>
      <path class="cls-2" d="M176.79,43.1h4.68v.69h-4.68v-.69ZM176.79,45.04h4.68v.69h-4.68v-.69Z"/>
      <path class="cls-2" d="M187.52,42.7c.92,0,1.55.47,1.84.98v-.9h.83v4.93h-.83v-.92c-.3.53-.94,1-1.85,1-1.31,0-2.33-1.04-2.33-2.57s1.02-2.53,2.34-2.53ZM187.68,43.41c-.9,0-1.67.66-1.67,1.82s.77,1.84,1.67,1.84,1.67-.67,1.67-1.84-.77-1.83-1.67-1.83Z"/>
      <path class="cls-2" d="M193.97,41.05h.82v6.66h-.82v-6.66Z"/>
      <path class="cls-2" d="M198.34,47.79c-1.4,0-2.46-.99-2.46-2.56s1.1-2.54,2.49-2.54,2.49.98,2.49,2.54-1.13,2.56-2.53,2.56ZM198.34,47.07c.86,0,1.69-.58,1.69-1.84s-.82-1.83-1.67-1.83-1.65.59-1.65,1.83.77,1.84,1.62,1.84Z"/>
      <path class="cls-2" d="M202.13,43.45h-.64v-.68h.64v-1.24h.82v1.24h1.29v.68h-1.29v2.91c0,.49.18.66.68.66h.6v.69h-.74c-.87,0-1.37-.36-1.37-1.35v-2.91Z"/>
      <path class="cls-2" d="M209.78,47.79c-1.4,0-2.46-.99-2.46-2.56s1.1-2.54,2.49-2.54,2.49.98,2.49,2.54-1.12,2.56-2.53,2.56ZM209.78,47.07c.86,0,1.69-.58,1.69-1.84s-.82-1.83-1.67-1.83-1.65.59-1.65,1.83.77,1.84,1.62,1.84Z"/>
      <path class="cls-2" d="M213.54,43.45h-.64v-.68h.64v-.35c0-1.1.54-1.59,1.8-1.59v.68c-.74,0-.98.27-.98.91v.35h1.04v.68h-1.04v4.26h-.82v-4.26Z"/>
    </g>
    <g>
      <path class="cls-2" d="M179.37,58.51h-.82v-.73c-.31.51-.92.8-1.58.8-1.13,0-2.03-.7-2.03-2.12v-2.89h.81v2.78c0,1,.55,1.51,1.38,1.51s1.41-.52,1.41-1.58v-2.71h.82v4.93Z"/>
      <path class="cls-2" d="M182.5,58.59c-1.15,0-1.96-.63-2.02-1.53h.85c.04.48.47.84,1.16.84.65,0,1.01-.32,1.01-.73,0-1.1-2.92-.46-2.92-2.29,0-.76.71-1.38,1.81-1.38s1.81.58,1.86,1.55h-.82c-.04-.5-.41-.86-1.07-.86-.6,0-.96.29-.96.68,0,1.17,2.86.53,2.9,2.29,0,.81-.71,1.42-1.8,1.42Z"/>
      <path class="cls-2" d="M187.59,58.59c-1.4,0-2.44-.99-2.44-2.56s1-2.54,2.44-2.54,2.37,1.01,2.37,2.36c0,.18,0,.32-.03.5h-3.94c.06,1,.77,1.55,1.6,1.55.74,0,1.21-.38,1.39-.91h.88c-.25.9-1.04,1.6-2.27,1.6ZM185.99,55.68h3.11c0-.96-.71-1.49-1.56-1.49-.8,0-1.47.53-1.56,1.49Z"/>
      <path class="cls-2" d="M192.85,53.58h.84l1.13,4.14,1.22-4.14h.84l1.2,4.15,1.12-4.15h.81l-1.54,4.93h-.85l-1.19-3.92-1.19,3.92h-.85l-1.55-4.93Z"/>
      <path class="cls-2" d="M200.68,52.22c0-.32.24-.56.56-.56.3,0,.54.24.54.56s-.24.56-.54.56c-.31,0-.56-.24-.56-.56ZM200.81,53.58h.82v4.93h-.82v-4.93Z"/>
      <path class="cls-2" d="M203.21,54.25h-.64v-.68h.64v-1.24h.82v1.24h1.29v.68h-1.29v2.91c0,.49.18.66.68.66h.6v.69h-.74c-.87,0-1.37-.36-1.37-1.35v-2.91Z"/>
      <path class="cls-2" d="M206.3,51.85h.82v2.44c.32-.52.94-.8,1.63-.8,1.1,0,1.97.7,1.97,2.12v2.91h-.81v-2.79c0-1.01-.55-1.52-1.38-1.52s-1.41.52-1.41,1.58v2.73h-.82v-6.66Z"/>
      <path class="cls-2" d="M214.65,54.25h-.64v-.68h.64v-1.24h.82v1.24h1.29v.68h-1.29v2.91c0,.49.18.66.68.66h.6v.69h-.74c-.87,0-1.37-.36-1.37-1.35v-2.91Z"/>
      <path class="cls-2" d="M217.74,51.85h.82v2.44c.32-.52.94-.8,1.63-.8,1.1,0,1.97.7,1.97,2.12v2.91h-.81v-2.79c0-1.01-.55-1.52-1.38-1.52s-1.41.52-1.41,1.58v2.73h-.82v-6.66Z"/>
      <path class="cls-2" d="M223.37,52.22c0-.32.24-.56.56-.56.3,0,.54.24.54.56s-.24.56-.54.56c-.31,0-.56-.24-.56-.56ZM223.5,53.58h.82v4.93h-.82v-4.93Z"/>
      <path class="cls-2" d="M229.33,55.72c0-1.01-.55-1.52-1.38-1.52s-1.41.52-1.41,1.58v2.73h-.82v-4.93h.82v.7c.32-.51.92-.79,1.58-.79,1.14,0,2.02.7,2.02,2.12v2.91h-.81v-2.79Z"/>
      <path class="cls-2" d="M233.51,53.49c.9,0,1.55.45,1.84.98v-.9h.83v5.04c0,1.36-.91,2.32-2.36,2.32-1.3,0-2.22-.66-2.39-1.71h.81c.18.59.77,1,1.58,1,.87,0,1.53-.56,1.53-1.61v-1.04c-.3.53-.94,1.01-1.84,1.01-1.32,0-2.34-1.04-2.34-2.57s1.02-2.53,2.34-2.53ZM233.67,54.21c-.9,0-1.67.66-1.67,1.82s.77,1.84,1.67,1.84,1.67-.67,1.67-1.84-.77-1.83-1.67-1.83Z"/>
      <path class="cls-2" d="M239.31,58.59c-1.15,0-1.96-.63-2.02-1.53h.85c.04.48.47.84,1.16.84.65,0,1.01-.32,1.01-.73,0-1.1-2.92-.46-2.92-2.29,0-.76.71-1.38,1.81-1.38s1.81.58,1.86,1.55h-.82c-.04-.5-.41-.86-1.07-.86-.6,0-.96.29-.96.68,0,1.17,2.86.53,2.9,2.29,0,.81-.71,1.42-1.8,1.42Z"/>
      <path class="cls-2" d="M248.07,53.58h.85l-2.97,7.26h-.85l.97-2.38-1.99-4.88h.91l1.55,4,1.53-4Z"/>
      <path class="cls-2" d="M251.88,58.59c-1.4,0-2.46-.99-2.46-2.56s1.1-2.54,2.49-2.54,2.49.98,2.49,2.54-1.13,2.56-2.53,2.56ZM251.88,57.87c.86,0,1.69-.58,1.69-1.84s-.82-1.83-1.67-1.83-1.65.59-1.65,1.83.77,1.84,1.62,1.84Z"/>
      <path class="cls-2" d="M259.86,58.51h-.82v-.73c-.31.51-.92.8-1.58.8-1.13,0-2.03-.7-2.03-2.12v-2.89h.81v2.78c0,1,.55,1.51,1.38,1.51s1.41-.52,1.41-1.58v-2.71h.82v4.93Z"/>
      <path class="cls-2" d="M265.75,53.49c1.22,0,2.03.63,2.28,1.67h-.88c-.17-.59-.67-.97-1.4-.97-.9,0-1.57.64-1.57,1.85s.67,1.86,1.57,1.86c.73,0,1.22-.35,1.4-.97h.88c-.25.98-1.05,1.67-2.28,1.67-1.4,0-2.4-.99-2.4-2.56s1-2.54,2.4-2.54Z"/>
      <path class="cls-2" d="M271.15,53.49c.92,0,1.55.47,1.84.98v-.9h.83v4.93h-.83v-.92c-.3.53-.94,1-1.85,1-1.31,0-2.33-1.04-2.33-2.57s1.02-2.53,2.34-2.53ZM271.31,54.21c-.9,0-1.67.66-1.67,1.82s.77,1.84,1.67,1.84,1.67-.67,1.67-1.84-.77-1.83-1.67-1.83Z"/>
      <path class="cls-2" d="M278.81,55.72c0-1.01-.55-1.52-1.38-1.52s-1.41.52-1.41,1.58v2.73h-.82v-4.93h.82v.7c.32-.51.92-.79,1.58-.79,1.14,0,2.02.7,2.02,2.12v2.91h-.81v-2.79Z"/>
      <path class="cls-2" d="M285.46,53.49c1.22,0,2.03.63,2.28,1.67h-.88c-.17-.59-.67-.97-1.4-.97-.9,0-1.57.64-1.57,1.85s.67,1.86,1.57,1.86c.73,0,1.22-.35,1.4-.97h.88c-.25.98-1.05,1.67-2.28,1.67-1.4,0-2.4-.99-2.4-2.56s1-2.54,2.4-2.54Z"/>
      <path class="cls-2" d="M290.98,58.59c-1.4,0-2.46-.99-2.46-2.56s1.1-2.54,2.49-2.54,2.49.98,2.49,2.54-1.13,2.56-2.53,2.56ZM290.98,57.87c.86,0,1.69-.58,1.69-1.84s-.82-1.83-1.67-1.83-1.65.59-1.65,1.83.77,1.84,1.62,1.84Z"/>
      <path class="cls-2" d="M298.96,58.51h-.82v-.73c-.31.51-.92.8-1.58.8-1.13,0-2.03-.7-2.03-2.12v-2.89h.81v2.78c0,1,.55,1.51,1.38,1.51s1.41-.52,1.41-1.58v-2.71h.82v4.93Z"/>
      <path class="cls-2" d="M303.95,55.72c0-1.01-.55-1.52-1.38-1.52s-1.41.52-1.41,1.58v2.73h-.82v-4.93h.82v.7c.32-.51.92-.79,1.58-.79,1.14,0,2.02.7,2.02,2.12v2.91h-.81v-2.79Z"/>
      <path class="cls-2" d="M306.28,54.25h-.64v-.68h.64v-1.24h.82v1.24h1.29v.68h-1.29v2.91c0,.49.18.66.68.66h.6v.69h-.74c-.87,0-1.37-.36-1.37-1.35v-2.91Z"/>
      <path class="cls-2" d="M309.64,54.71c-.31,0-.56-.24-.56-.56s.24-.56.56-.56c.3,0,.54.24.54.56s-.24.56-.54.56ZM309.64,58.56c-.31,0-.56-.24-.56-.56s.24-.56.56-.56c.3,0,.54.24.54.56s-.24.56-.54.56Z"/>
      <path class="cls-2" d="M320.82,55.72c0-1.01-.54-1.52-1.35-1.52s-1.4.53-1.4,1.59v2.72h-.81v-2.79c0-1.01-.54-1.52-1.35-1.52s-1.4.53-1.4,1.59v2.72h-.82v-4.93h.82v.71c.32-.52.91-.8,1.56-.8.81,0,1.49.36,1.81,1.1.29-.71.99-1.1,1.75-1.1,1.13,0,2,.7,2,2.12v2.91h-.81v-2.79Z"/>
      <path class="cls-2" d="M325.01,53.49c.92,0,1.55.47,1.84.98v-.9h.83v4.93h-.83v-.92c-.3.53-.94,1-1.85,1-1.31,0-2.33-1.04-2.33-2.57s1.02-2.53,2.34-2.53ZM325.17,54.21c-.9,0-1.67.66-1.67,1.82s.77,1.84,1.67,1.84,1.67-.67,1.67-1.84-.77-1.83-1.67-1.83Z"/>
      <path class="cls-2" d="M332.66,55.72c0-1.01-.55-1.52-1.38-1.52s-1.41.52-1.41,1.58v2.73h-.82v-4.93h.82v.7c.32-.51.92-.79,1.58-.79,1.14,0,2.02.7,2.02,2.12v2.91h-.81v-2.79Z"/>
      <path class="cls-2" d="M338.22,53.58h.85l-2.97,7.26h-.85l.97-2.38-1.99-4.88h.91l1.55,4,1.53-4Z"/>
      <path class="cls-2" d="M344.95,53.49c1.33,0,2.34.99,2.34,2.53s-1.02,2.57-2.34,2.57c-.9,0-1.54-.45-1.85-.99v.91h-.82v-6.66h.82v2.65c.32-.55.97-1,1.85-1ZM344.78,54.21c-.89,0-1.67.68-1.67,1.83s.78,1.84,1.67,1.84,1.67-.68,1.67-1.84-.77-1.82-1.67-1.82Z"/>
      <path class="cls-2" d="M350.52,58.59c-1.4,0-2.46-.99-2.46-2.56s1.1-2.54,2.49-2.54,2.49.98,2.49,2.54-1.12,2.56-2.53,2.56ZM350.52,57.87c.86,0,1.69-.58,1.69-1.84s-.82-1.83-1.67-1.83-1.65.59-1.65,1.83.77,1.84,1.62,1.84Z"/>
      <path class="cls-2" d="M356.28,58.59c-1.4,0-2.46-.99-2.46-2.56s1.1-2.54,2.49-2.54,2.49.98,2.49,2.54-1.13,2.56-2.53,2.56ZM356.28,57.87c.86,0,1.69-.58,1.69-1.84s-.82-1.83-1.67-1.83-1.65.59-1.65,1.83.77,1.84,1.62,1.84Z"/>
      <path class="cls-2" d="M359.89,51.85h.82v3.92l1.9-2.19h1.14l-2.32,2.46,2.33,2.48h-1.12l-1.94-2.18v2.18h-.82v-6.66Z"/>
      <path class="cls-2" d="M366.27,58.59c-1.15,0-1.96-.63-2.02-1.53h.85c.04.48.47.84,1.16.84.65,0,1.01-.32,1.01-.73,0-1.1-2.92-.46-2.92-2.29,0-.76.71-1.38,1.81-1.38s1.81.58,1.86,1.55h-.82c-.04-.5-.41-.86-1.07-.86-.6,0-.96.29-.96.68,0,1.17,2.86.53,2.9,2.29,0,.81-.71,1.42-1.8,1.42Z"/>
      <path class="cls-2" d="M369.17,57.37h.9l-1.01,2.42h-.55l.66-2.42Z"/>
      <path class="cls-2" d="M380.53,55.72c0-1.01-.54-1.52-1.35-1.52s-1.4.53-1.4,1.59v2.72h-.81v-2.79c0-1.01-.54-1.52-1.35-1.52s-1.4.53-1.4,1.59v2.72h-.82v-4.93h.82v.71c.32-.52.91-.8,1.56-.8.81,0,1.49.36,1.81,1.1.29-.71.99-1.1,1.75-1.1,1.13,0,2,.7,2,2.12v2.91h-.81v-2.79Z"/>
      <path class="cls-2" d="M384.71,53.49c.92,0,1.55.47,1.84.98v-.9h.83v4.93h-.83v-.92c-.3.53-.94,1-1.85,1-1.31,0-2.33-1.04-2.33-2.57s1.02-2.53,2.34-2.53ZM384.87,54.21c-.9,0-1.67.66-1.67,1.82s.77,1.84,1.67,1.84,1.68-.67,1.68-1.84-.77-1.83-1.68-1.83Z"/>
      <path class="cls-2" d="M392.37,55.72c0-1.01-.55-1.52-1.38-1.52s-1.41.52-1.41,1.58v2.73h-.82v-4.93h.82v.7c.32-.51.92-.79,1.58-.79,1.14,0,2.02.7,2.02,2.12v2.91h-.81v-2.79Z"/>
      <path class="cls-2" d="M397.92,53.58h.85l-2.97,7.26h-.85l.97-2.38-1.99-4.88h.91l1.55,4,1.53-4Z"/>
      <path class="cls-2" d="M404.66,53.49c1.32,0,2.34.99,2.34,2.53s-1.02,2.57-2.34,2.57c-.9,0-1.54-.49-1.85-.99v3.25h-.82v-7.27h.82v.91c.3-.52.95-.99,1.85-.99ZM404.48,54.21c-.89,0-1.67.68-1.67,1.83s.78,1.84,1.67,1.84,1.67-.68,1.67-1.84-.76-1.82-1.67-1.82Z"/>
      <path class="cls-2" d="M410.21,58.59c-1.4,0-2.44-.99-2.44-2.56s1-2.54,2.44-2.54,2.37,1.01,2.37,2.36c0,.18,0,.32-.03.5h-3.94c.06,1,.76,1.55,1.6,1.55.74,0,1.21-.38,1.39-.91h.88c-.25.9-1.04,1.6-2.27,1.6ZM408.61,55.68h3.11c0-.96-.71-1.49-1.56-1.49-.8,0-1.47.53-1.56,1.49Z"/>
      <path class="cls-2" d="M417.26,55.72c0-1.01-.55-1.52-1.38-1.52s-1.41.52-1.41,1.58v2.73h-.82v-4.93h.82v.7c.32-.51.92-.79,1.58-.79,1.14,0,2.02.7,2.02,2.12v2.91h-.81v-2.79Z"/>
      <path class="cls-2" d="M421.51,53.49c1.22,0,2.03.63,2.28,1.67h-.88c-.17-.59-.67-.97-1.4-.97-.9,0-1.57.64-1.57,1.85s.67,1.86,1.57,1.86c.73,0,1.22-.35,1.4-.97h.88c-.25.98-1.05,1.67-2.28,1.67-1.4,0-2.4-.99-2.4-2.56s1-2.54,2.4-2.54Z"/>
      <path class="cls-2" d="M424.74,52.22c0-.32.24-.56.56-.56.3,0,.54.24.54.56s-.24.56-.54.56c-.31,0-.56-.24-.56-.56ZM424.88,53.58h.82v4.93h-.82v-4.93Z"/>
      <path class="cls-2" d="M427.09,51.85h.82v6.66h-.82v-6.66Z"/>
      <path class="cls-2" d="M431.05,58.59c-1.15,0-1.96-.63-2.02-1.53h.85c.04.48.47.84,1.16.84.65,0,1.01-.32,1.01-.73,0-1.1-2.92-.46-2.92-2.29,0-.76.71-1.38,1.81-1.38s1.81.58,1.86,1.55h-.82c-.04-.5-.41-.86-1.07-.86-.6,0-.96.29-.96.68,0,1.17,2.86.53,2.9,2.29,0,.81-.71,1.42-1.8,1.42Z"/>
      <path class="cls-2" d="M433.95,57.37h.9l-1.01,2.42h-.55l.66-2.42Z"/>
      <path class="cls-2" d="M445.31,55.72c0-1.01-.54-1.52-1.35-1.52s-1.4.53-1.4,1.59v2.72h-.81v-2.79c0-1.01-.54-1.52-1.35-1.52s-1.4.53-1.4,1.59v2.72h-.82v-4.93h.82v.71c.32-.52.91-.8,1.56-.8.81,0,1.49.36,1.81,1.1.29-.71.99-1.1,1.75-1.1,1.13,0,2,.7,2,2.12v2.91h-.81v-2.79Z"/>
      <path class="cls-2" d="M449.49,53.49c.92,0,1.55.47,1.84.98v-.9h.83v4.93h-.83v-.92c-.3.53-.94,1-1.85,1-1.31,0-2.33-1.04-2.33-2.57s1.02-2.53,2.34-2.53ZM449.65,54.21c-.9,0-1.67.66-1.67,1.82s.76,1.84,1.67,1.84,1.67-.67,1.67-1.84-.77-1.83-1.67-1.83Z"/>
      <path class="cls-2" d="M457.15,55.72c0-1.01-.55-1.52-1.38-1.52s-1.41.52-1.41,1.58v2.73h-.82v-4.93h.82v.7c.32-.51.92-.79,1.58-.79,1.14,0,2.02.7,2.02,2.12v2.91h-.81v-2.79Z"/>
      <path class="cls-2" d="M462.7,53.58h.85l-2.97,7.26h-.85l.97-2.38-1.99-4.88h.91l1.55,4,1.53-4Z"/>
      <path class="cls-2" d="M468.52,58.59c-1.15,0-1.96-.63-2.02-1.53h.85c.04.48.47.84,1.16.84.65,0,1.01-.32,1.01-.73,0-1.1-2.92-.46-2.92-2.29,0-.76.71-1.38,1.81-1.38s1.81.58,1.86,1.55h-.82c-.04-.5-.41-.86-1.07-.86-.6,0-.96.29-.96.68,0,1.17,2.86.53,2.9,2.29,0,.81-.71,1.42-1.8,1.42Z"/>
      <path class="cls-2" d="M471.65,54.25h-.64v-.68h.64v-1.24h.82v1.24h1.29v.68h-1.29v2.91c0,.49.18.66.68.66h.6v.69h-.74c-.87,0-1.37-.36-1.37-1.35v-2.91Z"/>
      <path class="cls-2" d="M479.12,58.51h-.82v-.73c-.32.51-.92.8-1.58.8-1.13,0-2.03-.7-2.03-2.12v-2.89h.81v2.78c0,1,.55,1.51,1.38,1.51s1.41-.52,1.41-1.58v-2.71h.82v4.93Z"/>
      <path class="cls-2" d="M482.55,53.49c.77,0,1.49.4,1.83.96v-2.61h.83v6.66h-.83v-.93c-.3.55-.94,1.01-1.84,1.01-1.32,0-2.34-1.04-2.34-2.57s1.02-2.53,2.35-2.53ZM482.7,54.21c-.9,0-1.67.66-1.67,1.82s.76,1.84,1.67,1.84,1.67-.67,1.67-1.84-.77-1.83-1.67-1.83Z"/>
      <path class="cls-2" d="M488.72,58.59c-1.4,0-2.44-.99-2.44-2.56s1-2.54,2.44-2.54,2.37,1.01,2.37,2.36c0,.18,0,.32-.03.5h-3.94c.06,1,.76,1.55,1.6,1.55.74,0,1.21-.38,1.39-.91h.88c-.25.9-1.04,1.6-2.27,1.6ZM487.13,55.68h3.11c0-.96-.71-1.49-1.56-1.49-.8,0-1.47.53-1.56,1.49Z"/>
      <path class="cls-2" d="M495.78,55.72c0-1.01-.55-1.52-1.38-1.52s-1.41.52-1.41,1.58v2.73h-.82v-4.93h.82v.7c.32-.51.92-.79,1.58-.79,1.14,0,2.02.7,2.02,2.12v2.91h-.81v-2.79Z"/>
      <path class="cls-2" d="M498.11,54.25h-.64v-.68h.64v-1.24h.82v1.24h1.29v.68h-1.29v2.91c0,.49.18.66.68.66h.6v.69h-.74c-.87,0-1.37-.36-1.37-1.35v-2.91Z"/>
      <path class="cls-2" d="M502.95,58.59c-1.15,0-1.96-.63-2.02-1.53h.85c.04.48.47.84,1.16.84.65,0,1.01-.32,1.01-.73,0-1.1-2.92-.46-2.92-2.29,0-.76.71-1.38,1.81-1.38s1.81.58,1.86,1.55h-.82c-.04-.5-.41-.86-1.07-.86-.6,0-.96.29-.96.68,0,1.17,2.86.53,2.9,2.29,0,.81-.71,1.42-1.8,1.42Z"/>
    </g>
  </g>
</svg>