<?xml version="1.0" encoding="UTF-8"?>
<svg id="Layer_2" data-name="Layer 2" xmlns="http://www.w3.org/2000/svg" xmlns:xlink="http://www.w3.org/1999/xlink" viewBox="0 0 566.14 167.33">
  <defs>
    <style>
      .cls-1 {
        stroke-dasharray: 4.16 4.16;
      }

      .cls-1, .cls-2, .cls-3, .cls-4, .cls-5, .cls-6 {
        fill: none;
      }

      .cls-1, .cls-2, .cls-4, .cls-5, .cls-6 {
        stroke: #2a5caa;
        stroke-miterlimit: 10;
        stroke-width: .75px;
      }

      .cls-7 {
        clip-path: url(#clippath-4);
      }

      .cls-8 {
        fill: #72adbb;
      }

      .cls-9 {
        fill: #accad4;
      }

      .cls-10 {
        fill: #231f20;
      }

      .cls-2 {
        stroke-dasharray: 4.42 4.42;
      }

      .cls-11 {
        fill: #fff;
      }

      .cls-12 {
        clip-path: url(#clippath-1);
      }

      .cls-13 {
        clip-path: url(#clippath-3);
      }

      .cls-4 {
        stroke-dasharray: 4.12 4.12;
      }

      .cls-5 {
        stroke-dasharray: 4.14 4.14;
      }

      .cls-14 {
        fill: #2096a6;
      }

      .cls-15 {
        clip-path: url(#clippath-2);
      }

      .cls-16 {
        clip-path: url(#clippath);
      }
    </style>
    <clipPath id="clippath">
      <rect class="cls-3" width="566.14" height="167.33"/>
    </clipPath>
    <clipPath id="clippath-1">
      <rect class="cls-3" width="566.14" height="167.33"/>
    </clipPath>
    <clipPath id="clippath-2">
      <rect class="cls-3" width="566.14" height="167.33"/>
    </clipPath>
    <clipPath id="clippath-3">
      <rect class="cls-3" width="566.14" height="167.33"/>
    </clipPath>
    <clipPath id="clippath-4">
      <rect class="cls-3" width="566.14" height="167.33"/>
    </clipPath>
  </defs>
  <g id="Layer_1-2" data-name="Layer 1">
    <g class="cls-16">
      <path class="cls-14" d="M547.37,145.17c0,5.46-1.88,9.88-4.2,9.88H15.42c-2.32,0-4.2-4.42-4.2-9.88V37.57c0-5.46,1.88-9.88,4.2-9.88h527.76c2.32,0,4.2,4.42,4.2,9.88v107.61Z"/>
      <path class="cls-11" d="M544.49,93.07c0,2.72-1.91,4.92-4.27,4.92H13.43c-2.36,0-4.27-2.2-4.27-4.92v-53.6c0-2.72,1.91-4.92,4.27-4.92h526.79c2.36,0,4.27,2.2,4.27,4.92v53.6Z"/>
    </g>
    <g>
      <path class="cls-10" d="M34.47,83.12c-1.4,0-2.22-.78-2-1.93h.97c-.06.58.22,1.16,1.19,1.16.88,0,1.51-.5,1.65-1.16.4-1.88-3.62-.68-3.07-3.27.24-1.15,1.34-1.93,2.72-1.93s2.04.73,1.93,1.79h-1c.04-.47-.29-1-1.14-1.01-.74-.02-1.42.37-1.58,1.12-.38,1.8,3.61.68,3.06,3.26-.21.99-1.23,1.97-2.74,1.97Z"/>
      <path class="cls-10" d="M39.72,75.65h.91l-.58,2.71c.48-.58,1.23-.89,2-.89,1.22,0,2.02.78,1.69,2.35l-.69,3.23h-.9l.66-3.1c.24-1.12-.25-1.69-1.17-1.69s-1.69.58-1.94,1.76l-.64,3.03h-.91l1.57-7.4Z"/>
      <path class="cls-10" d="M46.9,83.14c-1.56,0-2.48-1.1-2.1-2.84.37-1.73,1.71-2.82,3.31-2.82s2.39,1.12,2.07,2.62c-.04.2-.09.36-.15.55h-4.38c-.17,1.11.48,1.72,1.41,1.72.82,0,1.43-.42,1.75-1.01h.98c-.49,1-1.54,1.78-2.9,1.78ZM45.82,79.91h3.46c.24-1.07-.44-1.66-1.38-1.66-.89,0-1.76.59-2.08,1.66Z"/>
    </g>
    <g>
      <path class="cls-10" d="M92.27,75.65h.91l-.58,2.71c.48-.58,1.23-.89,2-.89,1.22,0,2.02.78,1.69,2.35l-.69,3.23h-.9l.66-3.1c.24-1.12-.25-1.69-1.17-1.69s-1.69.58-1.94,1.76l-.64,3.03h-.91l1.57-7.4Z"/>
      <path class="cls-10" d="M100.54,77.48c1.02,0,1.61.52,1.81,1.09l.21-1h.92l-1.16,5.48h-.92l.22-1.02c-.46.59-1.28,1.11-2.29,1.11-1.46,0-2.34-1.15-1.98-2.85.36-1.71,1.73-2.81,3.2-2.81ZM100.55,78.27c-1,0-2,.73-2.28,2.02-.27,1.29.41,2.05,1.41,2.05s2.02-.75,2.29-2.04c.27-1.27-.43-2.03-1.43-2.03Z"/>
      <path class="cls-10" d="M107.31,77.48c.86,0,1.56.44,1.8,1.07l.62-2.9h.92l-1.57,7.4h-.92l.22-1.03c-.46.61-1.28,1.12-2.28,1.12-1.47,0-2.35-1.15-1.99-2.85.36-1.71,1.73-2.81,3.21-2.81ZM107.31,78.27c-1,0-2,.73-2.28,2.02-.27,1.29.41,2.05,1.41,2.05s2.02-.75,2.29-2.04c.27-1.27-.43-2.03-1.43-2.03Z"/>
    </g>
    <g>
      <path class="cls-10" d="M164.69,77.48c1.02,0,1.61.52,1.81,1.09l.21-1h.92l-1.16,5.48h-.92l.22-1.02c-.46.59-1.28,1.11-2.29,1.11-1.46,0-2.34-1.15-1.98-2.85.36-1.71,1.73-2.81,3.2-2.81ZM164.7,78.27c-1,0-2,.73-2.28,2.02-.27,1.29.41,2.05,1.41,2.05s2.02-.75,2.29-2.04c.27-1.27-.43-2.03-1.43-2.03Z"/>
      <path class="cls-10" d="M174.82,77.48c1.48,0,2.37,1.1,2,2.81-.36,1.7-1.73,2.85-3.2,2.85-1,0-1.6-.5-1.81-1.1l-.21,1.01h-.91l1.57-7.4h.91l-.62,2.94c.48-.61,1.32-1.11,2.28-1.11ZM174.46,78.27c-.99,0-2.02.76-2.29,2.03-.27,1.29.44,2.04,1.43,2.04s2.02-.76,2.3-2.05c.27-1.29-.42-2.02-1.43-2.02Z"/>
      <path class="cls-10" d="M178.6,77.57h.91l-1.16,5.48h-.91l1.16-5.48ZM178.78,76.06c.07-.35.4-.62.75-.62.33,0,.54.27.47.62-.07.35-.4.62-.73.62-.35,0-.56-.27-.49-.62Z"/>
      <path class="cls-10" d="M181.47,75.65h.91l-.92,4.35,2.63-2.43h1.27l-3.16,2.73,2,2.75h-1.24l-1.64-2.42-.51,2.42h-.91l1.57-7.4Z"/>
      <path class="cls-10" d="M187.4,83.14c-1.56,0-2.48-1.1-2.1-2.84.37-1.73,1.71-2.82,3.31-2.82s2.39,1.12,2.07,2.62c-.04.2-.09.36-.15.55h-4.38c-.17,1.11.48,1.72,1.41,1.72.82,0,1.43-.42,1.75-1.01h.98c-.49,1-1.54,1.78-2.9,1.78ZM186.32,79.91h3.46c.24-1.07-.44-1.66-1.38-1.66-.89,0-1.76.59-2.08,1.66Z"/>
      <path class="cls-10" d="M191.53,83.11c-.35,0-.56-.27-.49-.62.07-.35.4-.62.75-.62.33,0,.54.27.47.62-.07.35-.4.62-.73.62Z"/>
    </g>
    <g>
      <path class="cls-10" d="M337,83.14c-1.28,0-2.03-.7-1.88-1.7h.94c-.06.53.32.93,1.09.93.72,0,1.2-.36,1.29-.81.26-1.22-3.13-.51-2.7-2.55.18-.84,1.11-1.53,2.33-1.53s1.87.65,1.7,1.72h-.91c.08-.55-.26-.95-.99-.95-.67,0-1.14.32-1.23.76-.28,1.3,3.05.59,2.68,2.55-.19.9-1.12,1.58-2.33,1.58Z"/>
      <path class="cls-10" d="M341.87,75.65h.91l-.58,2.71c.48-.58,1.23-.89,2-.89,1.22,0,2.02.78,1.69,2.35l-.69,3.23h-.9l.66-3.1c.24-1.12-.25-1.69-1.17-1.69s-1.69.58-1.94,1.76l-.64,3.03h-.91l1.57-7.4Z"/>
      <path class="cls-10" d="M349.05,83.14c-1.56,0-2.47-1.1-2.1-2.84.37-1.73,1.71-2.82,3.31-2.82s2.39,1.12,2.07,2.62c-.04.2-.09.36-.15.55h-4.38c-.17,1.11.48,1.72,1.41,1.72.82,0,1.43-.42,1.75-1.01h.98c-.49,1-1.54,1.78-2.9,1.78ZM347.97,79.91h3.46c.24-1.07-.44-1.66-1.38-1.66-.89,0-1.76.59-2.08,1.66Z"/>
    </g>
    <g>
      <path class="cls-10" d="M405.13,75.65h.91l-.58,2.71c.48-.58,1.23-.89,2-.89,1.22,0,2.02.78,1.69,2.35l-.69,3.23h-.9l.66-3.1c.24-1.12-.25-1.69-1.17-1.69s-1.69.58-1.94,1.76l-.64,3.03h-.91l1.57-7.4Z"/>
      <path class="cls-10" d="M413.4,77.48c1.02,0,1.61.52,1.81,1.09l.21-1h.92l-1.17,5.48h-.92l.22-1.02c-.46.59-1.28,1.11-2.29,1.11-1.46,0-2.34-1.15-1.98-2.85.36-1.71,1.73-2.81,3.2-2.81ZM413.41,78.27c-1,0-2,.73-2.28,2.02-.27,1.29.41,2.05,1.41,2.05s2.02-.75,2.29-2.04c.27-1.27-.43-2.03-1.43-2.03Z"/>
      <path class="cls-10" d="M418.21,77.57l.72,4.64,2.69-4.64h.97l-3.31,5.48h-1.06l-.98-5.48h.98Z"/>
      <path class="cls-10" d="M424.68,83.14c-1.56,0-2.47-1.1-2.1-2.84.37-1.73,1.71-2.82,3.31-2.82s2.39,1.12,2.07,2.62c-.04.2-.09.36-.15.55h-4.38c-.17,1.11.48,1.72,1.41,1.72.82,0,1.43-.42,1.75-1.01h.98c-.49,1-1.54,1.78-2.9,1.78ZM423.6,79.91h3.46c.24-1.07-.44-1.66-1.38-1.66-.89,0-1.76.59-2.08,1.66Z"/>
    </g>
    <g>
      <path class="cls-10" d="M264.52,79.58c-.46,2.16-2.15,3.47-4.44,3.47h-2.17l1.48-6.97h2.17c2.29,0,3.41,1.34,2.95,3.5ZM260.25,82.3c1.82,0,2.99-1.02,3.35-2.72.36-1.7-.36-2.76-2.18-2.76h-1.26l-1.17,5.48h1.26Z"/>
      <path class="cls-10" d="M266.15,77.57h.91l-1.16,5.48h-.91l1.16-5.48ZM266.33,76.06c.07-.35.4-.62.75-.62.33,0,.54.27.47.62-.07.35-.4.62-.73.62-.35,0-.56-.27-.49-.62Z"/>
      <path class="cls-10" d="M270.9,77.48c.86,0,1.56.44,1.8,1.07l.62-2.9h.92l-1.57,7.4h-.92l.22-1.03c-.46.61-1.28,1.12-2.28,1.12-1.47,0-2.35-1.15-1.99-2.85.36-1.71,1.73-2.81,3.21-2.81ZM270.9,78.27c-1,0-2,.73-2.28,2.02-.27,1.29.41,2.05,1.41,2.05s2.02-.75,2.29-2.04c.27-1.27-.43-2.03-1.43-2.03Z"/>
    </g>
    <g class="cls-12">
      <path class="cls-9" d="M543.5,68.26c0,.56-1.88,1.02-4.19,1.02H12.19c-2.32,0-4.19-.46-4.19-1.02v-18.63c0-.56,1.88-1.02,4.19-1.02h527.12c2.32,0,4.19.46,4.19,1.02v18.63Z"/>
      <path class="cls-8" d="M544.79,49.5c0,.62-1.88,1.12-4.2,1.12H13.2c-2.32,0-4.2-.5-4.2-1.12v-20.38c0-.62,1.88-1.11,4.2-1.11h527.4c2.32,0,4.2.5,4.2,1.11v20.38Z"/>
    </g>
    <path class="cls-11" d="M243.05,39.6h-1.27l-.64,3.02h-2.05l1.79-8.42h3.32c2.06,0,2.85,1.16,2.52,2.71-.3,1.39-1.52,2.69-3.67,2.69ZM243.24,37.97c.82,0,1.25-.41,1.39-1.06s-.12-1.06-.94-1.06h-1.12l-.45,2.11h1.12ZM250.44,35.84c1,0,1.61.46,1.84,1.04l.2-.95h2.05l-1.42,6.69h-2.05l.2-.95c-.5.59-1.3,1.04-2.3,1.04-1.63,0-2.65-1.34-2.2-3.45s2.04-3.43,3.68-3.43ZM250.66,37.62c-.77,0-1.59.58-1.81,1.64s.34,1.67,1.11,1.67,1.59-.59,1.81-1.66-.33-1.66-1.11-1.66ZM257.18,42.72c-1.79,0-2.77-1-2.6-2.29h2.03c-.05.47.3.78.87.78.53,0,.85-.24.92-.54.23-1.08-3.58-.3-3.06-2.76.24-1.14,1.41-2.07,3.16-2.07s2.48.96,2.33,2.28h-1.89c.04-.46-.25-.76-.82-.76-.48,0-.78.19-.85.52-.23,1.07,3.56.31,3.06,2.81-.25,1.16-1.46,2.04-3.14,2.04ZM262.44,37.64h-.82l.36-1.7h.82l.35-1.63h2.05l-.35,1.63h1.34l-.36,1.7h-1.34l-.57,2.69c-.08.4.05.56.5.56h.73l-.37,1.74h-1.04c-1.39,0-2.24-.59-1.87-2.33l.57-2.66ZM271.26,42.72c-1.97,0-3.17-1.32-2.72-3.44.45-2.12,2.25-3.44,4.21-3.44s3.2,1.32,2.75,3.44c-.45,2.12-2.27,3.44-4.23,3.44ZM271.64,40.95c.73,0,1.53-.54,1.77-1.67.24-1.14-.32-1.67-1.04-1.67s-1.5.53-1.75,1.67c-.24,1.13.27,1.67,1.01,1.67ZM277.02,37.64h-.74l.36-1.7h.74l.04-.19c.37-1.75,1.63-2.61,3.65-2.51l-.37,1.74c-.78-.05-1.11.19-1.26.9v.06s1.09,0,1.09,0l-.36,1.7h-1.1l-1.06,4.99h-2.05l1.06-4.99ZM283.81,35.79c-.06-.5-.03-.98.06-1.42.23-1.08.93-1.82,2.07-1.82l-.17.78c-.41,0-.68.25-.79.79l-.04.19h.76l-.31,1.48h-1.57ZM286.09,35.79c-.06-.5-.03-.98.06-1.42.23-1.08.93-1.82,2.07-1.82l-.17.78c-.41,0-.68.25-.79.79l-.04.19h.76l-.31,1.48h-1.57ZM293.29,39.16h-3.19l-.74,3.47h-2.05l1.79-8.42h2.05l-.7,3.3h3.19l.7-3.3h2.05l-1.79,8.42h-2.05l.74-3.47ZM299.95,35.84c1,0,1.61.46,1.84,1.04l.2-.95h2.05l-1.42,6.69h-2.05l.2-.95c-.5.59-1.3,1.04-2.3,1.04-1.63,0-2.65-1.34-2.2-3.45s2.04-3.43,3.68-3.43ZM300.17,37.62c-.77,0-1.59.58-1.81,1.64s.34,1.67,1.11,1.67,1.59-.59,1.81-1.66c.23-1.07-.33-1.66-1.11-1.66ZM306.97,35.93l.44,4.77,2.47-4.77h2.18l-3.8,6.69h-2.53l-.95-6.69h2.19Z"/>
    <path class="cls-11" d="M314.34,42.72c-1.97,0-3.1-1.32-2.65-3.45.45-2.12,2.12-3.44,4.11-3.44s3.06,1.3,2.62,3.34c-.04.19-.1.4-.16.6h-4.64c-.11.88.34,1.28,1,1.28.58,0,.96-.29,1.21-.65h2.18c-.6,1.31-2,2.32-3.67,2.32ZM313.88,38.63h2.57c.16-.73-.33-1.15-1.01-1.15s-1.27.41-1.55,1.15Z"/>
    <g class="cls-15">
      <path class="cls-11" d="M319.25,32.68l-.31,1.48h.76l-.04.19c-.11.54-.38.79-.79.79l-.17.78c1.14,0,1.84-.74,2.07-1.82.09-.43.12-.91.06-1.42h-1.57ZM321.53,32.68l-.31,1.48h.76l-.04.19c-.11.54-.38.79-.79.79l-.17.78c1.14,0,1.84-.74,2.07-1.82.09-.43.12-.91.06-1.42h-1.57ZM319.25,32.68l-.31,1.48h.76l-.04.19c-.11.54-.38.79-.79.79l-.17.78c1.14,0,1.84-.74,2.07-1.82.09-.43.12-.91.06-1.42h-1.57ZM321.53,32.68l-.31,1.48h.76l-.04.19c-.11.54-.38.79-.79.79l-.17.78c1.14,0,1.84-.74,2.07-1.82.09-.43.12-.91.06-1.42h-1.57Z"/>
    </g>
    <g>
      <path class="cls-10" d="M26,58.76h-1.34v2.91h-.91v-6.97h2.25c1.64,0,2.41.9,2.41,2.04,0,1.06-.68,2.02-2.41,2.02ZM26,58.01c1.04,0,1.48-.49,1.48-1.27s-.44-1.29-1.48-1.29h-1.34v2.56h1.34Z"/>
      <path class="cls-10" d="M30.45,61.67h-.91v-5.48h.91v.89c.31-.61.9-.99,1.77-.99v.94h-.24c-.87,0-1.53.39-1.53,1.66v2.98Z"/>
      <path class="cls-10" d="M35.66,61.76c-1.55,0-2.73-1.1-2.73-2.84s1.22-2.82,2.77-2.82,2.77,1.09,2.77,2.82-1.25,2.84-2.81,2.84ZM35.66,60.96c.95,0,1.88-.65,1.88-2.04s-.91-2.03-1.85-2.03-1.83.65-1.83,2.03.85,2.04,1.8,2.04Z"/>
      <path class="cls-10" d="M43.68,58.57c0-1.12-.61-1.69-1.53-1.69s-1.57.58-1.57,1.76v3.03h-.91v-5.48h.91v.78c.36-.57,1.02-.88,1.76-.88,1.27,0,2.24.78,2.24,2.35v3.23h-.9v-3.1Z"/>
      <path class="cls-10" d="M48.46,61.76c-1.55,0-2.73-1.1-2.73-2.84s1.22-2.82,2.77-2.82,2.77,1.09,2.77,2.82-1.25,2.84-2.81,2.84ZM48.46,60.96c.95,0,1.88-.65,1.88-2.04s-.91-2.03-1.85-2.03-1.83.65-1.83,2.03.85,2.04,1.8,2.04Z"/>
      <path class="cls-10" d="M57.33,61.67h-.91v-.81c-.35.57-1.02.89-1.75.89-1.26,0-2.25-.78-2.25-2.35v-3.21h.9v3.09c0,1.11.61,1.68,1.53,1.68s1.57-.58,1.57-1.76v-3.01h.91v5.48Z"/>
      <path class="cls-10" d="M62.88,58.57c0-1.12-.61-1.69-1.53-1.69s-1.57.58-1.57,1.76v3.03h-.91v-5.48h.91v.78c.36-.57,1.02-.88,1.76-.88,1.27,0,2.24.78,2.24,2.35v3.23h-.9v-3.1Z"/>
    </g>
    <g>
      <path class="cls-10" d="M90.8,56.19l1.71,4.64,1.7-4.64h.97l-2.15,5.48h-1.06l-2.15-5.48h.98Z"/>
      <path class="cls-10" d="M98.45,61.76c-1.56,0-2.71-1.1-2.71-2.84s1.11-2.82,2.71-2.82,2.63,1.12,2.63,2.62c0,.2,0,.36-.03.55h-4.38c.07,1.11.85,1.72,1.78,1.72.82,0,1.34-.42,1.54-1.01h.98c-.28,1-1.16,1.78-2.52,1.78ZM96.68,58.53h3.46c.01-1.07-.79-1.66-1.73-1.66-.89,0-1.63.59-1.73,1.66Z"/>
      <path class="cls-10" d="M103.19,61.67h-.91v-5.48h.91v.89c.31-.61.9-.99,1.77-.99v.94h-.24c-.87,0-1.53.39-1.53,1.66v2.98Z"/>
      <path class="cls-10" d="M108.97,56.1c1.48,0,2.6,1.1,2.6,2.81s-1.13,2.85-2.6,2.85c-1,0-1.71-.5-2.05-1.1v1.01h-.91v-7.4h.91v2.94c.35-.61,1.08-1.11,2.05-1.11ZM108.78,56.89c-.99,0-1.86.76-1.86,2.03s.87,2.04,1.86,2.04,1.86-.76,1.86-2.05-.85-2.02-1.86-2.02Z"/>
    </g>
    <g>
      <path class="cls-10" d="M325.96,56.1c1.47,0,2.6,1.1,2.6,2.81s-1.13,2.85-2.6,2.85c-1,0-1.71-.54-2.05-1.1v3.61h-.91v-8.08h.91v1.01c.33-.58,1.05-1.1,2.05-1.1ZM325.77,56.89c-.99,0-1.86.76-1.86,2.03s.87,2.04,1.86,2.04,1.86-.76,1.86-2.05-.85-2.02-1.86-2.02Z"/>
      <path class="cls-10" d="M330.67,61.67h-.91v-5.48h.91v.89c.31-.61.9-.99,1.77-.99v.94h-.24c-.87,0-1.53.39-1.53,1.66v2.98Z"/>
      <path class="cls-10" d="M335.88,61.76c-1.55,0-2.73-1.1-2.73-2.84s1.22-2.82,2.77-2.82,2.77,1.09,2.77,2.82-1.25,2.84-2.81,2.84ZM335.88,60.96c.95,0,1.88-.65,1.88-2.04s-.91-2.03-1.85-2.03-1.83.65-1.83,2.03.85,2.04,1.8,2.04Z"/>
      <path class="cls-10" d="M343.9,58.57c0-1.12-.61-1.69-1.53-1.69s-1.57.58-1.57,1.76v3.03h-.91v-5.48h.91v.78c.36-.57,1.02-.88,1.76-.88,1.27,0,2.24.78,2.24,2.35v3.23h-.9v-3.1Z"/>
      <path class="cls-10" d="M348.68,61.76c-1.55,0-2.73-1.1-2.73-2.84s1.22-2.82,2.77-2.82,2.77,1.09,2.77,2.82-1.25,2.84-2.81,2.84ZM348.68,60.96c.95,0,1.88-.65,1.88-2.04s-.91-2.03-1.85-2.03-1.83.65-1.83,2.03.85,2.04,1.8,2.04Z"/>
      <path class="cls-10" d="M357.55,61.67h-.91v-.81c-.35.57-1.02.89-1.75.89-1.26,0-2.25-.78-2.25-2.35v-3.21h.9v3.09c0,1.11.61,1.68,1.53,1.68s1.57-.58,1.57-1.76v-3.01h.91v5.48Z"/>
      <path class="cls-10" d="M363.1,58.57c0-1.12-.61-1.69-1.53-1.69s-1.57.58-1.57,1.76v3.03h-.91v-5.48h.91v.78c.36-.57,1.02-.88,1.76-.88,1.27,0,2.24.78,2.24,2.35v3.23h-.9v-3.1Z"/>
    </g>
    <g>
      <path class="cls-10" d="M406.98,56.19l1.71,4.64,1.7-4.64h.97l-2.15,5.48h-1.06l-2.15-5.48h.98Z"/>
      <path class="cls-10" d="M414.63,61.76c-1.56,0-2.71-1.1-2.71-2.84s1.11-2.82,2.71-2.82,2.63,1.12,2.63,2.62c0,.2,0,.36-.03.55h-4.38c.07,1.11.85,1.72,1.78,1.72.82,0,1.34-.42,1.54-1.01h.98c-.28,1-1.16,1.78-2.52,1.78ZM412.86,58.53h3.46c0-1.07-.79-1.66-1.73-1.66-.89,0-1.63.59-1.73,1.66Z"/>
      <path class="cls-10" d="M419.37,61.67h-.91v-5.48h.91v.89c.31-.61.9-.99,1.77-.99v.94h-.24c-.87,0-1.53.39-1.53,1.66v2.98Z"/>
      <path class="cls-10" d="M425.15,56.1c1.48,0,2.6,1.1,2.6,2.81s-1.13,2.85-2.6,2.85c-1,0-1.71-.5-2.05-1.1v1.01h-.91v-7.4h.91v2.94c.35-.61,1.08-1.11,2.05-1.11ZM424.96,56.89c-.99,0-1.86.76-1.86,2.03s.87,2.04,1.86,2.04,1.86-.76,1.86-2.05-.85-2.02-1.86-2.02Z"/>
    </g>
    <g>
      <path class="cls-10" d="M265.63,58.73c0,2.16-1.41,3.47-3.7,3.47h-2.17v-6.97h2.17c2.29,0,3.7,1.34,3.7,3.5ZM261.93,61.45c1.82,0,2.77-1.02,2.77-2.72s-.95-2.76-2.77-2.76h-1.26v5.48h1.26Z"/>
      <path class="cls-10" d="M266.68,55.21c0-.35.27-.62.62-.62.33,0,.6.27.6.62s-.27.62-.6.62c-.35,0-.62-.27-.62-.62ZM266.83,56.72h.91v5.48h-.91v-5.48Z"/>
      <path class="cls-10" d="M271.56,56.63c.86,0,1.65.44,2.03,1.07v-2.9h.92v7.4h-.92v-1.03c-.33.61-1.04,1.12-2.04,1.12-1.47,0-2.6-1.15-2.6-2.85s1.13-2.81,2.61-2.81ZM271.73,57.42c-1,0-1.85.73-1.85,2.02s.85,2.05,1.85,2.05,1.86-.75,1.86-2.04-.86-2.03-1.86-2.03Z"/>
    </g>
    <g>
      <path class="cls-10" d="M464.92,56.63c1.36,0,2.25.7,2.53,1.85h-.98c-.19-.66-.74-1.08-1.55-1.08-1,0-1.74.71-1.74,2.05s.74,2.07,1.74,2.07c.81,0,1.35-.39,1.55-1.08h.98c-.28,1.09-1.17,1.85-2.53,1.85-1.56,0-2.67-1.1-2.67-2.84s1.11-2.82,2.67-2.82Z"/>
      <path class="cls-10" d="M471.05,62.29c-1.55,0-2.73-1.1-2.73-2.84s1.22-2.82,2.77-2.82,2.77,1.09,2.77,2.82-1.25,2.84-2.81,2.84ZM471.05,61.49c.95,0,1.88-.65,1.88-2.04s-.91-2.03-1.85-2.03-1.83.65-1.83,2.03.85,2.04,1.8,2.04Z"/>
      <path class="cls-10" d="M482.97,59.1c0-1.12-.6-1.69-1.5-1.69s-1.55.59-1.55,1.77v3.02h-.9v-3.1c0-1.12-.6-1.69-1.5-1.69s-1.55.59-1.55,1.77v3.02h-.91v-5.48h.91v.79c.36-.58,1.01-.89,1.73-.89.9,0,1.65.4,2.01,1.22.32-.79,1.1-1.22,1.94-1.22,1.25,0,2.22.78,2.22,2.35v3.23h-.9v-3.1Z"/>
      <path class="cls-10" d="M488.32,56.63c1.47,0,2.6,1.1,2.6,2.81s-1.13,2.85-2.6,2.85c-1,0-1.71-.54-2.05-1.1v3.61h-.91v-8.08h.91v1.01c.33-.58,1.05-1.1,2.05-1.1ZM488.13,57.42c-.99,0-1.86.76-1.86,2.03s.87,2.04,1.86,2.04,1.86-.76,1.86-2.05-.85-2.02-1.86-2.02Z"/>
      <path class="cls-10" d="M492.12,54.8h.91v7.4h-.91v-7.4Z"/>
      <path class="cls-10" d="M496.95,62.29c-1.56,0-2.71-1.1-2.71-2.84s1.11-2.82,2.71-2.82,2.63,1.12,2.63,2.62c0,.2,0,.36-.03.55h-4.38c.07,1.11.85,1.72,1.78,1.72.82,0,1.34-.42,1.54-1.01h.98c-.28,1-1.16,1.78-2.52,1.78ZM495.18,59.06h3.46c.01-1.07-.79-1.66-1.73-1.66-.89,0-1.63.59-1.73,1.66Z"/>
      <path class="cls-10" d="M508.69,59.1c0-1.12-.6-1.69-1.5-1.69s-1.55.59-1.55,1.77v3.02h-.9v-3.1c0-1.12-.6-1.69-1.5-1.69s-1.55.59-1.55,1.77v3.02h-.91v-5.48h.91v.79c.36-.58,1.01-.89,1.73-.89.9,0,1.65.4,2.01,1.22.32-.79,1.1-1.22,1.94-1.22,1.25,0,2.22.78,2.22,2.35v3.23h-.9v-3.1Z"/>
      <path class="cls-10" d="M513.45,62.29c-1.56,0-2.71-1.1-2.71-2.84s1.11-2.82,2.71-2.82,2.63,1.12,2.63,2.62c0,.2,0,.36-.03.55h-4.38c.07,1.11.85,1.72,1.78,1.72.82,0,1.34-.42,1.54-1.01h.98c-.28,1-1.16,1.78-2.52,1.78ZM511.68,59.06h3.46c.01-1.07-.79-1.66-1.73-1.66-.89,0-1.63.59-1.73,1.66Z"/>
      <path class="cls-10" d="M521.29,59.1c0-1.12-.61-1.69-1.53-1.69s-1.57.58-1.57,1.76v3.03h-.91v-5.48h.91v.78c.36-.57,1.02-.88,1.76-.88,1.27,0,2.24.78,2.24,2.35v3.23h-.9v-3.1Z"/>
      <path class="cls-10" d="M523.88,57.47h-.71v-.75h.71v-1.38h.91v1.38h1.43v.75h-1.43v3.23c0,.54.2.73.76.73h.67v.77h-.82c-.97,0-1.52-.4-1.52-1.5v-3.23Z"/>
      <path class="cls-10" d="M529.1,55.14c1.31,0,2.21.79,2.21,2.06,0,1.46-1.01,2.06-2.41,2.06l-.03.95h-.79l-.04-1.58h.29c1.14,0,2.11-.22,2.11-1.43,0-.8-.52-1.3-1.33-1.3s-1.33.47-1.33,1.25h-.86c0-1.21.87-2.01,2.18-2.01ZM528.47,62.26c-.35,0-.62-.27-.62-.62s.27-.62.62-.62c.33,0,.6.27.6.62s-.27.62-.6.62Z"/>
    </g>
    <line class="cls-2" x1="77.81" y1="50.61" x2="77.81" y2="90.38"/>
    <line class="cls-2" x1="127.96" y1="50.61" x2="127.96" y2="90.38"/>
    <line class="cls-2" x1="233.39" y1="50.61" x2="233.39" y2="90.38"/>
    <line class="cls-2" x1="300.43" y1="50.61" x2="300.43" y2="90.38"/>
    <line class="cls-2" x1="388.68" y1="50.61" x2="388.68" y2="90.38"/>
    <line class="cls-2" x1="448.79" y1="50.61" x2="448.79" y2="90.38"/>
    <g class="cls-13">
      <path class="cls-11" d="M544.49,148.08c0,2.39-1.91,4.33-4.27,4.33H13.43c-2.36,0-4.27-1.94-4.27-4.33v-47.17c0-2.39,1.91-4.33,4.27-4.33h526.79c2.36,0,4.27,1.94,4.27,4.33v47.17Z"/>
    </g>
    <path class="cls-10" d="M37.77,139.38l-1.28,6.02h.44l-.1.47h-1.79l.1-.47h.44l1.28-6.02h-.44l.1-.48h1.79l-.1.48h-.44Z"/>
    <g>
      <path class="cls-10" d="M272.41,138.94h.97l.26,5.91,2.94-5.91h1.02l.35,5.89,2.78-5.89h.98l-3.5,6.97h-1.02l-.43-5.61-2.87,5.61h-1.01s-.47-6.97-.47-6.97Z"/>
      <path class="cls-10" d="M282.8,138.51h.91l-.58,2.71c.48-.58,1.23-.89,2-.89,1.22,0,2.02.78,1.69,2.35l-.69,3.23h-.9l.66-3.1c.24-1.12-.25-1.69-1.17-1.69s-1.69.58-1.94,1.76l-.64,3.03h-.91l1.57-7.4Z"/>
      <path class="cls-10" d="M291.07,140.34c1.02,0,1.61.52,1.81,1.09l.21-1h.92l-1.16,5.48h-.92l.22-1.02c-.46.59-1.28,1.11-2.28,1.11-1.46,0-2.34-1.15-1.98-2.85.36-1.71,1.73-2.81,3.2-2.81ZM291.08,141.13c-1,0-2,.73-2.28,2.02-.27,1.29.41,2.05,1.41,2.05s2.02-.75,2.29-2.04c.27-1.27-.43-2.03-1.43-2.03Z"/>
      <path class="cls-10" d="M295.59,141.18h-.71l.16-.75h.71l.29-1.38h.91l-.29,1.38h1.43l-.16.75h-1.43l-.69,3.23c-.11.54.04.73.6.73h.67l-.16.77h-.82c-.97,0-1.43-.4-1.2-1.5l.69-3.23Z"/>
    </g>
    <g>
      <path class="cls-10" d="M331.25,140.34c.86,0,1.56.44,1.8,1.07l.62-2.9h.92l-1.57,7.4h-.92l.22-1.03c-.46.61-1.28,1.12-2.28,1.12-1.47,0-2.35-1.15-1.99-2.85.36-1.71,1.73-2.81,3.21-2.81ZM331.25,141.13c-1,0-2,.73-2.28,2.02-.27,1.29.41,2.05,1.41,2.05s2.02-.75,2.29-2.04c.27-1.27-.43-2.03-1.43-2.03Z"/>
      <path class="cls-10" d="M335.72,140.43h.91l-1.16,5.48h-.91l1.16-5.48ZM335.89,138.92c.07-.35.4-.62.75-.62.33,0,.54.27.47.62-.07.35-.4.62-.73.62-.35,0-.56-.27-.49-.62Z"/>
      <path class="cls-10" d="M340.47,140.34c.86,0,1.56.44,1.8,1.07l.62-2.9h.92l-1.57,7.4h-.92l.22-1.03c-.46.61-1.28,1.12-2.28,1.12-1.47,0-2.35-1.15-1.99-2.85.36-1.71,1.73-2.81,3.21-2.81ZM340.47,141.13c-1,0-2,.73-2.28,2.02-.27,1.29.41,2.05,1.41,2.05s2.02-.75,2.29-2.04c.27-1.27-.43-2.03-1.43-2.03Z"/>
    </g>
    <g>
      <path class="cls-10" d="M379.76,146c-1.28,0-2.03-.7-1.88-1.7h.94c-.06.53.32.93,1.09.93.72,0,1.2-.36,1.29-.81.26-1.22-3.13-.51-2.7-2.55.18-.84,1.11-1.53,2.33-1.53s1.87.65,1.7,1.72h-.91c.08-.55-.26-.95-.99-.95-.67,0-1.14.32-1.23.76-.28,1.3,3.05.59,2.68,2.55-.19.9-1.12,1.58-2.33,1.58Z"/>
      <path class="cls-10" d="M384.63,138.51h.91l-.58,2.71c.48-.58,1.23-.89,2-.89,1.22,0,2.02.78,1.69,2.35l-.69,3.23h-.9l.66-3.1c.24-1.12-.25-1.69-1.17-1.69s-1.69.58-1.94,1.76l-.64,3.03h-.91l1.57-7.4Z"/>
      <path class="cls-10" d="M391.81,146c-1.56,0-2.48-1.1-2.11-2.84.37-1.73,1.71-2.82,3.31-2.82s2.39,1.12,2.07,2.62c-.04.2-.09.36-.15.55h-4.38c-.17,1.11.48,1.72,1.41,1.72.82,0,1.43-.42,1.75-1.01h.98c-.49,1-1.54,1.78-2.9,1.78ZM390.72,142.77h3.46c.24-1.07-.44-1.66-1.38-1.66-.89,0-1.75.59-2.08,1.66Z"/>
    </g>
    <g>
      <path class="cls-10" d="M425.4,138.51h.91l-.58,2.71c.48-.58,1.23-.89,2-.89,1.22,0,2.02.78,1.69,2.35l-.69,3.23h-.9l.66-3.1c.24-1.12-.25-1.69-1.17-1.69s-1.69.58-1.94,1.76l-.64,3.03h-.91l1.57-7.4Z"/>
      <path class="cls-10" d="M433.67,140.34c1.02,0,1.61.52,1.81,1.09l.21-1h.92l-1.16,5.48h-.92l.22-1.02c-.46.59-1.28,1.11-2.29,1.11-1.46,0-2.34-1.15-1.98-2.85.36-1.71,1.73-2.81,3.2-2.81ZM433.68,141.13c-1,0-2,.73-2.28,2.02-.27,1.29.41,2.05,1.41,2.05s2.02-.75,2.29-2.04c.27-1.27-.43-2.03-1.43-2.03Z"/>
      <path class="cls-10" d="M438.48,140.43l.72,4.64,2.69-4.64h.97l-3.31,5.48h-1.06l-.98-5.48h.98Z"/>
      <path class="cls-10" d="M444.94,146c-1.56,0-2.48-1.1-2.11-2.84.37-1.73,1.71-2.82,3.31-2.82s2.39,1.12,2.07,2.62c-.04.2-.09.36-.15.55h-4.38c-.17,1.11.48,1.72,1.41,1.72.82,0,1.43-.42,1.75-1.01h.98c-.49,1-1.54,1.78-2.9,1.78ZM443.86,142.77h3.46c.24-1.07-.44-1.66-1.38-1.66-.89,0-1.75.59-2.08,1.66Z"/>
      <path class="cls-10" d="M449.93,145.97c-.35,0-.56-.27-.49-.62.08-.35.4-.62.75-.62.33,0,.54.27.47.62-.07.35-.4.62-.73.62ZM452.07,138.85c1.31,0,2.04.79,1.77,2.06-.31,1.46-1.45,2.06-2.85,2.06l-.23.95h-.79l.3-1.58h.29c1.14,0,2.16-.22,2.41-1.43.17-.8-.24-1.3-1.05-1.3s-1.43.47-1.59,1.25h-.86c.25-1.21,1.3-2.01,2.61-2.01Z"/>
    </g>
    <g class="cls-7">
      <path class="cls-9" d="M544.65,111.53c0,.62-1.88,1.12-4.2,1.12H13.19c-2.32,0-4.19-.5-4.19-1.12v-20.38c0-.62,1.88-1.11,4.19-1.11h527.26c2.32,0,4.2.5,4.2,1.11v20.38Z"/>
    </g>
    <g>
      <path class="cls-10" d="M29.62,125.19c-1.4,0-2.22-.78-2-1.93h.97c-.06.58.22,1.16,1.19,1.16.88,0,1.51-.5,1.65-1.16.4-1.88-3.62-.68-3.07-3.27.24-1.15,1.34-1.93,2.72-1.93s2.04.73,1.93,1.79h-1c.04-.47-.29-1-1.13-1.01-.75-.02-1.42.37-1.58,1.12-.38,1.8,3.61.68,3.06,3.26-.21.99-1.23,1.97-2.74,1.97Z"/>
      <path class="cls-10" d="M34.86,117.72h.91l-.58,2.71c.48-.58,1.23-.89,2-.89,1.22,0,2.02.78,1.69,2.35l-.69,3.23h-.9l.66-3.1c.24-1.12-.25-1.69-1.17-1.69s-1.69.58-1.94,1.76l-.64,3.03h-.91l1.57-7.4Z"/>
      <path class="cls-10" d="M42.04,125.21c-1.56,0-2.48-1.1-2.11-2.84.37-1.73,1.71-2.82,3.31-2.82s2.39,1.12,2.07,2.62c-.04.2-.09.36-.15.55h-4.38c-.17,1.11.48,1.72,1.41,1.72.82,0,1.43-.42,1.75-1.01h.98c-.49,1-1.54,1.78-2.9,1.78ZM40.96,121.98h3.46c.24-1.07-.44-1.66-1.38-1.66-.89,0-1.76.59-2.08,1.66Z"/>
    </g>
    <g>
      <path class="cls-10" d="M76.49,119.55c.86,0,1.56.44,1.8,1.07l.62-2.9h.92l-1.57,7.4h-.92l.22-1.03c-.46.61-1.28,1.12-2.28,1.12-1.47,0-2.35-1.15-1.99-2.85.36-1.71,1.73-2.81,3.21-2.81ZM76.49,120.34c-1,0-2,.73-2.28,2.02-.27,1.29.41,2.05,1.41,2.05s2.02-.75,2.29-2.04c.27-1.27-.43-2.03-1.43-2.03Z"/>
      <path class="cls-10" d="M80.96,119.64h.91l-1.17,5.48h-.91l1.17-5.48ZM81.14,118.13c.07-.35.4-.62.75-.62.33,0,.54.27.47.62-.07.35-.4.62-.73.62-.35,0-.56-.27-.49-.62Z"/>
      <path class="cls-10" d="M85.71,119.55c.86,0,1.56.44,1.8,1.07l.62-2.9h.92l-1.57,7.4h-.92l.22-1.03c-.46.61-1.28,1.12-2.28,1.12-1.47,0-2.35-1.15-1.99-2.85.36-1.71,1.73-2.81,3.21-2.81ZM85.71,120.34c-1,0-2,.73-2.28,2.02-.27,1.29.41,2.05,1.41,2.05s2.02-.75,2.29-2.04c.27-1.27-.43-2.03-1.43-2.03Z"/>
    </g>
    <g>
      <path class="cls-10" d="M76.55,140.34c.86,0,1.56.44,1.8,1.07l.62-2.9h.92l-1.57,7.4h-.92l.22-1.03c-.46.61-1.28,1.12-2.28,1.12-1.47,0-2.35-1.15-1.99-2.85.36-1.71,1.73-2.81,3.21-2.81ZM76.56,141.13c-1,0-2,.73-2.28,2.02-.27,1.29.41,2.05,1.41,2.05s2.02-.75,2.29-2.04c.27-1.27-.43-2.03-1.43-2.03Z"/>
      <path class="cls-10" d="M81.03,140.43h.91l-1.16,5.48h-.91l1.16-5.48ZM81.2,138.92c.07-.35.4-.62.75-.62.33,0,.54.27.47.62-.07.35-.4.62-.73.62-.35,0-.56-.27-.49-.62Z"/>
      <path class="cls-10" d="M85.77,140.34c.86,0,1.56.44,1.8,1.07l.62-2.9h.92l-1.57,7.4h-.92l.22-1.03c-.46.61-1.28,1.12-2.28,1.12-1.47,0-2.35-1.15-1.99-2.85.36-1.71,1.73-2.81,3.21-2.81ZM85.78,141.13c-1,0-2,.73-2.28,2.02-.27,1.29.41,2.05,1.41,2.05s2.02-.75,2.29-2.04c.27-1.27-.43-2.03-1.43-2.03Z"/>
    </g>
    <g>
      <path class="cls-10" d="M331.25,119.55c.86,0,1.56.44,1.8,1.07l.62-2.9h.92l-1.57,7.4h-.92l.22-1.03c-.46.61-1.28,1.12-2.28,1.12-1.47,0-2.35-1.15-1.99-2.85.36-1.71,1.73-2.81,3.21-2.81ZM331.26,120.34c-1,0-2,.73-2.28,2.02s.41,2.05,1.41,2.05,2.02-.75,2.29-2.04c.27-1.27-.43-2.03-1.43-2.03Z"/>
      <path class="cls-10" d="M335.73,119.64h.91l-1.17,5.48h-.91l1.17-5.48ZM335.9,118.13c.07-.35.4-.62.75-.62.33,0,.54.27.47.62-.08.35-.4.62-.73.62-.35,0-.56-.27-.49-.62Z"/>
      <path class="cls-10" d="M340.47,119.55c.86,0,1.56.44,1.8,1.07l.62-2.9h.92l-1.57,7.4h-.92l.22-1.03c-.46.61-1.28,1.12-2.28,1.12-1.47,0-2.35-1.15-1.99-2.85.36-1.71,1.73-2.81,3.21-2.81ZM340.48,120.34c-1,0-2,.73-2.28,2.02s.41,2.05,1.41,2.05,2.02-.75,2.29-2.04c.27-1.27-.43-2.03-1.43-2.03Z"/>
    </g>
    <g>
      <path class="cls-10" d="M203.5,119.55c1.02,0,1.61.52,1.81,1.09l.21-1h.92l-1.17,5.48h-.92l.22-1.02c-.46.59-1.28,1.11-2.28,1.11-1.46,0-2.34-1.15-1.98-2.85.36-1.71,1.73-2.81,3.2-2.81ZM203.52,120.34c-1,0-2,.73-2.28,2.02-.27,1.29.41,2.05,1.41,2.05s2.02-.75,2.29-2.04c.27-1.27-.43-2.03-1.43-2.03Z"/>
      <path class="cls-10" d="M211.06,117.72h.91l-.92,4.35,2.63-2.43h1.27l-3.16,2.73,2,2.75h-1.24l-1.64-2.42-.51,2.42h-.91l1.57-7.4Z"/>
      <path class="cls-10" d="M215.81,119.64h.91l-1.17,5.48h-.91l1.17-5.48ZM215.98,118.13c.07-.35.4-.62.75-.62.33,0,.54.27.47.62-.07.35-.4.62-.73.62-.35,0-.56-.27-.49-.62Z"/>
      <path class="cls-10" d="M218.31,120.39h-.71l.16-.75h.71l.29-1.38h.91l-.29,1.38h1.43l-.16.75h-1.43l-.69,3.23c-.11.54.04.73.6.73h.67l-.16.77h-.82c-.97,0-1.43-.4-1.2-1.5l.69-3.23Z"/>
      <path class="cls-10" d="M221.95,120.39h-.71l.16-.75h.71l.29-1.38h.91l-.29,1.38h1.43l-.16.75h-1.43l-.69,3.23c-.11.54.04.73.6.73h.67l-.16.77h-.82c-.97,0-1.43-.4-1.2-1.5l.69-3.23Z"/>
      <path class="cls-10" d="M226.73,125.21c-1.56,0-2.48-1.1-2.11-2.84.37-1.73,1.71-2.82,3.31-2.82s2.39,1.12,2.07,2.62c-.04.2-.09.36-.15.55h-4.38c-.17,1.11.48,1.72,1.41,1.72.82,0,1.43-.42,1.75-1.01h.98c-.49,1-1.54,1.78-2.9,1.78ZM225.65,121.98h3.46c.24-1.07-.44-1.66-1.38-1.66-.89,0-1.76.59-2.08,1.66Z"/>
      <path class="cls-10" d="M235.25,122.02c.24-1.12-.25-1.69-1.17-1.69s-1.69.58-1.94,1.76l-.64,3.03h-.91l1.17-5.48h.91l-.17.78c.48-.57,1.21-.88,1.95-.88,1.27,0,2.07.78,1.74,2.35l-.69,3.23h-.9l.66-3.1Z"/>
      <path class="cls-10" d="M237.26,125.18c-.35,0-.56-.27-.49-.62.07-.35.4-.62.75-.62.33,0,.54.27.47.62-.07.35-.4.62-.73.62Z"/>
    </g>
    <g>
      <path class="cls-10" d="M274.8,118.15h.97l.26,5.91,2.93-5.91h1.02l.35,5.89,2.78-5.89h.98l-3.5,6.97h-1.02l-.43-5.61-2.87,5.61h-1.01s-.47-6.97-.47-6.97Z"/>
      <path class="cls-10" d="M285.19,117.72h.91l-.58,2.71c.48-.58,1.23-.89,2-.89,1.22,0,2.02.78,1.69,2.35l-.69,3.23h-.9l.66-3.1c.24-1.12-.25-1.69-1.17-1.69s-1.69.58-1.94,1.76l-.64,3.03h-.91l1.57-7.4Z"/>
      <path class="cls-10" d="M294.96,119.64h.94l-5.01,8.06h-.94l1.64-2.64-1.06-5.42h1.01l.78,4.44,2.64-4.44Z"/>
    </g>
    <g>
      <path class="cls-10" d="M118.03,122.02c.24-1.12-.25-1.69-1.17-1.69s-1.69.58-1.94,1.76l-.64,3.03h-.91l1.17-5.48h.91l-.17.78c.48-.57,1.21-.88,1.95-.88,1.27,0,2.07.78,1.74,2.35l-.69,3.23h-.9l.66-3.1Z"/>
      <path class="cls-10" d="M122.13,125.21c-1.55,0-2.49-1.1-2.12-2.84.37-1.73,1.82-2.82,3.37-2.82s2.54,1.09,2.17,2.82c-.37,1.74-1.85,2.84-3.41,2.84ZM122.3,124.41c.95,0,2.02-.65,2.31-2.04.29-1.38-.48-2.03-1.42-2.03s-1.97.65-2.26,2.03c-.3,1.39.42,2.04,1.37,2.04Z"/>
      <path class="cls-10" d="M127.37,120.39h-.71l.16-.75h.71l.29-1.38h.91l-.29,1.38h1.43l-.16.75h-1.43l-.69,3.23c-.11.54.04.73.6.73h.67l-.16.77h-.82c-.97,0-1.43-.4-1.2-1.5l.69-3.23Z"/>
    </g>
    <g>
      <path class="cls-10" d="M118.03,142.81c.24-1.12-.25-1.69-1.17-1.69s-1.69.58-1.94,1.76l-.64,3.03h-.91l1.16-5.48h.91l-.17.78c.48-.57,1.21-.88,1.95-.88,1.27,0,2.07.78,1.74,2.35l-.69,3.23h-.9l.66-3.1Z"/>
      <path class="cls-10" d="M122.13,146c-1.55,0-2.49-1.1-2.12-2.84.37-1.73,1.82-2.82,3.37-2.82s2.54,1.09,2.17,2.82c-.37,1.74-1.85,2.84-3.41,2.84ZM122.3,145.2c.95,0,2.02-.65,2.31-2.04.29-1.38-.48-2.03-1.42-2.03s-1.97.65-2.26,2.03c-.3,1.39.42,2.04,1.36,2.04Z"/>
      <path class="cls-10" d="M127.37,141.18h-.71l.16-.75h.71l.29-1.38h.91l-.29,1.38h1.43l-.16.75h-1.43l-.69,3.23c-.11.54.05.73.6.73h.67l-.16.77h-.82c-.97,0-1.43-.4-1.2-1.5l.69-3.23Z"/>
    </g>
    <g>
      <path class="cls-10" d="M379.76,125.21c-1.28,0-2.03-.7-1.88-1.7h.94c-.06.53.32.93,1.09.93.72,0,1.2-.36,1.29-.81.26-1.22-3.13-.51-2.7-2.55.18-.84,1.12-1.53,2.33-1.53s1.87.65,1.7,1.72h-.91c.08-.55-.26-.95-.99-.95-.67,0-1.14.32-1.23.76-.28,1.3,3.05.59,2.68,2.55-.19.9-1.12,1.58-2.33,1.58Z"/>
      <path class="cls-10" d="M384.63,117.72h.91l-.58,2.71c.48-.58,1.23-.89,2-.89,1.22,0,2.02.78,1.69,2.35l-.69,3.23h-.9l.66-3.1c.24-1.12-.25-1.69-1.17-1.69s-1.69.58-1.94,1.76l-.64,3.03h-.91l1.57-7.4Z"/>
      <path class="cls-10" d="M391.81,125.21c-1.56,0-2.48-1.1-2.11-2.84.37-1.73,1.71-2.82,3.31-2.82s2.39,1.12,2.07,2.62c-.04.2-.09.36-.15.55h-4.38c-.17,1.11.48,1.72,1.41,1.72.82,0,1.43-.42,1.75-1.01h.98c-.49,1-1.54,1.78-2.9,1.78ZM390.73,121.98h3.46c.24-1.07-.44-1.66-1.38-1.66-.89,0-1.76.59-2.08,1.66Z"/>
    </g>
    <g>
      <path class="cls-10" d="M150.83,117.72h.91l-.58,2.71c.48-.58,1.23-.89,2-.89,1.22,0,2.02.78,1.69,2.35l-.69,3.23h-.9l.66-3.1c.24-1.12-.25-1.69-1.17-1.69s-1.69.58-1.94,1.76l-.64,3.03h-.91l1.57-7.4Z"/>
      <path class="cls-10" d="M159.1,119.55c1.02,0,1.61.52,1.81,1.09l.21-1h.92l-1.17,5.48h-.92l.22-1.02c-.46.59-1.28,1.11-2.28,1.11-1.46,0-2.34-1.15-1.98-2.85.36-1.71,1.73-2.81,3.2-2.81ZM159.12,120.34c-1,0-2,.73-2.28,2.02-.27,1.29.41,2.05,1.41,2.05s2.02-.75,2.29-2.04c.27-1.27-.43-2.03-1.43-2.03Z"/>
      <path class="cls-10" d="M163.92,119.64l.72,4.64,2.69-4.64h.97l-3.31,5.48h-1.06l-.98-5.48h.98Z"/>
      <path class="cls-10" d="M170.38,125.21c-1.56,0-2.48-1.1-2.11-2.84.37-1.73,1.71-2.82,3.31-2.82s2.39,1.12,2.07,2.62c-.04.2-.09.36-.15.55h-4.38c-.17,1.11.48,1.72,1.41,1.72.82,0,1.43-.42,1.75-1.01h.98c-.49,1-1.54,1.78-2.9,1.78ZM169.3,121.98h3.46c.24-1.07-.44-1.66-1.38-1.66-.89,0-1.76.59-2.08,1.66Z"/>
    </g>
    <g>
      <path class="cls-10" d="M150.83,138.51h.91l-.58,2.71c.48-.58,1.23-.89,2-.89,1.22,0,2.02.78,1.69,2.35l-.69,3.23h-.9l.66-3.1c.24-1.12-.25-1.69-1.17-1.69s-1.69.58-1.94,1.76l-.64,3.03h-.91l1.57-7.4Z"/>
      <path class="cls-10" d="M159.1,140.34c1.02,0,1.61.52,1.81,1.09l.21-1h.92l-1.16,5.48h-.92l.22-1.02c-.46.59-1.28,1.11-2.29,1.11-1.46,0-2.34-1.15-1.98-2.85.36-1.71,1.73-2.81,3.2-2.81ZM159.12,141.13c-1,0-2,.73-2.28,2.02-.27,1.29.41,2.05,1.41,2.05s2.02-.75,2.29-2.04c.27-1.27-.43-2.03-1.43-2.03Z"/>
      <path class="cls-10" d="M163.92,140.43l.72,4.64,2.69-4.64h.97l-3.31,5.48h-1.06l-.98-5.48h.98Z"/>
      <path class="cls-10" d="M170.38,146c-1.56,0-2.48-1.1-2.1-2.84.37-1.73,1.71-2.82,3.31-2.82s2.39,1.12,2.07,2.62c-.04.2-.09.36-.15.55h-4.38c-.17,1.11.48,1.72,1.41,1.72.82,0,1.43-.42,1.75-1.01h.98c-.49,1-1.54,1.78-2.9,1.78ZM169.3,142.77h3.46c.24-1.07-.44-1.66-1.38-1.66-.89,0-1.76.59-2.08,1.66Z"/>
    </g>
    <g>
      <path class="cls-10" d="M207.7,140.34c1.48,0,2.37,1.1,2,2.81-.36,1.7-1.73,2.85-3.2,2.85-1,0-1.6-.5-1.81-1.1l-.21,1.01h-.91l1.57-7.4h.91l-.62,2.94c.48-.61,1.32-1.11,2.28-1.11ZM207.35,141.13c-.99,0-2.02.76-2.29,2.03-.27,1.29.44,2.04,1.43,2.04s2.02-.76,2.3-2.05c.27-1.29-.42-2.02-1.43-2.02Z"/>
      <path class="cls-10" d="M212.69,146c-1.55,0-2.49-1.1-2.12-2.84.37-1.73,1.82-2.82,3.37-2.82s2.54,1.09,2.17,2.82c-.37,1.74-1.85,2.84-3.41,2.84ZM212.86,145.2c.95,0,2.02-.65,2.31-2.04.29-1.38-.48-2.03-1.42-2.03s-1.97.65-2.26,2.03c-.3,1.39.42,2.04,1.36,2.04Z"/>
      <path class="cls-10" d="M219.09,146c-1.55,0-2.49-1.1-2.12-2.84.37-1.73,1.82-2.82,3.37-2.82s2.54,1.09,2.17,2.82c-.37,1.74-1.85,2.84-3.41,2.84ZM219.26,145.2c.95,0,2.02-.65,2.31-2.04.29-1.38-.48-2.03-1.42-2.03s-1.97.65-2.26,2.03c-.3,1.39.42,2.04,1.36,2.04Z"/>
      <path class="cls-10" d="M224.69,138.51h.91l-.92,4.35,2.63-2.43h1.27l-3.16,2.73,2,2.75h-1.24l-1.64-2.42-.51,2.42h-.91l1.57-7.4Z"/>
      <path class="cls-10" d="M230.19,146c-1.28,0-2.03-.7-1.88-1.7h.94c-.06.53.32.93,1.09.93.72,0,1.2-.36,1.29-.81.26-1.22-3.13-.51-2.7-2.55.18-.84,1.11-1.53,2.33-1.53s1.87.65,1.7,1.72h-.91c.08-.55-.26-.95-.99-.95-.67,0-1.14.32-1.23.76-.28,1.3,3.05.59,2.68,2.55-.19.9-1.12,1.58-2.33,1.58Z"/>
      <path class="cls-10" d="M233.77,145.97c-.35,0-.56-.27-.49-.62.07-.35.4-.62.75-.62.33,0,.54.27.47.62-.07.35-.4.62-.73.62Z"/>
    </g>
    <g>
      <path class="cls-10" d="M428.02,117.72h.91l-.58,2.71c.48-.58,1.23-.89,2-.89,1.22,0,2.02.78,1.69,2.35l-.69,3.23h-.9l.66-3.1c.24-1.12-.25-1.69-1.17-1.69s-1.69.58-1.94,1.76l-.64,3.03h-.91l1.57-7.4Z"/>
      <path class="cls-10" d="M436.29,119.55c1.02,0,1.61.52,1.81,1.09l.21-1h.92l-1.17,5.48h-.92l.22-1.02c-.46.59-1.28,1.11-2.28,1.11-1.46,0-2.34-1.15-1.98-2.85.36-1.71,1.73-2.81,3.2-2.81ZM436.31,120.34c-1,0-2,.73-2.28,2.02s.41,2.05,1.41,2.05,2.02-.75,2.29-2.04c.27-1.27-.43-2.03-1.43-2.03Z"/>
      <path class="cls-10" d="M441.1,119.64l.72,4.64,2.69-4.64h.97l-3.31,5.48h-1.06l-.98-5.48h.98Z"/>
      <path class="cls-10" d="M447.57,125.21c-1.56,0-2.48-1.1-2.11-2.84.37-1.73,1.71-2.82,3.31-2.82s2.39,1.12,2.07,2.62c-.04.2-.09.36-.15.55h-4.38c-.17,1.11.48,1.72,1.41,1.72.82,0,1.43-.42,1.75-1.01h.98c-.49,1-1.54,1.78-2.9,1.78ZM446.49,121.98h3.46c.24-1.07-.44-1.66-1.38-1.66-.89,0-1.76.59-2.08,1.66Z"/>
    </g>
    <g>
      <path class="cls-10" d="M486.62,119.55c1.02,0,1.61.52,1.81,1.09l.21-1h.92l-1.17,5.48h-.92l.22-1.02c-.46.59-1.28,1.11-2.28,1.11-1.46,0-2.34-1.15-1.98-2.85.36-1.71,1.73-2.81,3.2-2.81ZM486.64,120.34c-1,0-2,.73-2.28,2.02s.41,2.05,1.41,2.05,2.02-.75,2.29-2.04c.27-1.27-.43-2.03-1.43-2.03Z"/>
      <path class="cls-10" d="M494.18,117.72h.91l-.92,4.35,2.63-2.43h1.27l-3.16,2.73,2,2.75h-1.24l-1.63-2.42-.51,2.42h-.91l1.57-7.4Z"/>
      <path class="cls-10" d="M498.93,119.64h.91l-1.17,5.48h-.91l1.17-5.48ZM499.1,118.13c.07-.35.4-.62.75-.62.33,0,.54.27.47.62-.08.35-.4.62-.73.62-.35,0-.56-.27-.49-.62Z"/>
      <path class="cls-10" d="M501.43,120.39h-.71l.16-.75h.71l.29-1.38h.91l-.29,1.38h1.43l-.16.75h-1.43l-.69,3.23c-.12.54.04.73.6.73h.67l-.16.77h-.82c-.97,0-1.43-.4-1.2-1.5l.69-3.23Z"/>
      <path class="cls-10" d="M505.07,120.39h-.71l.16-.75h.71l.29-1.38h.91l-.29,1.38h1.43l-.16.75h-1.43l-.69,3.23c-.12.54.04.73.6.73h.67l-.16.77h-.82c-.97,0-1.43-.4-1.2-1.5l.69-3.23Z"/>
      <path class="cls-10" d="M509.85,125.21c-1.56,0-2.48-1.1-2.11-2.84.37-1.73,1.71-2.82,3.31-2.82s2.39,1.12,2.07,2.62c-.04.2-.09.36-.15.55h-4.38c-.17,1.11.48,1.72,1.41,1.72.82,0,1.43-.42,1.75-1.01h.98c-.49,1-1.54,1.78-2.9,1.78ZM508.77,121.98h3.46c.24-1.07-.44-1.66-1.38-1.66-.89,0-1.76.59-2.08,1.66Z"/>
      <path class="cls-10" d="M518.37,122.02c.24-1.12-.25-1.69-1.17-1.69s-1.69.58-1.94,1.76l-.64,3.03h-.91l1.17-5.48h.91l-.17.78c.48-.57,1.21-.88,1.95-.88,1.27,0,2.07.78,1.74,2.35l-.69,3.23h-.9l.66-3.1Z"/>
      <path class="cls-10" d="M521.24,125.18c-.35,0-.56-.27-.49-.62.07-.35.4-.62.75-.62.33,0,.54.27.47.62-.07.35-.4.62-.73.62ZM523.38,118.06c1.31,0,2.04.79,1.77,2.06-.31,1.46-1.45,2.06-2.85,2.06l-.23.95h-.79l.3-1.58h.29c1.14,0,2.16-.22,2.41-1.43.17-.8-.24-1.3-1.05-1.3s-1.43.47-1.59,1.25h-.86c.25-1.21,1.3-2.01,2.61-2.01Z"/>
    </g>
    <g>
      <path class="cls-10" d="M19.14,102.85h-1.34v2.91h-.91v-6.97h2.25c1.64,0,2.41.9,2.41,2.04,0,1.06-.68,2.02-2.41,2.02ZM19.14,102.1c1.04,0,1.48-.49,1.48-1.27s-.44-1.29-1.48-1.29h-1.34v2.56h1.34Z"/>
      <path class="cls-10" d="M23.6,105.76h-.91v-5.48h.91v.89c.31-.61.9-.99,1.77-.99v.94h-.24c-.87,0-1.53.39-1.53,1.66v2.98Z"/>
      <path class="cls-10" d="M28.8,105.85c-1.55,0-2.73-1.1-2.73-2.84s1.22-2.82,2.77-2.82,2.77,1.09,2.77,2.82-1.25,2.84-2.81,2.84ZM28.8,105.05c.95,0,1.88-.65,1.88-2.04s-.91-2.03-1.85-2.03-1.83.65-1.83,2.03.85,2.04,1.8,2.04Z"/>
      <path class="cls-10" d="M36.82,102.66c0-1.12-.61-1.69-1.53-1.69s-1.57.58-1.57,1.76v3.03h-.91v-5.48h.91v.78c.36-.57,1.02-.88,1.76-.88,1.27,0,2.24.78,2.24,2.35v3.23h-.9v-3.1Z"/>
      <path class="cls-10" d="M41.6,105.85c-1.55,0-2.73-1.1-2.73-2.84s1.22-2.82,2.77-2.82,2.77,1.09,2.77,2.82-1.25,2.84-2.81,2.84ZM41.6,105.05c.95,0,1.88-.65,1.88-2.04s-.91-2.03-1.85-2.03-1.83.65-1.83,2.03.85,2.04,1.8,2.04Z"/>
      <path class="cls-10" d="M50.47,105.76h-.91v-.81c-.35.57-1.02.89-1.75.89-1.26,0-2.25-.78-2.25-2.35v-3.21h.9v3.09c0,1.11.61,1.68,1.53,1.68s1.57-.58,1.57-1.76v-3.01h.91v5.48Z"/>
      <path class="cls-10" d="M56.02,102.66c0-1.12-.61-1.69-1.53-1.69s-1.57.58-1.57,1.76v3.03h-.91v-5.48h.91v.78c.36-.57,1.02-.88,1.76-.88,1.27,0,2.24.78,2.24,2.35v3.23h-.9v-3.1Z"/>
    </g>
    <g>
      <path class="cls-10" d="M76.04,100.19c.86,0,1.65.44,2.03,1.07v-2.9h.92v7.4h-.92v-1.03c-.33.61-1.04,1.12-2.04,1.12-1.47,0-2.6-1.15-2.6-2.85s1.13-2.81,2.61-2.81ZM76.21,100.98c-1,0-1.85.73-1.85,2.02s.85,2.05,1.85,2.05,1.86-.75,1.86-2.04-.86-2.03-1.86-2.03Z"/>
      <path class="cls-10" d="M80.39,98.77c0-.35.27-.62.62-.62.33,0,.6.27.6.62s-.27.62-.6.62c-.35,0-.62-.27-.62-.62ZM80.54,100.28h.91v5.48h-.91v-5.48Z"/>
      <path class="cls-10" d="M85.26,100.19c.86,0,1.65.44,2.03,1.07v-2.9h.92v7.4h-.92v-1.03c-.33.61-1.04,1.12-2.04,1.12-1.47,0-2.6-1.15-2.6-2.85s1.13-2.81,2.61-2.81ZM85.43,100.98c-1,0-1.85.73-1.85,2.02s.85,2.05,1.85,2.05,1.86-.75,1.86-2.04-.86-2.03-1.86-2.03Z"/>
    </g>
    <g>
      <path class="cls-10" d="M331.06,100.19c.86,0,1.65.44,2.03,1.07v-2.9h.92v7.4h-.92v-1.03c-.33.61-1.04,1.12-2.04,1.12-1.47,0-2.6-1.15-2.6-2.85s1.13-2.81,2.61-2.81ZM331.23,100.98c-1,0-1.85.73-1.85,2.02s.85,2.05,1.85,2.05,1.86-.75,1.86-2.04-.86-2.03-1.86-2.03Z"/>
      <path class="cls-10" d="M335.41,98.77c0-.35.27-.62.62-.62.33,0,.6.27.6.62s-.27.62-.6.62c-.35,0-.62-.27-.62-.62ZM335.56,100.28h.91v5.48h-.91v-5.48Z"/>
      <path class="cls-10" d="M340.28,100.19c.86,0,1.65.44,2.03,1.07v-2.9h.92v7.4h-.92v-1.03c-.33.61-1.04,1.12-2.04,1.12-1.47,0-2.6-1.15-2.6-2.85s1.13-2.81,2.61-2.81ZM340.45,100.98c-1,0-1.85.73-1.85,2.02s.85,2.05,1.85,2.05,1.86-.75,1.86-2.04-.86-2.03-1.86-2.03Z"/>
    </g>
    <g>
      <path class="cls-10" d="M189.47,100.19c1.36,0,2.25.7,2.53,1.85h-.98c-.19-.66-.74-1.08-1.55-1.08-1,0-1.74.71-1.74,2.05s.74,2.07,1.74,2.07c.81,0,1.35-.39,1.55-1.08h.98c-.28,1.09-1.17,1.85-2.53,1.85-1.56,0-2.67-1.1-2.67-2.84s1.11-2.82,2.67-2.82Z"/>
      <path class="cls-10" d="M195.6,105.85c-1.55,0-2.73-1.1-2.73-2.84s1.22-2.82,2.77-2.82,2.77,1.09,2.77,2.82-1.25,2.84-2.81,2.84ZM195.6,105.05c.95,0,1.88-.65,1.88-2.04s-.91-2.03-1.85-2.03-1.83.65-1.83,2.03.85,2.04,1.8,2.04Z"/>
      <path class="cls-10" d="M207.52,102.66c0-1.12-.6-1.69-1.5-1.69s-1.55.59-1.55,1.77v3.02h-.9v-3.1c0-1.12-.6-1.69-1.5-1.69s-1.55.59-1.55,1.77v3.02h-.91v-5.48h.91v.79c.36-.58,1.01-.89,1.73-.89.9,0,1.65.4,2.01,1.22.32-.79,1.1-1.22,1.94-1.22,1.25,0,2.22.78,2.22,2.35v3.23h-.9v-3.1Z"/>
      <path class="cls-10" d="M212.87,100.19c1.47,0,2.6,1.1,2.6,2.81s-1.13,2.85-2.6,2.85c-1,0-1.71-.54-2.05-1.1v3.61h-.91v-8.08h.91v1.01c.33-.58,1.05-1.1,2.05-1.1ZM212.68,100.98c-.99,0-1.86.76-1.86,2.03s.87,2.04,1.86,2.04,1.86-.76,1.86-2.05-.85-2.02-1.86-2.02Z"/>
      <path class="cls-10" d="M216.68,98.36h.91v7.4h-.91v-7.4Z"/>
      <path class="cls-10" d="M221.5,105.85c-1.56,0-2.71-1.1-2.71-2.84s1.11-2.82,2.71-2.82,2.63,1.12,2.63,2.62c0,.2,0,.36-.03.55h-4.38c.07,1.11.85,1.72,1.78,1.72.82,0,1.34-.42,1.54-1.01h.98c-.28,1-1.16,1.78-2.52,1.78ZM219.73,102.62h3.46c.01-1.07-.79-1.66-1.73-1.66-.89,0-1.63.59-1.73,1.66Z"/>
      <path class="cls-10" d="M233.24,102.66c0-1.12-.6-1.69-1.5-1.69s-1.55.59-1.55,1.77v3.02h-.9v-3.1c0-1.12-.6-1.69-1.5-1.69s-1.55.59-1.55,1.77v3.02h-.91v-5.48h.91v.79c.36-.58,1.01-.89,1.73-.89.9,0,1.65.4,2.01,1.22.32-.79,1.1-1.22,1.94-1.22,1.25,0,2.22.78,2.22,2.35v3.23h-.9v-3.1Z"/>
      <path class="cls-10" d="M238,105.85c-1.56,0-2.71-1.1-2.71-2.84s1.11-2.82,2.71-2.82,2.63,1.12,2.63,2.62c0,.2,0,.36-.03.55h-4.38c.07,1.11.85,1.72,1.78,1.72.82,0,1.34-.42,1.54-1.01h.98c-.28,1-1.16,1.78-2.52,1.78ZM236.23,102.62h3.46c.01-1.07-.79-1.66-1.73-1.66-.89,0-1.63.59-1.73,1.66Z"/>
      <path class="cls-10" d="M245.84,102.66c0-1.12-.61-1.69-1.53-1.69s-1.57.58-1.57,1.76v3.03h-.91v-5.48h.91v.78c.36-.57,1.02-.88,1.76-.88,1.27,0,2.24.78,2.24,2.35v3.23h-.9v-3.1Z"/>
      <path class="cls-10" d="M248.44,101.03h-.71v-.75h.71v-1.38h.91v1.38h1.43v.75h-1.43v3.23c0,.54.2.73.76.73h.67v.77h-.82c-.97,0-1.52-.4-1.52-1.5v-3.23Z"/>
      <path class="cls-10" d="M252.17,105.82c-.35,0-.62-.27-.62-.62s.27-.62.62-.62c.33,0,.6.27.6.62s-.27.62-.6.62Z"/>
    </g>
    <g>
      <path class="cls-10" d="M151.92,100.28l1.71,4.64,1.7-4.64h.97l-2.15,5.48h-1.06l-2.15-5.48h.98Z"/>
      <path class="cls-10" d="M159.56,105.85c-1.56,0-2.71-1.1-2.71-2.84s1.11-2.82,2.71-2.82,2.63,1.12,2.63,2.62c0,.2,0,.36-.03.55h-4.38c.07,1.11.85,1.72,1.78,1.72.82,0,1.34-.42,1.54-1.01h.98c-.28,1-1.16,1.78-2.52,1.78ZM157.79,102.62h3.46c.01-1.07-.79-1.66-1.73-1.66-.89,0-1.63.59-1.73,1.66Z"/>
      <path class="cls-10" d="M164.31,105.76h-.91v-5.48h.91v.89c.31-.61.9-.99,1.77-.99v.94h-.24c-.87,0-1.53.39-1.53,1.66v2.98Z"/>
      <path class="cls-10" d="M170.08,100.19c1.48,0,2.6,1.1,2.6,2.81s-1.13,2.85-2.6,2.85c-1,0-1.71-.5-2.05-1.1v1.01h-.91v-7.4h.91v2.94c.35-.61,1.08-1.11,2.05-1.11ZM169.89,100.98c-.99,0-1.86.76-1.86,2.03s.87,2.04,1.86,2.04,1.86-.76,1.86-2.05-.85-2.02-1.86-2.02Z"/>
    </g>
    <g>
      <path class="cls-10" d="M260.24,98.79h.97l1.52,5.91,1.68-5.91h1.02l1.6,5.89,1.53-5.89h.98l-2.02,6.97h-1.02l-1.62-5.61-1.68,5.61h-1.01s-1.95-6.97-1.95-6.97Z"/>
      <path class="cls-10" d="M274.99,102.6h-3.55v3.16h-.91v-6.97h.91v3.06h3.55v-3.06h.91v6.97h-.91v-3.16Z"/>
      <path class="cls-10" d="M277.26,101.71h3.99v.77h-3.99v-.77Z"/>
      <path class="cls-10" d="M284.98,100.28h.93l1.26,4.6,1.36-4.6h.93l1.33,4.61,1.24-4.61h.9l-1.71,5.48h-.94l-1.32-4.35-1.32,4.35h-.94l-1.72-5.48Z"/>
      <path class="cls-10" d="M296.21,105.85c-1.55,0-2.73-1.1-2.73-2.84s1.22-2.82,2.77-2.82,2.77,1.09,2.77,2.82-1.25,2.84-2.81,2.84ZM296.21,105.05c.95,0,1.88-.65,1.88-2.04s-.91-2.03-1.85-2.03-1.83.65-1.83,2.03.85,2.04,1.8,2.04Z"/>
      <path class="cls-10" d="M301.14,105.76h-.91v-5.48h.91v.89c.31-.61.9-.99,1.77-.99v.94h-.24c-.87,0-1.53.39-1.53,1.66v2.98Z"/>
      <path class="cls-10" d="M306.22,100.19c.86,0,1.65.44,2.03,1.07v-2.9h.92v7.4h-.92v-1.03c-.33.61-1.04,1.12-2.04,1.12-1.47,0-2.6-1.15-2.6-2.85s1.13-2.81,2.61-2.81ZM306.39,100.98c-1,0-1.85.73-1.85,2.02s.85,2.05,1.85,2.05,1.86-.75,1.86-2.04-.86-2.03-1.86-2.03Z"/>
    </g>
    <g>
      <path class="cls-10" d="M369.45,100.19c1.47,0,2.6,1.1,2.6,2.81s-1.13,2.85-2.6,2.85c-1,0-1.71-.54-2.05-1.1v3.61h-.91v-8.08h.91v1.01c.33-.58,1.05-1.1,2.05-1.1ZM369.26,100.98c-.99,0-1.86.76-1.86,2.03s.87,2.04,1.86,2.04,1.86-.76,1.86-2.05-.85-2.02-1.86-2.02Z"/>
      <path class="cls-10" d="M374.16,105.76h-.91v-5.48h.91v.89c.31-.61.9-.99,1.77-.99v.94h-.24c-.87,0-1.53.39-1.53,1.66v2.98Z"/>
      <path class="cls-10" d="M379.37,105.85c-1.55,0-2.73-1.1-2.73-2.84s1.22-2.82,2.77-2.82,2.77,1.09,2.77,2.82-1.25,2.84-2.81,2.84ZM379.37,105.05c.95,0,1.88-.65,1.88-2.04s-.91-2.03-1.85-2.03-1.83.65-1.83,2.03.85,2.04,1.8,2.04Z"/>
      <path class="cls-10" d="M387.39,102.66c0-1.12-.61-1.69-1.53-1.69s-1.57.58-1.57,1.76v3.03h-.91v-5.48h.91v.78c.36-.57,1.02-.88,1.76-.88,1.27,0,2.24.78,2.24,2.35v3.23h-.9v-3.1Z"/>
      <path class="cls-10" d="M392.17,105.85c-1.55,0-2.73-1.1-2.73-2.84s1.22-2.82,2.77-2.82,2.77,1.09,2.77,2.82-1.25,2.84-2.81,2.84ZM392.17,105.05c.95,0,1.88-.65,1.88-2.04s-.91-2.03-1.85-2.03-1.83.65-1.83,2.03.85,2.04,1.8,2.04Z"/>
      <path class="cls-10" d="M401.04,105.76h-.91v-.81c-.35.57-1.02.89-1.75.89-1.26,0-2.25-.78-2.25-2.35v-3.21h.9v3.09c0,1.11.61,1.68,1.53,1.68s1.57-.58,1.57-1.76v-3.01h.91v5.48Z"/>
      <path class="cls-10" d="M406.59,102.66c0-1.12-.61-1.69-1.53-1.69s-1.57.58-1.57,1.76v3.03h-.91v-5.48h.91v.78c.36-.57,1.02-.88,1.76-.88,1.27,0,2.24.78,2.24,2.35v3.23h-.9v-3.1Z"/>
    </g>
    <g>
      <path class="cls-10" d="M118.35,102.66c0-1.12-.61-1.69-1.53-1.69s-1.57.58-1.57,1.76v3.03h-.91v-5.48h.91v.78c.36-.57,1.02-.88,1.76-.88,1.27,0,2.24.78,2.24,2.35v3.23h-.9v-3.1Z"/>
      <path class="cls-10" d="M123.13,105.85c-1.55,0-2.73-1.1-2.73-2.84s1.22-2.82,2.77-2.82,2.77,1.09,2.77,2.82-1.25,2.84-2.81,2.84ZM123.13,105.05c.95,0,1.88-.65,1.88-2.04s-.91-2.03-1.85-2.03-1.83.65-1.83,2.03.85,2.04,1.8,2.04Z"/>
      <path class="cls-10" d="M127.35,101.03h-.71v-.75h.71v-1.38h.91v1.38h1.43v.75h-1.43v3.23c0,.54.2.73.76.73h.67v.77h-.82c-.97,0-1.52-.4-1.52-1.5v-3.23Z"/>
    </g>
    <g>
      <path class="cls-10" d="M429.1,100.28l1.71,4.64,1.7-4.64h.97l-2.15,5.48h-1.06l-2.15-5.48h.98Z"/>
      <path class="cls-10" d="M436.74,105.85c-1.56,0-2.71-1.1-2.71-2.84s1.11-2.82,2.71-2.82,2.63,1.12,2.63,2.62c0,.2,0,.36-.03.55h-4.38c.07,1.11.85,1.72,1.78,1.72.82,0,1.34-.42,1.54-1.01h.98c-.28,1-1.16,1.78-2.52,1.78ZM434.98,102.62h3.46c0-1.07-.79-1.66-1.73-1.66-.89,0-1.63.59-1.73,1.66Z"/>
      <path class="cls-10" d="M441.48,105.76h-.91v-5.48h.91v.89c.31-.61.9-.99,1.77-.99v.94h-.24c-.87,0-1.53.39-1.53,1.66v2.98Z"/>
      <path class="cls-10" d="M447.26,100.19c1.48,0,2.6,1.1,2.6,2.81s-1.13,2.85-2.6,2.85c-1,0-1.71-.5-2.05-1.1v1.01h-.91v-7.4h.91v2.94c.35-.61,1.08-1.11,2.05-1.11ZM447.07,100.98c-.99,0-1.86.76-1.86,2.03s.87,2.04,1.86,2.04,1.86-.76,1.86-2.05-.85-2.02-1.86-2.02Z"/>
    </g>
    <g>
      <path class="cls-10" d="M472.58,100.19c1.36,0,2.25.7,2.53,1.85h-.98c-.19-.66-.74-1.08-1.55-1.08-1,0-1.74.71-1.74,2.05s.74,2.07,1.74,2.07c.81,0,1.35-.39,1.55-1.08h.98c-.28,1.09-1.17,1.85-2.53,1.85-1.56,0-2.67-1.1-2.67-2.84s1.11-2.82,2.67-2.82Z"/>
      <path class="cls-10" d="M478.71,105.85c-1.55,0-2.73-1.1-2.73-2.84s1.22-2.82,2.77-2.82,2.77,1.09,2.77,2.82-1.25,2.84-2.81,2.84ZM478.71,105.05c.95,0,1.88-.65,1.88-2.04s-.91-2.03-1.85-2.03-1.83.65-1.83,2.03.85,2.04,1.8,2.04Z"/>
      <path class="cls-10" d="M490.63,102.66c0-1.12-.6-1.69-1.5-1.69s-1.55.59-1.55,1.77v3.02h-.9v-3.1c0-1.12-.6-1.69-1.5-1.69s-1.55.59-1.55,1.77v3.02h-.91v-5.48h.91v.79c.36-.58,1.01-.89,1.73-.89.9,0,1.65.4,2.01,1.22.32-.79,1.1-1.22,1.94-1.22,1.25,0,2.22.78,2.22,2.35v3.23h-.9v-3.1Z"/>
      <path class="cls-10" d="M495.98,100.19c1.47,0,2.6,1.1,2.6,2.81s-1.13,2.85-2.6,2.85c-1,0-1.71-.54-2.05-1.1v3.61h-.91v-8.08h.91v1.01c.33-.58,1.05-1.1,2.05-1.1ZM495.79,100.98c-.99,0-1.86.76-1.86,2.03s.87,2.04,1.86,2.04,1.86-.76,1.86-2.05-.85-2.02-1.86-2.02Z"/>
      <path class="cls-10" d="M499.79,98.36h.91v7.4h-.91v-7.4Z"/>
      <path class="cls-10" d="M504.61,105.85c-1.56,0-2.71-1.1-2.71-2.84s1.11-2.82,2.71-2.82,2.63,1.12,2.63,2.62c0,.2,0,.36-.03.55h-4.38c.07,1.11.85,1.72,1.78,1.72.82,0,1.34-.42,1.54-1.01h.98c-.28,1-1.16,1.78-2.52,1.78ZM502.85,102.62h3.46c0-1.07-.79-1.66-1.73-1.66-.89,0-1.63.59-1.73,1.66Z"/>
      <path class="cls-10" d="M516.35,102.66c0-1.12-.6-1.69-1.5-1.69s-1.55.59-1.55,1.77v3.02h-.9v-3.1c0-1.12-.6-1.69-1.5-1.69s-1.55.59-1.55,1.77v3.02h-.91v-5.48h.91v.79c.36-.58,1.01-.89,1.73-.89.9,0,1.65.4,2.01,1.22.32-.79,1.1-1.22,1.94-1.22,1.25,0,2.22.78,2.22,2.35v3.23h-.9v-3.1Z"/>
      <path class="cls-10" d="M521.11,105.85c-1.56,0-2.71-1.1-2.71-2.84s1.11-2.82,2.71-2.82,2.63,1.12,2.63,2.62c0,.2,0,.36-.03.55h-4.38c.07,1.11.85,1.72,1.78,1.72.82,0,1.34-.42,1.54-1.01h.98c-.28,1-1.16,1.78-2.52,1.78ZM519.35,102.62h3.46c0-1.07-.79-1.66-1.73-1.66-.89,0-1.63.59-1.73,1.66Z"/>
      <path class="cls-10" d="M528.95,102.66c0-1.12-.61-1.69-1.53-1.69s-1.57.58-1.57,1.76v3.03h-.91v-5.48h.91v.78c.36-.57,1.02-.88,1.76-.88,1.27,0,2.24.78,2.24,2.35v3.23h-.9v-3.1Z"/>
      <path class="cls-10" d="M531.55,101.03h-.71v-.75h.71v-1.38h.91v1.38h1.43v.75h-1.43v3.23c0,.54.2.73.76.73h.67v.77h-.82c-.97,0-1.52-.4-1.52-1.5v-3.23Z"/>
      <path class="cls-10" d="M536.76,98.7c1.31,0,2.21.79,2.21,2.06,0,1.46-1.01,2.06-2.41,2.06l-.03.95h-.79l-.04-1.58h.29c1.14,0,2.11-.22,2.11-1.43,0-.8-.52-1.3-1.33-1.3s-1.33.47-1.33,1.25h-.86c0-1.21.87-2.01,2.18-2.01ZM536.13,105.82c-.35,0-.62-.27-.62-.62s.27-.62.62-.62c.33,0,.6.27.6.62s-.27.62-.6.62Z"/>
    </g>
    <g>
      <path class="cls-10" d="M478.48,77.48c1.02,0,1.61.52,1.81,1.09l.21-1h.92l-1.17,5.48h-.92l.22-1.02c-.46.59-1.28,1.11-2.29,1.11-1.46,0-2.34-1.15-1.98-2.85.36-1.71,1.73-2.81,3.2-2.81ZM478.49,78.27c-1,0-2,.73-2.28,2.02-.27,1.29.41,2.05,1.41,2.05s2.02-.75,2.29-2.04c.27-1.27-.43-2.03-1.43-2.03Z"/>
      <path class="cls-10" d="M486.04,75.65h.91l-.92,4.35,2.63-2.43h1.27l-3.16,2.73,2,2.75h-1.24l-1.63-2.42-.51,2.42h-.91l1.57-7.4Z"/>
      <path class="cls-10" d="M490.78,77.57h.91l-1.17,5.48h-.91l1.17-5.48ZM490.95,76.06c.07-.35.4-.62.75-.62.33,0,.54.27.47.62-.08.35-.4.62-.73.62-.35,0-.56-.27-.49-.62Z"/>
      <path class="cls-10" d="M493.28,78.32h-.71l.16-.75h.71l.29-1.38h.91l-.29,1.38h1.43l-.16.75h-1.43l-.69,3.23c-.11.54.05.73.61.73h.67l-.16.77h-.82c-.97,0-1.43-.4-1.2-1.5l.69-3.23Z"/>
      <path class="cls-10" d="M496.92,78.32h-.71l.16-.75h.71l.29-1.38h.91l-.29,1.38h1.43l-.16.75h-1.43l-.69,3.23c-.11.54.05.73.61.73h.67l-.16.77h-.82c-.97,0-1.43-.4-1.2-1.5l.69-3.23Z"/>
      <path class="cls-10" d="M501.71,83.14c-1.56,0-2.47-1.1-2.1-2.84.37-1.73,1.71-2.82,3.31-2.82s2.39,1.12,2.07,2.62c-.04.2-.09.36-.15.55h-4.38c-.17,1.11.48,1.72,1.41,1.72.82,0,1.43-.42,1.75-1.01h.98c-.49,1-1.54,1.78-2.9,1.78ZM500.62,79.91h3.46c.24-1.07-.44-1.66-1.38-1.66-.89,0-1.76.59-2.08,1.66Z"/>
      <path class="cls-10" d="M510.22,79.95c.24-1.12-.25-1.69-1.17-1.69s-1.69.58-1.94,1.76l-.64,3.03h-.91l1.17-5.48h.91l-.17.78c.48-.57,1.21-.88,1.95-.88,1.27,0,2.07.78,1.74,2.35l-.69,3.23h-.9l.66-3.1Z"/>
      <path class="cls-10" d="M513.09,83.11c-.35,0-.56-.27-.49-.62.07-.35.4-.62.75-.62.33,0,.54.27.47.62-.07.35-.4.62-.73.62ZM515.24,75.99c1.31,0,2.04.79,1.77,2.06-.31,1.46-1.45,2.06-2.85,2.06l-.23.95h-.79l.3-1.58h.29c1.14,0,2.16-.22,2.41-1.43.17-.8-.24-1.3-1.05-1.3s-1.43.47-1.59,1.25h-.86c.25-1.21,1.3-2.01,2.61-2.01Z"/>
    </g>
    <line class="cls-5" x1="61.86" y1="90.34" x2="61.86" y2="152.41"/>
    <line class="cls-4" x1="100.97" y1="90.62" x2="100.97" y2="152.41"/>
    <line class="cls-4" x1="141.03" y1="90.62" x2="141.03" y2="152.41"/>
    <line class="cls-4" x1="180.9" y1="90.62" x2="180.9" y2="152.41"/>
    <line class="cls-4" x1="311.11" y1="90.62" x2="311.11" y2="152.41"/>
    <line class="cls-5" x1="361.09" y1="90.34" x2="361.09" y2="152.41"/>
    <line class="cls-1" x1="411.59" y1="90.05" x2="411.59" y2="152.41"/>
    <line class="cls-5" x1="463.63" y1="90.34" x2="463.63" y2="152.41"/>
    <line class="cls-6" x1="256.84" y1="90.62" x2="256.84" y2="152.41"/>
    <g>
      <path class="cls-10" d="M150.75,56.63c1.36,0,2.25.7,2.53,1.85h-.98c-.19-.66-.74-1.08-1.55-1.08-1,0-1.74.71-1.74,2.05s.74,2.07,1.74,2.07c.81,0,1.35-.39,1.55-1.08h.98c-.28,1.09-1.17,1.85-2.53,1.85-1.56,0-2.67-1.1-2.67-2.84s1.11-2.82,2.67-2.82Z"/>
      <path class="cls-10" d="M156.88,62.29c-1.55,0-2.73-1.1-2.73-2.84s1.22-2.82,2.77-2.82,2.77,1.09,2.77,2.82-1.25,2.84-2.81,2.84ZM156.88,61.49c.95,0,1.88-.65,1.88-2.04s-.91-2.03-1.85-2.03-1.83.65-1.83,2.03.85,2.04,1.8,2.04Z"/>
      <path class="cls-10" d="M168.79,59.1c0-1.12-.6-1.69-1.5-1.69s-1.55.59-1.55,1.77v3.02h-.9v-3.1c0-1.12-.6-1.69-1.5-1.69s-1.55.59-1.55,1.77v3.02h-.91v-5.48h.91v.79c.36-.58,1.01-.89,1.73-.89.9,0,1.65.4,2.01,1.22.32-.79,1.1-1.22,1.94-1.22,1.25,0,2.22.78,2.22,2.35v3.23h-.9v-3.1Z"/>
      <path class="cls-10" d="M174.15,56.63c1.47,0,2.6,1.1,2.6,2.81s-1.13,2.85-2.6,2.85c-1,0-1.71-.54-2.05-1.1v3.61h-.91v-8.08h.91v1.01c.33-.58,1.05-1.1,2.05-1.1ZM173.96,57.42c-.99,0-1.86.76-1.86,2.03s.87,2.04,1.86,2.04,1.86-.76,1.86-2.05-.85-2.02-1.86-2.02Z"/>
      <path class="cls-10" d="M177.95,54.8h.91v7.4h-.91v-7.4Z"/>
      <path class="cls-10" d="M182.78,62.29c-1.56,0-2.71-1.1-2.71-2.84s1.11-2.82,2.71-2.82,2.63,1.12,2.63,2.62c0,.2,0,.36-.03.55h-4.38c.07,1.11.85,1.72,1.78,1.72.82,0,1.34-.42,1.54-1.01h.98c-.28,1-1.16,1.78-2.52,1.78ZM181.01,59.06h3.46c.01-1.07-.79-1.66-1.73-1.66-.89,0-1.63.59-1.73,1.66Z"/>
      <path class="cls-10" d="M194.52,59.1c0-1.12-.6-1.69-1.5-1.69s-1.55.59-1.55,1.77v3.02h-.9v-3.1c0-1.12-.6-1.69-1.5-1.69s-1.55.59-1.55,1.77v3.02h-.91v-5.48h.91v.79c.36-.58,1.01-.89,1.73-.89.9,0,1.65.4,2.01,1.22.32-.79,1.1-1.22,1.94-1.22,1.25,0,2.22.78,2.22,2.35v3.23h-.9v-3.1Z"/>
      <path class="cls-10" d="M199.28,62.29c-1.56,0-2.71-1.1-2.71-2.84s1.11-2.82,2.71-2.82,2.63,1.12,2.63,2.62c0,.2,0,.36-.03.55h-4.38c.07,1.11.85,1.72,1.78,1.72.82,0,1.34-.42,1.54-1.01h.98c-.28,1-1.16,1.78-2.52,1.78ZM197.51,59.06h3.46c.01-1.07-.79-1.66-1.73-1.66-.89,0-1.63.59-1.73,1.66Z"/>
      <path class="cls-10" d="M207.12,59.1c0-1.12-.61-1.69-1.53-1.69s-1.57.58-1.57,1.76v3.03h-.91v-5.48h.91v.78c.36-.57,1.02-.88,1.76-.88,1.27,0,2.24.78,2.24,2.35v3.23h-.9v-3.1Z"/>
      <path class="cls-10" d="M209.71,57.47h-.71v-.75h.71v-1.38h.91v1.38h1.43v.75h-1.43v3.23c0,.54.2.73.76.73h.67v.77h-.82c-.97,0-1.52-.4-1.52-1.5v-3.23Z"/>
      <path class="cls-10" d="M213.44,62.25c-.35,0-.62-.27-.62-.62s.27-.62.62-.62c.33,0,.6.27.6.62s-.27.62-.6.62Z"/>
    </g>
    <line class="cls-6" x1="544.49" y1="132.15" x2="11.22" y2="132.15"/>
  </g>
</svg>