<?xml version="1.0" encoding="UTF-8"?>
<svg id="Layer_2" data-name="Layer 2" xmlns="http://www.w3.org/2000/svg" xmlns:xlink="http://www.w3.org/1999/xlink" viewBox="0 0 453 52.19">
  <defs>
    <style>
      .cls-1 {
        fill: #f89631;
      }

      .cls-2 {
        fill: #fff;
      }

      .cls-3 {
        fill: none;
      }

      .cls-4 {
        clip-path: url(#clippath-1);
      }

      .cls-5 {
        clip-path: url(#clippath-2);
      }

      .cls-6 {
        clip-path: url(#clippath);
      }
    </style>
    <clipPath id="clippath">
      <rect class="cls-3" width="453" height="52.19"/>
    </clipPath>
    <clipPath id="clippath-1">
      <rect class="cls-3" width="453" height="52.19"/>
    </clipPath>
    <clipPath id="clippath-2">
      <rect class="cls-3" width="453" height="52.19"/>
    </clipPath>
  </defs>
  <g id="Layer_1-2" data-name="Layer 1">
    <g class="cls-6">
      <rect class="cls-1" x="104.55" width="348.45" height="52.19" rx="3.6" ry="3.6"/>
    </g>
    <g>
      <path class="cls-2" d="M112.71,11c.77,0,1.49.4,1.83.96v-2.61h.83v6.66h-.83v-.93c-.3.55-.94,1.01-1.84,1.01-1.32,0-2.34-1.04-2.34-2.57s1.02-2.53,2.35-2.53ZM112.86,11.72c-.9,0-1.67.66-1.67,1.82s.77,1.84,1.67,1.84,1.67-.67,1.67-1.84-.77-1.83-1.67-1.83Z"/>
      <path class="cls-2" d="M116.62,9.73c0-.32.24-.56.56-.56.3,0,.54.24.54.56s-.24.56-.54.56c-.31,0-.56-.24-.56-.56ZM116.75,11.09h.82v4.93h-.82v-4.93Z"/>
      <path class="cls-2" d="M121.01,11c.77,0,1.49.4,1.83.96v-2.61h.83v6.66h-.83v-.93c-.3.55-.94,1.01-1.84,1.01-1.32,0-2.34-1.04-2.34-2.57s1.02-2.53,2.35-2.53ZM121.16,11.72c-.9,0-1.67.66-1.67,1.82s.77,1.84,1.67,1.84,1.67-.67,1.67-1.84-.77-1.83-1.67-1.83Z"/>
      <path class="cls-2" d="M128.66,13.23c0-1.01-.55-1.52-1.38-1.52s-1.41.52-1.41,1.58v2.73h-.82v-4.93h.82v.7c.32-.51.92-.79,1.58-.79,1.14,0,2.02.7,2.02,2.12v2.91h-.81v-2.79Z"/>
      <path class="cls-2" d="M130.4,11.79l.53-2.04h.91l-.86,2.04h-.58Z"/>
      <path class="cls-2" d="M132.96,11.76h-.64v-.68h.64v-1.24h.82v1.24h1.29v.68h-1.29v2.91c0,.49.18.66.68.66h.6v.69h-.74c-.87,0-1.37-.36-1.37-1.35v-2.91Z"/>
      <path class="cls-2" d="M136.05,12.37h6.6v.69h-6.6v-.69Z"/>
      <path class="cls-2" d="M146.07,11c.77,0,1.49.4,1.83.96v-2.61h.83v6.66h-.83v-.93c-.3.55-.94,1.01-1.84,1.01-1.32,0-2.34-1.04-2.34-2.57s1.02-2.53,2.35-2.53ZM146.22,11.72c-.9,0-1.67.66-1.67,1.82s.77,1.84,1.67,1.84,1.67-.67,1.67-1.84-.77-1.83-1.67-1.83Z"/>
      <path class="cls-2" d="M149.97,9.73c0-.32.24-.56.56-.56.3,0,.54.24.54.56s-.24.56-.54.56c-.31,0-.56-.24-.56-.56ZM150.11,11.09h.82v4.93h-.82v-4.93Z"/>
      <path class="cls-2" d="M154.36,11c.77,0,1.49.4,1.83.96v-2.61h.83v6.66h-.83v-.93c-.3.55-.94,1.01-1.84,1.01-1.32,0-2.34-1.04-2.34-2.57s1.02-2.53,2.35-2.53ZM154.52,11.72c-.9,0-1.67.66-1.67,1.82s.77,1.84,1.67,1.84,1.67-.67,1.67-1.84-.77-1.83-1.67-1.83Z"/>
      <path class="cls-2" d="M164.42,13.23c0-1.01-.55-1.52-1.38-1.52s-1.41.52-1.41,1.58v2.73h-.82v-4.93h.82v.7c.32-.51.92-.79,1.58-.79,1.14,0,2.02.7,2.02,2.12v2.91h-.81v-2.79Z"/>
      <path class="cls-2" d="M168.72,16.1c-1.4,0-2.46-.99-2.46-2.56s1.1-2.54,2.49-2.54,2.49.98,2.49,2.54-1.13,2.56-2.53,2.56ZM168.72,15.38c.86,0,1.69-.58,1.69-1.84s-.82-1.83-1.67-1.83-1.65.59-1.65,1.83.77,1.84,1.62,1.84Z"/>
      <path class="cls-2" d="M172.51,11.76h-.64v-.68h.64v-1.24h.82v1.24h1.29v.68h-1.29v2.91c0,.49.18.66.68.66h.6v.69h-.74c-.87,0-1.37-.36-1.37-1.35v-2.91Z"/>
    </g>
    <g>
      <path class="cls-2" d="M229.77,11c1.22,0,2.03.63,2.28,1.67h-.88c-.17-.59-.67-.97-1.4-.97-.9,0-1.57.64-1.57,1.85s.67,1.86,1.57,1.86c.73,0,1.22-.35,1.4-.97h.88c-.25.98-1.05,1.67-2.28,1.67-1.4,0-2.4-.99-2.4-2.56s1-2.54,2.4-2.54Z"/>
      <path class="cls-2" d="M235.17,11c.92,0,1.55.47,1.84.98v-.9h.83v4.93h-.83v-.92c-.3.53-.94,1-1.85,1-1.31,0-2.33-1.04-2.33-2.57s1.02-2.53,2.34-2.53ZM235.33,11.72c-.9,0-1.67.66-1.67,1.82s.77,1.84,1.67,1.84,1.67-.67,1.67-1.84-.77-1.83-1.67-1.83Z"/>
      <path class="cls-2" d="M242.82,13.23c0-1.01-.55-1.52-1.38-1.52s-1.41.52-1.41,1.58v2.73h-.82v-4.93h.82v.7c.32-.51.92-.79,1.58-.79,1.14,0,2.02.7,2.02,2.12v2.91h-.81v-2.79Z"/>
      <path class="cls-2" d="M244.57,11.79l.53-2.04h.91l-.86,2.04h-.58Z"/>
      <path class="cls-2" d="M247.13,11.76h-.64v-.68h.64v-1.24h.82v1.24h1.29v.68h-1.29v2.91c0,.49.18.66.68.66h.6v.69h-.74c-.87,0-1.37-.36-1.37-1.35v-2.91Z"/>
      <path class="cls-2" d="M250.21,12.37h6.6v.69h-6.6v-.69Z"/>
      <path class="cls-2" d="M260.28,11c1.22,0,2.03.63,2.28,1.67h-.88c-.17-.59-.67-.97-1.4-.97-.9,0-1.57.64-1.57,1.85s.67,1.86,1.57,1.86c.73,0,1.22-.35,1.4-.97h.88c-.25.98-1.05,1.67-2.28,1.67-1.4,0-2.4-.99-2.4-2.56s1-2.54,2.4-2.54Z"/>
      <path class="cls-2" d="M265.68,11c.92,0,1.55.47,1.84.98v-.9h.83v4.93h-.83v-.92c-.3.53-.94,1-1.85,1-1.31,0-2.33-1.04-2.33-2.57s1.02-2.53,2.34-2.53ZM265.85,11.72c-.9,0-1.67.66-1.67,1.82s.77,1.84,1.67,1.84,1.67-.67,1.67-1.84-.77-1.83-1.67-1.83Z"/>
      <path class="cls-2" d="M273.34,13.23c0-1.01-.55-1.52-1.38-1.52s-1.41.52-1.41,1.58v2.73h-.82v-4.93h.82v.7c.32-.51.92-.79,1.58-.79,1.14,0,2.02.7,2.02,2.12v2.91h-.81v-2.79Z"/>
      <path class="cls-2" d="M281.51,13.23c0-1.01-.55-1.52-1.38-1.52s-1.41.52-1.41,1.58v2.73h-.82v-4.93h.82v.7c.32-.51.92-.79,1.58-.79,1.14,0,2.02.7,2.02,2.12v2.91h-.81v-2.79Z"/>
      <path class="cls-2" d="M285.81,16.1c-1.4,0-2.46-.99-2.46-2.56s1.1-2.54,2.49-2.54,2.49.98,2.49,2.54-1.12,2.56-2.53,2.56ZM285.81,15.38c.86,0,1.69-.58,1.69-1.84s-.82-1.83-1.67-1.83-1.65.59-1.65,1.83.77,1.84,1.62,1.84Z"/>
      <path class="cls-2" d="M289.6,11.76h-.64v-.68h.64v-1.24h.82v1.24h1.29v.68h-1.29v2.91c0,.49.18.66.68.66h.6v.69h-.74c-.87,0-1.37-.36-1.37-1.35v-2.91Z"/>
    </g>
    <g>
      <path class="cls-2" d="M346.77,11c1.22,0,2.03.63,2.28,1.67h-.88c-.17-.59-.67-.97-1.39-.97-.9,0-1.57.64-1.57,1.85s.67,1.86,1.57,1.86c.73,0,1.21-.35,1.39-.97h.88c-.25.98-1.05,1.67-2.28,1.67-1.41,0-2.4-.99-2.4-2.56s1-2.54,2.4-2.54Z"/>
      <path class="cls-2" d="M352.28,16.1c-1.4,0-2.46-.99-2.46-2.56s1.1-2.54,2.49-2.54,2.49.98,2.49,2.54-1.12,2.56-2.53,2.56ZM352.28,15.38c.86,0,1.69-.58,1.69-1.84s-.82-1.83-1.67-1.83-1.65.59-1.65,1.83.76,1.84,1.62,1.84Z"/>
      <path class="cls-2" d="M360.27,16.02h-.82v-.73c-.32.51-.92.8-1.58.8-1.13,0-2.03-.7-2.03-2.12v-2.89h.81v2.78c0,1,.55,1.51,1.38,1.51s1.41-.52,1.41-1.58v-2.71h.82v4.93Z"/>
      <path class="cls-2" d="M361.65,9.36h.82v6.66h-.82v-6.66Z"/>
      <path class="cls-2" d="M365.91,11c.77,0,1.49.4,1.83.96v-2.61h.83v6.66h-.83v-.93c-.3.55-.94,1.01-1.84,1.01-1.32,0-2.34-1.04-2.34-2.57s1.02-2.53,2.35-2.53ZM366.06,11.72c-.9,0-1.67.66-1.67,1.82s.77,1.84,1.67,1.84,1.67-.67,1.67-1.84-.77-1.83-1.67-1.83Z"/>
      <path class="cls-2" d="M373.56,13.23c0-1.01-.55-1.52-1.38-1.52s-1.41.52-1.41,1.58v2.73h-.82v-4.93h.82v.7c.32-.51.92-.79,1.58-.79,1.14,0,2.02.7,2.02,2.12v2.91h-.81v-2.79Z"/>
      <path class="cls-2" d="M375.3,11.79l.53-2.04h.91l-.86,2.04h-.58Z"/>
      <path class="cls-2" d="M377.86,11.76h-.64v-.68h.64v-1.24h.82v1.24h1.29v.68h-1.29v2.91c0,.49.18.66.68.66h.6v.69h-.74c-.87,0-1.37-.36-1.37-1.35v-2.91Z"/>
      <path class="cls-2" d="M380.95,12.37h6.6v.69h-6.6v-.69Z"/>
      <path class="cls-2" d="M391.02,11c1.22,0,2.03.63,2.28,1.67h-.88c-.17-.59-.67-.97-1.4-.97-.9,0-1.57.64-1.57,1.85s.67,1.86,1.57,1.86c.73,0,1.22-.35,1.4-.97h.88c-.25.98-1.05,1.67-2.28,1.67-1.4,0-2.4-.99-2.4-2.56s1-2.54,2.4-2.54Z"/>
      <path class="cls-2" d="M396.54,16.1c-1.4,0-2.46-.99-2.46-2.56s1.1-2.54,2.49-2.54,2.49.98,2.49,2.54-1.12,2.56-2.53,2.56ZM396.54,15.38c.86,0,1.69-.58,1.69-1.84s-.82-1.83-1.67-1.83-1.65.59-1.65,1.83.76,1.84,1.62,1.84Z"/>
      <path class="cls-2" d="M404.52,16.02h-.82v-.73c-.32.51-.92.8-1.58.8-1.13,0-2.03-.7-2.03-2.12v-2.89h.81v2.78c0,1,.55,1.51,1.38,1.51s1.41-.52,1.41-1.58v-2.71h.82v4.93Z"/>
      <path class="cls-2" d="M405.9,9.36h.82v6.66h-.82v-6.66Z"/>
      <path class="cls-2" d="M410.16,11c.77,0,1.49.4,1.83.96v-2.61h.83v6.66h-.83v-.93c-.3.55-.94,1.01-1.84,1.01-1.32,0-2.34-1.04-2.34-2.57s1.02-2.53,2.35-2.53ZM410.31,11.72c-.9,0-1.67.66-1.67,1.82s.77,1.84,1.67,1.84,1.67-.67,1.67-1.84-.77-1.83-1.67-1.83Z"/>
      <path class="cls-2" d="M420.21,13.23c0-1.01-.55-1.52-1.38-1.52s-1.41.52-1.41,1.58v2.73h-.82v-4.93h.82v.7c.32-.51.92-.79,1.58-.79,1.14,0,2.02.7,2.02,2.12v2.91h-.81v-2.79Z"/>
      <path class="cls-2" d="M424.52,16.1c-1.4,0-2.46-.99-2.46-2.56s1.1-2.54,2.49-2.54,2.49.98,2.49,2.54-1.12,2.56-2.53,2.56ZM424.52,15.38c.86,0,1.69-.58,1.69-1.84s-.82-1.83-1.67-1.83-1.65.59-1.65,1.83.76,1.84,1.62,1.84Z"/>
      <path class="cls-2" d="M428.3,11.76h-.64v-.68h.64v-1.24h.82v1.24h1.29v.68h-1.29v2.91c0,.49.18.66.68.66h.6v.69h-.74c-.87,0-1.37-.36-1.37-1.35v-2.91Z"/>
    </g>
    <g>
      <path class="cls-2" d="M110.67,24.15h.82v2.44c.32-.52.94-.8,1.63-.8,1.1,0,1.97.7,1.97,2.12v2.91h-.81v-2.79c0-1.01-.55-1.52-1.38-1.52s-1.41.52-1.41,1.58v2.73h-.82v-6.66Z"/>
      <path class="cls-2" d="M118.46,25.8c.92,0,1.55.47,1.84.98v-.9h.83v4.93h-.83v-.92c-.3.53-.94,1-1.85,1-1.31,0-2.33-1.04-2.33-2.57s1.02-2.53,2.34-2.53ZM118.62,26.51c-.9,0-1.67.66-1.67,1.82s.77,1.84,1.67,1.84,1.67-.67,1.67-1.84-.77-1.83-1.67-1.83Z"/>
      <path class="cls-2" d="M124.56,25.8c.77,0,1.49.4,1.83.96v-2.61h.83v6.66h-.83v-.93c-.3.55-.94,1.01-1.84,1.01-1.32,0-2.34-1.04-2.34-2.57s1.02-2.53,2.35-2.53ZM124.71,26.51c-.9,0-1.67.66-1.67,1.82s.77,1.84,1.67,1.84,1.67-.67,1.67-1.84-.77-1.83-1.67-1.83Z"/>
      <path class="cls-2" d="M132.21,28.02c0-1.01-.55-1.52-1.38-1.52s-1.41.52-1.41,1.58v2.73h-.82v-4.93h.82v.7c.32-.51.92-.79,1.58-.79,1.14,0,2.02.7,2.02,2.12v2.91h-.81v-2.79Z"/>
      <path class="cls-2" d="M133.95,26.58l.53-2.04h.91l-.86,2.04h-.58Z"/>
      <path class="cls-2" d="M136.51,26.56h-.64v-.68h.64v-1.24h.82v1.24h1.29v.68h-1.29v2.91c0,.49.18.66.68.66h.6v.69h-.74c-.87,0-1.37-.36-1.37-1.35v-2.91Z"/>
      <path class="cls-2" d="M139.59,27.17h6.6v.69h-6.6v-.69Z"/>
      <path class="cls-2" d="M147.57,24.15h.82v2.44c.32-.52.94-.8,1.63-.8,1.1,0,1.97.7,1.97,2.12v2.91h-.81v-2.79c0-1.01-.55-1.52-1.38-1.52s-1.41.52-1.41,1.58v2.73h-.82v-6.66Z"/>
      <path class="cls-2" d="M155.36,25.8c.92,0,1.55.47,1.84.98v-.9h.83v4.93h-.83v-.92c-.3.53-.94,1-1.85,1-1.31,0-2.33-1.04-2.33-2.57s1.02-2.53,2.34-2.53ZM155.52,26.51c-.9,0-1.67.66-1.67,1.82s.77,1.84,1.67,1.84,1.67-.67,1.67-1.84-.77-1.83-1.67-1.83Z"/>
      <path class="cls-2" d="M161.46,25.8c.77,0,1.49.4,1.83.96v-2.61h.83v6.66h-.83v-.93c-.3.55-.94,1.01-1.84,1.01-1.32,0-2.34-1.04-2.34-2.57s1.02-2.53,2.35-2.53ZM161.61,26.51c-.9,0-1.67.66-1.67,1.82s.77,1.84,1.67,1.84,1.67-.67,1.67-1.84-.77-1.83-1.67-1.83Z"/>
      <path class="cls-2" d="M171.51,28.02c0-1.01-.55-1.52-1.38-1.52s-1.41.52-1.41,1.58v2.73h-.82v-4.93h.82v.7c.32-.51.92-.79,1.58-.79,1.14,0,2.02.7,2.02,2.12v2.91h-.81v-2.79Z"/>
      <path class="cls-2" d="M175.81,30.9c-1.4,0-2.46-.99-2.46-2.56s1.1-2.54,2.49-2.54,2.49.98,2.49,2.54-1.12,2.56-2.53,2.56ZM175.81,30.18c.86,0,1.69-.58,1.69-1.84s-.82-1.83-1.67-1.83-1.65.59-1.65,1.83.77,1.84,1.62,1.84Z"/>
      <path class="cls-2" d="M179.6,26.56h-.64v-.68h.64v-1.24h.82v1.24h1.29v.68h-1.29v2.91c0,.49.18.66.68.66h.6v.69h-.74c-.87,0-1.37-.36-1.37-1.35v-2.91Z"/>
    </g>
    <g>
      <path class="cls-2" d="M227.08,25.88h.84l1.13,4.14,1.22-4.14h.84l1.2,4.15,1.12-4.15h.81l-1.54,4.93h-.85l-1.19-3.92-1.19,3.92h-.85l-1.55-4.93Z"/>
      <path class="cls-2" d="M237.2,30.9c-1.4,0-2.46-.99-2.46-2.56s1.1-2.54,2.49-2.54,2.49.98,2.49,2.54-1.13,2.56-2.53,2.56ZM237.2,30.18c.86,0,1.69-.58,1.69-1.84s-.82-1.83-1.67-1.83-1.65.59-1.65,1.83.77,1.84,1.62,1.84Z"/>
      <path class="cls-2" d="M244.42,28.02c0-1.01-.55-1.52-1.38-1.52s-1.41.52-1.41,1.58v2.73h-.82v-4.93h.82v.7c.32-.51.92-.79,1.58-.79,1.14,0,2.02.7,2.02,2.12v2.91h-.81v-2.79Z"/>
      <path class="cls-2" d="M246.16,26.58l.53-2.04h.91l-.86,2.04h-.58Z"/>
      <path class="cls-2" d="M248.72,26.56h-.64v-.68h.64v-1.24h.82v1.24h1.29v.68h-1.29v2.91c0,.49.18.66.68.66h.6v.69h-.74c-.87,0-1.37-.36-1.37-1.35v-2.91Z"/>
      <path class="cls-2" d="M251.81,27.17h6.6v.69h-6.6v-.69Z"/>
      <path class="cls-2" d="M259.19,25.88h.84l1.13,4.14,1.22-4.14h.84l1.2,4.15,1.12-4.15h.81l-1.54,4.93h-.85l-1.19-3.92-1.19,3.92h-.85l-1.55-4.93Z"/>
      <path class="cls-2" d="M267.02,24.52c0-.32.24-.56.56-.56.3,0,.54.24.54.56s-.24.56-.54.56c-.31,0-.56-.24-.56-.56ZM267.16,25.88h.82v4.93h-.82v-4.93Z"/>
      <path class="cls-2" d="M269.37,24.15h.82v6.66h-.82v-6.66Z"/>
      <path class="cls-2" d="M271.59,24.15h.82v6.66h-.82v-6.66Z"/>
      <path class="cls-2" d="M279.81,28.02c0-1.01-.55-1.52-1.38-1.52s-1.41.52-1.41,1.58v2.73h-.82v-4.93h.82v.7c.32-.51.92-.79,1.58-.79,1.14,0,2.02.7,2.02,2.12v2.91h-.81v-2.79Z"/>
      <path class="cls-2" d="M284.12,30.9c-1.4,0-2.46-.99-2.46-2.56s1.1-2.54,2.49-2.54,2.49.98,2.49,2.54-1.12,2.56-2.53,2.56ZM284.12,30.18c.86,0,1.69-.58,1.69-1.84s-.82-1.83-1.67-1.83-1.65.59-1.65,1.83.77,1.84,1.62,1.84Z"/>
      <path class="cls-2" d="M287.9,26.56h-.64v-.68h.64v-1.24h.82v1.24h1.29v.68h-1.29v2.91c0,.49.18.66.68.66h.6v.69h-.74c-.87,0-1.37-.36-1.37-1.35v-2.91Z"/>
    </g>
    <g>
      <path class="cls-2" d="M344.08,25.88h.84l1.13,4.14,1.22-4.14h.84l1.2,4.15,1.12-4.15h.81l-1.54,4.93h-.85l-1.19-3.92-1.19,3.92h-.85l-1.55-4.93Z"/>
      <path class="cls-2" d="M354.2,30.9c-1.4,0-2.46-.99-2.46-2.56s1.1-2.54,2.49-2.54,2.49.98,2.49,2.54-1.12,2.56-2.53,2.56ZM354.2,30.18c.86,0,1.69-.58,1.69-1.84s-.82-1.83-1.67-1.83-1.65.59-1.65,1.83.76,1.84,1.62,1.84Z"/>
      <path class="cls-2" d="M362.18,30.82h-.82v-.73c-.32.51-.92.8-1.58.8-1.13,0-2.03-.7-2.03-2.12v-2.89h.81v2.78c0,1,.55,1.51,1.38,1.51s1.41-.52,1.41-1.58v-2.71h.82v4.93Z"/>
      <path class="cls-2" d="M363.57,24.15h.82v6.66h-.82v-6.66Z"/>
      <path class="cls-2" d="M367.83,25.8c.77,0,1.49.4,1.83.96v-2.61h.83v6.66h-.83v-.93c-.3.55-.94,1.01-1.84,1.01-1.32,0-2.34-1.04-2.34-2.57s1.02-2.53,2.35-2.53ZM367.98,26.51c-.9,0-1.67.66-1.67,1.82s.77,1.84,1.67,1.84,1.67-.67,1.67-1.84-.77-1.83-1.67-1.83Z"/>
      <path class="cls-2" d="M375.48,28.02c0-1.01-.55-1.52-1.38-1.52s-1.41.52-1.41,1.58v2.73h-.82v-4.93h.82v.7c.32-.51.92-.79,1.58-.79,1.14,0,2.02.7,2.02,2.12v2.91h-.81v-2.79Z"/>
      <path class="cls-2" d="M377.22,26.58l.53-2.04h.91l-.86,2.04h-.58Z"/>
      <path class="cls-2" d="M379.78,26.56h-.64v-.68h.64v-1.24h.82v1.24h1.29v.68h-1.29v2.91c0,.49.18.66.68.66h.6v.69h-.74c-.87,0-1.37-.36-1.37-1.35v-2.91Z"/>
      <path class="cls-2" d="M382.86,27.17h6.6v.69h-6.6v-.69Z"/>
      <path class="cls-2" d="M390.25,25.88h.84l1.13,4.14,1.22-4.14h.84l1.2,4.15,1.12-4.15h.81l-1.54,4.93h-.85l-1.19-3.92-1.19,3.92h-.85l-1.55-4.93Z"/>
      <path class="cls-2" d="M400.37,30.9c-1.4,0-2.46-.99-2.46-2.56s1.1-2.54,2.49-2.54,2.49.98,2.49,2.54-1.12,2.56-2.53,2.56ZM400.37,30.18c.86,0,1.69-.58,1.69-1.84s-.82-1.83-1.67-1.83-1.65.59-1.65,1.83.76,1.84,1.62,1.84Z"/>
      <path class="cls-2" d="M408.35,30.82h-.82v-.73c-.32.51-.92.8-1.58.8-1.13,0-2.03-.7-2.03-2.12v-2.89h.81v2.78c0,1,.55,1.51,1.38,1.51s1.41-.52,1.41-1.58v-2.71h.82v4.93Z"/>
      <path class="cls-2" d="M409.74,24.15h.82v6.66h-.82v-6.66Z"/>
      <path class="cls-2" d="M413.99,25.8c.77,0,1.49.4,1.83.96v-2.61h.83v6.66h-.83v-.93c-.3.55-.94,1.01-1.84,1.01-1.32,0-2.34-1.04-2.34-2.57s1.02-2.53,2.35-2.53ZM414.15,26.51c-.9,0-1.67.66-1.67,1.82s.76,1.84,1.67,1.84,1.67-.67,1.67-1.84-.77-1.83-1.67-1.83Z"/>
      <path class="cls-2" d="M424.05,28.02c0-1.01-.55-1.52-1.38-1.52s-1.41.52-1.41,1.58v2.73h-.82v-4.93h.82v.7c.32-.51.92-.79,1.58-.79,1.14,0,2.02.7,2.02,2.12v2.91h-.81v-2.79Z"/>
      <path class="cls-2" d="M428.35,30.9c-1.4,0-2.46-.99-2.46-2.56s1.1-2.54,2.49-2.54,2.49.98,2.49,2.54-1.12,2.56-2.53,2.56ZM428.35,30.18c.86,0,1.69-.58,1.69-1.84s-.82-1.83-1.67-1.83-1.65.59-1.65,1.83.76,1.84,1.62,1.84Z"/>
      <path class="cls-2" d="M432.14,26.56h-.64v-.68h.64v-1.24h.82v1.24h1.29v.68h-1.29v2.91c0,.49.18.66.68.66h.6v.69h-.74c-.87,0-1.37-.36-1.37-1.35v-2.91Z"/>
    </g>
    <g class="cls-4">
      <g>
        <path class="cls-2" d="M110.67,38.96h.82v2.44c.32-.52.94-.8,1.63-.8,1.1,0,1.97.7,1.97,2.12v2.91h-.81v-2.79c0-1.01-.55-1.52-1.38-1.52s-1.41.52-1.41,1.58v2.73h-.82v-6.66Z"/>
        <path class="cls-2" d="M118.46,40.6c.92,0,1.55.47,1.84.98v-.9h.83v4.93h-.83v-.92c-.3.53-.94,1-1.85,1-1.31,0-2.33-1.04-2.33-2.57s1.02-2.53,2.34-2.53ZM118.62,41.32c-.9,0-1.67.66-1.67,1.82s.77,1.84,1.67,1.84,1.67-.67,1.67-1.84-.77-1.83-1.67-1.83Z"/>
        <path class="cls-2" d="M122.81,40.69l1.54,4.18,1.53-4.18h.87l-1.94,4.93h-.95l-1.94-4.93h.88Z"/>
        <path class="cls-2" d="M129.69,45.7c-1.4,0-2.44-.99-2.44-2.56s1-2.54,2.44-2.54,2.37,1.01,2.37,2.36c0,.18,0,.32-.03.5h-3.94c.06,1,.77,1.55,1.6,1.55.74,0,1.21-.38,1.39-.91h.88c-.25.9-1.04,1.6-2.27,1.6ZM128.1,42.79h3.11c0-.96-.71-1.49-1.56-1.49-.8,0-1.47.53-1.56,1.49Z"/>
        <path class="cls-2" d="M136.75,42.83c0-1.01-.55-1.52-1.38-1.52s-1.41.52-1.41,1.58v2.73h-.82v-4.93h.82v.7c.32-.51.92-.79,1.58-.79,1.14,0,2.02.7,2.02,2.12v2.91h-.81v-2.79Z"/>
        <path class="cls-2" d="M138.5,41.39l.53-2.04h.91l-.86,2.04h-.58Z"/>
        <path class="cls-2" d="M141.05,41.36h-.64v-.68h.64v-1.24h.82v1.24h1.29v.68h-1.29v2.91c0,.49.18.66.68.66h.6v.69h-.74c-.87,0-1.37-.36-1.37-1.35v-2.91Z"/>
        <path class="cls-2" d="M144.14,41.97h6.6v.69h-6.6v-.69Z"/>
        <path class="cls-2" d="M152.11,38.96h.82v2.44c.32-.52.94-.8,1.63-.8,1.1,0,1.97.7,1.97,2.12v2.91h-.81v-2.79c0-1.01-.55-1.52-1.38-1.52s-1.41.52-1.41,1.58v2.73h-.82v-6.66Z"/>
        <path class="cls-2" d="M159.91,40.6c.92,0,1.55.47,1.84.98v-.9h.83v4.93h-.83v-.92c-.3.53-.94,1-1.85,1-1.31,0-2.33-1.04-2.33-2.57s1.02-2.53,2.34-2.53ZM160.07,41.32c-.9,0-1.67.66-1.67,1.82s.77,1.84,1.67,1.84,1.67-.67,1.67-1.84-.77-1.83-1.67-1.83Z"/>
        <path class="cls-2" d="M164.25,40.69l1.54,4.18,1.53-4.18h.87l-1.94,4.93h-.95l-1.94-4.93h.88Z"/>
        <path class="cls-2" d="M171.14,45.7c-1.4,0-2.44-.99-2.44-2.56s1-2.54,2.44-2.54,2.37,1.01,2.37,2.36c0,.18,0,.32-.03.5h-3.94c.06,1,.77,1.55,1.6,1.55.74,0,1.21-.38,1.39-.91h.88c-.25.9-1.04,1.6-2.27,1.6ZM169.55,42.79h3.11c0-.96-.71-1.49-1.56-1.49-.8,0-1.47.53-1.56,1.49Z"/>
        <path class="cls-2" d="M180.6,42.83c0-1.01-.55-1.52-1.38-1.52s-1.41.52-1.41,1.58v2.73h-.82v-4.93h.82v.7c.32-.51.92-.79,1.58-.79,1.14,0,2.02.7,2.02,2.12v2.91h-.81v-2.79Z"/>
        <path class="cls-2" d="M184.9,45.7c-1.4,0-2.46-.99-2.46-2.56s1.1-2.54,2.49-2.54,2.49.98,2.49,2.54-1.12,2.56-2.53,2.56ZM184.9,44.98c.86,0,1.69-.58,1.69-1.84s-.82-1.83-1.67-1.83-1.65.59-1.65,1.83.77,1.84,1.62,1.84Z"/>
        <path class="cls-2" d="M188.69,41.36h-.64v-.68h.64v-1.24h.82v1.24h1.29v.68h-1.29v2.91c0,.49.18.66.68.66h.6v.69h-.74c-.87,0-1.37-.36-1.37-1.35v-2.91Z"/>
      </g>
      <g>
        <path class="cls-2" d="M234.79,42.83c0-1.01-.54-1.52-1.35-1.52s-1.4.53-1.4,1.59v2.72h-.81v-2.79c0-1.01-.54-1.52-1.35-1.52s-1.4.53-1.4,1.59v2.72h-.82v-4.93h.82v.71c.32-.52.91-.8,1.56-.8.81,0,1.49.36,1.81,1.1.29-.71.99-1.1,1.75-1.1,1.13,0,2,.7,2,2.12v2.91h-.81v-2.79Z"/>
        <path class="cls-2" d="M241.31,45.62h-.82v-.73c-.32.51-.92.8-1.58.8-1.13,0-2.03-.7-2.03-2.12v-2.89h.81v2.78c0,1,.55,1.51,1.38,1.51s1.41-.52,1.41-1.58v-2.71h.82v4.93Z"/>
        <path class="cls-2" d="M244.44,45.7c-1.15,0-1.96-.63-2.02-1.53h.85c.04.48.47.84,1.16.84.65,0,1.01-.32,1.01-.73,0-1.1-2.92-.46-2.92-2.29,0-.76.71-1.38,1.81-1.38s1.81.58,1.86,1.55h-.82c-.04-.5-.41-.86-1.07-.86-.6,0-.96.29-.96.68,0,1.17,2.86.53,2.9,2.29,0,.81-.71,1.42-1.8,1.42Z"/>
        <path class="cls-2" d="M247.58,41.36h-.64v-.68h.64v-1.24h.82v1.24h1.29v.68h-1.29v2.91c0,.49.18.66.68.66h.6v.69h-.74c-.87,0-1.37-.36-1.37-1.35v-2.91Z"/>
        <path class="cls-2" d="M254.28,42.83c0-1.01-.55-1.52-1.38-1.52s-1.41.52-1.41,1.58v2.73h-.82v-4.93h.82v.7c.32-.51.92-.79,1.58-.79,1.14,0,2.02.7,2.02,2.12v2.91h-.81v-2.79Z"/>
        <path class="cls-2" d="M256.03,41.39l.53-2.04h.91l-.86,2.04h-.58Z"/>
        <path class="cls-2" d="M258.58,41.36h-.64v-.68h.64v-1.24h.82v1.24h1.29v.68h-1.29v2.91c0,.49.18.66.68.66h.6v.69h-.74c-.87,0-1.37-.36-1.37-1.35v-2.91Z"/>
        <path class="cls-2" d="M261.67,41.97h6.6v.69h-6.6v-.69Z"/>
        <path class="cls-2" d="M276.76,42.83c0-1.01-.54-1.52-1.35-1.52s-1.4.53-1.4,1.59v2.72h-.81v-2.79c0-1.01-.54-1.52-1.35-1.52s-1.4.53-1.4,1.59v2.72h-.82v-4.93h.82v.71c.32-.52.91-.8,1.56-.8.81,0,1.49.36,1.81,1.1.29-.71.99-1.1,1.75-1.1,1.13,0,2,.7,2,2.12v2.91h-.81v-2.79Z"/>
        <path class="cls-2" d="M283.29,45.62h-.82v-.73c-.32.51-.92.8-1.58.8-1.13,0-2.03-.7-2.03-2.12v-2.89h.81v2.78c0,1,.55,1.51,1.38,1.51s1.41-.52,1.41-1.58v-2.71h.82v4.93Z"/>
        <path class="cls-2" d="M286.42,45.7c-1.15,0-1.96-.63-2.02-1.53h.85c.04.48.47.84,1.16.84.65,0,1.01-.32,1.01-.73,0-1.1-2.92-.46-2.92-2.29,0-.76.71-1.38,1.81-1.38s1.81.58,1.86,1.55h-.82c-.04-.5-.41-.86-1.07-.86-.6,0-.96.29-.96.68,0,1.17,2.86.53,2.9,2.29,0,.81-.71,1.42-1.8,1.42Z"/>
        <path class="cls-2" d="M289.55,41.36h-.64v-.68h.64v-1.24h.82v1.24h1.29v.68h-1.29v2.91c0,.49.18.66.68.66h.6v.69h-.74c-.87,0-1.37-.36-1.37-1.35v-2.91Z"/>
        <path class="cls-2" d="M298.66,42.83c0-1.01-.55-1.52-1.38-1.52s-1.41.52-1.41,1.58v2.73h-.82v-4.93h.82v.7c.32-.51.92-.79,1.58-.79,1.14,0,2.02.7,2.02,2.12v2.91h-.81v-2.79Z"/>
        <path class="cls-2" d="M302.96,45.7c-1.4,0-2.46-.99-2.46-2.56s1.1-2.54,2.49-2.54,2.49.98,2.49,2.54-1.12,2.56-2.53,2.56ZM302.96,44.98c.86,0,1.69-.58,1.69-1.84s-.82-1.83-1.67-1.83-1.65.59-1.65,1.83.76,1.84,1.62,1.84Z"/>
        <path class="cls-2" d="M306.75,41.36h-.64v-.68h.64v-1.24h.82v1.24h1.29v.68h-1.29v2.91c0,.49.18.66.68.66h.6v.69h-.74c-.87,0-1.37-.36-1.37-1.35v-2.91Z"/>
      </g>
      <g>
        <path class="cls-2" d="M346.41,45.7c-1.15,0-1.96-.63-2.02-1.53h.85c.04.48.47.84,1.16.84.65,0,1.01-.32,1.01-.73,0-1.1-2.92-.46-2.92-2.29,0-.76.71-1.38,1.81-1.38s1.81.58,1.86,1.55h-.82c-.04-.5-.41-.86-1.07-.86-.6,0-.96.29-.96.68,0,1.17,2.86.53,2.9,2.29,0,.81-.71,1.42-1.8,1.42Z"/>
        <path class="cls-2" d="M349.37,38.96h.82v2.44c.32-.52.94-.8,1.63-.8,1.1,0,1.97.7,1.97,2.12v2.91h-.81v-2.79c0-1.01-.55-1.52-1.38-1.52s-1.41.52-1.41,1.58v2.73h-.82v-6.66Z"/>
        <path class="cls-2" d="M357.28,45.7c-1.4,0-2.46-.99-2.46-2.56s1.1-2.54,2.49-2.54,2.49.98,2.49,2.54-1.12,2.56-2.53,2.56ZM357.28,44.98c.86,0,1.69-.58,1.69-1.84s-.82-1.83-1.67-1.83-1.65.59-1.65,1.83.76,1.84,1.62,1.84Z"/>
        <path class="cls-2" d="M365.26,45.62h-.82v-.73c-.32.51-.92.8-1.58.8-1.13,0-2.03-.7-2.03-2.12v-2.89h.81v2.78c0,1,.55,1.51,1.38,1.51s1.41-.52,1.41-1.58v-2.71h.82v4.93Z"/>
        <path class="cls-2" d="M366.65,38.96h.82v6.66h-.82v-6.66Z"/>
        <path class="cls-2" d="M370.9,40.6c.77,0,1.49.4,1.83.96v-2.61h.83v6.66h-.83v-.93c-.3.55-.94,1.01-1.84,1.01-1.32,0-2.34-1.04-2.34-2.57s1.02-2.53,2.35-2.53ZM371.06,41.32c-.9,0-1.67.66-1.67,1.82s.77,1.84,1.67,1.84,1.67-.67,1.67-1.84-.77-1.83-1.67-1.83Z"/>
        <path class="cls-2" d="M378.55,42.83c0-1.01-.55-1.52-1.38-1.52s-1.41.52-1.41,1.58v2.73h-.82v-4.93h.82v.7c.32-.51.92-.79,1.58-.79,1.14,0,2.02.7,2.02,2.12v2.91h-.81v-2.79Z"/>
        <path class="cls-2" d="M380.3,41.39l.53-2.04h.91l-.86,2.04h-.58Z"/>
        <path class="cls-2" d="M382.85,41.36h-.64v-.68h.64v-1.24h.82v1.24h1.29v.68h-1.29v2.91c0,.49.18.66.68.66h.6v.69h-.74c-.87,0-1.37-.36-1.37-1.35v-2.91Z"/>
        <path class="cls-2" d="M385.94,41.97h6.6v.69h-6.6v-.69Z"/>
        <path class="cls-2" d="M395.66,45.7c-1.15,0-1.96-.63-2.02-1.53h.85c.04.48.47.84,1.16.84.65,0,1.01-.32,1.01-.73,0-1.1-2.92-.46-2.92-2.29,0-.76.71-1.38,1.81-1.38s1.81.58,1.86,1.55h-.82c-.04-.5-.41-.86-1.07-.86-.6,0-.96.29-.96.68,0,1.17,2.86.53,2.9,2.29,0,.81-.71,1.42-1.8,1.42Z"/>
        <path class="cls-2" d="M398.61,38.96h.82v2.44c.32-.52.94-.8,1.63-.8,1.1,0,1.97.7,1.97,2.12v2.91h-.81v-2.79c0-1.01-.55-1.52-1.38-1.52s-1.41.52-1.41,1.58v2.73h-.82v-6.66Z"/>
        <path class="cls-2" d="M406.52,45.7c-1.4,0-2.46-.99-2.46-2.56s1.1-2.54,2.49-2.54,2.49.98,2.49,2.54-1.12,2.56-2.53,2.56ZM406.52,44.98c.86,0,1.69-.58,1.69-1.84s-.82-1.83-1.67-1.83-1.65.59-1.65,1.83.77,1.84,1.62,1.84Z"/>
        <path class="cls-2" d="M414.51,45.62h-.82v-.73c-.32.51-.92.8-1.58.8-1.13,0-2.03-.7-2.03-2.12v-2.89h.81v2.78c0,1,.55,1.51,1.38,1.51s1.41-.52,1.41-1.58v-2.71h.82v4.93Z"/>
        <path class="cls-2" d="M415.89,38.96h.82v6.66h-.82v-6.66Z"/>
        <path class="cls-2" d="M420.15,40.6c.77,0,1.49.4,1.83.96v-2.61h.83v6.66h-.83v-.93c-.3.55-.94,1.01-1.84,1.01-1.32,0-2.34-1.04-2.34-2.57s1.02-2.53,2.35-2.53ZM420.3,41.32c-.9,0-1.67.66-1.67,1.82s.76,1.84,1.67,1.84,1.67-.67,1.67-1.84-.77-1.83-1.67-1.83Z"/>
        <path class="cls-2" d="M430.2,42.83c0-1.01-.55-1.52-1.38-1.52s-1.41.52-1.41,1.58v2.73h-.82v-4.93h.82v.7c.32-.51.92-.79,1.58-.79,1.14,0,2.02.7,2.02,2.12v2.91h-.81v-2.79Z"/>
        <path class="cls-2" d="M434.51,45.7c-1.4,0-2.46-.99-2.46-2.56s1.1-2.54,2.49-2.54,2.49.98,2.49,2.54-1.12,2.56-2.53,2.56ZM434.51,44.98c.86,0,1.69-.58,1.69-1.84s-.82-1.83-1.67-1.83-1.65.59-1.65,1.83.76,1.84,1.62,1.84Z"/>
        <path class="cls-2" d="M438.29,41.36h-.64v-.68h.64v-1.24h.82v1.24h1.29v.68h-1.29v2.91c0,.49.18.66.68.66h.6v.69h-.74c-.87,0-1.37-.36-1.37-1.35v-2.91Z"/>
      </g>
      <rect class="cls-1" width="78.89" height="52.19" rx="3.6" ry="3.6"/>
    </g>
    <g>
      <path class="cls-2" d="M7.58,10.64c.77,0,1.49.4,1.83.96v-2.61h.83v6.66h-.83v-.93c-.3.55-.94,1.01-1.84,1.01-1.32,0-2.34-1.04-2.34-2.57s1.02-2.53,2.35-2.53ZM7.74,11.35c-.9,0-1.67.66-1.67,1.82s.77,1.84,1.67,1.84,1.67-.67,1.67-1.84-.77-1.83-1.67-1.83Z"/>
      <path class="cls-2" d="M13.78,15.74c-1.4,0-2.46-.99-2.46-2.56s1.1-2.54,2.49-2.54,2.49.98,2.49,2.54-1.13,2.56-2.53,2.56ZM13.78,15.02c.86,0,1.69-.58,1.69-1.84s-.82-1.83-1.67-1.83-1.65.59-1.65,1.83.77,1.84,1.62,1.84Z"/>
      <path class="cls-2" d="M17.37,12.01h6.6v.69h-6.6v-.69Z"/>
      <path class="cls-2" d="M27.39,10.64c.77,0,1.49.4,1.83.96v-2.61h.83v6.66h-.83v-.93c-.3.55-.94,1.01-1.84,1.01-1.32,0-2.34-1.04-2.34-2.57s1.02-2.53,2.35-2.53ZM27.55,11.35c-.9,0-1.67.66-1.67,1.82s.77,1.84,1.67,1.84,1.67-.67,1.67-1.84-.77-1.83-1.67-1.83Z"/>
      <path class="cls-2" d="M31.3,9.36c0-.32.24-.56.56-.56.3,0,.54.24.54.56s-.24.56-.54.56c-.31,0-.56-.24-.56-.56ZM31.43,10.72h.82v4.93h-.82v-4.93Z"/>
      <path class="cls-2" d="M35.69,10.64c.77,0,1.49.4,1.83.96v-2.61h.83v6.66h-.83v-.93c-.3.55-.94,1.01-1.84,1.01-1.32,0-2.34-1.04-2.34-2.57s1.02-2.53,2.35-2.53ZM35.84,11.35c-.9,0-1.67.66-1.67,1.82s.77,1.84,1.67,1.84,1.67-.67,1.67-1.84-.77-1.83-1.67-1.83Z"/>
    </g>
    <g class="cls-5">
      <g>
        <path class="cls-2" d="M5.54,38.59h.82v2.44c.32-.52.94-.8,1.63-.8,1.1,0,1.97.7,1.97,2.12v2.91h-.81v-2.79c0-1.01-.55-1.52-1.38-1.52s-1.41.52-1.41,1.58v2.73h-.82v-6.66Z"/>
        <path class="cls-2" d="M13.33,40.24c.92,0,1.55.47,1.84.98v-.9h.83v4.93h-.83v-.92c-.3.53-.94,1-1.85,1-1.31,0-2.33-1.04-2.33-2.57s1.02-2.53,2.34-2.53ZM13.5,40.95c-.9,0-1.67.66-1.67,1.82s.77,1.84,1.67,1.84,1.67-.67,1.67-1.84-.77-1.83-1.67-1.83Z"/>
        <path class="cls-2" d="M17.68,40.32l1.54,4.18,1.53-4.18h.87l-1.94,4.93h-.95l-1.94-4.93h.88Z"/>
        <path class="cls-2" d="M24.57,45.34c-1.4,0-2.44-.99-2.44-2.56s1-2.54,2.44-2.54,2.37,1.01,2.37,2.36c0,.18,0,.32-.03.5h-3.94c.06,1,.77,1.55,1.6,1.55.74,0,1.21-.38,1.39-.91h.88c-.25.9-1.04,1.6-2.27,1.6ZM22.97,42.43h3.11c0-.96-.71-1.49-1.56-1.49-.8,0-1.47.53-1.56,1.49Z"/>
        <path class="cls-2" d="M28,41.61h6.6v.69h-6.6v-.69Z"/>
        <path class="cls-2" d="M35.98,38.59h.82v2.44c.32-.52.94-.8,1.63-.8,1.1,0,1.97.7,1.97,2.12v2.91h-.81v-2.79c0-1.01-.55-1.52-1.38-1.52s-1.41.52-1.41,1.58v2.73h-.82v-6.66Z"/>
        <path class="cls-2" d="M43.77,40.24c.92,0,1.55.47,1.84.98v-.9h.83v4.93h-.83v-.92c-.3.53-.94,1-1.85,1-1.31,0-2.33-1.04-2.33-2.57s1.02-2.53,2.34-2.53ZM43.93,40.95c-.9,0-1.67.66-1.67,1.82s.77,1.84,1.67,1.84,1.67-.67,1.67-1.84-.77-1.83-1.67-1.83Z"/>
        <path class="cls-2" d="M49.87,40.24c.77,0,1.49.4,1.83.96v-2.61h.83v6.66h-.83v-.93c-.3.55-.94,1.01-1.84,1.01-1.32,0-2.34-1.04-2.34-2.57s1.02-2.53,2.35-2.53ZM50.02,40.95c-.9,0-1.67.66-1.67,1.82s.77,1.84,1.67,1.84,1.67-.67,1.67-1.84-.77-1.83-1.67-1.83Z"/>
      </g>
    </g>
  </g>
</svg>