<?xml version="1.0" encoding="UTF-8"?>
<svg id="Layer_2" data-name="Layer 2" xmlns="http://www.w3.org/2000/svg" xmlns:xlink="http://www.w3.org/1999/xlink" viewBox="0 0 353.33 66.71">
  <defs>
    <style>
      .cls-1 {
        fill: #f89631;
      }

      .cls-2 {
        fill: #fff;
      }

      .cls-3 {
        fill: none;
      }

      .cls-4 {
        clip-path: url(#clippath-1);
      }

      .cls-5 {
        clip-path: url(#clippath);
      }
    </style>
    <clipPath id="clippath">
      <rect class="cls-3" width="353.33" height="66.71"/>
    </clipPath>
    <clipPath id="clippath-1">
      <rect class="cls-3" width="353.33" height="66.71"/>
    </clipPath>
  </defs>
  <g id="Layer_1-2" data-name="Layer 1">
    <g class="cls-5">
      <rect class="cls-1" y="0" width="353.33" height="66.71" rx="3.6" ry="3.6"/>
    </g>
    <g>
      <path class="cls-2" d="M6.4,7.41c0-.32.24-.56.56-.56.3,0,.54.24.54.56s-.24.56-.54.56c-.31,0-.56-.24-.56-.56ZM6.54,8.77h.82v4.93h-.82v-4.93Z"/>
      <path class="cls-2" d="M12.36,10.92c0-1.01-.55-1.52-1.38-1.52s-1.41.52-1.41,1.58v2.73h-.82v-4.93h.82v.7c.32-.51.92-.79,1.58-.79,1.14,0,2.02.7,2.02,2.12v2.91h-.81v-2.79Z"/>
    </g>
    <g>
      <path class="cls-2" d="M56.69,13.79c-1.4,0-2.46-.99-2.46-2.56s1.1-2.54,2.49-2.54,2.49.98,2.49,2.54-1.13,2.56-2.53,2.56ZM56.69,13.07c.86,0,1.69-.58,1.69-1.84s-.82-1.83-1.67-1.83-1.65.59-1.65,1.83.77,1.84,1.62,1.84Z"/>
      <path class="cls-2" d="M63.91,10.92c0-1.01-.55-1.52-1.38-1.52s-1.41.52-1.41,1.58v2.73h-.82v-4.93h.82v.7c.32-.51.92-.79,1.58-.79,1.14,0,2.02.7,2.02,2.12v2.91h-.81v-2.79Z"/>
    </g>
    <g>
      <path class="cls-2" d="M111.4,7.41c0-.32.24-.56.56-.56.3,0,.54.24.54.56s-.24.56-.54.56c-.31,0-.56-.24-.56-.56ZM111.53,8.77h.82v4.93h-.82v-4.93Z"/>
      <path class="cls-2" d="M117.36,10.92c0-1.01-.55-1.52-1.38-1.52s-1.41.52-1.41,1.58v2.73h-.82v-4.93h.82v.7c.32-.51.92-.79,1.58-.79,1.14,0,2.02.7,2.02,2.12v2.91h-.81v-2.79Z"/>
      <path class="cls-2" d="M119.69,9.45h-.64v-.68h.64v-1.24h.82v1.24h1.29v.68h-1.29v2.91c0,.49.18.66.68.66h.6v.69h-.74c-.87,0-1.37-.36-1.37-1.35v-2.91Z"/>
      <path class="cls-2" d="M124.94,13.79c-1.4,0-2.46-.99-2.46-2.56s1.1-2.54,2.49-2.54,2.49.98,2.49,2.54-1.13,2.56-2.53,2.56ZM124.94,13.07c.86,0,1.69-.58,1.69-1.84s-.82-1.83-1.67-1.83-1.65.59-1.65,1.83.77,1.84,1.62,1.84Z"/>
    </g>
    <g>
      <path class="cls-2" d="M175.57,8.69c.92,0,1.55.47,1.84.98v-.9h.83v4.93h-.83v-.92c-.3.53-.94,1-1.85,1-1.31,0-2.33-1.04-2.33-2.57s1.02-2.53,2.34-2.53ZM175.73,9.4c-.9,0-1.67.66-1.67,1.82s.77,1.84,1.67,1.84,1.67-.67,1.67-1.84-.77-1.83-1.67-1.83Z"/>
      <path class="cls-2" d="M182.28,8.69c1.33,0,2.34.99,2.34,2.53s-1.02,2.57-2.34,2.57c-.9,0-1.54-.45-1.85-.99v.91h-.82v-6.66h.82v2.65c.31-.55.97-1,1.85-1ZM182.11,9.4c-.89,0-1.67.68-1.67,1.83s.78,1.84,1.67,1.84,1.67-.68,1.67-1.84-.77-1.82-1.67-1.82Z"/>
      <path class="cls-2" d="M187.85,13.79c-1.4,0-2.46-.99-2.46-2.56s1.1-2.54,2.49-2.54,2.49.98,2.49,2.54-1.13,2.56-2.53,2.56ZM187.85,13.07c.86,0,1.69-.58,1.69-1.84s-.82-1.83-1.67-1.83-1.65.59-1.65,1.83.77,1.84,1.62,1.84Z"/>
      <path class="cls-2" d="M195.84,13.71h-.82v-.73c-.31.51-.92.8-1.58.8-1.13,0-2.03-.7-2.03-2.12v-2.89h.81v2.78c0,1,.55,1.51,1.38,1.51s1.41-.52,1.41-1.58v-2.71h.82v4.93Z"/>
      <path class="cls-2" d="M197.4,9.45h-.64v-.68h.64v-1.24h.82v1.24h1.29v.68h-1.29v2.91c0,.49.18.66.68.66h.6v.69h-.74c-.87,0-1.37-.36-1.37-1.35v-2.91Z"/>
    </g>
    <g>
      <path class="cls-2" d="M241.4,7.41c0-.32.24-.56.56-.56.3,0,.54.24.54.56s-.24.56-.54.56c-.31,0-.56-.24-.56-.56ZM241.54,8.77h.82v4.93h-.82v-4.93Z"/>
      <path class="cls-2" d="M247.36,10.92c0-1.01-.55-1.52-1.38-1.52s-1.41.52-1.41,1.58v2.73h-.82v-4.93h.82v.7c.32-.51.92-.79,1.58-.79,1.14,0,2.02.7,2.02,2.12v2.91h-.81v-2.79Z"/>
      <path class="cls-2" d="M251.26,13.79c-1.15,0-1.96-.63-2.02-1.53h.85c.04.48.47.84,1.16.84.65,0,1.01-.32,1.01-.73,0-1.1-2.92-.46-2.92-2.29,0-.76.71-1.38,1.81-1.38s1.81.58,1.86,1.55h-.82c-.04-.5-.41-.86-1.07-.86-.6,0-.96.29-.96.68,0,1.17,2.86.53,2.9,2.29,0,.81-.71,1.42-1.8,1.42Z"/>
      <path class="cls-2" d="M254.08,7.41c0-.32.24-.56.56-.56.3,0,.54.24.54.56s-.24.56-.54.56c-.31,0-.56-.24-.56-.56ZM254.21,8.77h.82v4.93h-.82v-4.93Z"/>
      <path class="cls-2" d="M258.47,8.69c.77,0,1.49.4,1.83.96v-2.61h.83v6.66h-.83v-.93c-.3.55-.94,1.01-1.84,1.01-1.32,0-2.34-1.04-2.34-2.57s1.02-2.53,2.35-2.53ZM258.62,9.4c-.9,0-1.67.66-1.67,1.82s.77,1.84,1.67,1.84,1.67-.67,1.67-1.84-.77-1.83-1.67-1.83Z"/>
      <path class="cls-2" d="M264.64,13.79c-1.4,0-2.44-.99-2.44-2.56s1-2.54,2.44-2.54,2.37,1.01,2.37,2.36c0,.18,0,.32-.03.5h-3.94c.06,1,.77,1.55,1.6,1.55.74,0,1.21-.38,1.39-.91h.88c-.25.9-1.04,1.6-2.27,1.6ZM263.05,10.88h3.12c0-.96-.71-1.49-1.56-1.49-.8,0-1.47.53-1.56,1.49Z"/>
    </g>
    <g>
      <path class="cls-2" d="M306.2,8.69c1.33,0,2.34.99,2.34,2.53s-1.02,2.57-2.34,2.57c-.9,0-1.54-.45-1.85-.99v.91h-.82v-6.66h.82v2.65c.32-.55.97-1,1.85-1ZM306.03,9.4c-.89,0-1.67.68-1.67,1.83s.78,1.84,1.67,1.84,1.67-.68,1.67-1.84-.76-1.82-1.67-1.82Z"/>
      <path class="cls-2" d="M311.76,13.79c-1.4,0-2.44-.99-2.44-2.56s1-2.54,2.44-2.54,2.37,1.01,2.37,2.36c0,.18,0,.32-.03.5h-3.94c.06,1,.77,1.55,1.6,1.55.74,0,1.21-.38,1.39-.91h.88c-.25.9-1.04,1.6-2.27,1.6ZM310.16,10.88h3.12c0-.96-.71-1.49-1.56-1.49-.8,0-1.47.53-1.56,1.49Z"/>
      <path class="cls-2" d="M318.61,8.77h.85l-2.97,7.26h-.85l.97-2.38-1.99-4.88h.91l1.55,4,1.53-4Z"/>
      <path class="cls-2" d="M322.42,13.79c-1.4,0-2.46-.99-2.46-2.56s1.1-2.54,2.49-2.54,2.49.98,2.49,2.54-1.12,2.56-2.53,2.56ZM322.42,13.07c.86,0,1.69-.58,1.69-1.84s-.82-1.83-1.67-1.83-1.65.59-1.65,1.83.77,1.84,1.62,1.84Z"/>
      <path class="cls-2" d="M329.64,10.92c0-1.01-.55-1.52-1.38-1.52s-1.41.52-1.41,1.58v2.73h-.82v-4.93h.82v.7c.32-.51.92-.79,1.58-.79,1.14,0,2.02.7,2.02,2.12v2.91h-.81v-2.79Z"/>
      <path class="cls-2" d="M333.83,8.69c.77,0,1.49.4,1.83.96v-2.61h.83v6.66h-.83v-.93c-.3.55-.94,1.01-1.84,1.01-1.32,0-2.34-1.04-2.34-2.57s1.02-2.53,2.35-2.53ZM333.99,9.4c-.9,0-1.67.66-1.67,1.82s.77,1.84,1.67,1.84,1.67-.67,1.67-1.84-.77-1.83-1.67-1.83Z"/>
    </g>
    <g>
      <path class="cls-2" d="M8.69,28.58c-1.4,0-2.46-.99-2.46-2.56s1.1-2.54,2.49-2.54,2.49.98,2.49,2.54-1.13,2.56-2.53,2.56ZM8.69,27.86c.86,0,1.69-.58,1.69-1.84s-.82-1.83-1.67-1.83-1.65.59-1.65,1.83.77,1.84,1.62,1.84Z"/>
      <path class="cls-2" d="M12.45,24.24h-.64v-.68h.64v-.35c0-1.1.54-1.59,1.8-1.59v.68c-.74,0-.98.27-.98.91v.35h1.04v.68h-1.04v4.26h-.82v-4.26Z"/>
    </g>
    <g>
      <path class="cls-2" d="M57.2,23.49c1.33,0,2.34.99,2.34,2.53s-1.02,2.57-2.34,2.57c-.9,0-1.54-.45-1.85-.99v.91h-.82v-6.66h.82v2.65c.31-.55.97-1,1.85-1ZM57.03,24.2c-.89,0-1.67.68-1.67,1.83s.78,1.84,1.67,1.84,1.67-.68,1.67-1.84-.77-1.82-1.67-1.82Z"/>
      <path class="cls-2" d="M64.02,23.57h.85l-2.97,7.26h-.85l.97-2.38-1.99-4.88h.91l1.55,4,1.53-4Z"/>
    </g>
    <g>
      <path class="cls-2" d="M115.14,25.71c0-1.01-.55-1.52-1.38-1.52s-1.41.52-1.41,1.58v2.73h-.82v-4.93h.82v.7c.32-.51.92-.79,1.58-.79,1.14,0,2.02.7,2.02,2.12v2.91h-.81v-2.79Z"/>
      <path class="cls-2" d="M119.43,28.58c-1.4,0-2.44-.99-2.44-2.56s1-2.54,2.44-2.54,2.37,1.01,2.37,2.36c0,.18,0,.32-.03.5h-3.94c.06,1,.77,1.55,1.6,1.55.74,0,1.21-.38,1.39-.91h.88c-.25.9-1.04,1.6-2.27,1.6ZM117.83,25.67h3.11c0-.96-.71-1.49-1.56-1.49-.8,0-1.47.53-1.56,1.49Z"/>
      <path class="cls-2" d="M124.28,26.67l-1.13,1.84h-.85l1.59-2.45-1.59-2.48h.93l1.17,1.83,1.12-1.83h.85l-1.58,2.44,1.59,2.49h-.93l-1.17-1.84Z"/>
      <path class="cls-2" d="M127.36,24.24h-.64v-.68h.64v-1.24h.82v1.24h1.29v.68h-1.29v2.91c0,.49.18.66.68.66h.6v.69h-.74c-.87,0-1.37-.36-1.37-1.35v-2.91Z"/>
      <path class="cls-2" d="M133.04,24.24h-.64v-.68h.64v-1.24h.82v1.24h1.29v.68h-1.29v2.91c0,.49.18.66.68.66h.6v.69h-.74c-.87,0-1.37-.36-1.37-1.35v-2.91Z"/>
      <path class="cls-2" d="M138.29,28.58c-1.4,0-2.46-.99-2.46-2.56s1.1-2.54,2.49-2.54,2.49.98,2.49,2.54-1.12,2.56-2.53,2.56ZM138.29,27.86c.86,0,1.69-.58,1.69-1.84s-.82-1.83-1.67-1.83-1.65.59-1.65,1.83.77,1.84,1.62,1.84Z"/>
    </g>
    <g>
      <path class="cls-2" d="M175.57,23.49c.92,0,1.55.47,1.84.98v-.9h.83v4.93h-.83v-.92c-.3.53-.94,1-1.85,1-1.31,0-2.33-1.04-2.33-2.57s1.02-2.53,2.34-2.53ZM175.73,24.2c-.9,0-1.67.66-1.67,1.82s.77,1.84,1.67,1.84,1.67-.67,1.67-1.84-.77-1.83-1.67-1.83Z"/>
      <path class="cls-2" d="M182.28,23.49c1.33,0,2.34.99,2.34,2.53s-1.02,2.57-2.34,2.57c-.9,0-1.54-.45-1.85-.99v.91h-.82v-6.66h.82v2.65c.31-.55.97-1,1.85-1ZM182.11,24.2c-.89,0-1.67.68-1.67,1.83s.78,1.84,1.67,1.84,1.67-.68,1.67-1.84-.77-1.82-1.67-1.82Z"/>
      <path class="cls-2" d="M187.85,28.58c-1.4,0-2.46-.99-2.46-2.56s1.1-2.54,2.49-2.54,2.49.98,2.49,2.54-1.13,2.56-2.53,2.56ZM187.85,27.86c.86,0,1.69-.58,1.69-1.84s-.82-1.83-1.67-1.83-1.65.59-1.65,1.83.77,1.84,1.62,1.84Z"/>
      <path class="cls-2" d="M191.76,23.57l1.54,4.18,1.53-4.18h.87l-1.94,4.93h-.95l-1.94-4.93h.88Z"/>
      <path class="cls-2" d="M198.65,28.58c-1.4,0-2.44-.99-2.44-2.56s1-2.54,2.44-2.54,2.37,1.01,2.37,2.36c0,.18,0,.32-.03.5h-3.94c.06,1,.77,1.55,1.6,1.55.74,0,1.21-.38,1.39-.91h.88c-.25.9-1.04,1.6-2.27,1.6ZM197.05,25.67h3.11c0-.96-.71-1.49-1.56-1.49-.8,0-1.47.53-1.56,1.49Z"/>
    </g>
    <g>
      <path class="cls-2" d="M244.2,23.49c1.33,0,2.34.99,2.34,2.53s-1.02,2.57-2.34,2.57c-.9,0-1.54-.45-1.85-.99v.91h-.82v-6.66h.82v2.65c.32-.55.97-1,1.85-1ZM244.03,24.2c-.89,0-1.67.68-1.67,1.83s.78,1.84,1.67,1.84,1.67-.68,1.67-1.84-.76-1.82-1.67-1.82Z"/>
      <path class="cls-2" d="M249.76,28.58c-1.4,0-2.44-.99-2.44-2.56s1-2.54,2.44-2.54,2.37,1.01,2.37,2.36c0,.18,0,.32-.03.5h-3.94c.06,1,.77,1.55,1.6,1.55.74,0,1.21-.38,1.39-.91h.88c-.25.9-1.04,1.6-2.27,1.6ZM248.16,25.67h3.12c0-.96-.71-1.49-1.56-1.49-.8,0-1.47.53-1.56,1.49Z"/>
      <path class="cls-2" d="M254.95,28.58c-1.15,0-1.96-.63-2.02-1.53h.85c.04.48.47.84,1.16.84.65,0,1.01-.32,1.01-.73,0-1.1-2.92-.46-2.92-2.29,0-.76.71-1.38,1.81-1.38s1.81.58,1.86,1.55h-.82c-.04-.5-.41-.86-1.07-.86-.6,0-.96.29-.96.68,0,1.17,2.86.53,2.9,2.29,0,.81-.71,1.42-1.8,1.42Z"/>
      <path class="cls-2" d="M257.77,22.21c0-.32.24-.56.56-.56.3,0,.54.24.54.56s-.24.56-.54.56c-.32,0-.56-.24-.56-.56ZM257.9,23.57h.82v4.93h-.82v-4.93Z"/>
      <path class="cls-2" d="M262.16,23.49c.77,0,1.49.4,1.83.96v-2.61h.83v6.66h-.83v-.93c-.3.55-.94,1.01-1.84,1.01-1.32,0-2.34-1.04-2.34-2.57s1.02-2.53,2.35-2.53ZM262.31,24.2c-.9,0-1.67.66-1.67,1.82s.77,1.84,1.67,1.84,1.67-.67,1.67-1.84-.77-1.83-1.67-1.83Z"/>
      <path class="cls-2" d="M268.33,28.58c-1.4,0-2.44-.99-2.44-2.56s1-2.54,2.44-2.54,2.37,1.01,2.37,2.36c0,.18,0,.32-.03.5h-3.94c.06,1,.77,1.55,1.6,1.55.74,0,1.21-.38,1.39-.91h.88c-.25.9-1.04,1.6-2.27,1.6ZM266.74,25.67h3.11c0-.96-.71-1.49-1.56-1.49-.8,0-1.47.53-1.56,1.49Z"/>
    </g>
    <g>
      <path class="cls-2" d="M303.72,24.24h-.64v-.68h.64v-1.24h.82v1.24h1.29v.68h-1.29v2.91c0,.49.18.66.68.66h.6v.69h-.74c-.87,0-1.37-.36-1.37-1.35v-2.91Z"/>
      <path class="cls-2" d="M308.97,28.58c-1.4,0-2.46-.99-2.46-2.56s1.1-2.54,2.49-2.54,2.49.98,2.49,2.54-1.12,2.56-2.53,2.56ZM308.97,27.86c.86,0,1.69-.58,1.69-1.84s-.82-1.83-1.67-1.83-1.65.59-1.65,1.83.77,1.84,1.62,1.84Z"/>
      <path class="cls-2" d="M311.99,23.57h.84l1.13,4.14,1.22-4.14h.84l1.2,4.15,1.12-4.15h.81l-1.54,4.93h-.85l-1.19-3.92-1.19,3.92h-.85l-1.55-4.93Z"/>
      <path class="cls-2" d="M321.99,23.49c.92,0,1.55.47,1.84.98v-.9h.83v4.93h-.83v-.92c-.3.53-.94,1-1.85,1-1.31,0-2.33-1.04-2.33-2.57s1.02-2.53,2.34-2.53ZM322.15,24.2c-.9,0-1.67.66-1.67,1.82s.77,1.84,1.67,1.84,1.67-.67,1.67-1.84-.77-1.83-1.67-1.83Z"/>
      <path class="cls-2" d="M326.86,28.5h-.82v-4.93h.82v.8c.28-.55.81-.89,1.59-.89v.85h-.22c-.78,0-1.38.35-1.38,1.5v2.68Z"/>
      <path class="cls-2" d="M331.44,23.49c.77,0,1.49.4,1.83.96v-2.61h.83v6.66h-.83v-.93c-.3.55-.94,1.01-1.84,1.01-1.32,0-2.34-1.04-2.34-2.57s1.02-2.53,2.35-2.53ZM331.59,24.2c-.9,0-1.67.66-1.67,1.82s.77,1.84,1.67,1.84,1.67-.67,1.67-1.84-.77-1.83-1.67-1.83Z"/>
      <path class="cls-2" d="M337.23,28.58c-1.15,0-1.96-.63-2.02-1.53h.85c.04.48.47.84,1.16.84.65,0,1.01-.32,1.01-.73,0-1.1-2.92-.46-2.92-2.29,0-.76.71-1.38,1.81-1.38s1.81.58,1.86,1.55h-.82c-.04-.5-.41-.86-1.07-.86-.6,0-.96.29-.96.68,0,1.17,2.86.53,2.9,2.29,0,.81-.71,1.42-1.8,1.42Z"/>
    </g>
    <g>
      <path class="cls-2" d="M8.57,38.28c.92,0,1.55.47,1.84.98v-.9h.83v4.93h-.83v-.92c-.3.53-.94,1-1.85,1-1.31,0-2.33-1.04-2.33-2.57s1.02-2.53,2.34-2.53ZM8.74,38.99c-.9,0-1.67.66-1.67,1.82s.77,1.84,1.67,1.84,1.67-.67,1.67-1.84-.77-1.83-1.67-1.83Z"/>
      <path class="cls-2" d="M12.8,39.04h-.64v-.68h.64v-1.24h.82v1.24h1.29v.68h-1.29v2.91c0,.49.18.66.68.66h.6v.69h-.74c-.87,0-1.37-.36-1.37-1.35v-2.91Z"/>
    </g>
    <g>
      <path class="cls-2" d="M53.95,38.36h.84l1.13,4.14,1.22-4.14h.84l1.2,4.15,1.12-4.15h.81l-1.54,4.93h-.85l-1.19-3.92-1.19,3.92h-.85l-1.55-4.93Z"/>
      <path class="cls-2" d="M61.78,37.01c0-.32.24-.56.56-.56.3,0,.54.24.54.56s-.24.56-.54.56c-.31,0-.56-.24-.56-.56ZM61.92,38.36h.82v4.93h-.82v-4.93Z"/>
      <path class="cls-2" d="M64.31,39.04h-.64v-.68h.64v-1.24h.82v1.24h1.29v.68h-1.29v2.91c0,.49.18.66.68.66h.6v.69h-.74c-.87,0-1.37-.36-1.37-1.35v-2.91Z"/>
      <path class="cls-2" d="M67.41,36.64h.82v2.44c.32-.52.94-.8,1.63-.8,1.1,0,1.97.7,1.97,2.12v2.91h-.81v-2.79c0-1.01-.55-1.52-1.38-1.52s-1.41.52-1.41,1.58v2.73h-.82v-6.66Z"/>
    </g>
    <g>
      <path class="cls-2" d="M111.69,39.04h-.64v-.68h.64v-.35c0-1.1.54-1.59,1.8-1.59v.68c-.74,0-.98.27-.98.91v.35h1.04v.68h-1.04v4.26h-.82v-4.26Z"/>
      <path class="cls-2" d="M115.31,43.3h-.82v-4.93h.82v.8c.28-.55.81-.89,1.59-.89v.85h-.22c-.78,0-1.38.35-1.38,1.49v2.68Z"/>
      <path class="cls-2" d="M120,43.38c-1.4,0-2.46-.99-2.46-2.56s1.1-2.54,2.49-2.54,2.49.98,2.49,2.54-1.12,2.56-2.53,2.56ZM120,42.66c.86,0,1.69-.58,1.69-1.84s-.82-1.83-1.67-1.83-1.65.59-1.65,1.83.77,1.84,1.62,1.84Z"/>
      <path class="cls-2" d="M130.73,40.51c0-1.01-.54-1.52-1.35-1.52s-1.4.53-1.4,1.59v2.72h-.81v-2.79c0-1.01-.54-1.52-1.35-1.52s-1.4.53-1.4,1.59v2.72h-.82v-4.93h.82v.71c.32-.52.91-.8,1.56-.8.81,0,1.49.36,1.81,1.1.29-.71.99-1.1,1.75-1.1,1.13,0,2,.7,2,2.12v2.91h-.81v-2.79Z"/>
    </g>
    <g>
      <path class="cls-2" d="M175.57,38.28c.92,0,1.55.47,1.84.98v-.9h.83v4.93h-.83v-.92c-.3.53-.94,1-1.85,1-1.31,0-2.33-1.04-2.33-2.57s1.02-2.53,2.34-2.53ZM175.73,38.99c-.9,0-1.67.66-1.67,1.82s.77,1.84,1.67,1.84,1.67-.67,1.67-1.84-.77-1.83-1.67-1.83Z"/>
      <path class="cls-2" d="M181.72,38.28c1.22,0,2.03.63,2.28,1.67h-.88c-.17-.59-.67-.97-1.4-.97-.9,0-1.57.64-1.57,1.85s.67,1.86,1.57,1.86c.73,0,1.22-.35,1.4-.97h.88c-.25.98-1.05,1.67-2.28,1.67-1.4,0-2.4-.99-2.4-2.56s1-2.54,2.4-2.54Z"/>
      <path class="cls-2" d="M185.9,43.3h-.82v-4.93h.82v.8c.28-.55.81-.89,1.59-.89v.85h-.22c-.78,0-1.38.35-1.38,1.49v2.68Z"/>
      <path class="cls-2" d="M190.59,43.38c-1.4,0-2.46-.99-2.46-2.56s1.1-2.54,2.49-2.54,2.49.98,2.49,2.54-1.12,2.56-2.53,2.56ZM190.59,42.66c.86,0,1.69-.58,1.69-1.84s-.82-1.83-1.67-1.83-1.65.59-1.65,1.83.77,1.84,1.62,1.84Z"/>
      <path class="cls-2" d="M195.95,43.38c-1.15,0-1.96-.63-2.02-1.53h.85c.04.48.47.84,1.16.84.65,0,1.01-.32,1.01-.73,0-1.1-2.92-.46-2.92-2.29,0-.76.71-1.38,1.81-1.38s1.81.58,1.86,1.55h-.82c-.04-.5-.41-.86-1.07-.86-.6,0-.96.29-.96.68,0,1.17,2.86.53,2.9,2.29,0,.81-.71,1.42-1.8,1.42Z"/>
      <path class="cls-2" d="M200.64,43.38c-1.15,0-1.96-.63-2.02-1.53h.85c.04.48.47.84,1.16.84.65,0,1.01-.32,1.01-.73,0-1.1-2.92-.46-2.92-2.29,0-.76.71-1.38,1.81-1.38s1.81.58,1.86,1.55h-.82c-.04-.5-.41-.86-1.07-.86-.6,0-.96.29-.96.68,0,1.17,2.86.53,2.9,2.29,0,.81-.71,1.42-1.8,1.42Z"/>
    </g>
    <g>
      <path class="cls-2" d="M244.2,38.28c1.33,0,2.34.99,2.34,2.53s-1.02,2.57-2.34,2.57c-.9,0-1.54-.45-1.85-.99v.91h-.82v-6.66h.82v2.65c.32-.55.97-1,1.85-1ZM244.03,38.99c-.89,0-1.67.68-1.67,1.83s.78,1.84,1.67,1.84,1.67-.68,1.67-1.84-.76-1.82-1.67-1.82Z"/>
      <path class="cls-2" d="M249.76,43.38c-1.4,0-2.44-.99-2.44-2.56s1-2.54,2.44-2.54,2.37,1.01,2.37,2.36c0,.18,0,.32-.03.5h-3.94c.06,1,.77,1.55,1.6,1.55.74,0,1.21-.38,1.39-.91h.88c-.25.9-1.04,1.6-2.27,1.6ZM248.16,40.47h3.12c0-.96-.71-1.49-1.56-1.49-.8,0-1.47.53-1.56,1.49Z"/>
      <path class="cls-2" d="M253.2,36.64h.82v2.44c.32-.52.94-.8,1.63-.8,1.1,0,1.97.7,1.97,2.12v2.91h-.81v-2.79c0-1.01-.55-1.52-1.38-1.52s-1.41.52-1.41,1.58v2.73h-.82v-6.66Z"/>
      <path class="cls-2" d="M258.83,37.01c0-.32.24-.56.56-.56.3,0,.54.24.54.56s-.24.56-.54.56c-.31,0-.56-.24-.56-.56ZM258.96,38.36h.82v4.93h-.82v-4.93Z"/>
      <path class="cls-2" d="M264.79,40.51c0-1.01-.55-1.52-1.38-1.52s-1.41.52-1.41,1.58v2.73h-.82v-4.93h.82v.7c.32-.51.92-.79,1.58-.79,1.14,0,2.02.7,2.02,2.12v2.91h-.81v-2.79Z"/>
      <path class="cls-2" d="M268.98,38.28c.77,0,1.49.4,1.83.96v-2.61h.83v6.66h-.83v-.93c-.3.55-.94,1.01-1.84,1.01-1.32,0-2.34-1.04-2.34-2.57s1.02-2.53,2.35-2.53ZM269.13,38.99c-.9,0-1.67.66-1.67,1.82s.77,1.84,1.67,1.84,1.67-.67,1.67-1.84-.77-1.83-1.67-1.83Z"/>
    </g>
    <g>
      <path class="cls-2" d="M306.2,38.28c1.33,0,2.34.99,2.34,2.53s-1.02,2.57-2.34,2.57c-.9,0-1.54-.45-1.85-.99v.91h-.82v-6.66h.82v2.65c.32-.55.97-1,1.85-1ZM306.03,38.99c-.89,0-1.67.68-1.67,1.83s.78,1.84,1.67,1.84,1.67-.68,1.67-1.84-.76-1.82-1.67-1.82Z"/>
      <path class="cls-2" d="M311.76,43.38c-1.4,0-2.44-.99-2.44-2.56s1-2.54,2.44-2.54,2.37,1.01,2.37,2.36c0,.18,0,.32-.03.5h-3.94c.06,1,.77,1.55,1.6,1.55.74,0,1.21-.38,1.39-.91h.88c-.25.9-1.04,1.6-2.27,1.6ZM310.16,40.47h3.12c0-.96-.71-1.49-1.56-1.49-.8,0-1.47.53-1.56,1.49Z"/>
      <path class="cls-2" d="M318.81,40.51c0-1.01-.55-1.52-1.38-1.52s-1.41.52-1.41,1.58v2.73h-.82v-4.93h.82v.7c.32-.51.92-.79,1.58-.79,1.14,0,2.02.7,2.02,2.12v2.91h-.81v-2.79Z"/>
      <path class="cls-2" d="M323.1,43.38c-1.4,0-2.44-.99-2.44-2.56s1-2.54,2.44-2.54,2.37,1.01,2.37,2.36c0,.18,0,.32-.03.5h-3.94c.06,1,.77,1.55,1.6,1.55.74,0,1.21-.38,1.39-.91h.88c-.25.9-1.04,1.6-2.27,1.6ZM321.5,40.47h3.12c0-.96-.71-1.49-1.56-1.49-.8,0-1.47.53-1.56,1.49Z"/>
      <path class="cls-2" d="M328.58,38.28c.92,0,1.55.47,1.84.98v-.9h.83v4.93h-.83v-.92c-.3.53-.94,1-1.85,1-1.31,0-2.33-1.04-2.33-2.57s1.02-2.53,2.34-2.53ZM328.74,38.99c-.9,0-1.67.66-1.67,1.82s.77,1.84,1.67,1.84,1.67-.67,1.67-1.84-.77-1.83-1.67-1.83Z"/>
      <path class="cls-2" d="M332.81,39.04h-.64v-.68h.64v-1.24h.82v1.24h1.29v.68h-1.29v2.91c0,.49.18.66.68.66h.6v.69h-.74c-.87,0-1.37-.36-1.37-1.35v-2.91Z"/>
      <path class="cls-2" d="M335.9,36.64h.82v2.44c.32-.52.94-.8,1.63-.8,1.1,0,1.97.7,1.97,2.12v2.91h-.81v-2.79c0-1.01-.55-1.52-1.38-1.52s-1.41.52-1.41,1.58v2.73h-.82v-6.66Z"/>
    </g>
    <g class="cls-4">
      <g>
        <path class="cls-2" d="M6.72,53.85h-.64v-.68h.64v-1.24h.82v1.24h1.29v.68h-1.29v2.91c0,.49.18.66.68.66h.6v.69h-.74c-.87,0-1.37-.36-1.37-1.35v-2.91Z"/>
        <path class="cls-2" d="M11.97,58.19c-1.4,0-2.46-.99-2.46-2.56s1.1-2.54,2.49-2.54,2.49.98,2.49,2.54-1.12,2.56-2.53,2.56ZM11.97,57.47c.86,0,1.69-.58,1.69-1.84s-.82-1.83-1.67-1.83-1.65.59-1.65,1.83.77,1.84,1.62,1.84Z"/>
      </g>
      <g>
        <path class="cls-2" d="M56.69,58.19c-1.4,0-2.46-.99-2.46-2.56s1.1-2.54,2.49-2.54,2.49.98,2.49,2.54-1.13,2.56-2.53,2.56ZM56.69,57.47c.86,0,1.69-.58,1.69-1.84s-.82-1.83-1.67-1.83-1.65.59-1.65,1.83.77,1.84,1.62,1.84Z"/>
        <path class="cls-2" d="M60.59,53.17l1.54,4.18,1.53-4.18h.87l-1.94,4.93h-.95l-1.94-4.93h.88Z"/>
        <path class="cls-2" d="M67.48,58.19c-1.4,0-2.44-.99-2.44-2.56s1-2.54,2.44-2.54,2.37,1.01,2.37,2.36c0,.18,0,.32-.03.5h-3.94c.06,1,.77,1.55,1.6,1.55.74,0,1.21-.38,1.39-.91h.88c-.25.9-1.04,1.6-2.27,1.6ZM65.89,55.28h3.11c0-.96-.71-1.49-1.56-1.49-.8,0-1.47.53-1.56,1.49Z"/>
        <path class="cls-2" d="M71.75,58.11h-.82v-4.93h.82v.8c.28-.55.81-.89,1.59-.89v.85h-.22c-.78,0-1.38.35-1.38,1.49v2.68Z"/>
      </g>
      <g>
        <path class="cls-2" d="M115.14,55.32c0-1.01-.55-1.52-1.38-1.52s-1.41.52-1.41,1.58v2.73h-.82v-4.93h.82v.7c.32-.51.92-.79,1.58-.79,1.14,0,2.02.7,2.02,2.12v2.91h-.81v-2.79Z"/>
        <path class="cls-2" d="M119.43,58.19c-1.4,0-2.44-.99-2.44-2.56s1-2.54,2.44-2.54,2.37,1.01,2.37,2.36c0,.18,0,.32-.03.5h-3.94c.06,1,.77,1.55,1.6,1.55.74,0,1.21-.38,1.39-.91h.88c-.25.9-1.04,1.6-2.27,1.6ZM117.83,55.28h3.11c0-.96-.71-1.49-1.56-1.49-.8,0-1.47.53-1.56,1.49Z"/>
        <path class="cls-2" d="M124.91,53.09c.92,0,1.55.47,1.84.98v-.9h.83v4.93h-.83v-.92c-.3.53-.94,1-1.85,1-1.31,0-2.33-1.04-2.33-2.57s1.02-2.53,2.34-2.53ZM125.07,53.8c-.9,0-1.67.66-1.67,1.82s.77,1.84,1.67,1.84,1.67-.67,1.67-1.84-.77-1.83-1.67-1.83Z"/>
        <path class="cls-2" d="M129.78,58.11h-.82v-4.93h.82v.8c.28-.55.81-.89,1.59-.89v.85h-.22c-.78,0-1.38.35-1.38,1.49v2.68Z"/>
      </g>
      <g>
        <path class="cls-2" d="M175.57,53.09c.92,0,1.55.47,1.84.98v-.9h.83v4.93h-.83v-.92c-.3.53-.94,1-1.85,1-1.31,0-2.33-1.04-2.33-2.57s1.02-2.53,2.34-2.53ZM175.73,53.8c-.9,0-1.67.66-1.67,1.82s.77,1.84,1.67,1.84,1.67-.67,1.67-1.84-.77-1.83-1.67-1.83Z"/>
        <path class="cls-2" d="M186.74,55.32c0-1.01-.54-1.52-1.35-1.52s-1.4.53-1.4,1.59v2.72h-.81v-2.79c0-1.01-.54-1.52-1.35-1.52s-1.4.53-1.4,1.59v2.72h-.82v-4.93h.82v.71c.32-.52.91-.8,1.56-.8.81,0,1.49.36,1.81,1.1.29-.71.99-1.1,1.75-1.1,1.13,0,2,.7,2,2.12v2.91h-.81v-2.79Z"/>
        <path class="cls-2" d="M191.04,58.19c-1.4,0-2.46-.99-2.46-2.56s1.1-2.54,2.49-2.54,2.49.98,2.49,2.54-1.12,2.56-2.53,2.56ZM191.04,57.47c.86,0,1.69-.58,1.69-1.84s-.82-1.83-1.67-1.83-1.65.59-1.65,1.83.77,1.84,1.62,1.84Z"/>
        <path class="cls-2" d="M198.26,55.32c0-1.01-.55-1.52-1.38-1.52s-1.41.52-1.41,1.58v2.73h-.82v-4.93h.82v.7c.32-.51.92-.79,1.58-.79,1.14,0,2.02.7,2.02,2.12v2.91h-.81v-2.79Z"/>
        <path class="cls-2" d="M202.44,53.09c.9,0,1.55.45,1.84.98v-.9h.83v5.04c0,1.36-.91,2.32-2.36,2.32-1.3,0-2.22-.66-2.39-1.71h.81c.18.59.77,1,1.58,1,.87,0,1.53-.56,1.53-1.61v-1.04c-.3.53-.94,1.01-1.84,1.01-1.32,0-2.34-1.04-2.34-2.57s1.02-2.53,2.34-2.53ZM202.61,53.8c-.9,0-1.67.66-1.67,1.82s.77,1.84,1.67,1.84,1.67-.67,1.67-1.84-.77-1.83-1.67-1.83Z"/>
      </g>
      <g>
        <path class="cls-2" d="M243.69,58.19c-1.4,0-2.46-.99-2.46-2.56s1.1-2.54,2.49-2.54,2.49.98,2.49,2.54-1.13,2.56-2.53,2.56ZM243.69,57.47c.86,0,1.69-.58,1.69-1.84s-.82-1.83-1.67-1.83-1.65.59-1.65,1.83.77,1.84,1.62,1.84Z"/>
        <path class="cls-2" d="M251.67,58.11h-.82v-.73c-.31.51-.92.8-1.58.8-1.13,0-2.03-.7-2.03-2.12v-2.89h.81v2.78c0,1,.55,1.51,1.38,1.51s1.41-.52,1.41-1.58v-2.71h.82v4.93Z"/>
        <path class="cls-2" d="M253.24,53.85h-.64v-.68h.64v-1.24h.82v1.24h1.29v.68h-1.29v2.91c0,.49.18.66.68.66h.6v.69h-.74c-.87,0-1.37-.36-1.37-1.35v-2.91Z"/>
        <path class="cls-2" d="M258.08,58.19c-1.15,0-1.96-.63-2.02-1.53h.85c.04.48.47.84,1.16.84.65,0,1.01-.32,1.01-.73,0-1.1-2.92-.46-2.92-2.29,0-.76.71-1.38,1.81-1.38s1.81.58,1.86,1.55h-.82c-.04-.5-.41-.86-1.07-.86-.6,0-.96.29-.96.68,0,1.17,2.86.53,2.9,2.29,0,.81-.71,1.42-1.8,1.42Z"/>
        <path class="cls-2" d="M260.9,51.81c0-.32.24-.56.56-.56.3,0,.54.24.54.56s-.24.56-.54.56c-.32,0-.56-.24-.56-.56ZM261.03,53.17h.82v4.93h-.82v-4.93Z"/>
        <path class="cls-2" d="M265.29,53.09c.77,0,1.49.4,1.83.96v-2.61h.83v6.66h-.83v-.93c-.3.55-.94,1.01-1.84,1.01-1.32,0-2.34-1.04-2.34-2.57s1.02-2.53,2.35-2.53ZM265.44,53.8c-.9,0-1.67.66-1.67,1.82s.77,1.84,1.67,1.84,1.67-.67,1.67-1.84-.77-1.83-1.67-1.83Z"/>
        <path class="cls-2" d="M271.46,58.19c-1.4,0-2.44-.99-2.44-2.56s1-2.54,2.44-2.54,2.37,1.01,2.37,2.36c0,.18,0,.32-.03.5h-3.94c.06,1,.77,1.55,1.6,1.55.74,0,1.21-.38,1.39-.91h.88c-.25.9-1.04,1.6-2.27,1.6ZM269.87,55.28h3.11c0-.96-.71-1.49-1.56-1.49-.8,0-1.47.53-1.56,1.49Z"/>
      </g>
      <g>
        <path class="cls-2" d="M306.2,53.09c1.33,0,2.34.99,2.34,2.53s-1.02,2.57-2.34,2.57c-.9,0-1.54-.45-1.85-.99v.91h-.82v-6.66h.82v2.65c.32-.55.97-1,1.85-1ZM306.03,53.8c-.89,0-1.67.68-1.67,1.83s.78,1.84,1.67,1.84,1.67-.68,1.67-1.84-.76-1.82-1.67-1.82Z"/>
        <path class="cls-2" d="M311.76,58.19c-1.4,0-2.44-.99-2.44-2.56s1-2.54,2.44-2.54,2.37,1.01,2.37,2.36c0,.18,0,.32-.03.5h-3.94c.06,1,.77,1.55,1.6,1.55.74,0,1.21-.38,1.39-.91h.88c-.25.9-1.04,1.6-2.27,1.6ZM310.16,55.28h3.12c0-.96-.71-1.49-1.56-1.49-.8,0-1.47.53-1.56,1.49Z"/>
        <path class="cls-2" d="M315.38,53.85h-.64v-.68h.64v-1.24h.82v1.24h1.29v.68h-1.29v2.91c0,.49.18.66.68.66h.6v.69h-.74c-.87,0-1.37-.36-1.37-1.35v-2.91Z"/>
        <path class="cls-2" d="M317.89,53.17h.84l1.13,4.14,1.22-4.14h.84l1.2,4.15,1.12-4.15h.81l-1.54,4.93h-.85l-1.19-3.92-1.19,3.92h-.85l-1.55-4.93Z"/>
        <path class="cls-2" d="M327.99,58.19c-1.4,0-2.44-.99-2.44-2.56s1-2.54,2.44-2.54,2.37,1.01,2.37,2.36c0,.18,0,.32-.03.5h-3.94c.06,1,.77,1.55,1.6,1.55.74,0,1.21-.38,1.39-.91h.88c-.25.9-1.04,1.6-2.27,1.6ZM326.4,55.28h3.11c0-.96-.71-1.49-1.56-1.49-.8,0-1.47.53-1.56,1.49Z"/>
        <path class="cls-2" d="M333.57,58.19c-1.4,0-2.44-.99-2.44-2.56s1-2.54,2.44-2.54,2.37,1.01,2.37,2.36c0,.18,0,.32-.03.5h-3.94c.06,1,.77,1.55,1.6,1.55.74,0,1.21-.38,1.39-.91h.88c-.25.9-1.04,1.6-2.27,1.6ZM331.98,55.28h3.11c0-.96-.71-1.49-1.56-1.49-.8,0-1.47.53-1.56,1.49Z"/>
        <path class="cls-2" d="M340.63,55.32c0-1.01-.55-1.52-1.38-1.52s-1.41.52-1.41,1.58v2.73h-.82v-4.93h.82v.7c.32-.51.92-.79,1.58-.79,1.14,0,2.02.7,2.02,2.12v2.91h-.81v-2.79Z"/>
      </g>
    </g>
  </g>
</svg>