<?xml version="1.0" encoding="UTF-8"?>
<svg id="Layer_2" data-name="Layer 2" xmlns="http://www.w3.org/2000/svg" viewBox="0 0 538.37 65.95">
  <defs>
    <style>
      .cls-1 {
        fill: #72adbb;
      }

      .cls-2 {
        fill: #accad4;
      }

      .cls-3 {
        fill: #231f20;
      }

      .cls-4 {
        fill: #fff;
      }

      .cls-5 {
        stroke-dasharray: 3.63 3.63;
      }

      .cls-5, .cls-6, .cls-7, .cls-8 {
        fill: none;
        stroke: #2a5caa;
        stroke-miterlimit: 10;
        stroke-width: .75px;
      }

      .cls-6 {
        stroke-dasharray: 3.7 3.7;
      }

      .cls-7 {
        stroke-dasharray: 4.43 4.43;
      }

      .cls-9 {
        fill: #2096a6;
      }
    </style>
  </defs>
  <g id="Layer_1-2" data-name="Layer 1">
    <g>
      <path class="cls-9" d="M538.37,61.12c0,2.67-1.88,4.83-4.2,4.83H6.42c-2.32,0-4.2-2.16-4.2-4.83V5.11C2.22,2.45,4.1.28,6.42.28h527.76c2.32,0,4.2,2.16,4.2,4.83v56.01Z"/>
      <path class="cls-4" d="M535.49,58.98c0,2.39-1.91,4.33-4.27,4.33H4.43c-2.36,0-4.27-1.94-4.27-4.33V10.8c0-2.39,1.91-4.33,4.27-4.33h526.79c2.36,0,4.27,1.94,4.27,4.33v48.17Z"/>
      <path class="cls-2" d="M535.5,43.11c0,.61-1.88,1.1-4.19,1.1H4.19c-2.32,0-4.19-.49-4.19-1.1v-20.01c0-.6,1.88-1.1,4.19-1.1h527.12c2.32,0,4.19.49,4.19,1.1v20.01Z"/>
      <path class="cls-1" d="M535.5,21.5c0,.62-1.88,1.12-4.19,1.12H4.23c-2.32,0-4.19-.5-4.19-1.12V1.11C.04.5,1.92,0,4.23,0h527.08c2.32,0,4.19.5,4.19,1.11v20.38Z"/>
    </g>
    <g>
      <path class="cls-4" d="M208.06,11.52h-1.27l-.64,3.02h-2.05l1.79-8.42h3.32c2.06,0,2.85,1.16,2.52,2.71-.3,1.39-1.52,2.69-3.67,2.69ZM208.25,9.89c.82,0,1.25-.41,1.39-1.06.14-.65-.12-1.06-.94-1.06h-1.12l-.45,2.11h1.12Z"/>
      <path class="cls-4" d="M213.53,14.55h-2.05l1.42-6.7h2.05l-.24,1.12c.62-.71,1.45-1.19,2.35-1.19l-.46,2.17h-.56c-.97,0-1.61.34-1.85,1.49l-.66,3.11Z"/>
      <path class="cls-4" d="M219.45,14.65c-1.97,0-3.1-1.32-2.65-3.44.45-2.12,2.12-3.44,4.11-3.44s3.06,1.29,2.62,3.33c-.04.19-.1.4-.16.6h-4.64c-.11.88.34,1.28,1,1.28.58,0,.96-.29,1.21-.65h2.18c-.6,1.31-2,2.32-3.67,2.32ZM218.99,10.55h2.57c.16-.73-.33-1.15-1.01-1.15s-1.27.41-1.55,1.15Z"/>
      <path class="cls-4" d="M229.34,7.76c1.64,0,2.67,1.32,2.22,3.43-.45,2.11-2.04,3.46-3.68,3.46-.98,0-1.59-.47-1.84-1.03l-.88,4.13h-2.05l2.1-9.89h2.05l-.2.95c.5-.59,1.3-1.04,2.28-1.04ZM228.34,9.54c-.77,0-1.59.59-1.82,1.66-.23,1.07.34,1.66,1.11,1.66s1.6-.6,1.83-1.67-.35-1.64-1.12-1.64Z"/>
      <path class="cls-4" d="M234.84,14.65c-1.97,0-3.17-1.32-2.72-3.44.45-2.12,2.26-3.44,4.21-3.44s3.2,1.32,2.75,3.44c-.45,2.12-2.27,3.44-4.23,3.44ZM235.22,12.87c.73,0,1.53-.54,1.77-1.67.24-1.14-.32-1.67-1.04-1.67s-1.5.53-1.75,1.67c-.24,1.13.27,1.67,1.01,1.67Z"/>
      <path class="cls-4" d="M242.06,14.65c-1.79,0-2.77-1-2.59-2.29h2.03c-.05.47.3.78.87.78.53,0,.85-.24.92-.54.23-1.08-3.58-.3-3.06-2.76.24-1.14,1.41-2.08,3.16-2.08s2.48.96,2.33,2.28h-1.89c.04-.46-.25-.76-.82-.76-.48,0-.78.19-.85.52-.23,1.07,3.56.31,3.06,2.81-.25,1.16-1.46,2.04-3.14,2.04Z"/>
      <path class="cls-4" d="M247.35,7.85h2.05l-1.42,6.7h-2.05l1.42-6.7ZM247.54,6.05c.13-.62.73-1.12,1.46-1.12s1.11.49.97,1.12c-.13.61-.73,1.1-1.45,1.1s-1.12-.49-.99-1.1Z"/>
      <path class="cls-4" d="M250.73,9.56h-.82l.36-1.7h.82l.35-1.63h2.05l-.35,1.63h1.34l-.36,1.7h-1.34l-.57,2.69c-.08.4.05.56.5.56h.73l-.37,1.74h-1.04c-1.39,0-2.24-.59-1.87-2.33l.57-2.66Z"/>
      <path class="cls-4" d="M255.54,7.85h2.05l-1.42,6.7h-2.05l1.42-6.7ZM255.73,6.05c.13-.62.73-1.12,1.46-1.12s1.11.49.97,1.12c-.13.61-.73,1.1-1.45,1.1s-1.12-.49-.99-1.1Z"/>
      <path class="cls-4" d="M260.57,14.65c-1.97,0-3.17-1.32-2.72-3.44.45-2.12,2.26-3.44,4.21-3.44s3.2,1.32,2.75,3.44c-.45,2.12-2.27,3.44-4.23,3.44ZM260.95,12.87c.73,0,1.53-.54,1.77-1.67.24-1.14-.32-1.67-1.04-1.67s-1.5.53-1.75,1.67c-.24,1.13.27,1.67,1.01,1.67Z"/>
      <path class="cls-4" d="M270.47,10.91c.19-.91-.2-1.42-.98-1.42s-1.39.5-1.58,1.42l-.77,3.64h-2.05l1.42-6.7h2.05l-.19.89c.53-.56,1.33-.96,2.23-.96,1.55,0,2.35,1.06,1.97,2.86l-.83,3.91h-2.04l.77-3.64Z"/>
      <path class="cls-4" d="M277.04,7.76c1,0,1.61.46,1.84,1.04l.2-.95h2.05l-1.42,6.7h-2.05l.2-.95c-.5.59-1.3,1.04-2.3,1.04-1.63,0-2.65-1.34-2.2-3.46.45-2.11,2.04-3.43,3.68-3.43ZM277.26,9.54c-.77,0-1.59.58-1.81,1.64s.34,1.67,1.11,1.67,1.59-.59,1.81-1.66c.23-1.07-.33-1.66-1.11-1.66Z"/>
      <path class="cls-4" d="M282.98,5.67h2.05l-1.89,8.88h-2.05l1.89-8.88Z"/>
      <path class="cls-4" d="M290.92,11.52h-1.27l-.64,3.02h-2.05l1.79-8.42h3.32c2.06,0,2.85,1.16,2.52,2.71-.3,1.39-1.52,2.69-3.67,2.69ZM291.11,9.89c.82,0,1.25-.41,1.39-1.06.14-.65-.12-1.06-.94-1.06h-1.12l-.45,2.11h1.12Z"/>
      <path class="cls-4" d="M296.22,5.67h2.05l-.66,3.08c.53-.58,1.35-.97,2.27-.97,1.52,0,2.32,1.06,1.94,2.86l-.83,3.91h-2.04l.77-3.64c.19-.91-.2-1.42-.98-1.42s-1.39.5-1.58,1.42l-.77,3.64h-2.05l1.89-8.88Z"/>
      <path class="cls-4" d="M304.36,14.55h-2.05l1.42-6.7h2.05l-.24,1.12c.62-.71,1.45-1.19,2.35-1.19l-.46,2.17h-.56c-.97,0-1.61.34-1.85,1.49l-.66,3.11Z"/>
      <path class="cls-4" d="M311.32,7.76c1,0,1.61.46,1.84,1.04l.2-.95h2.05l-1.42,6.7h-2.05l.2-.95c-.5.59-1.3,1.04-2.3,1.04-1.63,0-2.65-1.34-2.2-3.46.45-2.11,2.04-3.43,3.68-3.43ZM311.54,9.54c-.77,0-1.59.58-1.81,1.64-.23,1.07.34,1.67,1.11,1.67s1.59-.59,1.81-1.66c.23-1.07-.33-1.66-1.11-1.66Z"/>
      <path class="cls-4" d="M318.08,14.65c-1.79,0-2.78-1-2.59-2.29h2.03c-.05.47.3.78.87.78.53,0,.85-.24.92-.54.23-1.08-3.58-.3-3.06-2.76.24-1.14,1.41-2.08,3.16-2.08s2.48.96,2.33,2.28h-1.89c.04-.46-.25-.76-.82-.76-.48,0-.79.19-.85.52-.23,1.07,3.56.31,3.06,2.81-.25,1.16-1.46,2.04-3.14,2.04Z"/>
      <path class="cls-4" d="M324.9,14.65c-1.97,0-3.1-1.32-2.65-3.44.45-2.12,2.12-3.44,4.11-3.44s3.06,1.29,2.62,3.33c-.04.19-.1.4-.16.6h-4.64c-.11.88.34,1.28,1,1.28.58,0,.96-.29,1.21-.65h2.18c-.6,1.31-2,2.32-3.67,2.32ZM324.44,10.55h2.57c.16-.73-.33-1.15-1.01-1.15s-1.27.41-1.55,1.15Z"/>
      <path class="cls-4" d="M331.94,14.65c-1.79,0-2.78-1-2.59-2.29h2.03c-.05.47.3.78.87.78.53,0,.85-.24.92-.54.23-1.08-3.58-.3-3.06-2.76.24-1.14,1.41-2.08,3.16-2.08s2.48.96,2.33,2.28h-1.89c.04-.46-.25-.76-.82-.76-.48,0-.78.19-.85.52-.23,1.07,3.56.31,3.06,2.81-.25,1.16-1.46,2.04-3.14,2.04Z"/>
    </g>
    <g>
      <path class="cls-3" d="M23.61,30.55v6.98h-.91l-3.66-5.55v5.55h-.91v-6.98h.91l3.66,5.54v-5.54h.91Z"/>
      <path class="cls-3" d="M27.55,37.61c-1.55,0-2.73-1.1-2.73-2.84s1.22-2.82,2.77-2.82,2.77,1.09,2.77,2.82-1.25,2.84-2.81,2.84ZM27.55,36.81c.95,0,1.88-.65,1.88-2.04s-.91-2.03-1.85-2.03-1.83.65-1.83,2.03.85,2.04,1.8,2.04Z"/>
      <path class="cls-3" d="M36.42,37.52h-.91v-.81c-.35.57-1.02.89-1.75.89-1.26,0-2.25-.78-2.25-2.35v-3.21h.9v3.09c0,1.11.61,1.68,1.53,1.68s1.57-.58,1.57-1.76v-3.01h.91v5.48Z"/>
      <path class="cls-3" d="M41.97,34.42c0-1.12-.61-1.69-1.53-1.69s-1.57.58-1.57,1.76v3.03h-.91v-5.48h.91v.78c.36-.57,1.02-.88,1.76-.88,1.27,0,2.24.78,2.24,2.35v3.23h-.9v-3.1Z"/>
    </g>
    <g>
      <path class="cls-3" d="M286.06,26.39h.96l-2.63,6.97h-1.05l-2.63-6.97h.97l2.19,6.01,2.19-6.01Z"/>
      <path class="cls-3" d="M290.39,33.44c-1.56,0-2.71-1.1-2.71-2.84s1.11-2.82,2.71-2.82,2.63,1.12,2.63,2.62c0,.2,0,.36-.03.55h-4.38c.07,1.11.85,1.72,1.78,1.72.82,0,1.34-.42,1.54-1.01h.98c-.28,1-1.16,1.78-2.52,1.78ZM288.62,30.21h3.46c.01-1.07-.79-1.66-1.73-1.66-.89,0-1.63.59-1.73,1.66Z"/>
      <path class="cls-3" d="M295.13,33.35h-.91v-5.48h.91v.89c.31-.61.9-.99,1.77-.99v.94h-.24c-.87,0-1.53.39-1.53,1.66v2.98Z"/>
      <path class="cls-3" d="M300.91,27.79c1.48,0,2.6,1.1,2.6,2.81s-1.13,2.85-2.6,2.85c-1,0-1.71-.5-2.05-1.1v1.01h-.91v-7.4h.91v2.94c.35-.61,1.08-1.11,2.05-1.11ZM300.72,28.58c-.99,0-1.86.76-1.86,2.03s.87,2.04,1.86,2.04,1.86-.76,1.86-2.05-.85-2.02-1.86-2.02Z"/>
    </g>
    <g>
      <path class="cls-3" d="M277.37,36.38l-.59,2.27h-1.01l.96-2.27h.64ZM279,36.38l-.59,2.27h-1.01l.96-2.27h.64Z"/>
      <path class="cls-3" d="M280.33,38.62h-.71v-.75h.71v-1.38h.91v1.38h1.43v.75h-1.43v3.23c0,.54.2.73.76.73h.67v.77h-.82c-.97,0-1.52-.4-1.52-1.5v-3.23Z"/>
      <path class="cls-3" d="M286.16,43.44c-1.55,0-2.73-1.1-2.73-2.84s1.22-2.82,2.77-2.82,2.77,1.09,2.77,2.82-1.25,2.84-2.81,2.84ZM286.16,42.64c.95,0,1.88-.65,1.88-2.04s-.91-2.03-1.85-2.03-1.83.65-1.83,2.03.85,2.04,1.8,2.04Z"/>
      <path class="cls-3" d="M295.8,37.79c1.48,0,2.6,1.1,2.6,2.81s-1.13,2.85-2.6,2.85c-1,0-1.71-.5-2.05-1.1v1.01h-.91v-7.4h.91v2.94c.35-.61,1.08-1.11,2.05-1.11ZM295.61,38.58c-.99,0-1.86.76-1.86,2.03s.87,2.04,1.86,2.04,1.86-.76,1.86-2.05-.85-2.02-1.86-2.02Z"/>
      <path class="cls-3" d="M301.97,43.44c-1.56,0-2.71-1.1-2.71-2.84s1.11-2.82,2.71-2.82,2.63,1.12,2.63,2.62c0,.2,0,.36-.03.55h-4.38c.07,1.11.85,1.72,1.78,1.72.82,0,1.34-.42,1.54-1.01h.98c-.28,1-1.16,1.78-2.52,1.78ZM300.2,40.21h3.46c.01-1.07-.79-1.66-1.73-1.66-.89,0-1.63.59-1.73,1.66Z"/>
      <path class="cls-3" d="M305.44,38.66l.59-2.27h1.01l-.96,2.27h-.64ZM307.07,38.66l.59-2.27h1.01l-.96,2.27h-.64Z"/>
    </g>
    <g>
      <path class="cls-3" d="M67.44,27.88l1.71,4.64,1.7-4.64h.97l-2.15,5.48h-1.06l-2.15-5.48h.98Z"/>
      <path class="cls-3" d="M75.09,33.44c-1.56,0-2.71-1.1-2.71-2.84s1.11-2.82,2.71-2.82,2.63,1.12,2.63,2.62c0,.2,0,.36-.03.55h-4.38c.07,1.11.85,1.72,1.78,1.72.82,0,1.34-.42,1.54-1.01h.98c-.28,1-1.16,1.78-2.52,1.78ZM73.32,30.21h3.46c.01-1.07-.79-1.66-1.73-1.66-.89,0-1.63.59-1.73,1.66Z"/>
      <path class="cls-3" d="M79.83,33.35h-.91v-5.48h.91v.89c.31-.61.9-.99,1.77-.99v.94h-.24c-.87,0-1.53.39-1.53,1.66v2.98Z"/>
      <path class="cls-3" d="M85.61,27.79c1.48,0,2.6,1.1,2.6,2.81s-1.13,2.85-2.6,2.85c-1,0-1.71-.5-2.05-1.1v1.01h-.91v-7.4h.91v2.94c.35-.61,1.08-1.11,2.05-1.11ZM85.42,28.58c-.99,0-1.86.76-1.86,2.03s.87,2.04,1.86,2.04,1.86-.76,1.86-2.05-.85-2.02-1.86-2.02Z"/>
    </g>
    <g>
      <path class="cls-3" d="M62.64,36.38l-.59,2.27h-1.01l.96-2.27h.64ZM64.27,36.38l-.59,2.27h-1.01l.96-2.27h.64Z"/>
      <path class="cls-3" d="M65.6,38.62h-.71v-.75h.71v-1.38h.91v1.38h1.43v.75h-1.43v3.23c0,.54.2.73.76.73h.67v.77h-.82c-.97,0-1.52-.4-1.52-1.5v-3.23Z"/>
      <path class="cls-3" d="M71.43,43.44c-1.55,0-2.73-1.1-2.73-2.84s1.22-2.82,2.77-2.82,2.77,1.09,2.77,2.82-1.25,2.84-2.81,2.84ZM71.43,42.64c.95,0,1.88-.65,1.88-2.04s-.91-2.03-1.85-2.03-1.83.65-1.83,2.03.85,2.04,1.8,2.04Z"/>
      <path class="cls-3" d="M81.07,37.79c1.48,0,2.6,1.1,2.6,2.81s-1.13,2.85-2.6,2.85c-1,0-1.71-.5-2.05-1.1v1.01h-.91v-7.4h.91v2.94c.35-.61,1.08-1.11,2.05-1.11ZM80.88,38.58c-.99,0-1.86.76-1.86,2.03s.87,2.04,1.86,2.04,1.86-.76,1.86-2.05-.85-2.02-1.86-2.02Z"/>
      <path class="cls-3" d="M87.24,43.44c-1.56,0-2.71-1.1-2.71-2.84s1.11-2.82,2.71-2.82,2.63,1.12,2.63,2.62c0,.2,0,.36-.03.55h-4.38c.07,1.11.85,1.72,1.78,1.72.82,0,1.34-.42,1.54-1.01h.98c-.28,1-1.16,1.78-2.52,1.78ZM85.47,40.21h3.46c.01-1.07-.79-1.66-1.73-1.66-.89,0-1.63.59-1.73,1.66Z"/>
      <path class="cls-3" d="M90.71,38.66l.59-2.27h1.01l-.96,2.27h-.64ZM92.34,38.66l.59-2.27h1.01l-.96,2.27h-.64Z"/>
    </g>
    <g>
      <path class="cls-3" d="M189.15,33.32h-.71v-.75h.71v-1.38h.91v1.38h1.43v.75h-1.43v3.23c0,.54.2.73.76.73h.67v.77h-.82c-.97,0-1.52-.4-1.52-1.5v-3.23Z"/>
      <path class="cls-3" d="M192.59,30.65h.91v2.71c.36-.58,1.04-.89,1.81-.89,1.22,0,2.19.78,2.19,2.35v3.23h-.9v-3.1c0-1.12-.61-1.69-1.53-1.69s-1.57.58-1.57,1.76v3.03h-.91v-7.4Z"/>
      <path class="cls-3" d="M201.36,38.13c-1.56,0-2.71-1.1-2.71-2.84s1.11-2.82,2.71-2.82,2.63,1.12,2.63,2.62c0,.2,0,.36-.03.55h-4.38c.07,1.11.85,1.72,1.78,1.72.82,0,1.34-.42,1.54-1.01h.98c-.28,1-1.16,1.78-2.52,1.78ZM199.59,34.9h3.46c.01-1.07-.79-1.66-1.73-1.66-.89,0-1.63.59-1.73,1.66Z"/>
    </g>
    <g>
      <path class="cls-3" d="M448.45,33.32h-.71v-.75h.71v-1.38h.91v1.38h1.43v.75h-1.43v3.23c0,.54.2.73.76.73h.67v.77h-.82c-.97,0-1.52-.4-1.52-1.5v-3.23Z"/>
      <path class="cls-3" d="M451.89,30.65h.91v2.71c.36-.58,1.04-.89,1.81-.89,1.22,0,2.19.78,2.19,2.35v3.23h-.9v-3.1c0-1.12-.61-1.69-1.53-1.69s-1.57.58-1.57,1.76v3.03h-.91v-7.4Z"/>
      <path class="cls-3" d="M460.66,38.13c-1.56,0-2.71-1.1-2.71-2.84s1.11-2.82,2.71-2.82,2.63,1.12,2.63,2.62c0,.2,0,.36-.03.55h-4.38c.07,1.11.85,1.72,1.78,1.72.82,0,1.34-.42,1.54-1.01h.98c-.28,1-1.16,1.78-2.52,1.78ZM458.89,34.9h3.46c.01-1.07-.79-1.66-1.73-1.66-.89,0-1.63.59-1.73,1.66Z"/>
    </g>
    <g>
      <path class="cls-3" d="M234.04,33.89c0-1.12-.61-1.69-1.53-1.69s-1.57.58-1.57,1.76v3.03h-.91v-5.48h.91v.78c.36-.57,1.02-.88,1.76-.88,1.27,0,2.24.78,2.24,2.35v3.23h-.9v-3.1Z"/>
      <path class="cls-3" d="M238.82,37.08c-1.55,0-2.73-1.1-2.73-2.84s1.22-2.82,2.77-2.82,2.77,1.09,2.77,2.82-1.25,2.84-2.81,2.84ZM238.82,36.28c.95,0,1.88-.65,1.88-2.04s-.91-2.03-1.85-2.03-1.83.65-1.83,2.03.85,2.04,1.8,2.04Z"/>
      <path class="cls-3" d="M247.69,36.99h-.91v-.81c-.35.57-1.02.89-1.75.89-1.26,0-2.25-.78-2.25-2.35v-3.21h.9v3.09c0,1.11.61,1.68,1.53,1.68s1.57-.58,1.57-1.76v-3.01h.91v5.48Z"/>
      <path class="cls-3" d="M253.24,33.89c0-1.12-.61-1.69-1.53-1.69s-1.57.58-1.57,1.76v3.03h-.91v-5.48h.91v.78c.36-.57,1.02-.88,1.76-.88,1.27,0,2.24.78,2.24,2.35v3.23h-.9v-3.1Z"/>
      <path class="cls-3" d="M255.92,37.05c-.35,0-.62-.27-.62-.62s.27-.62.62-.62c.33,0,.6.27.6.62s-.27.62-.6.62Z"/>
    </g>
    <g>
      <path class="cls-3" d="M495.85,33.89c0-1.12-.61-1.69-1.53-1.69s-1.57.58-1.57,1.76v3.03h-.91v-5.48h.91v.78c.36-.57,1.02-.88,1.76-.88,1.27,0,2.24.78,2.24,2.35v3.23h-.9v-3.1Z"/>
      <path class="cls-3" d="M500.63,37.08c-1.55,0-2.73-1.1-2.73-2.84s1.22-2.82,2.77-2.82,2.77,1.09,2.77,2.82-1.25,2.84-2.81,2.84ZM500.63,36.28c.95,0,1.88-.65,1.88-2.04s-.91-2.03-1.85-2.03-1.83.65-1.83,2.03.85,2.04,1.8,2.04Z"/>
      <path class="cls-3" d="M509.5,36.99h-.91v-.81c-.35.57-1.02.89-1.75.89-1.26,0-2.25-.78-2.25-2.35v-3.21h.9v3.09c0,1.11.61,1.68,1.53,1.68s1.57-.58,1.57-1.76v-3.01h.91v5.48Z"/>
      <path class="cls-3" d="M515.05,33.89c0-1.12-.61-1.69-1.53-1.69s-1.57.58-1.57,1.76v3.03h-.91v-5.48h.91v.78c.36-.57,1.02-.88,1.76-.88,1.27,0,2.24.78,2.24,2.35v3.23h-.9v-3.1Z"/>
      <path class="cls-3" d="M519.22,29.94c1.31,0,2.21.79,2.21,2.06,0,1.46-1.01,2.06-2.41,2.06l-.03.95h-.79l-.04-1.58h.29c1.14,0,2.11-.22,2.11-1.43,0-.8-.52-1.3-1.33-1.3s-1.33.47-1.33,1.25h-.86c0-1.21.87-2.01,2.18-2.01ZM518.59,37.05c-.35,0-.62-.27-.62-.62s.27-.62.62-.62c.33,0,.6.27.6.62s-.27.62-.6.62Z"/>
    </g>
    <g>
      <path class="cls-3" d="M328.4,33.89c0-1.12-.61-1.69-1.53-1.69s-1.57.58-1.57,1.76v3.03h-.91v-5.48h.91v.78c.36-.57,1.02-.88,1.76-.88,1.27,0,2.24.78,2.24,2.35v3.23h-.9v-3.1Z"/>
      <path class="cls-3" d="M333.18,37.08c-1.55,0-2.73-1.1-2.73-2.84s1.22-2.82,2.77-2.82,2.77,1.09,2.77,2.82-1.25,2.84-2.81,2.84ZM333.18,36.28c.95,0,1.88-.65,1.88-2.04s-.91-2.03-1.85-2.03-1.83.65-1.83,2.03.85,2.04,1.8,2.04Z"/>
      <path class="cls-3" d="M342.05,36.99h-.91v-.81c-.35.57-1.02.89-1.75.89-1.26,0-2.25-.78-2.25-2.35v-3.21h.9v3.09c0,1.11.61,1.68,1.53,1.68s1.57-.58,1.57-1.76v-3.01h.91v5.48Z"/>
      <path class="cls-3" d="M347.6,33.89c0-1.12-.61-1.69-1.53-1.69s-1.57.58-1.57,1.76v3.03h-.91v-5.48h.91v.78c.36-.57,1.02-.88,1.76-.88,1.27,0,2.24.78,2.24,2.35v3.23h-.9v-3.1Z"/>
    </g>
    <line class="cls-7" x1="56.41" y1="23.33" x2="56.41" y2="63.16"/>
    <line class="cls-5" x1="98.36" y1="23.33" x2="98.36" y2="63.31"/>
    <line class="cls-5" x1="174.36" y1="23.33" x2="174.36" y2="63.31"/>
    <line class="cls-5" x1="219.36" y1="23.33" x2="219.36" y2="63.31"/>
    <line class="cls-6" x1="315.36" y1="22.61" x2="315.36" y2="63.31"/>
    <line class="cls-6" x1="358.36" y1="22.61" x2="358.36" y2="63.31"/>
    <line class="cls-6" x1="435.36" y1="22.61" x2="435.36" y2="63.31"/>
    <line class="cls-6" x1="475.86" y1="22.61" x2="475.86" y2="63.31"/>
    <line class="cls-8" x1="269.19" y1="22.54" x2="269.19" y2="63.31"/>
    <g>
      <path class="cls-3" d="M74.15,52.22h.91l-1.16,5.48h-.91l1.16-5.48ZM74.32,50.71c.07-.35.4-.62.75-.62.33,0,.54.27.47.62-.07.35-.4.62-.73.62-.35,0-.56-.27-.49-.62Z"/>
      <path class="cls-3" d="M77.36,57.79c-1.28,0-2.03-.7-1.88-1.7h.94c-.06.53.32.93,1.09.93.72,0,1.2-.36,1.29-.81.26-1.22-3.13-.51-2.7-2.55.18-.84,1.11-1.53,2.33-1.53s1.87.65,1.7,1.72h-.91c.08-.55-.26-.95-.99-.95-.67,0-1.14.32-1.23.76-.28,1.3,3.05.59,2.68,2.55-.19.9-1.12,1.58-2.33,1.58Z"/>
    </g>
    <g>
      <path class="cls-3" d="M290.2,51.17l-1.28,6.02h.44l-.1.47h-1.79l.1-.47h.44l1.28-6.02h-.44l.1-.48h1.79l-.1.48h-.44Z"/>
      <path class="cls-3" d="M292.23,57.79c-1.28,0-2.03-.7-1.88-1.7h.94c-.06.53.32.93,1.09.93.72,0,1.2-.36,1.29-.81.26-1.22-3.13-.51-2.7-2.55.18-.84,1.12-1.53,2.33-1.53s1.87.65,1.7,1.72h-.91c.08-.55-.26-.95-.99-.95-.67,0-1.14.32-1.23.76-.28,1.3,3.05.59,2.68,2.55-.19.9-1.12,1.58-2.33,1.58Z"/>
    </g>
    <g>
      <path class="cls-3" d="M127.12,57.71h-.91l.17-.81c-.47.57-1.21.89-1.94.89-1.26,0-2.08-.78-1.75-2.35l.68-3.21h.9l-.66,3.09c-.24,1.11.25,1.68,1.17,1.68s1.69-.58,1.94-1.76l.64-3.01h.91l-1.16,5.48Z"/>
      <path class="cls-3" d="M133.33,54.61c.24-1.12-.25-1.69-1.17-1.69s-1.69.58-1.94,1.76l-.64,3.03h-.91l1.16-5.48h.91l-.17.78c.48-.57,1.21-.88,1.95-.88,1.27,0,2.07.78,1.74,2.35l-.69,3.23h-.9l.66-3.1Z"/>
      <path class="cls-3" d="M138.51,52.13c.86,0,1.56.44,1.8,1.07l.62-2.9h.92l-1.57,7.4h-.92l.22-1.03c-.46.61-1.28,1.12-2.28,1.12-1.47,0-2.35-1.15-1.99-2.85.36-1.71,1.73-2.81,3.21-2.81ZM138.52,52.92c-1,0-2,.73-2.28,2.02-.27,1.29.41,2.05,1.41,2.05s2.02-.75,2.29-2.04c.27-1.27-.43-2.03-1.43-2.03Z"/>
      <path class="cls-3" d="M144.17,57.79c-1.56,0-2.48-1.1-2.11-2.84.37-1.73,1.71-2.82,3.31-2.82s2.39,1.12,2.07,2.62c-.04.2-.09.36-.15.55h-4.38c-.17,1.11.48,1.72,1.41,1.72.82,0,1.43-.42,1.75-1.01h.98c-.49,1-1.54,1.78-2.9,1.78ZM143.09,54.56h3.46c.24-1.07-.44-1.66-1.38-1.66-.89,0-1.76.59-2.08,1.66Z"/>
      <path class="cls-3" d="M148.93,57.71h-.91l1.16-5.48h.91l-.19.89c.44-.61,1.11-.99,1.98-.99l-.2.94h-.24c-.87,0-1.61.39-1.88,1.66l-.63,2.98Z"/>
    </g>
    <g>
      <path class="cls-3" d="M385.23,57.71h-.91l.17-.81c-.47.57-1.21.89-1.94.89-1.26,0-2.08-.78-1.75-2.35l.68-3.21h.9l-.66,3.09c-.24,1.11.25,1.68,1.17,1.68s1.69-.58,1.94-1.76l.64-3.01h.91l-1.17,5.48Z"/>
      <path class="cls-3" d="M391.44,54.61c.24-1.12-.25-1.69-1.17-1.69s-1.69.58-1.94,1.76l-.64,3.03h-.91l1.17-5.48h.91l-.17.78c.48-.57,1.21-.88,1.95-.88,1.27,0,2.07.78,1.74,2.35l-.69,3.23h-.9l.66-3.1Z"/>
      <path class="cls-3" d="M396.62,52.13c.86,0,1.56.44,1.8,1.07l.62-2.9h.92l-1.57,7.4h-.92l.22-1.03c-.46.61-1.28,1.12-2.28,1.12-1.47,0-2.35-1.15-1.99-2.85.36-1.71,1.73-2.81,3.21-2.81ZM396.63,52.92c-1,0-2,.73-2.28,2.02-.27,1.29.41,2.05,1.41,2.05s2.02-.75,2.29-2.04c.27-1.27-.43-2.03-1.43-2.03Z"/>
      <path class="cls-3" d="M402.28,57.79c-1.56,0-2.48-1.1-2.11-2.84.37-1.73,1.71-2.82,3.31-2.82s2.39,1.12,2.07,2.62c-.04.2-.09.36-.15.55h-4.38c-.17,1.11.48,1.72,1.41,1.72.82,0,1.43-.42,1.75-1.01h.98c-.49,1-1.54,1.78-2.9,1.78ZM401.2,54.56h3.46c.24-1.07-.44-1.66-1.38-1.66-.89,0-1.76.59-2.08,1.66Z"/>
      <path class="cls-3" d="M407.04,57.71h-.91l1.17-5.48h.91l-.19.89c.44-.61,1.11-.99,1.98-.99l-.2.94h-.24c-.87,0-1.61.39-1.88,1.66l-.63,2.98Z"/>
    </g>
    <g>
      <path class="cls-3" d="M190.47,52.97h-.71l.16-.75h.71l.29-1.38h.91l-.29,1.38h1.43l-.16.75h-1.43l-.69,3.23c-.11.54.04.73.6.73h.67l-.16.77h-.82c-.97,0-1.43-.4-1.2-1.5l.69-3.23Z"/>
      <path class="cls-3" d="M194.47,50.3h.91l-.58,2.71c.48-.58,1.23-.89,2-.89,1.22,0,2.02.78,1.69,2.35l-.69,3.23h-.9l.66-3.1c.24-1.12-.25-1.69-1.17-1.69s-1.69.58-1.94,1.76l-.64,3.03h-.91l1.57-7.4Z"/>
      <path class="cls-3" d="M201.65,57.79c-1.56,0-2.48-1.1-2.11-2.84.37-1.73,1.71-2.82,3.31-2.82s2.39,1.12,2.07,2.62c-.04.2-.09.36-.15.55h-4.38c-.17,1.11.48,1.72,1.41,1.72.82,0,1.43-.42,1.75-1.01h.98c-.49,1-1.54,1.78-2.9,1.78ZM200.57,54.56h3.46c.24-1.07-.44-1.66-1.38-1.66-.89,0-1.76.59-2.08,1.66Z"/>
    </g>
    <g>
      <path class="cls-3" d="M449.77,52.97h-.71l.16-.75h.71l.29-1.38h.91l-.29,1.38h1.43l-.16.75h-1.43l-.69,3.23c-.12.54.04.73.6.73h.67l-.16.77h-.82c-.97,0-1.43-.4-1.2-1.5l.69-3.23Z"/>
      <path class="cls-3" d="M453.78,50.3h.91l-.58,2.71c.48-.58,1.23-.89,2-.89,1.22,0,2.02.78,1.69,2.35l-.69,3.23h-.9l.66-3.1c.24-1.12-.25-1.69-1.17-1.69s-1.69.58-1.94,1.76l-.64,3.03h-.91l1.57-7.4Z"/>
      <path class="cls-3" d="M460.95,57.79c-1.56,0-2.48-1.1-2.11-2.84.37-1.73,1.71-2.82,3.31-2.82s2.39,1.12,2.07,2.62c-.04.2-.09.36-.15.55h-4.38c-.17,1.11.48,1.72,1.41,1.72.82,0,1.43-.42,1.75-1.01h.98c-.49,1-1.54,1.78-2.9,1.78ZM459.87,54.56h3.46c.24-1.07-.44-1.66-1.38-1.66-.89,0-1.76.59-2.08,1.66Z"/>
    </g>
    <g>
      <path class="cls-3" d="M237.11,52.13c1.48,0,2.36,1.1,2,2.81-.36,1.7-1.73,2.85-3.2,2.85-1,0-1.6-.5-1.82-1.1l-.21,1.01h-.91l1.57-7.4h.91l-.62,2.94c.48-.61,1.32-1.11,2.29-1.11ZM236.76,52.92c-.99,0-2.02.76-2.29,2.03-.27,1.29.44,2.04,1.43,2.04s2.02-.76,2.29-2.05c.27-1.29-.42-2.02-1.43-2.02Z"/>
      <path class="cls-3" d="M242.08,57.79c-1.56,0-2.48-1.1-2.11-2.84.37-1.73,1.71-2.82,3.31-2.82s2.39,1.12,2.07,2.62c-.04.2-.09.36-.15.55h-4.38c-.17,1.11.48,1.72,1.41,1.72.82,0,1.43-.42,1.75-1.01h.98c-.49,1-1.54,1.78-2.9,1.78ZM241,54.56h3.46c.24-1.07-.44-1.66-1.38-1.66-.89,0-1.76.59-2.08,1.66Z"/>
      <path class="cls-3" d="M249.39,52.13c.86,0,1.56.44,1.8,1.07l.62-2.9h.92l-1.57,7.4h-.92l.22-1.03c-.46.61-1.28,1.12-2.28,1.12-1.47,0-2.35-1.15-1.99-2.85.36-1.71,1.73-2.81,3.21-2.81ZM249.39,52.92c-1,0-2,.73-2.28,2.02-.27,1.29.41,2.05,1.41,2.05s2.02-.75,2.29-2.04c.27-1.27-.43-2.03-1.43-2.03Z"/>
      <path class="cls-3" d="M252.97,57.76c-.35,0-.56-.27-.49-.62.07-.35.4-.62.75-.62.33,0,.54.27.47.62-.07.35-.4.62-.73.62Z"/>
    </g>
    <g>
      <path class="cls-3" d="M492.94,52.97h-.71l.16-.75h.71l.29-1.38h.91l-.29,1.38h1.43l-.16.75h-1.43l-.69,3.23c-.12.54.04.73.6.73h.67l-.16.77h-.82c-.97,0-1.43-.4-1.2-1.5l.69-3.23Z"/>
      <path class="cls-3" d="M498.82,52.13c1.02,0,1.61.52,1.81,1.09l.21-1h.92l-1.17,5.48h-.92l.22-1.02c-.46.59-1.28,1.11-2.28,1.11-1.46,0-2.34-1.15-1.98-2.85.36-1.71,1.73-2.81,3.2-2.81ZM498.83,52.92c-1,0-2,.73-2.28,2.02-.27,1.29.41,2.05,1.41,2.05s2.02-.75,2.29-2.04c.27-1.27-.43-2.03-1.43-2.03Z"/>
      <path class="cls-3" d="M506.28,52.13c1.48,0,2.36,1.1,2,2.81-.36,1.7-1.73,2.85-3.2,2.85-1,0-1.6-.5-1.82-1.1l-.21,1.01h-.91l1.57-7.4h.91l-.62,2.94c.48-.61,1.32-1.11,2.29-1.11ZM505.92,52.92c-.99,0-2.02.76-2.29,2.03-.27,1.29.44,2.04,1.43,2.04s2.02-.76,2.29-2.05c.27-1.29-.42-2.02-1.43-2.02Z"/>
      <path class="cls-3" d="M510.47,50.3h.91l-1.57,7.4h-.91l1.57-7.4Z"/>
      <path class="cls-3" d="M513.7,57.79c-1.56,0-2.48-1.1-2.11-2.84.37-1.73,1.71-2.82,3.31-2.82s2.39,1.12,2.07,2.62c-.04.2-.09.36-.15.55h-4.38c-.17,1.11.48,1.72,1.41,1.72.82,0,1.43-.42,1.75-1.01h.98c-.49,1-1.54,1.78-2.9,1.78ZM512.62,54.56h3.46c.24-1.07-.44-1.66-1.38-1.66-.89,0-1.76.59-2.08,1.66Z"/>
      <path class="cls-3" d="M518.69,57.76c-.35,0-.56-.27-.49-.62.07-.35.4-.62.75-.62.33,0,.54.27.47.62-.07.35-.4.62-.73.62ZM520.83,50.64c1.31,0,2.04.79,1.77,2.06-.31,1.46-1.45,2.06-2.85,2.06l-.23.95h-.79l.3-1.58h.29c1.14,0,2.16-.22,2.41-1.43.17-.8-.24-1.3-1.05-1.3s-1.43.47-1.59,1.25h-.86c.25-1.21,1.3-2.01,2.61-2.01Z"/>
    </g>
    <g>
      <path class="cls-3" d="M20.8,50.73l-1.32,6.23h2.44l-.16.74h-3.35l1.48-6.97h.91Z"/>
      <path class="cls-3" d="M25.1,57.79c-1.55,0-2.5-1.1-2.12-2.84.37-1.73,1.82-2.82,3.37-2.82s2.54,1.09,2.17,2.82c-.37,1.74-1.85,2.84-3.41,2.84ZM25.27,57c.95,0,2.02-.65,2.31-2.04.29-1.38-.48-2.03-1.42-2.03s-1.97.65-2.26,2.03c-.3,1.39.42,2.04,1.37,2.04Z"/>
      <path class="cls-3" d="M30.71,50.3h.91l-1.57,7.4h-.91l1.57-7.4Z"/>
      <path class="cls-3" d="M33.96,57.79c-1.55,0-2.5-1.1-2.12-2.84.37-1.73,1.82-2.82,3.37-2.82s2.54,1.09,2.17,2.82c-.37,1.74-1.85,2.84-3.41,2.84ZM34.13,57c.95,0,2.02-.65,2.31-2.04.29-1.38-.48-2.03-1.42-2.03s-1.97.65-2.26,2.03c-.3,1.39.42,2.04,1.37,2.04Z"/>
    </g>
    <g>
      <path class="cls-3" d="M329.57,50.73l-1.32,6.23h2.44l-.16.74h-3.35l1.48-6.97h.91Z"/>
      <path class="cls-3" d="M333.87,57.79c-1.55,0-2.5-1.1-2.12-2.84.37-1.73,1.82-2.82,3.37-2.82s2.54,1.09,2.17,2.82c-.37,1.74-1.85,2.84-3.41,2.84ZM334.04,57c.95,0,2.02-.65,2.31-2.04.29-1.38-.48-2.03-1.42-2.03s-1.97.65-2.26,2.03c-.3,1.39.42,2.04,1.37,2.04Z"/>
      <path class="cls-3" d="M339.48,50.3h.91l-1.57,7.4h-.91l1.57-7.4Z"/>
      <path class="cls-3" d="M342.73,57.79c-1.55,0-2.5-1.1-2.12-2.84.37-1.73,1.82-2.82,3.37-2.82s2.54,1.09,2.17,2.82c-.37,1.74-1.85,2.84-3.41,2.84ZM342.9,57c.95,0,2.02-.65,2.31-2.04.29-1.38-.48-2.03-1.42-2.03s-1.97.65-2.26,2.03c-.3,1.39.42,2.04,1.37,2.04Z"/>
    </g>
    <g>
      <path class="cls-3" d="M111.75,32.48c1.47,0,2.6,1.1,2.6,2.81s-1.13,2.85-2.6,2.85c-1,0-1.71-.54-2.05-1.1v3.61h-.91v-8.08h.91v1.01c.33-.58,1.05-1.1,2.05-1.1ZM111.56,33.27c-.99,0-1.86.76-1.86,2.03s.87,2.04,1.86,2.04,1.86-.76,1.86-2.05-.85-2.02-1.86-2.02Z"/>
      <path class="cls-3" d="M116.46,38.05h-.91v-5.48h.91v.89c.31-.61.9-.99,1.77-.99v.94h-.24c-.87,0-1.53.39-1.53,1.66v2.98Z"/>
      <path class="cls-3" d="M121.65,38.14c-1.56,0-2.71-1.1-2.71-2.84s1.11-2.82,2.71-2.82,2.63,1.12,2.63,2.62c0,.2,0,.36-.03.55h-4.38c.07,1.11.85,1.72,1.78,1.72.82,0,1.34-.42,1.54-1.01h.98c-.28,1-1.16,1.78-2.52,1.78ZM119.88,34.91h3.46c.01-1.07-.79-1.66-1.73-1.66-.89,0-1.63.59-1.73,1.66Z"/>
      <path class="cls-3" d="M128.44,32.48c1.47,0,2.6,1.1,2.6,2.81s-1.13,2.85-2.6,2.85c-1,0-1.71-.54-2.05-1.1v3.61h-.91v-8.08h.91v1.01c.33-.58,1.05-1.1,2.05-1.1ZM128.25,33.27c-.99,0-1.86.76-1.86,2.03s.87,2.04,1.86,2.04,1.86-.76,1.86-2.05-.85-2.02-1.86-2.02Z"/>
      <path class="cls-3" d="M134.63,38.14c-1.55,0-2.73-1.1-2.73-2.84s1.22-2.82,2.77-2.82,2.77,1.09,2.77,2.82-1.25,2.84-2.81,2.84ZM134.63,37.34c.95,0,1.88-.65,1.88-2.04s-.91-2.03-1.85-2.03-1.83.65-1.83,2.03.85,2.04,1.8,2.04Z"/>
      <path class="cls-3" d="M140.58,38.14c-1.28,0-2.18-.7-2.24-1.7h.94c.05.53.52.93,1.29.93.72,0,1.12-.36,1.12-.81,0-1.22-3.24-.51-3.24-2.55,0-.84.79-1.53,2.01-1.53s2.01.65,2.07,1.72h-.91c-.04-.55-.46-.95-1.19-.95-.67,0-1.07.32-1.07.76,0,1.3,3.18.59,3.22,2.55,0,.9-.79,1.58-2,1.58Z"/>
      <path class="cls-3" d="M143.71,31.06c0-.35.27-.62.62-.62.33,0,.6.27.6.62s-.27.62-.6.62c-.35,0-.62-.27-.62-.62ZM143.86,32.57h.91v5.48h-.91v-5.48Z"/>
      <path class="cls-3" d="M146.52,33.32h-.71v-.75h.71v-1.38h.91v1.38h1.43v.75h-1.43v3.23c0,.54.2.73.76.73h.67v.77h-.82c-.97,0-1.52-.4-1.52-1.5v-3.23Z"/>
      <path class="cls-3" d="M149.81,31.06c0-.35.27-.62.62-.62.33,0,.6.27.6.62s-.27.62-.6.62c-.35,0-.62-.27-.62-.62ZM149.96,32.57h.91v5.48h-.91v-5.48Z"/>
      <path class="cls-3" d="M154.81,38.14c-1.55,0-2.73-1.1-2.73-2.84s1.22-2.82,2.77-2.82,2.77,1.09,2.77,2.82-1.25,2.84-2.81,2.84ZM154.81,37.34c.95,0,1.88-.65,1.88-2.04s-.91-2.03-1.85-2.03-1.83.65-1.83,2.03.85,2.04,1.8,2.04Z"/>
      <path class="cls-3" d="M162.83,34.95c0-1.12-.61-1.69-1.53-1.69s-1.57.58-1.57,1.76v3.03h-.91v-5.48h.91v.78c.36-.57,1.02-.88,1.76-.88,1.27,0,2.24.78,2.24,2.35v3.23h-.9v-3.1Z"/>
    </g>
    <g>
      <path class="cls-3" d="M372.3,32.48c1.47,0,2.6,1.1,2.6,2.81s-1.13,2.85-2.6,2.85c-1,0-1.71-.54-2.05-1.1v3.61h-.91v-8.08h.91v1.01c.33-.58,1.05-1.1,2.05-1.1ZM372.11,33.27c-.99,0-1.86.76-1.86,2.03s.87,2.04,1.86,2.04,1.86-.76,1.86-2.05-.85-2.02-1.86-2.02Z"/>
      <path class="cls-3" d="M377.01,38.05h-.91v-5.48h.91v.89c.31-.61.9-.99,1.77-.99v.94h-.24c-.87,0-1.53.39-1.53,1.66v2.98Z"/>
      <path class="cls-3" d="M382.2,38.14c-1.56,0-2.71-1.1-2.71-2.84s1.11-2.82,2.71-2.82,2.63,1.12,2.63,2.62c0,.2,0,.36-.03.55h-4.38c.07,1.11.85,1.72,1.78,1.72.82,0,1.34-.42,1.54-1.01h.98c-.28,1-1.16,1.78-2.52,1.78ZM380.43,34.91h3.46c.01-1.07-.79-1.66-1.73-1.66-.89,0-1.63.59-1.73,1.66Z"/>
      <path class="cls-3" d="M388.99,32.48c1.47,0,2.6,1.1,2.6,2.81s-1.13,2.85-2.6,2.85c-1,0-1.71-.54-2.05-1.1v3.61h-.91v-8.08h.91v1.01c.33-.58,1.05-1.1,2.05-1.1ZM388.8,33.27c-.99,0-1.86.76-1.86,2.03s.87,2.04,1.86,2.04,1.86-.76,1.86-2.05-.85-2.02-1.86-2.02Z"/>
      <path class="cls-3" d="M395.18,38.14c-1.55,0-2.73-1.1-2.73-2.84s1.22-2.82,2.77-2.82,2.77,1.09,2.77,2.82-1.25,2.84-2.81,2.84ZM395.18,37.34c.95,0,1.88-.65,1.88-2.04s-.91-2.03-1.85-2.03-1.83.65-1.83,2.03.85,2.04,1.8,2.04Z"/>
      <path class="cls-3" d="M401.13,38.14c-1.28,0-2.18-.7-2.24-1.7h.94c.05.53.52.93,1.29.93.72,0,1.12-.36,1.12-.81,0-1.22-3.24-.51-3.24-2.55,0-.84.79-1.53,2.01-1.53s2.01.65,2.07,1.72h-.91c-.04-.55-.46-.95-1.19-.95-.67,0-1.07.32-1.07.76,0,1.3,3.18.59,3.22,2.55,0,.9-.79,1.58-2,1.58Z"/>
      <path class="cls-3" d="M404.26,31.06c0-.35.27-.62.62-.62.33,0,.6.27.6.62s-.27.62-.6.62c-.35,0-.62-.27-.62-.62ZM404.41,32.57h.91v5.48h-.91v-5.48Z"/>
      <path class="cls-3" d="M407.07,33.32h-.71v-.75h.71v-1.38h.91v1.38h1.43v.75h-1.43v3.23c0,.54.2.73.76.73h.67v.77h-.82c-.97,0-1.52-.4-1.52-1.5v-3.23Z"/>
      <path class="cls-3" d="M410.36,31.06c0-.35.27-.62.62-.62.33,0,.6.27.6.62s-.27.62-.6.62c-.35,0-.62-.27-.62-.62ZM410.51,32.57h.91v5.48h-.91v-5.48Z"/>
      <path class="cls-3" d="M415.36,38.14c-1.55,0-2.73-1.1-2.73-2.84s1.22-2.82,2.77-2.82,2.77,1.09,2.77,2.82-1.25,2.84-2.81,2.84ZM415.36,37.34c.95,0,1.88-.65,1.88-2.04s-.91-2.03-1.85-2.03-1.83.65-1.83,2.03.85,2.04,1.8,2.04Z"/>
      <path class="cls-3" d="M423.38,34.95c0-1.12-.61-1.69-1.53-1.69s-1.57.58-1.57,1.76v3.03h-.91v-5.48h.91v.78c.36-.57,1.02-.88,1.76-.88,1.27,0,2.24.78,2.24,2.35v3.23h-.9v-3.1Z"/>
    </g>
  </g>
</svg>