<?xml version="1.0" encoding="UTF-8"?>
<svg id="Layer_2" data-name="Layer 2" xmlns="http://www.w3.org/2000/svg" viewBox="0 0 538.39 144.12">
  <defs>
    <style>
      .cls-1 {
        stroke-dasharray: 3.98 3.98;
      }

      .cls-1, .cls-2, .cls-3, .cls-4, .cls-5, .cls-6, .cls-7 {
        fill: none;
        stroke: #2a5caa;
        stroke-miterlimit: 10;
        stroke-width: .75px;
      }

      .cls-8 {
        fill: #72adbb;
      }

      .cls-9 {
        fill: #accad4;
      }

      .cls-10 {
        fill: #231f20;
      }

      .cls-11 {
        fill: #fff;
      }

      .cls-2 {
        stroke-dasharray: 4.02 4.02;
      }

      .cls-3 {
        stroke-dasharray: 3.94 3.94;
      }

      .cls-4 {
        stroke-dasharray: 3.87 3.87;
      }

      .cls-12 {
        fill: #2096a6;
      }

      .cls-5 {
        stroke-dasharray: 4 4;
      }

      .cls-6 {
        stroke-dasharray: 3.91 3.91;
      }
    </style>
  </defs>
  <g id="Layer_1-2" data-name="Layer 1">
    <g>
      <path class="cls-12" d="M538.37,135.23c0,4.91-1.88,8.88-4.2,8.88H6.42c-2.32,0-4.2-3.98-4.2-8.88V8.88C2.22,3.98,4.1,0,6.42,0h527.76c2.32,0,4.2,3.98,4.2,8.88v126.35Z"/>
      <path class="cls-12" d="M538.39,100.5c0,2.73-1.88,4.94-4.2,4.94H6.43c-2.32,0-4.2-2.21-4.2-4.94v-53.84c0-2.73,1.88-32.04,4.2-32.04h527.76c2.32,0,4.2,2.21,4.2,4.94v80.94Z"/>
      <path class="cls-11" d="M535.5,74.8c0,3.17-1.91,5.73-4.27,5.73H4.44c-2.36,0-4.27-2.57-4.27-5.73V12.38c0-3.17,1.91-5.73,4.27-5.73h526.79c2.36,0,4.27,2.57,4.27,5.73v62.42Z"/>
      <path class="cls-9" d="M535.62,40.36c0,.56-1.88,1.02-4.2,1.02H4.21C1.89,41.38.01,40.92.01,40.36v-18.63c0-.56,1.88-1.02,4.19-1.02h527.22c2.32,0,4.2.46,4.2,1.02v18.63Z"/>
      <path class="cls-8" d="M535.83,21.6c0,.62-1.88,1.12-4.2,1.12H4.21C1.89,22.71.01,22.21.01,21.6V1.21C.01.6,1.89.1,4.21.1h527.43c2.32,0,4.2.5,4.2,1.11v20.38Z"/>
    </g>
    <g>
      <path class="cls-11" d="M117.67,8.16l-1.19,3.22h-2.1l1.91-3.22h1.38ZM120.4,8.16l-1.19,3.22h-2.1l1.91-3.22h1.38Z"/>
      <path class="cls-11" d="M124.18,16.59h-3.92l1.49-8.43h3.79c1.72,0,2.58.85,2.35,2.18-.18,1.02-.91,1.68-1.77,1.92.95.2,1.43,1.07,1.26,2.03-.25,1.39-1.42,2.29-3.2,2.29ZM124.42,13.07h-1.49l-.33,1.86h1.51c.68,0,1.13-.31,1.24-.91.11-.6-.25-.95-.94-.95ZM124.85,9.8h-1.34l-.31,1.77h1.34c.67,0,1.1-.3,1.2-.88s-.22-.89-.89-.89Z"/>
      <path class="cls-11" d="M131.13,16.68c-1.97,0-3.15-1.32-2.77-3.45.37-2.12,2-3.45,3.99-3.45s3.11,1.3,2.75,3.34c-.03.19-.08.4-.14.6h-4.64c-.08.88.38,1.28,1.04,1.28.58,0,.95-.29,1.18-.65h2.18c-.56,1.31-1.92,2.32-3.59,2.32ZM130.52,12.59h2.57c.13-.73-.37-1.15-1.06-1.15s-1.26.41-1.51,1.15Z"/>
      <path class="cls-11" d="M139.71,9.79c1.68,0,2.7.92,2.77,2.52h-2.18c-.09-.47-.37-.77-.93-.77-.73,0-1.34.58-1.53,1.69-.2,1.12.21,1.69.94,1.69.56,0,.94-.28,1.2-.77h2.18c-.62,1.55-1.98,2.52-3.66,2.52-1.97,0-3.13-1.32-2.75-3.45.37-2.11,2-3.45,3.97-3.45Z"/>
      <path class="cls-11" d="M146.56,9.79c1,0,1.62.46,1.88,1.04l.17-.95h2.05l-1.18,6.7h-2.05l.17-.95c-.47.59-1.26,1.04-2.26,1.04-1.63,0-2.7-1.34-2.33-3.46.37-2.11,1.91-3.43,3.56-3.43ZM146.84,11.58c-.77,0-1.56.58-1.75,1.64-.19,1.07.4,1.67,1.17,1.67s1.57-.59,1.76-1.66c.19-1.07-.39-1.66-1.17-1.66Z"/>
      <path class="cls-11" d="M157.58,16.59h-2.05l.16-.91c-.51.58-1.3.98-2.2.98-1.55,0-2.4-1.07-2.09-2.86l.69-3.91h2.04l-.64,3.64c-.16.91.27,1.42,1.03,1.42s1.38-.5,1.54-1.42l.64-3.64h2.05l-1.18,6.7Z"/>
      <path class="cls-11" d="M161.76,16.68c-1.79,0-2.81-1-2.68-2.29h2.03c-.03.47.33.78.89.78.53,0,.85-.24.9-.54.19-1.08-3.59-.3-3.16-2.76.2-1.14,1.34-2.08,3.09-2.08s2.52.96,2.42,2.28h-1.89c.02-.46-.27-.76-.85-.76-.48,0-.78.19-.84.52-.19,1.07,3.57.31,3.16,2.81-.21,1.17-1.39,2.04-3.07,2.04Z"/>
      <path class="cls-11" d="M168.71,16.68c-1.97,0-3.15-1.32-2.77-3.45.37-2.12,2-3.45,3.99-3.45s3.11,1.3,2.75,3.34c-.03.19-.08.4-.14.6h-4.64c-.08.88.38,1.28,1.04,1.28.58,0,.95-.29,1.18-.65h2.18c-.56,1.31-1.92,2.32-3.59,2.32ZM168.1,12.59h2.57c.13-.73-.37-1.15-1.06-1.15s-1.26.41-1.51,1.15Z"/>
      <path class="cls-11" d="M173.97,11.38l1.19-3.22h2.1l-1.91,3.22h-1.38ZM176.7,11.38l1.19-3.22h2.1l-1.91,3.22h-1.38Z"/>
      <path class="cls-11" d="M183.43,9.89h2.05l-1.18,6.7h-2.05l1.18-6.7ZM183.56,8.09c.11-.62.69-1.12,1.42-1.12s1.12.49,1.01,1.12c-.11.61-.69,1.1-1.41,1.1s-1.14-.49-1.03-1.1Z"/>
      <path class="cls-11" d="M191.05,12.95c.16-.91-.25-1.42-1.03-1.42s-1.37.5-1.53,1.42l-.64,3.64h-2.05l1.18-6.7h2.05l-.16.89c.51-.56,1.3-.96,2.2-.96,1.55,0,2.39,1.06,2.08,2.86l-.69,3.91h-2.04l.64-3.64Z"/>
      <path class="cls-11" d="M199.46,16.67c-1.81,0-3.07-.9-2.83-2.61h2.18c-.05.65.3.96.87.96s1.04-.3,1.12-.79c.28-1.56-4.08-.72-3.53-3.71.28-1.6,1.75-2.48,3.51-2.48s2.91.91,2.71,2.52h-2.22c.06-.54-.27-.87-.82-.88-.49-.01-.91.24-1,.77-.26,1.47,4.02.81,3.52,3.63-.25,1.42-1.56,2.59-3.53,2.59Z"/>
      <path class="cls-11" d="M205.37,7.7h2.05l-.54,3.08c.51-.58,1.31-.97,2.23-.97,1.52,0,2.36,1.06,2.04,2.86l-.69,3.91h-2.04l.64-3.64c.16-.91-.25-1.42-1.03-1.42s-1.37.5-1.53,1.42l-.64,3.64h-2.05l1.57-8.88Z"/>
      <path class="cls-11" d="M214.92,16.68c-1.97,0-3.22-1.32-2.85-3.45.37-2.12,2.13-3.45,4.08-3.45s3.25,1.32,2.87,3.45c-.37,2.13-2.14,3.45-4.11,3.45ZM215.23,14.9c.73,0,1.51-.54,1.71-1.67.2-1.14-.38-1.67-1.1-1.67s-1.48.53-1.69,1.67c-.2,1.13.33,1.67,1.07,1.67Z"/>
      <path class="cls-11" d="M221.59,16.59h-2.05l1.18-6.7h2.05l-.2,1.12c.59-.71,1.41-1.19,2.31-1.19l-.38,2.17h-.56c-.97,0-1.59.34-1.8,1.49l-.55,3.11Z"/>
      <path class="cls-11" d="M225.88,11.59h-.82l.3-1.7h.82l.29-1.63h2.05l-.29,1.63h1.34l-.3,1.7h-1.34l-.47,2.69c-.07.4.07.56.52.56h.73l-.31,1.74h-1.04c-1.39,0-2.26-.59-1.95-2.33l.47-2.67Z"/>
      <path class="cls-11" d="M237.59,15.1h-3.14l-.77,1.49h-2.15l4.53-8.43h2.38l1.56,8.43h-2.17l-.24-1.49ZM236.84,10.43l-1.58,3.08h2.08l-.5-3.08Z"/>
      <path class="cls-11" d="M246.19,12.95c.16-.91-.25-1.42-1.03-1.42s-1.37.5-1.53,1.42l-.64,3.64h-2.05l1.18-6.7h2.05l-.16.89c.51-.56,1.3-.96,2.2-.96,1.55,0,2.39,1.06,2.08,2.86l-.69,3.91h-2.04l.64-3.64Z"/>
      <path class="cls-11" d="M251.72,16.68c-1.79,0-2.81-1-2.68-2.29h2.03c-.03.47.33.78.89.78.53,0,.85-.24.9-.54.19-1.08-3.59-.3-3.16-2.76.2-1.14,1.34-2.08,3.09-2.08s2.52.96,2.42,2.28h-1.89c.02-.46-.27-.76-.85-.76-.48,0-.78.19-.84.52-.19,1.07,3.57.31,3.16,2.81-.21,1.17-1.39,2.04-3.07,2.04Z"/>
      <path class="cls-11" d="M256.2,9.89h2.05l.1,4.79,1.97-4.79h2.17l.3,4.77,1.77-4.77h1.93l-2.99,6.7h-2.27l-.29-4.35-1.86,4.35h-2.25l-.64-6.7Z"/>
      <path class="cls-11" d="M269.06,16.68c-1.97,0-3.15-1.32-2.77-3.45.37-2.12,2-3.45,3.99-3.45s3.11,1.3,2.75,3.34c-.03.19-.08.4-.14.6h-4.64c-.08.88.38,1.28,1.04,1.28.58,0,.95-.29,1.18-.65h2.18c-.55,1.31-1.92,2.32-3.59,2.32ZM268.45,12.59h2.57c.13-.73-.37-1.15-1.06-1.15s-1.26.41-1.51,1.15Z"/>
      <path class="cls-11" d="M275.55,16.59h-2.05l1.18-6.7h2.05l-.2,1.12c.59-.71,1.41-1.19,2.31-1.19l-.38,2.17h-.56c-.97,0-1.59.34-1.8,1.49l-.55,3.11Z"/>
      <path class="cls-11" d="M281.34,16.68c-1.79,0-2.81-1-2.68-2.29h2.03c-.04.47.33.78.89.78.53,0,.85-.24.9-.54.19-1.08-3.59-.3-3.16-2.76.2-1.14,1.34-2.08,3.09-2.08s2.52.96,2.42,2.28h-1.89c.02-.46-.27-.76-.85-.76-.48,0-.78.19-.83.52-.19,1.07,3.57.31,3.16,2.81-.21,1.17-1.39,2.04-3.07,2.04Z"/>
      <path class="cls-11" d="M291.62,9.79c1,0,1.62.46,1.88,1.04l.17-.95h2.05l-1.18,6.7h-2.05l.17-.95c-.47.59-1.26,1.04-2.26,1.04-1.63,0-2.7-1.34-2.33-3.46.37-2.11,1.91-3.43,3.56-3.43ZM291.9,11.58c-.77,0-1.56.58-1.75,1.64-.19,1.07.4,1.67,1.17,1.67s1.57-.59,1.76-1.66c.19-1.07-.39-1.66-1.17-1.66Z"/>
      <path class="cls-11" d="M301.28,12.95c.16-.91-.25-1.42-1.03-1.42s-1.37.5-1.53,1.42l-.64,3.64h-2.05l1.18-6.7h2.05l-.16.89c.51-.56,1.3-.96,2.2-.96,1.55,0,2.39,1.06,2.08,2.86l-.69,3.91h-2.04l.64-3.64Z"/>
      <path class="cls-11" d="M307.85,9.79c.89,0,1.58.41,1.88,1.02l.55-3.11h2.05l-1.57,8.88h-2.05l.17-.96c-.48.61-1.26,1.06-2.25,1.06-1.64,0-2.71-1.34-2.34-3.46.37-2.11,1.91-3.43,3.56-3.43ZM308.14,11.58c-.77,0-1.56.58-1.75,1.64-.19,1.07.4,1.67,1.17,1.67s1.57-.59,1.76-1.66c.19-1.07-.39-1.66-1.17-1.66Z"/>
      <path class="cls-11" d="M320.19,8.06c2,0,3.31,1.13,3.47,2.95h-2.25c-.22-.72-.79-1.08-1.57-1.08-1.26,0-2.29.94-2.55,2.42s.44,2.42,1.7,2.42c.78,0,1.48-.36,1.95-1.08h2.25c-.8,1.82-2.51,2.94-4.51,2.94-2.48,0-3.92-1.77-3.48-4.29.44-2.52,2.51-4.3,4.99-4.3Z"/>
      <path class="cls-11" d="M326.98,16.68c-1.97,0-3.22-1.32-2.85-3.45.37-2.12,2.13-3.45,4.08-3.45s3.25,1.32,2.87,3.45c-.38,2.13-2.14,3.45-4.11,3.45ZM327.29,14.9c.73,0,1.51-.54,1.71-1.67.2-1.14-.38-1.67-1.1-1.67s-1.48.53-1.68,1.67c-.2,1.13.33,1.67,1.07,1.67Z"/>
      <path class="cls-11" d="M341.45,12.95c.15-.88-.26-1.36-1.04-1.36s-1.37.48-1.52,1.36l-.64,3.64h-2.04l.64-3.64c.15-.88-.26-1.36-1.04-1.36s-1.37.48-1.52,1.36l-.64,3.64h-2.05l1.18-6.7h2.05l-.15.84c.49-.54,1.24-.91,2.12-.91,1.01,0,1.74.44,2.06,1.25.57-.71,1.5-1.25,2.48-1.25,1.65,0,2.54,1.06,2.22,2.86l-.69,3.91h-2.04l.64-3.64Z"/>
      <path class="cls-11" d="M349.61,9.79c1.64,0,2.72,1.32,2.34,3.43-.37,2.11-1.92,3.46-3.56,3.46-.98,0-1.61-.47-1.88-1.03l-.73,4.13h-2.05l1.74-9.89h2.05l-.17.95c.48-.59,1.26-1.04,2.25-1.04ZM348.68,11.58c-.77,0-1.57.59-1.76,1.66-.19,1.07.4,1.66,1.17,1.66s1.58-.6,1.77-1.67c.19-1.07-.41-1.64-1.18-1.64Z"/>
      <path class="cls-11" d="M354.01,7.7h2.05l-1.57,8.88h-2.05l1.57-8.88Z"/>
      <path class="cls-11" d="M358.94,16.68c-1.97,0-3.15-1.32-2.77-3.45.37-2.12,2-3.45,3.99-3.45s3.11,1.3,2.75,3.34c-.03.19-.08.4-.14.6h-4.64c-.08.88.38,1.28,1.04,1.28.58,0,.95-.29,1.18-.65h2.18c-.55,1.31-1.92,2.32-3.59,2.32ZM358.33,12.59h2.57c.13-.73-.37-1.15-1.06-1.15s-1.26.41-1.51,1.15Z"/>
      <path class="cls-11" d="M366.38,14.73l-1.41,1.86h-2.22l2.81-3.42-1.69-3.28h2.3l.96,1.85,1.41-1.85h2.22l-2.84,3.37,1.72,3.33h-2.3l-.96-1.86Z"/>
      <path class="cls-11" d="M376.01,16.67c-1.81,0-3.07-.9-2.83-2.61h2.18c-.05.65.3.96.87.96s1.04-.3,1.12-.79c.28-1.56-4.08-.72-3.53-3.71.28-1.6,1.75-2.48,3.51-2.48s2.91.91,2.71,2.52h-2.22c.06-.54-.27-.87-.82-.88-.49-.01-.91.24-1,.77-.26,1.47,4.02.81,3.52,3.63-.25,1.42-1.56,2.59-3.53,2.59Z"/>
      <path class="cls-11" d="M383.31,16.68c-1.97,0-3.15-1.32-2.77-3.45.37-2.12,2-3.45,3.99-3.45s3.11,1.3,2.75,3.34c-.03.19-.08.4-.14.6h-4.64c-.08.88.38,1.28,1.04,1.28.58,0,.95-.29,1.18-.65h2.18c-.55,1.31-1.92,2.32-3.59,2.32ZM382.71,12.59h2.57c.13-.73-.37-1.15-1.06-1.15s-1.26.41-1.51,1.15Z"/>
      <path class="cls-11" d="M393.01,12.95c.16-.91-.25-1.42-1.03-1.42s-1.37.5-1.53,1.42l-.64,3.64h-2.05l1.18-6.7h2.05l-.16.89c.51-.56,1.3-.96,2.2-.96,1.55,0,2.39,1.06,2.08,2.86l-.69,3.91h-2.04l.64-3.64Z"/>
      <path class="cls-11" d="M397.04,11.59h-.82l.3-1.7h.82l.29-1.63h2.05l-.29,1.63h1.34l-.3,1.7h-1.34l-.47,2.69c-.07.4.07.56.52.56h.73l-.31,1.74h-1.04c-1.39,0-2.26-.59-1.95-2.33l.47-2.67Z"/>
      <path class="cls-11" d="M403.67,16.68c-1.97,0-3.15-1.32-2.77-3.45.37-2.12,2-3.45,3.99-3.45s3.11,1.3,2.75,3.34c-.03.19-.08.4-.14.6h-4.64c-.08.88.38,1.28,1.04,1.28.58,0,.95-.29,1.18-.65h2.18c-.55,1.31-1.92,2.32-3.59,2.32ZM403.06,12.59h2.57c.13-.73-.37-1.15-1.06-1.15s-1.26.41-1.51,1.15Z"/>
      <path class="cls-11" d="M413.36,12.95c.16-.91-.25-1.42-1.03-1.42s-1.37.5-1.53,1.42l-.64,3.64h-2.05l1.18-6.7h2.05l-.16.89c.51-.56,1.3-.96,2.2-.96,1.55,0,2.39,1.06,2.08,2.86l-.69,3.91h-2.04l.64-3.64Z"/>
      <path class="cls-11" d="M420.34,9.79c1.68,0,2.7.92,2.77,2.52h-2.18c-.09-.47-.37-.77-.93-.77-.73,0-1.34.58-1.53,1.69-.2,1.12.21,1.69.94,1.69.56,0,.94-.28,1.2-.77h2.18c-.62,1.55-1.98,2.52-3.66,2.52-1.97,0-3.13-1.32-2.75-3.45.37-2.11,2-3.45,3.97-3.45Z"/>
      <path class="cls-11" d="M426.41,16.68c-1.97,0-3.15-1.32-2.77-3.45.37-2.12,2-3.45,3.99-3.45s3.11,1.3,2.75,3.34c-.03.19-.08.4-.14.6h-4.64c-.08.88.38,1.28,1.04,1.28.58,0,.95-.29,1.18-.65h2.18c-.55,1.31-1.92,2.32-3.59,2.32ZM425.8,12.59h2.57c.13-.73-.37-1.15-1.06-1.15s-1.26.41-1.51,1.15Z"/>
      <path class="cls-11" d="M433.55,16.68c-1.79,0-2.81-1-2.68-2.29h2.03c-.04.47.33.78.89.78.53,0,.85-.24.9-.54.19-1.08-3.59-.3-3.16-2.76.2-1.14,1.34-2.08,3.09-2.08s2.52.96,2.42,2.28h-1.89c.02-.46-.27-.76-.85-.76-.48,0-.78.19-.84.52-.19,1.07,3.57.31,3.16,2.81-.21,1.17-1.39,2.04-3.07,2.04Z"/>
    </g>
    <g>
      <path class="cls-10" d="M95.13,28.16l-1.07,2.27h-1.01l1.44-2.27h.64ZM96.76,28.16l-1.07,2.27h-1.01l1.44-2.27h.64Z"/>
      <path class="cls-10" d="M97.35,28.17h.97l.26,5.91,2.94-5.91h1.02l.35,5.89,2.78-5.89h.98l-3.5,6.97h-1.02l-.43-5.61-2.87,5.61h-1.01s-.47-6.97-.47-6.97Z"/>
      <path class="cls-10" d="M107.74,27.74h.91l-.58,2.71c.48-.58,1.23-.89,2-.89,1.22,0,2.02.78,1.69,2.35l-.69,3.23h-.9l.66-3.1c.24-1.12-.25-1.69-1.17-1.69s-1.69.58-1.94,1.76l-.64,3.03h-.91l1.57-7.4Z"/>
      <path class="cls-10" d="M117.51,29.66h.94l-5.01,8.06h-.94l1.64-2.64-1.06-5.42h1.01l.78,4.44,2.64-4.44Z"/>
      <path class="cls-10" d="M118.84,30.44l1.07-2.27h1.01l-1.44,2.27h-.64ZM120.46,30.44l1.07-2.27h1.01l-1.44,2.27h-.64Z"/>
      <path class="cls-10" d="M129.87,34.71l1.39,1.75h-1.18l-1.09-1.39c-.35.09-.71.14-1.07.14-1.96,0-3.19-1.47-2.74-3.56.44-2.09,2.3-3.56,4.25-3.56s3.19,1.47,2.74,3.56c-.29,1.36-1.17,2.46-2.3,3.06ZM128.09,34.42c1.47,0,2.8-1.07,3.16-2.77.36-1.71-.51-2.77-1.98-2.77s-2.79,1.06-3.16,2.77c-.36,1.7.51,2.77,1.98,2.77Z"/>
      <path class="cls-10" d="M137.51,35.14h-.91l.17-.81c-.47.57-1.21.89-1.94.89-1.26,0-2.08-.78-1.75-2.35l.68-3.21h.9l-.66,3.09c-.24,1.11.25,1.68,1.17,1.68s1.69-.58,1.94-1.76l.64-3.01h.91l-1.17,5.48Z"/>
      <path class="cls-10" d="M141.41,35.23c-1.56,0-2.48-1.1-2.11-2.84.37-1.73,1.71-2.82,3.31-2.82s2.39,1.12,2.07,2.62c-.04.2-.09.36-.15.55h-4.38c-.17,1.11.48,1.72,1.41,1.72.82,0,1.43-.42,1.75-1.01h.98c-.49,1-1.54,1.78-2.9,1.78ZM140.32,32h3.46c.24-1.07-.44-1.66-1.38-1.66-.89,0-1.76.59-2.08,1.66Z"/>
      <path class="cls-10" d="M147.18,35.23c-1.28,0-2.03-.7-1.88-1.7h.94c-.06.53.32.93,1.09.93.72,0,1.2-.36,1.29-.81.26-1.22-3.13-.51-2.7-2.55.18-.84,1.11-1.53,2.33-1.53s1.87.65,1.7,1.72h-.91c.08-.55-.26-.95-.99-.95-.67,0-1.14.32-1.23.76-.28,1.3,3.05.59,2.68,2.55-.19.9-1.12,1.58-2.33,1.58Z"/>
      <path class="cls-10" d="M151.68,30.41h-.71l.16-.75h.71l.29-1.38h.91l-.29,1.38h1.43l-.16.75h-1.43l-.69,3.23c-.11.54.04.73.6.73h.67l-.16.77h-.82c-.97,0-1.43-.4-1.2-1.5l.69-3.23Z"/>
      <path class="cls-10" d="M155.28,29.66h.91l-1.17,5.48h-.91l1.17-5.48ZM155.45,28.15c.07-.35.4-.62.75-.62.33,0,.54.27.47.62-.07.35-.4.62-.73.62-.35,0-.56-.27-.49-.62Z"/>
      <path class="cls-10" d="M158.94,35.23c-1.55,0-2.49-1.1-2.12-2.84.37-1.73,1.82-2.82,3.37-2.82s2.54,1.09,2.17,2.82c-.37,1.74-1.85,2.84-3.41,2.84ZM159.11,34.43c.95,0,2.02-.65,2.31-2.04.29-1.38-.48-2.03-1.42-2.03s-1.97.65-2.26,2.03c-.29,1.39.42,2.04,1.37,2.04Z"/>
      <path class="cls-10" d="M167.64,32.04c.24-1.12-.25-1.69-1.17-1.69s-1.69.58-1.94,1.76l-.64,3.03h-.91l1.17-5.48h.91l-.17.78c.48-.57,1.21-.88,1.95-.88,1.27,0,2.07.78,1.74,2.35l-.69,3.23h-.9l.66-3.1Z"/>
    </g>
    <g>
      <path class="cls-10" d="M334.17,35.21c-1.4,0-2.22-.78-2-1.93h.97c-.06.58.22,1.16,1.19,1.16.88,0,1.51-.5,1.65-1.16.4-1.88-3.62-.68-3.07-3.27.25-1.15,1.34-1.93,2.72-1.93s2.04.73,1.93,1.79h-1c.04-.47-.29-1-1.13-1.01-.75-.02-1.42.37-1.58,1.12-.38,1.8,3.61.68,3.06,3.26-.21.99-1.23,1.97-2.74,1.97Z"/>
      <path class="cls-10" d="M339.42,27.74h.91l-.58,2.71c.48-.58,1.23-.89,2-.89,1.22,0,2.02.78,1.69,2.35l-.69,3.23h-.9l.66-3.1c.24-1.12-.25-1.69-1.17-1.69s-1.69.58-1.94,1.76l-.64,3.03h-.91l1.57-7.4Z"/>
      <path class="cls-10" d="M346.62,35.23c-1.55,0-2.49-1.1-2.12-2.84.37-1.73,1.82-2.82,3.37-2.82s2.54,1.09,2.17,2.82c-.37,1.74-1.85,2.84-3.41,2.84ZM346.79,34.43c.95,0,2.02-.65,2.31-2.04.29-1.38-.48-2.03-1.42-2.03s-1.97.65-2.26,2.03c-.29,1.39.42,2.04,1.37,2.04Z"/>
      <path class="cls-10" d="M351.56,35.14h-.91l1.17-5.48h.91l-.19.89c.44-.61,1.11-.99,1.98-.99l-.2.94h-.24c-.87,0-1.61.39-1.88,1.66l-.63,2.98Z"/>
      <path class="cls-10" d="M355.58,30.41h-.71l.16-.75h.71l.29-1.38h.91l-.29,1.38h1.43l-.16.75h-1.43l-.69,3.23c-.11.54.04.73.6.73h.67l-.16.77h-.82c-.97,0-1.43-.4-1.2-1.5l.69-3.23Z"/>
      <path class="cls-10" d="M362.17,28.17h3.94l-.16.74h-3.03l-.5,2.35h2.46l-.16.74h-2.46l-.67,3.14h-.91l1.48-6.97Z"/>
      <path class="cls-10" d="M368.1,35.23c-1.55,0-2.49-1.1-2.12-2.84.37-1.73,1.82-2.82,3.37-2.82s2.54,1.09,2.17,2.82c-.37,1.74-1.85,2.84-3.41,2.84ZM368.27,34.43c.95,0,2.02-.65,2.31-2.04.29-1.38-.48-2.03-1.42-2.03s-1.97.65-2.26,2.03c-.29,1.39.42,2.04,1.37,2.04Z"/>
      <path class="cls-10" d="M373.04,35.14h-.91l1.17-5.48h.91l-.19.89c.44-.61,1.11-.99,1.98-.99l-.2.94h-.24c-.87,0-1.61.39-1.88,1.66l-.63,2.98Z"/>
      <path class="cls-10" d="M384.42,32.04c.24-1.12-.24-1.69-1.14-1.69s-1.67.59-1.93,1.77l-.64,3.02h-.9l.66-3.1c.24-1.12-.24-1.69-1.14-1.69s-1.68.59-1.93,1.77l-.64,3.02h-.91l1.17-5.48h.91l-.17.79c.48-.58,1.2-.89,1.92-.89.9,0,1.56.4,1.75,1.22.49-.79,1.36-1.22,2.2-1.22,1.25,0,2.05.78,1.72,2.35l-.69,3.23h-.9l.66-3.1Z"/>
      <path class="cls-10" d="M391.41,28.16l-1.07,2.27h-1.01l1.44-2.27h.64ZM393.04,28.16l-1.07,2.27h-1.01l1.44-2.27h.64Z"/>
      <path class="cls-10" d="M395.28,35.14h-2.6l1.48-6.97h2.5c1.47,0,2.04.8,1.83,1.77-.19.88-.84,1.39-1.56,1.61.73.13,1.2.86,1.01,1.72-.22,1.05-1.23,1.87-2.67,1.87ZM395.86,31.93h-1.58l-.52,2.46h1.61c.9,0,1.54-.45,1.7-1.21.16-.77-.32-1.25-1.21-1.25ZM396.43,28.92h-1.51l-.48,2.26h1.53c.85,0,1.43-.42,1.58-1.13.15-.69-.23-1.13-1.12-1.13Z"/>
      <path class="cls-10" d="M401.17,35.23c-1.56,0-2.47-1.1-2.11-2.84.37-1.73,1.71-2.82,3.31-2.82s2.39,1.12,2.07,2.62c-.04.2-.09.36-.15.55h-4.38c-.17,1.11.48,1.72,1.41,1.72.82,0,1.43-.42,1.75-1.01h.98c-.49,1-1.54,1.78-2.9,1.78ZM400.08,32h3.46c.24-1.07-.44-1.66-1.38-1.66-.89,0-1.76.59-2.08,1.66Z"/>
      <path class="cls-10" d="M408.53,29.57c1.36,0,2.1.7,2.13,1.85h-.98c-.05-.66-.51-1.08-1.32-1.08-1,0-1.89.71-2.18,2.05-.29,1.36.3,2.07,1.3,2.07.81,0,1.43-.39,1.78-1.08h.98c-.51,1.09-1.56,1.85-2.92,1.85-1.56,0-2.43-1.1-2.07-2.84.37-1.72,1.71-2.82,3.27-2.82Z"/>
      <path class="cls-10" d="M414.53,29.57c1.02,0,1.61.52,1.81,1.09l.21-1h.92l-1.17,5.48h-.92l.22-1.02c-.46.59-1.28,1.11-2.29,1.11-1.46,0-2.34-1.15-1.98-2.85.36-1.71,1.73-2.81,3.2-2.81ZM414.54,30.36c-1,0-2,.73-2.28,2.02-.27,1.29.41,2.05,1.41,2.05s2.02-.75,2.29-2.04c.27-1.27-.43-2.03-1.43-2.03Z"/>
      <path class="cls-10" d="M422.7,35.14h-.91l.17-.81c-.47.57-1.21.89-1.94.89-1.26,0-2.08-.78-1.75-2.35l.68-3.21h.9l-.66,3.09c-.24,1.11.25,1.68,1.17,1.68s1.69-.58,1.94-1.76l.64-3.01h.91l-1.17,5.48Z"/>
      <path class="cls-10" d="M426.17,35.23c-1.28,0-2.03-.7-1.88-1.7h.94c-.06.53.32.93,1.09.93.72,0,1.2-.36,1.29-.81.26-1.22-3.13-.51-2.7-2.55.18-.84,1.11-1.53,2.33-1.53s1.87.65,1.7,1.72h-.91c.08-.55-.26-.95-.99-.95-.67,0-1.14.32-1.23.76-.28,1.3,3.05.59,2.68,2.55-.19.9-1.12,1.58-2.33,1.58Z"/>
      <path class="cls-10" d="M431.82,35.23c-1.56,0-2.47-1.1-2.11-2.84.37-1.73,1.71-2.82,3.31-2.82s2.39,1.12,2.07,2.62c-.04.2-.09.36-.15.55h-4.38c-.17,1.11.48,1.72,1.41,1.72.82,0,1.43-.42,1.75-1.01h.98c-.49,1-1.54,1.78-2.9,1.78ZM430.73,32h3.46c.24-1.07-.44-1.66-1.38-1.66-.89,0-1.76.59-2.08,1.66Z"/>
      <path class="cls-10" d="M436.31,30.44l1.07-2.27h1.01l-1.44,2.27h-.64ZM437.93,30.44l1.07-2.27h1.01l-1.44,2.27h-.64Z"/>
      <path class="cls-10" d="M446.69,33.59h-3.04l-.89,1.55h-.96l3.99-6.93h1.05l1.04,6.93h-.96l-.23-1.55ZM446.08,29.33l-2.01,3.52h2.52l-.51-3.52Z"/>
      <path class="cls-10" d="M453.65,32.04c.24-1.12-.25-1.69-1.17-1.69s-1.69.58-1.94,1.76l-.64,3.03h-.91l1.17-5.48h.91l-.17.78c.48-.57,1.21-.88,1.95-.88,1.27,0,2.07.78,1.74,2.35l-.69,3.23h-.9l.66-3.1Z"/>
      <path class="cls-10" d="M457.31,35.23c-1.28,0-2.03-.7-1.88-1.7h.94c-.06.53.32.93,1.09.93.72,0,1.2-.36,1.29-.81.26-1.22-3.13-.51-2.7-2.55.18-.84,1.11-1.53,2.33-1.53s1.87.65,1.7,1.72h-.91c.08-.55-.26-.95-.99-.95-.67,0-1.14.32-1.23.76-.28,1.3,3.05.59,2.68,2.55-.19.9-1.12,1.58-2.33,1.58Z"/>
      <path class="cls-10" d="M461.12,29.66h.93l.28,4.6,2.34-4.6h.93l.35,4.61,2.22-4.61h.9l-2.87,5.48h-.94l-.39-4.35-2.24,4.35h-.94l-.55-5.48Z"/>
      <path class="cls-10" d="M471.16,35.23c-1.56,0-2.47-1.1-2.11-2.84.37-1.73,1.71-2.82,3.31-2.82s2.39,1.12,2.07,2.62c-.04.2-.09.36-.15.55h-4.38c-.17,1.11.48,1.72,1.41,1.72.82,0,1.43-.42,1.75-1.01h.98c-.49,1-1.54,1.78-2.9,1.78ZM470.07,32h3.46c.24-1.07-.44-1.66-1.38-1.66-.89,0-1.76.59-2.08,1.66Z"/>
      <path class="cls-10" d="M475.91,35.14h-.91l1.17-5.48h.91l-.19.89c.44-.61,1.11-.99,1.98-.99l-.2.94h-.24c-.87,0-1.61.39-1.88,1.66l-.63,2.98Z"/>
    </g>
    <g>
      <path class="cls-11" d="M535.49,136.08c0,2.88-1.91,5.21-4.27,5.21H4.43c-2.36,0-4.27-2.33-4.27-5.21v-61.78c0-2.88,1.91-5.21,4.27-5.21h526.79c2.36,0,4.27,2.33,4.27,5.21v61.78Z"/>
      <path class="cls-9" d="M535.69,113.63c0,.88-1.88,1.59-4.2,1.59H4.2c-2.32,0-4.2-.71-4.2-1.59v-28.98c0-.88,1.88-1.59,4.2-1.59h527.3c2.32,0,4.2.71,4.2,1.59v28.98Z"/>
    </g>
    <line class="cls-5" x1="272" y1="83.04" x2="272" y2="142.98"/>
    <g>
      <path class="cls-10" d="M39.82,128.48h-3.55l-.67,3.16h-.91l1.48-6.97h.91l-.65,3.06h3.55l.65-3.06h.91l-1.48,6.97h-.91l.67-3.16Z"/>
      <path class="cls-10" d="M43.95,131.73c-1.56,0-2.48-1.1-2.11-2.84.37-1.73,1.71-2.82,3.31-2.82s2.39,1.12,2.07,2.62c-.04.2-.09.36-.15.55h-4.38c-.17,1.11.48,1.72,1.41,1.72.82,0,1.43-.42,1.75-1.01h.98c-.49,1-1.54,1.78-2.9,1.78ZM42.87,128.5h3.46c.24-1.07-.44-1.66-1.38-1.66-.89,0-1.76.59-2.08,1.66Z"/>
    </g>
    <g>
      <path class="cls-10" d="M100.31,120.16h.93l.28,4.6,2.34-4.6h.93l.35,4.61,2.22-4.61h.9l-2.87,5.48h-.94l-.4-4.35-2.24,4.35h-.94l-.55-5.48Z"/>
      <path class="cls-10" d="M111.44,120.07c1.02,0,1.61.52,1.81,1.09l.21-1h.92l-1.16,5.48h-.92l.22-1.02c-.46.59-1.28,1.11-2.28,1.11-1.46,0-2.34-1.15-1.98-2.85.36-1.71,1.73-2.81,3.2-2.81ZM111.45,120.86c-1,0-2,.73-2.28,2.02-.27,1.29.41,2.05,1.41,2.05s2.02-.75,2.29-2.04c.27-1.27-.43-2.03-1.43-2.03Z"/>
      <path class="cls-10" d="M119.42,122.54c.24-1.12-.25-1.69-1.17-1.69s-1.69.58-1.94,1.76l-.64,3.03h-.91l1.16-5.48h.91l-.17.78c.48-.57,1.21-.88,1.95-.88,1.27,0,2.07.78,1.74,2.35l-.69,3.23h-.9l.66-3.1Z"/>
      <path class="cls-10" d="M122.36,120.9h-.71l.16-.75h.71l.29-1.38h.91l-.29,1.38h1.43l-.16.75h-1.43l-.69,3.23c-.11.54.04.73.6.73h.67l-.16.77h-.82c-.97,0-1.43-.4-1.2-1.5l.69-3.23Z"/>
      <path class="cls-10" d="M126.72,125.73c-1.28,0-2.03-.7-1.88-1.7h.94c-.06.53.32.93,1.09.93.72,0,1.2-.36,1.29-.81.26-1.22-3.13-.51-2.7-2.55.18-.84,1.11-1.53,2.33-1.53s1.87.65,1.7,1.72h-.91c.08-.55-.26-.95-.99-.95-.67,0-1.14.32-1.23.76-.28,1.3,3.05.59,2.68,2.55-.19.9-1.12,1.58-2.33,1.58Z"/>
      <path class="cls-10" d="M134.51,116.22h.91l-5.1,11.12h-.9l5.09-11.12Z"/>
    </g>
    <g>
      <path class="cls-10" d="M92.79,130.24h.91l-1.57,7.4h-.91l1.57-7.4Z"/>
      <path class="cls-10" d="M94.84,132.16h.91l-1.16,5.48h-.91l1.16-5.48ZM95.01,130.65c.07-.35.4-.62.75-.62.33,0,.54.27.47.62-.07.35-.4.62-.73.62-.35,0-.56-.27-.49-.62Z"/>
      <path class="cls-10" d="M97.71,130.24h.91l-.92,4.35,2.63-2.43h1.27l-3.16,2.73,2,2.75h-1.24l-1.64-2.42-.51,2.42h-.91l1.57-7.4Z"/>
      <path class="cls-10" d="M103.63,137.73c-1.56,0-2.48-1.1-2.11-2.84.37-1.73,1.71-2.82,3.31-2.82s2.39,1.12,2.07,2.62c-.04.2-.09.36-.15.55h-4.38c-.17,1.11.48,1.72,1.41,1.72.82,0,1.43-.42,1.75-1.01h.98c-.49,1-1.54,1.78-2.9,1.78ZM102.55,134.5h3.46c.24-1.07-.44-1.66-1.38-1.66-.89,0-1.76.59-2.08,1.66Z"/>
      <path class="cls-10" d="M109.4,137.73c-1.28,0-2.03-.7-1.88-1.7h.94c-.06.53.32.93,1.09.93.72,0,1.2-.36,1.29-.81.26-1.22-3.13-.51-2.7-2.55.18-.84,1.11-1.53,2.33-1.53s1.87.65,1.7,1.72h-.91c.08-.55-.26-.95-.99-.95-.67,0-1.14.32-1.23.76-.28,1.3,3.05.59,2.68,2.55-.19.9-1.12,1.58-2.33,1.58Z"/>
      <path class="cls-10" d="M117.19,128.22h.91l-5.1,11.12h-.9l5.09-11.12Z"/>
      <path class="cls-10" d="M119.04,130.24h.91l-1.57,7.4h-.91l1.57-7.4Z"/>
      <path class="cls-10" d="M122.29,137.73c-1.55,0-2.5-1.1-2.12-2.84.37-1.73,1.82-2.82,3.37-2.82s2.54,1.09,2.17,2.82c-.37,1.74-1.85,2.84-3.41,2.84ZM122.46,136.93c.95,0,2.02-.65,2.31-2.04.29-1.38-.48-2.03-1.42-2.03s-1.97.65-2.26,2.03c-.3,1.39.42,2.04,1.37,2.04Z"/>
      <path class="cls-10" d="M127.82,132.16l.72,4.64,2.69-4.64h.97l-3.31,5.48h-1.06l-.98-5.48h.98Z"/>
      <path class="cls-10" d="M134.28,137.73c-1.56,0-2.48-1.1-2.11-2.84.37-1.73,1.71-2.82,3.31-2.82s2.39,1.12,2.07,2.62c-.04.2-.09.36-.15.55h-4.38c-.17,1.11.48,1.72,1.41,1.72.82,0,1.43-.42,1.75-1.01h.98c-.49,1-1.54,1.78-2.9,1.78ZM133.2,134.5h3.46c.24-1.07-.44-1.66-1.38-1.66-.89,0-1.76.59-2.08,1.66Z"/>
      <path class="cls-10" d="M140.05,137.73c-1.28,0-2.03-.7-1.88-1.7h.94c-.06.53.32.93,1.09.93.72,0,1.2-.36,1.29-.81.26-1.22-3.13-.51-2.7-2.55.18-.84,1.11-1.53,2.33-1.53s1.87.65,1.7,1.72h-.91c.08-.55-.26-.95-.99-.95-.67,0-1.14.32-1.23.76-.28,1.3,3.05.59,2.68,2.55-.19.9-1.12,1.58-2.33,1.58Z"/>
    </g>
    <g>
      <path class="cls-10" d="M53.08,47.17h.97l.26,5.91,2.93-5.91h1.02l.35,5.89,2.78-5.89h.98l-3.5,6.97h-1.02l-.43-5.61-2.87,5.61h-1.01s-.47-6.97-.47-6.97Z"/>
      <path class="cls-10" d="M63.48,46.74h.91l-.58,2.71c.48-.58,1.23-.89,2-.89,1.22,0,2.02.78,1.69,2.35l-.69,3.23h-.9l.66-3.1c.24-1.12-.25-1.69-1.17-1.69s-1.69.58-1.94,1.76l-.64,3.03h-.91l1.57-7.4Z"/>
      <path class="cls-10" d="M73.25,48.66h.94l-5.01,8.06h-.94l1.64-2.64-1.06-5.42h1.01l.78,4.44,2.64-4.44Z"/>
      <path class="cls-10" d="M80.06,48.57c.86,0,1.56.44,1.8,1.07l.62-2.9h.92l-1.57,7.4h-.92l.22-1.03c-.46.61-1.28,1.12-2.28,1.12-1.47,0-2.35-1.15-1.99-2.85.36-1.71,1.73-2.81,3.21-2.81ZM80.06,49.36c-1,0-2,.73-2.28,2.02-.27,1.29.41,2.05,1.41,2.05s2.02-.75,2.29-2.04c.27-1.27-.43-2.03-1.43-2.03Z"/>
      <path class="cls-10" d="M85.73,54.23c-1.55,0-2.49-1.1-2.12-2.84.37-1.73,1.82-2.82,3.37-2.82s2.54,1.09,2.17,2.82c-.37,1.74-1.85,2.84-3.41,2.84ZM85.9,53.43c.95,0,2.02-.65,2.31-2.04.29-1.38-.48-2.03-1.42-2.03s-1.97.65-2.26,2.03c-.3,1.39.42,2.04,1.37,2.04Z"/>
      <path class="cls-10" d="M97.38,48.66h.94l-5.01,8.06h-.94l1.64-2.64-1.06-5.42h1.01l.78,4.44,2.64-4.44Z"/>
      <path class="cls-10" d="M100.43,54.23c-1.55,0-2.49-1.1-2.12-2.84.37-1.73,1.82-2.82,3.37-2.82s2.54,1.09,2.17,2.82c-.37,1.74-1.85,2.84-3.41,2.84ZM100.6,53.43c.95,0,2.02-.65,2.31-2.04.29-1.38-.48-2.03-1.42-2.03s-1.97.65-2.26,2.03c-.3,1.39.42,2.04,1.37,2.04Z"/>
      <path class="cls-10" d="M109.32,54.14h-.91l.17-.81c-.47.57-1.21.89-1.94.89-1.26,0-2.08-.78-1.75-2.35l.68-3.21h.9l-.66,3.09c-.24,1.11.25,1.68,1.17,1.68s1.69-.58,1.94-1.76l.64-3.01h.91l-1.17,5.48Z"/>
      <path class="cls-10" d="M114.05,48.66h.93l.28,4.6,2.34-4.6h.93l.35,4.61,2.22-4.61h.9l-2.87,5.48h-.94l-.39-4.35-2.24,4.35h-.94l-.55-5.48Z"/>
      <path class="cls-10" d="M125.18,48.57c1.02,0,1.61.52,1.81,1.09l.21-1h.92l-1.17,5.48h-.92l.22-1.02c-.46.59-1.28,1.11-2.28,1.11-1.46,0-2.34-1.15-1.98-2.85.36-1.71,1.73-2.81,3.2-2.81ZM125.19,49.36c-1,0-2,.73-2.28,2.02-.27,1.29.41,2.05,1.41,2.05s2.02-.75,2.29-2.04c.27-1.27-.43-2.03-1.43-2.03Z"/>
      <path class="cls-10" d="M133.16,51.04c.24-1.12-.25-1.69-1.17-1.69s-1.69.58-1.94,1.76l-.64,3.03h-.91l1.17-5.48h.91l-.17.78c.48-.57,1.21-.88,1.95-.88,1.27,0,2.07.78,1.74,2.35l-.69,3.23h-.9l.66-3.1Z"/>
      <path class="cls-10" d="M136.1,49.41h-.71l.16-.75h.71l.29-1.38h.91l-.29,1.38h1.43l-.16.75h-1.43l-.69,3.23c-.11.54.04.73.6.73h.67l-.16.77h-.82c-.97,0-1.43-.4-1.2-1.5l.69-3.23Z"/>
      <path class="cls-10" d="M142.41,49.41h-.71l.16-.75h.71l.29-1.38h.91l-.29,1.38h1.43l-.16.75h-1.43l-.69,3.23c-.11.54.04.73.6.73h.67l-.16.77h-.82c-.97,0-1.43-.4-1.2-1.5l.69-3.23Z"/>
      <path class="cls-10" d="M147.21,54.23c-1.55,0-2.49-1.1-2.12-2.84.37-1.73,1.82-2.82,3.37-2.82s2.54,1.09,2.17,2.82c-.37,1.74-1.85,2.84-3.41,2.84ZM147.38,53.43c.95,0,2.02-.65,2.31-2.04.29-1.38-.48-2.03-1.42-2.03s-1.97.65-2.26,2.03c-.3,1.39.42,2.04,1.37,2.04Z"/>
      <path class="cls-10" d="M157.36,48.57c1,0,1.61.5,1.81,1.09l.21-1h.92l-1.19,5.6c-.32,1.51-1.56,2.58-3.17,2.58-1.44,0-2.31-.73-2.24-1.9h.9c.06.66.61,1.11,1.51,1.11.97,0,1.83-.62,2.08-1.79l.24-1.15c-.46.59-1.28,1.12-2.28,1.12-1.47,0-2.35-1.15-1.99-2.85.36-1.71,1.73-2.81,3.2-2.81ZM157.37,49.36c-1,0-2,.73-2.28,2.02-.27,1.29.41,2.05,1.41,2.05s2.02-.75,2.29-2.04c.27-1.27-.43-2.03-1.43-2.03Z"/>
      <path class="cls-10" d="M163.04,54.23c-1.55,0-2.49-1.1-2.12-2.84.37-1.73,1.82-2.82,3.37-2.82s2.54,1.09,2.17,2.82c-.37,1.74-1.85,2.84-3.41,2.84ZM163.21,53.43c.95,0,2.02-.65,2.31-2.04.29-1.38-.48-2.03-1.42-2.03s-1.97.65-2.26,2.03c-.3,1.39.42,2.04,1.37,2.04Z"/>
      <path class="cls-10" d="M170.95,49.41h-.71l.16-.75h.71l.29-1.38h.91l-.29,1.38h1.43l-.16.75h-1.43l-.69,3.23c-.11.54.04.73.6.73h.67l-.16.77h-.82c-.97,0-1.43-.4-1.2-1.5l.69-3.23Z"/>
      <path class="cls-10" d="M175.75,54.23c-1.55,0-2.49-1.1-2.12-2.84.37-1.73,1.82-2.82,3.37-2.82s2.54,1.09,2.17,2.82c-.37,1.74-1.85,2.84-3.41,2.84ZM175.92,53.43c.95,0,2.02-.65,2.31-2.04.29-1.38-.48-2.03-1.42-2.03s-1.97.65-2.26,2.03c-.3,1.39.42,2.04,1.37,2.04Z"/>
      <path class="cls-10" d="M183.66,49.41h-.71l.16-.75h.71l.29-1.38h.91l-.29,1.38h1.43l-.16.75h-1.43l-.69,3.23c-.11.54.04.73.6.73h.67l-.16.77h-.82c-.97,0-1.43-.4-1.2-1.5l.69-3.23Z"/>
      <path class="cls-10" d="M187.67,46.74h.91l-.58,2.71c.48-.58,1.23-.89,2-.89,1.22,0,2.02.78,1.69,2.35l-.69,3.23h-.9l.66-3.1c.24-1.12-.25-1.69-1.17-1.69s-1.69.58-1.94,1.76l-.64,3.03h-.91l1.57-7.4Z"/>
      <path class="cls-10" d="M194.84,54.23c-1.56,0-2.48-1.1-2.11-2.84.37-1.73,1.71-2.82,3.31-2.82s2.39,1.12,2.07,2.62c-.04.2-.09.36-.15.55h-4.38c-.17,1.11.48,1.72,1.41,1.72.82,0,1.43-.42,1.75-1.01h.98c-.49,1-1.54,1.78-2.9,1.78ZM193.76,51h3.46c.24-1.07-.44-1.66-1.38-1.66-.89,0-1.76.59-2.08,1.66Z"/>
      <path class="cls-10" d="M205.72,49.4l-3.52,3.99h2.69l-.16.75h-3.73l.16-.75,3.51-3.99h-2.64l.16-.74h3.69l-.16.74Z"/>
      <path class="cls-10" d="M208.28,54.23c-1.55,0-2.49-1.1-2.12-2.84.37-1.73,1.82-2.82,3.37-2.82s2.54,1.09,2.17,2.82c-.37,1.74-1.85,2.84-3.41,2.84ZM208.45,53.43c.95,0,2.02-.65,2.31-2.04.29-1.38-.48-2.03-1.42-2.03s-1.97.65-2.26,2.03c-.3,1.39.42,2.04,1.37,2.04Z"/>
      <path class="cls-10" d="M214.68,54.23c-1.55,0-2.49-1.1-2.12-2.84.37-1.73,1.82-2.82,3.37-2.82s2.54,1.09,2.17,2.82c-.37,1.74-1.85,2.84-3.41,2.84ZM214.85,53.43c.95,0,2.02-.65,2.31-2.04.29-1.38-.48-2.03-1.42-2.03s-1.97.65-2.26,2.03c-.3,1.39.42,2.04,1.37,2.04Z"/>
      <path class="cls-10" d="M219.85,54.2c-.35,0-.56-.27-.49-.62.07-.35.4-.62.75-.62.33,0,.54.27.47.62-.07.35-.4.62-.73.62ZM221.99,47.08c1.31,0,2.04.79,1.77,2.06-.31,1.46-1.45,2.06-2.85,2.06l-.23.95h-.79l.3-1.58h.29c1.14,0,2.16-.22,2.41-1.43.17-.8-.24-1.3-1.05-1.3s-1.43.47-1.59,1.25h-.86c.25-1.21,1.3-2.01,2.61-2.01Z"/>
    </g>
    <g>
      <path class="cls-10" d="M43.19,69h.97l.26,5.91,2.94-5.91h1.02l.35,5.89,2.78-5.89h.98l-3.5,6.97h-1.02l-.43-5.61-2.87,5.61h-1.01s-.47-6.97-.47-6.97Z"/>
      <path class="cls-10" d="M53.58,68.57h.91l-.58,2.71c.48-.58,1.23-.89,2-.89,1.22,0,2.02.78,1.69,2.35l-.69,3.23h-.9l.66-3.1c.24-1.12-.25-1.69-1.17-1.69s-1.69.58-1.94,1.76l-.64,3.03h-.91l1.57-7.4Z"/>
      <path class="cls-10" d="M63.35,70.49h.94l-5.01,8.06h-.94l1.64-2.64-1.06-5.42h1.01l.78,4.44,2.64-4.44Z"/>
      <path class="cls-10" d="M70.16,70.4c.86,0,1.56.44,1.8,1.07l.62-2.9h.92l-1.57,7.4h-.92l.22-1.03c-.46.61-1.28,1.12-2.28,1.12-1.47,0-2.35-1.15-1.99-2.85.36-1.71,1.73-2.81,3.21-2.81ZM70.16,71.19c-1,0-2,.73-2.28,2.02-.27,1.29.41,2.05,1.41,2.05s2.02-.75,2.29-2.04c.27-1.27-.43-2.03-1.43-2.03Z"/>
      <path class="cls-10" d="M75.83,76.06c-1.55,0-2.49-1.1-2.12-2.84.37-1.73,1.82-2.82,3.37-2.82s2.54,1.09,2.17,2.82c-.37,1.74-1.85,2.84-3.41,2.84ZM76,75.26c.95,0,2.02-.65,2.31-2.04.29-1.38-.48-2.03-1.42-2.03s-1.97.65-2.26,2.03c-.3,1.39.42,2.04,1.37,2.04Z"/>
      <path class="cls-10" d="M84.53,72.87c.24-1.12-.25-1.69-1.17-1.69s-1.69.58-1.94,1.76l-.64,3.03h-.91l1.17-5.48h.91l-.17.78c.48-.57,1.21-.88,1.95-.88,1.27,0,2.07.78,1.74,2.35l-.69,3.23h-.9l.66-3.1Z"/>
      <path class="cls-10" d="M86.81,71.27l1.07-2.27h1.01l-1.44,2.27h-.64Z"/>
      <path class="cls-10" d="M89.66,71.24h-.71l.16-.75h.71l.29-1.38h.91l-.29,1.38h1.43l-.16.75h-1.43l-.69,3.23c-.11.54.04.73.6.73h.67l-.16.77h-.82c-.97,0-1.43-.4-1.2-1.5l.69-3.23Z"/>
      <path class="cls-10" d="M99.71,70.49h.94l-5.01,8.06h-.94l1.64-2.64-1.06-5.42h1.01l.78,4.44,2.64-4.44Z"/>
      <path class="cls-10" d="M102.76,76.06c-1.55,0-2.49-1.1-2.12-2.84.37-1.73,1.82-2.82,3.37-2.82s2.54,1.09,2.17,2.82c-.37,1.74-1.85,2.84-3.41,2.84ZM102.93,75.26c.95,0,2.02-.65,2.31-2.04.29-1.38-.48-2.03-1.42-2.03s-1.97.65-2.26,2.03c-.3,1.39.42,2.04,1.37,2.04Z"/>
      <path class="cls-10" d="M111.65,75.97h-.91l.17-.81c-.47.57-1.21.89-1.94.89-1.26,0-2.08-.78-1.75-2.35l.68-3.21h.9l-.66,3.09c-.24,1.11.25,1.68,1.17,1.68s1.69-.58,1.94-1.76l.64-3.01h.91l-1.17,5.48Z"/>
      <path class="cls-10" d="M116.38,70.49h.93l.28,4.6,2.34-4.6h.93l.35,4.61,2.22-4.61h.9l-2.87,5.48h-.94l-.39-4.35-2.24,4.35h-.94l-.55-5.48Z"/>
      <path class="cls-10" d="M127.51,70.4c1.02,0,1.61.52,1.81,1.09l.21-1h.92l-1.17,5.48h-.92l.22-1.02c-.46.59-1.28,1.11-2.28,1.11-1.46,0-2.34-1.15-1.98-2.85.36-1.71,1.73-2.81,3.2-2.81ZM127.52,71.19c-1,0-2,.73-2.28,2.02-.27,1.29.41,2.05,1.41,2.05s2.02-.75,2.29-2.04c.27-1.27-.43-2.03-1.43-2.03Z"/>
      <path class="cls-10" d="M135.49,72.87c.24-1.12-.25-1.69-1.17-1.69s-1.69.58-1.94,1.76l-.64,3.03h-.91l1.17-5.48h.91l-.17.78c.48-.57,1.21-.88,1.95-.88,1.27,0,2.07.78,1.74,2.35l-.69,3.23h-.9l.66-3.1Z"/>
      <path class="cls-10" d="M138.43,71.24h-.71l.16-.75h.71l.29-1.38h.91l-.29,1.38h1.43l-.16.75h-1.43l-.69,3.23c-.11.54.04.73.6.73h.67l-.16.77h-.82c-.97,0-1.43-.4-1.2-1.5l.69-3.23Z"/>
      <path class="cls-10" d="M144.74,71.24h-.71l.16-.75h.71l.29-1.38h.91l-.29,1.38h1.43l-.16.75h-1.43l-.69,3.23c-.11.54.04.73.6.73h.67l-.16.77h-.82c-.97,0-1.43-.4-1.2-1.5l.69-3.23Z"/>
      <path class="cls-10" d="M149.54,76.06c-1.55,0-2.49-1.1-2.12-2.84.37-1.73,1.82-2.82,3.37-2.82s2.54,1.09,2.17,2.82c-.37,1.74-1.85,2.84-3.41,2.84ZM149.71,75.26c.95,0,2.02-.65,2.31-2.04.29-1.38-.48-2.03-1.42-2.03s-1.97.65-2.26,2.03c-.3,1.39.42,2.04,1.37,2.04Z"/>
      <path class="cls-10" d="M159.69,70.4c1,0,1.61.5,1.81,1.09l.21-1h.92l-1.19,5.6c-.32,1.51-1.56,2.58-3.17,2.58-1.44,0-2.31-.73-2.24-1.9h.9c.06.66.61,1.11,1.51,1.11.97,0,1.83-.62,2.08-1.79l.24-1.15c-.46.59-1.28,1.12-2.28,1.12-1.47,0-2.35-1.15-1.99-2.85.36-1.71,1.73-2.81,3.2-2.81ZM159.7,71.19c-1,0-2,.73-2.28,2.02-.27,1.29.41,2.05,1.41,2.05s2.02-.75,2.29-2.04c.27-1.27-.43-2.03-1.43-2.03Z"/>
      <path class="cls-10" d="M165.37,76.06c-1.55,0-2.49-1.1-2.12-2.84.37-1.73,1.82-2.82,3.37-2.82s2.54,1.09,2.17,2.82c-.37,1.74-1.85,2.84-3.41,2.84ZM165.54,75.26c.95,0,2.02-.65,2.31-2.04.29-1.38-.48-2.03-1.42-2.03s-1.97.65-2.26,2.03c-.3,1.39.42,2.04,1.37,2.04Z"/>
      <path class="cls-10" d="M173.28,71.24h-.71l.16-.75h.71l.29-1.38h.91l-.29,1.38h1.43l-.16.75h-1.43l-.69,3.23c-.11.54.04.73.6.73h.67l-.16.77h-.82c-.97,0-1.43-.4-1.2-1.5l.69-3.23Z"/>
      <path class="cls-10" d="M178.08,76.06c-1.55,0-2.49-1.1-2.12-2.84.37-1.73,1.82-2.82,3.37-2.82s2.54,1.09,2.17,2.82c-.37,1.74-1.85,2.84-3.41,2.84ZM178.25,75.26c.95,0,2.02-.65,2.31-2.04.29-1.38-.48-2.03-1.42-2.03s-1.97.65-2.26,2.03c-.3,1.39.42,2.04,1.37,2.04Z"/>
      <path class="cls-10" d="M185.99,71.24h-.71l.16-.75h.71l.29-1.38h.91l-.29,1.38h1.43l-.16.75h-1.43l-.69,3.23c-.11.54.04.73.6.73h.67l-.16.77h-.82c-.97,0-1.43-.4-1.2-1.5l.69-3.23Z"/>
      <path class="cls-10" d="M189.99,68.57h.91l-.58,2.71c.48-.58,1.23-.89,2-.89,1.22,0,2.02.78,1.69,2.35l-.69,3.23h-.9l.66-3.1c.24-1.12-.25-1.69-1.17-1.69s-1.69.58-1.94,1.76l-.64,3.03h-.91l1.57-7.4Z"/>
      <path class="cls-10" d="M197.17,76.06c-1.56,0-2.48-1.1-2.11-2.84.37-1.73,1.71-2.82,3.31-2.82s2.39,1.12,2.07,2.62c-.04.2-.09.36-.15.55h-4.38c-.17,1.11.48,1.72,1.41,1.72.82,0,1.43-.42,1.75-1.01h.98c-.49,1-1.54,1.78-2.9,1.78ZM196.09,72.83h3.46c.24-1.07-.44-1.66-1.38-1.66-.89,0-1.76.59-2.08,1.66Z"/>
      <path class="cls-10" d="M207.21,70.4c1.36,0,2.1.7,2.13,1.85h-.98c-.05-.66-.51-1.08-1.32-1.08-1,0-1.89.71-2.18,2.05-.29,1.36.3,2.07,1.3,2.07.81,0,1.43-.39,1.78-1.08h.98c-.51,1.09-1.56,1.85-2.92,1.85-1.56,0-2.44-1.1-2.07-2.84.37-1.72,1.71-2.82,3.27-2.82Z"/>
      <path class="cls-10" d="M213.21,70.4c1.02,0,1.61.52,1.81,1.09l.21-1h.92l-1.17,5.48h-.92l.22-1.02c-.46.59-1.28,1.11-2.28,1.11-1.46,0-2.34-1.15-1.98-2.85.36-1.71,1.73-2.81,3.2-2.81ZM213.22,71.19c-1,0-2,.73-2.28,2.02-.27,1.29.41,2.05,1.41,2.05s2.02-.75,2.29-2.04c.27-1.27-.43-2.03-1.43-2.03Z"/>
      <path class="cls-10" d="M218.02,70.49l.72,4.64,2.69-4.64h.97l-3.31,5.48h-1.06l-.98-5.48h.98Z"/>
      <path class="cls-10" d="M224.48,76.06c-1.56,0-2.48-1.1-2.11-2.84.37-1.73,1.71-2.82,3.31-2.82s2.39,1.12,2.07,2.62c-.04.2-.09.36-.15.55h-4.38c-.17,1.11.48,1.72,1.41,1.72.82,0,1.43-.42,1.75-1.01h.98c-.49,1-1.54,1.78-2.9,1.78ZM223.4,72.83h3.46c.24-1.07-.44-1.66-1.38-1.66-.89,0-1.76.59-2.08,1.66Z"/>
      <path class="cls-10" d="M229.47,76.03c-.35,0-.56-.27-.49-.62.07-.35.4-.62.75-.62.33,0,.54.27.47.62-.07.35-.4.62-.73.62ZM231.61,68.91c1.31,0,2.04.79,1.77,2.06-.31,1.46-1.45,2.06-2.85,2.06l-.23.95h-.79l.3-1.58h.29c1.14,0,2.16-.22,2.41-1.43.17-.8-.24-1.3-1.05-1.3s-1.43.47-1.59,1.25h-.86c.25-1.21,1.3-2.01,2.61-2.01Z"/>
    </g>
    <g>
      <path class="cls-10" d="M351.58,54.14h-2.6l1.48-6.97h2.5c1.47,0,2.04.8,1.83,1.77-.19.88-.84,1.39-1.56,1.61.73.13,1.2.86,1.01,1.72-.22,1.05-1.23,1.87-2.67,1.87ZM352.15,50.93h-1.58l-.52,2.46h1.61c.9,0,1.54-.45,1.7-1.21.16-.77-.31-1.25-1.2-1.25ZM352.72,47.92h-1.51l-.48,2.26h1.53c.85,0,1.43-.42,1.58-1.13.15-.69-.23-1.13-1.12-1.13Z"/>
      <path class="cls-10" d="M357.46,54.23c-1.56,0-2.48-1.1-2.11-2.84.37-1.73,1.71-2.82,3.31-2.82s2.39,1.12,2.07,2.62c-.04.2-.09.36-.15.55h-4.38c-.17,1.11.48,1.72,1.41,1.72.82,0,1.43-.42,1.75-1.01h.98c-.49,1-1.54,1.78-2.9,1.78ZM356.38,51h3.46c.24-1.07-.44-1.66-1.38-1.66-.89,0-1.75.59-2.08,1.66Z"/>
      <path class="cls-10" d="M364.83,48.57c1.36,0,2.1.7,2.13,1.85h-.98c-.05-.66-.51-1.08-1.32-1.08-1,0-1.89.71-2.17,2.05-.29,1.36.3,2.07,1.3,2.07.81,0,1.43-.39,1.78-1.08h.98c-.51,1.09-1.56,1.85-2.92,1.85-1.56,0-2.44-1.1-2.07-2.84.37-1.72,1.71-2.82,3.27-2.82Z"/>
      <path class="cls-10" d="M370.83,48.57c1.02,0,1.61.52,1.81,1.09l.21-1h.92l-1.17,5.48h-.92l.22-1.02c-.46.59-1.28,1.11-2.28,1.11-1.46,0-2.34-1.15-1.98-2.85.36-1.71,1.73-2.81,3.2-2.81ZM370.84,49.36c-1,0-2,.73-2.28,2.02s.41,2.05,1.41,2.05,2.02-.75,2.29-2.04c.27-1.27-.43-2.03-1.43-2.03Z"/>
      <path class="cls-10" d="M379,54.14h-.91l.17-.81c-.47.57-1.21.89-1.94.89-1.26,0-2.08-.78-1.75-2.35l.68-3.21h.9l-.66,3.09c-.24,1.11.25,1.68,1.17,1.68s1.69-.58,1.94-1.76l.64-3.01h.91l-1.17,5.48Z"/>
      <path class="cls-10" d="M382.46,54.23c-1.28,0-2.03-.7-1.88-1.7h.94c-.06.53.32.93,1.09.93.72,0,1.2-.36,1.29-.81.26-1.22-3.13-.51-2.7-2.55.18-.84,1.12-1.53,2.33-1.53s1.87.65,1.7,1.72h-.91c.08-.55-.26-.95-.99-.95-.67,0-1.14.32-1.23.76-.28,1.3,3.05.59,2.68,2.55-.19.9-1.12,1.58-2.33,1.58Z"/>
      <path class="cls-10" d="M388.11,54.23c-1.56,0-2.48-1.1-2.11-2.84.37-1.73,1.71-2.82,3.31-2.82s2.39,1.12,2.07,2.62c-.04.2-.09.36-.15.55h-4.38c-.17,1.11.48,1.72,1.41,1.72.82,0,1.43-.42,1.75-1.01h.98c-.49,1-1.54,1.78-2.9,1.78ZM387.03,51h3.46c.24-1.07-.44-1.66-1.38-1.66-.89,0-1.75.59-2.08,1.66Z"/>
      <path class="cls-10" d="M396.98,47.61l-1.28,6.02h.44l-.1.47h-1.79l.1-.47h.44l1.28-6.02h-.44l.1-.48h1.79l-.1.48h-.44Z"/>
      <path class="cls-10" d="M401.34,46.74h.91l-1.57,7.4h-.91l1.57-7.4Z"/>
      <path class="cls-10" d="M403.39,48.66h.91l-1.17,5.48h-.91l1.17-5.48ZM403.56,47.15c.07-.35.4-.62.75-.62.33,0,.54.27.47.62-.08.35-.4.62-.73.62-.35,0-.56-.27-.49-.62Z"/>
      <path class="cls-10" d="M406.26,46.74h.91l-.92,4.35,2.63-2.43h1.27l-3.16,2.73,2,2.75h-1.24l-1.63-2.42-.51,2.42h-.91l1.57-7.4Z"/>
      <path class="cls-10" d="M412.18,54.23c-1.56,0-2.48-1.1-2.11-2.84.37-1.73,1.71-2.82,3.31-2.82s2.39,1.12,2.07,2.62c-.04.2-.09.36-.15.55h-4.38c-.17,1.11.48,1.72,1.41,1.72.82,0,1.43-.42,1.75-1.01h.98c-.49,1-1.54,1.78-2.9,1.78ZM411.1,51h3.46c.24-1.07-.44-1.66-1.38-1.66-.89,0-1.75.59-2.08,1.66Z"/>
      <path class="cls-10" d="M422.15,48.57c1.02,0,1.61.52,1.81,1.09l.21-1h.92l-1.17,5.48h-.92l.22-1.02c-.46.59-1.28,1.11-2.28,1.11-1.46,0-2.34-1.15-1.98-2.85.36-1.71,1.73-2.81,3.2-2.81ZM422.16,49.36c-1,0-2,.73-2.28,2.02s.41,2.05,1.41,2.05,2.02-.75,2.29-2.04c.27-1.27-.43-2.03-1.43-2.03Z"/>
      <path class="cls-10" d="M430.13,51.04c.24-1.12-.25-1.69-1.17-1.69s-1.69.58-1.94,1.76l-.64,3.03h-.91l1.17-5.48h.91l-.17.78c.48-.57,1.21-.88,1.95-.88,1.27,0,2.07.78,1.74,2.35l-.69,3.23h-.9l.66-3.1Z"/>
      <path class="cls-10" d="M433.03,48.66h.91l-1.17,5.48h-.91l1.17-5.48ZM433.2,47.15c.07-.35.4-.62.75-.62.33,0,.54.27.47.62-.08.35-.4.62-.73.62-.35,0-.56-.27-.49-.62Z"/>
      <path class="cls-10" d="M442.89,51.04c.24-1.12-.24-1.69-1.14-1.69s-1.67.59-1.92,1.77l-.64,3.02h-.9l.66-3.1c.24-1.12-.24-1.69-1.14-1.69s-1.68.59-1.93,1.77l-.64,3.02h-.91l1.17-5.48h.91l-.17.79c.48-.58,1.2-.89,1.92-.89.9,0,1.56.4,1.75,1.22.49-.79,1.36-1.22,2.2-1.22,1.25,0,2.05.78,1.72,2.35l-.69,3.23h-.9l.66-3.1Z"/>
      <path class="cls-10" d="M448.06,48.57c1.02,0,1.61.52,1.81,1.09l.21-1h.92l-1.17,5.48h-.92l.22-1.02c-.46.59-1.28,1.11-2.28,1.11-1.46,0-2.34-1.15-1.98-2.85.36-1.71,1.73-2.81,3.2-2.81ZM448.08,49.36c-1,0-2,.73-2.28,2.02s.41,2.05,1.41,2.05,2.02-.75,2.29-2.04c.27-1.27-.43-2.03-1.43-2.03Z"/>
      <path class="cls-10" d="M452.95,46.74h.91l-1.57,7.4h-.91l1.57-7.4Z"/>
      <path class="cls-10" d="M455.76,54.23c-1.28,0-2.03-.7-1.88-1.7h.94c-.06.53.32.93,1.09.93.72,0,1.2-.36,1.29-.81.26-1.22-3.13-.51-2.7-2.55.18-.84,1.12-1.53,2.33-1.53s1.87.65,1.7,1.72h-.91c.08-.55-.26-.95-.99-.95-.67,0-1.14.32-1.23.76-.28,1.3,3.05.59,2.68,2.55-.19.9-1.12,1.58-2.33,1.58Z"/>
      <path class="cls-10" d="M459.34,54.2c-.35,0-.56-.27-.49-.62.07-.35.4-.62.75-.62.33,0,.54.27.47.62-.07.35-.4.62-.73.62Z"/>
    </g>
    <g>
      <path class="cls-10" d="M332.5,75.97h-2.6l1.48-6.97h2.5c1.47,0,2.04.8,1.83,1.77-.19.88-.84,1.39-1.56,1.61.73.13,1.2.86,1.01,1.72-.22,1.05-1.23,1.87-2.67,1.87ZM333.07,72.76h-1.58l-.52,2.46h1.61c.9,0,1.54-.45,1.7-1.21.16-.77-.31-1.25-1.2-1.25ZM333.64,69.75h-1.51l-.48,2.26h1.53c.85,0,1.43-.42,1.58-1.13.15-.69-.23-1.13-1.12-1.13Z"/>
      <path class="cls-10" d="M338.38,76.06c-1.56,0-2.47-1.1-2.11-2.84.37-1.73,1.71-2.82,3.31-2.82s2.39,1.12,2.07,2.62c-.04.2-.09.36-.15.55h-4.38c-.17,1.11.48,1.72,1.41,1.72.82,0,1.43-.42,1.75-1.01h.98c-.49,1-1.54,1.78-2.9,1.78ZM337.3,72.83h3.46c.24-1.07-.44-1.66-1.38-1.66-.89,0-1.76.59-2.08,1.66Z"/>
      <path class="cls-10" d="M345.75,70.4c1.36,0,2.1.7,2.13,1.85h-.98c-.05-.66-.51-1.08-1.32-1.08-1,0-1.89.71-2.18,2.05-.29,1.36.3,2.07,1.3,2.07.81,0,1.43-.39,1.78-1.08h.98c-.51,1.09-1.56,1.85-2.92,1.85-1.56,0-2.43-1.1-2.07-2.84.37-1.72,1.71-2.82,3.27-2.82Z"/>
      <path class="cls-10" d="M351.74,70.4c1.02,0,1.61.52,1.81,1.09l.21-1h.92l-1.17,5.48h-.92l.22-1.02c-.46.59-1.28,1.11-2.29,1.11-1.46,0-2.34-1.15-1.98-2.85.36-1.71,1.73-2.81,3.2-2.81ZM351.76,71.19c-1,0-2,.73-2.28,2.02-.27,1.29.41,2.05,1.41,2.05s2.02-.75,2.29-2.04c.27-1.27-.43-2.03-1.43-2.03Z"/>
      <path class="cls-10" d="M359.92,75.97h-.91l.17-.81c-.47.57-1.21.89-1.94.89-1.26,0-2.08-.78-1.75-2.35l.68-3.21h.9l-.66,3.09c-.24,1.11.25,1.68,1.17,1.68s1.69-.58,1.94-1.76l.64-3.01h.91l-1.17,5.48Z"/>
      <path class="cls-10" d="M363.38,76.06c-1.28,0-2.03-.7-1.88-1.7h.94c-.06.53.32.93,1.09.93.72,0,1.2-.36,1.29-.81.26-1.22-3.13-.51-2.7-2.55.18-.84,1.11-1.53,2.33-1.53s1.87.65,1.7,1.72h-.91c.08-.55-.26-.95-.99-.95-.67,0-1.14.32-1.23.76-.28,1.3,3.05.59,2.68,2.55-.19.9-1.12,1.58-2.33,1.58Z"/>
      <path class="cls-10" d="M369.03,76.06c-1.56,0-2.47-1.1-2.11-2.84.37-1.73,1.71-2.82,3.31-2.82s2.39,1.12,2.07,2.62c-.04.2-.09.36-.15.55h-4.38c-.17,1.11.48,1.72,1.41,1.72.82,0,1.43-.42,1.75-1.01h.98c-.49,1-1.54,1.78-2.9,1.78ZM367.95,72.83h3.46c.24-1.07-.44-1.66-1.38-1.66-.89,0-1.76.59-2.08,1.66Z"/>
      <path class="cls-10" d="M377.9,69.44l-1.28,6.02h.44l-.1.47h-1.79l.1-.47h.44l1.28-6.02h-.44l.1-.48h1.79l-.1.48h-.44Z"/>
      <path class="cls-10" d="M378.56,71.27l1.07-2.27h1.01l-1.44,2.27h-.64Z"/>
      <path class="cls-10" d="M388.77,72.87c.24-1.12-.24-1.69-1.14-1.69s-1.67.59-1.92,1.77l-.64,3.02h-.9l.66-3.1c.24-1.12-.24-1.69-1.14-1.69s-1.67.59-1.93,1.77l-.64,3.02h-.91l1.17-5.48h.91l-.17.79c.48-.58,1.2-.89,1.92-.89.9,0,1.56.4,1.75,1.22.49-.79,1.36-1.22,2.2-1.22,1.25,0,2.05.78,1.72,2.35l-.69,3.23h-.9l.66-3.1Z"/>
      <path class="cls-10" d="M396.61,70.4c1.02,0,1.61.52,1.81,1.09l.21-1h.92l-1.17,5.48h-.92l.22-1.02c-.46.59-1.28,1.11-2.29,1.11-1.46,0-2.34-1.15-1.98-2.85.36-1.71,1.73-2.81,3.2-2.81ZM396.63,71.19c-1,0-2,.73-2.28,2.02-.27,1.29.41,2.05,1.41,2.05s2.02-.75,2.29-2.04c.27-1.27-.43-2.03-1.43-2.03Z"/>
      <path class="cls-10" d="M401.11,71.24h-.71l.16-.75h.71l.08-.39c.26-1.22.98-1.77,2.38-1.77l-.16.76c-.82,0-1.15.3-1.3,1.01l-.08.39h1.15l-.16.75h-1.15l-1,4.73h-.91l1-4.73Z"/>
      <path class="cls-10" d="M404.13,75.97h-.91l1.17-5.48h.91l-.19.89c.44-.61,1.11-.99,1.98-.99l-.2.94h-.24c-.87,0-1.61.39-1.88,1.66l-.63,2.98Z"/>
      <path class="cls-10" d="M410.39,70.4c1.02,0,1.61.52,1.81,1.09l.21-1h.92l-1.17,5.48h-.92l.22-1.02c-.46.59-1.28,1.11-2.29,1.11-1.46,0-2.34-1.15-1.98-2.85.36-1.71,1.73-2.81,3.2-2.81ZM410.41,71.19c-1,0-2,.73-2.28,2.02-.27,1.29.41,2.05,1.41,2.05s2.02-.75,2.29-2.04c.27-1.27-.43-2.03-1.43-2.03Z"/>
      <path class="cls-10" d="M414.88,70.49h.91l-1.17,5.48h-.91l1.17-5.48ZM415.05,68.98c.07-.35.4-.62.75-.62.33,0,.54.27.47.62-.07.35-.4.62-.73.62-.35,0-.56-.27-.49-.62Z"/>
      <path class="cls-10" d="M419.62,70.4c.86,0,1.56.44,1.8,1.07l.62-2.9h.92l-1.57,7.4h-.92l.22-1.03c-.46.61-1.28,1.12-2.28,1.12-1.47,0-2.35-1.15-1.99-2.85.36-1.71,1.73-2.81,3.21-2.81ZM419.63,71.19c-1,0-2,.73-2.28,2.02-.27,1.29.41,2.05,1.41,2.05s2.02-.75,2.29-2.04c.27-1.27-.43-2.03-1.43-2.03Z"/>
      <path class="cls-10" d="M427.97,76.06c-1.55,0-2.49-1.1-2.12-2.84.37-1.73,1.82-2.82,3.37-2.82s2.54,1.09,2.17,2.82c-.37,1.74-1.85,2.84-3.41,2.84ZM428.14,75.26c.95,0,2.02-.65,2.31-2.04.29-1.38-.48-2.03-1.42-2.03s-1.97.65-2.26,2.03c-.29,1.39.42,2.04,1.37,2.04Z"/>
      <path class="cls-10" d="M433.18,71.24h-.71l.16-.75h.71l.08-.39c.26-1.22.98-1.77,2.38-1.77l-.16.76c-.82,0-1.15.3-1.3,1.01l-.08.39h1.15l-.16.75h-1.15l-1,4.73h-.91l1-4.73Z"/>
      <path class="cls-10" d="M439.17,71.24h-.71l.16-.75h.71l.29-1.38h.91l-.29,1.38h1.43l-.16.75h-1.43l-.69,3.23c-.11.54.04.73.6.73h.67l-.16.77h-.82c-.97,0-1.43-.4-1.2-1.5l.69-3.23Z"/>
      <path class="cls-10" d="M443.17,68.57h.91l-.58,2.71c.48-.58,1.23-.89,2-.89,1.22,0,2.02.78,1.69,2.35l-.69,3.23h-.9l.66-3.1c.24-1.12-.25-1.69-1.17-1.69s-1.69.58-1.94,1.76l-.64,3.03h-.91l1.57-7.4Z"/>
      <path class="cls-10" d="M450.35,76.06c-1.56,0-2.47-1.1-2.11-2.84.37-1.73,1.71-2.82,3.31-2.82s2.39,1.12,2.07,2.62c-.04.2-.09.36-.15.55h-4.38c-.17,1.11.48,1.72,1.41,1.72.82,0,1.43-.42,1.75-1.01h.98c-.49,1-1.54,1.78-2.9,1.78ZM449.27,72.83h3.46c.24-1.07-.44-1.66-1.38-1.66-.89,0-1.76.59-2.08,1.66Z"/>
      <path class="cls-10" d="M460.32,70.4c.86,0,1.56.44,1.8,1.07l.62-2.9h.92l-1.57,7.4h-.92l.22-1.03c-.46.61-1.28,1.12-2.28,1.12-1.47,0-2.35-1.15-1.99-2.85.36-1.71,1.73-2.81,3.21-2.81ZM460.33,71.19c-1,0-2,.73-2.28,2.02-.27,1.29.41,2.05,1.41,2.05s2.02-.75,2.29-2.04c.27-1.27-.43-2.03-1.43-2.03Z"/>
      <path class="cls-10" d="M467.07,70.4c1.02,0,1.61.52,1.81,1.09l.21-1h.92l-1.17,5.48h-.92l.22-1.02c-.46.59-1.28,1.11-2.29,1.11-1.46,0-2.34-1.15-1.98-2.85.36-1.71,1.73-2.81,3.2-2.81ZM467.09,71.19c-1,0-2,.73-2.28,2.02-.27,1.29.41,2.05,1.41,2.05s2.02-.75,2.29-2.04c.27-1.27-.43-2.03-1.43-2.03Z"/>
      <path class="cls-10" d="M471.3,75.97h-.91l1.17-5.48h.91l-.19.89c.44-.61,1.11-.99,1.98-.99l-.2.94h-.24c-.87,0-1.61.39-1.88,1.66l-.63,2.98Z"/>
      <path class="cls-10" d="M475.69,68.57h.91l-.92,4.35,2.63-2.43h1.27l-3.16,2.73,2,2.75h-1.24l-1.64-2.42-.51,2.42h-.91l1.57-7.4Z"/>
      <path class="cls-10" d="M479.55,76.03c-.35,0-.56-.27-.49-.62.07-.35.4-.62.75-.62.33,0,.54.27.47.62-.08.35-.4.62-.73.62Z"/>
    </g>
    <g>
      <path class="cls-10" d="M163.44,126.91h-.71l.16-.75h.71l.29-1.38h.91l-.29,1.38h1.43l-.16.75h-1.43l-.69,3.23c-.12.54.04.73.6.73h.67l-.16.77h-.82c-.97,0-1.43-.4-1.2-1.5l.69-3.23Z"/>
      <path class="cls-10" d="M168.25,131.73c-1.55,0-2.5-1.1-2.12-2.84.37-1.73,1.82-2.82,3.37-2.82s2.54,1.09,2.17,2.82c-.37,1.74-1.85,2.84-3.41,2.84ZM168.42,130.93c.95,0,2.02-.65,2.31-2.04.29-1.38-.48-2.03-1.42-2.03s-1.97.65-2.26,2.03c-.3,1.39.42,2.04,1.37,2.04Z"/>
      <path class="cls-10" d="M178.39,126.07c1,0,1.61.5,1.81,1.09l.21-1h.92l-1.19,5.6c-.32,1.51-1.56,2.58-3.17,2.58-1.44,0-2.31-.73-2.24-1.9h.9c.06.66.61,1.11,1.51,1.11.97,0,1.83-.62,2.08-1.79l.24-1.15c-.46.59-1.28,1.12-2.28,1.12-1.47,0-2.35-1.15-1.99-2.85.36-1.71,1.73-2.81,3.2-2.81ZM178.4,126.86c-1,0-2,.73-2.28,2.02s.41,2.05,1.41,2.05,2.02-.75,2.29-2.04c.27-1.27-.43-2.03-1.43-2.03Z"/>
      <path class="cls-10" d="M184.08,131.73c-1.55,0-2.5-1.1-2.12-2.84.37-1.73,1.82-2.82,3.37-2.82s2.54,1.09,2.17,2.82c-.37,1.74-1.85,2.84-3.41,2.84ZM184.25,130.93c.95,0,2.02-.65,2.31-2.04.29-1.38-.48-2.03-1.42-2.03s-1.97.65-2.26,2.03c-.3,1.39.42,2.04,1.37,2.04Z"/>
    </g>
    <g>
      <path class="cls-10" d="M211,126.91h-.71l.16-.75h.71l.29-1.38h.91l-.29,1.38h1.43l-.16.75h-1.43l-.69,3.23c-.12.54.04.73.6.73h.67l-.16.77h-.82c-.97,0-1.43-.4-1.2-1.5l.69-3.23Z"/>
      <path class="cls-10" d="M215.8,131.73c-1.55,0-2.5-1.1-2.12-2.84.37-1.73,1.82-2.82,3.37-2.82s2.54,1.09,2.17,2.82c-.37,1.74-1.85,2.84-3.41,2.84ZM215.97,130.93c.95,0,2.02-.65,2.31-2.04.29-1.38-.48-2.03-1.42-2.03s-1.97.65-2.26,2.03c-.3,1.39.42,2.04,1.37,2.04Z"/>
      <path class="cls-10" d="M223.71,126.91h-.71l.16-.75h.71l.29-1.38h.91l-.29,1.38h1.43l-.16.75h-1.43l-.69,3.23c-.12.54.04.73.6.73h.67l-.16.77h-.82c-.97,0-1.43-.4-1.2-1.5l.69-3.23Z"/>
      <path class="cls-10" d="M227.71,124.24h.91l-.58,2.71c.48-.58,1.23-.89,2-.89,1.22,0,2.02.78,1.69,2.35l-.69,3.23h-.9l.66-3.1c.24-1.12-.25-1.69-1.17-1.69s-1.69.58-1.94,1.76l-.64,3.03h-.91l1.57-7.4Z"/>
      <path class="cls-10" d="M234.89,131.73c-1.56,0-2.48-1.1-2.11-2.84.37-1.73,1.71-2.82,3.31-2.82s2.39,1.12,2.07,2.62c-.04.2-.09.36-.15.55h-4.38c-.17,1.11.48,1.72,1.41,1.72.82,0,1.43-.42,1.75-1.01h.98c-.49,1-1.54,1.78-2.9,1.78ZM233.81,128.5h3.46c.24-1.07-.44-1.66-1.38-1.66-.89,0-1.76.59-2.08,1.66Z"/>
      <path class="cls-10" d="M245.77,126.9l-3.52,3.99h2.69l-.16.75h-3.73l.16-.75,3.51-3.99h-2.64l.16-.74h3.69l-.16.74Z"/>
      <path class="cls-10" d="M248.33,131.73c-1.55,0-2.5-1.1-2.12-2.84.37-1.73,1.82-2.82,3.37-2.82s2.54,1.09,2.17,2.82c-.37,1.74-1.85,2.84-3.41,2.84ZM248.5,130.93c.95,0,2.02-.65,2.31-2.04.29-1.38-.48-2.03-1.42-2.03s-1.97.65-2.26,2.03c-.3,1.39.42,2.04,1.37,2.04Z"/>
      <path class="cls-10" d="M254.73,131.73c-1.55,0-2.5-1.1-2.12-2.84.37-1.73,1.82-2.82,3.37-2.82s2.54,1.09,2.17,2.82c-.37,1.74-1.85,2.84-3.41,2.84ZM254.9,130.93c.95,0,2.02-.65,2.31-2.04.29-1.38-.48-2.03-1.42-2.03s-1.97.65-2.26,2.03c-.3,1.39.42,2.04,1.37,2.04Z"/>
    </g>
    <g>
      <path class="cls-10" d="M23.32,93.53h-1.34v2.91h-.91v-6.97h2.25c1.64,0,2.41.9,2.41,2.04,0,1.06-.68,2.02-2.41,2.02ZM23.32,92.78c1.04,0,1.48-.49,1.48-1.27s-.44-1.29-1.48-1.29h-1.34v2.56h1.34Z"/>
      <path class="cls-10" d="M27.77,96.44h-.91v-5.48h.91v.89c.31-.61.9-.99,1.77-.99v.94h-.24c-.87,0-1.53.39-1.53,1.66v2.98Z"/>
      <path class="cls-10" d="M32.98,96.53c-1.55,0-2.73-1.1-2.73-2.84s1.22-2.82,2.77-2.82,2.77,1.09,2.77,2.82-1.25,2.84-2.81,2.84ZM32.98,95.73c.95,0,1.88-.65,1.88-2.04s-.91-2.03-1.85-2.03-1.83.65-1.83,2.03.85,2.04,1.8,2.04Z"/>
      <path class="cls-10" d="M41,93.34c0-1.12-.61-1.69-1.53-1.69s-1.57.58-1.57,1.76v3.03h-.91v-5.48h.91v.78c.36-.57,1.02-.88,1.76-.88,1.27,0,2.24.78,2.24,2.35v3.23h-.9v-3.1Z"/>
      <path class="cls-10" d="M45.78,96.53c-1.55,0-2.73-1.1-2.73-2.84s1.22-2.82,2.77-2.82,2.77,1.09,2.77,2.82-1.25,2.84-2.81,2.84ZM45.78,95.73c.95,0,1.88-.65,1.88-2.04s-.91-2.03-1.85-2.03-1.83.65-1.83,2.03.85,2.04,1.8,2.04Z"/>
      <path class="cls-10" d="M54.64,96.44h-.91v-.81c-.35.57-1.02.89-1.75.89-1.26,0-2.25-.78-2.25-2.35v-3.21h.9v3.09c0,1.11.61,1.68,1.53,1.68s1.57-.58,1.57-1.76v-3.01h.91v5.48Z"/>
      <path class="cls-10" d="M60.19,93.34c0-1.12-.61-1.69-1.53-1.69s-1.57.58-1.57,1.76v3.03h-.91v-5.48h.91v.78c.36-.57,1.02-.88,1.76-.88,1.27,0,2.24.78,2.24,2.35v3.23h-.9v-3.1Z"/>
    </g>
    <g>
      <path class="cls-10" d="M28.15,110.29c-1.27-1.25-2.03-3.27-2.03-5.52s.76-4.37,2.18-5.68h.95v.09c-1.54,1.45-2.25,3.55-2.25,5.59s.71,4,2.1,5.43v.09h-.95Z"/>
      <path class="cls-10" d="M32.29,108.53c-1.28,0-2.18-.7-2.24-1.7h.94c.05.53.52.93,1.29.93.72,0,1.12-.36,1.12-.81,0-1.22-3.24-.51-3.24-2.55,0-.84.79-1.53,2.01-1.53s2.01.65,2.07,1.72h-.91c-.04-.55-.46-.95-1.19-.95-.67,0-1.07.32-1.07.76,0,1.3,3.18.59,3.22,2.55,0,.9-.79,1.58-2,1.58Z"/>
      <path class="cls-10" d="M40.42,108.44h-.91v-.81c-.35.57-1.02.89-1.75.89-1.26,0-2.25-.78-2.25-2.35v-3.21h.9v3.09c0,1.11.61,1.68,1.53,1.68s1.57-.58,1.57-1.76v-3.01h.91v5.48Z"/>
      <path class="cls-10" d="M44.93,102.87c1.48,0,2.6,1.1,2.6,2.81s-1.13,2.85-2.6,2.85c-1,0-1.71-.5-2.05-1.1v1.01h-.91v-7.4h.91v2.94c.35-.61,1.08-1.11,2.05-1.11ZM44.74,103.66c-.99,0-1.86.76-1.86,2.03s.87,2.04,1.86,2.04,1.86-.76,1.86-2.05-.85-2.02-1.86-2.02Z"/>
      <path class="cls-10" d="M49.67,102.96v6.67c0,.99-.52,1.41-1.45,1.41h-.53v-.77h.38c.5,0,.69-.18.69-.66v-6.65h.91ZM48.61,101.45c0-.35.27-.62.61-.62s.61.27.61.62-.27.62-.61.62-.61-.27-.61-.62Z"/>
      <path class="cls-10" d="M51.5,108.49c-.35,0-.62-.27-.62-.62s.27-.62.62-.62c.33,0,.6.27.6.62s-.27.62-.6.62Z"/>
      <path class="cls-10" d="M53.02,110.29v-.09c1.39-1.43,2.1-3.4,2.1-5.43s-.71-4.14-2.25-5.59v-.09h.95c1.42,1.31,2.18,3.42,2.18,5.68s-.76,4.27-2.03,5.52h-.95Z"/>
    </g>
    <g>
      <path class="cls-10" d="M103.67,95.48c-1.28,0-2.18-.7-2.24-1.7h.94c.05.53.52.93,1.29.93.72,0,1.12-.36,1.12-.81,0-1.22-3.24-.51-3.24-2.55,0-.84.79-1.53,2.01-1.53s2.01.65,2.07,1.72h-.91c-.04-.55-.46-.95-1.19-.95-.67,0-1.07.32-1.07.76,0,1.3,3.18.59,3.22,2.55,0,.9-.79,1.58-2,1.58Z"/>
      <path class="cls-10" d="M107.15,90.66h-.71v-.75h.71v-1.38h.91v1.38h1.43v.75h-1.43v3.23c0,.54.2.73.76.73h.67v.77h-.82c-.97,0-1.52-.4-1.52-1.5v-3.23Z"/>
      <path class="cls-10" d="M112.85,89.82c1.02,0,1.72.52,2.04,1.09v-1h.92v5.48h-.92v-1.02c-.33.59-1.04,1.11-2.05,1.11-1.46,0-2.59-1.15-2.59-2.85s1.13-2.81,2.6-2.81ZM113.03,90.61c-1,0-1.85.73-1.85,2.02s.85,2.05,1.85,2.05,1.86-.75,1.86-2.04-.86-2.03-1.86-2.03Z"/>
      <path class="cls-10" d="M117.55,90.66h-.71v-.75h.71v-1.38h.91v1.38h1.43v.75h-1.43v3.23c0,.54.2.73.76.73h.67v.77h-.82c-.97,0-1.52-.4-1.52-1.5v-3.23Z"/>
      <path class="cls-10" d="M120.84,88.4c0-.35.27-.62.62-.62.33,0,.6.27.6.62s-.27.62-.6.62c-.35,0-.62-.27-.62-.62ZM120.99,89.91h.91v5.48h-.91v-5.48Z"/>
      <path class="cls-10" d="M123.78,89.91l1.71,4.64,1.7-4.64h.97l-2.15,5.48h-1.06l-2.15-5.48h.98Z"/>
      <path class="cls-10" d="M131.43,95.48c-1.56,0-2.71-1.1-2.71-2.84s1.11-2.82,2.71-2.82,2.63,1.12,2.63,2.62c0,.2,0,.36-.03.55h-4.38c.07,1.11.85,1.72,1.78,1.72.82,0,1.34-.42,1.54-1.01h.98c-.28,1-1.16,1.78-2.52,1.78ZM129.66,92.25h3.46c.01-1.07-.79-1.66-1.73-1.66-.89,0-1.63.59-1.73,1.66Z"/>
    </g>
    <g>
      <path class="cls-10" d="M107.67,101.91l1.71,4.64,1.7-4.64h.97l-2.15,5.48h-1.06l-2.15-5.48h.98Z"/>
      <path class="cls-10" d="M115.32,107.48c-1.56,0-2.71-1.1-2.71-2.84s1.11-2.82,2.71-2.82,2.63,1.12,2.63,2.62c0,.2,0,.36-.03.55h-4.38c.07,1.11.85,1.72,1.78,1.72.82,0,1.34-.42,1.54-1.01h.98c-.28,1-1.16,1.78-2.52,1.78ZM113.55,104.25h3.46c.01-1.07-.79-1.66-1.73-1.66-.89,0-1.63.59-1.73,1.66Z"/>
      <path class="cls-10" d="M120.06,107.39h-.91v-5.48h.91v.89c.31-.61.9-.99,1.77-.99v.94h-.24c-.87,0-1.53.39-1.53,1.66v2.98Z"/>
      <path class="cls-10" d="M125.84,101.82c1.48,0,2.6,1.1,2.6,2.81s-1.13,2.85-2.6,2.85c-1,0-1.71-.5-2.05-1.1v1.01h-.91v-7.4h.91v2.94c.35-.61,1.08-1.11,2.05-1.11ZM125.65,102.61c-.99,0-1.86.76-1.86,2.03s.87,2.04,1.86,2.04,1.86-.76,1.86-2.05-.85-2.02-1.86-2.02Z"/>
    </g>
    <g>
      <path class="cls-10" d="M171.87,91.66h-.71v-.75h.71v-1.38h.91v1.38h1.43v.75h-1.43v3.23c0,.54.2.73.76.73h.67v.77h-.82c-.97,0-1.52-.4-1.52-1.5v-3.23Z"/>
      <path class="cls-10" d="M177.7,96.48c-1.55,0-2.73-1.1-2.73-2.84s1.22-2.82,2.77-2.82,2.77,1.09,2.77,2.82-1.25,2.84-2.81,2.84ZM177.7,95.68c.95,0,1.88-.65,1.88-2.04s-.91-2.03-1.85-2.03-1.83.65-1.83,2.03.85,2.04,1.8,2.04Z"/>
    </g>
    <g>
      <path class="cls-10" d="M165.87,102.91l1.71,4.64,1.7-4.64h.97l-2.15,5.48h-1.06l-2.15-5.48h.98Z"/>
      <path class="cls-10" d="M173.52,108.48c-1.56,0-2.71-1.1-2.71-2.84s1.11-2.82,2.71-2.82,2.63,1.12,2.63,2.62c0,.2,0,.36-.03.55h-4.38c.07,1.11.85,1.72,1.78,1.72.82,0,1.34-.42,1.54-1.01h.98c-.28,1-1.16,1.78-2.52,1.78ZM171.75,105.25h3.46c.01-1.07-.79-1.66-1.73-1.66-.89,0-1.63.59-1.73,1.66Z"/>
      <path class="cls-10" d="M178.26,108.39h-.91v-5.48h.91v.89c.31-.61.9-.99,1.77-.99v.94h-.24c-.87,0-1.53.39-1.53,1.66v2.98Z"/>
      <path class="cls-10" d="M184.04,102.82c1.48,0,2.6,1.1,2.6,2.81s-1.13,2.85-2.6,2.85c-1,0-1.71-.5-2.05-1.1v1.01h-.91v-7.4h.91v2.94c.35-.61,1.08-1.11,2.05-1.11ZM183.85,103.61c-.99,0-1.86.76-1.86,2.03s.87,2.04,1.86,2.04,1.86-.76,1.86-2.05-.85-2.02-1.86-2.02Z"/>
    </g>
    <g>
      <path class="cls-10" d="M204.75,96.34c1.36,0,2.25.7,2.53,1.85h-.98c-.19-.66-.74-1.08-1.55-1.08-1,0-1.74.71-1.74,2.05s.74,2.07,1.74,2.07c.81,0,1.35-.39,1.55-1.08h.98c-.28,1.09-1.17,1.85-2.53,1.85-1.56,0-2.67-1.1-2.67-2.84s1.11-2.82,2.67-2.82Z"/>
      <path class="cls-10" d="M210.88,101.99c-1.55,0-2.73-1.1-2.73-2.84s1.22-2.82,2.77-2.82,2.77,1.09,2.77,2.82-1.25,2.84-2.81,2.84ZM210.88,101.19c.95,0,1.88-.65,1.88-2.04s-.91-2.03-1.85-2.03-1.83.65-1.83,2.03.85,2.04,1.8,2.04Z"/>
      <path class="cls-10" d="M222.79,98.81c0-1.12-.6-1.69-1.5-1.69s-1.55.59-1.55,1.77v3.02h-.9v-3.1c0-1.12-.6-1.69-1.5-1.69s-1.55.59-1.55,1.77v3.02h-.91v-5.48h.91v.79c.36-.58,1.01-.89,1.73-.89.9,0,1.65.4,2.01,1.22.32-.79,1.1-1.22,1.94-1.22,1.25,0,2.22.78,2.22,2.35v3.23h-.9v-3.1Z"/>
      <path class="cls-10" d="M228.15,96.34c1.47,0,2.6,1.1,2.6,2.81s-1.13,2.85-2.6,2.85c-1,0-1.71-.54-2.05-1.1v3.61h-.91v-8.08h.91v1.01c.33-.58,1.05-1.1,2.05-1.1ZM227.96,97.13c-.99,0-1.86.76-1.86,2.03s.87,2.04,1.86,2.04,1.86-.76,1.86-2.05-.85-2.02-1.86-2.02Z"/>
      <path class="cls-10" d="M231.95,94.51h.91v7.4h-.91v-7.4Z"/>
      <path class="cls-10" d="M236.78,101.99c-1.56,0-2.71-1.1-2.71-2.84s1.11-2.82,2.71-2.82,2.63,1.12,2.63,2.62c0,.2,0,.36-.03.55h-4.38c.07,1.11.85,1.72,1.78,1.72.82,0,1.34-.42,1.54-1.01h.98c-.28,1-1.16,1.78-2.52,1.78ZM235.01,98.77h3.46c.01-1.07-.79-1.66-1.73-1.66-.89,0-1.63.59-1.73,1.66Z"/>
      <path class="cls-10" d="M248.51,98.81c0-1.12-.6-1.69-1.5-1.69s-1.55.59-1.55,1.77v3.02h-.9v-3.1c0-1.12-.6-1.69-1.5-1.69s-1.55.59-1.55,1.77v3.02h-.91v-5.48h.91v.79c.36-.58,1.01-.89,1.73-.89.9,0,1.65.4,2.01,1.22.32-.79,1.1-1.22,1.94-1.22,1.25,0,2.22.78,2.22,2.35v3.23h-.9v-3.1Z"/>
      <path class="cls-10" d="M253.28,101.99c-1.56,0-2.71-1.1-2.71-2.84s1.11-2.82,2.71-2.82,2.63,1.12,2.63,2.62c0,.2,0,.36-.03.55h-4.38c.07,1.11.85,1.72,1.78,1.72.82,0,1.34-.42,1.54-1.01h.98c-.28,1-1.16,1.78-2.52,1.78ZM251.51,98.77h3.46c.01-1.07-.79-1.66-1.73-1.66-.89,0-1.63.59-1.73,1.66Z"/>
      <path class="cls-10" d="M261.11,98.81c0-1.12-.61-1.69-1.53-1.69s-1.57.58-1.57,1.76v3.03h-.91v-5.48h.91v.78c.36-.57,1.02-.88,1.76-.88,1.27,0,2.24.78,2.24,2.35v3.23h-.9v-3.1Z"/>
      <path class="cls-10" d="M263.71,97.18h-.71v-.75h.71v-1.38h.91v1.38h1.43v.75h-1.43v3.23c0,.54.2.73.76.73h.67v.77h-.82c-.97,0-1.52-.4-1.52-1.5v-3.23Z"/>
    </g>
    <line class="cls-4" x1="81.08" y1="83.24" x2="81.08" y2="141.28"/>
    <line class="cls-6" x1="153.38" y1="83.24" x2="153.38" y2="141.85"/>
    <line class="cls-6" x1="195.48" y1="83.24" x2="195.48" y2="141.85"/>
    <line class="cls-1" x1="336.48" y1="83.24" x2="336.48" y2="142.98"/>
    <line class="cls-3" x1="406.68" y1="83.24" x2="406.68" y2="142.42"/>
    <line class="cls-1" x1="445.18" y1="83.24" x2="445.18" y2="142.98"/>
    <g>
      <path class="cls-10" d="M287.35,126.07c1.48,0,2.37,1.1,2,2.81-.36,1.7-1.73,2.85-3.2,2.85-1,0-1.6-.5-1.82-1.1l-.21,1.01h-.91l1.57-7.4h.91l-.62,2.94c.48-.61,1.32-1.11,2.29-1.11ZM286.99,126.86c-.99,0-2.02.76-2.29,2.03-.27,1.29.44,2.04,1.43,2.04s2.02-.76,2.29-2.05-.42-2.02-1.43-2.02Z"/>
      <path class="cls-10" d="M292.32,131.73c-1.56,0-2.48-1.1-2.11-2.84.37-1.73,1.71-2.82,3.31-2.82s2.39,1.12,2.07,2.62c-.04.2-.09.36-.15.55h-4.38c-.17,1.11.48,1.72,1.41,1.72.82,0,1.43-.42,1.75-1.01h.98c-.49,1-1.54,1.78-2.9,1.78ZM291.23,128.5h3.46c.24-1.07-.44-1.66-1.38-1.66-.89,0-1.75.59-2.08,1.66Z"/>
      <path class="cls-10" d="M299.68,126.07c1.36,0,2.1.7,2.13,1.85h-.98c-.05-.66-.51-1.08-1.32-1.08-1,0-1.89.71-2.17,2.05-.29,1.36.3,2.07,1.3,2.07.81,0,1.43-.39,1.78-1.08h.98c-.51,1.09-1.56,1.85-2.92,1.85-1.56,0-2.44-1.1-2.07-2.84.37-1.72,1.71-2.82,3.27-2.82Z"/>
      <path class="cls-10" d="M305.68,126.07c1.02,0,1.61.52,1.81,1.09l.21-1h.92l-1.17,5.48h-.92l.22-1.02c-.46.59-1.28,1.11-2.29,1.11-1.46,0-2.34-1.15-1.98-2.85.36-1.71,1.73-2.81,3.2-2.81ZM305.69,126.86c-1,0-2,.73-2.28,2.02s.41,2.05,1.41,2.05,2.02-.75,2.29-2.04c.27-1.27-.43-2.03-1.43-2.03Z"/>
      <path class="cls-10" d="M313.85,131.64h-.91l.17-.81c-.47.57-1.21.89-1.94.89-1.26,0-2.08-.78-1.75-2.35l.68-3.21h.9l-.66,3.09c-.24,1.11.25,1.68,1.17,1.68s1.69-.58,1.94-1.76l.64-3.01h.91l-1.17,5.48Z"/>
      <path class="cls-10" d="M317.32,131.73c-1.28,0-2.03-.7-1.88-1.7h.94c-.06.53.32.93,1.09.93.72,0,1.2-.36,1.29-.81.26-1.22-3.13-.51-2.7-2.55.18-.84,1.11-1.53,2.33-1.53s1.87.65,1.7,1.72h-.91c.08-.55-.26-.95-.99-.95-.67,0-1.14.32-1.23.76-.28,1.3,3.05.59,2.68,2.55-.19.9-1.12,1.58-2.33,1.58Z"/>
      <path class="cls-10" d="M322.97,131.73c-1.56,0-2.48-1.1-2.11-2.84.37-1.73,1.71-2.82,3.31-2.82s2.39,1.12,2.07,2.62c-.04.2-.09.36-.15.55h-4.38c-.17,1.11.48,1.72,1.41,1.72.82,0,1.43-.42,1.75-1.01h.98c-.49,1-1.54,1.78-2.9,1.78ZM321.88,128.5h3.46c.24-1.07-.44-1.66-1.38-1.66-.89,0-1.75.59-2.08,1.66Z"/>
    </g>
    <g>
      <path class="cls-10" d="M367.61,124.24h.91l-.58,2.71c.48-.58,1.23-.89,2-.89,1.22,0,2.02.78,1.69,2.35l-.69,3.23h-.9l.66-3.1c.24-1.12-.25-1.69-1.17-1.69s-1.69.58-1.94,1.76l-.64,3.03h-.91l1.57-7.4Z"/>
      <path class="cls-10" d="M374.79,131.73c-1.56,0-2.48-1.1-2.11-2.84.37-1.73,1.71-2.82,3.31-2.82s2.39,1.12,2.07,2.62c-.04.2-.09.36-.15.55h-4.38c-.17,1.11.48,1.72,1.41,1.72.82,0,1.43-.42,1.75-1.01h.98c-.49,1-1.54,1.78-2.9,1.78ZM373.7,128.5h3.46c.24-1.07-.44-1.66-1.38-1.66-.89,0-1.75.59-2.08,1.66Z"/>
    </g>
    <g>
      <path class="cls-10" d="M286.17,97.91c1.48,0,2.6,1.1,2.6,2.81s-1.13,2.85-2.6,2.85c-1,0-1.71-.5-2.05-1.1v1.01h-.91v-7.4h.91v2.94c.35-.61,1.08-1.11,2.05-1.11ZM285.98,98.7c-.99,0-1.86.76-1.86,2.03s.87,2.04,1.86,2.04,1.86-.76,1.86-2.05-.85-2.02-1.86-2.02Z"/>
      <path class="cls-10" d="M292.34,103.57c-1.56,0-2.71-1.1-2.71-2.84s1.11-2.82,2.71-2.82,2.63,1.12,2.63,2.62c0,.2,0,.36-.03.55h-4.38c.07,1.11.85,1.72,1.78,1.72.82,0,1.34-.42,1.54-1.01h.98c-.28,1-1.16,1.78-2.52,1.78ZM290.57,100.34h3.46c.01-1.07-.79-1.66-1.73-1.66-.89,0-1.63.59-1.73,1.66Z"/>
      <path class="cls-10" d="M298.5,97.91c1.36,0,2.25.7,2.53,1.85h-.98c-.19-.66-.74-1.08-1.55-1.08-1,0-1.74.71-1.74,2.05s.74,2.07,1.74,2.07c.81,0,1.35-.39,1.55-1.08h.98c-.28,1.09-1.17,1.85-2.53,1.85-1.56,0-2.67-1.1-2.67-2.84s1.11-2.82,2.67-2.82Z"/>
      <path class="cls-10" d="M304.5,97.91c1.02,0,1.72.52,2.04,1.09v-1h.92v5.48h-.92v-1.02c-.33.59-1.04,1.11-2.05,1.11-1.46,0-2.59-1.15-2.59-2.85s1.13-2.81,2.6-2.81ZM304.68,98.7c-1,0-1.85.73-1.85,2.02s.85,2.05,1.85,2.05,1.86-.75,1.86-2.04-.86-2.03-1.86-2.03Z"/>
      <path class="cls-10" d="M313.85,103.48h-.91v-.81c-.35.57-1.02.89-1.75.89-1.26,0-2.25-.78-2.25-2.35v-3.21h.9v3.09c0,1.11.61,1.68,1.53,1.68s1.57-.58,1.57-1.76v-3.01h.91v5.48Z"/>
      <path class="cls-10" d="M317.34,103.57c-1.28,0-2.18-.7-2.24-1.7h.94c.05.53.52.93,1.29.93.72,0,1.12-.36,1.12-.81,0-1.22-3.24-.51-3.24-2.55,0-.84.79-1.53,2.01-1.53s2.01.65,2.07,1.72h-.91c-.04-.55-.46-.95-1.19-.95-.67,0-1.07.32-1.07.76,0,1.3,3.18.59,3.22,2.55,0,.9-.79,1.58-2,1.58Z"/>
      <path class="cls-10" d="M322.98,103.57c-1.56,0-2.71-1.1-2.71-2.84s1.11-2.82,2.71-2.82,2.63,1.12,2.63,2.62c0,.2,0,.36-.03.55h-4.38c.07,1.11.85,1.72,1.78,1.72.82,0,1.34-.42,1.54-1.01h.98c-.28,1-1.16,1.78-2.52,1.78ZM321.22,100.34h3.46c0-1.07-.79-1.66-1.73-1.66-.89,0-1.63.59-1.73,1.66Z"/>
    </g>
    <g>
      <path class="cls-10" d="M353.34,90.49c1.47,0,2.6,1.1,2.6,2.81s-1.13,2.85-2.6,2.85c-1,0-1.71-.54-2.05-1.1v3.61h-.91v-8.08h.91v1.01c.33-.58,1.05-1.1,2.05-1.1ZM353.15,91.28c-.99,0-1.86.76-1.86,2.03s.87,2.04,1.86,2.04,1.86-.76,1.86-2.05-.85-2.02-1.86-2.02Z"/>
      <path class="cls-10" d="M358.05,96.06h-.91v-5.48h.91v.89c.31-.61.9-.99,1.77-.99v.94h-.24c-.87,0-1.53.39-1.53,1.66v2.98Z"/>
      <path class="cls-10" d="M363.26,96.15c-1.55,0-2.73-1.1-2.73-2.84s1.22-2.82,2.77-2.82,2.77,1.09,2.77,2.82-1.25,2.84-2.81,2.84ZM363.26,95.35c.95,0,1.88-.65,1.88-2.04s-.91-2.03-1.85-2.03-1.83.65-1.83,2.03.85,2.04,1.8,2.04Z"/>
      <path class="cls-10" d="M371.27,92.96c0-1.12-.61-1.69-1.53-1.69s-1.57.58-1.57,1.76v3.03h-.91v-5.48h.91v.78c.36-.57,1.02-.88,1.76-.88,1.27,0,2.24.78,2.24,2.35v3.23h-.9v-3.1Z"/>
      <path class="cls-10" d="M376.06,96.15c-1.55,0-2.73-1.1-2.73-2.84s1.22-2.82,2.77-2.82,2.77,1.09,2.77,2.82-1.25,2.84-2.81,2.84ZM376.06,95.35c.95,0,1.88-.65,1.88-2.04s-.91-2.03-1.85-2.03-1.83.65-1.83,2.03.85,2.04,1.8,2.04Z"/>
      <path class="cls-10" d="M384.92,96.06h-.91v-.81c-.35.57-1.02.89-1.75.89-1.26,0-2.25-.78-2.25-2.35v-3.21h.9v3.09c0,1.11.61,1.68,1.53,1.68s1.57-.58,1.57-1.76v-3.01h.91v5.48Z"/>
      <path class="cls-10" d="M390.47,92.96c0-1.12-.61-1.69-1.53-1.69s-1.57.58-1.57,1.76v3.03h-.91v-5.48h.91v.78c.36-.57,1.02-.88,1.76-.88,1.27,0,2.24.78,2.24,2.35v3.23h-.9v-3.1Z"/>
    </g>
    <g>
      <path class="cls-10" d="M357.95,109.91c-1.27-1.25-2.03-3.27-2.03-5.52s.76-4.37,2.18-5.68h.95v.09c-1.54,1.45-2.25,3.55-2.25,5.59s.71,4,2.1,5.43v.09h-.95Z"/>
      <path class="cls-10" d="M362.09,108.15c-1.28,0-2.18-.7-2.24-1.7h.94c.05.53.52.93,1.29.93.72,0,1.12-.36,1.12-.81,0-1.22-3.24-.51-3.24-2.55,0-.84.79-1.53,2.01-1.53s2.01.65,2.07,1.72h-.91c-.04-.55-.46-.95-1.19-.95-.67,0-1.07.32-1.07.76,0,1.3,3.18.59,3.22,2.55,0,.9-.79,1.58-2,1.58Z"/>
      <path class="cls-10" d="M370.22,108.06h-.91v-.81c-.35.57-1.02.89-1.75.89-1.26,0-2.25-.78-2.25-2.35v-3.21h.9v3.09c0,1.11.61,1.68,1.53,1.68s1.57-.58,1.57-1.76v-3.01h.91v5.48Z"/>
      <path class="cls-10" d="M374.73,102.49c1.48,0,2.6,1.1,2.6,2.81s-1.13,2.85-2.6,2.85c-1,0-1.71-.5-2.05-1.1v1.01h-.91v-7.4h.91v2.94c.35-.61,1.08-1.11,2.05-1.11ZM374.54,103.28c-.99,0-1.86.76-1.86,2.03s.87,2.04,1.86,2.04,1.86-.76,1.86-2.05-.85-2.02-1.86-2.02Z"/>
      <path class="cls-10" d="M379.47,102.58v6.67c0,.99-.52,1.41-1.45,1.41h-.53v-.77h.38c.5,0,.69-.18.69-.66v-6.65h.91ZM378.41,101.07c0-.35.27-.62.61-.62s.61.27.61.62-.27.62-.61.62-.61-.27-.61-.62Z"/>
      <path class="cls-10" d="M381.3,108.11c-.35,0-.62-.27-.62-.62s.27-.62.62-.62c.33,0,.6.27.6.62s-.27.62-.6.62Z"/>
      <path class="cls-10" d="M382.82,109.91v-.09c1.39-1.43,2.1-3.4,2.1-5.43s-.71-4.14-2.25-5.59v-.09h.95c1.42,1.31,2.18,3.42,2.18,5.68s-.76,4.27-2.03,5.52h-.95Z"/>
    </g>
    <g>
      <path class="cls-10" d="M415.52,96.43l1.71,4.64,1.7-4.64h.97l-2.15,5.48h-1.06l-2.15-5.48h.98Z"/>
      <path class="cls-10" d="M423.17,102c-1.56,0-2.71-1.1-2.71-2.84s1.11-2.82,2.71-2.82,2.63,1.12,2.63,2.62c0,.2,0,.36-.03.55h-4.38c.07,1.11.85,1.72,1.78,1.72.82,0,1.34-.42,1.54-1.01h.98c-.28,1-1.16,1.78-2.52,1.78ZM421.4,98.77h3.46c.01-1.07-.79-1.66-1.73-1.66-.89,0-1.63.59-1.73,1.66Z"/>
      <path class="cls-10" d="M427.91,101.91h-.91v-5.48h.91v.89c.31-.61.9-.99,1.77-.99v.94h-.24c-.87,0-1.53.39-1.53,1.66v2.98Z"/>
      <path class="cls-10" d="M433.69,96.34c1.48,0,2.6,1.1,2.6,2.81s-1.13,2.85-2.6,2.85c-1,0-1.71-.5-2.05-1.1v1.01h-.91v-7.4h.91v2.94c.35-.61,1.08-1.11,2.05-1.11ZM433.49,97.13c-.99,0-1.86.76-1.86,2.03s.87,2.04,1.86,2.04,1.86-.76,1.86-2.05-.85-2.02-1.86-2.02Z"/>
    </g>
    <g>
      <path class="cls-10" d="M461.02,96.34c1.36,0,2.25.7,2.53,1.85h-.98c-.19-.66-.74-1.08-1.55-1.08-1,0-1.74.71-1.74,2.05s.74,2.07,1.74,2.07c.81,0,1.35-.39,1.55-1.08h.98c-.28,1.09-1.17,1.85-2.53,1.85-1.56,0-2.67-1.1-2.67-2.84s1.11-2.82,2.67-2.82Z"/>
      <path class="cls-10" d="M467.15,102c-1.55,0-2.73-1.1-2.73-2.84s1.22-2.82,2.77-2.82,2.77,1.09,2.77,2.82-1.25,2.84-2.81,2.84ZM467.15,101.2c.95,0,1.88-.65,1.88-2.04s-.91-2.03-1.85-2.03-1.83.65-1.83,2.03.85,2.04,1.8,2.04Z"/>
      <path class="cls-10" d="M479.06,98.81c0-1.12-.6-1.69-1.5-1.69s-1.55.59-1.55,1.77v3.02h-.9v-3.1c0-1.12-.6-1.69-1.5-1.69s-1.55.59-1.55,1.77v3.02h-.91v-5.48h.91v.79c.36-.58,1.01-.89,1.73-.89.9,0,1.65.4,2.01,1.22.32-.79,1.1-1.22,1.94-1.22,1.25,0,2.22.78,2.22,2.35v3.23h-.9v-3.1Z"/>
      <path class="cls-10" d="M484.42,96.34c1.47,0,2.6,1.1,2.6,2.81s-1.13,2.85-2.6,2.85c-1,0-1.71-.54-2.05-1.1v3.61h-.91v-8.08h.91v1.01c.33-.58,1.05-1.1,2.05-1.1ZM484.23,97.13c-.99,0-1.86.76-1.86,2.03s.87,2.04,1.86,2.04,1.86-.76,1.86-2.05-.85-2.02-1.86-2.02Z"/>
      <path class="cls-10" d="M488.22,94.51h.91v7.4h-.91v-7.4Z"/>
      <path class="cls-10" d="M493.05,102c-1.56,0-2.71-1.1-2.71-2.84s1.11-2.82,2.71-2.82,2.63,1.12,2.63,2.62c0,.2,0,.36-.03.55h-4.38c.07,1.11.85,1.72,1.78,1.72.82,0,1.34-.42,1.54-1.01h.98c-.28,1-1.16,1.78-2.52,1.78ZM491.28,98.77h3.46c.01-1.07-.79-1.66-1.73-1.66-.89,0-1.63.59-1.73,1.66Z"/>
      <path class="cls-10" d="M504.78,98.81c0-1.12-.6-1.69-1.5-1.69s-1.55.59-1.55,1.77v3.02h-.9v-3.1c0-1.12-.6-1.69-1.5-1.69s-1.55.59-1.55,1.77v3.02h-.91v-5.48h.91v.79c.36-.58,1.01-.89,1.73-.89.9,0,1.65.4,2.01,1.22.32-.79,1.1-1.22,1.94-1.22,1.25,0,2.22.78,2.22,2.35v3.23h-.9v-3.1Z"/>
      <path class="cls-10" d="M509.55,102c-1.56,0-2.71-1.1-2.71-2.84s1.11-2.82,2.71-2.82,2.63,1.12,2.63,2.62c0,.2,0,.36-.03.55h-4.38c.07,1.11.85,1.72,1.78,1.72.82,0,1.34-.42,1.54-1.01h.98c-.28,1-1.16,1.78-2.52,1.78ZM507.78,98.77h3.46c0-1.07-.79-1.66-1.73-1.66-.89,0-1.63.59-1.73,1.66Z"/>
      <path class="cls-10" d="M517.38,98.81c0-1.12-.61-1.69-1.53-1.69s-1.57.58-1.57,1.76v3.03h-.91v-5.48h.91v.78c.36-.57,1.02-.88,1.76-.88,1.27,0,2.24.78,2.24,2.35v3.23h-.9v-3.1Z"/>
      <path class="cls-10" d="M519.98,97.18h-.71v-.75h.71v-1.38h.91v1.38h1.43v.75h-1.43v3.23c0,.54.2.73.76.73h.67v.77h-.82c-.97,0-1.52-.4-1.52-1.5v-3.23Z"/>
      <path class="cls-10" d="M523.71,101.97c-.35,0-.62-.27-.62-.62s.27-.62.62-.62c.33,0,.6.27.6.62s-.27.62-.6.62Z"/>
    </g>
    <line class="cls-2" x1=".33" y1="62.51" x2="535.55" y2="62.51"/>
    <g>
      <path class="cls-10" d="M416.88,124.24h.91l-1.57,7.4h-.91l1.57-7.4Z"/>
      <path class="cls-10" d="M418.93,126.16h.91l-1.17,5.48h-.91l1.17-5.48ZM419.1,124.65c.07-.35.4-.62.75-.62.33,0,.54.27.47.62-.07.35-.4.62-.73.62-.35,0-.56-.27-.49-.62Z"/>
      <path class="cls-10" d="M421.8,124.24h.91l-.92,4.35,2.63-2.43h1.27l-3.16,2.73,2,2.75h-1.24l-1.63-2.42-.51,2.42h-.91l1.57-7.4Z"/>
      <path class="cls-10" d="M427.73,131.73c-1.56,0-2.48-1.1-2.11-2.84.37-1.73,1.71-2.82,3.31-2.82s2.39,1.12,2.07,2.62c-.04.2-.09.36-.15.55h-4.38c-.17,1.11.48,1.72,1.41,1.72.82,0,1.43-.42,1.75-1.01h.98c-.49,1-1.54,1.78-2.9,1.78ZM426.64,128.5h3.46c.24-1.07-.44-1.66-1.38-1.66-.89,0-1.75.59-2.08,1.66Z"/>
      <path class="cls-10" d="M433.5,131.73c-1.28,0-2.03-.7-1.88-1.7h.94c-.06.53.32.93,1.09.93.72,0,1.2-.36,1.29-.81.26-1.22-3.13-.51-2.7-2.55.18-.84,1.11-1.53,2.33-1.53s1.87.65,1.7,1.72h-.91c.08-.55-.26-.95-.99-.95-.67,0-1.14.32-1.23.76-.28,1.3,3.05.59,2.68,2.55-.19.9-1.12,1.58-2.33,1.58Z"/>
    </g>
    <g>
      <path class="cls-10" d="M473.75,126.07c1.02,0,1.61.52,1.81,1.09l.21-1h.92l-1.17,5.48h-.92l.22-1.02c-.46.59-1.28,1.11-2.29,1.11-1.46,0-2.34-1.15-1.98-2.85.36-1.71,1.73-2.81,3.2-2.81ZM473.76,126.86c-1,0-2,.73-2.28,2.02s.41,2.05,1.41,2.05,2.02-.75,2.29-2.04c.27-1.27-.43-2.03-1.43-2.03Z"/>
      <path class="cls-10" d="M481.73,128.54c.24-1.12-.25-1.69-1.17-1.69s-1.69.58-1.94,1.76l-.64,3.03h-.91l1.17-5.48h.91l-.17.78c.48-.57,1.21-.88,1.95-.88,1.27,0,2.07.78,1.74,2.35l-.69,3.23h-.9l.66-3.1Z"/>
      <path class="cls-10" d="M484.63,126.16h.91l-1.17,5.48h-.91l1.17-5.48ZM484.8,124.65c.07-.35.4-.62.75-.62.33,0,.54.27.47.62-.07.35-.4.62-.73.62-.35,0-.56-.27-.49-.62Z"/>
      <path class="cls-10" d="M494.49,128.54c.24-1.12-.24-1.69-1.14-1.69s-1.67.59-1.92,1.77l-.64,3.02h-.9l.66-3.1c.24-1.12-.24-1.69-1.14-1.69s-1.67.59-1.93,1.77l-.64,3.02h-.91l1.17-5.48h.91l-.17.79c.48-.58,1.2-.89,1.92-.89.9,0,1.56.4,1.75,1.22.49-.79,1.36-1.22,2.2-1.22,1.25,0,2.05.78,1.72,2.35l-.69,3.23h-.9l.66-3.1Z"/>
      <path class="cls-10" d="M499.67,126.07c1.02,0,1.61.52,1.81,1.09l.21-1h.92l-1.17,5.48h-.92l.22-1.02c-.46.59-1.28,1.11-2.28,1.11-1.46,0-2.34-1.15-1.98-2.85.36-1.71,1.73-2.81,3.2-2.81ZM499.68,126.86c-1,0-2,.73-2.28,2.02s.41,2.05,1.41,2.05,2.02-.75,2.29-2.04c.27-1.27-.43-2.03-1.43-2.03Z"/>
      <path class="cls-10" d="M504.56,124.24h.91l-1.57,7.4h-.91l1.57-7.4Z"/>
      <path class="cls-10" d="M507.37,131.73c-1.28,0-2.03-.7-1.88-1.7h.94c-.06.53.32.93,1.09.93.72,0,1.2-.36,1.29-.81.26-1.22-3.13-.51-2.7-2.55.18-.84,1.12-1.53,2.33-1.53s1.87.65,1.7,1.72h-.91c.08-.55-.26-.95-.99-.95-.67,0-1.14.32-1.23.76-.28,1.3,3.05.59,2.68,2.55-.19.9-1.12,1.58-2.33,1.58Z"/>
      <path class="cls-10" d="M510.94,131.7c-.35,0-.56-.27-.49-.62.07-.35.4-.62.75-.62.33,0,.54.27.47.62-.07.35-.4.62-.73.62Z"/>
    </g>
    <line class="cls-7" x1="272" y1="22.69" x2="272" y2="83.14"/>
  </g>
</svg>