<?xml version="1.0" encoding="UTF-8"?>
<svg id="Layer_2" data-name="Layer 2" xmlns="http://www.w3.org/2000/svg" xmlns:xlink="http://www.w3.org/1999/xlink" viewBox="0 0 491.5 64.97">
  <defs>
    <style>
      .cls-1 {
        fill: #f89631;
      }

      .cls-2 {
        fill: #25408f;
      }

      .cls-3 {
        fill: #fff;
      }

      .cls-4 {
        fill: #ed1c24;
      }

      .cls-5, .cls-6, .cls-7 {
        fill: none;
      }

      .cls-6 {
        stroke-dasharray: 4.26 4.26;
        stroke-miterlimit: 10;
        stroke-width: .75px;
      }

      .cls-6, .cls-7 {
        stroke: #fff;
      }

      .cls-8 {
        clip-path: url(#clippath-1);
      }

      .cls-9 {
        clip-path: url(#clippath-2);
      }

      .cls-10 {
        clip-path: url(#clippath);
      }
    </style>
    <clipPath id="clippath">
      <rect class="cls-5" width="491.5" height="64.97"/>
    </clipPath>
    <clipPath id="clippath-1">
      <rect class="cls-5" width="491.5" height="64.97"/>
    </clipPath>
    <clipPath id="clippath-2">
      <rect class="cls-5" width="491.5" height="64.97"/>
    </clipPath>
  </defs>
  <g id="Layer_1-2" data-name="Layer 1">
    <g class="cls-10">
      <rect class="cls-1" y="0" width="491.5" height="64.97" rx="3.6" ry="3.6"/>
    </g>
    <g>
      <path class="cls-3" d="M10.4,9.78v5.42h.4v.42h-1.61v-.42h.4v-5.42h-.4v-.43h1.61v.43h-.4Z"/>
      <path class="cls-3" d="M15.36,12.86c0-1.01-.55-1.52-1.38-1.52s-1.41.52-1.41,1.58v2.73h-.82v-4.93h.82v.7c.32-.51.92-.79,1.58-.79,1.14,0,2.02.7,2.02,2.12v2.91h-.81v-2.79Z"/>
      <path class="cls-3" d="M24.36,17.98h-.83v-3.25c-.28.5-.94.99-1.85.99-1.31,0-2.32-1.04-2.32-2.57s1.02-2.53,2.35-2.53c.9,0,1.55.47,1.83.98v-.9h.83v5.88l.39-.66h.83l-1.22,2.05ZM23.54,13.16c0-1.14-.77-1.83-1.67-1.83s-1.67.66-1.67,1.82.77,1.85,1.67,1.85,1.67-.67,1.67-1.84Z"/>
      <path class="cls-3" d="M30.38,15.66h-.82v-.73c-.31.51-.92.8-1.58.8-1.13,0-2.03-.7-2.03-2.12v-2.89h.81v2.78c0,1,.55,1.51,1.38,1.51s1.41-.52,1.41-1.58v-2.71h.82v4.93Z"/>
      <path class="cls-3" d="M33.89,15.74c-1.4,0-2.44-.99-2.44-2.56s1-2.54,2.44-2.54,2.37,1.01,2.37,2.36c0,.18,0,.32-.03.5h-3.94c.06,1,.76,1.55,1.6,1.55.74,0,1.21-.38,1.39-.91h.88c-.25.9-1.04,1.6-2.27,1.6ZM32.3,12.83h3.12c0-.96-.71-1.49-1.56-1.49-.8,0-1.47.53-1.56,1.49Z"/>
      <path class="cls-3" d="M39.09,15.74c-1.15,0-1.96-.63-2.02-1.53h.85c.04.48.47.84,1.16.84.65,0,1.01-.32,1.01-.73,0-1.1-2.92-.46-2.92-2.29,0-.76.71-1.38,1.81-1.38s1.81.58,1.86,1.55h-.82c-.04-.5-.41-.86-1.07-.86-.6,0-.96.29-.96.68,0,1.17,2.86.53,2.9,2.29,0,.81-.71,1.42-1.8,1.42Z"/>
      <path class="cls-3" d="M42.22,11.4h-.64v-.68h.64v-1.24h.82v1.24h1.29v.68h-1.29v2.91c0,.49.18.66.68.66h.6v.69h-.74c-.87,0-1.37-.36-1.37-1.35v-2.91Z"/>
      <path class="cls-3" d="M45.18,9.36c0-.32.24-.56.56-.56.3,0,.54.24.54.56s-.24.56-.54.56c-.32,0-.56-.24-.56-.56ZM45.31,10.72h.82v4.93h-.82v-4.93Z"/>
      <path class="cls-3" d="M49.68,15.74c-1.4,0-2.46-.99-2.46-2.56s1.1-2.54,2.49-2.54,2.49.98,2.49,2.54-1.12,2.56-2.53,2.56ZM49.68,15.02c.86,0,1.69-.58,1.69-1.84s-.82-1.83-1.67-1.83-1.65.59-1.65,1.83.76,1.84,1.62,1.84Z"/>
      <path class="cls-3" d="M56.9,12.86c0-1.01-.55-1.52-1.38-1.52s-1.41.52-1.41,1.58v2.73h-.82v-4.93h.82v.7c.32-.51.92-.79,1.58-.79,1.14,0,2.02.7,2.02,2.12v2.91h-.81v-2.79Z"/>
      <path class="cls-3" d="M60.79,15.74c-1.15,0-1.96-.63-2.02-1.53h.85c.04.48.47.84,1.16.84.65,0,1.01-.32,1.01-.73,0-1.1-2.92-.46-2.92-2.29,0-.76.71-1.38,1.81-1.38s1.81.58,1.86,1.55h-.82c-.04-.5-.41-.86-1.07-.86-.6,0-.96.29-.96.68,0,1.17,2.86.53,2.9,2.29,0,.81-.71,1.42-1.8,1.42Z"/>
      <path class="cls-3" d="M66.33,11.4h-.64v-.68h.64v-1.24h.82v1.24h1.29v.68h-1.29v2.91c0,.49.18.66.68.66h.6v.69h-.74c-.87,0-1.37-.36-1.37-1.35v-2.91Z"/>
      <path class="cls-3" d="M69.43,8.99h.82v2.44c.32-.52.94-.8,1.63-.8,1.1,0,1.97.7,1.97,2.12v2.91h-.81v-2.79c0-1.01-.55-1.52-1.38-1.52s-1.41.52-1.41,1.58v2.73h-.82v-6.66Z"/>
      <path class="cls-3" d="M77.32,15.74c-1.4,0-2.44-.99-2.44-2.56s1-2.54,2.44-2.54,2.37,1.01,2.37,2.36c0,.18,0,.32-.03.5h-3.94c.06,1,.77,1.55,1.6,1.55.74,0,1.21-.38,1.39-.91h.88c-.25.9-1.04,1.6-2.27,1.6ZM75.73,12.83h3.11c0-.96-.71-1.49-1.56-1.49-.8,0-1.47.53-1.56,1.49Z"/>
      <path class="cls-3" d="M83.46,10.72l1.54,4.18,1.53-4.18h.87l-1.94,4.93h-.95l-1.94-4.93h.88Z"/>
      <path class="cls-3" d="M90.35,15.74c-1.4,0-2.44-.99-2.44-2.56s1-2.54,2.44-2.54,2.37,1.01,2.37,2.36c0,.18,0,.32-.03.5h-3.94c.06,1,.77,1.55,1.6,1.55.74,0,1.21-.38,1.39-.91h.88c-.25.9-1.04,1.6-2.27,1.6ZM88.76,12.83h3.11c0-.96-.71-1.49-1.56-1.49-.8,0-1.47.53-1.56,1.49Z"/>
      <path class="cls-3" d="M94.62,15.66h-.82v-4.93h.82v.8c.28-.55.81-.89,1.59-.89v.85h-.22c-.78,0-1.38.35-1.38,1.5v2.68Z"/>
      <path class="cls-3" d="M99.82,10.64c1.33,0,2.34.99,2.34,2.53s-1.02,2.57-2.34,2.57c-.9,0-1.54-.45-1.84-.99v.91h-.82v-6.66h.82v2.65c.32-.55.97-1,1.84-1ZM99.65,11.35c-.89,0-1.67.68-1.67,1.83s.78,1.84,1.67,1.84,1.67-.68,1.67-1.84-.77-1.82-1.67-1.82Z"/>
      <path class="cls-3" d="M106.63,9.37l-.53,2.04h-.91l.86-2.04h.58ZM108.1,9.37l-.53,2.04h-.91l.86-2.04h.58Z"/>
      <path class="cls-3" d="M109.29,11.4h-.64v-.68h.64v-1.24h.82v1.24h1.29v.68h-1.29v2.91c0,.49.18.66.68.66h.6v.69h-.74c-.87,0-1.37-.36-1.37-1.35v-2.91Z"/>
      <path class="cls-3" d="M114.54,15.74c-1.4,0-2.46-.99-2.46-2.56s1.1-2.54,2.49-2.54,2.49.98,2.49,2.54-1.12,2.56-2.53,2.56ZM114.54,15.02c.86,0,1.69-.58,1.69-1.84s-.82-1.83-1.67-1.83-1.65.59-1.65,1.83.77,1.84,1.62,1.84Z"/>
      <path class="cls-3" d="M123.22,10.64c1.33,0,2.34.99,2.34,2.53s-1.02,2.57-2.34,2.57c-.9,0-1.54-.45-1.85-.99v.91h-.82v-6.66h.82v2.65c.31-.55.97-1,1.85-1ZM123.05,11.35c-.89,0-1.67.68-1.67,1.83s.78,1.84,1.67,1.84,1.67-.68,1.67-1.84-.76-1.82-1.67-1.82Z"/>
      <path class="cls-3" d="M128.77,15.74c-1.4,0-2.44-.99-2.44-2.56s1-2.54,2.44-2.54,2.37,1.01,2.37,2.36c0,.18,0,.32-.03.5h-3.94c.06,1,.76,1.55,1.6,1.55.74,0,1.21-.38,1.39-.91h.88c-.25.9-1.04,1.6-2.27,1.6ZM127.18,12.83h3.12c0-.96-.71-1.49-1.56-1.49-.8,0-1.47.53-1.56,1.49Z"/>
      <path class="cls-3" d="M131.89,11.42l.53-2.04h.91l-.86,2.04h-.58ZM133.36,11.42l.53-2.04h.91l-.86,2.04h-.58Z"/>
      <path class="cls-3" d="M140.24,10.64c1.22,0,2.03.63,2.28,1.67h-.88c-.17-.59-.67-.97-1.4-.97-.9,0-1.57.64-1.57,1.85s.67,1.86,1.57,1.86c.73,0,1.22-.35,1.4-.97h.88c-.25.98-1.05,1.67-2.28,1.67-1.41,0-2.4-.99-2.4-2.56s1-2.54,2.4-2.54Z"/>
      <path class="cls-3" d="M145.75,15.74c-1.4,0-2.46-.99-2.46-2.56s1.1-2.54,2.49-2.54,2.49.98,2.49,2.54-1.12,2.56-2.53,2.56ZM145.75,15.02c.86,0,1.69-.58,1.69-1.84s-.82-1.83-1.67-1.83-1.65.59-1.65,1.83.76,1.84,1.62,1.84Z"/>
      <path class="cls-3" d="M156.48,12.86c0-1.01-.54-1.52-1.35-1.52s-1.39.53-1.39,1.59v2.72h-.81v-2.79c0-1.01-.54-1.52-1.35-1.52s-1.4.53-1.4,1.59v2.72h-.82v-4.93h.82v.71c.32-.52.91-.8,1.56-.8.81,0,1.49.36,1.81,1.1.29-.71.99-1.1,1.75-1.1,1.13,0,2,.7,2,2.12v2.91h-.81v-2.79Z"/>
      <path class="cls-3" d="M160.77,15.74c-1.4,0-2.44-.99-2.44-2.56s1-2.54,2.44-2.54,2.37,1.01,2.37,2.36c0,.18,0,.32-.03.5h-3.94c.06,1,.77,1.55,1.6,1.55.74,0,1.21-.38,1.39-.91h.88c-.25.9-1.04,1.6-2.27,1.6ZM159.17,12.83h3.11c0-.96-.71-1.49-1.56-1.49-.8,0-1.47.53-1.56,1.49Z"/>
      <path class="cls-3" d="M165.96,15.74c-1.15,0-1.96-.63-2.02-1.53h.85c.04.48.47.84,1.16.84.65,0,1.01-.32,1.01-.73,0-1.1-2.92-.46-2.92-2.29,0-.76.71-1.38,1.81-1.38s1.81.58,1.86,1.55h-.82c-.04-.5-.41-.86-1.07-.86-.6,0-.96.29-.96.68,0,1.17,2.86.53,2.9,2.29,0,.81-.71,1.42-1.8,1.42Z"/>
      <path class="cls-3" d="M171.47,11.4h-.64v-.68h.64v-.35c0-1.1.54-1.59,1.8-1.59v.68c-.74,0-.98.27-.98.91v.35h1.04v.68h-1.04v4.26h-.82v-4.26Z"/>
      <path class="cls-3" d="M174.14,9.36c0-.32.24-.56.56-.56.3,0,.54.24.54.56s-.24.56-.54.56c-.31,0-.56-.24-.56-.56ZM174.27,10.72h.82v4.93h-.82v-4.93Z"/>
      <path class="cls-3" d="M177.31,15.66h-.82v-4.93h.82v.8c.28-.55.81-.89,1.59-.89v.85h-.22c-.78,0-1.38.35-1.38,1.5v2.68Z"/>
      <path class="cls-3" d="M181.59,15.74c-1.15,0-1.96-.63-2.02-1.53h.85c.04.48.47.84,1.16.84.65,0,1.01-.32,1.01-.73,0-1.1-2.92-.46-2.92-2.29,0-.76.71-1.38,1.81-1.38s1.81.58,1.86,1.55h-.82c-.04-.5-.41-.86-1.07-.86-.6,0-.96.29-.96.68,0,1.17,2.86.53,2.9,2.29,0,.81-.71,1.42-1.8,1.42Z"/>
      <path class="cls-3" d="M184.72,11.4h-.64v-.68h.64v-1.24h.82v1.24h1.29v.68h-1.29v2.91c0,.49.18.66.68.66h.6v.69h-.74c-.87,0-1.37-.36-1.37-1.35v-2.91Z"/>
      <path class="cls-3" d="M188.08,11.86c-.32,0-.56-.24-.56-.56s.24-.56.56-.56c.3,0,.54.24.54.56s-.24.56-.54.56ZM188.08,15.71c-.32,0-.56-.24-.56-.56s.24-.56.56-.56c.3,0,.54.24.54.56s-.24.56-.54.56Z"/>
    </g>
    <g>
      <path class="cls-2" d="M13.25,25.06h-2.74l-.5,1.4h-.86l2.27-6.24h.95l2.26,6.24h-.86l-.5-1.4ZM11.88,21.22l-1.13,3.17h2.27l-1.13-3.17Z"/>
      <path class="cls-2" d="M16.42,26.46h-.82v-4.93h.82v.8c.28-.55.81-.89,1.59-.89v.85h-.22c-.78,0-1.38.35-1.38,1.49v2.68Z"/>
      <path class="cls-2" d="M21.1,26.54c-1.4,0-2.44-.99-2.44-2.56s1-2.54,2.44-2.54,2.37,1.01,2.37,2.36c0,.18,0,.32-.03.5h-3.94c.06,1,.77,1.55,1.6,1.55.74,0,1.21-.38,1.39-.91h.88c-.25.9-1.04,1.6-2.27,1.6ZM19.5,23.63h3.11c0-.96-.71-1.49-1.56-1.49-.8,0-1.47.53-1.56,1.49Z"/>
    </g>
    <g>
      <path class="cls-3" d="M29.71,20.86v1.95h1.92v.69h-1.92v1.95h-.76v-1.95h-1.91v-.69h1.91v-1.95h.76Z"/>
      <path class="cls-3" d="M39.11,23.66c0-1.01-.55-1.52-1.38-1.52s-1.41.52-1.41,1.58v2.73h-.82v-4.93h.82v.7c.32-.51.92-.79,1.58-.79,1.14,0,2.02.7,2.02,2.12v2.91h-.81v-2.79Z"/>
      <path class="cls-3" d="M43.41,26.54c-1.4,0-2.46-.99-2.46-2.56s1.1-2.54,2.49-2.54,2.49.98,2.49,2.54-1.13,2.56-2.53,2.56ZM43.41,25.82c.86,0,1.69-.58,1.69-1.84s-.82-1.83-1.67-1.83-1.65.59-1.65,1.83.77,1.84,1.62,1.84Z"/>
      <path class="cls-3" d="M51.39,26.46h-.82v-.73c-.32.51-.92.8-1.58.8-1.13,0-2.03-.7-2.03-2.12v-2.89h.81v2.78c0,1,.55,1.51,1.38,1.51s1.41-.52,1.41-1.58v-2.71h.82v4.93Z"/>
      <path class="cls-3" d="M56.39,23.66c0-1.01-.55-1.52-1.38-1.52s-1.41.52-1.41,1.58v2.73h-.82v-4.93h.82v.7c.32-.51.92-.79,1.58-.79,1.14,0,2.02.7,2.02,2.12v2.91h-.81v-2.79Z"/>
      <path class="cls-3" d="M63.7,20.86v1.95h1.92v.69h-1.92v1.95h-.77v-1.95h-1.91v-.69h1.91v-1.95h.77Z"/>
    </g>
    <g>
      <path class="cls-4" d="M71.52,21.44c.9,0,1.55.45,1.84.98v-.9h.83v5.04c0,1.36-.91,2.32-2.36,2.32-1.3,0-2.22-.66-2.39-1.71h.81c.18.59.77,1,1.58,1,.87,0,1.53-.56,1.53-1.61v-1.04c-.3.53-.94,1.01-1.84,1.01-1.32,0-2.34-1.04-2.34-2.57s1.02-2.53,2.34-2.53ZM71.69,22.15c-.9,0-1.67.66-1.67,1.82s.77,1.84,1.67,1.84,1.67-.67,1.67-1.84-.77-1.83-1.67-1.83Z"/>
      <path class="cls-4" d="M77.72,26.54c-1.4,0-2.46-.99-2.46-2.56s1.1-2.54,2.49-2.54,2.49.98,2.49,2.54-1.12,2.56-2.53,2.56ZM77.72,25.82c.86,0,1.69-.58,1.69-1.84s-.82-1.83-1.67-1.83-1.65.59-1.65,1.83.77,1.84,1.62,1.84Z"/>
      <path class="cls-4" d="M81.2,20.16c0-.32.24-.56.56-.56.3,0,.54.24.54.56s-.24.56-.54.56c-.32,0-.56-.24-.56-.56ZM81.33,21.52h.82v4.93h-.82v-4.93Z"/>
      <path class="cls-4" d="M87.16,23.66c0-1.01-.55-1.52-1.38-1.52s-1.41.52-1.41,1.58v2.73h-.82v-4.93h.82v.7c.32-.51.92-.79,1.58-.79,1.14,0,2.02.7,2.02,2.12v2.91h-.81v-2.79Z"/>
      <path class="cls-4" d="M91.34,21.44c.9,0,1.55.45,1.84.98v-.9h.83v5.04c0,1.36-.91,2.32-2.36,2.32-1.3,0-2.22-.66-2.38-1.71h.81c.18.59.76,1,1.57,1,.87,0,1.53-.56,1.53-1.61v-1.04c-.3.53-.94,1.01-1.84,1.01-1.32,0-2.34-1.04-2.34-2.57s1.02-2.53,2.34-2.53ZM91.5,22.15c-.9,0-1.67.66-1.67,1.82s.77,1.84,1.67,1.84,1.67-.67,1.67-1.84-.77-1.83-1.67-1.83Z"/>
      <path class="cls-4" d="M97.97,22.2h-.64v-.68h.64v-1.24h.82v1.24h1.29v.68h-1.29v2.91c0,.49.18.66.68.66h.6v.69h-.74c-.87,0-1.37-.36-1.37-1.35v-2.91Z"/>
      <path class="cls-4" d="M103.22,26.54c-1.4,0-2.46-.99-2.46-2.56s1.1-2.54,2.49-2.54,2.49.98,2.49,2.54-1.12,2.56-2.53,2.56ZM103.22,25.82c.86,0,1.69-.58,1.69-1.84s-.82-1.83-1.67-1.83-1.65.59-1.65,1.83.76,1.84,1.62,1.84Z"/>
      <path class="cls-4" d="M109.49,26.51c-.32,0-.56-.24-.56-.56s.24-.56.56-.56c.3,0,.54.24.54.56s-.24.56-.54.56Z"/>
      <path class="cls-4" d="M111.38,26.51c-.31,0-.56-.24-.56-.56s.24-.56.56-.56c.3,0,.54.24.54.56s-.24.56-.54.56Z"/>
      <path class="cls-4" d="M113.27,26.51c-.32,0-.56-.24-.56-.56s.24-.56.56-.56c.3,0,.54.24.54.56s-.24.56-.54.56Z"/>
    </g>
    <g>
      <path class="cls-3" d="M12.92,37.32h-2.56v2.1h2.29v.67h-2.29v2.16h2.56v.67h-3.38v-6.28h3.38v.68Z"/>
      <path class="cls-3" d="M15.56,41.09l-1.12,1.84h-.86l1.59-2.45-1.59-2.48h.93l1.17,1.83,1.12-1.83h.85l-1.58,2.44,1.59,2.49h-.93l-1.17-1.84Z"/>
      <path class="cls-3" d="M20.5,37.91c.92,0,1.55.47,1.84.98v-.9h.83v4.93h-.83v-.92c-.3.53-.94,1-1.85,1-1.31,0-2.33-1.04-2.33-2.57s1.02-2.53,2.34-2.53ZM20.66,38.62c-.9,0-1.67.66-1.67,1.82s.76,1.84,1.67,1.84,1.67-.67,1.67-1.84-.77-1.83-1.67-1.83Z"/>
      <path class="cls-3" d="M31.67,40.13c0-1.01-.54-1.52-1.35-1.52s-1.4.53-1.4,1.59v2.72h-.81v-2.79c0-1.01-.54-1.52-1.35-1.52s-1.39.53-1.39,1.59v2.72h-.82v-4.93h.82v.71c.32-.52.91-.8,1.56-.8.81,0,1.49.36,1.81,1.1.29-.71.99-1.1,1.75-1.1,1.12,0,2,.7,2,2.12v2.91h-.81v-2.79Z"/>
      <path class="cls-3" d="M36.49,37.91c1.32,0,2.34.99,2.34,2.53s-1.02,2.57-2.34,2.57c-.9,0-1.54-.49-1.85-.99v3.25h-.82v-7.27h.82v.91c.3-.52.95-.99,1.85-.99ZM36.32,38.62c-.89,0-1.67.68-1.67,1.83s.78,1.84,1.67,1.84,1.67-.68,1.67-1.84-.77-1.82-1.67-1.82Z"/>
      <path class="cls-3" d="M39.91,36.26h.82v6.66h-.82v-6.66Z"/>
      <path class="cls-3" d="M44.25,43.01c-1.4,0-2.44-.99-2.44-2.56s1-2.54,2.44-2.54,2.37,1.01,2.37,2.36c0,.18,0,.32-.03.5h-3.94c.06,1,.77,1.55,1.6,1.55.74,0,1.21-.38,1.39-.91h.88c-.25.9-1.04,1.6-2.27,1.6ZM42.66,40.1h3.11c0-.96-.71-1.49-1.56-1.49-.8,0-1.47.53-1.56,1.49Z"/>
      <path class="cls-3" d="M50.36,39.13c-.31,0-.56-.24-.56-.56s.24-.56.56-.56c.3,0,.54.24.54.56s-.24.56-.54.56ZM50.36,42.98c-.31,0-.56-.24-.56-.56s.24-.56.56-.56c.3,0,.54.24.54.56s-.24.56-.54.56Z"/>
    </g>
    <g class="cls-8">
      <g>
        <path class="cls-2" d="M13.25,56.33h-2.74l-.5,1.4h-.86l2.27-6.24h.95l2.26,6.24h-.86l-.5-1.4ZM11.88,52.49l-1.13,3.17h2.27l-1.13-3.17Z"/>
        <path class="cls-2" d="M16.42,57.72h-.82v-4.93h.82v.8c.28-.55.81-.89,1.59-.89v.85h-.22c-.78,0-1.38.35-1.38,1.49v2.68Z"/>
        <path class="cls-2" d="M21.1,57.81c-1.4,0-2.44-.99-2.44-2.56s1-2.54,2.44-2.54,2.37,1.01,2.37,2.36c0,.18,0,.32-.03.5h-3.94c.06,1,.77,1.55,1.6,1.55.74,0,1.21-.38,1.39-.91h.88c-.25.9-1.04,1.6-2.27,1.6ZM19.5,54.9h3.11c0-.96-.71-1.49-1.56-1.49-.8,0-1.47.53-1.56,1.49Z"/>
      </g>
      <g>
        <path class="cls-3" d="M27.12,53.47h-.64v-.68h.64v-1.24h.82v1.24h1.29v.68h-1.29v2.91c0,.49.18.66.68.66h.6v.69h-.74c-.87,0-1.37-.36-1.37-1.35v-2.91Z"/>
        <path class="cls-3" d="M30.22,51.06h.82v2.44c.32-.52.94-.8,1.63-.8,1.1,0,1.97.7,1.97,2.12v2.91h-.81v-2.79c0-1.01-.55-1.52-1.38-1.52s-1.41.52-1.41,1.58v2.73h-.82v-6.66Z"/>
        <path class="cls-3" d="M38.12,57.81c-1.4,0-2.44-.99-2.44-2.56s1-2.54,2.44-2.54,2.37,1.01,2.37,2.36c0,.18,0,.32-.03.5h-3.94c.06,1,.77,1.55,1.6,1.55.74,0,1.21-.38,1.39-.91h.88c-.25.9-1.04,1.6-2.27,1.6ZM36.52,54.9h3.12c0-.96-.71-1.49-1.56-1.49-.8,0-1.47.53-1.56,1.49Z"/>
        <path class="cls-3" d="M46,52.71c.92,0,1.55.47,1.84.98v-.9h.83v4.93h-.83v-.92c-.3.53-.94,1-1.85,1-1.31,0-2.33-1.04-2.33-2.57s1.02-2.53,2.34-2.53ZM46.16,53.42c-.9,0-1.67.66-1.67,1.82s.77,1.84,1.67,1.84,1.67-.67,1.67-1.84-.77-1.83-1.67-1.83Z"/>
        <path class="cls-3" d="M50.23,53.47h-.64v-.68h.64v-1.24h.82v1.24h1.29v.68h-1.29v2.91c0,.49.18.66.68.66h.6v.69h-.74c-.87,0-1.37-.36-1.37-1.35v-2.91Z"/>
        <path class="cls-3" d="M53.32,51.06h.82v2.44c.32-.52.94-.8,1.63-.8,1.1,0,1.97.7,1.97,2.12v2.91h-.81v-2.79c0-1.01-.55-1.52-1.38-1.52s-1.41.52-1.41,1.58v2.73h-.82v-6.66Z"/>
        <path class="cls-3" d="M59.08,51.06h.82v6.66h-.82v-6.66Z"/>
        <path class="cls-3" d="M63.43,57.81c-1.4,0-2.44-.99-2.44-2.56s1-2.54,2.44-2.54,2.37,1.01,2.37,2.36c0,.18,0,.32-.03.5h-3.94c.06,1,.77,1.55,1.6,1.55.74,0,1.21-.38,1.39-.91h.88c-.25.9-1.04,1.6-2.27,1.6ZM61.84,54.9h3.11c0-.96-.71-1.49-1.56-1.49-.8,0-1.47.53-1.56,1.49Z"/>
        <path class="cls-3" d="M67.06,53.47h-.64v-.68h.64v-1.24h.82v1.24h1.29v.68h-1.29v2.91c0,.49.18.66.68.66h.6v.69h-.74c-.87,0-1.37-.36-1.37-1.35v-2.91Z"/>
        <path class="cls-3" d="M72.29,57.81c-1.4,0-2.44-.99-2.44-2.56s1-2.54,2.44-2.54,2.37,1.01,2.37,2.36c0,.18,0,.32-.03.5h-3.94c.06,1,.77,1.55,1.6,1.55.74,0,1.21-.38,1.39-.91h.88c-.25.9-1.04,1.6-2.27,1.6ZM70.7,54.9h3.11c0-.96-.71-1.49-1.56-1.49-.8,0-1.47.53-1.56,1.49Z"/>
        <path class="cls-3" d="M77.48,57.81c-1.15,0-1.96-.63-2.02-1.53h.85c.04.48.47.84,1.16.84.65,0,1.01-.32,1.01-.73,0-1.1-2.92-.46-2.92-2.29,0-.76.71-1.38,1.81-1.38s1.81.58,1.86,1.55h-.82c-.04-.5-.41-.86-1.07-.86-.6,0-.96.29-.96.68,0,1.17,2.86.53,2.9,2.29,0,.81-.71,1.42-1.8,1.42Z"/>
      </g>
      <g>
        <path class="cls-4" d="M84.87,52.71c.9,0,1.55.45,1.84.98v-.9h.83v5.04c0,1.36-.91,2.32-2.36,2.32-1.3,0-2.22-.66-2.39-1.71h.81c.18.59.76,1,1.58,1,.87,0,1.53-.56,1.53-1.61v-1.04c-.3.53-.94,1.01-1.84,1.01-1.32,0-2.34-1.04-2.34-2.57s1.02-2.53,2.34-2.53ZM85.03,53.42c-.9,0-1.67.66-1.67,1.82s.77,1.84,1.67,1.84,1.68-.67,1.68-1.84-.78-1.83-1.68-1.83Z"/>
        <path class="cls-4" d="M91.07,57.81c-1.39,0-2.46-.99-2.46-2.56s1.1-2.54,2.49-2.54,2.49.98,2.49,2.54-1.12,2.56-2.53,2.56ZM91.07,57.08c.86,0,1.69-.58,1.69-1.84s-.82-1.83-1.67-1.83-1.65.59-1.65,1.83.77,1.84,1.62,1.84Z"/>
        <path class="cls-4" d="M94.54,51.43c0-.32.24-.56.56-.56.3,0,.54.24.54.56s-.24.56-.54.56c-.31,0-.56-.24-.56-.56ZM94.68,52.79h.82v4.93h-.82v-4.93Z"/>
        <path class="cls-4" d="M100.5,54.93c0-1.01-.55-1.52-1.38-1.52s-1.41.52-1.41,1.58v2.73h-.82v-4.93h.82v.7c.32-.51.92-.79,1.58-.79,1.14,0,2.02.7,2.02,2.12v2.91h-.81v-2.79Z"/>
        <path class="cls-4" d="M104.69,52.71c.9,0,1.55.45,1.84.98v-.9h.83v5.04c0,1.36-.91,2.32-2.36,2.32-1.3,0-2.22-.66-2.39-1.71h.81c.18.59.77,1,1.58,1,.87,0,1.53-.56,1.53-1.61v-1.04c-.3.53-.94,1.01-1.84,1.01-1.32,0-2.34-1.04-2.34-2.57s1.02-2.53,2.34-2.53ZM104.85,53.42c-.9,0-1.67.66-1.67,1.82s.76,1.84,1.67,1.84,1.67-.67,1.67-1.84-.77-1.83-1.67-1.83Z"/>
        <path class="cls-4" d="M111.32,53.47h-.64v-.68h.64v-1.24h.82v1.24h1.29v.68h-1.29v2.91c0,.49.18.66.68.66h.6v.69h-.74c-.87,0-1.37-.36-1.37-1.35v-2.91Z"/>
        <path class="cls-4" d="M116.57,57.81c-1.4,0-2.46-.99-2.46-2.56s1.1-2.54,2.49-2.54,2.49.98,2.49,2.54-1.13,2.56-2.53,2.56ZM116.57,57.08c.86,0,1.69-.58,1.69-1.84s-.82-1.83-1.67-1.83-1.65.59-1.65,1.83.77,1.84,1.62,1.84Z"/>
      </g>
      <g>
        <path class="cls-3" d="M122.76,53.47h-.64v-.68h.64v-1.24h.82v1.24h1.29v.68h-1.29v2.91c0,.49.18.66.68.66h.6v.69h-.74c-.87,0-1.37-.36-1.37-1.35v-2.91Z"/>
        <path class="cls-3" d="M125.86,51.06h.82v2.44c.32-.52.94-.8,1.63-.8,1.1,0,1.97.7,1.97,2.12v2.91h-.81v-2.79c0-1.01-.55-1.52-1.38-1.52s-1.41.52-1.41,1.58v2.73h-.82v-6.66Z"/>
        <path class="cls-3" d="M133.75,57.81c-1.4,0-2.44-.99-2.44-2.56s1-2.54,2.44-2.54,2.37,1.01,2.37,2.36c0,.18,0,.32-.03.5h-3.94c.06,1,.77,1.55,1.6,1.55.74,0,1.21-.38,1.39-.91h.88c-.25.9-1.04,1.6-2.27,1.6ZM132.16,54.9h3.11c0-.96-.71-1.49-1.56-1.49-.8,0-1.47.53-1.56,1.49Z"/>
        <path class="cls-3" d="M142.44,57.79c-1.76,0-3.15-1.32-3.15-3.21s1.39-3.21,3.15-3.21,3.15,1.32,3.15,3.21-1.38,3.21-3.15,3.21ZM142.44,57.08c1.32,0,2.31-.96,2.31-2.49s-.99-2.49-2.31-2.49-2.31.95-2.31,2.49.99,2.49,2.31,2.49Z"/>
        <path class="cls-3" d="M146.67,51.06h.82v6.66h-.82v-6.66Z"/>
        <path class="cls-3" d="M152.29,52.79h.85l-2.97,7.26h-.85l.97-2.38-1.99-4.88h.91l1.55,4,1.53-4Z"/>
        <path class="cls-3" d="M161.07,54.93c0-1.01-.54-1.52-1.35-1.52s-1.4.53-1.4,1.59v2.72h-.81v-2.79c0-1.01-.54-1.52-1.35-1.52s-1.4.53-1.4,1.59v2.72h-.82v-4.93h.82v.71c.32-.52.91-.8,1.56-.8.81,0,1.49.36,1.81,1.1.29-.71.99-1.1,1.75-1.1,1.12,0,2,.7,2,2.12v2.91h-.81v-2.79Z"/>
        <path class="cls-3" d="M165.89,52.71c1.32,0,2.34.99,2.34,2.53s-1.02,2.57-2.34,2.57c-.9,0-1.54-.49-1.85-.99v3.25h-.82v-7.27h.82v.91c.3-.52.95-.99,1.85-.99ZM165.72,53.42c-.89,0-1.67.68-1.67,1.83s.78,1.84,1.67,1.84,1.67-.68,1.67-1.84-.76-1.82-1.67-1.82Z"/>
        <path class="cls-3" d="M169.17,51.43c0-.32.24-.56.56-.56.3,0,.54.24.54.56s-.24.56-.54.56c-.32,0-.56-.24-.56-.56ZM169.31,52.79h.82v4.93h-.82v-4.93Z"/>
        <path class="cls-3" d="M173.62,52.71c1.22,0,2.03.63,2.28,1.67h-.88c-.17-.59-.67-.97-1.39-.97-.9,0-1.57.64-1.57,1.85s.67,1.86,1.57,1.86c.73,0,1.21-.35,1.39-.97h.88c-.25.98-1.05,1.67-2.28,1.67-1.41,0-2.4-.99-2.4-2.56s1-2.54,2.4-2.54Z"/>
        <path class="cls-3" d="M185.12,53.27h-.98c-.34-.73-1.03-1.15-1.91-1.15-1.32,0-2.31.95-2.31,2.47s.99,2.46,2.31,2.46c1.23,0,2.08-.79,2.21-2.03h-2.5v-.67h3.38v.63c-.14,1.56-1.38,2.81-3.08,2.81s-3.15-1.31-3.15-3.2,1.39-3.21,3.15-3.21c1.32,0,2.42.68,2.89,1.89Z"/>
        <path class="cls-3" d="M188.42,52.71c.92,0,1.55.47,1.84.98v-.9h.83v4.93h-.83v-.92c-.3.53-.94,1-1.85,1-1.31,0-2.33-1.04-2.33-2.57s1.02-2.53,2.34-2.53ZM188.59,53.42c-.9,0-1.67.66-1.67,1.82s.77,1.84,1.67,1.84,1.67-.67,1.67-1.84-.77-1.83-1.67-1.83Z"/>
        <path class="cls-3" d="M199.59,54.93c0-1.01-.54-1.52-1.35-1.52s-1.4.53-1.4,1.59v2.72h-.81v-2.79c0-1.01-.54-1.52-1.35-1.52s-1.4.53-1.4,1.59v2.72h-.82v-4.93h.82v.71c.32-.52.91-.8,1.56-.8.81,0,1.49.36,1.81,1.1.29-.71.99-1.1,1.75-1.1,1.12,0,2,.7,2,2.12v2.91h-.81v-2.79Z"/>
        <path class="cls-3" d="M203.88,57.81c-1.4,0-2.44-.99-2.44-2.56s1-2.54,2.44-2.54,2.37,1.01,2.37,2.36c0,.18,0,.32-.03.5h-3.94c.06,1,.76,1.55,1.6,1.55.74,0,1.21-.38,1.39-.91h.88c-.25.9-1.04,1.6-2.27,1.6ZM202.28,54.9h3.12c0-.96-.71-1.49-1.56-1.49-.8,0-1.47.53-1.56,1.49Z"/>
        <path class="cls-3" d="M209.07,57.81c-1.15,0-1.96-.63-2.02-1.53h.85c.04.48.47.84,1.16.84.65,0,1.01-.32,1.01-.73,0-1.1-2.92-.46-2.92-2.29,0-.76.71-1.38,1.81-1.38s1.81.58,1.86,1.55h-.82c-.04-.5-.41-.86-1.07-.86-.6,0-.96.29-.96.68,0,1.17,2.86.53,2.9,2.29,0,.81-.71,1.42-1.8,1.42Z"/>
        <path class="cls-3" d="M213.62,51.37c1.18,0,1.99.71,1.99,1.85,0,1.31-.91,1.85-2.17,1.85l-.03.85h-.71l-.04-1.42h.26c1.03,0,1.9-.2,1.9-1.29,0-.72-.47-1.17-1.2-1.17s-1.2.42-1.2,1.13h-.78c0-1.09.78-1.81,1.96-1.81ZM213.06,57.78c-.32,0-.56-.24-.56-.56s.24-.56.56-.56c.3,0,.54.24.54.56s-.24.56-.54.56Z"/>
      </g>
    </g>
    <g>
      <path class="cls-3" d="M252.65,7.78v5.42h.4v.42h-1.61v-.42h.4v-5.42h-.4v-.43h1.61v.43h-.4Z"/>
      <path class="cls-3" d="M257.61,10.86c0-1.01-.55-1.52-1.38-1.52s-1.41.52-1.41,1.58v2.73h-.82v-4.93h.82v.7c.32-.51.92-.79,1.58-.79,1.14,0,2.02.7,2.02,2.12v2.91h-.81v-2.79Z"/>
      <path class="cls-3" d="M263.91,13.74c-1.15,0-1.96-.63-2.02-1.53h.85c.04.48.47.84,1.16.84.65,0,1.01-.32,1.01-.73,0-1.1-2.92-.46-2.92-2.29,0-.76.71-1.38,1.81-1.38s1.81.58,1.86,1.55h-.82c-.04-.5-.41-.86-1.07-.86-.6,0-.96.29-.96.68,0,1.17,2.86.53,2.9,2.29,0,.81-.71,1.42-1.8,1.42Z"/>
      <path class="cls-3" d="M269,13.74c-1.4,0-2.44-.99-2.44-2.56s1-2.54,2.44-2.54,2.37,1.01,2.37,2.36c0,.18,0,.32-.03.5h-3.94c.06,1,.77,1.55,1.6,1.55.74,0,1.21-.38,1.39-.91h.88c-.25.9-1.04,1.6-2.27,1.6ZM267.4,10.83h3.12c0-.96-.71-1.49-1.56-1.49-.8,0-1.47.53-1.56,1.49Z"/>
      <path class="cls-3" d="M276.05,10.86c0-1.01-.55-1.52-1.38-1.52s-1.41.52-1.41,1.58v2.73h-.82v-4.93h.82v.7c.32-.51.92-.79,1.58-.79,1.14,0,2.02.7,2.02,2.12v2.91h-.81v-2.79Z"/>
      <path class="cls-3" d="M278.38,9.4h-.64v-.68h.64v-1.24h.82v1.24h1.29v.68h-1.29v2.91c0,.49.18.66.68.66h.6v.69h-.74c-.87,0-1.37-.36-1.37-1.35v-2.91Z"/>
      <path class="cls-3" d="M283.61,13.74c-1.4,0-2.44-.99-2.44-2.56s1-2.54,2.44-2.54,2.37,1.01,2.37,2.36c0,.18,0,.32-.03.5h-3.94c.06,1,.77,1.55,1.6,1.55.74,0,1.21-.38,1.39-.91h.88c-.25.9-1.04,1.6-2.27,1.6ZM282.02,10.83h3.11c0-.96-.71-1.49-1.56-1.49-.8,0-1.47.53-1.56,1.49Z"/>
      <path class="cls-3" d="M290.67,10.86c0-1.01-.55-1.52-1.38-1.52s-1.41.52-1.41,1.58v2.73h-.82v-4.93h.82v.7c.32-.51.92-.79,1.58-.79,1.14,0,2.02.7,2.02,2.12v2.91h-.81v-2.79Z"/>
      <path class="cls-3" d="M294.92,8.64c1.22,0,2.03.63,2.28,1.67h-.88c-.17-.59-.67-.97-1.4-.97-.9,0-1.57.64-1.57,1.85s.67,1.86,1.57,1.86c.73,0,1.22-.35,1.4-.97h.88c-.25.98-1.05,1.67-2.28,1.67-1.4,0-2.4-.99-2.4-2.56s1-2.54,2.4-2.54Z"/>
      <path class="cls-3" d="M300.42,13.74c-1.4,0-2.44-.99-2.44-2.56s1-2.54,2.44-2.54,2.37,1.01,2.37,2.36c0,.18,0,.32-.03.5h-3.94c.06,1,.77,1.55,1.6,1.55.74,0,1.21-.38,1.39-.91h.88c-.25.9-1.04,1.6-2.27,1.6ZM298.82,10.83h3.11c0-.96-.71-1.49-1.56-1.49-.8,0-1.47.53-1.56,1.49Z"/>
      <path class="cls-3" d="M305.61,13.74c-1.15,0-1.96-.63-2.02-1.53h.85c.04.48.47.84,1.16.84.65,0,1.01-.32,1.01-.73,0-1.1-2.92-.46-2.92-2.29,0-.76.71-1.38,1.81-1.38s1.81.58,1.86,1.55h-.82c-.04-.5-.41-.86-1.07-.86-.6,0-.96.29-.96.68,0,1.17,2.86.53,2.9,2.29,0,.81-.71,1.42-1.8,1.42Z"/>
      <path class="cls-3" d="M311.14,9.4h-.64v-.68h.64v-1.24h.82v1.24h1.29v.68h-1.29v2.91c0,.49.18.66.68.66h.6v.69h-.74c-.87,0-1.37-.36-1.37-1.35v-2.91Z"/>
      <path class="cls-3" d="M314.24,6.99h.82v2.44c.32-.52.94-.8,1.63-.8,1.1,0,1.97.7,1.97,2.12v2.91h-.81v-2.79c0-1.01-.55-1.52-1.38-1.52s-1.41.52-1.41,1.58v2.73h-.82v-6.66Z"/>
      <path class="cls-3" d="M322.13,13.74c-1.4,0-2.44-.99-2.44-2.56s1-2.54,2.44-2.54,2.37,1.01,2.37,2.36c0,.18,0,.32-.03.5h-3.94c.06,1,.77,1.55,1.6,1.55.74,0,1.21-.38,1.39-.91h.88c-.25.9-1.04,1.6-2.27,1.6ZM320.54,10.83h3.11c0-.96-.71-1.49-1.56-1.49-.8,0-1.47.53-1.56,1.49Z"/>
      <path class="cls-3" d="M328.28,8.72l1.54,4.18,1.53-4.18h.87l-1.94,4.93h-.95l-1.94-4.93h.88Z"/>
      <path class="cls-3" d="M335.17,13.74c-1.4,0-2.44-.99-2.44-2.56s1-2.54,2.44-2.54,2.37,1.01,2.37,2.36c0,.18,0,.32-.03.5h-3.94c.06,1,.76,1.55,1.6,1.55.74,0,1.21-.38,1.39-.91h.88c-.25.9-1.04,1.6-2.27,1.6ZM333.57,10.83h3.12c0-.96-.71-1.49-1.56-1.49-.8,0-1.47.53-1.56,1.49Z"/>
      <path class="cls-3" d="M339.43,13.66h-.82v-4.93h.82v.8c.28-.55.81-.89,1.59-.89v.85h-.22c-.78,0-1.38.35-1.38,1.5v2.68Z"/>
      <path class="cls-3" d="M344.63,8.64c1.33,0,2.34.99,2.34,2.53s-1.02,2.57-2.34,2.57c-.9,0-1.54-.45-1.85-.99v.91h-.82v-6.66h.82v2.65c.32-.55.97-1,1.85-1ZM344.46,9.35c-.89,0-1.67.68-1.67,1.83s.78,1.84,1.67,1.84,1.67-.68,1.67-1.84-.76-1.82-1.67-1.82Z"/>
      <path class="cls-3" d="M351.45,7.37l-.53,2.04h-.91l.86-2.04h.58ZM352.91,7.37l-.53,2.04h-.91l.87-2.04h.58Z"/>
      <path class="cls-3" d="M354.11,9.4h-.64v-.68h.64v-1.24h.82v1.24h1.29v.68h-1.29v2.91c0,.49.18.66.68.66h.6v.69h-.74c-.87,0-1.37-.36-1.37-1.35v-2.91Z"/>
      <path class="cls-3" d="M359.36,13.74c-1.4,0-2.46-.99-2.46-2.56s1.1-2.54,2.49-2.54,2.49.98,2.49,2.54-1.12,2.56-2.53,2.56ZM359.36,13.02c.86,0,1.69-.58,1.69-1.84s-.82-1.83-1.67-1.83-1.65.59-1.65,1.83.76,1.84,1.62,1.84Z"/>
      <path class="cls-3" d="M368.03,8.64c1.33,0,2.34.99,2.34,2.53s-1.02,2.57-2.34,2.57c-.9,0-1.54-.45-1.84-.99v.91h-.82v-6.66h.82v2.65c.32-.55.97-1,1.84-1ZM367.86,9.35c-.89,0-1.67.68-1.67,1.83s.78,1.84,1.67,1.84,1.67-.68,1.67-1.84-.77-1.82-1.67-1.82Z"/>
      <path class="cls-3" d="M373.59,13.74c-1.4,0-2.44-.99-2.44-2.56s1-2.54,2.44-2.54,2.37,1.01,2.37,2.36c0,.18,0,.32-.03.5h-3.94c.06,1,.77,1.55,1.6,1.55.74,0,1.21-.38,1.39-.91h.88c-.25.9-1.04,1.6-2.27,1.6ZM371.99,10.83h3.12c0-.96-.71-1.49-1.56-1.49-.8,0-1.47.53-1.56,1.49Z"/>
      <path class="cls-3" d="M376.71,9.42l.53-2.04h.91l-.86,2.04h-.58ZM378.18,9.42l.53-2.04h.91l-.86,2.04h-.58Z"/>
      <path class="cls-3" d="M385.05,8.64c1.22,0,2.03.63,2.28,1.67h-.88c-.17-.59-.67-.97-1.39-.97-.9,0-1.57.64-1.57,1.85s.67,1.86,1.57,1.86c.73,0,1.21-.35,1.39-.97h.88c-.25.98-1.05,1.67-2.28,1.67-1.41,0-2.4-.99-2.4-2.56s1-2.54,2.4-2.54Z"/>
      <path class="cls-3" d="M390.57,13.74c-1.39,0-2.46-.99-2.46-2.56s1.1-2.54,2.49-2.54,2.49.98,2.49,2.54-1.12,2.56-2.53,2.56ZM390.57,13.02c.86,0,1.69-.58,1.69-1.84s-.82-1.83-1.67-1.83-1.65.59-1.65,1.83.77,1.84,1.62,1.84Z"/>
      <path class="cls-3" d="M401.3,10.86c0-1.01-.54-1.52-1.35-1.52s-1.4.53-1.4,1.59v2.72h-.81v-2.79c0-1.01-.54-1.52-1.35-1.52s-1.4.53-1.4,1.59v2.72h-.82v-4.93h.82v.71c.32-.52.91-.8,1.56-.8.81,0,1.48.36,1.81,1.1.29-.71.99-1.1,1.75-1.1,1.13,0,2,.7,2,2.12v2.91h-.81v-2.79Z"/>
      <path class="cls-3" d="M405.58,13.74c-1.4,0-2.44-.99-2.44-2.56s1-2.54,2.44-2.54,2.37,1.01,2.37,2.36c0,.18,0,.32-.03.5h-3.94c.06,1,.77,1.55,1.6,1.55.74,0,1.21-.38,1.39-.91h.88c-.25.9-1.04,1.6-2.27,1.6ZM403.99,10.83h3.11c0-.96-.71-1.49-1.56-1.49-.8,0-1.47.53-1.56,1.49Z"/>
      <path class="cls-3" d="M410.77,13.74c-1.15,0-1.96-.63-2.02-1.53h.85c.04.48.47.84,1.16.84.65,0,1.01-.32,1.01-.73,0-1.1-2.92-.46-2.92-2.29,0-.76.71-1.38,1.81-1.38s1.81.58,1.86,1.55h-.82c-.04-.5-.41-.86-1.07-.86-.6,0-.96.29-.96.68,0,1.17,2.86.53,2.9,2.29,0,.81-.71,1.42-1.8,1.42Z"/>
      <path class="cls-3" d="M418.16,8.64c.92,0,1.55.47,1.84.98v-.9h.83v4.93h-.83v-.92c-.3.53-.94,1-1.85,1-1.31,0-2.33-1.04-2.33-2.57s1.02-2.53,2.34-2.53ZM418.32,9.35c-.9,0-1.67.66-1.67,1.82s.77,1.84,1.67,1.84,1.68-.67,1.68-1.84-.78-1.83-1.68-1.83Z"/>
      <path class="cls-3" d="M422.37,9.4h-.64v-.68h.64v-.35c0-1.1.54-1.59,1.8-1.59v.68c-.74,0-.98.27-.98.91v.35h1.04v.68h-1.04v4.26h-.82v-4.26Z"/>
      <path class="cls-3" d="M425.35,9.4h-.64v-.68h.64v-1.24h.82v1.24h1.29v.68h-1.29v2.91c0,.49.18.66.68.66h.6v.69h-.74c-.87,0-1.37-.36-1.37-1.35v-2.91Z"/>
      <path class="cls-3" d="M430.58,13.74c-1.4,0-2.44-.99-2.44-2.56s1-2.54,2.44-2.54,2.37,1.01,2.37,2.36c0,.18,0,.32-.03.5h-3.94c.06,1,.77,1.55,1.6,1.55.74,0,1.21-.38,1.39-.91h.88c-.25.9-1.04,1.6-2.27,1.6ZM428.99,10.83h3.11c0-.96-.71-1.49-1.56-1.49-.8,0-1.47.53-1.56,1.49Z"/>
      <path class="cls-3" d="M434.85,13.66h-.82v-4.93h.82v.8c.28-.55.81-.89,1.59-.89v.85h-.22c-.78,0-1.38.35-1.38,1.5v2.68Z"/>
      <path class="cls-3" d="M439.97,9.4h-.64v-.68h.64v-1.24h.82v1.24h1.29v.68h-1.29v2.91c0,.49.18.66.68.66h.6v.69h-.74c-.87,0-1.37-.36-1.37-1.35v-2.91Z"/>
      <path class="cls-3" d="M443.06,6.99h.82v2.44c.32-.52.94-.8,1.63-.8,1.1,0,1.97.7,1.97,2.12v2.91h-.81v-2.79c0-1.01-.55-1.52-1.38-1.52s-1.41.52-1.41,1.58v2.73h-.82v-6.66Z"/>
      <path class="cls-3" d="M450.96,13.74c-1.4,0-2.44-.99-2.44-2.56s1-2.54,2.44-2.54,2.37,1.01,2.37,2.36c0,.18,0,.32-.03.5h-3.94c.06,1,.76,1.55,1.6,1.55.74,0,1.21-.38,1.39-.91h.88c-.25.9-1.04,1.6-2.27,1.6ZM449.37,10.83h3.12c0-.96-.71-1.49-1.56-1.49-.8,0-1.47.53-1.56,1.49Z"/>
      <path class="cls-3" d="M460.42,10.86c0-1.01-.55-1.52-1.38-1.52s-1.41.52-1.41,1.58v2.73h-.82v-4.93h.82v.7c.32-.51.92-.79,1.58-.79,1.14,0,2.02.7,2.02,2.12v2.91h-.81v-2.79Z"/>
      <path class="cls-3" d="M464.72,13.74c-1.39,0-2.46-.99-2.46-2.56s1.1-2.54,2.49-2.54,2.49.98,2.49,2.54-1.12,2.56-2.53,2.56ZM464.72,13.02c.86,0,1.69-.58,1.69-1.84s-.82-1.83-1.67-1.83-1.65.59-1.65,1.83.77,1.84,1.62,1.84Z"/>
      <path class="cls-3" d="M472.7,13.66h-.82v-.73c-.32.51-.92.8-1.58.8-1.13,0-2.03-.7-2.03-2.12v-2.89h.81v2.78c0,1,.55,1.51,1.38,1.51s1.41-.52,1.41-1.58v-2.71h.82v4.93Z"/>
      <path class="cls-3" d="M477.7,10.86c0-1.01-.55-1.52-1.38-1.52s-1.41.52-1.41,1.58v2.73h-.82v-4.93h.82v.7c.32-.51.92-.79,1.58-.79,1.14,0,2.02.7,2.02,2.12v2.91h-.81v-2.79Z"/>
      <path class="cls-3" d="M480.11,9.86c-.32,0-.56-.24-.56-.56s.24-.56.56-.56c.3,0,.54.24.54.56s-.24.56-.54.56ZM480.11,13.71c-.32,0-.56-.24-.56-.56s.24-.56.56-.56c.3,0,.54.24.54.56s-.24.56-.54.56Z"/>
    </g>
    <path class="cls-3" d="M252.65,22.57v5.42h.4v.42h-1.61v-.42h.4v-5.42h-.4v-.43h1.61v.43h-.4Z"/>
    <line class="cls-7" x1="264.99" y1="25.9" x2="255.71" y2="25.9"/>
    <polygon class="cls-3" points="270.45 25.9 263.44 23.35 263.44 28.46 270.45 25.9"/>
    <g>
      <path class="cls-3" d="M275.58,23.44c.92,0,1.55.47,1.84.98v-.9h.83v4.93h-.83v-.92c-.3.53-.94,1-1.85,1-1.31,0-2.33-1.04-2.33-2.57s1.02-2.53,2.34-2.53ZM275.75,24.15c-.9,0-1.67.66-1.67,1.82s.76,1.84,1.67,1.84,1.67-.67,1.67-1.84-.77-1.83-1.67-1.83Z"/>
      <path class="cls-3" d="M286.75,25.66c0-1.01-.54-1.52-1.35-1.52s-1.4.53-1.4,1.59v2.72h-.81v-2.79c0-1.01-.54-1.52-1.35-1.52s-1.39.53-1.39,1.59v2.72h-.82v-4.93h.82v.71c.32-.52.91-.8,1.56-.8.81,0,1.49.36,1.81,1.1.29-.71.99-1.1,1.75-1.1,1.12,0,2,.7,2,2.12v2.91h-.81v-2.79Z"/>
    </g>
    <g>
      <path class="cls-3" d="M315.42,22.18h.87l1.37,5.32,1.51-5.32h.92l1.44,5.3,1.38-5.3h.88l-1.82,6.27h-.92l-1.46-5.05-1.51,5.05h-.91s-1.75-6.27-1.75-6.27Z"/>
      <path class="cls-3" d="M326.82,28.54c-1.4,0-2.44-.99-2.44-2.56s1-2.54,2.44-2.54,2.37,1.01,2.37,2.36c0,.18,0,.32-.03.5h-3.94c.06,1,.77,1.55,1.6,1.55.74,0,1.21-.38,1.39-.91h.88c-.25.9-1.04,1.6-2.27,1.6ZM325.23,25.63h3.11c0-.96-.71-1.49-1.56-1.49-.8,0-1.47.53-1.56,1.49Z"/>
      <path class="cls-3" d="M332.51,19.97h.82l-2.47,10.01h-.81l2.46-10.01Z"/>
      <path class="cls-3" d="M334.16,22.18h4.25v.67h-1.71v5.61h-.82v-5.61h-1.72v-.67Z"/>
      <path class="cls-3" d="M339.42,21.79h.82v2.44c.32-.52.94-.8,1.63-.8,1.1,0,1.97.7,1.97,2.12v2.91h-.81v-2.79c0-1.01-.55-1.52-1.38-1.52s-1.41.52-1.41,1.58v2.73h-.82v-6.66Z"/>
      <path class="cls-3" d="M347.31,28.54c-1.4,0-2.44-.99-2.44-2.56s1-2.54,2.44-2.54,2.37,1.01,2.37,2.36c0,.18,0,.32-.03.5h-3.94c.06,1,.76,1.55,1.6,1.55.74,0,1.21-.38,1.39-.91h.88c-.25.9-1.04,1.6-2.27,1.6ZM345.72,25.63h3.12c0-.96-.71-1.49-1.56-1.49-.8,0-1.47.53-1.56,1.49Z"/>
      <path class="cls-3" d="M354.16,23.52h.85l-2.97,7.26h-.85l.97-2.38-1.99-4.88h.91l1.55,4,1.53-4Z"/>
    </g>
    <line class="cls-7" x1="366.82" y1="25.9" x2="357.54" y2="25.9"/>
    <polygon class="cls-3" points="372.28 25.9 365.27 23.35 365.27 28.46 372.28 25.9"/>
    <g>
      <path class="cls-3" d="M377.41,23.44c.92,0,1.55.47,1.84.98v-.9h.83v4.93h-.83v-.92c-.3.53-.94,1-1.85,1-1.31,0-2.33-1.04-2.33-2.57s1.02-2.53,2.34-2.53ZM377.57,24.15c-.9,0-1.67.66-1.67,1.82s.77,1.84,1.67,1.84,1.67-.67,1.67-1.84-.77-1.83-1.67-1.83Z"/>
      <path class="cls-3" d="M382.28,28.46h-.82v-4.93h.82v.8c.28-.55.81-.89,1.59-.89v.85h-.22c-.78,0-1.38.35-1.38,1.49v2.68Z"/>
      <path class="cls-3" d="M386.95,28.54c-1.4,0-2.44-.99-2.44-2.56s1-2.54,2.44-2.54,2.37,1.01,2.37,2.36c0,.18,0,.32-.03.5h-3.94c.06,1,.77,1.55,1.6,1.55.74,0,1.21-.38,1.39-.91h.88c-.25.9-1.04,1.6-2.27,1.6ZM385.35,25.63h3.11c0-.96-.71-1.49-1.56-1.49-.8,0-1.47.53-1.56,1.49Z"/>
    </g>
    <g>
      <path class="cls-3" d="M421.41,25.61h-3.2v2.84h-.82v-6.27h.82v2.75h3.2v-2.75h.82v6.27h-.82v-2.84Z"/>
      <path class="cls-3" d="M425.75,28.54c-1.4,0-2.44-.99-2.44-2.56s1-2.54,2.44-2.54,2.37,1.01,2.37,2.36c0,.18,0,.32-.03.5h-3.94c.06,1,.77,1.55,1.6,1.55.74,0,1.21-.38,1.39-.91h.88c-.25.9-1.04,1.6-2.27,1.6ZM424.15,25.63h3.11c0-.96-.71-1.49-1.56-1.49-.8,0-1.47.53-1.56,1.49Z"/>
      <path class="cls-3" d="M433.84,19.97h.82l-2.47,10.01h-.81l2.46-10.01Z"/>
      <path class="cls-3" d="M440.27,28.52c-1.26,0-2.15-.7-2.17-1.74h.87c.05.52.42,1.04,1.3,1.04.79,0,1.26-.45,1.26-1.04,0-1.69-3.39-.61-3.39-2.94,0-1.04.84-1.74,2.08-1.74s1.98.66,2.08,1.61h-.9c-.05-.42-.45-.9-1.22-.91-.67-.02-1.21.33-1.21,1.01,0,1.62,3.38.61,3.38,2.93,0,.89-.73,1.77-2.09,1.77Z"/>
      <path class="cls-3" d="M443.57,21.79h.82v2.44c.32-.52.94-.8,1.63-.8,1.1,0,1.97.7,1.97,2.12v2.91h-.81v-2.79c0-1.01-.55-1.52-1.38-1.52s-1.41.52-1.41,1.58v2.73h-.82v-6.66Z"/>
      <path class="cls-3" d="M451.46,28.54c-1.4,0-2.44-.99-2.44-2.56s1-2.54,2.44-2.54,2.37,1.01,2.37,2.36c0,.18,0,.32-.03.5h-3.94c.06,1,.77,1.55,1.6,1.55.74,0,1.21-.38,1.39-.91h.88c-.25.9-1.04,1.6-2.27,1.6ZM449.87,25.63h3.11c0-.96-.71-1.49-1.56-1.49-.8,0-1.47.53-1.56,1.49Z"/>
    </g>
    <line class="cls-7" x1="465.89" y1="25.9" x2="456.62" y2="25.9"/>
    <polygon class="cls-3" points="471.36 25.9 464.34 23.35 464.34 28.46 471.36 25.9"/>
    <g>
      <path class="cls-3" d="M474.32,22.16c0-.32.24-.56.56-.56.3,0,.54.24.54.56s-.24.56-.54.56c-.31,0-.56-.24-.56-.56ZM474.45,23.52h.82v4.93h-.82v-4.93Z"/>
      <path class="cls-3" d="M478.41,28.54c-1.15,0-1.96-.63-2.02-1.53h.85c.04.48.47.84,1.16.84.65,0,1.01-.32,1.01-.73,0-1.1-2.92-.46-2.92-2.29,0-.76.71-1.38,1.81-1.38s1.81.58,1.86,1.55h-.82c-.04-.5-.41-.86-1.07-.86-.6,0-.96.29-.96.68,0,1.17,2.86.53,2.9,2.29,0,.81-.71,1.42-1.8,1.42Z"/>
    </g>
    <g>
      <path class="cls-3" d="M255.17,39.32h-2.56v2.1h2.29v.67h-2.29v2.16h2.56v.67h-3.38v-6.28h3.38v.68Z"/>
      <path class="cls-3" d="M257.81,43.09l-1.13,1.84h-.85l1.59-2.45-1.59-2.48h.93l1.17,1.83,1.12-1.83h.86l-1.58,2.44,1.59,2.49h-.93l-1.17-1.84Z"/>
      <path class="cls-3" d="M262.75,39.91c.92,0,1.55.47,1.84.98v-.9h.83v4.93h-.83v-.92c-.3.53-.94,1-1.85,1-1.31,0-2.33-1.04-2.33-2.57s1.02-2.53,2.34-2.53ZM262.92,40.62c-.9,0-1.67.66-1.67,1.82s.77,1.84,1.67,1.84,1.68-.67,1.68-1.84-.78-1.83-1.68-1.83Z"/>
      <path class="cls-3" d="M273.93,42.13c0-1.01-.54-1.52-1.35-1.52s-1.39.53-1.39,1.59v2.72h-.81v-2.79c0-1.01-.54-1.52-1.35-1.52s-1.4.53-1.4,1.59v2.72h-.82v-4.93h.82v.71c.32-.52.91-.8,1.56-.8.81,0,1.49.36,1.81,1.1.29-.71.99-1.1,1.75-1.1,1.13,0,2,.7,2,2.12v2.91h-.81v-2.79Z"/>
      <path class="cls-3" d="M278.74,39.91c1.32,0,2.34.99,2.34,2.53s-1.02,2.57-2.34,2.57c-.9,0-1.54-.49-1.84-.99v3.25h-.82v-7.27h.82v.91c.3-.52.94-.99,1.84-.99ZM278.57,40.62c-.89,0-1.67.68-1.67,1.83s.78,1.84,1.67,1.84,1.67-.68,1.67-1.84-.77-1.82-1.67-1.82Z"/>
      <path class="cls-3" d="M282.16,38.26h.82v6.66h-.82v-6.66Z"/>
      <path class="cls-3" d="M286.51,45.01c-1.4,0-2.44-.99-2.44-2.56s1-2.54,2.44-2.54,2.37,1.01,2.37,2.36c0,.18,0,.32-.03.5h-3.94c.06,1,.76,1.55,1.6,1.55.74,0,1.21-.38,1.39-.91h.88c-.25.9-1.04,1.6-2.27,1.6ZM284.91,42.1h3.12c0-.96-.71-1.49-1.56-1.49-.8,0-1.47.53-1.56,1.49Z"/>
      <path class="cls-3" d="M292.62,41.13c-.31,0-.56-.24-.56-.56s.24-.56.56-.56c.3,0,.54.24.54.56s-.24.56-.54.56ZM292.62,44.98c-.31,0-.56-.24-.56-.56s.24-.56.56-.56c.3,0,.54.24.54.56s-.24.56-.54.56Z"/>
    </g>
    <g class="cls-9">
      <g>
        <path class="cls-3" d="M253.78,59.79c-1.26,0-2.15-.7-2.17-1.74h.87c.05.52.42,1.04,1.3,1.04.79,0,1.26-.45,1.26-1.04,0-1.69-3.39-.61-3.39-2.94,0-1.04.84-1.74,2.08-1.74s1.98.66,2.08,1.61h-.9c-.05-.42-.45-.9-1.21-.91-.68-.02-1.21.33-1.21,1.01,0,1.62,3.39.61,3.39,2.93,0,.89-.73,1.77-2.09,1.77Z"/>
        <path class="cls-3" d="M257.07,53.06h.82v2.44c.32-.52.94-.8,1.63-.8,1.1,0,1.97.7,1.97,2.12v2.91h-.81v-2.79c0-1.01-.55-1.52-1.38-1.52s-1.41.52-1.41,1.58v2.73h-.82v-6.66Z"/>
        <path class="cls-3" d="M264.97,59.81c-1.4,0-2.44-.99-2.44-2.56s1-2.54,2.44-2.54,2.37,1.01,2.37,2.36c0,.18,0,.32-.03.5h-3.94c.06,1,.76,1.55,1.6,1.55.74,0,1.21-.38,1.39-.91h.88c-.25.9-1.04,1.6-2.27,1.6ZM263.37,56.9h3.12c0-.96-.71-1.49-1.56-1.49-.8,0-1.47.53-1.56,1.49Z"/>
        <path class="cls-3" d="M270.68,53.43c0-.32.24-.56.56-.56.3,0,.54.24.54.56s-.24.56-.54.56c-.31,0-.56-.24-.56-.56ZM270.82,54.79h.82v4.93h-.82v-4.93Z"/>
        <path class="cls-3" d="M274.78,59.81c-1.15,0-1.96-.63-2.02-1.53h.85c.04.48.47.84,1.16.84.65,0,1.01-.32,1.01-.73,0-1.1-2.92-.46-2.92-2.29,0-.76.71-1.38,1.81-1.38s1.81.58,1.86,1.55h-.82c-.04-.5-.41-.86-1.07-.86-.6,0-.96.29-.96.68,0,1.17,2.86.53,2.9,2.29,0,.81-.71,1.42-1.8,1.42Z"/>
        <path class="cls-3" d="M282.17,54.71c.9,0,1.55.45,1.84.98v-.9h.83v5.04c0,1.36-.91,2.32-2.36,2.32-1.3,0-2.22-.66-2.38-1.71h.81c.18.59.76,1,1.57,1,.87,0,1.53-.56,1.53-1.61v-1.04c-.3.53-.94,1.01-1.84,1.01-1.32,0-2.34-1.04-2.34-2.57s1.02-2.53,2.34-2.53ZM282.33,55.42c-.9,0-1.67.66-1.67,1.82s.77,1.84,1.67,1.84,1.67-.67,1.67-1.84-.77-1.83-1.67-1.83Z"/>
        <path class="cls-3" d="M288.37,59.81c-1.4,0-2.46-.99-2.46-2.56s1.1-2.54,2.49-2.54,2.49.98,2.49,2.54-1.13,2.56-2.53,2.56ZM288.37,59.08c.86,0,1.69-.58,1.69-1.84s-.82-1.83-1.67-1.83-1.65.59-1.65,1.83.77,1.84,1.62,1.84Z"/>
        <path class="cls-3" d="M291.84,53.43c0-.32.24-.56.56-.56.3,0,.54.24.54.56s-.24.56-.54.56c-.32,0-.56-.24-.56-.56ZM291.97,54.79h.82v4.93h-.82v-4.93Z"/>
        <path class="cls-3" d="M297.8,56.93c0-1.01-.55-1.52-1.38-1.52s-1.41.52-1.41,1.58v2.73h-.82v-4.93h.82v.7c.32-.51.92-.79,1.58-.79,1.14,0,2.02.7,2.02,2.12v2.91h-.81v-2.79Z"/>
        <path class="cls-3" d="M301.98,54.71c.9,0,1.55.45,1.84.98v-.9h.83v5.04c0,1.36-.91,2.32-2.36,2.32-1.3,0-2.22-.66-2.39-1.71h.81c.18.59.77,1,1.58,1,.87,0,1.53-.56,1.53-1.61v-1.04c-.3.53-.94,1.01-1.84,1.01-1.32,0-2.34-1.04-2.34-2.57s1.02-2.53,2.34-2.53ZM302.14,55.42c-.9,0-1.67.66-1.67,1.82s.76,1.84,1.67,1.84,1.67-.67,1.67-1.84-.77-1.83-1.67-1.83Z"/>
        <path class="cls-3" d="M308.62,55.47h-.64v-.68h.64v-1.24h.82v1.24h1.29v.68h-1.29v2.91c0,.49.18.66.68.66h.6v.69h-.74c-.87,0-1.37-.36-1.37-1.35v-2.91Z"/>
        <path class="cls-3" d="M313.86,59.81c-1.4,0-2.46-.99-2.46-2.56s1.1-2.54,2.49-2.54,2.49.98,2.49,2.54-1.12,2.56-2.53,2.56ZM313.86,59.08c.86,0,1.69-.58,1.69-1.84s-.82-1.83-1.67-1.83-1.65.59-1.65,1.83.77,1.84,1.62,1.84Z"/>
        <path class="cls-3" d="M322.21,53.45h.83v4.64c0,1.04-.7,1.7-1.74,1.7s-1.75-.67-1.75-1.76h.82c0,.58.28,1.04.93,1.04s.91-.45.91-.97v-4.64Z"/>
        <path class="cls-3" d="M326.68,54.71c.92,0,1.55.47,1.84.98v-.9h.83v4.93h-.83v-.92c-.3.53-.94,1-1.85,1-1.31,0-2.33-1.04-2.33-2.57s1.02-2.53,2.34-2.53ZM326.84,55.42c-.9,0-1.67.66-1.67,1.82s.77,1.84,1.67,1.84,1.67-.67,1.67-1.84-.77-1.83-1.67-1.83Z"/>
        <path class="cls-3" d="M333.39,54.71c1.32,0,2.34.99,2.34,2.53s-1.02,2.57-2.34,2.57c-.9,0-1.54-.49-1.84-.99v3.25h-.82v-7.27h.82v.91c.3-.52.94-.99,1.84-.99ZM333.22,55.42c-.89,0-1.67.68-1.67,1.83s.78,1.84,1.67,1.84,1.67-.68,1.67-1.84-.77-1.82-1.67-1.82Z"/>
        <path class="cls-3" d="M338.85,54.71c.92,0,1.55.47,1.84.98v-.9h.83v4.93h-.83v-.92c-.3.53-.94,1-1.85,1-1.31,0-2.33-1.04-2.33-2.57s1.02-2.53,2.34-2.53ZM339.01,55.42c-.9,0-1.67.66-1.67,1.82s.77,1.84,1.67,1.84,1.67-.67,1.67-1.84-.77-1.83-1.67-1.83Z"/>
        <path class="cls-3" d="M346.51,56.93c0-1.01-.55-1.52-1.38-1.52s-1.41.52-1.41,1.58v2.73h-.82v-4.93h.82v.7c.32-.51.92-.79,1.58-.79,1.14,0,2.02.7,2.02,2.12v2.91h-.81v-2.79Z"/>
        <path class="cls-3" d="M348.92,59.78c-.32,0-.56-.24-.56-.56s.24-.56.56-.56c.3,0,.54.24.54.56s-.24.56-.54.56Z"/>
      </g>
    </g>
    <line class="cls-6" x1="233.75" y1="4.82" x2="233.75" y2="60.15"/>
  </g>
</svg>