<?xml version="1.0" encoding="UTF-8"?>
<svg id="Layer_2" data-name="Layer 2" xmlns="http://www.w3.org/2000/svg" viewBox="0 0 538.02 99.6">
  <defs>
    <style>
      .cls-1 {
        fill: #72adbb;
      }

      .cls-2 {
        stroke-dasharray: 3.97 3.97;
      }

      .cls-2, .cls-3, .cls-4, .cls-5, .cls-6, .cls-7, .cls-8, .cls-9 {
        fill: none;
        stroke: #2a5caa;
        stroke-miterlimit: 10;
        stroke-width: .75px;
      }

      .cls-10 {
        fill: #accad4;
      }

      .cls-11 {
        fill: #231f20;
      }

      .cls-12 {
        fill: #fff;
      }

      .cls-3 {
        stroke-dasharray: 4.11 4.11;
      }

      .cls-4 {
        stroke-dasharray: 4.24 4.24;
      }

      .cls-5 {
        stroke-dasharray: 4.05 4.05;
      }

      .cls-6 {
        stroke-dasharray: 3.94 3.94;
      }

      .cls-13 {
        fill: #2096a6;
      }

      .cls-7 {
        stroke-dasharray: 4.07 4.07;
      }

      .cls-9 {
        stroke-dasharray: 3.95 3.95;
      }
    </style>
  </defs>
  <g id="Layer_1-2" data-name="Layer 1">
    <g>
      <path class="cls-13" d="M538.02,93.12c0,3.58-1.89,6.48-4.21,6.48H4.72c-2.32,0-4.21-2.9-4.21-6.48V6.48C.51,2.9,2.39,0,4.72,0h529.09c2.32,0,4.21,2.9,4.21,6.48v86.64Z"/>
      <path class="cls-12" d="M535.71,91.49c0,3.68-1.91,6.66-4.27,6.66H4.64c-2.36,0-4.27-2.98-4.27-6.66V6.93C.37,3.25,2.28.27,4.64.27h526.79c2.36,0,4.27,2.98,4.27,6.66v84.56Z"/>
    </g>
    <g>
      <path class="cls-11" d="M33.15,51.87h-3.55l-.67,3.16h-.91l1.48-6.97h.91l-.65,3.06h3.55l.65-3.06h.91l-1.48,6.97h-.91l.67-3.16Z"/>
      <path class="cls-11" d="M37.28,55.12c-1.56,0-2.48-1.1-2.11-2.84.37-1.73,1.71-2.82,3.31-2.82s2.39,1.12,2.07,2.62c-.04.2-.09.36-.15.55h-4.38c-.17,1.11.48,1.72,1.41,1.72.82,0,1.43-.42,1.75-1.01h.98c-.49,1-1.54,1.78-2.9,1.78ZM36.19,51.89h3.46c.24-1.07-.44-1.66-1.38-1.66-.89,0-1.75.59-2.08,1.66Z"/>
    </g>
    <g>
      <path class="cls-11" d="M23.98,86.52h4.72l-.16.74h-1.9l-1.32,6.23h-.91l1.32-6.23h-1.91l.16-.74Z"/>
      <path class="cls-11" d="M29.92,86.09h.91l-.58,2.71c.48-.58,1.23-.89,2-.89,1.22,0,2.02.78,1.69,2.35l-.69,3.23h-.9l.66-3.1c.24-1.12-.25-1.69-1.17-1.69s-1.69.58-1.94,1.76l-.64,3.03h-.91l1.57-7.4Z"/>
      <path class="cls-11" d="M37.09,93.58c-1.56,0-2.48-1.1-2.11-2.84.37-1.73,1.71-2.82,3.31-2.82s2.39,1.12,2.07,2.62c-.04.2-.09.36-.15.55h-4.38c-.17,1.11.48,1.72,1.41,1.72.82,0,1.43-.42,1.75-1.01h.98c-.49,1-1.54,1.78-2.9,1.78ZM36.01,90.35h3.46c.24-1.07-.44-1.66-1.38-1.66-.89,0-1.75.59-2.08,1.66Z"/>
      <path class="cls-11" d="M45.89,88.01h.94l-5.01,8.06h-.94l1.64-2.64-1.06-5.42h1.01l.78,4.44,2.64-4.44Z"/>
    </g>
    <g>
      <path class="cls-11" d="M382.54,88.76h-.71l.16-.75h.71l.29-1.38h.91l-.29,1.38h1.43l-.16.75h-1.43l-.69,3.23c-.12.54.04.73.6.73h.67l-.16.77h-.82c-.97,0-1.43-.4-1.2-1.5l.69-3.23Z"/>
      <path class="cls-11" d="M386.55,86.09h.91l-.58,2.71c.48-.58,1.23-.89,2-.89,1.22,0,2.02.78,1.69,2.35l-.69,3.23h-.9l.66-3.1c.24-1.12-.25-1.69-1.17-1.69s-1.69.58-1.94,1.76l-.64,3.03h-.91l1.57-7.4Z"/>
      <path class="cls-11" d="M393.72,93.58c-1.56,0-2.48-1.1-2.11-2.84.37-1.73,1.71-2.82,3.31-2.82s2.39,1.12,2.07,2.62c-.04.2-.09.36-.15.55h-4.38c-.17,1.11.48,1.72,1.41,1.72.82,0,1.43-.42,1.75-1.01h.98c-.49,1-1.54,1.78-2.9,1.78ZM392.64,90.35h3.46c.24-1.07-.44-1.66-1.38-1.66-.89,0-1.75.59-2.08,1.66Z"/>
      <path class="cls-11" d="M402.52,88.01h.94l-5.01,8.06h-.94l1.64-2.64-1.06-5.42h1.01l.78,4.44,2.64-4.44Z"/>
    </g>
    <g>
      <path class="cls-11" d="M366.99,47.63h.91l-.58,2.71c.48-.58,1.23-.89,2-.89,1.22,0,2.02.78,1.69,2.35l-.69,3.23h-.9l.66-3.1c.24-1.12-.25-1.69-1.17-1.69s-1.69.58-1.94,1.76l-.64,3.03h-.91l1.57-7.4Z"/>
      <path class="cls-11" d="M374.17,55.12c-1.56,0-2.48-1.1-2.11-2.84.37-1.73,1.71-2.82,3.31-2.82s2.39,1.12,2.07,2.62c-.04.2-.09.36-.15.55h-4.38c-.17,1.11.48,1.72,1.41,1.72.82,0,1.43-.42,1.75-1.01h.98c-.49,1-1.54,1.78-2.9,1.78ZM373.09,51.89h3.46c.24-1.07-.44-1.66-1.38-1.66-.89,0-1.75.59-2.08,1.66Z"/>
    </g>
    <g>
      <path class="cls-11" d="M347.87,87.92c.86,0,1.56.44,1.8,1.07l.62-2.9h.92l-1.57,7.4h-.92l.22-1.03c-.46.61-1.28,1.12-2.28,1.12-1.47,0-2.35-1.15-1.99-2.85.36-1.71,1.73-2.81,3.21-2.81ZM347.87,88.71c-1,0-2,.73-2.28,2.02-.27,1.29.41,2.05,1.41,2.05s2.02-.75,2.29-2.04c.27-1.27-.43-2.03-1.43-2.03Z"/>
      <path class="cls-11" d="M352.34,88.01h.91l-1.17,5.48h-.91l1.17-5.48ZM352.51,86.5c.07-.35.4-.62.75-.62.33,0,.54.27.47.62-.07.35-.4.62-.73.62-.35,0-.56-.27-.49-.62Z"/>
      <path class="cls-11" d="M357.09,87.92c.86,0,1.56.44,1.8,1.07l.62-2.9h.92l-1.57,7.4h-.92l.22-1.03c-.46.61-1.28,1.12-2.28,1.12-1.47,0-2.35-1.15-1.99-2.85.36-1.71,1.73-2.81,3.21-2.81ZM357.09,88.71c-1,0-2,.73-2.28,2.02-.27,1.29.41,2.05,1.41,2.05s2.02-.75,2.29-2.04c.27-1.27-.43-2.03-1.43-2.03Z"/>
    </g>
    <g>
      <path class="cls-11" d="M101.86,49.46c1.47,0,2.37,1.1,2,2.81-.36,1.7-1.73,2.85-3.2,2.85-1,0-1.59-.54-1.82-1.1l-.77,3.61h-.91l1.72-8.08h.91l-.21,1.01c.45-.58,1.28-1.1,2.28-1.1ZM101.5,50.25c-.99,0-2.02.76-2.29,2.03-.27,1.29.44,2.04,1.43,2.04s2.02-.76,2.29-2.05c.27-1.29-.42-2.02-1.43-2.02Z"/>
      <path class="cls-11" d="M106.05,47.63h.91l-1.57,7.4h-.91l1.57-7.4Z"/>
      <path class="cls-11" d="M110.38,49.46c1.02,0,1.61.52,1.81,1.09l.21-1h.92l-1.16,5.48h-.92l.22-1.02c-.46.59-1.28,1.11-2.29,1.11-1.46,0-2.34-1.15-1.98-2.85.36-1.71,1.73-2.81,3.2-2.81ZM110.39,50.25c-1,0-2,.73-2.28,2.02-.27,1.29.41,2.05,1.41,2.05s2.02-.75,2.29-2.04c.27-1.27-.43-2.03-1.43-2.03Z"/>
      <path class="cls-11" d="M118.64,49.55h.94l-5.01,8.06h-.94l1.64-2.64-1.06-5.42h1.01l.78,4.44,2.64-4.44Z"/>
      <path class="cls-11" d="M121.68,55.12c-1.56,0-2.48-1.1-2.11-2.84.37-1.73,1.71-2.82,3.31-2.82s2.39,1.12,2.07,2.62c-.04.2-.09.36-.15.55h-4.38c-.17,1.11.48,1.72,1.41,1.72.82,0,1.43-.42,1.75-1.01h.98c-.49,1-1.54,1.78-2.9,1.78ZM120.59,51.89h3.46c.24-1.07-.44-1.66-1.38-1.66-.89,0-1.75.59-2.08,1.66Z"/>
      <path class="cls-11" d="M128.98,49.46c.86,0,1.56.44,1.8,1.07l.62-2.9h.92l-1.57,7.4h-.92l.22-1.03c-.46.61-1.28,1.12-2.28,1.12-1.47,0-2.35-1.15-1.99-2.85.36-1.71,1.73-2.81,3.21-2.81ZM128.98,50.25c-1,0-2,.73-2.28,2.02-.27,1.29.41,2.05,1.41,2.05s2.02-.75,2.29-2.04c.27-1.27-.43-2.03-1.43-2.03Z"/>
    </g>
    <g>
      <path class="cls-11" d="M85.4,87.92c.86,0,1.56.44,1.8,1.07l.62-2.9h.92l-1.57,7.4h-.92l.22-1.03c-.46.61-1.28,1.12-2.28,1.12-1.47,0-2.35-1.15-1.99-2.85.36-1.71,1.73-2.81,3.21-2.81ZM85.4,88.71c-1,0-2,.73-2.28,2.02-.27,1.29.41,2.05,1.41,2.05s2.02-.75,2.29-2.04c.27-1.27-.43-2.03-1.43-2.03Z"/>
      <path class="cls-11" d="M89.87,88.01h.91l-1.17,5.48h-.91l1.17-5.48ZM90.04,86.5c.07-.35.4-.62.75-.62.33,0,.54.27.47.62-.07.35-.4.62-.73.62-.35,0-.56-.27-.49-.62Z"/>
      <path class="cls-11" d="M94.62,87.92c.86,0,1.56.44,1.8,1.07l.62-2.9h.92l-1.57,7.4h-.92l.22-1.03c-.46.61-1.28,1.12-2.28,1.12-1.47,0-2.35-1.15-1.99-2.85.36-1.71,1.73-2.81,3.21-2.81ZM94.62,88.71c-1,0-2,.73-2.28,2.02-.27,1.29.41,2.05,1.41,2.05s2.02-.75,2.29-2.04c.27-1.27-.43-2.03-1.43-2.03Z"/>
      <path class="cls-11" d="M102.59,90.39c.24-1.12-.25-1.69-1.17-1.69s-1.69.58-1.94,1.76l-.64,3.03h-.91l1.17-5.48h.91l-.17.78c.48-.57,1.21-.88,1.95-.88,1.27,0,2.07.78,1.74,2.35l-.69,3.23h-.9l.66-3.1Z"/>
      <path class="cls-11" d="M104.87,88.79l1.07-2.27h1.01l-1.44,2.27h-.64Z"/>
      <path class="cls-11" d="M107.72,88.76h-.71l.16-.75h.71l.29-1.38h.91l-.29,1.38h1.43l-.16.75h-1.43l-.69,3.23c-.12.54.04.73.6.73h.67l-.16.77h-.82c-.97,0-1.43-.4-1.2-1.5l.69-3.23Z"/>
    </g>
    <g>
      <path class="cls-11" d="M135.97,87.92c1.47,0,2.36,1.1,2,2.81-.36,1.7-1.73,2.85-3.2,2.85-1,0-1.59-.54-1.82-1.1l-.77,3.61h-.91l1.72-8.08h.91l-.21,1.01c.45-.58,1.28-1.1,2.28-1.1ZM135.62,88.71c-.99,0-2.02.76-2.29,2.03-.27,1.29.44,2.04,1.43,2.04s2.02-.76,2.29-2.05c.27-1.29-.42-2.02-1.43-2.02Z"/>
      <path class="cls-11" d="M140.17,86.09h.91l-1.57,7.4h-.91l1.57-7.4Z"/>
      <path class="cls-11" d="M144.5,87.92c1.02,0,1.61.52,1.81,1.09l.21-1h.92l-1.17,5.48h-.92l.22-1.02c-.46.59-1.28,1.11-2.28,1.11-1.46,0-2.34-1.15-1.98-2.85.36-1.71,1.73-2.81,3.2-2.81ZM144.51,88.71c-1,0-2,.73-2.28,2.02-.27,1.29.41,2.05,1.41,2.05s2.02-.75,2.29-2.04c.27-1.27-.43-2.03-1.43-2.03Z"/>
      <path class="cls-11" d="M152.76,88.01h.94l-5.01,8.06h-.94l1.64-2.64-1.06-5.42h1.01l.78,4.44,2.64-4.44Z"/>
    </g>
    <g>
      <path class="cls-11" d="M426.89,87.92c1.47,0,2.36,1.1,2,2.81-.36,1.7-1.73,2.85-3.2,2.85-1,0-1.59-.54-1.82-1.1l-.77,3.61h-.91l1.72-8.08h.91l-.21,1.01c.45-.58,1.28-1.1,2.28-1.1ZM426.53,88.71c-.99,0-2.02.76-2.29,2.03-.27,1.29.44,2.04,1.43,2.04s2.02-.76,2.29-2.05c.27-1.29-.42-2.02-1.43-2.02Z"/>
      <path class="cls-11" d="M431.08,86.09h.91l-1.57,7.4h-.91l1.57-7.4Z"/>
      <path class="cls-11" d="M435.41,87.92c1.02,0,1.61.52,1.81,1.09l.21-1h.92l-1.17,5.48h-.92l.22-1.02c-.46.59-1.28,1.11-2.28,1.11-1.46,0-2.34-1.15-1.98-2.85.36-1.71,1.73-2.81,3.2-2.81ZM435.42,88.71c-1,0-2,.73-2.28,2.02-.27,1.29.41,2.05,1.41,2.05s2.02-.75,2.29-2.04c.27-1.27-.43-2.03-1.43-2.03Z"/>
      <path class="cls-11" d="M443.67,88.01h.94l-5.01,8.06h-.94l1.64-2.64-1.06-5.42h1.01l.78,4.44,2.64-4.44Z"/>
    </g>
    <g>
      <path class="cls-11" d="M419.27,49.46c1.47,0,2.37,1.1,2,2.81-.36,1.7-1.73,2.85-3.2,2.85-1,0-1.59-.54-1.82-1.1l-.77,3.61h-.91l1.72-8.08h.91l-.21,1.01c.45-.58,1.28-1.1,2.28-1.1ZM418.91,50.25c-.99,0-2.02.76-2.29,2.03-.27,1.29.44,2.04,1.43,2.04s2.02-.76,2.29-2.05c.27-1.29-.42-2.02-1.43-2.02Z"/>
      <path class="cls-11" d="M423.46,47.63h.91l-1.57,7.4h-.91l1.57-7.4Z"/>
      <path class="cls-11" d="M427.79,49.46c1.02,0,1.61.52,1.81,1.09l.21-1h.92l-1.16,5.48h-.92l.22-1.02c-.46.59-1.28,1.11-2.29,1.11-1.46,0-2.34-1.15-1.98-2.85.36-1.71,1.73-2.81,3.2-2.81ZM427.8,50.25c-1,0-2,.73-2.28,2.02-.27,1.29.41,2.05,1.41,2.05s2.02-.75,2.29-2.04c.27-1.27-.43-2.03-1.43-2.03Z"/>
      <path class="cls-11" d="M436.05,49.55h.94l-5.01,8.06h-.94l1.64-2.64-1.06-5.42h1.01l.78,4.44,2.64-4.44Z"/>
    </g>
    <g>
      <path class="cls-11" d="M182.38,50.3h-.71l.16-.75h.71l.29-1.38h.91l-.29,1.38h1.43l-.16.75h-1.43l-.69,3.23c-.11.54.04.73.6.73h.67l-.16.77h-.82c-.97,0-1.43-.4-1.2-1.5l.69-3.23Z"/>
      <path class="cls-11" d="M186.39,47.63h.91l-.58,2.71c.48-.58,1.23-.89,2-.89,1.22,0,2.02.78,1.69,2.35l-.69,3.23h-.9l.66-3.1c.24-1.12-.25-1.69-1.17-1.69s-1.69.58-1.94,1.76l-.64,3.03h-.91l1.57-7.4Z"/>
      <path class="cls-11" d="M193.57,55.12c-1.56,0-2.48-1.1-2.11-2.84.37-1.73,1.71-2.82,3.31-2.82s2.39,1.12,2.07,2.62c-.04.2-.09.36-.15.55h-4.38c-.17,1.11.48,1.72,1.41,1.72.82,0,1.43-.42,1.75-1.01h.98c-.49,1-1.54,1.78-2.9,1.78ZM192.48,51.89h3.46c.24-1.07-.44-1.66-1.38-1.66-.89,0-1.75.59-2.08,1.66Z"/>
      <path class="cls-11" d="M204.23,49.46c1.47,0,2.37,1.1,2,2.81-.36,1.7-1.73,2.85-3.2,2.85-1,0-1.59-.54-1.82-1.1l-.77,3.61h-.91l1.72-8.08h.91l-.21,1.01c.45-.58,1.28-1.1,2.28-1.1ZM203.87,50.25c-.99,0-2.02.76-2.29,2.03-.27,1.29.44,2.04,1.43,2.04s2.02-.76,2.29-2.05c.27-1.29-.42-2.02-1.43-2.02Z"/>
      <path class="cls-11" d="M208.01,49.55h.91l-1.16,5.48h-.91l1.16-5.48ZM208.18,48.04c.07-.35.4-.62.75-.62.33,0,.54.27.47.62-.07.35-.4.62-.73.62-.35,0-.56-.27-.49-.62Z"/>
      <path class="cls-11" d="M212.75,49.46c1.02,0,1.61.52,1.81,1.09l.21-1h.92l-1.16,5.48h-.92l.22-1.02c-.46.59-1.28,1.11-2.29,1.11-1.46,0-2.34-1.15-1.98-2.85.36-1.71,1.73-2.81,3.2-2.81ZM212.76,50.25c-1,0-2,.73-2.28,2.02-.27,1.29.41,2.05,1.41,2.05s2.02-.75,2.29-2.04c.27-1.27-.43-2.03-1.43-2.03Z"/>
      <path class="cls-11" d="M220.73,51.93c.24-1.12-.25-1.69-1.17-1.69s-1.69.58-1.94,1.76l-.64,3.03h-.91l1.16-5.48h.91l-.17.78c.48-.57,1.21-.88,1.95-.88,1.27,0,2.07.78,1.74,2.35l-.69,3.23h-.9l.66-3.1Z"/>
      <path class="cls-11" d="M224.84,55.12c-1.55,0-2.5-1.1-2.12-2.84.37-1.73,1.82-2.82,3.37-2.82s2.54,1.09,2.17,2.82c-.37,1.74-1.85,2.84-3.41,2.84ZM225.01,54.32c.95,0,2.02-.65,2.31-2.04.29-1.38-.48-2.03-1.42-2.03s-1.97.65-2.26,2.03c-.29,1.39.42,2.04,1.37,2.04Z"/>
      <path class="cls-11" d="M229.14,55.09c-.35,0-.56-.27-.49-.62.08-.35.4-.62.75-.62.33,0,.54.27.47.62-.07.35-.4.62-.73.62Z"/>
    </g>
    <g>
      <path class="cls-11" d="M181.68,88.76h-.71l.16-.75h.71l.29-1.38h.91l-.29,1.38h1.43l-.16.75h-1.43l-.69,3.23c-.12.54.04.73.6.73h.67l-.16.77h-.82c-.97,0-1.43-.4-1.2-1.5l.69-3.23Z"/>
      <path class="cls-11" d="M185.68,86.09h.91l-.58,2.71c.48-.58,1.23-.89,2-.89,1.22,0,2.02.78,1.69,2.35l-.69,3.23h-.9l.66-3.1c.24-1.12-.25-1.69-1.17-1.69s-1.69.58-1.94,1.76l-.64,3.03h-.91l1.57-7.4Z"/>
      <path class="cls-11" d="M192.86,93.58c-1.56,0-2.48-1.1-2.11-2.84.37-1.73,1.71-2.82,3.31-2.82s2.39,1.12,2.07,2.62c-.04.2-.09.36-.15.55h-4.38c-.17,1.11.48,1.72,1.41,1.72.82,0,1.43-.42,1.75-1.01h.98c-.49,1-1.54,1.78-2.9,1.78ZM191.78,90.35h3.46c.24-1.07-.44-1.66-1.38-1.66-.89,0-1.75.59-2.08,1.66Z"/>
      <path class="cls-11" d="M203.52,87.92c1.47,0,2.36,1.1,2,2.81-.36,1.7-1.73,2.85-3.2,2.85-1,0-1.59-.54-1.82-1.1l-.77,3.61h-.91l1.72-8.08h.91l-.21,1.01c.45-.58,1.28-1.1,2.28-1.1ZM203.17,88.71c-.99,0-2.02.76-2.29,2.03-.27,1.29.44,2.04,1.43,2.04s2.02-.76,2.29-2.05c.27-1.29-.42-2.02-1.43-2.02Z"/>
      <path class="cls-11" d="M207.31,88.01h.91l-1.17,5.48h-.91l1.17-5.48ZM207.48,86.5c.07-.35.4-.62.75-.62.33,0,.54.27.47.62-.07.35-.4.62-.73.62-.35,0-.56-.27-.49-.62Z"/>
      <path class="cls-11" d="M212.05,87.92c1.02,0,1.61.52,1.81,1.09l.21-1h.92l-1.17,5.48h-.92l.22-1.02c-.46.59-1.28,1.11-2.28,1.11-1.46,0-2.34-1.15-1.98-2.85.36-1.71,1.73-2.81,3.2-2.81ZM212.06,88.71c-1,0-2,.73-2.28,2.02-.27,1.29.41,2.05,1.41,2.05s2.02-.75,2.29-2.04c.27-1.27-.43-2.03-1.43-2.03Z"/>
      <path class="cls-11" d="M220.03,90.39c.24-1.12-.25-1.69-1.17-1.69s-1.69.58-1.94,1.76l-.64,3.03h-.91l1.17-5.48h.91l-.17.78c.48-.57,1.21-.88,1.95-.88,1.27,0,2.07.78,1.74,2.35l-.69,3.23h-.9l.66-3.1Z"/>
      <path class="cls-11" d="M224.13,93.58c-1.55,0-2.5-1.1-2.12-2.84.37-1.73,1.82-2.82,3.37-2.82s2.54,1.09,2.17,2.82c-.37,1.74-1.85,2.84-3.41,2.84ZM224.3,92.78c.95,0,2.02-.65,2.31-2.04.29-1.38-.48-2.03-1.42-2.03s-1.97.65-2.26,2.03c-.3,1.39.42,2.04,1.37,2.04Z"/>
      <path class="cls-11" d="M228.44,93.55c-.35,0-.56-.27-.49-.62.07-.35.4-.62.75-.62.33,0,.54.27.47.62-.07.35-.4.62-.73.62Z"/>
    </g>
    <g>
      <path class="cls-11" d="M468.54,88.76h-.71l.16-.75h.71l.29-1.38h.91l-.29,1.38h1.43l-.16.75h-1.43l-.69,3.23c-.12.54.04.73.6.73h.67l-.16.77h-.82c-.97,0-1.43-.4-1.2-1.5l.69-3.23Z"/>
      <path class="cls-11" d="M472.55,86.09h.91l-.58,2.71c.48-.58,1.23-.89,2-.89,1.22,0,2.02.78,1.69,2.35l-.69,3.23h-.9l.66-3.1c.24-1.12-.25-1.69-1.17-1.69s-1.69.58-1.94,1.76l-.64,3.03h-.91l1.57-7.4Z"/>
      <path class="cls-11" d="M479.72,93.58c-1.56,0-2.48-1.1-2.11-2.84.37-1.73,1.71-2.82,3.31-2.82s2.39,1.12,2.07,2.62c-.04.2-.09.36-.15.55h-4.38c-.17,1.11.48,1.72,1.41,1.72.82,0,1.43-.42,1.75-1.01h.98c-.49,1-1.54,1.78-2.9,1.78ZM478.64,90.35h3.46c.24-1.07-.44-1.66-1.38-1.66-.89,0-1.75.59-2.08,1.66Z"/>
      <path class="cls-11" d="M490.39,87.92c1.47,0,2.36,1.1,2,2.81-.36,1.7-1.73,2.85-3.2,2.85-1,0-1.59-.54-1.82-1.1l-.77,3.61h-.91l1.72-8.08h.91l-.21,1.01c.45-.58,1.28-1.1,2.28-1.1ZM490.03,88.71c-.99,0-2.02.76-2.29,2.03-.27,1.29.44,2.04,1.43,2.04s2.02-.76,2.29-2.05c.27-1.29-.42-2.02-1.43-2.02Z"/>
      <path class="cls-11" d="M494.17,88.01h.91l-1.17,5.48h-.91l1.17-5.48ZM494.34,86.5c.07-.35.4-.62.75-.62.33,0,.54.27.47.62-.07.35-.4.62-.73.62-.35,0-.56-.27-.49-.62Z"/>
      <path class="cls-11" d="M498.91,87.92c1.02,0,1.61.52,1.81,1.09l.21-1h.92l-1.17,5.48h-.92l.22-1.02c-.46.59-1.28,1.11-2.28,1.11-1.46,0-2.34-1.15-1.98-2.85.36-1.71,1.73-2.81,3.2-2.81ZM498.92,88.71c-1,0-2,.73-2.28,2.02-.27,1.29.41,2.05,1.41,2.05s2.02-.75,2.29-2.04c.27-1.27-.43-2.03-1.43-2.03Z"/>
      <path class="cls-11" d="M506.89,90.39c.24-1.12-.25-1.69-1.17-1.69s-1.69.58-1.94,1.76l-.64,3.03h-.91l1.17-5.48h.91l-.17.78c.48-.57,1.21-.88,1.95-.88,1.27,0,2.07.78,1.74,2.35l-.69,3.23h-.9l.66-3.1Z"/>
      <path class="cls-11" d="M510.99,93.58c-1.55,0-2.5-1.1-2.12-2.84.37-1.73,1.82-2.82,3.37-2.82s2.54,1.09,2.17,2.82c-.37,1.74-1.85,2.84-3.41,2.84ZM511.16,92.78c.95,0,2.02-.65,2.31-2.04.29-1.38-.48-2.03-1.42-2.03s-1.97.65-2.26,2.03c-.3,1.39.42,2.04,1.37,2.04Z"/>
      <path class="cls-11" d="M516.16,93.55c-.35,0-.56-.27-.49-.62.07-.35.4-.62.75-.62.33,0,.54.27.47.62-.07.35-.4.62-.73.62ZM518.3,86.43c1.31,0,2.04.79,1.77,2.06-.31,1.46-1.45,2.06-2.85,2.06l-.23.95h-.79l.3-1.58h.29c1.14,0,2.16-.22,2.41-1.43.17-.8-.24-1.3-1.05-1.3s-1.43.47-1.59,1.25h-.86c.25-1.21,1.3-2.01,2.61-2.01Z"/>
    </g>
    <g>
      <path class="cls-11" d="M468.32,50.58h-.71l.16-.75h.71l.29-1.38h.91l-.29,1.38h1.43l-.16.75h-1.43l-.69,3.23c-.11.54.04.73.6.73h.67l-.16.77h-.82c-.97,0-1.43-.4-1.2-1.5l.69-3.23Z"/>
      <path class="cls-11" d="M472.33,47.91h.91l-.58,2.71c.48-.58,1.23-.89,2-.89,1.22,0,2.02.78,1.69,2.35l-.69,3.23h-.9l.66-3.1c.24-1.12-.25-1.69-1.17-1.69s-1.69.58-1.94,1.76l-.64,3.03h-.91l1.57-7.4Z"/>
      <path class="cls-11" d="M479.51,55.4c-1.56,0-2.48-1.1-2.11-2.84.37-1.73,1.71-2.82,3.31-2.82s2.39,1.12,2.07,2.62c-.04.2-.09.36-.15.55h-4.38c-.17,1.11.48,1.72,1.41,1.72.82,0,1.43-.42,1.75-1.01h.98c-.49,1-1.54,1.78-2.9,1.78ZM478.43,52.17h3.46c.24-1.07-.44-1.66-1.38-1.66-.89,0-1.75.59-2.08,1.66Z"/>
      <path class="cls-11" d="M490.17,49.74c1.47,0,2.37,1.1,2,2.81-.36,1.7-1.73,2.85-3.2,2.85-1,0-1.59-.54-1.82-1.1l-.77,3.61h-.91l1.72-8.08h.91l-.21,1.01c.45-.58,1.28-1.1,2.28-1.1ZM489.81,50.53c-.99,0-2.02.76-2.29,2.03-.27,1.29.44,2.04,1.43,2.04s2.02-.76,2.29-2.05c.27-1.29-.42-2.02-1.43-2.02Z"/>
      <path class="cls-11" d="M493.95,49.83h.91l-1.17,5.48h-.91l1.17-5.48ZM494.12,48.32c.07-.35.4-.62.75-.62.33,0,.54.27.47.62-.07.35-.4.62-.73.62-.35,0-.56-.27-.49-.62Z"/>
      <path class="cls-11" d="M498.69,49.74c1.02,0,1.61.52,1.81,1.09l.21-1h.92l-1.17,5.48h-.92l.22-1.02c-.46.59-1.28,1.11-2.29,1.11-1.46,0-2.34-1.15-1.98-2.85.36-1.71,1.73-2.81,3.2-2.81ZM498.7,50.53c-1,0-2,.73-2.28,2.02-.27,1.29.41,2.05,1.41,2.05s2.02-.75,2.29-2.04c.27-1.27-.43-2.03-1.43-2.03Z"/>
      <path class="cls-11" d="M506.67,52.21c.24-1.12-.25-1.69-1.17-1.69s-1.69.58-1.94,1.76l-.64,3.03h-.91l1.17-5.48h.91l-.17.78c.48-.57,1.21-.88,1.95-.88,1.27,0,2.07.78,1.74,2.35l-.69,3.23h-.9l.66-3.1Z"/>
      <path class="cls-11" d="M510.78,55.4c-1.55,0-2.5-1.1-2.12-2.84.37-1.73,1.82-2.82,3.37-2.82s2.54,1.09,2.17,2.82c-.37,1.74-1.85,2.84-3.41,2.84ZM510.95,54.6c.95,0,2.02-.65,2.31-2.04.29-1.38-.48-2.03-1.42-2.03s-1.97.65-2.26,2.03c-.29,1.39.42,2.04,1.37,2.04Z"/>
      <path class="cls-11" d="M515.94,55.37c-.35,0-.56-.27-.49-.62.07-.35.4-.62.75-.62.33,0,.54.27.47.62-.08.35-.4.62-.73.62ZM518.09,48.25c1.31,0,2.04.79,1.77,2.06-.31,1.46-1.45,2.06-2.85,2.06l-.23.95h-.79l.3-1.58h.29c1.14,0,2.16-.22,2.41-1.43.17-.8-.24-1.3-1.05-1.3s-1.43.47-1.59,1.25h-.86c.25-1.21,1.3-2.01,2.61-2.01Z"/>
    </g>
    <g>
      <path class="cls-11" d="M293.47,51.56c-.46,2.16-2.15,3.47-4.44,3.47h-2.17l1.48-6.97h2.17c2.29,0,3.41,1.34,2.95,3.5ZM289.2,54.28c1.82,0,2.99-1.02,3.35-2.72.36-1.7-.36-2.76-2.18-2.76h-1.26l-1.17,5.48h1.26Z"/>
      <path class="cls-11" d="M295.1,49.55h.91l-1.16,5.48h-.91l1.16-5.48ZM295.27,48.04c.07-.35.4-.62.75-.62.33,0,.54.27.47.62-.07.35-.4.62-.73.62-.35,0-.56-.27-.49-.62Z"/>
      <path class="cls-11" d="M299.85,49.46c.86,0,1.56.44,1.8,1.07l.62-2.9h.92l-1.57,7.4h-.92l.22-1.03c-.46.61-1.28,1.12-2.28,1.12-1.47,0-2.35-1.15-1.99-2.85.36-1.71,1.73-2.81,3.21-2.81ZM299.85,50.25c-1,0-2,.73-2.28,2.02-.27,1.29.41,2.05,1.41,2.05s2.02-.75,2.29-2.04c.27-1.27-.43-2.03-1.43-2.03Z"/>
    </g>
    <g>
      <path class="cls-11" d="M281.22,86.52h.97l.26,5.91,2.93-5.91h1.02l.35,5.89,2.78-5.89h.98l-3.5,6.97h-1.02l-.43-5.61-2.87,5.61h-1.01s-.47-6.97-.47-6.97Z"/>
      <path class="cls-11" d="M291.62,86.09h.91l-.58,2.71c.48-.58,1.23-.89,2-.89,1.22,0,2.02.78,1.69,2.35l-.69,3.23h-.9l.66-3.1c.24-1.12-.25-1.69-1.17-1.69s-1.69.58-1.94,1.76l-.64,3.03h-.91l1.57-7.4Z"/>
      <path class="cls-11" d="M298.79,93.58c-1.56,0-2.48-1.1-2.11-2.84.37-1.73,1.71-2.82,3.31-2.82s2.39,1.12,2.07,2.62c-.04.2-.09.36-.15.55h-4.38c-.17,1.11.48,1.72,1.41,1.72.82,0,1.43-.42,1.75-1.01h.98c-.49,1-1.54,1.78-2.9,1.78ZM297.71,90.35h3.46c.24-1.07-.44-1.66-1.38-1.66-.89,0-1.75.59-2.08,1.66Z"/>
      <path class="cls-11" d="M307.31,90.39c.24-1.12-.25-1.69-1.17-1.69s-1.69.58-1.94,1.76l-.64,3.03h-.91l1.17-5.48h.91l-.17.78c.48-.57,1.21-.88,1.95-.88,1.27,0,2.07.78,1.74,2.35l-.69,3.23h-.9l.66-3.1Z"/>
    </g>
    <g>
      <path class="cls-12" d="M535.89,34.96c0,.36-1.88.65-4.2.65H4.2c-2.32,0-4.2-.29-4.2-.65v-11.8c0-.36,1.88-.65,4.2-.65h527.5c2.32,0,4.2.29,4.2.65v11.8Z"/>
      <path class="cls-10" d="M535.82,42.58c0,.56-.89,1.02-3.22,1.02l-530.02-.1c-2.33,0-2.22-.46-2.22-1.02v-18.63c0-.56-.11-1.02,2.22-1.02l530.02.1c2.33,0,3.22.46,3.22,1.02v18.63Z"/>
      <path class="cls-10" d="M535.82,80.18c0,.56-.89,1.02-3.22,1.02l-530.02-.1c-2.33,0-2.22-.46-2.22-1.02v-18.63c0-.56-.11-1.02,2.22-1.02l530.02.1c2.33,0,3.22.46,3.22,1.02v18.63Z"/>
      <path class="cls-1" d="M536.03,21.5c0,.62-1.88,1.12-4.2,1.12H4.21C1.89,22.61,0,22.11,0,21.5V1.12C0,.5,1.89,0,4.21,0h527.63c2.32,0,4.2.5,4.2,1.11v20.38Z"/>
    </g>
    <g>
      <path class="cls-12" d="M247.21,11.5h-1.27l-.64,3.02h-2.05l1.79-8.42h3.32c2.06,0,2.85,1.17,2.52,2.71-.3,1.39-1.52,2.69-3.67,2.69ZM247.4,9.86c.82,0,1.25-.41,1.39-1.06.14-.65-.12-1.06-.94-1.06h-1.12l-.45,2.11h1.12Z"/>
      <path class="cls-12" d="M254.6,7.73c1,0,1.61.46,1.84,1.04l.2-.95h2.05l-1.42,6.7h-2.05l.2-.95c-.5.59-1.3,1.04-2.3,1.04-1.63,0-2.65-1.34-2.2-3.46.45-2.11,2.04-3.43,3.68-3.43ZM254.82,9.52c-.77,0-1.59.58-1.81,1.64-.23,1.07.34,1.67,1.11,1.67s1.59-.59,1.81-1.66c.23-1.07-.33-1.66-1.11-1.66Z"/>
      <path class="cls-12" d="M261.36,14.62c-1.79,0-2.78-1-2.59-2.29h2.03c-.05.47.3.78.87.78.53,0,.85-.24.92-.54.23-1.08-3.58-.3-3.06-2.76.24-1.14,1.41-2.08,3.16-2.08s2.48.96,2.33,2.28h-1.89c.04-.46-.25-.76-.82-.76-.48,0-.79.19-.85.52-.23,1.07,3.56.31,3.06,2.81-.25,1.16-1.46,2.04-3.14,2.04Z"/>
      <path class="cls-12" d="M266.63,9.53h-.82l.36-1.7h.82l.35-1.63h2.05l-.35,1.63h1.34l-.36,1.7h-1.34l-.57,2.69c-.08.4.05.56.5.56h.73l-.37,1.74h-1.04c-1.39,0-2.24-.59-1.87-2.33l.57-2.66Z"/>
      <path class="cls-12" d="M273.78,6.1h6.51l-.35,1.64h-2.23l-1.44,6.78h-2.05l1.44-6.78h-2.23l.35-1.64Z"/>
      <path class="cls-12" d="M282.38,14.62c-1.97,0-3.1-1.32-2.65-3.44.45-2.12,2.12-3.44,4.11-3.44s3.06,1.29,2.62,3.34c-.04.19-.1.4-.16.6h-4.64c-.11.88.34,1.28,1,1.28.58,0,.96-.29,1.21-.65h2.18c-.6,1.31-2,2.32-3.67,2.32ZM281.92,10.52h2.57c.16-.73-.33-1.15-1.01-1.15s-1.27.41-1.55,1.15Z"/>
      <path class="cls-12" d="M292.1,10.88c.19-.91-.2-1.42-.98-1.42s-1.39.5-1.58,1.42l-.77,3.63h-2.05l1.42-6.7h2.05l-.19.89c.53-.56,1.33-.96,2.23-.96,1.55,0,2.35,1.06,1.97,2.86l-.83,3.91h-2.04l.77-3.63Z"/>
      <path class="cls-12" d="M297.39,14.62c-1.79,0-2.78-1-2.59-2.29h2.03c-.05.47.3.78.87.78.53,0,.85-.24.92-.54.23-1.08-3.58-.3-3.06-2.76.24-1.14,1.41-2.08,3.16-2.08s2.48.96,2.33,2.28h-1.89c.04-.46-.25-.76-.82-.76-.48,0-.79.19-.85.52-.23,1.07,3.56.31,3.06,2.81-.25,1.16-1.46,2.04-3.14,2.04Z"/>
      <path class="cls-12" d="M304.23,14.62c-1.97,0-3.1-1.32-2.65-3.44.45-2.12,2.12-3.44,4.11-3.44s3.06,1.29,2.62,3.34c-.04.19-.1.4-.16.6h-4.64c-.11.88.34,1.28,1,1.28.58,0,.96-.29,1.21-.65h2.18c-.6,1.31-2,2.32-3.67,2.32ZM303.77,10.52h2.57c.16-.73-.33-1.15-1.01-1.15s-1.27.41-1.55,1.15Z"/>
    </g>
    <g>
      <path class="cls-11" d="M17.74,35.63h-1.34v2.91h-.91v-6.97h2.25c1.64,0,2.41.9,2.41,2.04,0,1.06-.68,2.02-2.41,2.02ZM17.74,34.88c1.04,0,1.48-.49,1.48-1.27s-.44-1.29-1.48-1.29h-1.34v2.56h1.34Z"/>
      <path class="cls-11" d="M22.19,38.54h-.91v-5.48h.91v.89c.31-.61.9-.99,1.77-.99v.94h-.24c-.87,0-1.53.39-1.53,1.66v2.98Z"/>
      <path class="cls-11" d="M27.39,38.63c-1.55,0-2.73-1.1-2.73-2.84s1.22-2.82,2.77-2.82,2.77,1.09,2.77,2.82-1.25,2.84-2.81,2.84ZM27.39,37.83c.95,0,1.88-.65,1.88-2.04s-.91-2.03-1.85-2.03-1.83.65-1.83,2.03.85,2.04,1.8,2.04Z"/>
      <path class="cls-11" d="M35.41,35.44c0-1.12-.61-1.69-1.53-1.69s-1.57.58-1.57,1.76v3.03h-.91v-5.48h.91v.78c.36-.57,1.02-.88,1.76-.88,1.27,0,2.24.78,2.24,2.35v3.23h-.9v-3.1Z"/>
      <path class="cls-11" d="M40.19,38.63c-1.55,0-2.73-1.1-2.73-2.84s1.22-2.82,2.77-2.82,2.77,1.09,2.77,2.82-1.25,2.84-2.81,2.84ZM40.19,37.83c.95,0,1.88-.65,1.88-2.04s-.91-2.03-1.85-2.03-1.83.65-1.83,2.03.85,2.04,1.8,2.04Z"/>
      <path class="cls-11" d="M49.06,38.54h-.91v-.81c-.35.57-1.02.89-1.75.89-1.26,0-2.25-.78-2.25-2.35v-3.21h.9v3.09c0,1.11.61,1.68,1.53,1.68s1.57-.58,1.57-1.76v-3.01h.91v5.48Z"/>
      <path class="cls-11" d="M54.61,35.44c0-1.12-.61-1.69-1.53-1.69s-1.57.58-1.57,1.76v3.03h-.91v-5.48h.91v.78c.36-.57,1.02-.88,1.76-.88,1.27,0,2.24.78,2.24,2.35v3.23h-.9v-3.1Z"/>
    </g>
    <g>
      <path class="cls-11" d="M16.07,73.77h-1.34v2.91h-.91v-6.97h2.25c1.64,0,2.41.9,2.41,2.04,0,1.06-.68,2.02-2.41,2.02ZM16.07,73.02c1.04,0,1.48-.49,1.48-1.27s-.44-1.29-1.48-1.29h-1.34v2.56h1.34Z"/>
      <path class="cls-11" d="M20.52,76.68h-.91v-5.48h.91v.89c.31-.61.9-.99,1.77-.99v.94h-.24c-.87,0-1.53.39-1.53,1.66v2.98Z"/>
      <path class="cls-11" d="M25.72,76.77c-1.55,0-2.73-1.1-2.73-2.84s1.22-2.82,2.77-2.82,2.77,1.09,2.77,2.82-1.25,2.84-2.81,2.84ZM25.72,75.97c.95,0,1.88-.65,1.88-2.04s-.91-2.03-1.85-2.03-1.83.65-1.83,2.03.85,2.04,1.8,2.04Z"/>
      <path class="cls-11" d="M33.74,73.58c0-1.12-.61-1.69-1.53-1.69s-1.57.58-1.57,1.76v3.03h-.91v-5.48h.91v.78c.36-.57,1.02-.88,1.76-.88,1.27,0,2.24.78,2.24,2.35v3.23h-.9v-3.1Z"/>
      <path class="cls-11" d="M38.52,76.77c-1.55,0-2.73-1.1-2.73-2.84s1.22-2.82,2.77-2.82,2.77,1.09,2.77,2.82-1.25,2.84-2.81,2.84ZM38.52,75.97c.95,0,1.88-.65,1.88-2.04s-.91-2.03-1.85-2.03-1.83.65-1.83,2.03.85,2.04,1.8,2.04Z"/>
      <path class="cls-11" d="M47.39,76.68h-.91v-.81c-.35.57-1.02.89-1.75.89-1.26,0-2.25-.78-2.25-2.35v-3.21h.9v3.09c0,1.11.61,1.68,1.53,1.68s1.57-.58,1.57-1.76v-3.01h.91v5.48Z"/>
      <path class="cls-11" d="M52.94,73.58c0-1.12-.61-1.69-1.53-1.69s-1.57.58-1.57,1.76v3.03h-.91v-5.48h.91v.78c.36-.57,1.02-.88,1.76-.88,1.27,0,2.24.78,2.24,2.35v3.23h-.9v-3.1Z"/>
    </g>
    <g>
      <path class="cls-11" d="M353.26,31.68c1.47,0,2.6,1.1,2.6,2.81s-1.13,2.85-2.6,2.85c-1,0-1.71-.54-2.05-1.1v3.61h-.91v-8.08h.91v1.01c.33-.58,1.05-1.1,2.05-1.1ZM353.06,32.47c-.99,0-1.86.76-1.86,2.03s.87,2.04,1.86,2.04,1.86-.76,1.86-2.05-.85-2.02-1.86-2.02Z"/>
      <path class="cls-11" d="M357.97,37.25h-.91v-5.48h.91v.89c.31-.61.9-.99,1.77-.99v.94h-.24c-.87,0-1.53.39-1.53,1.66v2.98Z"/>
      <path class="cls-11" d="M363.18,37.34c-1.55,0-2.73-1.1-2.73-2.84s1.22-2.82,2.77-2.82,2.77,1.09,2.77,2.82-1.25,2.84-2.81,2.84ZM363.18,36.54c.95,0,1.88-.65,1.88-2.04s-.91-2.03-1.85-2.03-1.83.65-1.83,2.03.85,2.04,1.8,2.04Z"/>
      <path class="cls-11" d="M371.19,34.15c0-1.12-.61-1.69-1.53-1.69s-1.57.58-1.57,1.76v3.03h-.91v-5.48h.91v.78c.36-.57,1.02-.88,1.76-.88,1.27,0,2.24.78,2.24,2.35v3.23h-.9v-3.1Z"/>
      <path class="cls-11" d="M375.97,37.34c-1.55,0-2.73-1.1-2.73-2.84s1.22-2.82,2.77-2.82,2.77,1.09,2.77,2.82-1.25,2.84-2.81,2.84ZM375.97,36.54c.95,0,1.88-.65,1.88-2.04s-.91-2.03-1.85-2.03-1.83.65-1.83,2.03.85,2.04,1.8,2.04Z"/>
      <path class="cls-11" d="M384.84,37.25h-.91v-.81c-.35.57-1.02.89-1.75.89-1.26,0-2.25-.78-2.25-2.35v-3.21h.9v3.09c0,1.11.61,1.68,1.53,1.68s1.57-.58,1.57-1.76v-3.01h.91v5.48Z"/>
      <path class="cls-11" d="M390.39,34.15c0-1.12-.61-1.69-1.53-1.69s-1.57.58-1.57,1.76v3.03h-.91v-5.48h.91v.78c.36-.57,1.02-.88,1.76-.88,1.27,0,2.24.78,2.24,2.35v3.23h-.9v-3.1Z"/>
    </g>
    <g>
      <path class="cls-11" d="M372.42,70.58c1.47,0,2.6,1.1,2.6,2.81s-1.13,2.85-2.6,2.85c-1,0-1.71-.54-2.05-1.1v3.61h-.91v-8.08h.91v1.01c.33-.58,1.05-1.1,2.05-1.1ZM372.22,71.37c-.99,0-1.86.76-1.86,2.03s.87,2.04,1.86,2.04,1.86-.76,1.86-2.05-.85-2.02-1.86-2.02Z"/>
      <path class="cls-11" d="M377.13,76.15h-.91v-5.48h.91v.89c.31-.61.9-.99,1.77-.99v.94h-.24c-.87,0-1.53.39-1.53,1.66v2.98Z"/>
      <path class="cls-11" d="M382.34,76.24c-1.55,0-2.73-1.1-2.73-2.84s1.22-2.82,2.77-2.82,2.77,1.09,2.77,2.82-1.25,2.84-2.81,2.84ZM382.34,75.44c.95,0,1.88-.65,1.88-2.04s-.91-2.03-1.85-2.03-1.83.65-1.83,2.03.85,2.04,1.8,2.04Z"/>
      <path class="cls-11" d="M390.35,73.05c0-1.12-.61-1.69-1.53-1.69s-1.57.58-1.57,1.76v3.03h-.91v-5.48h.91v.78c.36-.57,1.02-.88,1.76-.88,1.27,0,2.24.78,2.24,2.35v3.23h-.9v-3.1Z"/>
      <path class="cls-11" d="M395.14,76.24c-1.55,0-2.73-1.1-2.73-2.84s1.22-2.82,2.77-2.82,2.77,1.09,2.77,2.82-1.25,2.84-2.81,2.84ZM395.14,75.44c.95,0,1.88-.65,1.88-2.04s-.91-2.03-1.85-2.03-1.83.65-1.83,2.03.85,2.04,1.8,2.04Z"/>
      <path class="cls-11" d="M404,76.15h-.91v-.81c-.35.57-1.02.89-1.75.89-1.26,0-2.25-.78-2.25-2.35v-3.21h.9v3.09c0,1.11.61,1.68,1.53,1.68s1.57-.58,1.57-1.76v-3.01h.91v5.48Z"/>
      <path class="cls-11" d="M409.55,73.05c0-1.12-.61-1.69-1.53-1.69s-1.57.58-1.57,1.76v3.03h-.91v-5.48h.91v.78c.36-.57,1.02-.88,1.76-.88,1.27,0,2.24.78,2.24,2.35v3.23h-.9v-3.1Z"/>
    </g>
    <g>
      <path class="cls-11" d="M78.95,32.96c1.47,0,2.6,1.1,2.6,2.81s-1.13,2.85-2.6,2.85c-1,0-1.71-.54-2.05-1.1v3.61h-.91v-8.08h.91v1.01c.33-.58,1.05-1.1,2.05-1.1ZM78.76,33.75c-.99,0-1.86.76-1.86,2.03s.87,2.04,1.86,2.04,1.86-.76,1.86-2.05-.85-2.02-1.86-2.02Z"/>
      <path class="cls-11" d="M85.01,32.96c1.02,0,1.72.52,2.04,1.09v-1h.92v5.48h-.92v-1.02c-.33.59-1.04,1.11-2.05,1.11-1.46,0-2.59-1.15-2.59-2.85s1.13-2.81,2.6-2.81ZM85.19,33.75c-1,0-1.85.73-1.85,2.02s.85,2.05,1.85,2.05,1.86-.75,1.86-2.04-.86-2.03-1.86-2.03Z"/>
      <path class="cls-11" d="M91.46,38.62c-1.28,0-2.18-.7-2.24-1.7h.94c.05.53.52.93,1.29.93.72,0,1.12-.36,1.12-.81,0-1.22-3.24-.51-3.24-2.55,0-.84.79-1.53,2.01-1.53s2.01.65,2.07,1.72h-.91c-.04-.55-.46-.95-1.19-.95-.67,0-1.07.32-1.07.76,0,1.3,3.18.59,3.22,2.55,0,.9-.79,1.58-2,1.58Z"/>
      <path class="cls-11" d="M94.94,33.8h-.71v-.75h.71v-1.38h.91v1.38h1.43v.75h-1.43v3.23c0,.54.2.73.76.73h.67v.77h-.82c-.97,0-1.52-.4-1.52-1.5v-3.23Z"/>
      <path class="cls-11" d="M101.25,33.8h-.71v-.75h.71v-1.38h.91v1.38h1.43v.75h-1.43v3.23c0,.54.2.73.76.73h.67v.77h-.82c-.97,0-1.52-.4-1.52-1.5v-3.23Z"/>
      <path class="cls-11" d="M107.05,38.62c-1.56,0-2.71-1.1-2.71-2.84s1.11-2.82,2.71-2.82,2.63,1.12,2.63,2.62c0,.2,0,.36-.03.55h-4.38c.07,1.11.85,1.72,1.78,1.72.82,0,1.34-.42,1.54-1.01h.98c-.28,1-1.16,1.78-2.52,1.78ZM105.29,35.39h3.46c.01-1.07-.79-1.66-1.73-1.66-.89,0-1.63.59-1.73,1.66Z"/>
      <path class="cls-11" d="M114.89,35.43c0-1.12-.61-1.69-1.53-1.69s-1.57.58-1.57,1.76v3.03h-.91v-5.48h.91v.78c.36-.57,1.02-.88,1.76-.88,1.27,0,2.24.78,2.24,2.35v3.23h-.9v-3.1Z"/>
      <path class="cls-11" d="M119.22,38.62c-1.28,0-2.18-.7-2.24-1.7h.94c.05.53.52.93,1.29.93.72,0,1.12-.36,1.12-.81,0-1.22-3.24-.51-3.24-2.55,0-.84.79-1.53,2.01-1.53s2.01.65,2.07,1.72h-.91c-.04-.55-.46-.95-1.19-.95-.67,0-1.07.32-1.07.76,0,1.3,3.18.59,3.22,2.55,0,.9-.79,1.58-2,1.58Z"/>
      <path class="cls-11" d="M124.87,38.62c-1.56,0-2.71-1.1-2.71-2.84s1.11-2.82,2.71-2.82,2.63,1.12,2.63,2.62c0,.2,0,.36-.03.55h-4.38c.07,1.11.85,1.72,1.78,1.72.82,0,1.34-.42,1.54-1.01h.98c-.28,1-1.16,1.78-2.52,1.78ZM123.11,35.39h3.46c0-1.07-.79-1.66-1.73-1.66-.89,0-1.63.59-1.73,1.66Z"/>
      <path class="cls-11" d="M131.71,33.05l1.71,4.64,1.7-4.64h.97l-2.15,5.48h-1.06l-2.15-5.48h.98Z"/>
      <path class="cls-11" d="M139.35,38.62c-1.56,0-2.71-1.1-2.71-2.84s1.11-2.82,2.71-2.82,2.63,1.12,2.63,2.62c0,.2,0,.36-.03.55h-4.38c.07,1.11.85,1.72,1.78,1.72.82,0,1.34-.42,1.54-1.01h.98c-.28,1-1.16,1.78-2.52,1.78ZM137.59,35.39h3.46c0-1.07-.79-1.66-1.73-1.66-.89,0-1.63.59-1.73,1.66Z"/>
      <path class="cls-11" d="M144.09,38.53h-.91v-5.48h.91v.89c.31-.61.9-.99,1.77-.99v.94h-.24c-.87,0-1.53.39-1.53,1.66v2.98Z"/>
      <path class="cls-11" d="M149.87,32.96c1.48,0,2.6,1.1,2.6,2.81s-1.13,2.85-2.6,2.85c-1,0-1.71-.5-2.05-1.1v1.01h-.91v-7.4h.91v2.94c.35-.61,1.08-1.11,2.05-1.11ZM149.68,33.75c-.99,0-1.86.76-1.86,2.03s.87,2.04,1.86,2.04,1.86-.76,1.86-2.05-.85-2.02-1.86-2.02Z"/>
    </g>
    <g>
      <path class="cls-11" d="M78.68,70.58c.86,0,1.65.44,2.03,1.07v-2.9h.92v7.4h-.92v-1.03c-.33.61-1.04,1.12-2.04,1.12-1.47,0-2.6-1.15-2.6-2.85s1.13-2.81,2.61-2.81ZM78.85,71.37c-1,0-1.85.73-1.85,2.02s.85,2.05,1.85,2.05,1.86-.75,1.86-2.04-.86-2.03-1.86-2.03Z"/>
      <path class="cls-11" d="M83.03,69.16c0-.35.27-.62.62-.62.33,0,.6.27.6.62s-.27.62-.6.62c-.35,0-.62-.27-.62-.62ZM83.18,70.67h.91v5.48h-.91v-5.48Z"/>
      <path class="cls-11" d="M87.9,70.58c.86,0,1.65.44,2.03,1.07v-2.9h.92v7.4h-.92v-1.03c-.33.61-1.04,1.12-2.04,1.12-1.47,0-2.6-1.15-2.6-2.85s1.13-2.81,2.61-2.81ZM88.07,71.37c-1,0-1.85.73-1.85,2.02s.85,2.05,1.85,2.05,1.86-.75,1.86-2.04-.86-2.03-1.86-2.03Z"/>
      <path class="cls-11" d="M95.47,69.94v2.17h2.13v.77h-2.13v2.16h-.85v-2.16h-2.12v-.77h2.12v-2.17h.85Z"/>
      <path class="cls-11" d="M103.23,73.05c0-1.12-.61-1.69-1.53-1.69s-1.57.58-1.57,1.76v3.03h-.91v-5.48h.91v.78c.36-.57,1.02-.88,1.76-.88,1.27,0,2.24.78,2.24,2.35v3.23h-.9v-3.1Z"/>
      <path class="cls-11" d="M108.01,76.24c-1.55,0-2.73-1.1-2.73-2.84s1.22-2.82,2.77-2.82,2.77,1.09,2.77,2.82-1.25,2.84-2.81,2.84ZM108.01,75.44c.95,0,1.88-.65,1.88-2.04s-.91-2.03-1.85-2.03-1.83.65-1.83,2.03.85,2.04,1.8,2.04Z"/>
      <path class="cls-11" d="M112.23,71.42h-.71v-.75h.71v-1.38h.91v1.38h1.43v.75h-1.43v3.23c0,.54.2.73.76.73h.67v.77h-.82c-.97,0-1.52-.4-1.52-1.5v-3.23Z"/>
    </g>
    <g>
      <path class="cls-11" d="M415.43,33.05l1.71,4.64,1.7-4.64h.97l-2.15,5.48h-1.06l-2.15-5.48h.98Z"/>
      <path class="cls-11" d="M423.07,38.62c-1.56,0-2.71-1.1-2.71-2.84s1.11-2.82,2.71-2.82,2.63,1.12,2.63,2.62c0,.2,0,.36-.03.55h-4.38c.07,1.11.85,1.72,1.78,1.72.82,0,1.34-.42,1.54-1.01h.98c-.28,1-1.16,1.78-2.52,1.78ZM421.31,35.39h3.46c0-1.07-.79-1.66-1.73-1.66-.89,0-1.63.59-1.73,1.66Z"/>
      <path class="cls-11" d="M427.82,38.53h-.91v-5.48h.91v.89c.31-.61.9-.99,1.77-.99v.94h-.24c-.87,0-1.53.39-1.53,1.66v2.98Z"/>
      <path class="cls-11" d="M433.59,32.96c1.48,0,2.6,1.1,2.6,2.81s-1.13,2.85-2.6,2.85c-1,0-1.71-.5-2.05-1.1v1.01h-.91v-7.4h.91v2.94c.35-.61,1.08-1.11,2.05-1.11ZM433.4,33.75c-.99,0-1.86.76-1.86,2.03s.87,2.04,1.86,2.04,1.86-.76,1.86-2.05-.85-2.02-1.86-2.02Z"/>
    </g>
    <g>
      <path class="cls-11" d="M132.36,70.67l1.71,4.64,1.7-4.64h.97l-2.15,5.48h-1.06l-2.15-5.48h.98Z"/>
      <path class="cls-11" d="M140.01,76.24c-1.56,0-2.71-1.1-2.71-2.84s1.11-2.82,2.71-2.82,2.63,1.12,2.63,2.62c0,.2,0,.36-.03.55h-4.38c.07,1.11.85,1.72,1.78,1.72.82,0,1.34-.42,1.54-1.01h.98c-.28,1-1.16,1.78-2.52,1.78ZM138.24,73.01h3.46c.01-1.07-.79-1.66-1.73-1.66-.89,0-1.63.59-1.73,1.66Z"/>
      <path class="cls-11" d="M144.75,76.15h-.91v-5.48h.91v.89c.31-.61.9-.99,1.77-.99v.94h-.24c-.87,0-1.53.39-1.53,1.66v2.98Z"/>
      <path class="cls-11" d="M150.52,70.58c1.48,0,2.6,1.1,2.6,2.81s-1.13,2.85-2.6,2.85c-1,0-1.71-.5-2.05-1.1v1.01h-.91v-7.4h.91v2.94c.35-.61,1.08-1.11,2.05-1.11ZM150.33,71.37c-.99,0-1.86.76-1.86,2.03s.87,2.04,1.86,2.04,1.86-.76,1.86-2.05-.85-2.02-1.86-2.02Z"/>
    </g>
    <g>
      <path class="cls-11" d="M423.09,70.67l1.71,4.64,1.7-4.64h.97l-2.15,5.48h-1.06l-2.15-5.48h.98Z"/>
      <path class="cls-11" d="M430.73,76.24c-1.56,0-2.71-1.1-2.71-2.84s1.11-2.82,2.71-2.82,2.63,1.12,2.63,2.62c0,.2,0,.36-.03.55h-4.38c.07,1.11.85,1.72,1.78,1.72.82,0,1.34-.42,1.54-1.01h.98c-.28,1-1.16,1.78-2.52,1.78ZM428.97,73.01h3.46c0-1.07-.79-1.66-1.73-1.66-.89,0-1.63.59-1.73,1.66Z"/>
      <path class="cls-11" d="M435.48,76.15h-.91v-5.48h.91v.89c.31-.61.9-.99,1.77-.99v.94h-.24c-.87,0-1.53.39-1.53,1.66v2.98Z"/>
      <path class="cls-11" d="M441.25,70.58c1.48,0,2.6,1.1,2.6,2.81s-1.13,2.85-2.6,2.85c-1,0-1.71-.5-2.05-1.1v1.01h-.91v-7.4h.91v2.94c.35-.61,1.08-1.11,2.05-1.11ZM441.06,71.37c-.99,0-1.86.76-1.86,2.03s.87,2.04,1.86,2.04,1.86-.76,1.86-2.05-.85-2.02-1.86-2.02Z"/>
    </g>
    <g>
      <path class="cls-11" d="M347.05,70.51c.86,0,1.65.44,2.03,1.07v-2.9h.92v7.4h-.92v-1.03c-.33.61-1.04,1.12-2.04,1.12-1.47,0-2.6-1.15-2.6-2.85s1.13-2.81,2.61-2.81ZM347.22,71.3c-1,0-1.85.73-1.85,2.02s.85,2.05,1.85,2.05,1.86-.75,1.86-2.04-.86-2.03-1.86-2.03Z"/>
      <path class="cls-11" d="M351.39,69.09c0-.35.27-.62.62-.62.33,0,.6.27.6.62s-.27.62-.6.62c-.35,0-.62-.27-.62-.62ZM351.54,70.6h.91v5.48h-.91v-5.48Z"/>
      <path class="cls-11" d="M356.26,70.51c.86,0,1.65.44,2.03,1.07v-2.9h.92v7.4h-.92v-1.03c-.33.61-1.04,1.12-2.04,1.12-1.47,0-2.6-1.15-2.6-2.85s1.13-2.81,2.61-2.81ZM356.43,71.3c-1,0-1.85.73-1.85,2.02s.85,2.05,1.85,2.05,1.86-.75,1.86-2.04-.86-2.03-1.86-2.03Z"/>
    </g>
    <g>
      <path class="cls-11" d="M259.3,35.62h-1.34v2.91h-.91v-6.97h2.25c1.64,0,2.41.9,2.41,2.04,0,1.06-.68,2.02-2.41,2.02ZM259.3,34.87c1.04,0,1.48-.49,1.48-1.27s-.44-1.29-1.48-1.29h-1.34v2.56h1.34Z"/>
      <path class="cls-11" d="M265.1,32.96c1.02,0,1.72.52,2.04,1.09v-1h.92v5.48h-.92v-1.02c-.33.59-1.04,1.11-2.05,1.11-1.46,0-2.59-1.15-2.59-2.85s1.13-2.81,2.6-2.81ZM265.28,33.75c-1,0-1.85.73-1.85,2.02s.85,2.05,1.85,2.05,1.86-.75,1.86-2.04-.86-2.03-1.86-2.03Z"/>
      <path class="cls-11" d="M271.55,38.62c-1.28,0-2.18-.7-2.24-1.7h.94c.05.53.52.93,1.29.93.72,0,1.12-.36,1.12-.81,0-1.22-3.24-.51-3.24-2.55,0-.84.79-1.53,2.01-1.53s2.01.65,2.07,1.72h-.91c-.04-.55-.46-.95-1.19-.95-.67,0-1.07.32-1.07.76,0,1.3,3.18.59,3.22,2.55,0,.9-.79,1.58-2,1.58Z"/>
      <path class="cls-11" d="M275.03,33.8h-.71v-.75h.71v-1.38h.91v1.38h1.43v.75h-1.43v3.23c0,.54.2.73.76.73h.67v.77h-.82c-.97,0-1.52-.4-1.52-1.5v-3.23Z"/>
      <path class="cls-11" d="M281.34,33.8h-.71v-.75h.71v-1.38h.91v1.38h1.43v.75h-1.43v3.23c0,.54.2.73.76.73h.67v.77h-.82c-.97,0-1.52-.4-1.52-1.5v-3.23Z"/>
      <path class="cls-11" d="M287.14,38.62c-1.56,0-2.71-1.1-2.71-2.84s1.11-2.82,2.71-2.82,2.63,1.12,2.63,2.62c0,.2,0,.36-.03.55h-4.38c.07,1.11.85,1.72,1.78,1.72.82,0,1.34-.42,1.54-1.01h.98c-.28,1-1.16,1.78-2.52,1.78ZM285.38,35.39h3.46c.01-1.07-.79-1.66-1.73-1.66-.89,0-1.63.59-1.73,1.66Z"/>
      <path class="cls-11" d="M294.98,35.43c0-1.12-.61-1.69-1.53-1.69s-1.57.58-1.57,1.76v3.03h-.91v-5.48h.91v.78c.36-.57,1.02-.88,1.76-.88,1.27,0,2.24.78,2.24,2.35v3.23h-.9v-3.1Z"/>
      <path class="cls-11" d="M299.31,38.62c-1.28,0-2.18-.7-2.24-1.7h.94c.05.53.52.93,1.29.93.72,0,1.12-.36,1.12-.81,0-1.22-3.24-.51-3.24-2.55,0-.84.79-1.53,2.01-1.53s2.01.65,2.07,1.72h-.91c-.04-.55-.46-.95-1.19-.95-.67,0-1.07.32-1.07.76,0,1.3,3.18.59,3.22,2.55,0,.9-.79,1.58-2,1.58Z"/>
      <path class="cls-11" d="M304.96,38.62c-1.56,0-2.71-1.1-2.71-2.84s1.11-2.82,2.71-2.82,2.63,1.12,2.63,2.62c0,.2,0,.36-.03.55h-4.38c.07,1.11.85,1.72,1.78,1.72.82,0,1.34-.42,1.54-1.01h.98c-.28,1-1.16,1.78-2.52,1.78ZM303.2,35.39h3.46c0-1.07-.79-1.66-1.73-1.66-.89,0-1.63.59-1.73,1.66Z"/>
      <path class="cls-11" d="M312.57,31.55l-.59,2.27h-1.01l.96-2.27h.64ZM314.19,31.55l-.59,2.27h-1.01l.96-2.27h.64Z"/>
      <path class="cls-11" d="M317.59,32.96c.86,0,1.65.44,2.03,1.07v-2.9h.92v7.4h-.92v-1.03c-.33.61-1.04,1.12-2.04,1.12-1.47,0-2.6-1.15-2.6-2.85s1.13-2.81,2.61-2.81ZM317.76,33.75c-1,0-1.85.73-1.85,2.02s.85,2.05,1.85,2.05,1.86-.75,1.86-2.04-.86-2.03-1.86-2.03Z"/>
      <path class="cls-11" d="M324.47,38.62c-1.55,0-2.73-1.1-2.73-2.84s1.22-2.82,2.77-2.82,2.77,1.09,2.77,2.82-1.25,2.84-2.81,2.84ZM324.47,37.82c.95,0,1.88-.65,1.88-2.04s-.91-2.03-1.85-2.03-1.83.65-1.83,2.03.85,2.04,1.8,2.04Z"/>
      <path class="cls-11" d="M328.13,33.83l.59-2.27h1.01l-.96,2.27h-.64ZM329.76,33.83l.59-2.27h1.01l-.96,2.27h-.64Z"/>
    </g>
    <g>
      <path class="cls-11" d="M271.02,69.18h.97l1.52,5.91,1.68-5.91h1.02l1.6,5.89,1.53-5.89h.98l-2.02,6.97h-1.02l-1.62-5.61-1.68,5.61h-1.01s-1.95-6.97-1.95-6.97Z"/>
      <path class="cls-11" d="M285.77,72.99h-3.55v3.16h-.91v-6.97h.91v3.06h3.55v-3.06h.91v6.97h-.91v-3.16Z"/>
      <path class="cls-11" d="M288.04,72.1h3.99v.77h-3.99v-.77Z"/>
      <path class="cls-11" d="M293.09,70.67h.93l1.26,4.6,1.36-4.6h.93l1.33,4.61,1.24-4.61h.9l-1.71,5.48h-.94l-1.32-4.35-1.32,4.35h-.94l-1.72-5.48Z"/>
      <path class="cls-11" d="M304.32,76.24c-1.55,0-2.73-1.1-2.73-2.84s1.22-2.82,2.77-2.82,2.77,1.09,2.77,2.82-1.25,2.84-2.81,2.84ZM304.32,75.44c.95,0,1.88-.65,1.88-2.04s-.91-2.03-1.85-2.03-1.83.65-1.83,2.03.85,2.04,1.8,2.04Z"/>
      <path class="cls-11" d="M309.25,76.15h-.91v-5.48h.91v.89c.31-.61.9-.99,1.77-.99v.94h-.24c-.87,0-1.53.39-1.53,1.66v2.98Z"/>
      <path class="cls-11" d="M314.33,70.58c.86,0,1.65.44,2.03,1.07v-2.9h.92v7.4h-.92v-1.03c-.33.61-1.04,1.12-2.04,1.12-1.47,0-2.6-1.15-2.6-2.85s1.13-2.81,2.61-2.81ZM314.5,71.37c-1,0-1.85.73-1.85,2.02s.85,2.05,1.85,2.05,1.86-.75,1.86-2.04-.86-2.03-1.86-2.03Z"/>
    </g>
    <g>
      <path class="cls-11" d="M174.77,32.96c1.36,0,2.25.7,2.53,1.85h-.98c-.19-.66-.74-1.08-1.55-1.08-1,0-1.74.71-1.74,2.05s.74,2.07,1.74,2.07c.81,0,1.35-.39,1.55-1.08h.98c-.28,1.09-1.17,1.85-2.53,1.85-1.56,0-2.67-1.1-2.67-2.84s1.11-2.82,2.67-2.82Z"/>
      <path class="cls-11" d="M180.9,38.62c-1.55,0-2.73-1.1-2.73-2.84s1.22-2.82,2.77-2.82,2.77,1.09,2.77,2.82-1.25,2.84-2.81,2.84ZM180.9,37.82c.95,0,1.88-.65,1.88-2.04s-.91-2.03-1.85-2.03-1.83.65-1.83,2.03.85,2.04,1.8,2.04Z"/>
      <path class="cls-11" d="M192.82,35.43c0-1.12-.6-1.69-1.5-1.69s-1.55.59-1.55,1.77v3.02h-.9v-3.1c0-1.12-.6-1.69-1.5-1.69s-1.55.59-1.55,1.77v3.02h-.91v-5.48h.91v.79c.36-.58,1.01-.89,1.73-.89.9,0,1.65.4,2.01,1.22.32-.79,1.1-1.22,1.94-1.22,1.25,0,2.22.78,2.22,2.35v3.23h-.9v-3.1Z"/>
      <path class="cls-11" d="M198.18,32.96c1.47,0,2.6,1.1,2.6,2.81s-1.13,2.85-2.6,2.85c-1,0-1.71-.54-2.05-1.1v3.61h-.91v-8.08h.91v1.01c.33-.58,1.05-1.1,2.05-1.1ZM197.98,33.75c-.99,0-1.86.76-1.86,2.03s.87,2.04,1.86,2.04,1.86-.76,1.86-2.05-.85-2.02-1.86-2.02Z"/>
      <path class="cls-11" d="M201.98,31.13h.91v7.4h-.91v-7.4Z"/>
      <path class="cls-11" d="M206.8,38.62c-1.56,0-2.71-1.1-2.71-2.84s1.11-2.82,2.71-2.82,2.63,1.12,2.63,2.62c0,.2,0,.36-.03.55h-4.38c.07,1.11.85,1.72,1.78,1.72.82,0,1.34-.42,1.54-1.01h.98c-.28,1-1.16,1.78-2.52,1.78ZM205.04,35.39h3.46c.01-1.07-.79-1.66-1.73-1.66-.89,0-1.63.59-1.73,1.66Z"/>
      <path class="cls-11" d="M218.54,35.43c0-1.12-.6-1.69-1.5-1.69s-1.55.59-1.55,1.77v3.02h-.9v-3.1c0-1.12-.6-1.69-1.5-1.69s-1.55.59-1.55,1.77v3.02h-.91v-5.48h.91v.79c.36-.58,1.01-.89,1.73-.89.9,0,1.65.4,2.01,1.22.32-.79,1.1-1.22,1.94-1.22,1.25,0,2.22.78,2.22,2.35v3.23h-.9v-3.1Z"/>
      <path class="cls-11" d="M223.3,38.62c-1.56,0-2.71-1.1-2.71-2.84s1.11-2.82,2.71-2.82,2.63,1.12,2.63,2.62c0,.2,0,.36-.03.55h-4.38c.07,1.11.85,1.72,1.78,1.72.82,0,1.34-.42,1.54-1.01h.98c-.28,1-1.16,1.78-2.52,1.78ZM221.54,35.39h3.46c.01-1.07-.79-1.66-1.73-1.66-.89,0-1.63.59-1.73,1.66Z"/>
      <path class="cls-11" d="M231.14,35.43c0-1.12-.61-1.69-1.53-1.69s-1.57.58-1.57,1.76v3.03h-.91v-5.48h.91v.78c.36-.57,1.02-.88,1.76-.88,1.27,0,2.24.78,2.24,2.35v3.23h-.9v-3.1Z"/>
      <path class="cls-11" d="M233.74,33.8h-.71v-.75h.71v-1.38h.91v1.38h1.43v.75h-1.43v3.23c0,.54.2.73.76.73h.67v.77h-.82c-.97,0-1.52-.4-1.52-1.5v-3.23Z"/>
      <path class="cls-11" d="M237.47,38.59c-.35,0-.62-.27-.62-.62s.27-.62.62-.62c.33,0,.6.27.6.62s-.27.62-.6.62Z"/>
    </g>
    <g>
      <path class="cls-11" d="M174.98,70.58c1.36,0,2.25.7,2.53,1.85h-.98c-.19-.66-.74-1.08-1.55-1.08-1,0-1.74.71-1.74,2.05s.74,2.07,1.74,2.07c.81,0,1.35-.39,1.55-1.08h.98c-.28,1.09-1.17,1.85-2.53,1.85-1.56,0-2.67-1.1-2.67-2.84s1.11-2.82,2.67-2.82Z"/>
      <path class="cls-11" d="M181.11,76.24c-1.55,0-2.73-1.1-2.73-2.84s1.22-2.82,2.77-2.82,2.77,1.09,2.77,2.82-1.25,2.84-2.81,2.84ZM181.11,75.44c.95,0,1.88-.65,1.88-2.04s-.91-2.03-1.85-2.03-1.83.65-1.83,2.03.85,2.04,1.8,2.04Z"/>
      <path class="cls-11" d="M193.03,73.05c0-1.12-.6-1.69-1.5-1.69s-1.55.59-1.55,1.77v3.02h-.9v-3.1c0-1.12-.6-1.69-1.5-1.69s-1.55.59-1.55,1.77v3.02h-.91v-5.48h.91v.79c.36-.58,1.01-.89,1.73-.89.9,0,1.65.4,2.01,1.22.32-.79,1.1-1.22,1.94-1.22,1.25,0,2.22.78,2.22,2.35v3.23h-.9v-3.1Z"/>
      <path class="cls-11" d="M198.39,70.58c1.47,0,2.6,1.1,2.6,2.81s-1.13,2.85-2.6,2.85c-1,0-1.71-.54-2.05-1.1v3.61h-.91v-8.08h.91v1.01c.33-.58,1.05-1.1,2.05-1.1ZM198.19,71.37c-.99,0-1.86.76-1.86,2.03s.87,2.04,1.86,2.04,1.86-.76,1.86-2.05-.85-2.02-1.86-2.02Z"/>
      <path class="cls-11" d="M202.19,68.75h.91v7.4h-.91v-7.4Z"/>
      <path class="cls-11" d="M207.01,76.24c-1.56,0-2.71-1.1-2.71-2.84s1.11-2.82,2.71-2.82,2.63,1.12,2.63,2.62c0,.2,0,.36-.03.55h-4.38c.07,1.11.85,1.72,1.78,1.72.82,0,1.34-.42,1.54-1.01h.98c-.28,1-1.16,1.78-2.52,1.78ZM205.25,73.01h3.46c.01-1.07-.79-1.66-1.73-1.66-.89,0-1.63.59-1.73,1.66Z"/>
      <path class="cls-11" d="M218.75,73.05c0-1.12-.6-1.69-1.5-1.69s-1.55.59-1.55,1.77v3.02h-.9v-3.1c0-1.12-.6-1.69-1.5-1.69s-1.55.59-1.55,1.77v3.02h-.91v-5.48h.91v.79c.36-.58,1.01-.89,1.73-.89.9,0,1.65.4,2.01,1.22.32-.79,1.1-1.22,1.94-1.22,1.25,0,2.22.78,2.22,2.35v3.23h-.9v-3.1Z"/>
      <path class="cls-11" d="M223.51,76.24c-1.56,0-2.71-1.1-2.71-2.84s1.11-2.82,2.71-2.82,2.63,1.12,2.63,2.62c0,.2,0,.36-.03.55h-4.38c.07,1.11.85,1.72,1.78,1.72.82,0,1.34-.42,1.54-1.01h.98c-.28,1-1.16,1.78-2.52,1.78ZM221.75,73.01h3.46c.01-1.07-.79-1.66-1.73-1.66-.89,0-1.63.59-1.73,1.66Z"/>
      <path class="cls-11" d="M231.35,73.05c0-1.12-.61-1.69-1.53-1.69s-1.57.58-1.57,1.76v3.03h-.91v-5.48h.91v.78c.36-.57,1.02-.88,1.76-.88,1.27,0,2.24.78,2.24,2.35v3.23h-.9v-3.1Z"/>
      <path class="cls-11" d="M233.95,71.42h-.71v-.75h.71v-1.38h.91v1.38h1.43v.75h-1.43v3.23c0,.54.2.73.76.73h.67v.77h-.82c-.97,0-1.52-.4-1.52-1.5v-3.23Z"/>
      <path class="cls-11" d="M237.68,76.21c-.35,0-.62-.27-.62-.62s.27-.62.62-.62c.33,0,.6.27.6.62s-.27.62-.6.62Z"/>
    </g>
    <g>
      <path class="cls-11" d="M461.14,31.91c1.36,0,2.25.7,2.53,1.85h-.98c-.19-.66-.74-1.08-1.55-1.08-1,0-1.74.71-1.74,2.05s.74,2.07,1.74,2.07c.81,0,1.35-.39,1.55-1.08h.98c-.28,1.09-1.17,1.85-2.53,1.85-1.56,0-2.67-1.1-2.67-2.84s1.11-2.82,2.67-2.82Z"/>
      <path class="cls-11" d="M467.26,37.57c-1.55,0-2.73-1.1-2.73-2.84s1.22-2.82,2.77-2.82,2.77,1.09,2.77,2.82-1.25,2.84-2.81,2.84ZM467.26,36.77c.95,0,1.88-.65,1.88-2.04s-.91-2.03-1.85-2.03-1.83.65-1.83,2.03.85,2.04,1.8,2.04Z"/>
      <path class="cls-11" d="M479.18,34.38c0-1.12-.6-1.69-1.5-1.69s-1.55.59-1.55,1.77v3.02h-.9v-3.1c0-1.12-.6-1.69-1.5-1.69s-1.55.59-1.55,1.77v3.02h-.91v-5.48h.91v.79c.36-.58,1.01-.89,1.73-.89.9,0,1.65.4,2.01,1.22.32-.79,1.1-1.22,1.94-1.22,1.25,0,2.22.78,2.22,2.35v3.23h-.9v-3.1Z"/>
      <path class="cls-11" d="M484.53,31.91c1.47,0,2.6,1.1,2.6,2.81s-1.13,2.85-2.6,2.85c-1,0-1.71-.54-2.05-1.1v3.61h-.91v-8.08h.91v1.01c.33-.58,1.05-1.1,2.05-1.1ZM484.34,32.7c-.99,0-1.86.76-1.86,2.03s.87,2.04,1.86,2.04,1.86-.76,1.86-2.05-.85-2.02-1.86-2.02Z"/>
      <path class="cls-11" d="M488.34,30.08h.91v7.4h-.91v-7.4Z"/>
      <path class="cls-11" d="M493.16,37.57c-1.56,0-2.71-1.1-2.71-2.84s1.11-2.82,2.71-2.82,2.63,1.12,2.63,2.62c0,.2,0,.36-.03.55h-4.38c.07,1.11.85,1.72,1.78,1.72.82,0,1.34-.42,1.54-1.01h.98c-.28,1-1.16,1.78-2.52,1.78ZM491.4,34.34h3.46c0-1.07-.79-1.66-1.73-1.66-.89,0-1.63.59-1.73,1.66Z"/>
      <path class="cls-11" d="M504.9,34.38c0-1.12-.6-1.69-1.5-1.69s-1.55.59-1.55,1.77v3.02h-.9v-3.1c0-1.12-.6-1.69-1.5-1.69s-1.55.59-1.55,1.77v3.02h-.91v-5.48h.91v.79c.36-.58,1.01-.89,1.73-.89.9,0,1.65.4,2.01,1.22.32-.79,1.1-1.22,1.94-1.22,1.25,0,2.22.78,2.22,2.35v3.23h-.9v-3.1Z"/>
      <path class="cls-11" d="M509.66,37.57c-1.56,0-2.71-1.1-2.71-2.84s1.11-2.82,2.71-2.82,2.63,1.12,2.63,2.62c0,.2,0,.36-.03.55h-4.38c.07,1.11.85,1.72,1.78,1.72.82,0,1.34-.42,1.54-1.01h.98c-.28,1-1.16,1.78-2.52,1.78ZM507.9,34.34h3.46c0-1.07-.79-1.66-1.73-1.66-.89,0-1.63.59-1.73,1.66Z"/>
      <path class="cls-11" d="M517.5,34.38c0-1.12-.61-1.69-1.53-1.69s-1.57.58-1.57,1.76v3.03h-.91v-5.48h.91v.78c.36-.57,1.02-.88,1.76-.88,1.27,0,2.24.78,2.24,2.35v3.23h-.9v-3.1Z"/>
      <path class="cls-11" d="M520.1,32.75h-.71v-.75h.71v-1.38h.91v1.38h1.43v.75h-1.43v3.23c0,.54.2.73.76.73h.67v.77h-.82c-.97,0-1.52-.4-1.52-1.5v-3.23Z"/>
      <path class="cls-11" d="M525.31,30.42c1.31,0,2.21.79,2.21,2.06,0,1.46-1.01,2.06-2.41,2.06l-.03.95h-.79l-.04-1.58h.29c1.14,0,2.11-.22,2.11-1.43,0-.8-.52-1.3-1.33-1.3s-1.33.47-1.33,1.25h-.86c0-1.21.87-2.01,2.18-2.01ZM524.68,37.54c-.35,0-.62-.27-.62-.62s.27-.62.62-.62c.33,0,.6.27.6.62s-.27.62-.6.62Z"/>
    </g>
    <g>
      <path class="cls-11" d="M461.31,70.25c1.36,0,2.25.7,2.53,1.85h-.98c-.19-.66-.74-1.08-1.55-1.08-1,0-1.74.71-1.74,2.05s.74,2.07,1.74,2.07c.81,0,1.35-.39,1.55-1.08h.98c-.28,1.09-1.17,1.85-2.53,1.85-1.56,0-2.67-1.1-2.67-2.84s1.11-2.82,2.67-2.82Z"/>
      <path class="cls-11" d="M467.44,75.91c-1.55,0-2.73-1.1-2.73-2.84s1.22-2.82,2.77-2.82,2.77,1.09,2.77,2.82-1.25,2.84-2.81,2.84ZM467.44,75.11c.95,0,1.88-.65,1.88-2.04s-.91-2.03-1.85-2.03-1.83.65-1.83,2.03.85,2.04,1.8,2.04Z"/>
      <path class="cls-11" d="M479.36,72.72c0-1.12-.6-1.69-1.5-1.69s-1.55.59-1.55,1.77v3.02h-.9v-3.1c0-1.12-.6-1.69-1.5-1.69s-1.55.59-1.55,1.77v3.02h-.91v-5.48h.91v.79c.36-.58,1.01-.89,1.73-.89.9,0,1.65.4,2.01,1.22.32-.79,1.1-1.22,1.94-1.22,1.25,0,2.22.78,2.22,2.35v3.23h-.9v-3.1Z"/>
      <path class="cls-11" d="M484.72,70.25c1.47,0,2.6,1.1,2.6,2.81s-1.13,2.85-2.6,2.85c-1,0-1.71-.54-2.05-1.1v3.61h-.91v-8.08h.91v1.01c.33-.58,1.05-1.1,2.05-1.1ZM484.52,71.04c-.99,0-1.86.76-1.86,2.03s.87,2.04,1.86,2.04,1.86-.76,1.86-2.05-.85-2.02-1.86-2.02Z"/>
      <path class="cls-11" d="M488.52,68.42h.91v7.4h-.91v-7.4Z"/>
      <path class="cls-11" d="M493.34,75.91c-1.56,0-2.71-1.1-2.71-2.84s1.11-2.82,2.71-2.82,2.63,1.12,2.63,2.62c0,.2,0,.36-.03.55h-4.38c.07,1.11.85,1.72,1.78,1.72.82,0,1.34-.42,1.54-1.01h.98c-.28,1-1.16,1.78-2.52,1.78ZM491.58,72.68h3.46c.01-1.07-.79-1.66-1.73-1.66-.89,0-1.63.59-1.73,1.66Z"/>
      <path class="cls-11" d="M505.08,72.72c0-1.12-.6-1.69-1.5-1.69s-1.55.59-1.55,1.77v3.02h-.9v-3.1c0-1.12-.6-1.69-1.5-1.69s-1.55.59-1.55,1.77v3.02h-.91v-5.48h.91v.79c.36-.58,1.01-.89,1.73-.89.9,0,1.65.4,2.01,1.22.32-.79,1.1-1.22,1.94-1.22,1.25,0,2.22.78,2.22,2.35v3.23h-.9v-3.1Z"/>
      <path class="cls-11" d="M509.84,75.91c-1.56,0-2.71-1.1-2.71-2.84s1.11-2.82,2.71-2.82,2.63,1.12,2.63,2.62c0,.2,0,.36-.03.55h-4.38c.07,1.11.85,1.72,1.78,1.72.82,0,1.34-.42,1.54-1.01h.98c-.28,1-1.16,1.78-2.52,1.78ZM508.08,72.68h3.46c.01-1.07-.79-1.66-1.73-1.66-.89,0-1.63.59-1.73,1.66Z"/>
      <path class="cls-11" d="M517.68,72.72c0-1.12-.61-1.69-1.53-1.69s-1.57.58-1.57,1.76v3.03h-.91v-5.48h.91v.78c.36-.57,1.02-.88,1.76-.88,1.27,0,2.24.78,2.24,2.35v3.23h-.9v-3.1Z"/>
      <path class="cls-11" d="M520.28,71.09h-.71v-.75h.71v-1.38h.91v1.38h1.43v.75h-1.43v3.23c0,.54.2.73.76.73h.67v.77h-.82c-.97,0-1.52-.4-1.52-1.5v-3.23Z"/>
      <path class="cls-11" d="M525.5,68.76c1.31,0,2.21.79,2.21,2.06,0,1.46-1.01,2.06-2.41,2.06l-.03.95h-.79l-.04-1.58h.29c1.14,0,2.11-.22,2.11-1.43,0-.8-.52-1.3-1.33-1.3s-1.33.47-1.33,1.25h-.86c0-1.21.87-2.01,2.18-2.01ZM524.87,75.88c-.35,0-.62-.27-.62-.62s.27-.62.62-.62c.33,0,.6.27.6.62s-.27.62-.6.62Z"/>
    </g>
    <line class="cls-6" x1="67.8" y1="23.2" x2="67.8" y2="98.15"/>
    <line class="cls-9" x1="160.75" y1="22.63" x2="160.75" y2="97.76"/>
    <line class="cls-3" x1="123.6" y1="61.12" x2="123.6" y2="98.15"/>
    <line class="cls-7" x1="365.8" y1="61.12" x2="365.8" y2="97.73"/>
    <line class="cls-5" x1="416.8" y1="61.12" x2="416.8" y2="97.6"/>
    <line class="cls-2" x1="338.75" y1="22.63" x2="338.75" y2="98.15"/>
    <line class="cls-4" x1="402.2" y1="23" x2="402.2" y2="61.12"/>
    <line class="cls-2" x1="448.86" y1="22.63" x2="448.86" y2="98.15"/>
    <line class="cls-8" x1="249.53" y1="22.51" x2="249.53" y2="97.75"/>
  </g>
</svg>